M48
; DRILL file {KiCad 7.0.10} date Wed Jan 17 01:16:21 2024
; FORMAT={-:-/ absolute / metric / decimal}
; #@! TF.CreationDate,2024-01-17T01:16:21+03:00
; #@! TF.GenerationSoftware,Kicad,Pcbnew,7.0.10
; #@! TF.FileFunction,Plated,1,4,PTH
FMAT,2
METRIC
; #@! TA.AperFunction,Plated,PTH,ViaDrill
T1C0.300
; #@! TA.AperFunction,Plated,PTH,ViaDrill
T2C0.400
; #@! TA.AperFunction,Plated,PTH,ComponentDrill
T3C1.200
; #@! TA.AperFunction,Plated,PTH,ComponentDrill
T4C3.250
%
G90
G05
T1
X37.0Y-63.4
X37.0Y-64.2
X37.0Y-64.9
X37.0Y-65.6
X37.0Y-66.4
X37.0Y-121.75
X37.0Y-122.75
X37.0Y-124.25
X37.0Y-126.25
X37.1Y-68.799
X37.1Y-69.599
X37.1Y-70.399
X37.1Y-71.199
X37.1Y-71.999
X37.1Y-72.799
X37.1Y-73.799
X37.1Y-74.599
X37.1Y-75.3
X37.1Y-76.1
X37.1Y-77.0
X37.1Y-77.9
X37.1Y-78.9
X37.1Y-79.8
X37.1Y-81.1
X37.1Y-82.1
X37.1Y-83.5
X37.1Y-84.8
X37.1Y-86.4
X37.1Y-87.7
X37.1Y-89.3
X37.1Y-90.6
X37.5Y-125.25
X37.75Y-60.2
X37.75Y-61.0
X37.75Y-61.8
X37.75Y-62.6
X37.75Y-63.4
X37.75Y-64.2
X37.75Y-64.9
X37.75Y-65.6
X37.75Y-66.4
X37.75Y-67.2
X37.75Y-68.0
X37.9Y-94.0
X38.2Y-91.0
X38.2Y-109.8
X38.3Y-84.2
X38.3Y-85.5
X38.3Y-87.7
X38.3Y-89.0
X38.3Y-121.5
X38.337Y-68.799
X38.337Y-69.599
X38.337Y-70.399
X38.337Y-71.199
X38.337Y-71.999
X38.337Y-72.799
X38.337Y-73.799
X38.337Y-74.599
X38.4Y-75.3
X38.4Y-76.1
X38.4Y-77.0
X38.4Y-77.9
X38.4Y-78.9
X38.4Y-79.8
X38.4Y-81.1
X38.4Y-82.1
X38.4Y-116.8
X38.5Y-59.4
X38.5Y-60.2
X38.5Y-61.0
X38.5Y-61.8
X38.5Y-62.6
X38.5Y-63.4
X38.5Y-64.2
X38.5Y-64.9
X38.5Y-65.6
X38.5Y-66.4
X38.5Y-67.2
X38.5Y-68.0
X38.5Y-108.0
X38.527Y-113.525
X38.7Y-119.8
X39.0Y-111.2
X39.0Y-124.5
X39.25Y-59.4
X39.25Y-60.2
X39.25Y-61.0
X39.25Y-61.8
X39.25Y-62.6
X39.25Y-63.4
X39.25Y-64.2
X39.25Y-64.9
X39.25Y-65.6
X39.25Y-66.4
X39.25Y-67.2
X39.25Y-68.0
X39.4Y-68.8
X39.4Y-69.6
X39.4Y-70.4
X39.4Y-71.2
X39.4Y-72.0
X39.4Y-72.8
X39.4Y-73.8
X39.4Y-74.6
X39.5Y-75.3
X39.5Y-76.1
X39.8Y-81.4
X40.0Y-58.6
X40.0Y-59.4
X40.0Y-60.2
X40.0Y-61.0
X40.0Y-61.8
X40.0Y-62.6
X40.0Y-63.4
X40.0Y-64.2
X40.0Y-64.9
X40.0Y-65.6
X40.0Y-66.4
X40.0Y-67.2
X40.0Y-68.0
X40.3Y-123.7
X40.5Y-68.8
X40.5Y-69.6
X40.5Y-70.4
X40.5Y-71.2
X40.5Y-72.0
X40.5Y-72.8
X40.5Y-73.8
X40.5Y-74.6
X40.6Y-75.3
X40.75Y-58.6
X40.75Y-59.4
X40.75Y-60.2
X40.75Y-61.0
X40.75Y-61.8
X40.75Y-62.6
X40.75Y-63.4
X40.75Y-64.2
X40.75Y-64.9
X40.75Y-65.6
X40.75Y-66.4
X40.75Y-67.2
X40.75Y-68.0
X41.35Y-92.025
X41.5Y-58.6
X41.5Y-59.4
X41.5Y-60.2
X41.5Y-61.0
X41.5Y-61.8
X41.5Y-62.6
X41.5Y-63.4
X41.5Y-64.2
X41.5Y-64.9
X41.5Y-65.6
X41.5Y-66.4
X41.5Y-67.2
X41.5Y-68.0
X41.5Y-68.8
X41.5Y-69.6
X41.5Y-70.4
X41.5Y-71.2
X41.5Y-72.0
X41.5Y-72.8
X41.5Y-73.8
X41.5Y-74.6
X41.75Y-97.05
X41.8Y-91.2
X42.0Y-123.3
X42.0Y-124.1
X42.0Y-125.0
X42.25Y-58.6
X42.25Y-59.4
X42.25Y-60.2
X42.25Y-61.0
X42.25Y-61.8
X42.25Y-62.6
X42.25Y-63.4
X42.25Y-64.2
X42.25Y-64.9
X42.25Y-65.6
X42.25Y-66.4
X42.25Y-67.2
X42.25Y-68.0
X42.377Y-95.7
X42.5Y-68.8
X42.5Y-69.6
X42.5Y-70.4
X42.5Y-71.2
X42.5Y-72.0
X42.5Y-72.8
X42.5Y-73.8
X42.5Y-74.6
X42.5Y-87.25
X43.0Y-58.6
X43.0Y-59.4
X43.0Y-60.2
X43.0Y-61.0
X43.0Y-61.8
X43.0Y-62.6
X43.0Y-63.4
X43.0Y-64.2
X43.0Y-64.9
X43.0Y-65.6
X43.0Y-66.4
X43.0Y-67.2
X43.0Y-68.0
X43.0Y-123.3
X43.0Y-124.1
X43.0Y-125.0
X43.5Y-68.8
X43.5Y-69.6
X43.5Y-70.4
X43.5Y-71.2
X43.5Y-72.0
X43.5Y-72.8
X43.5Y-73.8
X43.5Y-74.6
X43.5Y-75.3
X43.75Y-58.6
X43.75Y-59.4
X43.75Y-60.2
X43.75Y-61.0
X43.75Y-61.8
X43.75Y-62.6
X43.75Y-63.4
X43.75Y-64.2
X43.75Y-64.9
X43.75Y-65.6
X43.75Y-66.4
X43.75Y-67.2
X43.75Y-68.0
X43.75Y-129.25
X44.148Y-117.954
X44.2Y-123.3
X44.225Y-118.75
X44.4Y-81.2
X44.5Y-58.6
X44.5Y-59.4
X44.5Y-60.2
X44.5Y-61.0
X44.5Y-61.8
X44.5Y-62.6
X44.5Y-63.4
X44.5Y-64.2
X44.5Y-64.9
X44.5Y-65.6
X44.5Y-66.4
X44.5Y-67.2
X44.5Y-68.0
X44.5Y-68.8
X44.5Y-69.6
X44.5Y-70.4
X44.5Y-71.2
X44.5Y-72.0
X44.5Y-72.8
X44.5Y-73.8
X44.5Y-74.6
X44.5Y-75.3
X45.0Y-76.4
X45.0Y-123.3
X45.25Y-58.6
X45.25Y-59.4
X45.25Y-60.2
X45.25Y-61.0
X45.25Y-61.8
X45.25Y-62.6
X45.25Y-63.4
X45.25Y-64.2
X45.25Y-64.9
X45.25Y-65.6
X45.25Y-66.4
X45.25Y-67.2
X45.25Y-68.0
X45.6Y-68.8
X45.6Y-69.6
X45.6Y-70.4
X45.6Y-71.2
X45.6Y-72.0
X45.6Y-72.8
X45.6Y-73.8
X45.6Y-74.6
X45.7Y-75.3
X46.0Y-58.6
X46.0Y-59.4
X46.0Y-60.2
X46.0Y-61.0
X46.0Y-61.8
X46.0Y-62.6
X46.0Y-63.4
X46.0Y-64.2
X46.0Y-64.9
X46.0Y-65.6
X46.0Y-66.4
X46.0Y-67.2
X46.0Y-68.0
X46.2Y-79.4
X46.2Y-80.7
X46.2Y-81.8
X46.3Y-76.4
X46.3Y-77.7
X46.5Y-68.8
X46.5Y-69.6
X46.5Y-70.4
X46.5Y-71.2
X46.5Y-72.0
X46.5Y-72.8
X46.5Y-73.8
X46.5Y-74.6
X46.6Y-75.3
X46.725Y-118.2
X46.75Y-58.6
X46.75Y-59.4
X46.75Y-60.2
X46.75Y-61.0
X46.75Y-61.8
X46.75Y-62.6
X46.75Y-115.25
X46.75Y-129.5
X46.8Y-63.4
X46.8Y-64.2
X46.8Y-64.9
X46.8Y-65.6
X46.8Y-66.4
X46.8Y-67.2
X46.8Y-68.0
X46.8Y-114.15
X47.25Y-128.5
X47.4Y-68.8
X47.4Y-69.6
X47.4Y-70.4
X47.4Y-71.2
X47.4Y-72.0
X47.4Y-72.8
X47.4Y-73.8
X47.4Y-74.6
X47.4Y-75.3
X47.5Y-58.6
X47.5Y-59.4
X47.5Y-60.2
X47.5Y-61.0
X47.5Y-61.8
X47.5Y-62.6
X47.5Y-113.5
X47.5Y-117.25
X47.5Y-118.25
X47.5Y-121.5
X47.55Y-116.15
X47.55Y-120.625
X47.6Y-63.4
X47.6Y-64.2
X47.6Y-64.9
X47.6Y-65.6
X47.6Y-66.4
X47.6Y-67.2
X47.6Y-68.0
X48.0Y-76.5
X48.0Y-77.8
X48.0Y-79.1
X48.0Y-80.2
X48.0Y-81.5
X48.0Y-129.5
X48.2Y-90.835
X48.25Y-58.6
X48.25Y-59.4
X48.25Y-60.2
X48.25Y-61.0
X48.25Y-61.8
X48.25Y-62.6
X48.25Y-115.25
X48.25Y-128.25
X48.252Y-112.758
X48.3Y-114.15
X48.4Y-63.4
X48.4Y-64.2
X48.4Y-64.9
X48.4Y-65.6
X48.4Y-66.4
X48.4Y-67.2
X48.4Y-68.0
X48.4Y-68.8
X48.4Y-69.6
X48.4Y-70.4
X48.4Y-71.2
X48.4Y-72.0
X48.4Y-73.0
X48.4Y-73.8
X48.4Y-74.8
X48.4Y-110.75
X48.5Y-83.4
X48.5Y-109.5
X48.5Y-118.0
X48.5Y-119.0
X48.5Y-120.0
X48.5Y-121.0
X48.5Y-121.75
X48.55Y-116.9
X49.1Y-106.6
X49.2Y-63.4
X49.2Y-64.2
X49.2Y-64.9
X49.2Y-65.6
X49.2Y-66.4
X49.2Y-67.2
X49.2Y-68.0
X49.2Y-68.8
X49.2Y-69.6
X49.2Y-70.4
X49.2Y-71.2
X49.2Y-72.0
X49.2Y-73.0
X49.2Y-73.8
X49.2Y-74.6
X49.2Y-75.3
X49.2Y-80.6
X49.25Y-128.5
X49.3Y-102.65
X49.4Y-78.0
X49.476Y-104.024
X49.5Y-118.5
X49.5Y-119.5
X49.5Y-120.5
X49.5Y-121.5
X49.5Y-122.25
X49.55Y-117.4
X49.8Y-76.4
X49.8Y-84.6
X49.9Y-81.25
X49.952Y-87.848
X50.0Y-63.4
X50.0Y-64.2
X50.0Y-64.9
X50.0Y-65.6
X50.0Y-66.4
X50.0Y-67.2
X50.0Y-68.0
X50.0Y-68.8
X50.0Y-69.6
X50.0Y-70.4
X50.0Y-71.2
X50.0Y-72.0
X50.0Y-73.0
X50.0Y-73.8
X50.0Y-74.6
X50.0Y-75.3
X50.0Y-123.0
X50.425Y-100.612
X50.475Y-91.625
X50.5Y-96.65
X50.5Y-114.099
X50.5Y-118.5
X50.5Y-119.5
X50.5Y-120.5
X50.5Y-121.5
X50.5Y-122.25
X50.5Y-128.25
X50.5Y-129.25
X50.55Y-117.4
X50.614Y-79.54
X50.786Y-103.438
X50.8Y-63.4
X50.8Y-64.2
X50.8Y-64.9
X50.8Y-65.6
X50.8Y-66.4
X50.8Y-67.2
X50.8Y-68.0
X50.8Y-70.4
X50.8Y-71.2
X50.8Y-73.4
X50.8Y-74.1
X50.8Y-74.9
X50.8Y-75.6
X50.8Y-108.8
X51.0Y-78.75
X51.0Y-123.0
X51.1Y-76.4
X51.2Y-116.8
X51.25Y-104.1
X51.25Y-126.75
X51.3Y-91.75
X51.4Y-81.8
X51.6Y-63.4
X51.6Y-64.2
X51.6Y-64.9
X51.6Y-65.6
X51.6Y-66.4
X51.6Y-67.2
X51.6Y-68.0
X51.6Y-73.4
X51.6Y-74.1
X51.6Y-74.9
X51.6Y-75.6
X51.75Y-118.5
X51.75Y-119.5
X51.75Y-120.5
X51.75Y-121.5
X51.75Y-122.25
X51.8Y-70.4
X51.8Y-71.2
X51.8Y-117.4
X51.9Y-129.1
X52.0Y-123.0
X52.0Y-127.25
X52.0Y-128.25
X52.187Y-114.113
X52.25Y-126.5
X52.3Y-87.8
X52.4Y-63.4
X52.4Y-64.2
X52.4Y-64.9
X52.4Y-65.6
X52.4Y-66.4
X52.4Y-67.2
X52.4Y-68.0
X52.4Y-73.4
X52.4Y-74.1
X52.4Y-74.9
X52.4Y-75.6
X52.75Y-118.5
X52.75Y-119.5
X52.75Y-120.5
X52.75Y-121.5
X52.75Y-122.25
X52.75Y-123.0
X52.8Y-76.3
X52.8Y-117.4
X52.8Y-127.3
X53.0Y-80.2
X53.1Y-73.5
X53.1Y-74.5
X53.1Y-75.3
X53.2Y-63.4
X53.2Y-64.2
X53.2Y-64.9
X53.2Y-65.6
X53.2Y-66.4
X53.2Y-67.2
X53.2Y-68.0
X53.25Y-86.65
X53.4Y-81.95
X53.6Y-96.6
X53.7Y-69.8
X53.8Y-69.0
X53.8Y-72.1
X53.8Y-72.8
X53.8Y-73.5
X53.8Y-74.2
X53.8Y-74.9
X54.0Y-58.4
X54.0Y-59.6
X54.0Y-61.0
X54.0Y-62.2
X54.0Y-63.4
X54.0Y-64.1
X54.0Y-64.8
X54.0Y-65.6
X54.0Y-66.4
X54.0Y-67.2
X54.0Y-68.0
X54.1Y-75.6
X54.1Y-76.3
X54.4Y-120.2
X54.4Y-121.2
X54.4Y-122.0
X54.4Y-122.8
X54.5Y-68.6
X54.538Y-70.192
X54.55Y-71.4
X54.55Y-72.1
X54.55Y-72.8
X54.55Y-73.5
X54.55Y-74.2
X54.55Y-74.9
X54.6Y-69.5
X54.8Y-63.4
X54.8Y-64.1
X54.8Y-64.8
X54.8Y-65.6
X54.8Y-66.4
X54.8Y-67.2
X54.8Y-68.0
X54.893Y-86.725
X54.959Y-110.911
X54.959Y-96.7
X55.2Y-82.4
X55.25Y-83.849
X55.3Y-70.2
X55.3Y-71.4
X55.3Y-72.1
X55.3Y-72.8
X55.3Y-73.5
X55.3Y-74.2
X55.3Y-74.9
X55.4Y-69.5
X55.4Y-75.6
X55.5Y-66.0
X55.5Y-66.8
X55.5Y-67.6
X55.5Y-68.4
X55.5Y-85.75
X55.6Y-63.4
X55.6Y-64.1
X55.6Y-64.8
X55.6Y-76.4
X55.6Y-126.7
X55.7Y-58.4
X55.7Y-59.6
X55.7Y-61.0
X55.7Y-62.2
X55.73Y-92.357
X55.75Y-81.5
X55.9Y-65.4
X56.2Y-66.0
X56.2Y-66.8
X56.2Y-67.6
X56.2Y-68.4
X56.2Y-69.508
X56.2Y-70.2
X56.2Y-71.4
X56.2Y-72.1
X56.2Y-72.8
X56.2Y-73.5
X56.2Y-74.2
X56.2Y-74.9
X56.3Y-63.4
X56.3Y-64.1
X56.3Y-64.8
X56.35Y-89.054
X56.35Y-88.1
X56.35Y-90.349
X56.6Y-117.0
X56.6Y-118.2
X56.6Y-119.2
X56.674Y-83.574
X56.8Y-65.3
X56.8Y-106.4
X56.8Y-101.793
X56.9Y-66.0
X56.9Y-66.8
X56.9Y-67.6
X56.9Y-68.4
X57.0Y-123.8
X57.1Y-69.508
X57.1Y-70.2
X57.1Y-71.4
X57.1Y-72.1
X57.1Y-72.8
X57.1Y-73.5
X57.1Y-74.2
X57.1Y-74.9
X57.2Y-64.0
X57.2Y-64.7
X57.2Y-114.95
X57.25Y-82.0
X57.4Y-104.0
X57.6Y-58.4
X57.6Y-59.6
X57.6Y-61.0
X57.6Y-62.2
X57.6Y-63.2
X57.6Y-66.0
X57.6Y-66.8
X57.6Y-67.6
X57.6Y-68.4
X57.6Y-117.0
X57.6Y-118.2
X57.6Y-119.4
X57.7Y-65.2
X57.7Y-78.75
X57.8Y-81.2
X57.9Y-123.9
X58.0Y-69.508
X58.0Y-70.2
X58.0Y-71.4
X58.0Y-72.1
X58.0Y-72.8
X58.0Y-73.5
X58.0Y-74.2
X58.0Y-74.9
X58.0Y-127.374
X58.0Y-128.2
X58.0Y-129.6
X58.1Y-96.575
X58.1Y-121.1
X58.1Y-122.0
X58.1Y-123.2
X58.1Y-125.1
X58.3Y-66.0
X58.3Y-66.8
X58.3Y-67.6
X58.3Y-68.4
X58.5Y-82.001
X58.554Y-104.875
X58.6Y-63.9
X58.6Y-112.4
X58.75Y-117.0
X58.8Y-69.508
X58.8Y-70.2
X58.8Y-71.4
X58.8Y-72.1
X58.8Y-72.8
X58.8Y-73.501
X58.8Y-74.2
X58.8Y-74.9
X58.856Y-88.597
X59.0Y-65.2
X59.0Y-66.8
X59.0Y-67.6
X59.0Y-68.4
X59.0Y-115.25
X59.1Y-124.1
X59.1Y-124.9
X59.25Y-129.5
X59.5Y-58.4
X59.5Y-59.6
X59.5Y-61.0
X59.5Y-62.2
X59.5Y-63.2
X59.5Y-105.0
X59.6Y-69.508
X59.6Y-70.2
X59.6Y-71.4
X59.6Y-72.1
X59.6Y-72.8
X59.6Y-73.5
X59.6Y-74.2
X59.6Y-74.9
X59.75Y-113.65
X60.01Y-84.61
X60.2Y-129.0
X60.4Y-69.508
X60.4Y-70.2
X60.4Y-71.4
X60.4Y-72.1
X60.4Y-72.8
X60.4Y-73.5
X60.4Y-74.2
X60.4Y-74.9
X60.5Y-63.9
X60.5Y-115.25
X60.5Y-116.9
X60.75Y-80.5
X60.85Y-113.2
X60.976Y-106.4
X61.0Y-93.6
X61.2Y-69.508
X61.2Y-70.2
X61.2Y-71.4
X61.2Y-72.1
X61.2Y-72.8
X61.2Y-73.5
X61.2Y-74.2
X61.2Y-74.9
X61.2Y-94.8
X61.2Y-124.6
X61.4Y-58.4
X61.4Y-59.6
X61.4Y-61.0
X61.4Y-62.2
X61.4Y-63.2
X61.4Y-97.2
X61.4Y-129.6
X61.4Y-88.074
X61.5Y-110.8
X61.682Y-96.452
X61.75Y-77.85
X61.9Y-69.508
X61.9Y-70.2
X61.947Y-85.197
X62.0Y-71.4
X62.0Y-72.1
X62.0Y-72.8
X62.0Y-73.501
X62.0Y-74.2
X62.0Y-74.9
X62.0Y-106.2
X62.0Y-108.826
X62.2Y-103.0
X62.2Y-124.6
X62.4Y-63.9
X62.4Y-96.1
X62.4Y-129.6
X62.674Y-105.4
X62.75Y-117.0
X62.75Y-118.0
X62.75Y-118.75
X62.75Y-119.5
X62.75Y-120.25
X62.75Y-121.0
X62.9Y-61.7
X62.9Y-62.9
X63.0Y-103.2
X63.2Y-99.6
X63.3Y-65.1
X63.4Y-124.6
X63.4Y-125.6
X63.4Y-126.8
X63.4Y-127.8
X63.4Y-128.8
X63.4Y-129.6
X63.45Y-85.898
X63.478Y-92.973
X63.5Y-93.831
X64.0Y-123.4
X64.05Y-115.349
X64.1Y-66.0
X64.195Y-60.805
X64.2Y-59.4
X64.2Y-83.2
X64.3Y-124.6
X64.3Y-125.6
X64.3Y-126.8
X64.3Y-127.8
X64.3Y-128.8
X64.3Y-129.6
X64.325Y-107.55
X64.5Y-118.0
X64.5Y-119.4
X64.55Y-94.505
X64.6Y-117.0
X64.8Y-69.5
X64.9Y-70.2
X64.9Y-71.0
X64.9Y-71.8
X64.9Y-72.5
X64.95Y-80.55
X65.055Y-107.226
X65.075Y-85.7
X65.1Y-129.6
X65.2Y-66.9
X65.2Y-120.3
X65.25Y-63.5
X65.35Y-109.7
X65.4Y-116.5
X65.6Y-69.5
X65.65Y-91.149
X65.7Y-70.2
X65.7Y-71.0
X65.7Y-71.8
X65.7Y-72.5
X65.75Y-112.25
X65.796Y-86.045
X65.9Y-97.75
X65.974Y-99.174
X66.0Y-128.65
X66.0Y-129.6
X66.1Y-67.5
X66.1Y-121.7
X66.2Y-111.1
X66.3Y-69.5
X66.3Y-73.9
X66.4Y-70.2
X66.4Y-71.0
X66.4Y-71.8
X66.4Y-72.5
X66.5Y-90.75
X66.6Y-75.4
X66.6Y-100.0
X66.7Y-59.7
X67.099Y-98.401
X67.1Y-69.5
X67.1Y-121.7
X67.2Y-70.2
X67.2Y-71.0
X67.2Y-71.8
X67.2Y-72.5
X67.2Y-97.6
X67.2Y-112.3
X67.2Y-129.6
X67.3Y-101.221
X67.4Y-75.4
X67.4Y-108.2
X67.6Y-109.8
X67.7Y-85.675
X67.8Y-66.7
X67.9Y-69.5
X67.928Y-90.982
X68.0Y-70.2
X68.0Y-71.0
X68.0Y-71.8
X68.0Y-72.5
X68.1Y-121.7
X68.15Y-91.75
X68.2Y-79.4
X68.2Y-129.6
X68.25Y-124.75
X68.3Y-98.45
X68.3Y-101.15
X68.5Y-63.5
X68.7Y-69.5
X68.75Y-74.75
X68.8Y-66.7
X68.8Y-70.2
X68.8Y-71.0
X68.8Y-71.8
X68.8Y-72.5
X68.8Y-77.8
X68.875Y-85.575
X69.0Y-102.766
X69.001Y-97.4
X69.1Y-121.4
X69.2Y-99.55
X69.2Y-79.4
X69.2Y-129.6
X69.46Y-103.458
X69.55Y-123.65
X69.6Y-91.8
X69.75Y-71.25
X69.75Y-72.25
X69.75Y-74.75
X69.8Y-120.9
X70.0Y-104.1
X70.1Y-98.6
X70.125Y-85.575
X70.2Y-59.9
X70.237Y-105.2
X70.4Y-120.5
X70.599Y-96.85
X70.6Y-63.1
X70.6Y-73.8
X70.7Y-119.7
X70.75Y-68.75
X70.75Y-74.75
X70.8Y-58.4
X70.8Y-59.2
X70.8Y-99.05
X71.0Y-59.9
X71.225Y-88.077
X71.3Y-85.55
X71.4Y-66.8
X71.5Y-100.6
X71.6Y-72.7
X71.6Y-73.8
X71.75Y-68.75
X71.75Y-69.75
X71.75Y-74.75
X71.9Y-123.05
X72.0Y-63.25
X72.093Y-108.576
X72.255Y-97.806
X72.476Y-85.0
X72.527Y-93.329
X72.55Y-120.453
X72.75Y-58.75
X72.75Y-67.0
X72.75Y-68.75
X72.75Y-69.75
X72.75Y-72.75
X72.75Y-73.75
X72.75Y-74.75
X72.8Y-70.7
X72.8Y-114.4
X72.833Y-63.117
X72.91Y-100.2
X73.05Y-107.95
X73.059Y-110.097
X73.4Y-122.3
X73.7Y-85.25
X73.75Y-67.0
X73.75Y-68.75
X73.75Y-69.75
X73.75Y-72.75
X73.75Y-73.75
X73.75Y-74.75
X73.75Y-93.25
X73.8Y-70.7
X73.8Y-109.7
X73.8Y-110.5
X73.8Y-114.45
X74.0Y-63.3
X74.1Y-122.9
X74.2Y-106.0
X74.2Y-120.95
X74.252Y-103.85
X74.4Y-88.0
X74.4Y-100.4
X74.4Y-127.965
X74.5Y-102.127
X74.7Y-70.7
X74.7Y-90.2
X74.75Y-67.0
X74.75Y-68.75
X74.75Y-69.75
X74.75Y-72.75
X74.75Y-73.75
X74.75Y-74.75
X74.8Y-122.0
X75.0Y-58.5
X75.0Y-60.4
X75.0Y-61.4
X75.0Y-63.3
X75.0Y-103.25
X75.1Y-59.4
X75.2Y-100.7
X75.3Y-109.25
X75.3Y-126.3
X75.4Y-106.1
X75.487Y-119.09
X75.509Y-69.497
X75.675Y-86.0
X75.75Y-74.75
X75.75Y-102.75
X75.9Y-58.5
X75.9Y-59.5
X75.9Y-60.4
X75.9Y-61.4
X75.9Y-63.3
X75.9Y-120.3
X75.95Y-85.0
X76.0Y-67.0
X76.0Y-67.8
X76.0Y-73.75
X76.25Y-92.75
X76.25Y-100.5
X76.5Y-93.55
X76.6Y-106.8
X76.705Y-120.695
X76.75Y-74.75
X76.75Y-75.75
X76.75Y-76.75
X76.75Y-77.75
X76.775Y-87.775
X76.898Y-101.648
X76.9Y-104.45
X76.9Y-109.25
X77.0Y-58.5
X77.0Y-85.2
X77.25Y-103.5
X77.3Y-70.5
X77.5Y-73.0
X77.555Y-96.719
X77.6Y-106.6
X77.75Y-74.75
X77.75Y-75.75
X77.75Y-76.75
X77.75Y-77.75
X77.8Y-85.2
X77.8Y-109.25
X77.953Y-118.55
X78.0Y-67.0
X78.0Y-89.8
X78.0Y-116.0
X78.0Y-117.1
X78.1Y-91.1
X78.1Y-93.85
X78.1Y-110.849
X78.6Y-85.2
X78.6Y-119.15
X78.7Y-61.9
X78.75Y-73.0
X78.75Y-74.75
X78.75Y-75.75
X78.75Y-76.75
X78.75Y-77.75
X78.75Y-78.5
X78.75Y-79.25
X78.75Y-81.5
X78.8Y-62.8
X78.8Y-115.1
X78.95Y-93.7
X79.0Y-89.8
X79.0Y-91.1
X79.0Y-92.5
X79.019Y-68.744
X79.123Y-63.498
X79.2Y-119.95
X79.2Y-60.1
X79.4Y-62.3
X79.6Y-63.0
X79.612Y-94.735
X79.7Y-61.7
X79.75Y-74.75
X79.75Y-75.75
X79.75Y-76.75
X79.75Y-77.75
X79.75Y-78.5
X79.75Y-79.25
X79.75Y-128.25
X79.8Y-58.7
X79.8Y-59.5
X79.8Y-101.9
X79.839Y-120.43
X79.9Y-60.3
X79.9Y-61.0
X79.9Y-125.2
X79.913Y-104.0
X80.0Y-86.25
X80.223Y-63.684
X80.3Y-62.0
X80.3Y-62.8
X80.3Y-97.1
X80.336Y-100.53
X80.486Y-123.499
X80.5Y-58.8
X80.5Y-59.5
X80.513Y-108.417
X80.6Y-60.3
X80.6Y-61.3
X80.75Y-80.25
X80.8Y-118.4
X81.0Y-116.6
X81.0Y-117.6
X81.0Y-119.2
X81.2Y-60.8
X81.2Y-104.0
X81.2Y-123.9
X81.3Y-58.8
X81.3Y-59.7
X81.4Y-66.5
X81.45Y-126.55
X81.5Y-63.4
X81.5Y-94.7
X81.5Y-102.75
X81.5Y-125.1
X81.6Y-62.7
X81.75Y-95.5
X81.8Y-100.5
X81.805Y-121.619
X81.9Y-58.5
X81.9Y-59.2
X81.9Y-60.3
X82.0Y-98.65
X82.0Y-110.5
X82.05Y-114.15
X82.2Y-63.1
X82.2Y-63.8
X82.2Y-64.5
X82.2Y-65.2
X82.2Y-65.9
X82.25Y-106.25
X82.25Y-107.25
X82.25Y-108.5
X82.3Y-62.0
X82.6Y-91.8
X82.6Y-102.0
X82.7Y-58.5
X82.7Y-59.3
X82.7Y-60.0
X82.7Y-93.3
X82.7Y-94.7
X82.75Y-99.75
X82.8Y-124.6
X82.9Y-61.6
X82.9Y-62.4
X82.9Y-63.1
X82.9Y-63.8
X82.9Y-64.5
X82.9Y-65.2
X82.9Y-65.9
X83.0Y-96.25
X83.4Y-58.5
X83.4Y-59.3
X83.4Y-60.0
X83.5Y-108.5
X83.6Y-66.2
X83.6Y-107.3
X83.7Y-61.5
X83.7Y-62.4
X83.7Y-63.1
X83.7Y-63.8
X83.726Y-120.274
X83.75Y-101.5
X83.75Y-102.75
X83.75Y-106.25
X83.9Y-123.9
X84.1Y-121.6
X84.2Y-58.5
X84.2Y-59.3
X84.2Y-60.0
X84.2Y-67.0
X84.3Y-66.2
X84.4Y-61.5
X84.4Y-62.4
X84.4Y-63.1
X84.4Y-63.8
X84.465Y-98.816
X84.7Y-75.4
X84.8Y-72.4
X84.9Y-58.5
X84.9Y-59.3
X84.9Y-60.0
X85.0Y-66.2
X85.0Y-67.0
X85.0Y-120.6
X85.1Y-61.5
X85.1Y-62.4
X85.1Y-63.1
X85.1Y-63.8
X85.25Y-97.0
X85.5Y-104.65
X85.6Y-58.3
X85.6Y-59.0
X85.6Y-103.7
X85.7Y-64.5
X85.7Y-65.2
X85.7Y-65.9
X85.7Y-66.7
X85.9Y-61.7
X85.9Y-62.4
X85.9Y-63.1
X85.9Y-63.8
X86.0Y-76.25
X86.0Y-78.445
X86.0Y-80.5
X86.3Y-58.3
X86.3Y-59.0
X86.5Y-66.7
X86.5Y-67.5
X86.5Y-68.2
X86.5Y-68.9
X86.5Y-69.6
X86.5Y-70.3
X86.5Y-96.25
X86.6Y-61.7
X86.6Y-62.4
X86.6Y-63.1
X86.6Y-63.8
X86.6Y-64.5
X86.6Y-65.2
X86.6Y-65.9
X86.7Y-72.0
X86.75Y-95.5
X87.0Y-58.3
X87.0Y-59.0
X87.0Y-126.8
X87.25Y-100.75
X87.3Y-61.6
X87.3Y-62.4
X87.3Y-63.1
X87.3Y-63.8
X87.3Y-64.5
X87.3Y-65.2
X87.3Y-65.9
X87.3Y-66.7
X87.3Y-67.5
X87.3Y-68.2
X87.3Y-68.9
X87.3Y-69.6
X87.3Y-70.3
X87.325Y-75.5
X87.4Y-109.8
X87.453Y-105.339
X87.5Y-78.35
X87.6Y-129.2
X87.7Y-106.1
X87.75Y-101.5
X87.8Y-58.3
X87.8Y-59.0
X87.8Y-59.7
X87.8Y-102.3
X88.0Y-61.7
X88.0Y-62.4
X88.0Y-63.1
X88.0Y-63.8
X88.0Y-64.5
X88.0Y-65.2
X88.0Y-65.9
X88.0Y-66.7
X88.0Y-67.5
X88.0Y-68.2
X88.0Y-68.9
X88.0Y-69.6
X88.0Y-70.3
X88.0Y-95.25
X88.0Y-96.25
X88.1Y-126.0
X88.25Y-73.0
X88.3Y-81.2
X88.6Y-58.3
X88.6Y-59.0
X88.6Y-59.7
X88.6Y-61.9
X88.6Y-100.4
X88.8Y-62.6
X88.8Y-63.8
X88.8Y-64.5
X88.8Y-65.2
X88.8Y-66.0
X88.8Y-66.7
X88.8Y-67.5
X88.8Y-68.2
X88.8Y-68.9
X88.8Y-69.6
X88.8Y-70.3
X88.8Y-129.3
X88.824Y-103.924
X89.0Y-125.4
X89.1Y-63.2
X89.3Y-106.1
X89.4Y-58.3
X89.5Y-63.8
X89.5Y-64.5
X89.5Y-65.2
X89.5Y-66.0
X89.5Y-66.7
X89.5Y-79.644
X89.5Y-80.75
X89.5Y-95.75
X90.0Y-59.0
X90.2Y-58.3
X90.2Y-60.2
X90.2Y-61.1
X90.2Y-63.1
X90.2Y-63.8
X90.2Y-64.5
X90.2Y-65.2
X90.2Y-66.0
X90.2Y-66.7
X90.2Y-78.445
X90.2Y-129.4
X90.5Y-76.25
X90.5Y-77.5
X90.675Y-117.775
X90.9Y-63.1
X90.9Y-63.8
X90.9Y-64.5
X90.9Y-65.2
X90.9Y-66.0
X90.9Y-66.7
X90.9Y-75.4
X91.0Y-58.4
X91.2Y-61.2
X91.25Y-60.25
X91.34Y-89.45
X91.35Y-87.5
X91.5Y-93.75
X91.5Y-106.75
X91.5Y-109.0
X91.6Y-63.1
X91.6Y-63.8
X91.6Y-64.5
X91.6Y-65.2
X91.6Y-66.0
X91.6Y-66.7
X91.6Y-79.7
X91.6Y-80.7
X91.74Y-83.01
X91.74Y-91.5
X91.8Y-129.2
X91.9Y-58.7
X91.9Y-59.5
X91.9Y-60.8
X92.0Y-61.6
X92.0Y-62.4
X92.0Y-72.3
X92.031Y-120.36
X92.3Y-63.1
X92.3Y-63.8
X92.3Y-66.7
X92.337Y-112.678
X92.4Y-110.3
X92.5Y-60.25
X92.6Y-75.0
X92.654Y-81.661
X92.7Y-59.4
X92.7Y-60.9
X92.7Y-61.6
X92.7Y-62.4
X92.95Y-126.35
X93.0Y-63.1
X93.0Y-63.8
X93.0Y-66.7
X93.0Y-106.75
X93.1Y-127.8
X93.2Y-60.0
X93.2Y-96.5
X93.4Y-61.6
X93.4Y-62.4
X93.5Y-60.8
X93.5Y-107.75
X93.6Y-80.6
X93.7Y-63.1
X93.7Y-63.8
X93.7Y-67.5
X93.7Y-68.2
X93.7Y-68.9
X93.7Y-69.6
X93.7Y-70.3
X93.75Y-66.75
X93.75Y-72.5
X93.75Y-75.0
X93.75Y-79.25
X93.75Y-88.5
X93.75Y-90.5
X93.75Y-92.75
X93.8Y-118.7
T2
X77.0Y-61.75
X77.0Y-66.975
T3
X43.767Y-83.9
X43.767Y-86.4
X43.767Y-88.9
X43.767Y-91.4
X43.767Y-93.9
X43.767Y-96.4
X43.767Y-98.9
X43.767Y-101.4
X43.767Y-103.9
X46.767Y-83.9
X46.767Y-86.4
X46.767Y-88.9
X46.767Y-91.4
X46.767Y-93.9
X46.767Y-96.4
X46.767Y-98.9
X46.767Y-101.4
X46.767Y-103.9
T4
X42.267Y-78.4
X42.267Y-109.4
M30
