%TF.GenerationSoftware,KiCad,Pcbnew,7.0.2*%
%TF.CreationDate,2023-12-18T14:08:34+03:00*%
%TF.ProjectId,BIM_PCB,42494d5f-5043-4422-9e6b-696361645f70,rev?*%
%TF.SameCoordinates,Original*%
%TF.FileFunction,Paste,Bot*%
%TF.FilePolarity,Positive*%
%FSLAX46Y46*%
G04 Gerber Fmt 4.6, Leading zero omitted, Abs format (unit mm)*
G04 Created by KiCad (PCBNEW 7.0.2) date 2023-12-18 14:08:34*
%MOMM*%
%LPD*%
G01*
G04 APERTURE LIST*
G04 Aperture macros list*
%AMRoundRect*
0 Rectangle with rounded corners*
0 $1 Rounding radius*
0 $2 $3 $4 $5 $6 $7 $8 $9 X,Y pos of 4 corners*
0 Add a 4 corners polygon primitive as box body*
4,1,4,$2,$3,$4,$5,$6,$7,$8,$9,$2,$3,0*
0 Add four circle primitives for the rounded corners*
1,1,$1+$1,$2,$3*
1,1,$1+$1,$4,$5*
1,1,$1+$1,$6,$7*
1,1,$1+$1,$8,$9*
0 Add four rect primitives between the rounded corners*
20,1,$1+$1,$2,$3,$4,$5,0*
20,1,$1+$1,$4,$5,$6,$7,0*
20,1,$1+$1,$6,$7,$8,$9,0*
20,1,$1+$1,$8,$9,$2,$3,0*%
G04 Aperture macros list end*
%ADD10RoundRect,0.135000X0.135000X0.185000X-0.135000X0.185000X-0.135000X-0.185000X0.135000X-0.185000X0*%
%ADD11RoundRect,0.135000X-0.185000X0.135000X-0.185000X-0.135000X0.185000X-0.135000X0.185000X0.135000X0*%
%ADD12RoundRect,0.140000X0.140000X0.170000X-0.140000X0.170000X-0.140000X-0.170000X0.140000X-0.170000X0*%
%ADD13RoundRect,0.135000X0.185000X-0.135000X0.185000X0.135000X-0.185000X0.135000X-0.185000X-0.135000X0*%
%ADD14R,1.100000X0.700000*%
%ADD15R,3.330000X0.700000*%
%ADD16R,1.830000X1.140000*%
%ADD17R,0.930000X0.900000*%
%ADD18R,2.800000X0.860000*%
%ADD19R,0.780000X1.050000*%
%ADD20RoundRect,0.140000X-0.170000X0.140000X-0.170000X-0.140000X0.170000X-0.140000X0.170000X0.140000X0*%
%ADD21RoundRect,0.140000X0.170000X-0.140000X0.170000X0.140000X-0.170000X0.140000X-0.170000X-0.140000X0*%
%ADD22RoundRect,0.100000X0.712500X0.100000X-0.712500X0.100000X-0.712500X-0.100000X0.712500X-0.100000X0*%
%ADD23RoundRect,0.250000X0.650000X-1.000000X0.650000X1.000000X-0.650000X1.000000X-0.650000X-1.000000X0*%
%ADD24RoundRect,0.140000X-0.140000X-0.170000X0.140000X-0.170000X0.140000X0.170000X-0.140000X0.170000X0*%
%ADD25R,5.100000X2.500000*%
%ADD26RoundRect,0.125000X0.125000X-0.762500X0.125000X0.762500X-0.125000X0.762500X-0.125000X-0.762500X0*%
%ADD27RoundRect,0.150000X-0.587500X-0.150000X0.587500X-0.150000X0.587500X0.150000X-0.587500X0.150000X0*%
%ADD28RoundRect,0.135000X-0.135000X-0.185000X0.135000X-0.185000X0.135000X0.185000X-0.135000X0.185000X0*%
%ADD29RoundRect,0.150000X-0.150000X0.587500X-0.150000X-0.587500X0.150000X-0.587500X0.150000X0.587500X0*%
%ADD30RoundRect,0.250000X0.425000X-0.450000X0.425000X0.450000X-0.425000X0.450000X-0.425000X-0.450000X0*%
%ADD31RoundRect,0.150000X0.150000X-0.587500X0.150000X0.587500X-0.150000X0.587500X-0.150000X-0.587500X0*%
%ADD32RoundRect,0.150000X-0.150000X0.825000X-0.150000X-0.825000X0.150000X-0.825000X0.150000X0.825000X0*%
%ADD33RoundRect,0.150000X-0.150000X0.512500X-0.150000X-0.512500X0.150000X-0.512500X0.150000X0.512500X0*%
%ADD34R,3.700000X2.400000*%
%ADD35R,3.700000X1.300000*%
%ADD36R,1.200000X0.900000*%
%ADD37R,1.800000X1.300000*%
%ADD38RoundRect,0.225000X-0.250000X0.225000X-0.250000X-0.225000X0.250000X-0.225000X0.250000X0.225000X0*%
%ADD39RoundRect,0.100000X0.100000X-0.712500X0.100000X0.712500X-0.100000X0.712500X-0.100000X-0.712500X0*%
%ADD40RoundRect,0.150000X0.825000X0.150000X-0.825000X0.150000X-0.825000X-0.150000X0.825000X-0.150000X0*%
%ADD41RoundRect,0.250000X-0.650000X1.000000X-0.650000X-1.000000X0.650000X-1.000000X0.650000X1.000000X0*%
%ADD42RoundRect,0.100000X-0.100000X0.712500X-0.100000X-0.712500X0.100000X-0.712500X0.100000X0.712500X0*%
G04 APERTURE END LIST*
D10*
%TO.C,R64*%
X45080000Y-111975000D03*
X44060000Y-111975000D03*
%TD*%
D11*
%TO.C,R58*%
X59325000Y-86990000D03*
X59325000Y-88010000D03*
%TD*%
D12*
%TO.C,C50*%
X45150000Y-109975000D03*
X44190000Y-109975000D03*
%TD*%
D11*
%TO.C,R31*%
X52374999Y-101677500D03*
X52374999Y-102697500D03*
%TD*%
D13*
%TO.C,R3*%
X71362500Y-127774762D03*
X71362500Y-126754762D03*
%TD*%
D10*
%TO.C,R38*%
X51685001Y-90837500D03*
X50665001Y-90837500D03*
%TD*%
D14*
%TO.C,J4*%
X81250000Y-84700000D03*
X81250000Y-85800000D03*
X81250000Y-86900000D03*
X81250000Y-88000000D03*
X81250000Y-89100000D03*
X81250000Y-90200000D03*
X81250000Y-91300000D03*
X81250000Y-92400000D03*
D15*
X92515000Y-80600000D03*
D16*
X81265000Y-80820000D03*
D17*
X93715000Y-82910000D03*
D18*
X81750000Y-93480000D03*
D15*
X92515000Y-93560000D03*
D19*
X93790000Y-87175000D03*
%TD*%
D10*
%TO.C,R44*%
X64710000Y-102825000D03*
X63690000Y-102825000D03*
%TD*%
D20*
%TO.C,C44*%
X76900000Y-96319999D03*
X76900000Y-97279999D03*
%TD*%
D21*
%TO.C,C31*%
X53475000Y-93517500D03*
X53475000Y-92557500D03*
%TD*%
D22*
%TO.C,U19*%
X51182500Y-110675000D03*
X51182500Y-111325000D03*
X51182500Y-111975000D03*
X51182500Y-112625000D03*
X46957500Y-112625000D03*
X46957500Y-111975000D03*
X46957500Y-111325000D03*
X46957500Y-110675000D03*
%TD*%
D23*
%TO.C,D10*%
X66975000Y-81450000D03*
X66975000Y-77450000D03*
%TD*%
D24*
%TO.C,C51*%
X46490000Y-109175000D03*
X47450000Y-109175000D03*
%TD*%
D11*
%TO.C,R4*%
X79612500Y-126464762D03*
X79612500Y-127484762D03*
%TD*%
D25*
%TO.C,BT1*%
X87500000Y-107900000D03*
X87500000Y-123100000D03*
%TD*%
D11*
%TO.C,R59*%
X75300000Y-98490000D03*
X75300000Y-99510000D03*
%TD*%
D20*
%TO.C,C21*%
X77990000Y-88000000D03*
X77990000Y-88960000D03*
%TD*%
D12*
%TO.C,C49*%
X45150000Y-108875000D03*
X44190000Y-108875000D03*
%TD*%
D13*
%TO.C,R39*%
X51475001Y-93447500D03*
X51475001Y-92427500D03*
%TD*%
D11*
%TO.C,R12*%
X58975000Y-96240000D03*
X58975000Y-97260000D03*
%TD*%
D26*
%TO.C,U15*%
X67800000Y-96112500D03*
X67150000Y-96112500D03*
X66500000Y-96112500D03*
X65850000Y-96112500D03*
X65200000Y-96112500D03*
X64550000Y-96112500D03*
X63900000Y-96112500D03*
X63250000Y-96112500D03*
X63250000Y-89287500D03*
X63900000Y-89287500D03*
X64550000Y-89287500D03*
X65200000Y-89287500D03*
X65850000Y-89287500D03*
X66500000Y-89287500D03*
X67150000Y-89287500D03*
X67800000Y-89287500D03*
%TD*%
D20*
%TO.C,C24*%
X55875000Y-96170000D03*
X55875000Y-97130000D03*
%TD*%
D11*
%TO.C,R10*%
X60175000Y-96240000D03*
X60175000Y-97260000D03*
%TD*%
D21*
%TO.C,C30*%
X54575000Y-93517500D03*
X54575000Y-92557500D03*
%TD*%
D27*
%TO.C,D18*%
X37970000Y-112825000D03*
X37970000Y-110925000D03*
X39845000Y-111875000D03*
%TD*%
D13*
%TO.C,R9*%
X58075000Y-88010000D03*
X58075000Y-86990000D03*
%TD*%
D23*
%TO.C,D12*%
X74250000Y-81450000D03*
X74250000Y-77450000D03*
%TD*%
D28*
%TO.C,R61*%
X53310000Y-111075000D03*
X54330000Y-111075000D03*
%TD*%
D12*
%TO.C,C43*%
X73980000Y-89700000D03*
X73020000Y-89700000D03*
%TD*%
D10*
%TO.C,R65*%
X54330000Y-112325000D03*
X53310000Y-112325000D03*
%TD*%
D20*
%TO.C,C25*%
X56975000Y-96170000D03*
X56975000Y-97130000D03*
%TD*%
D29*
%TO.C,D9*%
X50225000Y-86287500D03*
X52125000Y-86287500D03*
X51175000Y-88162500D03*
%TD*%
D10*
%TO.C,R43*%
X64710000Y-105725000D03*
X63690000Y-105725000D03*
%TD*%
D30*
%TO.C,C28*%
X77250000Y-81750000D03*
X77250000Y-79050000D03*
%TD*%
D31*
%TO.C,D15*%
X60125000Y-103587500D03*
X58225000Y-103587500D03*
X59175000Y-101712500D03*
%TD*%
D32*
%TO.C,U13*%
X71595000Y-91625000D03*
X72865000Y-91625000D03*
X74135000Y-91625000D03*
X75405000Y-91625000D03*
X75405000Y-96575000D03*
X74135000Y-96575000D03*
X72865000Y-96575000D03*
X71595000Y-96575000D03*
%TD*%
D13*
%TO.C,R37*%
X50275001Y-93447500D03*
X50275001Y-92427500D03*
%TD*%
D33*
%TO.C,D4*%
X76350000Y-69462500D03*
X77300000Y-69462500D03*
X78250000Y-69462500D03*
X78250000Y-71737500D03*
X76350000Y-71737500D03*
%TD*%
D21*
%TO.C,C42*%
X56175000Y-94830000D03*
X56175000Y-93870000D03*
%TD*%
D34*
%TO.C,J2*%
X91320000Y-68300000D03*
D35*
X84140000Y-68330000D03*
X91320000Y-70990000D03*
X84140000Y-71020000D03*
X84140000Y-73770000D03*
X91320000Y-73800000D03*
D36*
X80050000Y-67400000D03*
X80050000Y-69940000D03*
X80050000Y-72480000D03*
X80050000Y-68670000D03*
X80050000Y-71210000D03*
X80050000Y-73750000D03*
D37*
X92950000Y-65150000D03*
X84150000Y-65150000D03*
X92940000Y-76870000D03*
X84140000Y-76870000D03*
%TD*%
D38*
%TO.C,C46*%
X69725000Y-88825000D03*
X69725000Y-90375000D03*
%TD*%
D21*
%TO.C,C40*%
X73500000Y-104405000D03*
X73500000Y-103445000D03*
%TD*%
D12*
%TO.C,C41*%
X66880000Y-107325000D03*
X65920000Y-107325000D03*
%TD*%
D28*
%TO.C,R11*%
X58765000Y-98850000D03*
X59785000Y-98850000D03*
%TD*%
D13*
%TO.C,R32*%
X51125000Y-102697500D03*
X51125000Y-101677500D03*
%TD*%
D39*
%TO.C,U5*%
X52775000Y-99550000D03*
X52125000Y-99550000D03*
X51475000Y-99550000D03*
X50825000Y-99550000D03*
X50825000Y-95325000D03*
X51475000Y-95325000D03*
X52125000Y-95325000D03*
X52775000Y-95325000D03*
%TD*%
D40*
%TO.C,U9*%
X71575000Y-102020000D03*
X71575000Y-103290000D03*
X71575000Y-104560000D03*
X71575000Y-105830000D03*
X66625000Y-105830000D03*
X66625000Y-104560000D03*
X66625000Y-103290000D03*
X66625000Y-102020000D03*
%TD*%
D11*
%TO.C,R63*%
X42470000Y-111765000D03*
X42470000Y-112785000D03*
%TD*%
%TO.C,R60*%
X72400001Y-98490000D03*
X72400001Y-99510000D03*
%TD*%
D41*
%TO.C,D11*%
X70575000Y-77450000D03*
X70575000Y-81450000D03*
%TD*%
D10*
%TO.C,R62*%
X45080000Y-113175000D03*
X44060000Y-113175000D03*
%TD*%
D20*
%TO.C,C32*%
X54275000Y-94857500D03*
X54275000Y-95817500D03*
%TD*%
%TO.C,C22*%
X79000000Y-88000000D03*
X79000000Y-88960000D03*
%TD*%
D42*
%TO.C,U11*%
X57675000Y-90137500D03*
X58325000Y-90137500D03*
X58975000Y-90137500D03*
X59625000Y-90137500D03*
X59625000Y-94362500D03*
X58975000Y-94362500D03*
X58325000Y-94362500D03*
X57675000Y-94362500D03*
%TD*%
M02*
