G04 #@! TF.GenerationSoftware,KiCad,Pcbnew,7.0.10*
G04 #@! TF.CreationDate,2024-01-28T15:58:17+03:00*
G04 #@! TF.ProjectId,BIM_PCB,42494d5f-5043-4422-9e6b-696361645f70,rev?*
G04 #@! TF.SameCoordinates,Original*
G04 #@! TF.FileFunction,Legend,Bot*
G04 #@! TF.FilePolarity,Positive*
%FSLAX46Y46*%
G04 Gerber Fmt 4.6, Leading zero omitted, Abs format (unit mm)*
G04 Created by KiCad (PCBNEW 7.0.10) date 2024-01-28 15:58:17*
%MOMM*%
%LPD*%
G01*
G04 APERTURE LIST*
%ADD10C,0.300000*%
%ADD11C,0.200000*%
%ADD12C,0.150000*%
%ADD13C,0.120000*%
%ADD14C,0.100000*%
%ADD15C,0.127000*%
G04 APERTURE END LIST*
D10*
X73040000Y-114980000D02*
G75*
G03*
X72840000Y-114980000I-100000J0D01*
G01*
X72840000Y-114980000D02*
G75*
G03*
X73040000Y-114980000I100000J0D01*
G01*
X72940000Y-114980000D02*
G75*
G03*
X72740000Y-114980000I-100000J0D01*
G01*
X72740000Y-114980000D02*
G75*
G03*
X72940000Y-114980000I100000J0D01*
G01*
X68060000Y-97540000D02*
G75*
G03*
X67880000Y-97540000I-90000J0D01*
G01*
X67880000Y-97540000D02*
G75*
G03*
X68060000Y-97540000I90000J0D01*
G01*
X71110000Y-90280000D02*
G75*
G03*
X70930000Y-90280000I-90000J0D01*
G01*
X70930000Y-90280000D02*
G75*
G03*
X71110000Y-90280000I90000J0D01*
G01*
X52580000Y-110590000D02*
G75*
G03*
X52400000Y-110590000I-90000J0D01*
G01*
X52400000Y-110590000D02*
G75*
G03*
X52580000Y-110590000I90000J0D01*
G01*
D11*
G36*
X69585589Y-62280000D02*
G01*
X69740195Y-62280000D01*
X69740195Y-61743886D01*
X69740042Y-61732800D01*
X69739584Y-61720668D01*
X69739040Y-61710883D01*
X69738325Y-61700509D01*
X69737438Y-61689548D01*
X69736379Y-61677998D01*
X69735148Y-61665860D01*
X69733745Y-61653134D01*
X69732171Y-61639820D01*
X69730425Y-61625917D01*
X69869399Y-62170579D01*
X69950976Y-62170579D01*
X70090439Y-61625917D01*
X70088737Y-61640069D01*
X70087202Y-61653581D01*
X70085835Y-61666453D01*
X70084635Y-61678685D01*
X70083602Y-61690278D01*
X70082737Y-61701231D01*
X70082039Y-61711544D01*
X70081369Y-61724300D01*
X70080997Y-61735919D01*
X70080914Y-61743886D01*
X70080914Y-62280000D01*
X70235519Y-62280000D01*
X70235519Y-61201423D01*
X70083600Y-61201423D01*
X69914584Y-61791025D01*
X69912882Y-61801037D01*
X69911948Y-61811015D01*
X69911241Y-61821800D01*
X69910718Y-61832362D01*
X69910432Y-61839385D01*
X69910104Y-61828648D01*
X69909394Y-61818747D01*
X69908287Y-61807490D01*
X69907022Y-61796763D01*
X69906280Y-61791025D01*
X69737508Y-61201423D01*
X69585589Y-61201423D01*
X69585589Y-62280000D01*
G37*
G36*
X69500837Y-62277313D02*
G01*
X69500837Y-62280000D01*
X69342079Y-62280000D01*
X69309839Y-62092421D01*
X69108583Y-62092421D01*
X69076343Y-62280000D01*
X68916852Y-62280000D01*
X68982812Y-61936106D01*
X69131297Y-61936106D01*
X69288590Y-61936106D01*
X69209455Y-61450795D01*
X69131297Y-61936106D01*
X68982812Y-61936106D01*
X69123726Y-61201423D01*
X69292742Y-61201423D01*
X69500837Y-62277313D01*
G37*
G36*
X68830635Y-62280000D02*
G01*
X68502861Y-62280000D01*
X68491077Y-62279789D01*
X68479600Y-62279156D01*
X68468431Y-62278102D01*
X68457569Y-62276626D01*
X68447014Y-62274728D01*
X68436766Y-62272409D01*
X68426826Y-62269668D01*
X68417192Y-62266505D01*
X68407866Y-62262921D01*
X68398848Y-62258914D01*
X68385895Y-62252115D01*
X68373634Y-62244366D01*
X68362064Y-62235668D01*
X68351186Y-62226022D01*
X68341103Y-62215497D01*
X68332012Y-62204255D01*
X68323912Y-62192296D01*
X68316805Y-62179620D01*
X68312617Y-62170770D01*
X68308871Y-62161603D01*
X68305565Y-62152116D01*
X68302700Y-62142311D01*
X68300275Y-62132188D01*
X68298292Y-62121745D01*
X68296749Y-62110984D01*
X68295647Y-62099905D01*
X68294986Y-62088506D01*
X68294766Y-62076789D01*
X68294766Y-62036001D01*
X68456210Y-62036001D01*
X68456306Y-62041395D01*
X68457073Y-62051671D01*
X68459662Y-62065799D01*
X68463977Y-62078387D01*
X68470018Y-62089433D01*
X68477784Y-62098938D01*
X68487277Y-62106901D01*
X68498495Y-62113323D01*
X68511440Y-62118204D01*
X68521028Y-62120601D01*
X68531384Y-62122314D01*
X68542506Y-62123342D01*
X68554396Y-62123684D01*
X68669678Y-62123684D01*
X68669678Y-61357739D01*
X68550244Y-61357739D01*
X68538857Y-61358075D01*
X68528205Y-61359086D01*
X68513604Y-61361864D01*
X68500656Y-61366158D01*
X68489361Y-61371968D01*
X68479719Y-61379293D01*
X68471729Y-61388134D01*
X68465393Y-61398490D01*
X68460710Y-61410362D01*
X68457680Y-61423749D01*
X68456578Y-61433516D01*
X68456210Y-61443956D01*
X68456210Y-62036001D01*
X68294766Y-62036001D01*
X68294766Y-61404633D01*
X68294821Y-61398765D01*
X68295262Y-61387264D01*
X68296143Y-61376079D01*
X68297466Y-61365208D01*
X68299229Y-61354652D01*
X68301433Y-61344411D01*
X68304077Y-61334485D01*
X68307163Y-61324874D01*
X68310689Y-61315577D01*
X68316805Y-61302223D01*
X68323912Y-61289577D01*
X68332012Y-61277639D01*
X68341103Y-61266410D01*
X68351186Y-61255889D01*
X68354735Y-61252538D01*
X68365844Y-61243124D01*
X68377644Y-61234667D01*
X68390136Y-61227167D01*
X68398848Y-61222699D01*
X68407866Y-61218657D01*
X68417192Y-61215040D01*
X68426826Y-61211848D01*
X68436766Y-61209082D01*
X68447014Y-61206742D01*
X68457569Y-61204827D01*
X68468431Y-61203338D01*
X68479600Y-61202274D01*
X68491077Y-61201636D01*
X68502861Y-61201423D01*
X68830635Y-61201423D01*
X68830635Y-62280000D01*
G37*
G36*
X67728122Y-62280000D02*
G01*
X68174110Y-62280000D01*
X68174110Y-61201423D01*
X67732274Y-61201423D01*
X67732274Y-61357739D01*
X68013154Y-61357739D01*
X68013154Y-61654738D01*
X67771353Y-61654738D01*
X67771353Y-61811053D01*
X68013154Y-61811053D01*
X68013154Y-62123684D01*
X67728122Y-62123684D01*
X67728122Y-62280000D01*
G37*
G36*
X67169295Y-62280000D02*
G01*
X67330006Y-62280000D01*
X67330006Y-61201423D01*
X67169295Y-61201423D01*
X67169295Y-62280000D01*
G37*
G36*
X66494940Y-62280000D02*
G01*
X66635868Y-62280000D01*
X66893545Y-61601249D01*
X66891083Y-61613312D01*
X66888950Y-61624711D01*
X66887145Y-61635446D01*
X66885668Y-61645518D01*
X66884283Y-61657173D01*
X66883411Y-61667790D01*
X66883042Y-61679162D01*
X66883042Y-62280000D01*
X67039846Y-62280000D01*
X67039846Y-61201423D01*
X66898918Y-61201423D01*
X66641242Y-61866496D01*
X66643703Y-61854433D01*
X66645836Y-61843034D01*
X66647642Y-61832299D01*
X66649118Y-61822227D01*
X66650503Y-61810572D01*
X66651375Y-61799954D01*
X66651744Y-61788583D01*
X66651744Y-61201423D01*
X66494940Y-61201423D01*
X66494940Y-62280000D01*
G37*
G36*
X65539462Y-62280000D02*
G01*
X65716538Y-62280000D01*
X65920481Y-61802749D01*
X65920481Y-62280000D01*
X66081437Y-62280000D01*
X66081437Y-61201423D01*
X65920481Y-61201423D01*
X65920481Y-61661821D01*
X65741939Y-61201423D01*
X65566085Y-61201423D01*
X65566085Y-61208995D01*
X65784682Y-61725080D01*
X65539462Y-62280000D01*
G37*
G36*
X65032658Y-62280000D02*
G01*
X65478646Y-62280000D01*
X65478646Y-61201423D01*
X65036810Y-61201423D01*
X65036810Y-61357739D01*
X65317690Y-61357739D01*
X65317690Y-61654738D01*
X65075889Y-61654738D01*
X65075889Y-61811053D01*
X65317690Y-61811053D01*
X65317690Y-62123684D01*
X65032658Y-62123684D01*
X65032658Y-62280000D01*
G37*
G36*
X64380774Y-62280000D02*
G01*
X64521702Y-62280000D01*
X64779378Y-61601249D01*
X64776917Y-61613312D01*
X64774784Y-61624711D01*
X64772978Y-61635446D01*
X64771502Y-61645518D01*
X64770117Y-61657173D01*
X64769245Y-61667790D01*
X64768876Y-61679162D01*
X64768876Y-62280000D01*
X64925680Y-62280000D01*
X64925680Y-61201423D01*
X64784752Y-61201423D01*
X64527076Y-61866496D01*
X64529537Y-61854433D01*
X64531670Y-61843034D01*
X64533475Y-61832299D01*
X64534952Y-61822227D01*
X64536337Y-61810572D01*
X64537209Y-61799954D01*
X64537578Y-61788583D01*
X64537578Y-61201423D01*
X64380774Y-61201423D01*
X64380774Y-62280000D01*
G37*
G36*
X63714724Y-61207773D02*
G01*
X63856873Y-61658401D01*
X63861936Y-61671754D01*
X63865493Y-61681551D01*
X63869195Y-61692063D01*
X63873042Y-61703290D01*
X63877034Y-61715233D01*
X63881171Y-61727892D01*
X63885452Y-61741266D01*
X63889879Y-61755356D01*
X63894451Y-61770161D01*
X63899168Y-61785682D01*
X63904030Y-61801919D01*
X63909037Y-61818871D01*
X63914189Y-61836538D01*
X63919486Y-61854921D01*
X63922189Y-61864381D01*
X63924928Y-61874020D01*
X63927704Y-61883838D01*
X63927704Y-62280000D01*
X64089148Y-62280000D01*
X64089148Y-61883838D01*
X64091293Y-61873707D01*
X64093605Y-61863464D01*
X64096084Y-61853110D01*
X64098731Y-61842645D01*
X64101545Y-61832067D01*
X64104527Y-61821378D01*
X64107676Y-61810578D01*
X64110993Y-61799665D01*
X64114477Y-61788642D01*
X64118128Y-61777506D01*
X64120655Y-61770020D01*
X64125074Y-61757563D01*
X64129231Y-61745837D01*
X64133126Y-61734841D01*
X64136760Y-61724576D01*
X64140133Y-61715042D01*
X64144702Y-61702111D01*
X64148682Y-61690825D01*
X64152075Y-61681183D01*
X64155683Y-61670884D01*
X64159135Y-61660918D01*
X64159979Y-61658401D01*
X64301395Y-61207529D01*
X64301395Y-61201423D01*
X64135799Y-61201423D01*
X64007327Y-61670858D01*
X63879588Y-61201423D01*
X63714724Y-61201423D01*
X63714724Y-61207773D01*
G37*
G36*
X63675157Y-62277313D02*
G01*
X63675157Y-62280000D01*
X63516399Y-62280000D01*
X63484159Y-62092421D01*
X63282903Y-62092421D01*
X63250662Y-62280000D01*
X63091172Y-62280000D01*
X63157132Y-61936106D01*
X63305617Y-61936106D01*
X63462909Y-61936106D01*
X63383775Y-61450795D01*
X63305617Y-61936106D01*
X63157132Y-61936106D01*
X63298046Y-61201423D01*
X63467062Y-61201423D01*
X63675157Y-62277313D01*
G37*
D12*
X64858458Y-123619819D02*
X64239411Y-123619819D01*
X64239411Y-123619819D02*
X64572744Y-124000771D01*
X64572744Y-124000771D02*
X64429887Y-124000771D01*
X64429887Y-124000771D02*
X64334649Y-124048390D01*
X64334649Y-124048390D02*
X64287030Y-124096009D01*
X64287030Y-124096009D02*
X64239411Y-124191247D01*
X64239411Y-124191247D02*
X64239411Y-124429342D01*
X64239411Y-124429342D02*
X64287030Y-124524580D01*
X64287030Y-124524580D02*
X64334649Y-124572200D01*
X64334649Y-124572200D02*
X64429887Y-124619819D01*
X64429887Y-124619819D02*
X64715601Y-124619819D01*
X64715601Y-124619819D02*
X64810839Y-124572200D01*
X64810839Y-124572200D02*
X64858458Y-124524580D01*
X63953696Y-123619819D02*
X63620363Y-124619819D01*
X63620363Y-124619819D02*
X63287030Y-123619819D01*
X63048934Y-123619819D02*
X62429887Y-123619819D01*
X62429887Y-123619819D02*
X62763220Y-124000771D01*
X62763220Y-124000771D02*
X62620363Y-124000771D01*
X62620363Y-124000771D02*
X62525125Y-124048390D01*
X62525125Y-124048390D02*
X62477506Y-124096009D01*
X62477506Y-124096009D02*
X62429887Y-124191247D01*
X62429887Y-124191247D02*
X62429887Y-124429342D01*
X62429887Y-124429342D02*
X62477506Y-124524580D01*
X62477506Y-124524580D02*
X62525125Y-124572200D01*
X62525125Y-124572200D02*
X62620363Y-124619819D01*
X62620363Y-124619819D02*
X62906077Y-124619819D01*
X62906077Y-124619819D02*
X63001315Y-124572200D01*
X63001315Y-124572200D02*
X63048934Y-124524580D01*
X62372744Y-61219819D02*
X62277506Y-61219819D01*
X62277506Y-61219819D02*
X62182268Y-61267438D01*
X62182268Y-61267438D02*
X62134649Y-61315057D01*
X62134649Y-61315057D02*
X62087030Y-61410295D01*
X62087030Y-61410295D02*
X62039411Y-61600771D01*
X62039411Y-61600771D02*
X62039411Y-61838866D01*
X62039411Y-61838866D02*
X62087030Y-62029342D01*
X62087030Y-62029342D02*
X62134649Y-62124580D01*
X62134649Y-62124580D02*
X62182268Y-62172200D01*
X62182268Y-62172200D02*
X62277506Y-62219819D01*
X62277506Y-62219819D02*
X62372744Y-62219819D01*
X62372744Y-62219819D02*
X62467982Y-62172200D01*
X62467982Y-62172200D02*
X62515601Y-62124580D01*
X62515601Y-62124580D02*
X62563220Y-62029342D01*
X62563220Y-62029342D02*
X62610839Y-61838866D01*
X62610839Y-61838866D02*
X62610839Y-61600771D01*
X62610839Y-61600771D02*
X62563220Y-61410295D01*
X62563220Y-61410295D02*
X62515601Y-61315057D01*
X62515601Y-61315057D02*
X62467982Y-61267438D01*
X62467982Y-61267438D02*
X62372744Y-61219819D01*
X61420363Y-61219819D02*
X61325125Y-61219819D01*
X61325125Y-61219819D02*
X61229887Y-61267438D01*
X61229887Y-61267438D02*
X61182268Y-61315057D01*
X61182268Y-61315057D02*
X61134649Y-61410295D01*
X61134649Y-61410295D02*
X61087030Y-61600771D01*
X61087030Y-61600771D02*
X61087030Y-61838866D01*
X61087030Y-61838866D02*
X61134649Y-62029342D01*
X61134649Y-62029342D02*
X61182268Y-62124580D01*
X61182268Y-62124580D02*
X61229887Y-62172200D01*
X61229887Y-62172200D02*
X61325125Y-62219819D01*
X61325125Y-62219819D02*
X61420363Y-62219819D01*
X61420363Y-62219819D02*
X61515601Y-62172200D01*
X61515601Y-62172200D02*
X61563220Y-62124580D01*
X61563220Y-62124580D02*
X61610839Y-62029342D01*
X61610839Y-62029342D02*
X61658458Y-61838866D01*
X61658458Y-61838866D02*
X61658458Y-61600771D01*
X61658458Y-61600771D02*
X61610839Y-61410295D01*
X61610839Y-61410295D02*
X61563220Y-61315057D01*
X61563220Y-61315057D02*
X61515601Y-61267438D01*
X61515601Y-61267438D02*
X61420363Y-61219819D01*
X60134649Y-62219819D02*
X60706077Y-62219819D01*
X60420363Y-62219819D02*
X60420363Y-61219819D01*
X60420363Y-61219819D02*
X60515601Y-61362676D01*
X60515601Y-61362676D02*
X60610839Y-61457914D01*
X60610839Y-61457914D02*
X60706077Y-61505533D01*
X59753696Y-61315057D02*
X59706077Y-61267438D01*
X59706077Y-61267438D02*
X59610839Y-61219819D01*
X59610839Y-61219819D02*
X59372744Y-61219819D01*
X59372744Y-61219819D02*
X59277506Y-61267438D01*
X59277506Y-61267438D02*
X59229887Y-61315057D01*
X59229887Y-61315057D02*
X59182268Y-61410295D01*
X59182268Y-61410295D02*
X59182268Y-61505533D01*
X59182268Y-61505533D02*
X59229887Y-61648390D01*
X59229887Y-61648390D02*
X59801315Y-62219819D01*
X59801315Y-62219819D02*
X59182268Y-62219819D01*
X58801315Y-61315057D02*
X58753696Y-61267438D01*
X58753696Y-61267438D02*
X58658458Y-61219819D01*
X58658458Y-61219819D02*
X58420363Y-61219819D01*
X58420363Y-61219819D02*
X58325125Y-61267438D01*
X58325125Y-61267438D02*
X58277506Y-61315057D01*
X58277506Y-61315057D02*
X58229887Y-61410295D01*
X58229887Y-61410295D02*
X58229887Y-61505533D01*
X58229887Y-61505533D02*
X58277506Y-61648390D01*
X58277506Y-61648390D02*
X58848934Y-62219819D01*
X58848934Y-62219819D02*
X58229887Y-62219819D01*
X57277506Y-62219819D02*
X57848934Y-62219819D01*
X57563220Y-62219819D02*
X57563220Y-61219819D01*
X57563220Y-61219819D02*
X57658458Y-61362676D01*
X57658458Y-61362676D02*
X57753696Y-61457914D01*
X57753696Y-61457914D02*
X57848934Y-61505533D01*
X56896553Y-61315057D02*
X56848934Y-61267438D01*
X56848934Y-61267438D02*
X56753696Y-61219819D01*
X56753696Y-61219819D02*
X56515601Y-61219819D01*
X56515601Y-61219819D02*
X56420363Y-61267438D01*
X56420363Y-61267438D02*
X56372744Y-61315057D01*
X56372744Y-61315057D02*
X56325125Y-61410295D01*
X56325125Y-61410295D02*
X56325125Y-61505533D01*
X56325125Y-61505533D02*
X56372744Y-61648390D01*
X56372744Y-61648390D02*
X56944172Y-62219819D01*
X56944172Y-62219819D02*
X56325125Y-62219819D01*
X55944172Y-61315057D02*
X55896553Y-61267438D01*
X55896553Y-61267438D02*
X55801315Y-61219819D01*
X55801315Y-61219819D02*
X55563220Y-61219819D01*
X55563220Y-61219819D02*
X55467982Y-61267438D01*
X55467982Y-61267438D02*
X55420363Y-61315057D01*
X55420363Y-61315057D02*
X55372744Y-61410295D01*
X55372744Y-61410295D02*
X55372744Y-61505533D01*
X55372744Y-61505533D02*
X55420363Y-61648390D01*
X55420363Y-61648390D02*
X55991791Y-62219819D01*
X55991791Y-62219819D02*
X55372744Y-62219819D01*
X55039410Y-61219819D02*
X54420363Y-61219819D01*
X54420363Y-61219819D02*
X54753696Y-61600771D01*
X54753696Y-61600771D02*
X54610839Y-61600771D01*
X54610839Y-61600771D02*
X54515601Y-61648390D01*
X54515601Y-61648390D02*
X54467982Y-61696009D01*
X54467982Y-61696009D02*
X54420363Y-61791247D01*
X54420363Y-61791247D02*
X54420363Y-62029342D01*
X54420363Y-62029342D02*
X54467982Y-62124580D01*
X54467982Y-62124580D02*
X54515601Y-62172200D01*
X54515601Y-62172200D02*
X54610839Y-62219819D01*
X54610839Y-62219819D02*
X54896553Y-62219819D01*
X54896553Y-62219819D02*
X54991791Y-62172200D01*
X54991791Y-62172200D02*
X55039410Y-62124580D01*
X70388220Y-127119819D02*
X70388220Y-126119819D01*
X70388220Y-126119819D02*
X70007268Y-126119819D01*
X70007268Y-126119819D02*
X69912030Y-126167438D01*
X69912030Y-126167438D02*
X69864411Y-126215057D01*
X69864411Y-126215057D02*
X69816792Y-126310295D01*
X69816792Y-126310295D02*
X69816792Y-126453152D01*
X69816792Y-126453152D02*
X69864411Y-126548390D01*
X69864411Y-126548390D02*
X69912030Y-126596009D01*
X69912030Y-126596009D02*
X70007268Y-126643628D01*
X70007268Y-126643628D02*
X70388220Y-126643628D01*
X69435839Y-126834104D02*
X68959649Y-126834104D01*
X69531077Y-127119819D02*
X69197744Y-126119819D01*
X69197744Y-126119819D02*
X68864411Y-127119819D01*
X68102506Y-126453152D02*
X68102506Y-127119819D01*
X68340601Y-126072200D02*
X68578696Y-126786485D01*
X68578696Y-126786485D02*
X67959649Y-126786485D01*
X41433333Y-124762295D02*
X41433333Y-123962295D01*
X41433333Y-124343247D02*
X41033333Y-124343247D01*
X41033333Y-124762295D02*
X41033333Y-123962295D01*
X40400000Y-124228961D02*
X40400000Y-124762295D01*
X40566667Y-123924200D02*
X40733333Y-124495628D01*
X40733333Y-124495628D02*
X40300000Y-124495628D01*
X45111785Y-113012295D02*
X45378452Y-112631342D01*
X45568928Y-113012295D02*
X45568928Y-112212295D01*
X45568928Y-112212295D02*
X45264166Y-112212295D01*
X45264166Y-112212295D02*
X45187976Y-112250390D01*
X45187976Y-112250390D02*
X45149881Y-112288485D01*
X45149881Y-112288485D02*
X45111785Y-112364676D01*
X45111785Y-112364676D02*
X45111785Y-112478961D01*
X45111785Y-112478961D02*
X45149881Y-112555152D01*
X45149881Y-112555152D02*
X45187976Y-112593247D01*
X45187976Y-112593247D02*
X45264166Y-112631342D01*
X45264166Y-112631342D02*
X45568928Y-112631342D01*
X44426071Y-112212295D02*
X44578452Y-112212295D01*
X44578452Y-112212295D02*
X44654643Y-112250390D01*
X44654643Y-112250390D02*
X44692738Y-112288485D01*
X44692738Y-112288485D02*
X44768928Y-112402771D01*
X44768928Y-112402771D02*
X44807024Y-112555152D01*
X44807024Y-112555152D02*
X44807024Y-112859914D01*
X44807024Y-112859914D02*
X44768928Y-112936104D01*
X44768928Y-112936104D02*
X44730833Y-112974200D01*
X44730833Y-112974200D02*
X44654643Y-113012295D01*
X44654643Y-113012295D02*
X44502262Y-113012295D01*
X44502262Y-113012295D02*
X44426071Y-112974200D01*
X44426071Y-112974200D02*
X44387976Y-112936104D01*
X44387976Y-112936104D02*
X44349881Y-112859914D01*
X44349881Y-112859914D02*
X44349881Y-112669438D01*
X44349881Y-112669438D02*
X44387976Y-112593247D01*
X44387976Y-112593247D02*
X44426071Y-112555152D01*
X44426071Y-112555152D02*
X44502262Y-112517057D01*
X44502262Y-112517057D02*
X44654643Y-112517057D01*
X44654643Y-112517057D02*
X44730833Y-112555152D01*
X44730833Y-112555152D02*
X44768928Y-112593247D01*
X44768928Y-112593247D02*
X44807024Y-112669438D01*
X43664166Y-112478961D02*
X43664166Y-113012295D01*
X43854642Y-112174200D02*
X44045119Y-112745628D01*
X44045119Y-112745628D02*
X43549880Y-112745628D01*
X63559580Y-75007142D02*
X63607200Y-74959523D01*
X63607200Y-74959523D02*
X63654819Y-74816666D01*
X63654819Y-74816666D02*
X63654819Y-74721428D01*
X63654819Y-74721428D02*
X63607200Y-74578571D01*
X63607200Y-74578571D02*
X63511961Y-74483333D01*
X63511961Y-74483333D02*
X63416723Y-74435714D01*
X63416723Y-74435714D02*
X63226247Y-74388095D01*
X63226247Y-74388095D02*
X63083390Y-74388095D01*
X63083390Y-74388095D02*
X62892914Y-74435714D01*
X62892914Y-74435714D02*
X62797676Y-74483333D01*
X62797676Y-74483333D02*
X62702438Y-74578571D01*
X62702438Y-74578571D02*
X62654819Y-74721428D01*
X62654819Y-74721428D02*
X62654819Y-74816666D01*
X62654819Y-74816666D02*
X62702438Y-74959523D01*
X62702438Y-74959523D02*
X62750057Y-75007142D01*
X62654819Y-75340476D02*
X62654819Y-75959523D01*
X62654819Y-75959523D02*
X63035771Y-75626190D01*
X63035771Y-75626190D02*
X63035771Y-75769047D01*
X63035771Y-75769047D02*
X63083390Y-75864285D01*
X63083390Y-75864285D02*
X63131009Y-75911904D01*
X63131009Y-75911904D02*
X63226247Y-75959523D01*
X63226247Y-75959523D02*
X63464342Y-75959523D01*
X63464342Y-75959523D02*
X63559580Y-75911904D01*
X63559580Y-75911904D02*
X63607200Y-75864285D01*
X63607200Y-75864285D02*
X63654819Y-75769047D01*
X63654819Y-75769047D02*
X63654819Y-75483333D01*
X63654819Y-75483333D02*
X63607200Y-75388095D01*
X63607200Y-75388095D02*
X63559580Y-75340476D01*
X62654819Y-76816666D02*
X62654819Y-76626190D01*
X62654819Y-76626190D02*
X62702438Y-76530952D01*
X62702438Y-76530952D02*
X62750057Y-76483333D01*
X62750057Y-76483333D02*
X62892914Y-76388095D01*
X62892914Y-76388095D02*
X63083390Y-76340476D01*
X63083390Y-76340476D02*
X63464342Y-76340476D01*
X63464342Y-76340476D02*
X63559580Y-76388095D01*
X63559580Y-76388095D02*
X63607200Y-76435714D01*
X63607200Y-76435714D02*
X63654819Y-76530952D01*
X63654819Y-76530952D02*
X63654819Y-76721428D01*
X63654819Y-76721428D02*
X63607200Y-76816666D01*
X63607200Y-76816666D02*
X63559580Y-76864285D01*
X63559580Y-76864285D02*
X63464342Y-76911904D01*
X63464342Y-76911904D02*
X63226247Y-76911904D01*
X63226247Y-76911904D02*
X63131009Y-76864285D01*
X63131009Y-76864285D02*
X63083390Y-76816666D01*
X63083390Y-76816666D02*
X63035771Y-76721428D01*
X63035771Y-76721428D02*
X63035771Y-76530952D01*
X63035771Y-76530952D02*
X63083390Y-76435714D01*
X63083390Y-76435714D02*
X63131009Y-76388095D01*
X63131009Y-76388095D02*
X63226247Y-76340476D01*
X61062295Y-87385714D02*
X60681342Y-87119047D01*
X61062295Y-86928571D02*
X60262295Y-86928571D01*
X60262295Y-86928571D02*
X60262295Y-87233333D01*
X60262295Y-87233333D02*
X60300390Y-87309523D01*
X60300390Y-87309523D02*
X60338485Y-87347618D01*
X60338485Y-87347618D02*
X60414676Y-87385714D01*
X60414676Y-87385714D02*
X60528961Y-87385714D01*
X60528961Y-87385714D02*
X60605152Y-87347618D01*
X60605152Y-87347618D02*
X60643247Y-87309523D01*
X60643247Y-87309523D02*
X60681342Y-87233333D01*
X60681342Y-87233333D02*
X60681342Y-86928571D01*
X60262295Y-88109523D02*
X60262295Y-87728571D01*
X60262295Y-87728571D02*
X60643247Y-87690475D01*
X60643247Y-87690475D02*
X60605152Y-87728571D01*
X60605152Y-87728571D02*
X60567057Y-87804761D01*
X60567057Y-87804761D02*
X60567057Y-87995237D01*
X60567057Y-87995237D02*
X60605152Y-88071428D01*
X60605152Y-88071428D02*
X60643247Y-88109523D01*
X60643247Y-88109523D02*
X60719438Y-88147618D01*
X60719438Y-88147618D02*
X60909914Y-88147618D01*
X60909914Y-88147618D02*
X60986104Y-88109523D01*
X60986104Y-88109523D02*
X61024200Y-88071428D01*
X61024200Y-88071428D02*
X61062295Y-87995237D01*
X61062295Y-87995237D02*
X61062295Y-87804761D01*
X61062295Y-87804761D02*
X61024200Y-87728571D01*
X61024200Y-87728571D02*
X60986104Y-87690475D01*
X60605152Y-88604761D02*
X60567057Y-88528571D01*
X60567057Y-88528571D02*
X60528961Y-88490476D01*
X60528961Y-88490476D02*
X60452771Y-88452380D01*
X60452771Y-88452380D02*
X60414676Y-88452380D01*
X60414676Y-88452380D02*
X60338485Y-88490476D01*
X60338485Y-88490476D02*
X60300390Y-88528571D01*
X60300390Y-88528571D02*
X60262295Y-88604761D01*
X60262295Y-88604761D02*
X60262295Y-88757142D01*
X60262295Y-88757142D02*
X60300390Y-88833333D01*
X60300390Y-88833333D02*
X60338485Y-88871428D01*
X60338485Y-88871428D02*
X60414676Y-88909523D01*
X60414676Y-88909523D02*
X60452771Y-88909523D01*
X60452771Y-88909523D02*
X60528961Y-88871428D01*
X60528961Y-88871428D02*
X60567057Y-88833333D01*
X60567057Y-88833333D02*
X60605152Y-88757142D01*
X60605152Y-88757142D02*
X60605152Y-88604761D01*
X60605152Y-88604761D02*
X60643247Y-88528571D01*
X60643247Y-88528571D02*
X60681342Y-88490476D01*
X60681342Y-88490476D02*
X60757533Y-88452380D01*
X60757533Y-88452380D02*
X60909914Y-88452380D01*
X60909914Y-88452380D02*
X60986104Y-88490476D01*
X60986104Y-88490476D02*
X61024200Y-88528571D01*
X61024200Y-88528571D02*
X61062295Y-88604761D01*
X61062295Y-88604761D02*
X61062295Y-88757142D01*
X61062295Y-88757142D02*
X61024200Y-88833333D01*
X61024200Y-88833333D02*
X60986104Y-88871428D01*
X60986104Y-88871428D02*
X60909914Y-88909523D01*
X60909914Y-88909523D02*
X60757533Y-88909523D01*
X60757533Y-88909523D02*
X60681342Y-88871428D01*
X60681342Y-88871428D02*
X60643247Y-88833333D01*
X60643247Y-88833333D02*
X60605152Y-88757142D01*
X49869285Y-108336104D02*
X49907381Y-108374200D01*
X49907381Y-108374200D02*
X50021666Y-108412295D01*
X50021666Y-108412295D02*
X50097857Y-108412295D01*
X50097857Y-108412295D02*
X50212143Y-108374200D01*
X50212143Y-108374200D02*
X50288333Y-108298009D01*
X50288333Y-108298009D02*
X50326428Y-108221819D01*
X50326428Y-108221819D02*
X50364524Y-108069438D01*
X50364524Y-108069438D02*
X50364524Y-107955152D01*
X50364524Y-107955152D02*
X50326428Y-107802771D01*
X50326428Y-107802771D02*
X50288333Y-107726580D01*
X50288333Y-107726580D02*
X50212143Y-107650390D01*
X50212143Y-107650390D02*
X50097857Y-107612295D01*
X50097857Y-107612295D02*
X50021666Y-107612295D01*
X50021666Y-107612295D02*
X49907381Y-107650390D01*
X49907381Y-107650390D02*
X49869285Y-107688485D01*
X49145476Y-107612295D02*
X49526428Y-107612295D01*
X49526428Y-107612295D02*
X49564524Y-107993247D01*
X49564524Y-107993247D02*
X49526428Y-107955152D01*
X49526428Y-107955152D02*
X49450238Y-107917057D01*
X49450238Y-107917057D02*
X49259762Y-107917057D01*
X49259762Y-107917057D02*
X49183571Y-107955152D01*
X49183571Y-107955152D02*
X49145476Y-107993247D01*
X49145476Y-107993247D02*
X49107381Y-108069438D01*
X49107381Y-108069438D02*
X49107381Y-108259914D01*
X49107381Y-108259914D02*
X49145476Y-108336104D01*
X49145476Y-108336104D02*
X49183571Y-108374200D01*
X49183571Y-108374200D02*
X49259762Y-108412295D01*
X49259762Y-108412295D02*
X49450238Y-108412295D01*
X49450238Y-108412295D02*
X49526428Y-108374200D01*
X49526428Y-108374200D02*
X49564524Y-108336104D01*
X48612142Y-107612295D02*
X48535952Y-107612295D01*
X48535952Y-107612295D02*
X48459761Y-107650390D01*
X48459761Y-107650390D02*
X48421666Y-107688485D01*
X48421666Y-107688485D02*
X48383571Y-107764676D01*
X48383571Y-107764676D02*
X48345476Y-107917057D01*
X48345476Y-107917057D02*
X48345476Y-108107533D01*
X48345476Y-108107533D02*
X48383571Y-108259914D01*
X48383571Y-108259914D02*
X48421666Y-108336104D01*
X48421666Y-108336104D02*
X48459761Y-108374200D01*
X48459761Y-108374200D02*
X48535952Y-108412295D01*
X48535952Y-108412295D02*
X48612142Y-108412295D01*
X48612142Y-108412295D02*
X48688333Y-108374200D01*
X48688333Y-108374200D02*
X48726428Y-108336104D01*
X48726428Y-108336104D02*
X48764523Y-108259914D01*
X48764523Y-108259914D02*
X48802619Y-108107533D01*
X48802619Y-108107533D02*
X48802619Y-107917057D01*
X48802619Y-107917057D02*
X48764523Y-107764676D01*
X48764523Y-107764676D02*
X48726428Y-107688485D01*
X48726428Y-107688485D02*
X48688333Y-107650390D01*
X48688333Y-107650390D02*
X48612142Y-107612295D01*
X70232143Y-123612295D02*
X69889286Y-123612295D01*
X70060714Y-124412295D02*
X70060714Y-123612295D01*
X69689285Y-124412295D02*
X69689285Y-123612295D01*
X69689285Y-123612295D02*
X69460714Y-123612295D01*
X69460714Y-123612295D02*
X69403571Y-123650390D01*
X69403571Y-123650390D02*
X69375000Y-123688485D01*
X69375000Y-123688485D02*
X69346428Y-123764676D01*
X69346428Y-123764676D02*
X69346428Y-123878961D01*
X69346428Y-123878961D02*
X69375000Y-123955152D01*
X69375000Y-123955152D02*
X69403571Y-123993247D01*
X69403571Y-123993247D02*
X69460714Y-124031342D01*
X69460714Y-124031342D02*
X69689285Y-124031342D01*
X69146428Y-123612295D02*
X68746428Y-123612295D01*
X68746428Y-123612295D02*
X69003571Y-124412295D01*
X52737294Y-103735714D02*
X52356341Y-103469047D01*
X52737294Y-103278571D02*
X51937294Y-103278571D01*
X51937294Y-103278571D02*
X51937294Y-103583333D01*
X51937294Y-103583333D02*
X51975389Y-103659523D01*
X51975389Y-103659523D02*
X52013484Y-103697618D01*
X52013484Y-103697618D02*
X52089675Y-103735714D01*
X52089675Y-103735714D02*
X52203960Y-103735714D01*
X52203960Y-103735714D02*
X52280151Y-103697618D01*
X52280151Y-103697618D02*
X52318246Y-103659523D01*
X52318246Y-103659523D02*
X52356341Y-103583333D01*
X52356341Y-103583333D02*
X52356341Y-103278571D01*
X51937294Y-104002380D02*
X51937294Y-104497618D01*
X51937294Y-104497618D02*
X52242056Y-104230952D01*
X52242056Y-104230952D02*
X52242056Y-104345237D01*
X52242056Y-104345237D02*
X52280151Y-104421428D01*
X52280151Y-104421428D02*
X52318246Y-104459523D01*
X52318246Y-104459523D02*
X52394437Y-104497618D01*
X52394437Y-104497618D02*
X52584913Y-104497618D01*
X52584913Y-104497618D02*
X52661103Y-104459523D01*
X52661103Y-104459523D02*
X52699199Y-104421428D01*
X52699199Y-104421428D02*
X52737294Y-104345237D01*
X52737294Y-104345237D02*
X52737294Y-104116666D01*
X52737294Y-104116666D02*
X52699199Y-104040475D01*
X52699199Y-104040475D02*
X52661103Y-104002380D01*
X52737294Y-105259523D02*
X52737294Y-104802380D01*
X52737294Y-105030952D02*
X51937294Y-105030952D01*
X51937294Y-105030952D02*
X52051579Y-104954761D01*
X52051579Y-104954761D02*
X52127770Y-104878571D01*
X52127770Y-104878571D02*
X52165865Y-104802380D01*
X71724795Y-128821429D02*
X71343842Y-128554762D01*
X71724795Y-128364286D02*
X70924795Y-128364286D01*
X70924795Y-128364286D02*
X70924795Y-128669048D01*
X70924795Y-128669048D02*
X70962890Y-128745238D01*
X70962890Y-128745238D02*
X71000985Y-128783333D01*
X71000985Y-128783333D02*
X71077176Y-128821429D01*
X71077176Y-128821429D02*
X71191461Y-128821429D01*
X71191461Y-128821429D02*
X71267652Y-128783333D01*
X71267652Y-128783333D02*
X71305747Y-128745238D01*
X71305747Y-128745238D02*
X71343842Y-128669048D01*
X71343842Y-128669048D02*
X71343842Y-128364286D01*
X70924795Y-129088095D02*
X70924795Y-129583333D01*
X70924795Y-129583333D02*
X71229557Y-129316667D01*
X71229557Y-129316667D02*
X71229557Y-129430952D01*
X71229557Y-129430952D02*
X71267652Y-129507143D01*
X71267652Y-129507143D02*
X71305747Y-129545238D01*
X71305747Y-129545238D02*
X71381938Y-129583333D01*
X71381938Y-129583333D02*
X71572414Y-129583333D01*
X71572414Y-129583333D02*
X71648604Y-129545238D01*
X71648604Y-129545238D02*
X71686700Y-129507143D01*
X71686700Y-129507143D02*
X71724795Y-129430952D01*
X71724795Y-129430952D02*
X71724795Y-129202381D01*
X71724795Y-129202381D02*
X71686700Y-129126190D01*
X71686700Y-129126190D02*
X71648604Y-129088095D01*
X51689286Y-90099795D02*
X51955953Y-89718842D01*
X52146429Y-90099795D02*
X52146429Y-89299795D01*
X52146429Y-89299795D02*
X51841667Y-89299795D01*
X51841667Y-89299795D02*
X51765477Y-89337890D01*
X51765477Y-89337890D02*
X51727382Y-89375985D01*
X51727382Y-89375985D02*
X51689286Y-89452176D01*
X51689286Y-89452176D02*
X51689286Y-89566461D01*
X51689286Y-89566461D02*
X51727382Y-89642652D01*
X51727382Y-89642652D02*
X51765477Y-89680747D01*
X51765477Y-89680747D02*
X51841667Y-89718842D01*
X51841667Y-89718842D02*
X52146429Y-89718842D01*
X51422620Y-89299795D02*
X50927382Y-89299795D01*
X50927382Y-89299795D02*
X51194048Y-89604557D01*
X51194048Y-89604557D02*
X51079763Y-89604557D01*
X51079763Y-89604557D02*
X51003572Y-89642652D01*
X51003572Y-89642652D02*
X50965477Y-89680747D01*
X50965477Y-89680747D02*
X50927382Y-89756938D01*
X50927382Y-89756938D02*
X50927382Y-89947414D01*
X50927382Y-89947414D02*
X50965477Y-90023604D01*
X50965477Y-90023604D02*
X51003572Y-90061700D01*
X51003572Y-90061700D02*
X51079763Y-90099795D01*
X51079763Y-90099795D02*
X51308334Y-90099795D01*
X51308334Y-90099795D02*
X51384525Y-90061700D01*
X51384525Y-90061700D02*
X51422620Y-90023604D01*
X50470239Y-89642652D02*
X50546429Y-89604557D01*
X50546429Y-89604557D02*
X50584524Y-89566461D01*
X50584524Y-89566461D02*
X50622620Y-89490271D01*
X50622620Y-89490271D02*
X50622620Y-89452176D01*
X50622620Y-89452176D02*
X50584524Y-89375985D01*
X50584524Y-89375985D02*
X50546429Y-89337890D01*
X50546429Y-89337890D02*
X50470239Y-89299795D01*
X50470239Y-89299795D02*
X50317858Y-89299795D01*
X50317858Y-89299795D02*
X50241667Y-89337890D01*
X50241667Y-89337890D02*
X50203572Y-89375985D01*
X50203572Y-89375985D02*
X50165477Y-89452176D01*
X50165477Y-89452176D02*
X50165477Y-89490271D01*
X50165477Y-89490271D02*
X50203572Y-89566461D01*
X50203572Y-89566461D02*
X50241667Y-89604557D01*
X50241667Y-89604557D02*
X50317858Y-89642652D01*
X50317858Y-89642652D02*
X50470239Y-89642652D01*
X50470239Y-89642652D02*
X50546429Y-89680747D01*
X50546429Y-89680747D02*
X50584524Y-89718842D01*
X50584524Y-89718842D02*
X50622620Y-89795033D01*
X50622620Y-89795033D02*
X50622620Y-89947414D01*
X50622620Y-89947414D02*
X50584524Y-90023604D01*
X50584524Y-90023604D02*
X50546429Y-90061700D01*
X50546429Y-90061700D02*
X50470239Y-90099795D01*
X50470239Y-90099795D02*
X50317858Y-90099795D01*
X50317858Y-90099795D02*
X50241667Y-90061700D01*
X50241667Y-90061700D02*
X50203572Y-90023604D01*
X50203572Y-90023604D02*
X50165477Y-89947414D01*
X50165477Y-89947414D02*
X50165477Y-89795033D01*
X50165477Y-89795033D02*
X50203572Y-89718842D01*
X50203572Y-89718842D02*
X50241667Y-89680747D01*
X50241667Y-89680747D02*
X50317858Y-89642652D01*
X71124795Y-123998095D02*
X71696223Y-123998095D01*
X71696223Y-123998095D02*
X71810509Y-123960000D01*
X71810509Y-123960000D02*
X71886700Y-123883809D01*
X71886700Y-123883809D02*
X71924795Y-123769524D01*
X71924795Y-123769524D02*
X71924795Y-123693333D01*
X71924795Y-124379048D02*
X71124795Y-124379048D01*
X71124795Y-124379048D02*
X71124795Y-124683810D01*
X71124795Y-124683810D02*
X71162890Y-124760000D01*
X71162890Y-124760000D02*
X71200985Y-124798095D01*
X71200985Y-124798095D02*
X71277176Y-124836191D01*
X71277176Y-124836191D02*
X71391461Y-124836191D01*
X71391461Y-124836191D02*
X71467652Y-124798095D01*
X71467652Y-124798095D02*
X71505747Y-124760000D01*
X71505747Y-124760000D02*
X71543842Y-124683810D01*
X71543842Y-124683810D02*
X71543842Y-124379048D01*
X71924795Y-125598095D02*
X71924795Y-125140952D01*
X71924795Y-125369524D02*
X71124795Y-125369524D01*
X71124795Y-125369524D02*
X71239080Y-125293333D01*
X71239080Y-125293333D02*
X71315271Y-125217143D01*
X71315271Y-125217143D02*
X71353366Y-125140952D01*
X72617319Y-128931429D02*
X72617319Y-129550476D01*
X72617319Y-129550476D02*
X72998271Y-129217143D01*
X72998271Y-129217143D02*
X72998271Y-129360000D01*
X72998271Y-129360000D02*
X73045890Y-129455238D01*
X73045890Y-129455238D02*
X73093509Y-129502857D01*
X73093509Y-129502857D02*
X73188747Y-129550476D01*
X73188747Y-129550476D02*
X73426842Y-129550476D01*
X73426842Y-129550476D02*
X73522080Y-129502857D01*
X73522080Y-129502857D02*
X73569700Y-129455238D01*
X73569700Y-129455238D02*
X73617319Y-129360000D01*
X73617319Y-129360000D02*
X73617319Y-129074286D01*
X73617319Y-129074286D02*
X73569700Y-128979048D01*
X73569700Y-128979048D02*
X73522080Y-128931429D01*
X73617319Y-124350476D02*
X73617319Y-123779048D01*
X73617319Y-124064762D02*
X72617319Y-124064762D01*
X72617319Y-124064762D02*
X72760176Y-123969524D01*
X72760176Y-123969524D02*
X72855414Y-123874286D01*
X72855414Y-123874286D02*
X72903033Y-123779048D01*
X64714285Y-102017295D02*
X64980952Y-101636342D01*
X65171428Y-102017295D02*
X65171428Y-101217295D01*
X65171428Y-101217295D02*
X64866666Y-101217295D01*
X64866666Y-101217295D02*
X64790476Y-101255390D01*
X64790476Y-101255390D02*
X64752381Y-101293485D01*
X64752381Y-101293485D02*
X64714285Y-101369676D01*
X64714285Y-101369676D02*
X64714285Y-101483961D01*
X64714285Y-101483961D02*
X64752381Y-101560152D01*
X64752381Y-101560152D02*
X64790476Y-101598247D01*
X64790476Y-101598247D02*
X64866666Y-101636342D01*
X64866666Y-101636342D02*
X65171428Y-101636342D01*
X64028571Y-101483961D02*
X64028571Y-102017295D01*
X64219047Y-101179200D02*
X64409524Y-101750628D01*
X64409524Y-101750628D02*
X63914285Y-101750628D01*
X63266666Y-101483961D02*
X63266666Y-102017295D01*
X63457142Y-101179200D02*
X63647619Y-101750628D01*
X63647619Y-101750628D02*
X63152380Y-101750628D01*
X77186104Y-94185713D02*
X77224200Y-94147617D01*
X77224200Y-94147617D02*
X77262295Y-94033332D01*
X77262295Y-94033332D02*
X77262295Y-93957141D01*
X77262295Y-93957141D02*
X77224200Y-93842855D01*
X77224200Y-93842855D02*
X77148009Y-93766665D01*
X77148009Y-93766665D02*
X77071819Y-93728570D01*
X77071819Y-93728570D02*
X76919438Y-93690474D01*
X76919438Y-93690474D02*
X76805152Y-93690474D01*
X76805152Y-93690474D02*
X76652771Y-93728570D01*
X76652771Y-93728570D02*
X76576580Y-93766665D01*
X76576580Y-93766665D02*
X76500390Y-93842855D01*
X76500390Y-93842855D02*
X76462295Y-93957141D01*
X76462295Y-93957141D02*
X76462295Y-94033332D01*
X76462295Y-94033332D02*
X76500390Y-94147617D01*
X76500390Y-94147617D02*
X76538485Y-94185713D01*
X76728961Y-94871427D02*
X77262295Y-94871427D01*
X76424200Y-94680951D02*
X76995628Y-94490474D01*
X76995628Y-94490474D02*
X76995628Y-94985713D01*
X76728961Y-95633332D02*
X77262295Y-95633332D01*
X76424200Y-95442856D02*
X76995628Y-95252379D01*
X76995628Y-95252379D02*
X76995628Y-95747618D01*
X53761104Y-90123214D02*
X53799200Y-90085118D01*
X53799200Y-90085118D02*
X53837295Y-89970833D01*
X53837295Y-89970833D02*
X53837295Y-89894642D01*
X53837295Y-89894642D02*
X53799200Y-89780356D01*
X53799200Y-89780356D02*
X53723009Y-89704166D01*
X53723009Y-89704166D02*
X53646819Y-89666071D01*
X53646819Y-89666071D02*
X53494438Y-89627975D01*
X53494438Y-89627975D02*
X53380152Y-89627975D01*
X53380152Y-89627975D02*
X53227771Y-89666071D01*
X53227771Y-89666071D02*
X53151580Y-89704166D01*
X53151580Y-89704166D02*
X53075390Y-89780356D01*
X53075390Y-89780356D02*
X53037295Y-89894642D01*
X53037295Y-89894642D02*
X53037295Y-89970833D01*
X53037295Y-89970833D02*
X53075390Y-90085118D01*
X53075390Y-90085118D02*
X53113485Y-90123214D01*
X53037295Y-90389880D02*
X53037295Y-90885118D01*
X53037295Y-90885118D02*
X53342057Y-90618452D01*
X53342057Y-90618452D02*
X53342057Y-90732737D01*
X53342057Y-90732737D02*
X53380152Y-90808928D01*
X53380152Y-90808928D02*
X53418247Y-90847023D01*
X53418247Y-90847023D02*
X53494438Y-90885118D01*
X53494438Y-90885118D02*
X53684914Y-90885118D01*
X53684914Y-90885118D02*
X53761104Y-90847023D01*
X53761104Y-90847023D02*
X53799200Y-90808928D01*
X53799200Y-90808928D02*
X53837295Y-90732737D01*
X53837295Y-90732737D02*
X53837295Y-90504166D01*
X53837295Y-90504166D02*
X53799200Y-90427975D01*
X53799200Y-90427975D02*
X53761104Y-90389880D01*
X53837295Y-91647023D02*
X53837295Y-91189880D01*
X53837295Y-91418452D02*
X53037295Y-91418452D01*
X53037295Y-91418452D02*
X53151580Y-91342261D01*
X53151580Y-91342261D02*
X53227771Y-91266071D01*
X53227771Y-91266071D02*
X53265866Y-91189880D01*
X50060475Y-108762295D02*
X50060475Y-109409914D01*
X50060475Y-109409914D02*
X50022380Y-109486104D01*
X50022380Y-109486104D02*
X49984285Y-109524200D01*
X49984285Y-109524200D02*
X49908094Y-109562295D01*
X49908094Y-109562295D02*
X49755713Y-109562295D01*
X49755713Y-109562295D02*
X49679523Y-109524200D01*
X49679523Y-109524200D02*
X49641428Y-109486104D01*
X49641428Y-109486104D02*
X49603332Y-109409914D01*
X49603332Y-109409914D02*
X49603332Y-108762295D01*
X48803333Y-109562295D02*
X49260476Y-109562295D01*
X49031904Y-109562295D02*
X49031904Y-108762295D01*
X49031904Y-108762295D02*
X49108095Y-108876580D01*
X49108095Y-108876580D02*
X49184285Y-108952771D01*
X49184285Y-108952771D02*
X49260476Y-108990866D01*
X48422380Y-109562295D02*
X48269999Y-109562295D01*
X48269999Y-109562295D02*
X48193809Y-109524200D01*
X48193809Y-109524200D02*
X48155713Y-109486104D01*
X48155713Y-109486104D02*
X48079523Y-109371819D01*
X48079523Y-109371819D02*
X48041428Y-109219438D01*
X48041428Y-109219438D02*
X48041428Y-108914676D01*
X48041428Y-108914676D02*
X48079523Y-108838485D01*
X48079523Y-108838485D02*
X48117618Y-108800390D01*
X48117618Y-108800390D02*
X48193809Y-108762295D01*
X48193809Y-108762295D02*
X48346190Y-108762295D01*
X48346190Y-108762295D02*
X48422380Y-108800390D01*
X48422380Y-108800390D02*
X48460475Y-108838485D01*
X48460475Y-108838485D02*
X48498571Y-108914676D01*
X48498571Y-108914676D02*
X48498571Y-109105152D01*
X48498571Y-109105152D02*
X48460475Y-109181342D01*
X48460475Y-109181342D02*
X48422380Y-109219438D01*
X48422380Y-109219438D02*
X48346190Y-109257533D01*
X48346190Y-109257533D02*
X48193809Y-109257533D01*
X48193809Y-109257533D02*
X48117618Y-109219438D01*
X48117618Y-109219438D02*
X48079523Y-109181342D01*
X48079523Y-109181342D02*
X48041428Y-109105152D01*
X53958428Y-74503295D02*
X53958428Y-73703295D01*
X53958428Y-73703295D02*
X53767952Y-73703295D01*
X53767952Y-73703295D02*
X53653666Y-73741390D01*
X53653666Y-73741390D02*
X53577476Y-73817580D01*
X53577476Y-73817580D02*
X53539381Y-73893771D01*
X53539381Y-73893771D02*
X53501285Y-74046152D01*
X53501285Y-74046152D02*
X53501285Y-74160438D01*
X53501285Y-74160438D02*
X53539381Y-74312819D01*
X53539381Y-74312819D02*
X53577476Y-74389009D01*
X53577476Y-74389009D02*
X53653666Y-74465200D01*
X53653666Y-74465200D02*
X53767952Y-74503295D01*
X53767952Y-74503295D02*
X53958428Y-74503295D01*
X52739381Y-74503295D02*
X53196524Y-74503295D01*
X52967952Y-74503295D02*
X52967952Y-73703295D01*
X52967952Y-73703295D02*
X53044143Y-73817580D01*
X53044143Y-73817580D02*
X53120333Y-73893771D01*
X53120333Y-73893771D02*
X53196524Y-73931866D01*
X52244142Y-73703295D02*
X52167952Y-73703295D01*
X52167952Y-73703295D02*
X52091761Y-73741390D01*
X52091761Y-73741390D02*
X52053666Y-73779485D01*
X52053666Y-73779485D02*
X52015571Y-73855676D01*
X52015571Y-73855676D02*
X51977476Y-74008057D01*
X51977476Y-74008057D02*
X51977476Y-74198533D01*
X51977476Y-74198533D02*
X52015571Y-74350914D01*
X52015571Y-74350914D02*
X52053666Y-74427104D01*
X52053666Y-74427104D02*
X52091761Y-74465200D01*
X52091761Y-74465200D02*
X52167952Y-74503295D01*
X52167952Y-74503295D02*
X52244142Y-74503295D01*
X52244142Y-74503295D02*
X52320333Y-74465200D01*
X52320333Y-74465200D02*
X52358428Y-74427104D01*
X52358428Y-74427104D02*
X52396523Y-74350914D01*
X52396523Y-74350914D02*
X52434619Y-74198533D01*
X52434619Y-74198533D02*
X52434619Y-74008057D01*
X52434619Y-74008057D02*
X52396523Y-73855676D01*
X52396523Y-73855676D02*
X52358428Y-73779485D01*
X52358428Y-73779485D02*
X52320333Y-73741390D01*
X52320333Y-73741390D02*
X52244142Y-73703295D01*
X45686104Y-108685714D02*
X45724200Y-108647618D01*
X45724200Y-108647618D02*
X45762295Y-108533333D01*
X45762295Y-108533333D02*
X45762295Y-108457142D01*
X45762295Y-108457142D02*
X45724200Y-108342856D01*
X45724200Y-108342856D02*
X45648009Y-108266666D01*
X45648009Y-108266666D02*
X45571819Y-108228571D01*
X45571819Y-108228571D02*
X45419438Y-108190475D01*
X45419438Y-108190475D02*
X45305152Y-108190475D01*
X45305152Y-108190475D02*
X45152771Y-108228571D01*
X45152771Y-108228571D02*
X45076580Y-108266666D01*
X45076580Y-108266666D02*
X45000390Y-108342856D01*
X45000390Y-108342856D02*
X44962295Y-108457142D01*
X44962295Y-108457142D02*
X44962295Y-108533333D01*
X44962295Y-108533333D02*
X45000390Y-108647618D01*
X45000390Y-108647618D02*
X45038485Y-108685714D01*
X44962295Y-109409523D02*
X44962295Y-109028571D01*
X44962295Y-109028571D02*
X45343247Y-108990475D01*
X45343247Y-108990475D02*
X45305152Y-109028571D01*
X45305152Y-109028571D02*
X45267057Y-109104761D01*
X45267057Y-109104761D02*
X45267057Y-109295237D01*
X45267057Y-109295237D02*
X45305152Y-109371428D01*
X45305152Y-109371428D02*
X45343247Y-109409523D01*
X45343247Y-109409523D02*
X45419438Y-109447618D01*
X45419438Y-109447618D02*
X45609914Y-109447618D01*
X45609914Y-109447618D02*
X45686104Y-109409523D01*
X45686104Y-109409523D02*
X45724200Y-109371428D01*
X45724200Y-109371428D02*
X45762295Y-109295237D01*
X45762295Y-109295237D02*
X45762295Y-109104761D01*
X45762295Y-109104761D02*
X45724200Y-109028571D01*
X45724200Y-109028571D02*
X45686104Y-108990475D01*
X45762295Y-110209523D02*
X45762295Y-109752380D01*
X45762295Y-109980952D02*
X44962295Y-109980952D01*
X44962295Y-109980952D02*
X45076580Y-109904761D01*
X45076580Y-109904761D02*
X45152771Y-109828571D01*
X45152771Y-109828571D02*
X45190866Y-109752380D01*
X79974795Y-125131429D02*
X79593842Y-124864762D01*
X79974795Y-124674286D02*
X79174795Y-124674286D01*
X79174795Y-124674286D02*
X79174795Y-124979048D01*
X79174795Y-124979048D02*
X79212890Y-125055238D01*
X79212890Y-125055238D02*
X79250985Y-125093333D01*
X79250985Y-125093333D02*
X79327176Y-125131429D01*
X79327176Y-125131429D02*
X79441461Y-125131429D01*
X79441461Y-125131429D02*
X79517652Y-125093333D01*
X79517652Y-125093333D02*
X79555747Y-125055238D01*
X79555747Y-125055238D02*
X79593842Y-124979048D01*
X79593842Y-124979048D02*
X79593842Y-124674286D01*
X79441461Y-125817143D02*
X79974795Y-125817143D01*
X79136700Y-125626667D02*
X79708128Y-125436190D01*
X79708128Y-125436190D02*
X79708128Y-125931429D01*
X93443247Y-114871428D02*
X93481342Y-114985714D01*
X93481342Y-114985714D02*
X93519438Y-115023809D01*
X93519438Y-115023809D02*
X93595628Y-115061905D01*
X93595628Y-115061905D02*
X93709914Y-115061905D01*
X93709914Y-115061905D02*
X93786104Y-115023809D01*
X93786104Y-115023809D02*
X93824200Y-114985714D01*
X93824200Y-114985714D02*
X93862295Y-114909524D01*
X93862295Y-114909524D02*
X93862295Y-114604762D01*
X93862295Y-114604762D02*
X93062295Y-114604762D01*
X93062295Y-114604762D02*
X93062295Y-114871428D01*
X93062295Y-114871428D02*
X93100390Y-114947619D01*
X93100390Y-114947619D02*
X93138485Y-114985714D01*
X93138485Y-114985714D02*
X93214676Y-115023809D01*
X93214676Y-115023809D02*
X93290866Y-115023809D01*
X93290866Y-115023809D02*
X93367057Y-114985714D01*
X93367057Y-114985714D02*
X93405152Y-114947619D01*
X93405152Y-114947619D02*
X93443247Y-114871428D01*
X93443247Y-114871428D02*
X93443247Y-114604762D01*
X93062295Y-115290476D02*
X93062295Y-115747619D01*
X93862295Y-115519047D02*
X93062295Y-115519047D01*
X93862295Y-116433333D02*
X93862295Y-115976190D01*
X93862295Y-116204762D02*
X93062295Y-116204762D01*
X93062295Y-116204762D02*
X93176580Y-116128571D01*
X93176580Y-116128571D02*
X93252771Y-116052381D01*
X93252771Y-116052381D02*
X93290866Y-115976190D01*
X74492295Y-98485714D02*
X74111342Y-98219047D01*
X74492295Y-98028571D02*
X73692295Y-98028571D01*
X73692295Y-98028571D02*
X73692295Y-98333333D01*
X73692295Y-98333333D02*
X73730390Y-98409523D01*
X73730390Y-98409523D02*
X73768485Y-98447618D01*
X73768485Y-98447618D02*
X73844676Y-98485714D01*
X73844676Y-98485714D02*
X73958961Y-98485714D01*
X73958961Y-98485714D02*
X74035152Y-98447618D01*
X74035152Y-98447618D02*
X74073247Y-98409523D01*
X74073247Y-98409523D02*
X74111342Y-98333333D01*
X74111342Y-98333333D02*
X74111342Y-98028571D01*
X73692295Y-99209523D02*
X73692295Y-98828571D01*
X73692295Y-98828571D02*
X74073247Y-98790475D01*
X74073247Y-98790475D02*
X74035152Y-98828571D01*
X74035152Y-98828571D02*
X73997057Y-98904761D01*
X73997057Y-98904761D02*
X73997057Y-99095237D01*
X73997057Y-99095237D02*
X74035152Y-99171428D01*
X74035152Y-99171428D02*
X74073247Y-99209523D01*
X74073247Y-99209523D02*
X74149438Y-99247618D01*
X74149438Y-99247618D02*
X74339914Y-99247618D01*
X74339914Y-99247618D02*
X74416104Y-99209523D01*
X74416104Y-99209523D02*
X74454200Y-99171428D01*
X74454200Y-99171428D02*
X74492295Y-99095237D01*
X74492295Y-99095237D02*
X74492295Y-98904761D01*
X74492295Y-98904761D02*
X74454200Y-98828571D01*
X74454200Y-98828571D02*
X74416104Y-98790475D01*
X74492295Y-99628571D02*
X74492295Y-99780952D01*
X74492295Y-99780952D02*
X74454200Y-99857142D01*
X74454200Y-99857142D02*
X74416104Y-99895238D01*
X74416104Y-99895238D02*
X74301819Y-99971428D01*
X74301819Y-99971428D02*
X74149438Y-100009523D01*
X74149438Y-100009523D02*
X73844676Y-100009523D01*
X73844676Y-100009523D02*
X73768485Y-99971428D01*
X73768485Y-99971428D02*
X73730390Y-99933333D01*
X73730390Y-99933333D02*
X73692295Y-99857142D01*
X73692295Y-99857142D02*
X73692295Y-99704761D01*
X73692295Y-99704761D02*
X73730390Y-99628571D01*
X73730390Y-99628571D02*
X73768485Y-99590476D01*
X73768485Y-99590476D02*
X73844676Y-99552380D01*
X73844676Y-99552380D02*
X74035152Y-99552380D01*
X74035152Y-99552380D02*
X74111342Y-99590476D01*
X74111342Y-99590476D02*
X74149438Y-99628571D01*
X74149438Y-99628571D02*
X74187533Y-99704761D01*
X74187533Y-99704761D02*
X74187533Y-99857142D01*
X74187533Y-99857142D02*
X74149438Y-99933333D01*
X74149438Y-99933333D02*
X74111342Y-99971428D01*
X74111342Y-99971428D02*
X74035152Y-100009523D01*
X49869285Y-107286104D02*
X49907381Y-107324200D01*
X49907381Y-107324200D02*
X50021666Y-107362295D01*
X50021666Y-107362295D02*
X50097857Y-107362295D01*
X50097857Y-107362295D02*
X50212143Y-107324200D01*
X50212143Y-107324200D02*
X50288333Y-107248009D01*
X50288333Y-107248009D02*
X50326428Y-107171819D01*
X50326428Y-107171819D02*
X50364524Y-107019438D01*
X50364524Y-107019438D02*
X50364524Y-106905152D01*
X50364524Y-106905152D02*
X50326428Y-106752771D01*
X50326428Y-106752771D02*
X50288333Y-106676580D01*
X50288333Y-106676580D02*
X50212143Y-106600390D01*
X50212143Y-106600390D02*
X50097857Y-106562295D01*
X50097857Y-106562295D02*
X50021666Y-106562295D01*
X50021666Y-106562295D02*
X49907381Y-106600390D01*
X49907381Y-106600390D02*
X49869285Y-106638485D01*
X49183571Y-106828961D02*
X49183571Y-107362295D01*
X49374047Y-106524200D02*
X49564524Y-107095628D01*
X49564524Y-107095628D02*
X49069285Y-107095628D01*
X48726428Y-107362295D02*
X48574047Y-107362295D01*
X48574047Y-107362295D02*
X48497857Y-107324200D01*
X48497857Y-107324200D02*
X48459761Y-107286104D01*
X48459761Y-107286104D02*
X48383571Y-107171819D01*
X48383571Y-107171819D02*
X48345476Y-107019438D01*
X48345476Y-107019438D02*
X48345476Y-106714676D01*
X48345476Y-106714676D02*
X48383571Y-106638485D01*
X48383571Y-106638485D02*
X48421666Y-106600390D01*
X48421666Y-106600390D02*
X48497857Y-106562295D01*
X48497857Y-106562295D02*
X48650238Y-106562295D01*
X48650238Y-106562295D02*
X48726428Y-106600390D01*
X48726428Y-106600390D02*
X48764523Y-106638485D01*
X48764523Y-106638485D02*
X48802619Y-106714676D01*
X48802619Y-106714676D02*
X48802619Y-106905152D01*
X48802619Y-106905152D02*
X48764523Y-106981342D01*
X48764523Y-106981342D02*
X48726428Y-107019438D01*
X48726428Y-107019438D02*
X48650238Y-107057533D01*
X48650238Y-107057533D02*
X48497857Y-107057533D01*
X48497857Y-107057533D02*
X48421666Y-107019438D01*
X48421666Y-107019438D02*
X48383571Y-106981342D01*
X48383571Y-106981342D02*
X48345476Y-106905152D01*
X52837296Y-92423214D02*
X52456343Y-92156547D01*
X52837296Y-91966071D02*
X52037296Y-91966071D01*
X52037296Y-91966071D02*
X52037296Y-92270833D01*
X52037296Y-92270833D02*
X52075391Y-92347023D01*
X52075391Y-92347023D02*
X52113486Y-92385118D01*
X52113486Y-92385118D02*
X52189677Y-92423214D01*
X52189677Y-92423214D02*
X52303962Y-92423214D01*
X52303962Y-92423214D02*
X52380153Y-92385118D01*
X52380153Y-92385118D02*
X52418248Y-92347023D01*
X52418248Y-92347023D02*
X52456343Y-92270833D01*
X52456343Y-92270833D02*
X52456343Y-91966071D01*
X52037296Y-92689880D02*
X52037296Y-93185118D01*
X52037296Y-93185118D02*
X52342058Y-92918452D01*
X52342058Y-92918452D02*
X52342058Y-93032737D01*
X52342058Y-93032737D02*
X52380153Y-93108928D01*
X52380153Y-93108928D02*
X52418248Y-93147023D01*
X52418248Y-93147023D02*
X52494439Y-93185118D01*
X52494439Y-93185118D02*
X52684915Y-93185118D01*
X52684915Y-93185118D02*
X52761105Y-93147023D01*
X52761105Y-93147023D02*
X52799201Y-93108928D01*
X52799201Y-93108928D02*
X52837296Y-93032737D01*
X52837296Y-93032737D02*
X52837296Y-92804166D01*
X52837296Y-92804166D02*
X52799201Y-92727975D01*
X52799201Y-92727975D02*
X52761105Y-92689880D01*
X52837296Y-93566071D02*
X52837296Y-93718452D01*
X52837296Y-93718452D02*
X52799201Y-93794642D01*
X52799201Y-93794642D02*
X52761105Y-93832738D01*
X52761105Y-93832738D02*
X52646820Y-93908928D01*
X52646820Y-93908928D02*
X52494439Y-93947023D01*
X52494439Y-93947023D02*
X52189677Y-93947023D01*
X52189677Y-93947023D02*
X52113486Y-93908928D01*
X52113486Y-93908928D02*
X52075391Y-93870833D01*
X52075391Y-93870833D02*
X52037296Y-93794642D01*
X52037296Y-93794642D02*
X52037296Y-93642261D01*
X52037296Y-93642261D02*
X52075391Y-93566071D01*
X52075391Y-93566071D02*
X52113486Y-93527976D01*
X52113486Y-93527976D02*
X52189677Y-93489880D01*
X52189677Y-93489880D02*
X52380153Y-93489880D01*
X52380153Y-93489880D02*
X52456343Y-93527976D01*
X52456343Y-93527976D02*
X52494439Y-93566071D01*
X52494439Y-93566071D02*
X52532534Y-93642261D01*
X52532534Y-93642261D02*
X52532534Y-93794642D01*
X52532534Y-93794642D02*
X52494439Y-93870833D01*
X52494439Y-93870833D02*
X52456343Y-93908928D01*
X52456343Y-93908928D02*
X52380153Y-93947023D01*
X58337295Y-96235714D02*
X57956342Y-95969047D01*
X58337295Y-95778571D02*
X57537295Y-95778571D01*
X57537295Y-95778571D02*
X57537295Y-96083333D01*
X57537295Y-96083333D02*
X57575390Y-96159523D01*
X57575390Y-96159523D02*
X57613485Y-96197618D01*
X57613485Y-96197618D02*
X57689676Y-96235714D01*
X57689676Y-96235714D02*
X57803961Y-96235714D01*
X57803961Y-96235714D02*
X57880152Y-96197618D01*
X57880152Y-96197618D02*
X57918247Y-96159523D01*
X57918247Y-96159523D02*
X57956342Y-96083333D01*
X57956342Y-96083333D02*
X57956342Y-95778571D01*
X58337295Y-96997618D02*
X58337295Y-96540475D01*
X58337295Y-96769047D02*
X57537295Y-96769047D01*
X57537295Y-96769047D02*
X57651580Y-96692856D01*
X57651580Y-96692856D02*
X57727771Y-96616666D01*
X57727771Y-96616666D02*
X57765866Y-96540475D01*
X57613485Y-97302380D02*
X57575390Y-97340476D01*
X57575390Y-97340476D02*
X57537295Y-97416666D01*
X57537295Y-97416666D02*
X57537295Y-97607142D01*
X57537295Y-97607142D02*
X57575390Y-97683333D01*
X57575390Y-97683333D02*
X57613485Y-97721428D01*
X57613485Y-97721428D02*
X57689676Y-97759523D01*
X57689676Y-97759523D02*
X57765866Y-97759523D01*
X57765866Y-97759523D02*
X57880152Y-97721428D01*
X57880152Y-97721428D02*
X58337295Y-97264285D01*
X58337295Y-97264285D02*
X58337295Y-97759523D01*
X68979819Y-94261905D02*
X69789342Y-94261905D01*
X69789342Y-94261905D02*
X69884580Y-94309524D01*
X69884580Y-94309524D02*
X69932200Y-94357143D01*
X69932200Y-94357143D02*
X69979819Y-94452381D01*
X69979819Y-94452381D02*
X69979819Y-94642857D01*
X69979819Y-94642857D02*
X69932200Y-94738095D01*
X69932200Y-94738095D02*
X69884580Y-94785714D01*
X69884580Y-94785714D02*
X69789342Y-94833333D01*
X69789342Y-94833333D02*
X68979819Y-94833333D01*
X69979819Y-95833333D02*
X69979819Y-95261905D01*
X69979819Y-95547619D02*
X68979819Y-95547619D01*
X68979819Y-95547619D02*
X69122676Y-95452381D01*
X69122676Y-95452381D02*
X69217914Y-95357143D01*
X69217914Y-95357143D02*
X69265533Y-95261905D01*
X68979819Y-96738095D02*
X68979819Y-96261905D01*
X68979819Y-96261905D02*
X69456009Y-96214286D01*
X69456009Y-96214286D02*
X69408390Y-96261905D01*
X69408390Y-96261905D02*
X69360771Y-96357143D01*
X69360771Y-96357143D02*
X69360771Y-96595238D01*
X69360771Y-96595238D02*
X69408390Y-96690476D01*
X69408390Y-96690476D02*
X69456009Y-96738095D01*
X69456009Y-96738095D02*
X69551247Y-96785714D01*
X69551247Y-96785714D02*
X69789342Y-96785714D01*
X69789342Y-96785714D02*
X69884580Y-96738095D01*
X69884580Y-96738095D02*
X69932200Y-96690476D01*
X69932200Y-96690476D02*
X69979819Y-96595238D01*
X69979819Y-96595238D02*
X69979819Y-96357143D01*
X69979819Y-96357143D02*
X69932200Y-96261905D01*
X69932200Y-96261905D02*
X69884580Y-96214286D01*
X56161104Y-98535714D02*
X56199200Y-98497618D01*
X56199200Y-98497618D02*
X56237295Y-98383333D01*
X56237295Y-98383333D02*
X56237295Y-98307142D01*
X56237295Y-98307142D02*
X56199200Y-98192856D01*
X56199200Y-98192856D02*
X56123009Y-98116666D01*
X56123009Y-98116666D02*
X56046819Y-98078571D01*
X56046819Y-98078571D02*
X55894438Y-98040475D01*
X55894438Y-98040475D02*
X55780152Y-98040475D01*
X55780152Y-98040475D02*
X55627771Y-98078571D01*
X55627771Y-98078571D02*
X55551580Y-98116666D01*
X55551580Y-98116666D02*
X55475390Y-98192856D01*
X55475390Y-98192856D02*
X55437295Y-98307142D01*
X55437295Y-98307142D02*
X55437295Y-98383333D01*
X55437295Y-98383333D02*
X55475390Y-98497618D01*
X55475390Y-98497618D02*
X55513485Y-98535714D01*
X55513485Y-98840475D02*
X55475390Y-98878571D01*
X55475390Y-98878571D02*
X55437295Y-98954761D01*
X55437295Y-98954761D02*
X55437295Y-99145237D01*
X55437295Y-99145237D02*
X55475390Y-99221428D01*
X55475390Y-99221428D02*
X55513485Y-99259523D01*
X55513485Y-99259523D02*
X55589676Y-99297618D01*
X55589676Y-99297618D02*
X55665866Y-99297618D01*
X55665866Y-99297618D02*
X55780152Y-99259523D01*
X55780152Y-99259523D02*
X56237295Y-98802380D01*
X56237295Y-98802380D02*
X56237295Y-99297618D01*
X55703961Y-99983333D02*
X56237295Y-99983333D01*
X55399200Y-99792857D02*
X55970628Y-99602380D01*
X55970628Y-99602380D02*
X55970628Y-100097619D01*
X67511904Y-125204819D02*
X66940476Y-125204819D01*
X67226190Y-126204819D02*
X67226190Y-125204819D01*
X66607142Y-126204819D02*
X66607142Y-125204819D01*
X66607142Y-125204819D02*
X66226190Y-125204819D01*
X66226190Y-125204819D02*
X66130952Y-125252438D01*
X66130952Y-125252438D02*
X66083333Y-125300057D01*
X66083333Y-125300057D02*
X66035714Y-125395295D01*
X66035714Y-125395295D02*
X66035714Y-125538152D01*
X66035714Y-125538152D02*
X66083333Y-125633390D01*
X66083333Y-125633390D02*
X66130952Y-125681009D01*
X66130952Y-125681009D02*
X66226190Y-125728628D01*
X66226190Y-125728628D02*
X66607142Y-125728628D01*
X65559523Y-126204819D02*
X65369047Y-126204819D01*
X65369047Y-126204819D02*
X65273809Y-126157200D01*
X65273809Y-126157200D02*
X65226190Y-126109580D01*
X65226190Y-126109580D02*
X65130952Y-125966723D01*
X65130952Y-125966723D02*
X65083333Y-125776247D01*
X65083333Y-125776247D02*
X65083333Y-125395295D01*
X65083333Y-125395295D02*
X65130952Y-125300057D01*
X65130952Y-125300057D02*
X65178571Y-125252438D01*
X65178571Y-125252438D02*
X65273809Y-125204819D01*
X65273809Y-125204819D02*
X65464285Y-125204819D01*
X65464285Y-125204819D02*
X65559523Y-125252438D01*
X65559523Y-125252438D02*
X65607142Y-125300057D01*
X65607142Y-125300057D02*
X65654761Y-125395295D01*
X65654761Y-125395295D02*
X65654761Y-125633390D01*
X65654761Y-125633390D02*
X65607142Y-125728628D01*
X65607142Y-125728628D02*
X65559523Y-125776247D01*
X65559523Y-125776247D02*
X65464285Y-125823866D01*
X65464285Y-125823866D02*
X65273809Y-125823866D01*
X65273809Y-125823866D02*
X65178571Y-125776247D01*
X65178571Y-125776247D02*
X65130952Y-125728628D01*
X65130952Y-125728628D02*
X65083333Y-125633390D01*
X61637295Y-96235714D02*
X61256342Y-95969047D01*
X61637295Y-95778571D02*
X60837295Y-95778571D01*
X60837295Y-95778571D02*
X60837295Y-96083333D01*
X60837295Y-96083333D02*
X60875390Y-96159523D01*
X60875390Y-96159523D02*
X60913485Y-96197618D01*
X60913485Y-96197618D02*
X60989676Y-96235714D01*
X60989676Y-96235714D02*
X61103961Y-96235714D01*
X61103961Y-96235714D02*
X61180152Y-96197618D01*
X61180152Y-96197618D02*
X61218247Y-96159523D01*
X61218247Y-96159523D02*
X61256342Y-96083333D01*
X61256342Y-96083333D02*
X61256342Y-95778571D01*
X61637295Y-96997618D02*
X61637295Y-96540475D01*
X61637295Y-96769047D02*
X60837295Y-96769047D01*
X60837295Y-96769047D02*
X60951580Y-96692856D01*
X60951580Y-96692856D02*
X61027771Y-96616666D01*
X61027771Y-96616666D02*
X61065866Y-96540475D01*
X60837295Y-97492857D02*
X60837295Y-97569047D01*
X60837295Y-97569047D02*
X60875390Y-97645238D01*
X60875390Y-97645238D02*
X60913485Y-97683333D01*
X60913485Y-97683333D02*
X60989676Y-97721428D01*
X60989676Y-97721428D02*
X61142057Y-97759523D01*
X61142057Y-97759523D02*
X61332533Y-97759523D01*
X61332533Y-97759523D02*
X61484914Y-97721428D01*
X61484914Y-97721428D02*
X61561104Y-97683333D01*
X61561104Y-97683333D02*
X61599200Y-97645238D01*
X61599200Y-97645238D02*
X61637295Y-97569047D01*
X61637295Y-97569047D02*
X61637295Y-97492857D01*
X61637295Y-97492857D02*
X61599200Y-97416666D01*
X61599200Y-97416666D02*
X61561104Y-97378571D01*
X61561104Y-97378571D02*
X61484914Y-97340476D01*
X61484914Y-97340476D02*
X61332533Y-97302380D01*
X61332533Y-97302380D02*
X61142057Y-97302380D01*
X61142057Y-97302380D02*
X60989676Y-97340476D01*
X60989676Y-97340476D02*
X60913485Y-97378571D01*
X60913485Y-97378571D02*
X60875390Y-97416666D01*
X60875390Y-97416666D02*
X60837295Y-97492857D01*
X54861104Y-90123214D02*
X54899200Y-90085118D01*
X54899200Y-90085118D02*
X54937295Y-89970833D01*
X54937295Y-89970833D02*
X54937295Y-89894642D01*
X54937295Y-89894642D02*
X54899200Y-89780356D01*
X54899200Y-89780356D02*
X54823009Y-89704166D01*
X54823009Y-89704166D02*
X54746819Y-89666071D01*
X54746819Y-89666071D02*
X54594438Y-89627975D01*
X54594438Y-89627975D02*
X54480152Y-89627975D01*
X54480152Y-89627975D02*
X54327771Y-89666071D01*
X54327771Y-89666071D02*
X54251580Y-89704166D01*
X54251580Y-89704166D02*
X54175390Y-89780356D01*
X54175390Y-89780356D02*
X54137295Y-89894642D01*
X54137295Y-89894642D02*
X54137295Y-89970833D01*
X54137295Y-89970833D02*
X54175390Y-90085118D01*
X54175390Y-90085118D02*
X54213485Y-90123214D01*
X54137295Y-90389880D02*
X54137295Y-90885118D01*
X54137295Y-90885118D02*
X54442057Y-90618452D01*
X54442057Y-90618452D02*
X54442057Y-90732737D01*
X54442057Y-90732737D02*
X54480152Y-90808928D01*
X54480152Y-90808928D02*
X54518247Y-90847023D01*
X54518247Y-90847023D02*
X54594438Y-90885118D01*
X54594438Y-90885118D02*
X54784914Y-90885118D01*
X54784914Y-90885118D02*
X54861104Y-90847023D01*
X54861104Y-90847023D02*
X54899200Y-90808928D01*
X54899200Y-90808928D02*
X54937295Y-90732737D01*
X54937295Y-90732737D02*
X54937295Y-90504166D01*
X54937295Y-90504166D02*
X54899200Y-90427975D01*
X54899200Y-90427975D02*
X54861104Y-90389880D01*
X54137295Y-91380357D02*
X54137295Y-91456547D01*
X54137295Y-91456547D02*
X54175390Y-91532738D01*
X54175390Y-91532738D02*
X54213485Y-91570833D01*
X54213485Y-91570833D02*
X54289676Y-91608928D01*
X54289676Y-91608928D02*
X54442057Y-91647023D01*
X54442057Y-91647023D02*
X54632533Y-91647023D01*
X54632533Y-91647023D02*
X54784914Y-91608928D01*
X54784914Y-91608928D02*
X54861104Y-91570833D01*
X54861104Y-91570833D02*
X54899200Y-91532738D01*
X54899200Y-91532738D02*
X54937295Y-91456547D01*
X54937295Y-91456547D02*
X54937295Y-91380357D01*
X54937295Y-91380357D02*
X54899200Y-91304166D01*
X54899200Y-91304166D02*
X54861104Y-91266071D01*
X54861104Y-91266071D02*
X54784914Y-91227976D01*
X54784914Y-91227976D02*
X54632533Y-91189880D01*
X54632533Y-91189880D02*
X54442057Y-91189880D01*
X54442057Y-91189880D02*
X54289676Y-91227976D01*
X54289676Y-91227976D02*
X54213485Y-91266071D01*
X54213485Y-91266071D02*
X54175390Y-91304166D01*
X54175390Y-91304166D02*
X54137295Y-91380357D01*
X39906428Y-119962295D02*
X39906428Y-119162295D01*
X39906428Y-119162295D02*
X39715952Y-119162295D01*
X39715952Y-119162295D02*
X39601666Y-119200390D01*
X39601666Y-119200390D02*
X39525476Y-119276580D01*
X39525476Y-119276580D02*
X39487381Y-119352771D01*
X39487381Y-119352771D02*
X39449285Y-119505152D01*
X39449285Y-119505152D02*
X39449285Y-119619438D01*
X39449285Y-119619438D02*
X39487381Y-119771819D01*
X39487381Y-119771819D02*
X39525476Y-119848009D01*
X39525476Y-119848009D02*
X39601666Y-119924200D01*
X39601666Y-119924200D02*
X39715952Y-119962295D01*
X39715952Y-119962295D02*
X39906428Y-119962295D01*
X38687381Y-119962295D02*
X39144524Y-119962295D01*
X38915952Y-119962295D02*
X38915952Y-119162295D01*
X38915952Y-119162295D02*
X38992143Y-119276580D01*
X38992143Y-119276580D02*
X39068333Y-119352771D01*
X39068333Y-119352771D02*
X39144524Y-119390866D01*
X38230238Y-119505152D02*
X38306428Y-119467057D01*
X38306428Y-119467057D02*
X38344523Y-119428961D01*
X38344523Y-119428961D02*
X38382619Y-119352771D01*
X38382619Y-119352771D02*
X38382619Y-119314676D01*
X38382619Y-119314676D02*
X38344523Y-119238485D01*
X38344523Y-119238485D02*
X38306428Y-119200390D01*
X38306428Y-119200390D02*
X38230238Y-119162295D01*
X38230238Y-119162295D02*
X38077857Y-119162295D01*
X38077857Y-119162295D02*
X38001666Y-119200390D01*
X38001666Y-119200390D02*
X37963571Y-119238485D01*
X37963571Y-119238485D02*
X37925476Y-119314676D01*
X37925476Y-119314676D02*
X37925476Y-119352771D01*
X37925476Y-119352771D02*
X37963571Y-119428961D01*
X37963571Y-119428961D02*
X38001666Y-119467057D01*
X38001666Y-119467057D02*
X38077857Y-119505152D01*
X38077857Y-119505152D02*
X38230238Y-119505152D01*
X38230238Y-119505152D02*
X38306428Y-119543247D01*
X38306428Y-119543247D02*
X38344523Y-119581342D01*
X38344523Y-119581342D02*
X38382619Y-119657533D01*
X38382619Y-119657533D02*
X38382619Y-119809914D01*
X38382619Y-119809914D02*
X38344523Y-119886104D01*
X38344523Y-119886104D02*
X38306428Y-119924200D01*
X38306428Y-119924200D02*
X38230238Y-119962295D01*
X38230238Y-119962295D02*
X38077857Y-119962295D01*
X38077857Y-119962295D02*
X38001666Y-119924200D01*
X38001666Y-119924200D02*
X37963571Y-119886104D01*
X37963571Y-119886104D02*
X37925476Y-119809914D01*
X37925476Y-119809914D02*
X37925476Y-119657533D01*
X37925476Y-119657533D02*
X37963571Y-119581342D01*
X37963571Y-119581342D02*
X38001666Y-119543247D01*
X38001666Y-119543247D02*
X38077857Y-119505152D01*
X58512295Y-85966667D02*
X58131342Y-85700000D01*
X58512295Y-85509524D02*
X57712295Y-85509524D01*
X57712295Y-85509524D02*
X57712295Y-85814286D01*
X57712295Y-85814286D02*
X57750390Y-85890476D01*
X57750390Y-85890476D02*
X57788485Y-85928571D01*
X57788485Y-85928571D02*
X57864676Y-85966667D01*
X57864676Y-85966667D02*
X57978961Y-85966667D01*
X57978961Y-85966667D02*
X58055152Y-85928571D01*
X58055152Y-85928571D02*
X58093247Y-85890476D01*
X58093247Y-85890476D02*
X58131342Y-85814286D01*
X58131342Y-85814286D02*
X58131342Y-85509524D01*
X58512295Y-86347619D02*
X58512295Y-86500000D01*
X58512295Y-86500000D02*
X58474200Y-86576190D01*
X58474200Y-86576190D02*
X58436104Y-86614286D01*
X58436104Y-86614286D02*
X58321819Y-86690476D01*
X58321819Y-86690476D02*
X58169438Y-86728571D01*
X58169438Y-86728571D02*
X57864676Y-86728571D01*
X57864676Y-86728571D02*
X57788485Y-86690476D01*
X57788485Y-86690476D02*
X57750390Y-86652381D01*
X57750390Y-86652381D02*
X57712295Y-86576190D01*
X57712295Y-86576190D02*
X57712295Y-86423809D01*
X57712295Y-86423809D02*
X57750390Y-86347619D01*
X57750390Y-86347619D02*
X57788485Y-86309524D01*
X57788485Y-86309524D02*
X57864676Y-86271428D01*
X57864676Y-86271428D02*
X58055152Y-86271428D01*
X58055152Y-86271428D02*
X58131342Y-86309524D01*
X58131342Y-86309524D02*
X58169438Y-86347619D01*
X58169438Y-86347619D02*
X58207533Y-86423809D01*
X58207533Y-86423809D02*
X58207533Y-86576190D01*
X58207533Y-86576190D02*
X58169438Y-86652381D01*
X58169438Y-86652381D02*
X58131342Y-86690476D01*
X58131342Y-86690476D02*
X58055152Y-86728571D01*
X61218428Y-74703295D02*
X61218428Y-73903295D01*
X61218428Y-73903295D02*
X61027952Y-73903295D01*
X61027952Y-73903295D02*
X60913666Y-73941390D01*
X60913666Y-73941390D02*
X60837476Y-74017580D01*
X60837476Y-74017580D02*
X60799381Y-74093771D01*
X60799381Y-74093771D02*
X60761285Y-74246152D01*
X60761285Y-74246152D02*
X60761285Y-74360438D01*
X60761285Y-74360438D02*
X60799381Y-74512819D01*
X60799381Y-74512819D02*
X60837476Y-74589009D01*
X60837476Y-74589009D02*
X60913666Y-74665200D01*
X60913666Y-74665200D02*
X61027952Y-74703295D01*
X61027952Y-74703295D02*
X61218428Y-74703295D01*
X59999381Y-74703295D02*
X60456524Y-74703295D01*
X60227952Y-74703295D02*
X60227952Y-73903295D01*
X60227952Y-73903295D02*
X60304143Y-74017580D01*
X60304143Y-74017580D02*
X60380333Y-74093771D01*
X60380333Y-74093771D02*
X60456524Y-74131866D01*
X59694619Y-73979485D02*
X59656523Y-73941390D01*
X59656523Y-73941390D02*
X59580333Y-73903295D01*
X59580333Y-73903295D02*
X59389857Y-73903295D01*
X59389857Y-73903295D02*
X59313666Y-73941390D01*
X59313666Y-73941390D02*
X59275571Y-73979485D01*
X59275571Y-73979485D02*
X59237476Y-74055676D01*
X59237476Y-74055676D02*
X59237476Y-74131866D01*
X59237476Y-74131866D02*
X59275571Y-74246152D01*
X59275571Y-74246152D02*
X59732714Y-74703295D01*
X59732714Y-74703295D02*
X59237476Y-74703295D01*
X56264285Y-111437295D02*
X56530952Y-111056342D01*
X56721428Y-111437295D02*
X56721428Y-110637295D01*
X56721428Y-110637295D02*
X56416666Y-110637295D01*
X56416666Y-110637295D02*
X56340476Y-110675390D01*
X56340476Y-110675390D02*
X56302381Y-110713485D01*
X56302381Y-110713485D02*
X56264285Y-110789676D01*
X56264285Y-110789676D02*
X56264285Y-110903961D01*
X56264285Y-110903961D02*
X56302381Y-110980152D01*
X56302381Y-110980152D02*
X56340476Y-111018247D01*
X56340476Y-111018247D02*
X56416666Y-111056342D01*
X56416666Y-111056342D02*
X56721428Y-111056342D01*
X55578571Y-110637295D02*
X55730952Y-110637295D01*
X55730952Y-110637295D02*
X55807143Y-110675390D01*
X55807143Y-110675390D02*
X55845238Y-110713485D01*
X55845238Y-110713485D02*
X55921428Y-110827771D01*
X55921428Y-110827771D02*
X55959524Y-110980152D01*
X55959524Y-110980152D02*
X55959524Y-111284914D01*
X55959524Y-111284914D02*
X55921428Y-111361104D01*
X55921428Y-111361104D02*
X55883333Y-111399200D01*
X55883333Y-111399200D02*
X55807143Y-111437295D01*
X55807143Y-111437295D02*
X55654762Y-111437295D01*
X55654762Y-111437295D02*
X55578571Y-111399200D01*
X55578571Y-111399200D02*
X55540476Y-111361104D01*
X55540476Y-111361104D02*
X55502381Y-111284914D01*
X55502381Y-111284914D02*
X55502381Y-111094438D01*
X55502381Y-111094438D02*
X55540476Y-111018247D01*
X55540476Y-111018247D02*
X55578571Y-110980152D01*
X55578571Y-110980152D02*
X55654762Y-110942057D01*
X55654762Y-110942057D02*
X55807143Y-110942057D01*
X55807143Y-110942057D02*
X55883333Y-110980152D01*
X55883333Y-110980152D02*
X55921428Y-111018247D01*
X55921428Y-111018247D02*
X55959524Y-111094438D01*
X54740476Y-111437295D02*
X55197619Y-111437295D01*
X54969047Y-111437295D02*
X54969047Y-110637295D01*
X54969047Y-110637295D02*
X55045238Y-110751580D01*
X55045238Y-110751580D02*
X55121428Y-110827771D01*
X55121428Y-110827771D02*
X55197619Y-110865866D01*
X75524795Y-125998095D02*
X76096223Y-125998095D01*
X76096223Y-125998095D02*
X76210509Y-125960000D01*
X76210509Y-125960000D02*
X76286700Y-125883809D01*
X76286700Y-125883809D02*
X76324795Y-125769524D01*
X76324795Y-125769524D02*
X76324795Y-125693333D01*
X76324795Y-126379048D02*
X75524795Y-126379048D01*
X75524795Y-126379048D02*
X75524795Y-126683810D01*
X75524795Y-126683810D02*
X75562890Y-126760000D01*
X75562890Y-126760000D02*
X75600985Y-126798095D01*
X75600985Y-126798095D02*
X75677176Y-126836191D01*
X75677176Y-126836191D02*
X75791461Y-126836191D01*
X75791461Y-126836191D02*
X75867652Y-126798095D01*
X75867652Y-126798095D02*
X75905747Y-126760000D01*
X75905747Y-126760000D02*
X75943842Y-126683810D01*
X75943842Y-126683810D02*
X75943842Y-126379048D01*
X75600985Y-127140952D02*
X75562890Y-127179048D01*
X75562890Y-127179048D02*
X75524795Y-127255238D01*
X75524795Y-127255238D02*
X75524795Y-127445714D01*
X75524795Y-127445714D02*
X75562890Y-127521905D01*
X75562890Y-127521905D02*
X75600985Y-127560000D01*
X75600985Y-127560000D02*
X75677176Y-127598095D01*
X75677176Y-127598095D02*
X75753366Y-127598095D01*
X75753366Y-127598095D02*
X75867652Y-127560000D01*
X75867652Y-127560000D02*
X76324795Y-127102857D01*
X76324795Y-127102857D02*
X76324795Y-127598095D01*
X78217319Y-124350476D02*
X78217319Y-123779048D01*
X78217319Y-124064762D02*
X77217319Y-124064762D01*
X77217319Y-124064762D02*
X77360176Y-123969524D01*
X77360176Y-123969524D02*
X77455414Y-123874286D01*
X77455414Y-123874286D02*
X77503033Y-123779048D01*
X77217319Y-128931429D02*
X77217319Y-129550476D01*
X77217319Y-129550476D02*
X77598271Y-129217143D01*
X77598271Y-129217143D02*
X77598271Y-129360000D01*
X77598271Y-129360000D02*
X77645890Y-129455238D01*
X77645890Y-129455238D02*
X77693509Y-129502857D01*
X77693509Y-129502857D02*
X77788747Y-129550476D01*
X77788747Y-129550476D02*
X78026842Y-129550476D01*
X78026842Y-129550476D02*
X78122080Y-129502857D01*
X78122080Y-129502857D02*
X78169700Y-129455238D01*
X78169700Y-129455238D02*
X78217319Y-129360000D01*
X78217319Y-129360000D02*
X78217319Y-129074286D01*
X78217319Y-129074286D02*
X78169700Y-128979048D01*
X78169700Y-128979048D02*
X78122080Y-128931429D01*
X74014285Y-88826104D02*
X74052381Y-88864200D01*
X74052381Y-88864200D02*
X74166666Y-88902295D01*
X74166666Y-88902295D02*
X74242857Y-88902295D01*
X74242857Y-88902295D02*
X74357143Y-88864200D01*
X74357143Y-88864200D02*
X74433333Y-88788009D01*
X74433333Y-88788009D02*
X74471428Y-88711819D01*
X74471428Y-88711819D02*
X74509524Y-88559438D01*
X74509524Y-88559438D02*
X74509524Y-88445152D01*
X74509524Y-88445152D02*
X74471428Y-88292771D01*
X74471428Y-88292771D02*
X74433333Y-88216580D01*
X74433333Y-88216580D02*
X74357143Y-88140390D01*
X74357143Y-88140390D02*
X74242857Y-88102295D01*
X74242857Y-88102295D02*
X74166666Y-88102295D01*
X74166666Y-88102295D02*
X74052381Y-88140390D01*
X74052381Y-88140390D02*
X74014285Y-88178485D01*
X73328571Y-88368961D02*
X73328571Y-88902295D01*
X73519047Y-88064200D02*
X73709524Y-88635628D01*
X73709524Y-88635628D02*
X73214285Y-88635628D01*
X72985714Y-88102295D02*
X72490476Y-88102295D01*
X72490476Y-88102295D02*
X72757142Y-88407057D01*
X72757142Y-88407057D02*
X72642857Y-88407057D01*
X72642857Y-88407057D02*
X72566666Y-88445152D01*
X72566666Y-88445152D02*
X72528571Y-88483247D01*
X72528571Y-88483247D02*
X72490476Y-88559438D01*
X72490476Y-88559438D02*
X72490476Y-88749914D01*
X72490476Y-88749914D02*
X72528571Y-88826104D01*
X72528571Y-88826104D02*
X72566666Y-88864200D01*
X72566666Y-88864200D02*
X72642857Y-88902295D01*
X72642857Y-88902295D02*
X72871428Y-88902295D01*
X72871428Y-88902295D02*
X72947619Y-88864200D01*
X72947619Y-88864200D02*
X72985714Y-88826104D01*
X56264285Y-112862295D02*
X56530952Y-112481342D01*
X56721428Y-112862295D02*
X56721428Y-112062295D01*
X56721428Y-112062295D02*
X56416666Y-112062295D01*
X56416666Y-112062295D02*
X56340476Y-112100390D01*
X56340476Y-112100390D02*
X56302381Y-112138485D01*
X56302381Y-112138485D02*
X56264285Y-112214676D01*
X56264285Y-112214676D02*
X56264285Y-112328961D01*
X56264285Y-112328961D02*
X56302381Y-112405152D01*
X56302381Y-112405152D02*
X56340476Y-112443247D01*
X56340476Y-112443247D02*
X56416666Y-112481342D01*
X56416666Y-112481342D02*
X56721428Y-112481342D01*
X55578571Y-112062295D02*
X55730952Y-112062295D01*
X55730952Y-112062295D02*
X55807143Y-112100390D01*
X55807143Y-112100390D02*
X55845238Y-112138485D01*
X55845238Y-112138485D02*
X55921428Y-112252771D01*
X55921428Y-112252771D02*
X55959524Y-112405152D01*
X55959524Y-112405152D02*
X55959524Y-112709914D01*
X55959524Y-112709914D02*
X55921428Y-112786104D01*
X55921428Y-112786104D02*
X55883333Y-112824200D01*
X55883333Y-112824200D02*
X55807143Y-112862295D01*
X55807143Y-112862295D02*
X55654762Y-112862295D01*
X55654762Y-112862295D02*
X55578571Y-112824200D01*
X55578571Y-112824200D02*
X55540476Y-112786104D01*
X55540476Y-112786104D02*
X55502381Y-112709914D01*
X55502381Y-112709914D02*
X55502381Y-112519438D01*
X55502381Y-112519438D02*
X55540476Y-112443247D01*
X55540476Y-112443247D02*
X55578571Y-112405152D01*
X55578571Y-112405152D02*
X55654762Y-112367057D01*
X55654762Y-112367057D02*
X55807143Y-112367057D01*
X55807143Y-112367057D02*
X55883333Y-112405152D01*
X55883333Y-112405152D02*
X55921428Y-112443247D01*
X55921428Y-112443247D02*
X55959524Y-112519438D01*
X54778571Y-112062295D02*
X55159523Y-112062295D01*
X55159523Y-112062295D02*
X55197619Y-112443247D01*
X55197619Y-112443247D02*
X55159523Y-112405152D01*
X55159523Y-112405152D02*
X55083333Y-112367057D01*
X55083333Y-112367057D02*
X54892857Y-112367057D01*
X54892857Y-112367057D02*
X54816666Y-112405152D01*
X54816666Y-112405152D02*
X54778571Y-112443247D01*
X54778571Y-112443247D02*
X54740476Y-112519438D01*
X54740476Y-112519438D02*
X54740476Y-112709914D01*
X54740476Y-112709914D02*
X54778571Y-112786104D01*
X54778571Y-112786104D02*
X54816666Y-112824200D01*
X54816666Y-112824200D02*
X54892857Y-112862295D01*
X54892857Y-112862295D02*
X55083333Y-112862295D01*
X55083333Y-112862295D02*
X55159523Y-112824200D01*
X55159523Y-112824200D02*
X55197619Y-112786104D01*
X57261104Y-98535714D02*
X57299200Y-98497618D01*
X57299200Y-98497618D02*
X57337295Y-98383333D01*
X57337295Y-98383333D02*
X57337295Y-98307142D01*
X57337295Y-98307142D02*
X57299200Y-98192856D01*
X57299200Y-98192856D02*
X57223009Y-98116666D01*
X57223009Y-98116666D02*
X57146819Y-98078571D01*
X57146819Y-98078571D02*
X56994438Y-98040475D01*
X56994438Y-98040475D02*
X56880152Y-98040475D01*
X56880152Y-98040475D02*
X56727771Y-98078571D01*
X56727771Y-98078571D02*
X56651580Y-98116666D01*
X56651580Y-98116666D02*
X56575390Y-98192856D01*
X56575390Y-98192856D02*
X56537295Y-98307142D01*
X56537295Y-98307142D02*
X56537295Y-98383333D01*
X56537295Y-98383333D02*
X56575390Y-98497618D01*
X56575390Y-98497618D02*
X56613485Y-98535714D01*
X56613485Y-98840475D02*
X56575390Y-98878571D01*
X56575390Y-98878571D02*
X56537295Y-98954761D01*
X56537295Y-98954761D02*
X56537295Y-99145237D01*
X56537295Y-99145237D02*
X56575390Y-99221428D01*
X56575390Y-99221428D02*
X56613485Y-99259523D01*
X56613485Y-99259523D02*
X56689676Y-99297618D01*
X56689676Y-99297618D02*
X56765866Y-99297618D01*
X56765866Y-99297618D02*
X56880152Y-99259523D01*
X56880152Y-99259523D02*
X57337295Y-98802380D01*
X57337295Y-98802380D02*
X57337295Y-99297618D01*
X56537295Y-100021428D02*
X56537295Y-99640476D01*
X56537295Y-99640476D02*
X56918247Y-99602380D01*
X56918247Y-99602380D02*
X56880152Y-99640476D01*
X56880152Y-99640476D02*
X56842057Y-99716666D01*
X56842057Y-99716666D02*
X56842057Y-99907142D01*
X56842057Y-99907142D02*
X56880152Y-99983333D01*
X56880152Y-99983333D02*
X56918247Y-100021428D01*
X56918247Y-100021428D02*
X56994438Y-100059523D01*
X56994438Y-100059523D02*
X57184914Y-100059523D01*
X57184914Y-100059523D02*
X57261104Y-100021428D01*
X57261104Y-100021428D02*
X57299200Y-99983333D01*
X57299200Y-99983333D02*
X57337295Y-99907142D01*
X57337295Y-99907142D02*
X57337295Y-99716666D01*
X57337295Y-99716666D02*
X57299200Y-99640476D01*
X57299200Y-99640476D02*
X57261104Y-99602380D01*
X63342857Y-87854819D02*
X63676190Y-87378628D01*
X63914285Y-87854819D02*
X63914285Y-86854819D01*
X63914285Y-86854819D02*
X63533333Y-86854819D01*
X63533333Y-86854819D02*
X63438095Y-86902438D01*
X63438095Y-86902438D02*
X63390476Y-86950057D01*
X63390476Y-86950057D02*
X63342857Y-87045295D01*
X63342857Y-87045295D02*
X63342857Y-87188152D01*
X63342857Y-87188152D02*
X63390476Y-87283390D01*
X63390476Y-87283390D02*
X63438095Y-87331009D01*
X63438095Y-87331009D02*
X63533333Y-87378628D01*
X63533333Y-87378628D02*
X63914285Y-87378628D01*
X62390476Y-87854819D02*
X62961904Y-87854819D01*
X62676190Y-87854819D02*
X62676190Y-86854819D01*
X62676190Y-86854819D02*
X62771428Y-86997676D01*
X62771428Y-86997676D02*
X62866666Y-87092914D01*
X62866666Y-87092914D02*
X62961904Y-87140533D01*
X61819047Y-87283390D02*
X61914285Y-87235771D01*
X61914285Y-87235771D02*
X61961904Y-87188152D01*
X61961904Y-87188152D02*
X62009523Y-87092914D01*
X62009523Y-87092914D02*
X62009523Y-87045295D01*
X62009523Y-87045295D02*
X61961904Y-86950057D01*
X61961904Y-86950057D02*
X61914285Y-86902438D01*
X61914285Y-86902438D02*
X61819047Y-86854819D01*
X61819047Y-86854819D02*
X61628571Y-86854819D01*
X61628571Y-86854819D02*
X61533333Y-86902438D01*
X61533333Y-86902438D02*
X61485714Y-86950057D01*
X61485714Y-86950057D02*
X61438095Y-87045295D01*
X61438095Y-87045295D02*
X61438095Y-87092914D01*
X61438095Y-87092914D02*
X61485714Y-87188152D01*
X61485714Y-87188152D02*
X61533333Y-87235771D01*
X61533333Y-87235771D02*
X61628571Y-87283390D01*
X61628571Y-87283390D02*
X61819047Y-87283390D01*
X61819047Y-87283390D02*
X61914285Y-87331009D01*
X61914285Y-87331009D02*
X61961904Y-87378628D01*
X61961904Y-87378628D02*
X62009523Y-87473866D01*
X62009523Y-87473866D02*
X62009523Y-87664342D01*
X62009523Y-87664342D02*
X61961904Y-87759580D01*
X61961904Y-87759580D02*
X61914285Y-87807200D01*
X61914285Y-87807200D02*
X61819047Y-87854819D01*
X61819047Y-87854819D02*
X61628571Y-87854819D01*
X61628571Y-87854819D02*
X61533333Y-87807200D01*
X61533333Y-87807200D02*
X61485714Y-87759580D01*
X61485714Y-87759580D02*
X61438095Y-87664342D01*
X61438095Y-87664342D02*
X61438095Y-87473866D01*
X61438095Y-87473866D02*
X61485714Y-87378628D01*
X61485714Y-87378628D02*
X61533333Y-87331009D01*
X61533333Y-87331009D02*
X61628571Y-87283390D01*
X49137295Y-86634524D02*
X48337295Y-86634524D01*
X48337295Y-86634524D02*
X48337295Y-86825000D01*
X48337295Y-86825000D02*
X48375390Y-86939286D01*
X48375390Y-86939286D02*
X48451580Y-87015476D01*
X48451580Y-87015476D02*
X48527771Y-87053571D01*
X48527771Y-87053571D02*
X48680152Y-87091667D01*
X48680152Y-87091667D02*
X48794438Y-87091667D01*
X48794438Y-87091667D02*
X48946819Y-87053571D01*
X48946819Y-87053571D02*
X49023009Y-87015476D01*
X49023009Y-87015476D02*
X49099200Y-86939286D01*
X49099200Y-86939286D02*
X49137295Y-86825000D01*
X49137295Y-86825000D02*
X49137295Y-86634524D01*
X49137295Y-87472619D02*
X49137295Y-87625000D01*
X49137295Y-87625000D02*
X49099200Y-87701190D01*
X49099200Y-87701190D02*
X49061104Y-87739286D01*
X49061104Y-87739286D02*
X48946819Y-87815476D01*
X48946819Y-87815476D02*
X48794438Y-87853571D01*
X48794438Y-87853571D02*
X48489676Y-87853571D01*
X48489676Y-87853571D02*
X48413485Y-87815476D01*
X48413485Y-87815476D02*
X48375390Y-87777381D01*
X48375390Y-87777381D02*
X48337295Y-87701190D01*
X48337295Y-87701190D02*
X48337295Y-87548809D01*
X48337295Y-87548809D02*
X48375390Y-87472619D01*
X48375390Y-87472619D02*
X48413485Y-87434524D01*
X48413485Y-87434524D02*
X48489676Y-87396428D01*
X48489676Y-87396428D02*
X48680152Y-87396428D01*
X48680152Y-87396428D02*
X48756342Y-87434524D01*
X48756342Y-87434524D02*
X48794438Y-87472619D01*
X48794438Y-87472619D02*
X48832533Y-87548809D01*
X48832533Y-87548809D02*
X48832533Y-87701190D01*
X48832533Y-87701190D02*
X48794438Y-87777381D01*
X48794438Y-87777381D02*
X48756342Y-87815476D01*
X48756342Y-87815476D02*
X48680152Y-87853571D01*
X64714285Y-104917295D02*
X64980952Y-104536342D01*
X65171428Y-104917295D02*
X65171428Y-104117295D01*
X65171428Y-104117295D02*
X64866666Y-104117295D01*
X64866666Y-104117295D02*
X64790476Y-104155390D01*
X64790476Y-104155390D02*
X64752381Y-104193485D01*
X64752381Y-104193485D02*
X64714285Y-104269676D01*
X64714285Y-104269676D02*
X64714285Y-104383961D01*
X64714285Y-104383961D02*
X64752381Y-104460152D01*
X64752381Y-104460152D02*
X64790476Y-104498247D01*
X64790476Y-104498247D02*
X64866666Y-104536342D01*
X64866666Y-104536342D02*
X65171428Y-104536342D01*
X64028571Y-104383961D02*
X64028571Y-104917295D01*
X64219047Y-104079200D02*
X64409524Y-104650628D01*
X64409524Y-104650628D02*
X63914285Y-104650628D01*
X63685714Y-104117295D02*
X63190476Y-104117295D01*
X63190476Y-104117295D02*
X63457142Y-104422057D01*
X63457142Y-104422057D02*
X63342857Y-104422057D01*
X63342857Y-104422057D02*
X63266666Y-104460152D01*
X63266666Y-104460152D02*
X63228571Y-104498247D01*
X63228571Y-104498247D02*
X63190476Y-104574438D01*
X63190476Y-104574438D02*
X63190476Y-104764914D01*
X63190476Y-104764914D02*
X63228571Y-104841104D01*
X63228571Y-104841104D02*
X63266666Y-104879200D01*
X63266666Y-104879200D02*
X63342857Y-104917295D01*
X63342857Y-104917295D02*
X63571428Y-104917295D01*
X63571428Y-104917295D02*
X63647619Y-104879200D01*
X63647619Y-104879200D02*
X63685714Y-104841104D01*
X78149580Y-69387142D02*
X78197200Y-69339523D01*
X78197200Y-69339523D02*
X78244819Y-69196666D01*
X78244819Y-69196666D02*
X78244819Y-69101428D01*
X78244819Y-69101428D02*
X78197200Y-68958571D01*
X78197200Y-68958571D02*
X78101961Y-68863333D01*
X78101961Y-68863333D02*
X78006723Y-68815714D01*
X78006723Y-68815714D02*
X77816247Y-68768095D01*
X77816247Y-68768095D02*
X77673390Y-68768095D01*
X77673390Y-68768095D02*
X77482914Y-68815714D01*
X77482914Y-68815714D02*
X77387676Y-68863333D01*
X77387676Y-68863333D02*
X77292438Y-68958571D01*
X77292438Y-68958571D02*
X77244819Y-69101428D01*
X77244819Y-69101428D02*
X77244819Y-69196666D01*
X77244819Y-69196666D02*
X77292438Y-69339523D01*
X77292438Y-69339523D02*
X77340057Y-69387142D01*
X77340057Y-69768095D02*
X77292438Y-69815714D01*
X77292438Y-69815714D02*
X77244819Y-69910952D01*
X77244819Y-69910952D02*
X77244819Y-70149047D01*
X77244819Y-70149047D02*
X77292438Y-70244285D01*
X77292438Y-70244285D02*
X77340057Y-70291904D01*
X77340057Y-70291904D02*
X77435295Y-70339523D01*
X77435295Y-70339523D02*
X77530533Y-70339523D01*
X77530533Y-70339523D02*
X77673390Y-70291904D01*
X77673390Y-70291904D02*
X78244819Y-69720476D01*
X78244819Y-69720476D02*
X78244819Y-70339523D01*
X77673390Y-70910952D02*
X77625771Y-70815714D01*
X77625771Y-70815714D02*
X77578152Y-70768095D01*
X77578152Y-70768095D02*
X77482914Y-70720476D01*
X77482914Y-70720476D02*
X77435295Y-70720476D01*
X77435295Y-70720476D02*
X77340057Y-70768095D01*
X77340057Y-70768095D02*
X77292438Y-70815714D01*
X77292438Y-70815714D02*
X77244819Y-70910952D01*
X77244819Y-70910952D02*
X77244819Y-71101428D01*
X77244819Y-71101428D02*
X77292438Y-71196666D01*
X77292438Y-71196666D02*
X77340057Y-71244285D01*
X77340057Y-71244285D02*
X77435295Y-71291904D01*
X77435295Y-71291904D02*
X77482914Y-71291904D01*
X77482914Y-71291904D02*
X77578152Y-71244285D01*
X77578152Y-71244285D02*
X77625771Y-71196666D01*
X77625771Y-71196666D02*
X77673390Y-71101428D01*
X77673390Y-71101428D02*
X77673390Y-70910952D01*
X77673390Y-70910952D02*
X77721009Y-70815714D01*
X77721009Y-70815714D02*
X77768628Y-70768095D01*
X77768628Y-70768095D02*
X77863866Y-70720476D01*
X77863866Y-70720476D02*
X78054342Y-70720476D01*
X78054342Y-70720476D02*
X78149580Y-70768095D01*
X78149580Y-70768095D02*
X78197200Y-70815714D01*
X78197200Y-70815714D02*
X78244819Y-70910952D01*
X78244819Y-70910952D02*
X78244819Y-71101428D01*
X78244819Y-71101428D02*
X78197200Y-71196666D01*
X78197200Y-71196666D02*
X78149580Y-71244285D01*
X78149580Y-71244285D02*
X78054342Y-71291904D01*
X78054342Y-71291904D02*
X77863866Y-71291904D01*
X77863866Y-71291904D02*
X77768628Y-71244285D01*
X77768628Y-71244285D02*
X77721009Y-71196666D01*
X77721009Y-71196666D02*
X77673390Y-71101428D01*
X61937295Y-101678571D02*
X61137295Y-101678571D01*
X61137295Y-101678571D02*
X61137295Y-101869047D01*
X61137295Y-101869047D02*
X61175390Y-101983333D01*
X61175390Y-101983333D02*
X61251580Y-102059523D01*
X61251580Y-102059523D02*
X61327771Y-102097618D01*
X61327771Y-102097618D02*
X61480152Y-102135714D01*
X61480152Y-102135714D02*
X61594438Y-102135714D01*
X61594438Y-102135714D02*
X61746819Y-102097618D01*
X61746819Y-102097618D02*
X61823009Y-102059523D01*
X61823009Y-102059523D02*
X61899200Y-101983333D01*
X61899200Y-101983333D02*
X61937295Y-101869047D01*
X61937295Y-101869047D02*
X61937295Y-101678571D01*
X61937295Y-102897618D02*
X61937295Y-102440475D01*
X61937295Y-102669047D02*
X61137295Y-102669047D01*
X61137295Y-102669047D02*
X61251580Y-102592856D01*
X61251580Y-102592856D02*
X61327771Y-102516666D01*
X61327771Y-102516666D02*
X61365866Y-102440475D01*
X61137295Y-103621428D02*
X61137295Y-103240476D01*
X61137295Y-103240476D02*
X61518247Y-103202380D01*
X61518247Y-103202380D02*
X61480152Y-103240476D01*
X61480152Y-103240476D02*
X61442057Y-103316666D01*
X61442057Y-103316666D02*
X61442057Y-103507142D01*
X61442057Y-103507142D02*
X61480152Y-103583333D01*
X61480152Y-103583333D02*
X61518247Y-103621428D01*
X61518247Y-103621428D02*
X61594438Y-103659523D01*
X61594438Y-103659523D02*
X61784914Y-103659523D01*
X61784914Y-103659523D02*
X61861104Y-103621428D01*
X61861104Y-103621428D02*
X61899200Y-103583333D01*
X61899200Y-103583333D02*
X61937295Y-103507142D01*
X61937295Y-103507142D02*
X61937295Y-103316666D01*
X61937295Y-103316666D02*
X61899200Y-103240476D01*
X61899200Y-103240476D02*
X61861104Y-103202380D01*
X76312295Y-90759524D02*
X76959914Y-90759524D01*
X76959914Y-90759524D02*
X77036104Y-90797619D01*
X77036104Y-90797619D02*
X77074200Y-90835714D01*
X77074200Y-90835714D02*
X77112295Y-90911905D01*
X77112295Y-90911905D02*
X77112295Y-91064286D01*
X77112295Y-91064286D02*
X77074200Y-91140476D01*
X77074200Y-91140476D02*
X77036104Y-91178571D01*
X77036104Y-91178571D02*
X76959914Y-91216667D01*
X76959914Y-91216667D02*
X76312295Y-91216667D01*
X77112295Y-92016666D02*
X77112295Y-91559523D01*
X77112295Y-91788095D02*
X76312295Y-91788095D01*
X76312295Y-91788095D02*
X76426580Y-91711904D01*
X76426580Y-91711904D02*
X76502771Y-91635714D01*
X76502771Y-91635714D02*
X76540866Y-91559523D01*
X76312295Y-92283333D02*
X76312295Y-92778571D01*
X76312295Y-92778571D02*
X76617057Y-92511905D01*
X76617057Y-92511905D02*
X76617057Y-92626190D01*
X76617057Y-92626190D02*
X76655152Y-92702381D01*
X76655152Y-92702381D02*
X76693247Y-92740476D01*
X76693247Y-92740476D02*
X76769438Y-92778571D01*
X76769438Y-92778571D02*
X76959914Y-92778571D01*
X76959914Y-92778571D02*
X77036104Y-92740476D01*
X77036104Y-92740476D02*
X77074200Y-92702381D01*
X77074200Y-92702381D02*
X77112295Y-92626190D01*
X77112295Y-92626190D02*
X77112295Y-92397619D01*
X77112295Y-92397619D02*
X77074200Y-92321428D01*
X77074200Y-92321428D02*
X77036104Y-92283333D01*
X65859580Y-74957142D02*
X65907200Y-74909523D01*
X65907200Y-74909523D02*
X65954819Y-74766666D01*
X65954819Y-74766666D02*
X65954819Y-74671428D01*
X65954819Y-74671428D02*
X65907200Y-74528571D01*
X65907200Y-74528571D02*
X65811961Y-74433333D01*
X65811961Y-74433333D02*
X65716723Y-74385714D01*
X65716723Y-74385714D02*
X65526247Y-74338095D01*
X65526247Y-74338095D02*
X65383390Y-74338095D01*
X65383390Y-74338095D02*
X65192914Y-74385714D01*
X65192914Y-74385714D02*
X65097676Y-74433333D01*
X65097676Y-74433333D02*
X65002438Y-74528571D01*
X65002438Y-74528571D02*
X64954819Y-74671428D01*
X64954819Y-74671428D02*
X64954819Y-74766666D01*
X64954819Y-74766666D02*
X65002438Y-74909523D01*
X65002438Y-74909523D02*
X65050057Y-74957142D01*
X64954819Y-75290476D02*
X64954819Y-75909523D01*
X64954819Y-75909523D02*
X65335771Y-75576190D01*
X65335771Y-75576190D02*
X65335771Y-75719047D01*
X65335771Y-75719047D02*
X65383390Y-75814285D01*
X65383390Y-75814285D02*
X65431009Y-75861904D01*
X65431009Y-75861904D02*
X65526247Y-75909523D01*
X65526247Y-75909523D02*
X65764342Y-75909523D01*
X65764342Y-75909523D02*
X65859580Y-75861904D01*
X65859580Y-75861904D02*
X65907200Y-75814285D01*
X65907200Y-75814285D02*
X65954819Y-75719047D01*
X65954819Y-75719047D02*
X65954819Y-75433333D01*
X65954819Y-75433333D02*
X65907200Y-75338095D01*
X65907200Y-75338095D02*
X65859580Y-75290476D01*
X64954819Y-76814285D02*
X64954819Y-76338095D01*
X64954819Y-76338095D02*
X65431009Y-76290476D01*
X65431009Y-76290476D02*
X65383390Y-76338095D01*
X65383390Y-76338095D02*
X65335771Y-76433333D01*
X65335771Y-76433333D02*
X65335771Y-76671428D01*
X65335771Y-76671428D02*
X65383390Y-76766666D01*
X65383390Y-76766666D02*
X65431009Y-76814285D01*
X65431009Y-76814285D02*
X65526247Y-76861904D01*
X65526247Y-76861904D02*
X65764342Y-76861904D01*
X65764342Y-76861904D02*
X65859580Y-76814285D01*
X65859580Y-76814285D02*
X65907200Y-76766666D01*
X65907200Y-76766666D02*
X65954819Y-76671428D01*
X65954819Y-76671428D02*
X65954819Y-76433333D01*
X65954819Y-76433333D02*
X65907200Y-76338095D01*
X65907200Y-76338095D02*
X65859580Y-76290476D01*
X49537296Y-92423214D02*
X49156343Y-92156547D01*
X49537296Y-91966071D02*
X48737296Y-91966071D01*
X48737296Y-91966071D02*
X48737296Y-92270833D01*
X48737296Y-92270833D02*
X48775391Y-92347023D01*
X48775391Y-92347023D02*
X48813486Y-92385118D01*
X48813486Y-92385118D02*
X48889677Y-92423214D01*
X48889677Y-92423214D02*
X49003962Y-92423214D01*
X49003962Y-92423214D02*
X49080153Y-92385118D01*
X49080153Y-92385118D02*
X49118248Y-92347023D01*
X49118248Y-92347023D02*
X49156343Y-92270833D01*
X49156343Y-92270833D02*
X49156343Y-91966071D01*
X48737296Y-92689880D02*
X48737296Y-93185118D01*
X48737296Y-93185118D02*
X49042058Y-92918452D01*
X49042058Y-92918452D02*
X49042058Y-93032737D01*
X49042058Y-93032737D02*
X49080153Y-93108928D01*
X49080153Y-93108928D02*
X49118248Y-93147023D01*
X49118248Y-93147023D02*
X49194439Y-93185118D01*
X49194439Y-93185118D02*
X49384915Y-93185118D01*
X49384915Y-93185118D02*
X49461105Y-93147023D01*
X49461105Y-93147023D02*
X49499201Y-93108928D01*
X49499201Y-93108928D02*
X49537296Y-93032737D01*
X49537296Y-93032737D02*
X49537296Y-92804166D01*
X49537296Y-92804166D02*
X49499201Y-92727975D01*
X49499201Y-92727975D02*
X49461105Y-92689880D01*
X48737296Y-93451785D02*
X48737296Y-93985119D01*
X48737296Y-93985119D02*
X49537296Y-93642261D01*
X66519048Y-84524200D02*
X66404762Y-84562295D01*
X66404762Y-84562295D02*
X66214286Y-84562295D01*
X66214286Y-84562295D02*
X66138095Y-84524200D01*
X66138095Y-84524200D02*
X66100000Y-84486104D01*
X66100000Y-84486104D02*
X66061905Y-84409914D01*
X66061905Y-84409914D02*
X66061905Y-84333723D01*
X66061905Y-84333723D02*
X66100000Y-84257533D01*
X66100000Y-84257533D02*
X66138095Y-84219438D01*
X66138095Y-84219438D02*
X66214286Y-84181342D01*
X66214286Y-84181342D02*
X66366667Y-84143247D01*
X66366667Y-84143247D02*
X66442857Y-84105152D01*
X66442857Y-84105152D02*
X66480952Y-84067057D01*
X66480952Y-84067057D02*
X66519048Y-83990866D01*
X66519048Y-83990866D02*
X66519048Y-83914676D01*
X66519048Y-83914676D02*
X66480952Y-83838485D01*
X66480952Y-83838485D02*
X66442857Y-83800390D01*
X66442857Y-83800390D02*
X66366667Y-83762295D01*
X66366667Y-83762295D02*
X66176190Y-83762295D01*
X66176190Y-83762295D02*
X66061905Y-83800390D01*
X65719047Y-84562295D02*
X65719047Y-83762295D01*
X65338095Y-84562295D02*
X65338095Y-83762295D01*
X65338095Y-83762295D02*
X65071429Y-84333723D01*
X65071429Y-84333723D02*
X64804762Y-83762295D01*
X64804762Y-83762295D02*
X64804762Y-84562295D01*
X64614286Y-84638485D02*
X64004762Y-84638485D01*
X63814285Y-84562295D02*
X63814285Y-83762295D01*
X63814285Y-83762295D02*
X63509523Y-83762295D01*
X63509523Y-83762295D02*
X63433333Y-83800390D01*
X63433333Y-83800390D02*
X63395238Y-83838485D01*
X63395238Y-83838485D02*
X63357142Y-83914676D01*
X63357142Y-83914676D02*
X63357142Y-84028961D01*
X63357142Y-84028961D02*
X63395238Y-84105152D01*
X63395238Y-84105152D02*
X63433333Y-84143247D01*
X63433333Y-84143247D02*
X63509523Y-84181342D01*
X63509523Y-84181342D02*
X63814285Y-84181342D01*
X63090476Y-83762295D02*
X62900000Y-84562295D01*
X62900000Y-84562295D02*
X62747619Y-83990866D01*
X62747619Y-83990866D02*
X62595238Y-84562295D01*
X62595238Y-84562295D02*
X62404762Y-83762295D01*
X61642856Y-84562295D02*
X61909523Y-84181342D01*
X62099999Y-84562295D02*
X62099999Y-83762295D01*
X62099999Y-83762295D02*
X61795237Y-83762295D01*
X61795237Y-83762295D02*
X61719047Y-83800390D01*
X61719047Y-83800390D02*
X61680952Y-83838485D01*
X61680952Y-83838485D02*
X61642856Y-83914676D01*
X61642856Y-83914676D02*
X61642856Y-84028961D01*
X61642856Y-84028961D02*
X61680952Y-84105152D01*
X61680952Y-84105152D02*
X61719047Y-84143247D01*
X61719047Y-84143247D02*
X61795237Y-84181342D01*
X61795237Y-84181342D02*
X62099999Y-84181342D01*
X60880952Y-84562295D02*
X61338095Y-84562295D01*
X61109523Y-84562295D02*
X61109523Y-83762295D01*
X61109523Y-83762295D02*
X61185714Y-83876580D01*
X61185714Y-83876580D02*
X61261904Y-83952771D01*
X61261904Y-83952771D02*
X61338095Y-83990866D01*
X58854819Y-82085714D02*
X57854819Y-82085714D01*
X57854819Y-82085714D02*
X57854819Y-82323809D01*
X57854819Y-82323809D02*
X57902438Y-82466666D01*
X57902438Y-82466666D02*
X57997676Y-82561904D01*
X57997676Y-82561904D02*
X58092914Y-82609523D01*
X58092914Y-82609523D02*
X58283390Y-82657142D01*
X58283390Y-82657142D02*
X58426247Y-82657142D01*
X58426247Y-82657142D02*
X58616723Y-82609523D01*
X58616723Y-82609523D02*
X58711961Y-82561904D01*
X58711961Y-82561904D02*
X58807200Y-82466666D01*
X58807200Y-82466666D02*
X58854819Y-82323809D01*
X58854819Y-82323809D02*
X58854819Y-82085714D01*
X58854819Y-83609523D02*
X58854819Y-83038095D01*
X58854819Y-83323809D02*
X57854819Y-83323809D01*
X57854819Y-83323809D02*
X57997676Y-83228571D01*
X57997676Y-83228571D02*
X58092914Y-83133333D01*
X58092914Y-83133333D02*
X58140533Y-83038095D01*
X58854819Y-84085714D02*
X58854819Y-84276190D01*
X58854819Y-84276190D02*
X58807200Y-84371428D01*
X58807200Y-84371428D02*
X58759580Y-84419047D01*
X58759580Y-84419047D02*
X58616723Y-84514285D01*
X58616723Y-84514285D02*
X58426247Y-84561904D01*
X58426247Y-84561904D02*
X58045295Y-84561904D01*
X58045295Y-84561904D02*
X57950057Y-84514285D01*
X57950057Y-84514285D02*
X57902438Y-84466666D01*
X57902438Y-84466666D02*
X57854819Y-84371428D01*
X57854819Y-84371428D02*
X57854819Y-84180952D01*
X57854819Y-84180952D02*
X57902438Y-84085714D01*
X57902438Y-84085714D02*
X57950057Y-84038095D01*
X57950057Y-84038095D02*
X58045295Y-83990476D01*
X58045295Y-83990476D02*
X58283390Y-83990476D01*
X58283390Y-83990476D02*
X58378628Y-84038095D01*
X58378628Y-84038095D02*
X58426247Y-84085714D01*
X58426247Y-84085714D02*
X58473866Y-84180952D01*
X58473866Y-84180952D02*
X58473866Y-84371428D01*
X58473866Y-84371428D02*
X58426247Y-84466666D01*
X58426247Y-84466666D02*
X58378628Y-84514285D01*
X58378628Y-84514285D02*
X58283390Y-84561904D01*
X75754819Y-72901905D02*
X74754819Y-72901905D01*
X74754819Y-72901905D02*
X74754819Y-73140000D01*
X74754819Y-73140000D02*
X74802438Y-73282857D01*
X74802438Y-73282857D02*
X74897676Y-73378095D01*
X74897676Y-73378095D02*
X74992914Y-73425714D01*
X74992914Y-73425714D02*
X75183390Y-73473333D01*
X75183390Y-73473333D02*
X75326247Y-73473333D01*
X75326247Y-73473333D02*
X75516723Y-73425714D01*
X75516723Y-73425714D02*
X75611961Y-73378095D01*
X75611961Y-73378095D02*
X75707200Y-73282857D01*
X75707200Y-73282857D02*
X75754819Y-73140000D01*
X75754819Y-73140000D02*
X75754819Y-72901905D01*
X75088152Y-74330476D02*
X75754819Y-74330476D01*
X74707200Y-74092381D02*
X75421485Y-73854286D01*
X75421485Y-73854286D02*
X75421485Y-74473333D01*
X56461104Y-91535714D02*
X56499200Y-91497618D01*
X56499200Y-91497618D02*
X56537295Y-91383333D01*
X56537295Y-91383333D02*
X56537295Y-91307142D01*
X56537295Y-91307142D02*
X56499200Y-91192856D01*
X56499200Y-91192856D02*
X56423009Y-91116666D01*
X56423009Y-91116666D02*
X56346819Y-91078571D01*
X56346819Y-91078571D02*
X56194438Y-91040475D01*
X56194438Y-91040475D02*
X56080152Y-91040475D01*
X56080152Y-91040475D02*
X55927771Y-91078571D01*
X55927771Y-91078571D02*
X55851580Y-91116666D01*
X55851580Y-91116666D02*
X55775390Y-91192856D01*
X55775390Y-91192856D02*
X55737295Y-91307142D01*
X55737295Y-91307142D02*
X55737295Y-91383333D01*
X55737295Y-91383333D02*
X55775390Y-91497618D01*
X55775390Y-91497618D02*
X55813485Y-91535714D01*
X56003961Y-92221428D02*
X56537295Y-92221428D01*
X55699200Y-92030952D02*
X56270628Y-91840475D01*
X56270628Y-91840475D02*
X56270628Y-92335714D01*
X55813485Y-92602380D02*
X55775390Y-92640476D01*
X55775390Y-92640476D02*
X55737295Y-92716666D01*
X55737295Y-92716666D02*
X55737295Y-92907142D01*
X55737295Y-92907142D02*
X55775390Y-92983333D01*
X55775390Y-92983333D02*
X55813485Y-93021428D01*
X55813485Y-93021428D02*
X55889676Y-93059523D01*
X55889676Y-93059523D02*
X55965866Y-93059523D01*
X55965866Y-93059523D02*
X56080152Y-93021428D01*
X56080152Y-93021428D02*
X56537295Y-92564285D01*
X56537295Y-92564285D02*
X56537295Y-93059523D01*
X70278580Y-91587142D02*
X70326200Y-91539523D01*
X70326200Y-91539523D02*
X70373819Y-91396666D01*
X70373819Y-91396666D02*
X70373819Y-91301428D01*
X70373819Y-91301428D02*
X70326200Y-91158571D01*
X70326200Y-91158571D02*
X70230961Y-91063333D01*
X70230961Y-91063333D02*
X70135723Y-91015714D01*
X70135723Y-91015714D02*
X69945247Y-90968095D01*
X69945247Y-90968095D02*
X69802390Y-90968095D01*
X69802390Y-90968095D02*
X69611914Y-91015714D01*
X69611914Y-91015714D02*
X69516676Y-91063333D01*
X69516676Y-91063333D02*
X69421438Y-91158571D01*
X69421438Y-91158571D02*
X69373819Y-91301428D01*
X69373819Y-91301428D02*
X69373819Y-91396666D01*
X69373819Y-91396666D02*
X69421438Y-91539523D01*
X69421438Y-91539523D02*
X69469057Y-91587142D01*
X69707152Y-92444285D02*
X70373819Y-92444285D01*
X69326200Y-92206190D02*
X70040485Y-91968095D01*
X70040485Y-91968095D02*
X70040485Y-92587142D01*
X69373819Y-93396666D02*
X69373819Y-93206190D01*
X69373819Y-93206190D02*
X69421438Y-93110952D01*
X69421438Y-93110952D02*
X69469057Y-93063333D01*
X69469057Y-93063333D02*
X69611914Y-92968095D01*
X69611914Y-92968095D02*
X69802390Y-92920476D01*
X69802390Y-92920476D02*
X70183342Y-92920476D01*
X70183342Y-92920476D02*
X70278580Y-92968095D01*
X70278580Y-92968095D02*
X70326200Y-93015714D01*
X70326200Y-93015714D02*
X70373819Y-93110952D01*
X70373819Y-93110952D02*
X70373819Y-93301428D01*
X70373819Y-93301428D02*
X70326200Y-93396666D01*
X70326200Y-93396666D02*
X70278580Y-93444285D01*
X70278580Y-93444285D02*
X70183342Y-93491904D01*
X70183342Y-93491904D02*
X69945247Y-93491904D01*
X69945247Y-93491904D02*
X69850009Y-93444285D01*
X69850009Y-93444285D02*
X69802390Y-93396666D01*
X69802390Y-93396666D02*
X69754771Y-93301428D01*
X69754771Y-93301428D02*
X69754771Y-93110952D01*
X69754771Y-93110952D02*
X69802390Y-93015714D01*
X69802390Y-93015714D02*
X69850009Y-92968095D01*
X69850009Y-92968095D02*
X69945247Y-92920476D01*
X74946104Y-103410714D02*
X74984200Y-103372618D01*
X74984200Y-103372618D02*
X75022295Y-103258333D01*
X75022295Y-103258333D02*
X75022295Y-103182142D01*
X75022295Y-103182142D02*
X74984200Y-103067856D01*
X74984200Y-103067856D02*
X74908009Y-102991666D01*
X74908009Y-102991666D02*
X74831819Y-102953571D01*
X74831819Y-102953571D02*
X74679438Y-102915475D01*
X74679438Y-102915475D02*
X74565152Y-102915475D01*
X74565152Y-102915475D02*
X74412771Y-102953571D01*
X74412771Y-102953571D02*
X74336580Y-102991666D01*
X74336580Y-102991666D02*
X74260390Y-103067856D01*
X74260390Y-103067856D02*
X74222295Y-103182142D01*
X74222295Y-103182142D02*
X74222295Y-103258333D01*
X74222295Y-103258333D02*
X74260390Y-103372618D01*
X74260390Y-103372618D02*
X74298485Y-103410714D01*
X74488961Y-104096428D02*
X75022295Y-104096428D01*
X74184200Y-103905952D02*
X74755628Y-103715475D01*
X74755628Y-103715475D02*
X74755628Y-104210714D01*
X74222295Y-104667857D02*
X74222295Y-104744047D01*
X74222295Y-104744047D02*
X74260390Y-104820238D01*
X74260390Y-104820238D02*
X74298485Y-104858333D01*
X74298485Y-104858333D02*
X74374676Y-104896428D01*
X74374676Y-104896428D02*
X74527057Y-104934523D01*
X74527057Y-104934523D02*
X74717533Y-104934523D01*
X74717533Y-104934523D02*
X74869914Y-104896428D01*
X74869914Y-104896428D02*
X74946104Y-104858333D01*
X74946104Y-104858333D02*
X74984200Y-104820238D01*
X74984200Y-104820238D02*
X75022295Y-104744047D01*
X75022295Y-104744047D02*
X75022295Y-104667857D01*
X75022295Y-104667857D02*
X74984200Y-104591666D01*
X74984200Y-104591666D02*
X74946104Y-104553571D01*
X74946104Y-104553571D02*
X74869914Y-104515476D01*
X74869914Y-104515476D02*
X74717533Y-104477380D01*
X74717533Y-104477380D02*
X74527057Y-104477380D01*
X74527057Y-104477380D02*
X74374676Y-104515476D01*
X74374676Y-104515476D02*
X74298485Y-104553571D01*
X74298485Y-104553571D02*
X74260390Y-104591666D01*
X74260390Y-104591666D02*
X74222295Y-104667857D01*
X69014285Y-107611104D02*
X69052381Y-107649200D01*
X69052381Y-107649200D02*
X69166666Y-107687295D01*
X69166666Y-107687295D02*
X69242857Y-107687295D01*
X69242857Y-107687295D02*
X69357143Y-107649200D01*
X69357143Y-107649200D02*
X69433333Y-107573009D01*
X69433333Y-107573009D02*
X69471428Y-107496819D01*
X69471428Y-107496819D02*
X69509524Y-107344438D01*
X69509524Y-107344438D02*
X69509524Y-107230152D01*
X69509524Y-107230152D02*
X69471428Y-107077771D01*
X69471428Y-107077771D02*
X69433333Y-107001580D01*
X69433333Y-107001580D02*
X69357143Y-106925390D01*
X69357143Y-106925390D02*
X69242857Y-106887295D01*
X69242857Y-106887295D02*
X69166666Y-106887295D01*
X69166666Y-106887295D02*
X69052381Y-106925390D01*
X69052381Y-106925390D02*
X69014285Y-106963485D01*
X68328571Y-107153961D02*
X68328571Y-107687295D01*
X68519047Y-106849200D02*
X68709524Y-107420628D01*
X68709524Y-107420628D02*
X68214285Y-107420628D01*
X67490476Y-107687295D02*
X67947619Y-107687295D01*
X67719047Y-107687295D02*
X67719047Y-106887295D01*
X67719047Y-106887295D02*
X67795238Y-107001580D01*
X67795238Y-107001580D02*
X67871428Y-107077771D01*
X67871428Y-107077771D02*
X67947619Y-107115866D01*
X59789285Y-100312295D02*
X60055952Y-99931342D01*
X60246428Y-100312295D02*
X60246428Y-99512295D01*
X60246428Y-99512295D02*
X59941666Y-99512295D01*
X59941666Y-99512295D02*
X59865476Y-99550390D01*
X59865476Y-99550390D02*
X59827381Y-99588485D01*
X59827381Y-99588485D02*
X59789285Y-99664676D01*
X59789285Y-99664676D02*
X59789285Y-99778961D01*
X59789285Y-99778961D02*
X59827381Y-99855152D01*
X59827381Y-99855152D02*
X59865476Y-99893247D01*
X59865476Y-99893247D02*
X59941666Y-99931342D01*
X59941666Y-99931342D02*
X60246428Y-99931342D01*
X59027381Y-100312295D02*
X59484524Y-100312295D01*
X59255952Y-100312295D02*
X59255952Y-99512295D01*
X59255952Y-99512295D02*
X59332143Y-99626580D01*
X59332143Y-99626580D02*
X59408333Y-99702771D01*
X59408333Y-99702771D02*
X59484524Y-99740866D01*
X58265476Y-100312295D02*
X58722619Y-100312295D01*
X58494047Y-100312295D02*
X58494047Y-99512295D01*
X58494047Y-99512295D02*
X58570238Y-99626580D01*
X58570238Y-99626580D02*
X58646428Y-99702771D01*
X58646428Y-99702771D02*
X58722619Y-99740866D01*
X51487295Y-103735714D02*
X51106342Y-103469047D01*
X51487295Y-103278571D02*
X50687295Y-103278571D01*
X50687295Y-103278571D02*
X50687295Y-103583333D01*
X50687295Y-103583333D02*
X50725390Y-103659523D01*
X50725390Y-103659523D02*
X50763485Y-103697618D01*
X50763485Y-103697618D02*
X50839676Y-103735714D01*
X50839676Y-103735714D02*
X50953961Y-103735714D01*
X50953961Y-103735714D02*
X51030152Y-103697618D01*
X51030152Y-103697618D02*
X51068247Y-103659523D01*
X51068247Y-103659523D02*
X51106342Y-103583333D01*
X51106342Y-103583333D02*
X51106342Y-103278571D01*
X50687295Y-104002380D02*
X50687295Y-104497618D01*
X50687295Y-104497618D02*
X50992057Y-104230952D01*
X50992057Y-104230952D02*
X50992057Y-104345237D01*
X50992057Y-104345237D02*
X51030152Y-104421428D01*
X51030152Y-104421428D02*
X51068247Y-104459523D01*
X51068247Y-104459523D02*
X51144438Y-104497618D01*
X51144438Y-104497618D02*
X51334914Y-104497618D01*
X51334914Y-104497618D02*
X51411104Y-104459523D01*
X51411104Y-104459523D02*
X51449200Y-104421428D01*
X51449200Y-104421428D02*
X51487295Y-104345237D01*
X51487295Y-104345237D02*
X51487295Y-104116666D01*
X51487295Y-104116666D02*
X51449200Y-104040475D01*
X51449200Y-104040475D02*
X51411104Y-104002380D01*
X50763485Y-104802380D02*
X50725390Y-104840476D01*
X50725390Y-104840476D02*
X50687295Y-104916666D01*
X50687295Y-104916666D02*
X50687295Y-105107142D01*
X50687295Y-105107142D02*
X50725390Y-105183333D01*
X50725390Y-105183333D02*
X50763485Y-105221428D01*
X50763485Y-105221428D02*
X50839676Y-105259523D01*
X50839676Y-105259523D02*
X50915866Y-105259523D01*
X50915866Y-105259523D02*
X51030152Y-105221428D01*
X51030152Y-105221428D02*
X51487295Y-104764285D01*
X51487295Y-104764285D02*
X51487295Y-105259523D01*
X53812295Y-99115476D02*
X54459914Y-99115476D01*
X54459914Y-99115476D02*
X54536104Y-99153571D01*
X54536104Y-99153571D02*
X54574200Y-99191666D01*
X54574200Y-99191666D02*
X54612295Y-99267857D01*
X54612295Y-99267857D02*
X54612295Y-99420238D01*
X54612295Y-99420238D02*
X54574200Y-99496428D01*
X54574200Y-99496428D02*
X54536104Y-99534523D01*
X54536104Y-99534523D02*
X54459914Y-99572619D01*
X54459914Y-99572619D02*
X53812295Y-99572619D01*
X53812295Y-100334523D02*
X53812295Y-99953571D01*
X53812295Y-99953571D02*
X54193247Y-99915475D01*
X54193247Y-99915475D02*
X54155152Y-99953571D01*
X54155152Y-99953571D02*
X54117057Y-100029761D01*
X54117057Y-100029761D02*
X54117057Y-100220237D01*
X54117057Y-100220237D02*
X54155152Y-100296428D01*
X54155152Y-100296428D02*
X54193247Y-100334523D01*
X54193247Y-100334523D02*
X54269438Y-100372618D01*
X54269438Y-100372618D02*
X54459914Y-100372618D01*
X54459914Y-100372618D02*
X54536104Y-100334523D01*
X54536104Y-100334523D02*
X54574200Y-100296428D01*
X54574200Y-100296428D02*
X54612295Y-100220237D01*
X54612295Y-100220237D02*
X54612295Y-100029761D01*
X54612295Y-100029761D02*
X54574200Y-99953571D01*
X54574200Y-99953571D02*
X54536104Y-99915475D01*
X69709523Y-100087295D02*
X69709523Y-100734914D01*
X69709523Y-100734914D02*
X69671428Y-100811104D01*
X69671428Y-100811104D02*
X69633333Y-100849200D01*
X69633333Y-100849200D02*
X69557142Y-100887295D01*
X69557142Y-100887295D02*
X69404761Y-100887295D01*
X69404761Y-100887295D02*
X69328571Y-100849200D01*
X69328571Y-100849200D02*
X69290476Y-100811104D01*
X69290476Y-100811104D02*
X69252380Y-100734914D01*
X69252380Y-100734914D02*
X69252380Y-100087295D01*
X68833333Y-100887295D02*
X68680952Y-100887295D01*
X68680952Y-100887295D02*
X68604762Y-100849200D01*
X68604762Y-100849200D02*
X68566666Y-100811104D01*
X68566666Y-100811104D02*
X68490476Y-100696819D01*
X68490476Y-100696819D02*
X68452381Y-100544438D01*
X68452381Y-100544438D02*
X68452381Y-100239676D01*
X68452381Y-100239676D02*
X68490476Y-100163485D01*
X68490476Y-100163485D02*
X68528571Y-100125390D01*
X68528571Y-100125390D02*
X68604762Y-100087295D01*
X68604762Y-100087295D02*
X68757143Y-100087295D01*
X68757143Y-100087295D02*
X68833333Y-100125390D01*
X68833333Y-100125390D02*
X68871428Y-100163485D01*
X68871428Y-100163485D02*
X68909524Y-100239676D01*
X68909524Y-100239676D02*
X68909524Y-100430152D01*
X68909524Y-100430152D02*
X68871428Y-100506342D01*
X68871428Y-100506342D02*
X68833333Y-100544438D01*
X68833333Y-100544438D02*
X68757143Y-100582533D01*
X68757143Y-100582533D02*
X68604762Y-100582533D01*
X68604762Y-100582533D02*
X68528571Y-100544438D01*
X68528571Y-100544438D02*
X68490476Y-100506342D01*
X68490476Y-100506342D02*
X68452381Y-100430152D01*
X41759795Y-113435714D02*
X41378842Y-113169047D01*
X41759795Y-112978571D02*
X40959795Y-112978571D01*
X40959795Y-112978571D02*
X40959795Y-113283333D01*
X40959795Y-113283333D02*
X40997890Y-113359523D01*
X40997890Y-113359523D02*
X41035985Y-113397618D01*
X41035985Y-113397618D02*
X41112176Y-113435714D01*
X41112176Y-113435714D02*
X41226461Y-113435714D01*
X41226461Y-113435714D02*
X41302652Y-113397618D01*
X41302652Y-113397618D02*
X41340747Y-113359523D01*
X41340747Y-113359523D02*
X41378842Y-113283333D01*
X41378842Y-113283333D02*
X41378842Y-112978571D01*
X40959795Y-114121428D02*
X40959795Y-113969047D01*
X40959795Y-113969047D02*
X40997890Y-113892856D01*
X40997890Y-113892856D02*
X41035985Y-113854761D01*
X41035985Y-113854761D02*
X41150271Y-113778571D01*
X41150271Y-113778571D02*
X41302652Y-113740475D01*
X41302652Y-113740475D02*
X41607414Y-113740475D01*
X41607414Y-113740475D02*
X41683604Y-113778571D01*
X41683604Y-113778571D02*
X41721700Y-113816666D01*
X41721700Y-113816666D02*
X41759795Y-113892856D01*
X41759795Y-113892856D02*
X41759795Y-114045237D01*
X41759795Y-114045237D02*
X41721700Y-114121428D01*
X41721700Y-114121428D02*
X41683604Y-114159523D01*
X41683604Y-114159523D02*
X41607414Y-114197618D01*
X41607414Y-114197618D02*
X41416938Y-114197618D01*
X41416938Y-114197618D02*
X41340747Y-114159523D01*
X41340747Y-114159523D02*
X41302652Y-114121428D01*
X41302652Y-114121428D02*
X41264557Y-114045237D01*
X41264557Y-114045237D02*
X41264557Y-113892856D01*
X41264557Y-113892856D02*
X41302652Y-113816666D01*
X41302652Y-113816666D02*
X41340747Y-113778571D01*
X41340747Y-113778571D02*
X41416938Y-113740475D01*
X40959795Y-114464285D02*
X40959795Y-114959523D01*
X40959795Y-114959523D02*
X41264557Y-114692857D01*
X41264557Y-114692857D02*
X41264557Y-114807142D01*
X41264557Y-114807142D02*
X41302652Y-114883333D01*
X41302652Y-114883333D02*
X41340747Y-114921428D01*
X41340747Y-114921428D02*
X41416938Y-114959523D01*
X41416938Y-114959523D02*
X41607414Y-114959523D01*
X41607414Y-114959523D02*
X41683604Y-114921428D01*
X41683604Y-114921428D02*
X41721700Y-114883333D01*
X41721700Y-114883333D02*
X41759795Y-114807142D01*
X41759795Y-114807142D02*
X41759795Y-114578571D01*
X41759795Y-114578571D02*
X41721700Y-114502380D01*
X41721700Y-114502380D02*
X41683604Y-114464285D01*
X71592296Y-98485714D02*
X71211343Y-98219047D01*
X71592296Y-98028571D02*
X70792296Y-98028571D01*
X70792296Y-98028571D02*
X70792296Y-98333333D01*
X70792296Y-98333333D02*
X70830391Y-98409523D01*
X70830391Y-98409523D02*
X70868486Y-98447618D01*
X70868486Y-98447618D02*
X70944677Y-98485714D01*
X70944677Y-98485714D02*
X71058962Y-98485714D01*
X71058962Y-98485714D02*
X71135153Y-98447618D01*
X71135153Y-98447618D02*
X71173248Y-98409523D01*
X71173248Y-98409523D02*
X71211343Y-98333333D01*
X71211343Y-98333333D02*
X71211343Y-98028571D01*
X70792296Y-99171428D02*
X70792296Y-99019047D01*
X70792296Y-99019047D02*
X70830391Y-98942856D01*
X70830391Y-98942856D02*
X70868486Y-98904761D01*
X70868486Y-98904761D02*
X70982772Y-98828571D01*
X70982772Y-98828571D02*
X71135153Y-98790475D01*
X71135153Y-98790475D02*
X71439915Y-98790475D01*
X71439915Y-98790475D02*
X71516105Y-98828571D01*
X71516105Y-98828571D02*
X71554201Y-98866666D01*
X71554201Y-98866666D02*
X71592296Y-98942856D01*
X71592296Y-98942856D02*
X71592296Y-99095237D01*
X71592296Y-99095237D02*
X71554201Y-99171428D01*
X71554201Y-99171428D02*
X71516105Y-99209523D01*
X71516105Y-99209523D02*
X71439915Y-99247618D01*
X71439915Y-99247618D02*
X71249439Y-99247618D01*
X71249439Y-99247618D02*
X71173248Y-99209523D01*
X71173248Y-99209523D02*
X71135153Y-99171428D01*
X71135153Y-99171428D02*
X71097058Y-99095237D01*
X71097058Y-99095237D02*
X71097058Y-98942856D01*
X71097058Y-98942856D02*
X71135153Y-98866666D01*
X71135153Y-98866666D02*
X71173248Y-98828571D01*
X71173248Y-98828571D02*
X71249439Y-98790475D01*
X70792296Y-99742857D02*
X70792296Y-99819047D01*
X70792296Y-99819047D02*
X70830391Y-99895238D01*
X70830391Y-99895238D02*
X70868486Y-99933333D01*
X70868486Y-99933333D02*
X70944677Y-99971428D01*
X70944677Y-99971428D02*
X71097058Y-100009523D01*
X71097058Y-100009523D02*
X71287534Y-100009523D01*
X71287534Y-100009523D02*
X71439915Y-99971428D01*
X71439915Y-99971428D02*
X71516105Y-99933333D01*
X71516105Y-99933333D02*
X71554201Y-99895238D01*
X71554201Y-99895238D02*
X71592296Y-99819047D01*
X71592296Y-99819047D02*
X71592296Y-99742857D01*
X71592296Y-99742857D02*
X71554201Y-99666666D01*
X71554201Y-99666666D02*
X71516105Y-99628571D01*
X71516105Y-99628571D02*
X71439915Y-99590476D01*
X71439915Y-99590476D02*
X71287534Y-99552380D01*
X71287534Y-99552380D02*
X71097058Y-99552380D01*
X71097058Y-99552380D02*
X70944677Y-99590476D01*
X70944677Y-99590476D02*
X70868486Y-99628571D01*
X70868486Y-99628571D02*
X70830391Y-99666666D01*
X70830391Y-99666666D02*
X70792296Y-99742857D01*
X57468428Y-74503295D02*
X57468428Y-73703295D01*
X57468428Y-73703295D02*
X57277952Y-73703295D01*
X57277952Y-73703295D02*
X57163666Y-73741390D01*
X57163666Y-73741390D02*
X57087476Y-73817580D01*
X57087476Y-73817580D02*
X57049381Y-73893771D01*
X57049381Y-73893771D02*
X57011285Y-74046152D01*
X57011285Y-74046152D02*
X57011285Y-74160438D01*
X57011285Y-74160438D02*
X57049381Y-74312819D01*
X57049381Y-74312819D02*
X57087476Y-74389009D01*
X57087476Y-74389009D02*
X57163666Y-74465200D01*
X57163666Y-74465200D02*
X57277952Y-74503295D01*
X57277952Y-74503295D02*
X57468428Y-74503295D01*
X56249381Y-74503295D02*
X56706524Y-74503295D01*
X56477952Y-74503295D02*
X56477952Y-73703295D01*
X56477952Y-73703295D02*
X56554143Y-73817580D01*
X56554143Y-73817580D02*
X56630333Y-73893771D01*
X56630333Y-73893771D02*
X56706524Y-73931866D01*
X55487476Y-74503295D02*
X55944619Y-74503295D01*
X55716047Y-74503295D02*
X55716047Y-73703295D01*
X55716047Y-73703295D02*
X55792238Y-73817580D01*
X55792238Y-73817580D02*
X55868428Y-73893771D01*
X55868428Y-73893771D02*
X55944619Y-73931866D01*
X59979000Y-68319295D02*
X59979000Y-67519295D01*
X59979000Y-67519295D02*
X59812333Y-67519295D01*
X59812333Y-67519295D02*
X59712333Y-67557390D01*
X59712333Y-67557390D02*
X59645667Y-67633580D01*
X59645667Y-67633580D02*
X59612333Y-67709771D01*
X59612333Y-67709771D02*
X59579000Y-67862152D01*
X59579000Y-67862152D02*
X59579000Y-67976438D01*
X59579000Y-67976438D02*
X59612333Y-68128819D01*
X59612333Y-68128819D02*
X59645667Y-68205009D01*
X59645667Y-68205009D02*
X59712333Y-68281200D01*
X59712333Y-68281200D02*
X59812333Y-68319295D01*
X59812333Y-68319295D02*
X59979000Y-68319295D01*
X59279000Y-68014533D02*
X58745667Y-68014533D01*
X58045666Y-68319295D02*
X58445666Y-68319295D01*
X58245666Y-68319295D02*
X58245666Y-67519295D01*
X58245666Y-67519295D02*
X58312333Y-67633580D01*
X58312333Y-67633580D02*
X58379000Y-67709771D01*
X58379000Y-67709771D02*
X58445666Y-67747866D01*
X45111785Y-116312295D02*
X45378452Y-115931342D01*
X45568928Y-116312295D02*
X45568928Y-115512295D01*
X45568928Y-115512295D02*
X45264166Y-115512295D01*
X45264166Y-115512295D02*
X45187976Y-115550390D01*
X45187976Y-115550390D02*
X45149881Y-115588485D01*
X45149881Y-115588485D02*
X45111785Y-115664676D01*
X45111785Y-115664676D02*
X45111785Y-115778961D01*
X45111785Y-115778961D02*
X45149881Y-115855152D01*
X45149881Y-115855152D02*
X45187976Y-115893247D01*
X45187976Y-115893247D02*
X45264166Y-115931342D01*
X45264166Y-115931342D02*
X45568928Y-115931342D01*
X44426071Y-115512295D02*
X44578452Y-115512295D01*
X44578452Y-115512295D02*
X44654643Y-115550390D01*
X44654643Y-115550390D02*
X44692738Y-115588485D01*
X44692738Y-115588485D02*
X44768928Y-115702771D01*
X44768928Y-115702771D02*
X44807024Y-115855152D01*
X44807024Y-115855152D02*
X44807024Y-116159914D01*
X44807024Y-116159914D02*
X44768928Y-116236104D01*
X44768928Y-116236104D02*
X44730833Y-116274200D01*
X44730833Y-116274200D02*
X44654643Y-116312295D01*
X44654643Y-116312295D02*
X44502262Y-116312295D01*
X44502262Y-116312295D02*
X44426071Y-116274200D01*
X44426071Y-116274200D02*
X44387976Y-116236104D01*
X44387976Y-116236104D02*
X44349881Y-116159914D01*
X44349881Y-116159914D02*
X44349881Y-115969438D01*
X44349881Y-115969438D02*
X44387976Y-115893247D01*
X44387976Y-115893247D02*
X44426071Y-115855152D01*
X44426071Y-115855152D02*
X44502262Y-115817057D01*
X44502262Y-115817057D02*
X44654643Y-115817057D01*
X44654643Y-115817057D02*
X44730833Y-115855152D01*
X44730833Y-115855152D02*
X44768928Y-115893247D01*
X44768928Y-115893247D02*
X44807024Y-115969438D01*
X44045119Y-115588485D02*
X44007023Y-115550390D01*
X44007023Y-115550390D02*
X43930833Y-115512295D01*
X43930833Y-115512295D02*
X43740357Y-115512295D01*
X43740357Y-115512295D02*
X43664166Y-115550390D01*
X43664166Y-115550390D02*
X43626071Y-115588485D01*
X43626071Y-115588485D02*
X43587976Y-115664676D01*
X43587976Y-115664676D02*
X43587976Y-115740866D01*
X43587976Y-115740866D02*
X43626071Y-115855152D01*
X43626071Y-115855152D02*
X44083214Y-116312295D01*
X44083214Y-116312295D02*
X43587976Y-116312295D01*
X54561104Y-97123214D02*
X54599200Y-97085118D01*
X54599200Y-97085118D02*
X54637295Y-96970833D01*
X54637295Y-96970833D02*
X54637295Y-96894642D01*
X54637295Y-96894642D02*
X54599200Y-96780356D01*
X54599200Y-96780356D02*
X54523009Y-96704166D01*
X54523009Y-96704166D02*
X54446819Y-96666071D01*
X54446819Y-96666071D02*
X54294438Y-96627975D01*
X54294438Y-96627975D02*
X54180152Y-96627975D01*
X54180152Y-96627975D02*
X54027771Y-96666071D01*
X54027771Y-96666071D02*
X53951580Y-96704166D01*
X53951580Y-96704166D02*
X53875390Y-96780356D01*
X53875390Y-96780356D02*
X53837295Y-96894642D01*
X53837295Y-96894642D02*
X53837295Y-96970833D01*
X53837295Y-96970833D02*
X53875390Y-97085118D01*
X53875390Y-97085118D02*
X53913485Y-97123214D01*
X53837295Y-97389880D02*
X53837295Y-97885118D01*
X53837295Y-97885118D02*
X54142057Y-97618452D01*
X54142057Y-97618452D02*
X54142057Y-97732737D01*
X54142057Y-97732737D02*
X54180152Y-97808928D01*
X54180152Y-97808928D02*
X54218247Y-97847023D01*
X54218247Y-97847023D02*
X54294438Y-97885118D01*
X54294438Y-97885118D02*
X54484914Y-97885118D01*
X54484914Y-97885118D02*
X54561104Y-97847023D01*
X54561104Y-97847023D02*
X54599200Y-97808928D01*
X54599200Y-97808928D02*
X54637295Y-97732737D01*
X54637295Y-97732737D02*
X54637295Y-97504166D01*
X54637295Y-97504166D02*
X54599200Y-97427975D01*
X54599200Y-97427975D02*
X54561104Y-97389880D01*
X53913485Y-98189880D02*
X53875390Y-98227976D01*
X53875390Y-98227976D02*
X53837295Y-98304166D01*
X53837295Y-98304166D02*
X53837295Y-98494642D01*
X53837295Y-98494642D02*
X53875390Y-98570833D01*
X53875390Y-98570833D02*
X53913485Y-98608928D01*
X53913485Y-98608928D02*
X53989676Y-98647023D01*
X53989676Y-98647023D02*
X54065866Y-98647023D01*
X54065866Y-98647023D02*
X54180152Y-98608928D01*
X54180152Y-98608928D02*
X54637295Y-98151785D01*
X54637295Y-98151785D02*
X54637295Y-98647023D01*
X95107196Y-95049103D02*
X95821971Y-95049103D01*
X95821971Y-95049103D02*
X95964926Y-95001451D01*
X95964926Y-95001451D02*
X96060230Y-94906148D01*
X96060230Y-94906148D02*
X96107881Y-94763193D01*
X96107881Y-94763193D02*
X96107881Y-94667890D01*
X95107196Y-95430317D02*
X95107196Y-96097440D01*
X95107196Y-96097440D02*
X96107881Y-95668575D01*
X55637295Y-87922024D02*
X56284914Y-87922024D01*
X56284914Y-87922024D02*
X56361104Y-87960119D01*
X56361104Y-87960119D02*
X56399200Y-87998214D01*
X56399200Y-87998214D02*
X56437295Y-88074405D01*
X56437295Y-88074405D02*
X56437295Y-88226786D01*
X56437295Y-88226786D02*
X56399200Y-88302976D01*
X56399200Y-88302976D02*
X56361104Y-88341071D01*
X56361104Y-88341071D02*
X56284914Y-88379167D01*
X56284914Y-88379167D02*
X55637295Y-88379167D01*
X56437295Y-89179166D02*
X56437295Y-88722023D01*
X56437295Y-88950595D02*
X55637295Y-88950595D01*
X55637295Y-88950595D02*
X55751580Y-88874404D01*
X55751580Y-88874404D02*
X55827771Y-88798214D01*
X55827771Y-88798214D02*
X55865866Y-88722023D01*
X56437295Y-89941071D02*
X56437295Y-89483928D01*
X56437295Y-89712500D02*
X55637295Y-89712500D01*
X55637295Y-89712500D02*
X55751580Y-89636309D01*
X55751580Y-89636309D02*
X55827771Y-89560119D01*
X55827771Y-89560119D02*
X55865866Y-89483928D01*
D13*
X44751141Y-114030000D02*
X44443859Y-114030000D01*
X44751141Y-113270000D02*
X44443859Y-113270000D01*
X64161000Y-77721000D02*
X64161000Y-81631000D01*
X64161000Y-81631000D02*
X62291000Y-81631000D01*
X62291000Y-81631000D02*
X62291000Y-77721000D01*
X59925000Y-87634359D02*
X59925000Y-87941641D01*
X59165000Y-87634359D02*
X59165000Y-87941641D01*
X46847164Y-107690000D02*
X47062836Y-107690000D01*
X46847164Y-108410000D02*
X47062836Y-108410000D01*
D14*
X70125000Y-125300000D02*
G75*
G03*
X68825000Y-125300000I-650000J0D01*
G01*
X68825000Y-125300000D02*
G75*
G03*
X70125000Y-125300000I650000J0D01*
G01*
D13*
X52754999Y-102033859D02*
X52754999Y-102341141D01*
X51994999Y-102033859D02*
X51994999Y-102341141D01*
X70982500Y-127418403D02*
X70982500Y-127111121D01*
X71742500Y-127418403D02*
X71742500Y-127111121D01*
X51328642Y-91217500D02*
X51021360Y-91217500D01*
X51328642Y-90457500D02*
X51021360Y-90457500D01*
X73462500Y-124614762D02*
X72862500Y-124614762D01*
X72162500Y-125264762D02*
X72162500Y-128064762D01*
X74162500Y-128064762D02*
X74162500Y-125264762D01*
X72862500Y-128714762D02*
X73462500Y-128714762D01*
X74162500Y-125314762D02*
G75*
G03*
X73462500Y-124614762I-699999J1D01*
G01*
X72862500Y-124614762D02*
G75*
G03*
X72162500Y-125314762I-1J-699999D01*
G01*
X73462500Y-128714762D02*
G75*
G03*
X74162500Y-128014762I0J700000D01*
G01*
X72162500Y-128014762D02*
G75*
G03*
X72862500Y-128714762I700000J0D01*
G01*
X64353641Y-103205000D02*
X64046359Y-103205000D01*
X64353641Y-102445000D02*
X64046359Y-102445000D01*
X77260000Y-96692163D02*
X77260000Y-96907835D01*
X76540000Y-96692163D02*
X76540000Y-96907835D01*
X53115000Y-93145336D02*
X53115000Y-92929664D01*
X53835000Y-93145336D02*
X53835000Y-92929664D01*
X49070000Y-113260000D02*
X50570000Y-113260000D01*
X49070000Y-113260000D02*
X47570000Y-113260000D01*
X49070000Y-110040000D02*
X51995000Y-110040000D01*
X49070000Y-110040000D02*
X47570000Y-110040000D01*
X54637000Y-81851000D02*
X54637000Y-76341000D01*
X54637000Y-81851000D02*
X51337000Y-81851000D01*
X51337000Y-81851000D02*
X51337000Y-76341000D01*
X46862164Y-108815000D02*
X47077836Y-108815000D01*
X46862164Y-109535000D02*
X47077836Y-109535000D01*
X79992500Y-126821121D02*
X79992500Y-127128403D01*
X79232500Y-126821121D02*
X79232500Y-127128403D01*
X90350000Y-108950000D02*
X91700000Y-110100000D01*
X84750000Y-108950000D02*
X83100000Y-110600000D01*
X83100000Y-110600000D02*
X83100000Y-112500000D01*
X83100000Y-120400000D02*
X83100000Y-118500000D01*
X83100000Y-120400000D02*
X84750000Y-122050000D01*
X90350000Y-122050000D02*
X91700000Y-120900000D01*
X92197607Y-112995902D02*
G75*
G03*
X91700000Y-110100000I-2297607J1095902D01*
G01*
X91700000Y-120900000D02*
G75*
G03*
X92196459Y-118001694I-1800000J1800000D01*
G01*
X75680000Y-98846359D02*
X75680000Y-99153641D01*
X74920000Y-98846359D02*
X74920000Y-99153641D01*
G36*
X52063961Y-119127179D02*
G01*
X52321955Y-119153182D01*
X52737684Y-119260486D01*
X52964546Y-119430539D01*
X52993381Y-119653667D01*
X52815025Y-119920197D01*
X52715154Y-119999482D01*
X52390502Y-120099368D01*
X52027894Y-120059656D01*
X51690579Y-119904929D01*
X51441807Y-119659770D01*
X51344827Y-119348765D01*
X51345455Y-119292301D01*
X51369304Y-119174187D01*
X51464280Y-119117379D01*
X51679471Y-119106751D01*
X52063961Y-119127179D01*
G37*
G36*
X48215739Y-119109645D02*
G01*
X48635870Y-119160504D01*
X48873645Y-119278941D01*
X49014687Y-119502840D01*
X49019664Y-119770848D01*
X48854095Y-119973989D01*
X48840869Y-119981511D01*
X48484777Y-120083796D01*
X48102472Y-120048968D01*
X47754470Y-119902111D01*
X47501290Y-119668312D01*
X47403448Y-119372657D01*
X47418058Y-119226309D01*
X47496690Y-119145877D01*
X47690970Y-119113119D01*
X48052525Y-119106896D01*
X48215739Y-119109645D01*
G37*
G36*
X56929666Y-117993829D02*
G01*
X57262081Y-118365159D01*
X57331230Y-118490249D01*
X57442381Y-118947480D01*
X57343545Y-119392429D01*
X57040006Y-119791164D01*
X56931103Y-119879334D01*
X56516451Y-120065029D01*
X56100602Y-120051593D01*
X55728608Y-119848262D01*
X55445520Y-119464272D01*
X55418560Y-119404008D01*
X55318264Y-118916496D01*
X55426549Y-118461557D01*
X55736261Y-118073410D01*
X56123292Y-117852029D01*
X56539510Y-117820767D01*
X56929666Y-117993829D01*
G37*
G36*
X69988612Y-117845618D02*
G01*
X70383547Y-118063792D01*
X70635041Y-118436281D01*
X70723276Y-118942672D01*
X70707863Y-119228627D01*
X70615956Y-119511124D01*
X70403249Y-119772215D01*
X70131766Y-119970087D01*
X69703945Y-120096098D01*
X69264205Y-120064020D01*
X68873705Y-119881196D01*
X68593606Y-119554968D01*
X68546655Y-119456234D01*
X68429435Y-118962708D01*
X68499208Y-118511604D01*
X68733875Y-118141192D01*
X69111338Y-117889746D01*
X69609499Y-117795538D01*
X69988612Y-117845618D01*
G37*
G36*
X65507749Y-117922972D02*
G01*
X65807909Y-118163588D01*
X66012895Y-118499371D01*
X66106930Y-118887859D01*
X66074234Y-119286585D01*
X65899028Y-119653086D01*
X65565535Y-119944898D01*
X65467921Y-119991279D01*
X65065668Y-120049811D01*
X64641417Y-119955510D01*
X64283307Y-119723589D01*
X64210484Y-119641698D01*
X64027176Y-119256518D01*
X64009501Y-118827628D01*
X64141565Y-118413291D01*
X64407474Y-118071769D01*
X64791333Y-117861325D01*
X65128195Y-117819990D01*
X65507749Y-117922972D01*
G37*
G36*
X60975628Y-117864961D02*
G01*
X61171745Y-117932252D01*
X61520095Y-118188520D01*
X61732575Y-118547564D01*
X61805172Y-118958501D01*
X61733873Y-119370447D01*
X61514665Y-119732521D01*
X61143534Y-119993839D01*
X61065990Y-120021527D01*
X60669354Y-120050021D01*
X60250660Y-119946796D01*
X59914342Y-119733934D01*
X59712242Y-119463145D01*
X59592701Y-119054488D01*
X59637566Y-118645752D01*
X59822565Y-118279685D01*
X60123424Y-117999034D01*
X60515869Y-117846543D01*
X60975628Y-117864961D01*
G37*
G36*
X78082087Y-117875512D02*
G01*
X78405278Y-118094181D01*
X78582339Y-118305542D01*
X78764863Y-118651446D01*
X78755109Y-118942672D01*
X78741340Y-118978074D01*
X78693832Y-119060807D01*
X78610315Y-119088148D01*
X78449228Y-119052970D01*
X78169010Y-118948146D01*
X77728099Y-118766549D01*
X77554931Y-118694221D01*
X77138181Y-118511325D01*
X76891136Y-118375859D01*
X76787643Y-118263885D01*
X76801552Y-118151464D01*
X76906710Y-118014656D01*
X76951916Y-117970190D01*
X77276531Y-117809331D01*
X77679547Y-117779167D01*
X78082087Y-117875512D01*
G37*
G36*
X79919827Y-118450000D02*
G01*
X79919827Y-118794994D01*
X79919827Y-122391379D01*
X62895259Y-122391379D01*
X45870690Y-122391379D01*
X45870690Y-119074009D01*
X46656515Y-119074009D01*
X46660889Y-119597521D01*
X46691810Y-120694396D01*
X46992888Y-120729039D01*
X47223056Y-120716285D01*
X47293965Y-120592186D01*
X47294529Y-120566925D01*
X47345008Y-120443340D01*
X47502230Y-120449295D01*
X47801494Y-120584239D01*
X47926727Y-120639566D01*
X48390869Y-120734263D01*
X48877719Y-120707779D01*
X49283706Y-120561690D01*
X49435574Y-120448434D01*
X49699386Y-120100172D01*
X49810504Y-119694330D01*
X49759465Y-119291136D01*
X49536806Y-118950819D01*
X49460032Y-118889428D01*
X50599468Y-118889428D01*
X50602482Y-119423878D01*
X50609019Y-119694330D01*
X50633190Y-120694396D01*
X50934267Y-120729039D01*
X51164435Y-120716285D01*
X51235345Y-120592186D01*
X51235908Y-120566925D01*
X51286388Y-120443340D01*
X51443609Y-120449295D01*
X51742873Y-120584239D01*
X51868106Y-120639566D01*
X52332248Y-120734263D01*
X52819098Y-120707779D01*
X53225085Y-120561690D01*
X53376953Y-120448434D01*
X53640765Y-120100172D01*
X53751884Y-119694330D01*
X53700845Y-119291136D01*
X53478185Y-118950819D01*
X53328528Y-118831148D01*
X52993914Y-118671788D01*
X52545485Y-118585450D01*
X51933297Y-118559483D01*
X51788399Y-118558323D01*
X51508056Y-118537226D01*
X51377156Y-118476100D01*
X51344827Y-118357486D01*
X51389471Y-118155381D01*
X51596380Y-117936018D01*
X51932203Y-117819976D01*
X52353007Y-117819525D01*
X52814858Y-117946934D01*
X52874770Y-117971123D01*
X53144712Y-118039353D01*
X53304014Y-117979779D01*
X53334639Y-117947061D01*
X53418030Y-117743418D01*
X53295089Y-117548855D01*
X52959698Y-117352224D01*
X52904689Y-117328145D01*
X52350746Y-117173610D01*
X51804667Y-117160425D01*
X51313278Y-117278072D01*
X50923402Y-117516035D01*
X50681865Y-117863799D01*
X50645440Y-118044711D01*
X50614755Y-118410696D01*
X50599468Y-118889428D01*
X49460032Y-118889428D01*
X49387149Y-118831148D01*
X49052535Y-118671788D01*
X48604106Y-118585450D01*
X47991918Y-118559483D01*
X47847019Y-118558323D01*
X47566677Y-118537226D01*
X47435777Y-118476100D01*
X47403448Y-118357486D01*
X47448092Y-118155381D01*
X47655001Y-117936018D01*
X47990824Y-117819976D01*
X48411627Y-117819525D01*
X48873478Y-117946934D01*
X48933391Y-117971123D01*
X49203333Y-118039353D01*
X49362634Y-117979779D01*
X49393260Y-117947061D01*
X49476651Y-117743418D01*
X49353710Y-117548855D01*
X49018319Y-117352224D01*
X48821864Y-117272579D01*
X48243363Y-117143855D01*
X47707081Y-117170286D01*
X47249891Y-117340421D01*
X46908665Y-117642808D01*
X46720275Y-118065993D01*
X46700009Y-118198187D01*
X46670513Y-118582863D01*
X46656515Y-119074009D01*
X45870690Y-119074009D01*
X45870690Y-118450000D01*
X45870690Y-115822414D01*
X54515638Y-115822414D01*
X54545104Y-118258405D01*
X54562473Y-119694330D01*
X54574569Y-120694396D01*
X54930388Y-120728704D01*
X55100398Y-120737772D01*
X55250054Y-120690714D01*
X55286207Y-120537109D01*
X55313932Y-120356647D01*
X55422092Y-120335352D01*
X55635102Y-120493935D01*
X55722602Y-120551901D01*
X56025647Y-120659552D01*
X56410102Y-120722652D01*
X56476541Y-120726962D01*
X57035683Y-120664236D01*
X57521481Y-120408463D01*
X57958468Y-119947359D01*
X58070036Y-119740187D01*
X58179291Y-119293756D01*
X58182764Y-119198733D01*
X58848346Y-119198733D01*
X59008685Y-119724330D01*
X59332888Y-120180612D01*
X59813695Y-120522404D01*
X60113399Y-120642912D01*
X60723168Y-120745687D01*
X61296067Y-120668684D01*
X61799097Y-120430893D01*
X62199261Y-120051301D01*
X62463558Y-119548898D01*
X62558990Y-118942672D01*
X63231527Y-118942672D01*
X63258275Y-119272586D01*
X63434591Y-119816324D01*
X63746467Y-120256292D01*
X64159542Y-120570054D01*
X64639454Y-120735177D01*
X65151842Y-120729225D01*
X65662344Y-120529763D01*
X65873263Y-120404210D01*
X66044760Y-120328374D01*
X66112851Y-120370348D01*
X66125000Y-120530172D01*
X66126414Y-120567745D01*
X66203068Y-120710077D01*
X66435201Y-120749138D01*
X66665257Y-120729630D01*
X66818391Y-120676149D01*
X66827395Y-120648918D01*
X66847849Y-120442157D01*
X66865442Y-120062505D01*
X66879206Y-119542621D01*
X66884541Y-119169417D01*
X67779450Y-119169417D01*
X67911241Y-119684926D01*
X68196556Y-120133979D01*
X68634750Y-120471111D01*
X68659840Y-120483839D01*
X69221067Y-120663748D01*
X69811090Y-120684973D01*
X70364476Y-120553400D01*
X70815790Y-120274913D01*
X71011890Y-120040423D01*
X72063278Y-120040423D01*
X72069499Y-120156515D01*
X72237425Y-120315543D01*
X72254500Y-120329103D01*
X72549563Y-120502813D01*
X72894321Y-120636317D01*
X73062413Y-120680856D01*
X73384336Y-120734620D01*
X73672162Y-120706056D01*
X74042377Y-120590518D01*
X74389780Y-120438423D01*
X74764770Y-120143757D01*
X75040093Y-119709923D01*
X75078498Y-119596518D01*
X75868965Y-119596518D01*
X75898431Y-119721315D01*
X76069781Y-119985000D01*
X76343162Y-120249949D01*
X76659738Y-120452475D01*
X76912656Y-120555591D01*
X77539471Y-120675818D01*
X78118930Y-120606485D01*
X78621462Y-120365665D01*
X79017498Y-119971428D01*
X79277468Y-119441848D01*
X79371803Y-118794994D01*
X79347347Y-118550259D01*
X79157880Y-118084953D01*
X78818322Y-117688842D01*
X78373539Y-117388200D01*
X77868396Y-117209305D01*
X77347759Y-117178433D01*
X76856493Y-117321859D01*
X76778389Y-117366751D01*
X76484302Y-117604055D01*
X76224820Y-117902849D01*
X76048026Y-118200527D01*
X76002000Y-118434482D01*
X76097542Y-118528503D01*
X76358740Y-118685051D01*
X76568799Y-118790102D01*
X76743496Y-118877468D01*
X77210129Y-119083369D01*
X77630926Y-119267350D01*
X78026463Y-119462135D01*
X78290782Y-119619328D01*
X78387069Y-119719046D01*
X78384596Y-119749018D01*
X78255590Y-119924745D01*
X77966257Y-120046629D01*
X77565948Y-120092241D01*
X77327404Y-120078134D01*
X76857798Y-119925989D01*
X76463657Y-119585052D01*
X76353297Y-119481602D01*
X76129461Y-119386765D01*
X75945399Y-119425506D01*
X75868965Y-119596518D01*
X75078498Y-119596518D01*
X75160598Y-119354085D01*
X75189007Y-118790102D01*
X75045888Y-118246763D01*
X74748587Y-117778350D01*
X74314450Y-117439144D01*
X73850710Y-117284448D01*
X73312114Y-117230230D01*
X72788144Y-117277107D01*
X72368277Y-117425699D01*
X72245310Y-117500464D01*
X72073840Y-117642302D01*
X72078991Y-117771719D01*
X72246776Y-117948949D01*
X72390735Y-118062272D01*
X72530477Y-118071957D01*
X72741759Y-117951812D01*
X72967708Y-117850444D01*
X73400386Y-117813504D01*
X73843536Y-117924235D01*
X74216058Y-118170604D01*
X74415652Y-118461488D01*
X74502834Y-118837546D01*
X74516482Y-118896418D01*
X74449951Y-119338972D01*
X74216058Y-119714741D01*
X74104464Y-119811894D01*
X73667521Y-120022379D01*
X73173497Y-120065397D01*
X72698173Y-119930193D01*
X72675824Y-119918668D01*
X72438480Y-119811977D01*
X72296058Y-119814436D01*
X72160312Y-119925230D01*
X72063278Y-120040423D01*
X71011890Y-120040423D01*
X71112070Y-119920631D01*
X71337605Y-119395063D01*
X71388117Y-118837546D01*
X71268171Y-118294289D01*
X70982335Y-117811499D01*
X70535175Y-117435383D01*
X70138662Y-117284863D01*
X69596438Y-117225665D01*
X69049378Y-117285266D01*
X68592086Y-117462353D01*
X68311672Y-117678805D01*
X67979021Y-118120891D01*
X67801829Y-118632917D01*
X67779450Y-119169417D01*
X66884541Y-119169417D01*
X66888175Y-118915162D01*
X66891379Y-118212787D01*
X66891379Y-115822414D01*
X66508190Y-115822414D01*
X66125000Y-115822414D01*
X66125000Y-116749718D01*
X66125000Y-117677022D01*
X65714440Y-117396579D01*
X65457035Y-117242624D01*
X65159597Y-117157872D01*
X64775681Y-117165625D01*
X64549546Y-117199859D01*
X64002799Y-117416620D01*
X63587597Y-117794629D01*
X63323865Y-118310956D01*
X63231527Y-118942672D01*
X62558990Y-118942672D01*
X62553671Y-118787116D01*
X62414658Y-118192038D01*
X62093231Y-117712864D01*
X61597512Y-117362940D01*
X61104970Y-117185882D01*
X60486518Y-117147044D01*
X59902452Y-117323538D01*
X59362324Y-117713863D01*
X59048305Y-118120296D01*
X58859133Y-118648997D01*
X58856398Y-118788369D01*
X58848346Y-119198733D01*
X58182764Y-119198733D01*
X58197760Y-118788369D01*
X58125300Y-118310031D01*
X57961770Y-117944750D01*
X57811072Y-117762766D01*
X57342193Y-117379959D01*
X56821424Y-117175088D01*
X56287084Y-117158734D01*
X55777494Y-117341483D01*
X55681845Y-117397086D01*
X55450399Y-117523616D01*
X55334690Y-117574138D01*
X55327839Y-117565357D01*
X55306622Y-117411347D01*
X55291789Y-117105047D01*
X55286207Y-116698276D01*
X55286207Y-115822414D01*
X54900923Y-115822414D01*
X54515638Y-115822414D01*
X45870690Y-115822414D01*
X45870690Y-114508621D01*
X62895259Y-114508621D01*
X79919827Y-114508621D01*
X79919827Y-115822414D01*
X79919827Y-118450000D01*
G37*
X46847164Y-106640000D02*
X47062836Y-106640000D01*
X46847164Y-107360000D02*
X47062836Y-107360000D01*
X51095001Y-93091141D02*
X51095001Y-92783859D01*
X51855001Y-93091141D02*
X51855001Y-92783859D01*
X59355000Y-96596359D02*
X59355000Y-96903641D01*
X58595000Y-96596359D02*
X58595000Y-96903641D01*
G36*
X66218754Y-59596899D02*
G01*
X66218754Y-60243933D01*
X66043711Y-60243933D01*
X65868668Y-60243933D01*
X65868668Y-59596899D01*
X65868668Y-58949865D01*
X66043711Y-58949865D01*
X66218754Y-58949865D01*
X66218754Y-59596899D01*
G37*
G36*
X70066318Y-60760470D02*
G01*
X70105710Y-60761000D01*
X70136735Y-60762027D01*
X70160353Y-60763670D01*
X70177525Y-60766049D01*
X70189212Y-60769285D01*
X70196373Y-60773497D01*
X70199971Y-60778805D01*
X70200964Y-60785330D01*
X70200315Y-60793191D01*
X70198983Y-60802508D01*
X70197204Y-60811553D01*
X70183620Y-60842285D01*
X70158436Y-60874804D01*
X70122127Y-60908458D01*
X70111511Y-60916887D01*
X70055629Y-60954569D01*
X69998104Y-60982935D01*
X69941546Y-61000651D01*
X69930950Y-61002166D01*
X69907798Y-61003681D01*
X69878773Y-61004301D01*
X69847772Y-61003892D01*
X69812905Y-61002181D01*
X69784302Y-60998951D01*
X69759427Y-60993525D01*
X69733801Y-60985168D01*
X69692350Y-60967836D01*
X69644637Y-60942600D01*
X69600783Y-60913862D01*
X69562876Y-60883168D01*
X69533006Y-60852061D01*
X69513260Y-60822086D01*
X69506213Y-60804940D01*
X69503639Y-60785365D01*
X69510921Y-60772546D01*
X69528279Y-60765649D01*
X69529335Y-60765496D01*
X69541815Y-60764721D01*
X69565264Y-60763960D01*
X69598400Y-60763233D01*
X69639940Y-60762556D01*
X69688602Y-60761951D01*
X69743106Y-60761434D01*
X69802168Y-60761025D01*
X69864507Y-60760743D01*
X69888330Y-60760661D01*
X69958589Y-60760421D01*
X70017598Y-60760317D01*
X70066318Y-60760470D01*
G37*
G36*
X65364783Y-58754504D02*
G01*
X65377298Y-58787954D01*
X65391676Y-58826227D01*
X65405262Y-58862247D01*
X65416273Y-58891282D01*
X65438018Y-58948352D01*
X65534560Y-59006935D01*
X65631103Y-59065518D01*
X65631106Y-59142099D01*
X65631110Y-59218681D01*
X65547034Y-59218681D01*
X65462958Y-59218681D01*
X65460541Y-59589084D01*
X65460229Y-59635295D01*
X65459683Y-59707375D01*
X65459110Y-59768573D01*
X65458478Y-59819921D01*
X65457752Y-59862454D01*
X65456900Y-59897203D01*
X65455888Y-59925203D01*
X65454682Y-59947487D01*
X65453250Y-59965087D01*
X65451558Y-59979038D01*
X65449572Y-59990372D01*
X65447259Y-60000123D01*
X65427086Y-60058417D01*
X65396982Y-60114740D01*
X65359129Y-60162650D01*
X65314359Y-60200894D01*
X65309893Y-60203837D01*
X65280109Y-60219686D01*
X65243305Y-60234754D01*
X65204043Y-60247346D01*
X65166883Y-60255764D01*
X65147588Y-60258127D01*
X65113882Y-60260338D01*
X65073863Y-60261536D01*
X65031021Y-60261716D01*
X64988845Y-60260873D01*
X64950825Y-60259002D01*
X64920450Y-60256099D01*
X64904419Y-60253711D01*
X64863242Y-60245923D01*
X64821642Y-60236087D01*
X64783908Y-60225276D01*
X64754332Y-60214564D01*
X64730888Y-60204525D01*
X64730888Y-60074192D01*
X64730910Y-60061956D01*
X64731258Y-60024329D01*
X64731981Y-59991873D01*
X64733011Y-59966421D01*
X64734280Y-59949805D01*
X64735720Y-59943859D01*
X64739372Y-59944449D01*
X64753292Y-59947522D01*
X64774670Y-59952630D01*
X64800650Y-59959104D01*
X64832040Y-59966482D01*
X64898385Y-59977456D01*
X64955680Y-59979850D01*
X65003915Y-59973666D01*
X65043079Y-59958906D01*
X65073160Y-59935572D01*
X65094148Y-59903666D01*
X65095865Y-59899629D01*
X65098154Y-59892742D01*
X65100062Y-59884062D01*
X65101622Y-59872518D01*
X65102871Y-59857039D01*
X65103843Y-59836554D01*
X65104574Y-59809993D01*
X65105098Y-59776283D01*
X65105453Y-59734355D01*
X65105671Y-59683136D01*
X65105790Y-59621557D01*
X65105843Y-59548545D01*
X65105981Y-59218872D01*
X64926249Y-59217214D01*
X64746517Y-59215555D01*
X64744830Y-59082710D01*
X64743143Y-58949865D01*
X64924562Y-58949865D01*
X65105981Y-58949865D01*
X65105981Y-58812331D01*
X65105981Y-58674797D01*
X65220509Y-58674797D01*
X65335037Y-58674797D01*
X65364783Y-58754504D01*
G37*
G36*
X62326221Y-58928876D02*
G01*
X62378396Y-58933929D01*
X62422798Y-58942614D01*
X62460451Y-58953781D01*
X62521666Y-58977992D01*
X62573771Y-59007850D01*
X62618554Y-59044468D01*
X62657804Y-59088961D01*
X62663595Y-59096063D01*
X62675493Y-59107778D01*
X62683987Y-59112405D01*
X62687969Y-59110228D01*
X62692797Y-59102432D01*
X62698746Y-59087709D01*
X62706280Y-59064755D01*
X62715865Y-59032265D01*
X62727964Y-58988937D01*
X62738698Y-58949865D01*
X62875206Y-58949865D01*
X63011715Y-58949865D01*
X63011715Y-59596899D01*
X63011715Y-60243933D01*
X62833902Y-60243933D01*
X62656089Y-60243933D01*
X62653695Y-59867278D01*
X62653311Y-59808603D01*
X62652748Y-59734123D01*
X62652099Y-59670310D01*
X62651284Y-59616078D01*
X62650225Y-59570346D01*
X62648842Y-59532030D01*
X62647053Y-59500047D01*
X62644781Y-59473312D01*
X62641944Y-59450743D01*
X62638463Y-59431257D01*
X62634258Y-59413769D01*
X62629250Y-59397197D01*
X62623358Y-59380457D01*
X62616502Y-59362466D01*
X62601382Y-59329161D01*
X62572648Y-59286361D01*
X62536896Y-59253579D01*
X62493675Y-59230524D01*
X62442531Y-59216904D01*
X62383012Y-59212429D01*
X62381086Y-59212434D01*
X62329235Y-59216847D01*
X62285859Y-59229897D01*
X62250310Y-59252127D01*
X62221942Y-59284081D01*
X62200107Y-59326300D01*
X62184158Y-59379329D01*
X62182283Y-59388687D01*
X62180484Y-59400786D01*
X62178960Y-59415640D01*
X62177689Y-59434223D01*
X62176649Y-59457510D01*
X62175818Y-59486477D01*
X62175175Y-59522097D01*
X62174697Y-59565347D01*
X62174364Y-59617200D01*
X62174152Y-59678631D01*
X62174041Y-59750616D01*
X62174009Y-59834128D01*
X62174009Y-60243933D01*
X61995840Y-60243933D01*
X61817672Y-60243933D01*
X61817697Y-59789134D01*
X61817724Y-59710755D01*
X61817844Y-59627015D01*
X61818110Y-59554062D01*
X61818574Y-59490957D01*
X61819288Y-59436762D01*
X61820305Y-59390540D01*
X61821675Y-59351351D01*
X61823452Y-59318259D01*
X61825688Y-59290324D01*
X61828434Y-59266610D01*
X61831744Y-59246177D01*
X61835668Y-59228089D01*
X61840260Y-59211407D01*
X61845572Y-59195192D01*
X61851655Y-59178507D01*
X61865044Y-59147145D01*
X61899136Y-59090232D01*
X61942860Y-59041231D01*
X61996113Y-59000230D01*
X62058794Y-58967314D01*
X62130800Y-58942571D01*
X62164373Y-58935517D01*
X62215078Y-58929669D01*
X62270405Y-58927455D01*
X62326221Y-58928876D01*
G37*
G36*
X67670349Y-58949511D02*
G01*
X67702556Y-58949751D01*
X67727878Y-58950233D01*
X67744444Y-58950977D01*
X67750381Y-58951999D01*
X67750369Y-58952049D01*
X67747891Y-58958796D01*
X67741364Y-58976137D01*
X67731173Y-59003060D01*
X67717705Y-59038556D01*
X67701345Y-59081611D01*
X67682479Y-59131216D01*
X67661491Y-59186358D01*
X67638768Y-59246027D01*
X67614696Y-59309211D01*
X67589659Y-59374898D01*
X67564043Y-59442078D01*
X67538234Y-59509739D01*
X67512617Y-59576869D01*
X67487578Y-59642458D01*
X67463502Y-59705494D01*
X67440776Y-59764966D01*
X67419783Y-59819862D01*
X67400911Y-59869172D01*
X67384544Y-59911883D01*
X67371068Y-59946985D01*
X67366015Y-59960191D01*
X67356449Y-59985525D01*
X67348782Y-60006264D01*
X67344325Y-60018878D01*
X67340952Y-60028287D01*
X67333749Y-60047495D01*
X67323846Y-60073498D01*
X67312227Y-60103753D01*
X67299873Y-60135719D01*
X67287767Y-60166856D01*
X67276892Y-60194620D01*
X67268230Y-60216471D01*
X67262764Y-60229867D01*
X67256778Y-60243933D01*
X67076018Y-60243933D01*
X67046692Y-60243921D01*
X67000292Y-60243801D01*
X66964311Y-60243486D01*
X66937389Y-60242895D01*
X66918165Y-60241948D01*
X66905278Y-60240565D01*
X66897366Y-60238665D01*
X66893068Y-60236168D01*
X66891025Y-60232993D01*
X66890490Y-60231597D01*
X66886165Y-60220276D01*
X66877873Y-60198552D01*
X66865965Y-60167348D01*
X66850794Y-60127586D01*
X66832711Y-60080188D01*
X66812068Y-60026077D01*
X66789217Y-59966173D01*
X66764508Y-59901399D01*
X66738295Y-59832678D01*
X66710928Y-59760930D01*
X66682759Y-59687078D01*
X66654140Y-59612044D01*
X66625423Y-59536751D01*
X66596959Y-59462119D01*
X66569100Y-59389071D01*
X66542197Y-59318529D01*
X66516603Y-59251415D01*
X66492669Y-59188651D01*
X66470747Y-59131159D01*
X66466327Y-59119561D01*
X66446772Y-59068053D01*
X66431426Y-59027233D01*
X66419997Y-58996306D01*
X66412194Y-58974476D01*
X66407725Y-58960946D01*
X66406301Y-58954920D01*
X66406848Y-58954529D01*
X66416267Y-58953281D01*
X66436184Y-58952164D01*
X66465056Y-58951222D01*
X66501339Y-58950496D01*
X66543489Y-58950030D01*
X66589961Y-58949865D01*
X66773622Y-58949865D01*
X66795712Y-59013943D01*
X66797817Y-59020061D01*
X66807021Y-59046986D01*
X66819556Y-59083830D01*
X66834926Y-59129122D01*
X66852632Y-59181387D01*
X66872176Y-59239153D01*
X66893060Y-59300947D01*
X66914786Y-59365296D01*
X66936857Y-59430727D01*
X66958774Y-59495766D01*
X66980040Y-59558942D01*
X67000156Y-59618779D01*
X67011301Y-59652641D01*
X67030927Y-59716366D01*
X67046891Y-59774133D01*
X67058852Y-59824569D01*
X67066469Y-59866300D01*
X67069403Y-59897955D01*
X67070490Y-59918143D01*
X67073188Y-59932559D01*
X67076783Y-59935627D01*
X67080620Y-59926977D01*
X67084047Y-59906239D01*
X67087306Y-59880219D01*
X67101161Y-59801973D01*
X67121935Y-59717982D01*
X67150096Y-59626255D01*
X67154071Y-59614317D01*
X67168666Y-59570659D01*
X67185132Y-59521638D01*
X67203050Y-59468483D01*
X67221999Y-59412422D01*
X67241563Y-59354685D01*
X67261320Y-59296503D01*
X67280853Y-59239103D01*
X67299741Y-59183715D01*
X67317567Y-59131570D01*
X67333910Y-59083895D01*
X67348352Y-59041920D01*
X67360474Y-59006875D01*
X67369856Y-58979990D01*
X67376080Y-58962492D01*
X67378726Y-58955613D01*
X67379487Y-58955264D01*
X67389435Y-58954140D01*
X67409342Y-58953094D01*
X67437338Y-58952146D01*
X67471549Y-58951312D01*
X67510106Y-58950612D01*
X67551136Y-58950064D01*
X67592767Y-58949686D01*
X67633129Y-58949495D01*
X67670349Y-58949511D01*
G37*
G36*
X69034309Y-59498025D02*
G01*
X69038798Y-59603150D01*
X69038730Y-59618480D01*
X69034519Y-59708172D01*
X69023442Y-59788904D01*
X69005011Y-59862264D01*
X68978742Y-59929834D01*
X68944150Y-59993200D01*
X68900749Y-60053946D01*
X68893082Y-60063201D01*
X68846342Y-60109561D01*
X68789982Y-60151711D01*
X68726137Y-60188545D01*
X68656944Y-60218956D01*
X68584539Y-60241833D01*
X68511057Y-60256071D01*
X68496846Y-60257578D01*
X68462662Y-60259748D01*
X68420863Y-60261119D01*
X68374604Y-60261694D01*
X68327039Y-60261472D01*
X68281324Y-60260454D01*
X68240613Y-60258640D01*
X68208060Y-60256031D01*
X68172478Y-60251326D01*
X68089973Y-60234678D01*
X68009699Y-60210887D01*
X67936365Y-60181247D01*
X67919173Y-60173159D01*
X67919173Y-60036629D01*
X67919323Y-59998769D01*
X67920038Y-59955777D01*
X67921339Y-59924922D01*
X67923219Y-59906324D01*
X67925673Y-59900098D01*
X67927716Y-59900400D01*
X67939474Y-59904559D01*
X67955590Y-59912044D01*
X67972038Y-59919686D01*
X68005240Y-59932839D01*
X68045024Y-59946721D01*
X68087966Y-59960218D01*
X68130639Y-59972217D01*
X68169619Y-59981605D01*
X68192765Y-59986208D01*
X68222873Y-59990804D01*
X68254734Y-59993781D01*
X68291927Y-59995445D01*
X68338026Y-59996104D01*
X68342385Y-59996125D01*
X68380952Y-59996115D01*
X68409880Y-59995523D01*
X68431772Y-59994099D01*
X68449234Y-59991592D01*
X68464873Y-59987751D01*
X68481293Y-59982326D01*
X68519795Y-59965693D01*
X68568849Y-59933649D01*
X68609439Y-59892539D01*
X68641386Y-59842606D01*
X68664508Y-59784093D01*
X68678627Y-59717241D01*
X68682627Y-59687546D01*
X68265757Y-59687546D01*
X67848888Y-59687546D01*
X67852034Y-59532820D01*
X67852136Y-59527861D01*
X67853295Y-59478331D01*
X67854580Y-59439559D01*
X68181738Y-59439559D01*
X68182341Y-59441897D01*
X68185182Y-59444115D01*
X68191410Y-59445889D01*
X68202163Y-59447269D01*
X68218583Y-59448303D01*
X68241807Y-59449039D01*
X68272976Y-59449527D01*
X68313230Y-59449816D01*
X68363707Y-59449953D01*
X68425548Y-59449988D01*
X68669357Y-59449988D01*
X68669265Y-59429670D01*
X68668976Y-59422524D01*
X68665058Y-59394409D01*
X68657615Y-59361940D01*
X68647995Y-59330412D01*
X68637546Y-59305117D01*
X68625668Y-59285350D01*
X68598548Y-59252263D01*
X68566129Y-59222996D01*
X68532614Y-59201694D01*
X68529159Y-59200022D01*
X68513159Y-59192997D01*
X68498177Y-59188470D01*
X68480834Y-59185893D01*
X68457751Y-59184723D01*
X68425548Y-59184413D01*
X68421559Y-59184409D01*
X68390280Y-59184705D01*
X68367728Y-59185975D01*
X68350493Y-59188741D01*
X68335169Y-59193525D01*
X68318346Y-59200851D01*
X68317881Y-59201070D01*
X68274948Y-59228077D01*
X68239449Y-59264456D01*
X68213069Y-59308482D01*
X68208614Y-59319256D01*
X68198616Y-59349387D01*
X68190021Y-59382755D01*
X68184004Y-59414448D01*
X68181738Y-59439559D01*
X67854580Y-59439559D01*
X67854596Y-59439071D01*
X67856206Y-59408026D01*
X67858295Y-59383144D01*
X67861030Y-59362374D01*
X67864582Y-59343662D01*
X67869119Y-59324957D01*
X67870506Y-59319758D01*
X67897359Y-59242182D01*
X67933584Y-59171670D01*
X67978556Y-59108976D01*
X68031647Y-59054855D01*
X68092230Y-59010060D01*
X68159679Y-58975347D01*
X68186906Y-58964516D01*
X68229371Y-58950236D01*
X68271223Y-58940085D01*
X68315707Y-58933494D01*
X68366067Y-58929894D01*
X68425548Y-58928717D01*
X68426758Y-58928714D01*
X68490741Y-58929981D01*
X68545499Y-58934347D01*
X68593984Y-58942293D01*
X68639147Y-58954300D01*
X68683940Y-58970850D01*
X68753277Y-59004736D01*
X68820476Y-59049762D01*
X68878584Y-59103139D01*
X68927646Y-59164945D01*
X68967706Y-59235258D01*
X68998807Y-59314157D01*
X69020993Y-59401720D01*
X69027667Y-59449988D01*
X69034309Y-59498025D01*
G37*
G36*
X70581527Y-59370318D02*
G01*
X70573120Y-59459365D01*
X70559104Y-59524357D01*
X70530279Y-59607815D01*
X70490486Y-59686128D01*
X70440255Y-59758559D01*
X70380118Y-59824371D01*
X70310603Y-59882827D01*
X70232242Y-59933189D01*
X70204110Y-59948878D01*
X70200984Y-60236616D01*
X70200713Y-60261476D01*
X70199988Y-60324904D01*
X70199301Y-60377352D01*
X70198590Y-60419949D01*
X70197797Y-60453825D01*
X70196863Y-60480108D01*
X70195729Y-60499928D01*
X70194334Y-60514414D01*
X70192620Y-60524696D01*
X70190527Y-60531903D01*
X70187997Y-60537164D01*
X70184969Y-60541608D01*
X70178884Y-60549223D01*
X70150833Y-60573978D01*
X70118947Y-60587755D01*
X70113093Y-60588583D01*
X70094360Y-60589806D01*
X70065867Y-60590839D01*
X70029326Y-60591680D01*
X69986448Y-60592329D01*
X69938945Y-60592784D01*
X69888529Y-60593045D01*
X69836910Y-60593111D01*
X69785801Y-60592981D01*
X69736912Y-60592654D01*
X69691957Y-60592129D01*
X69652645Y-60591406D01*
X69620690Y-60590482D01*
X69597801Y-60589359D01*
X69585692Y-60588033D01*
X69562993Y-60580379D01*
X69534240Y-60561431D01*
X69514042Y-60535648D01*
X69503369Y-60505074D01*
X69503188Y-60471753D01*
X69514469Y-60437731D01*
X69515630Y-60435519D01*
X69532742Y-60412065D01*
X69556838Y-60395533D01*
X69559584Y-60394161D01*
X69567686Y-60390478D01*
X69576315Y-60387585D01*
X69586967Y-60385389D01*
X69601139Y-60383792D01*
X69620329Y-60382700D01*
X69646033Y-60382017D01*
X69679749Y-60381648D01*
X69722974Y-60381496D01*
X69777204Y-60381467D01*
X69969677Y-60381467D01*
X69969677Y-60194736D01*
X69969677Y-60008006D01*
X69886845Y-60004773D01*
X69872431Y-60004103D01*
X69809742Y-59998021D01*
X69752379Y-59986252D01*
X69695739Y-59967631D01*
X69635220Y-59940991D01*
X69620406Y-59933575D01*
X69545334Y-59888173D01*
X69478591Y-59834408D01*
X69420464Y-59773329D01*
X69371240Y-59705987D01*
X69331204Y-59633430D01*
X69300643Y-59556707D01*
X69279843Y-59476869D01*
X69269091Y-59394965D01*
X69268804Y-59337956D01*
X69574589Y-59337956D01*
X69577688Y-59398855D01*
X69591800Y-59459978D01*
X69617531Y-59520105D01*
X69643202Y-59558682D01*
X69680850Y-59598948D01*
X69725552Y-59634691D01*
X69774454Y-59663659D01*
X69824699Y-59683597D01*
X69877729Y-59694861D01*
X69941743Y-59697209D01*
X70004754Y-59687388D01*
X70065784Y-59665567D01*
X70123851Y-59631916D01*
X70137039Y-59622179D01*
X70183649Y-59578448D01*
X70220728Y-59527575D01*
X70247750Y-59470892D01*
X70264188Y-59409735D01*
X70269514Y-59345434D01*
X70263202Y-59279324D01*
X70254101Y-59242703D01*
X70230546Y-59186889D01*
X70197359Y-59136599D01*
X70155924Y-59092804D01*
X70107621Y-59056475D01*
X70053832Y-59028583D01*
X69995938Y-59010100D01*
X69935321Y-59001996D01*
X69873362Y-59005244D01*
X69810350Y-59020410D01*
X69753328Y-59045585D01*
X69703076Y-59079522D01*
X69660201Y-59121002D01*
X69625309Y-59168805D01*
X69599005Y-59221712D01*
X69581897Y-59278502D01*
X69574589Y-59337956D01*
X69268804Y-59337956D01*
X69268673Y-59312044D01*
X69278874Y-59229155D01*
X69299983Y-59147349D01*
X69332284Y-59067674D01*
X69376065Y-58991180D01*
X69388360Y-58972490D01*
X69400883Y-58952887D01*
X69409123Y-58939279D01*
X69411721Y-58933848D01*
X69405994Y-58931381D01*
X69390816Y-58925411D01*
X69368565Y-58916871D01*
X69341603Y-58906675D01*
X69334394Y-58903935D01*
X69295357Y-58887445D01*
X69266725Y-58871543D01*
X69246841Y-58854892D01*
X69234051Y-58836160D01*
X69226700Y-58814010D01*
X69224724Y-58779767D01*
X69233908Y-58746463D01*
X69253733Y-58717929D01*
X69283261Y-58696119D01*
X69284027Y-58695724D01*
X69297672Y-58690337D01*
X69313088Y-58687963D01*
X69331899Y-58688910D01*
X69355730Y-58693483D01*
X69386209Y-58701989D01*
X69424958Y-58714735D01*
X69473605Y-58732028D01*
X69487193Y-58736958D01*
X69525398Y-58750676D01*
X69554130Y-58760595D01*
X69575111Y-58767162D01*
X69590064Y-58770819D01*
X69600710Y-58772012D01*
X69608772Y-58771186D01*
X69615971Y-58768785D01*
X69628596Y-58763580D01*
X69681184Y-58742640D01*
X69725760Y-58726563D01*
X69764931Y-58714738D01*
X69801302Y-58706558D01*
X69837477Y-58701412D01*
X69876063Y-58698692D01*
X69919665Y-58697789D01*
X69934489Y-58697837D01*
X70013071Y-58702434D01*
X70085151Y-58714924D01*
X70153994Y-58736048D01*
X70222865Y-58766546D01*
X70263648Y-58789053D01*
X70335959Y-58839336D01*
X70400005Y-58898075D01*
X70455266Y-58964239D01*
X70501219Y-59036795D01*
X70537343Y-59114713D01*
X70563117Y-59196961D01*
X70578019Y-59282506D01*
X70580533Y-59345434D01*
X70581527Y-59370318D01*
G37*
G36*
X64548772Y-59632362D02*
G01*
X64539011Y-59716666D01*
X64517850Y-59800508D01*
X64484853Y-59882925D01*
X64469210Y-59913424D01*
X64421830Y-59987804D01*
X64365377Y-60055015D01*
X64301004Y-60114201D01*
X64229862Y-60164503D01*
X64153103Y-60205063D01*
X64071877Y-60235024D01*
X63987337Y-60253528D01*
X63906937Y-60260664D01*
X63816273Y-60257560D01*
X63728260Y-60242625D01*
X63643727Y-60216127D01*
X63563507Y-60178335D01*
X63488431Y-60129518D01*
X63419330Y-60069943D01*
X63367333Y-60012405D01*
X63317309Y-59940917D01*
X63277714Y-59864750D01*
X63248576Y-59785017D01*
X63229924Y-59702827D01*
X63222057Y-59622060D01*
X63558474Y-59622060D01*
X63568708Y-59682026D01*
X63589724Y-59738552D01*
X63620748Y-59790286D01*
X63661005Y-59835879D01*
X63709719Y-59873979D01*
X63766117Y-59903236D01*
X63793324Y-59912078D01*
X63836863Y-59920356D01*
X63883385Y-59923946D01*
X63928167Y-59922550D01*
X63966485Y-59915869D01*
X64024026Y-59894241D01*
X64077844Y-59862137D01*
X64123826Y-59821580D01*
X64161103Y-59773697D01*
X64188806Y-59719617D01*
X64206065Y-59660467D01*
X64212011Y-59597375D01*
X64210417Y-59564833D01*
X64198784Y-59504952D01*
X64176845Y-59449701D01*
X64145754Y-59400056D01*
X64106665Y-59356997D01*
X64060731Y-59321502D01*
X64009105Y-59294550D01*
X63952943Y-59277118D01*
X63893396Y-59270187D01*
X63831619Y-59274733D01*
X63790053Y-59284758D01*
X63733822Y-59308484D01*
X63683090Y-59341973D01*
X63639179Y-59383891D01*
X63603413Y-59432905D01*
X63577115Y-59487682D01*
X63561608Y-59546886D01*
X63559798Y-59560002D01*
X63558474Y-59622060D01*
X63222057Y-59622060D01*
X63221788Y-59619294D01*
X63224196Y-59535529D01*
X63237177Y-59452643D01*
X63260761Y-59371748D01*
X63294976Y-59293957D01*
X63339851Y-59220380D01*
X63395415Y-59152129D01*
X63427863Y-59119383D01*
X63497096Y-59061181D01*
X63570841Y-59013689D01*
X63648164Y-58977466D01*
X63728131Y-58953069D01*
X63772507Y-58943042D01*
X63776807Y-58813608D01*
X63777743Y-58786954D01*
X63780745Y-58719591D01*
X63784498Y-58662407D01*
X63789284Y-58613691D01*
X63795383Y-58571732D01*
X63803076Y-58534819D01*
X63812644Y-58501240D01*
X63824367Y-58469283D01*
X63838525Y-58437238D01*
X63849536Y-58415305D01*
X63865599Y-58388983D01*
X63885066Y-58364389D01*
X63911260Y-58336939D01*
X63918736Y-58329678D01*
X63953954Y-58299511D01*
X63992116Y-58273743D01*
X64034579Y-58251916D01*
X64082701Y-58233572D01*
X64137838Y-58218253D01*
X64201349Y-58205500D01*
X64274591Y-58194856D01*
X64358922Y-58185862D01*
X64369272Y-58185015D01*
X64390345Y-58183744D01*
X64416805Y-58182640D01*
X64449301Y-58181697D01*
X64488478Y-58180910D01*
X64534983Y-58180275D01*
X64589464Y-58179785D01*
X64652567Y-58179436D01*
X64724938Y-58179221D01*
X64807225Y-58179136D01*
X64900074Y-58179176D01*
X65004133Y-58179335D01*
X65120047Y-58179607D01*
X65147160Y-58179676D01*
X65251102Y-58179876D01*
X65347496Y-58179954D01*
X65435848Y-58179912D01*
X65515661Y-58179753D01*
X65586440Y-58179481D01*
X65647689Y-58179099D01*
X65698914Y-58178609D01*
X65739617Y-58178014D01*
X65769305Y-58177318D01*
X65787481Y-58176522D01*
X65793650Y-58175631D01*
X65793654Y-58175375D01*
X65798079Y-58163170D01*
X65809392Y-58145056D01*
X65825485Y-58123663D01*
X65844254Y-58101621D01*
X65863593Y-58081556D01*
X65881394Y-58066100D01*
X65918243Y-58042090D01*
X65960876Y-58023996D01*
X66007551Y-58014653D01*
X66061474Y-58013117D01*
X66083728Y-58014081D01*
X66107663Y-58016246D01*
X66126900Y-58020323D01*
X66146012Y-58027384D01*
X66169570Y-58038503D01*
X66205593Y-58059575D01*
X66247837Y-58095070D01*
X66281035Y-58136501D01*
X66305179Y-58182415D01*
X66320265Y-58231365D01*
X66326285Y-58281899D01*
X66323233Y-58332568D01*
X66311104Y-58381922D01*
X66289891Y-58428511D01*
X66259589Y-58470884D01*
X66220190Y-58507592D01*
X66171689Y-58537184D01*
X66128343Y-58553700D01*
X66073859Y-58563605D01*
X66019161Y-58562808D01*
X65965970Y-58551865D01*
X65916004Y-58531332D01*
X65870984Y-58501765D01*
X65832630Y-58463723D01*
X65802660Y-58417760D01*
X65786816Y-58386492D01*
X65088498Y-58389059D01*
X65054883Y-58389183D01*
X64943438Y-58389621D01*
X64843520Y-58390072D01*
X64754364Y-58390566D01*
X64675209Y-58391130D01*
X64605292Y-58391793D01*
X64543851Y-58392583D01*
X64490124Y-58393527D01*
X64443347Y-58394654D01*
X64402758Y-58395991D01*
X64367595Y-58397568D01*
X64337096Y-58399412D01*
X64310498Y-58401551D01*
X64287038Y-58404013D01*
X64265954Y-58406826D01*
X64246484Y-58410019D01*
X64227865Y-58413620D01*
X64209335Y-58417655D01*
X64190130Y-58422155D01*
X64173573Y-58426316D01*
X64132529Y-58439014D01*
X64098046Y-58454313D01*
X64069546Y-58473305D01*
X64046447Y-58497081D01*
X64028170Y-58526735D01*
X64014135Y-58563358D01*
X64003763Y-58608043D01*
X63996474Y-58661882D01*
X63991688Y-58725967D01*
X63988825Y-58801391D01*
X63988653Y-58808082D01*
X63987563Y-58852196D01*
X63986920Y-58885521D01*
X63986823Y-58909572D01*
X63987366Y-58925858D01*
X63988645Y-58935894D01*
X63990758Y-58941190D01*
X63993799Y-58943259D01*
X63997865Y-58943613D01*
X64001694Y-58943957D01*
X64017370Y-58946971D01*
X64039960Y-58952421D01*
X64065963Y-58959490D01*
X64115494Y-58975758D01*
X64195707Y-59011723D01*
X64268888Y-59056854D01*
X64334600Y-59110189D01*
X64392407Y-59170765D01*
X64441871Y-59237619D01*
X64482556Y-59309788D01*
X64514026Y-59386310D01*
X64535843Y-59466221D01*
X64547571Y-59548560D01*
X64548271Y-59597375D01*
X64548772Y-59632362D01*
G37*
X62315000Y-95460000D02*
X62740000Y-95460000D01*
X68310000Y-95460000D02*
X68310000Y-97000000D01*
X68735000Y-95460000D02*
X68310000Y-95460000D01*
X62315000Y-92700000D02*
X62315000Y-95460000D01*
X62315000Y-92700000D02*
X62315000Y-89940000D01*
X68735000Y-92700000D02*
X68735000Y-95460000D01*
X68735000Y-92700000D02*
X68735000Y-89940000D01*
X62315000Y-89940000D02*
X62740000Y-89940000D01*
X68735000Y-89940000D02*
X68310000Y-89940000D01*
X56235000Y-96542164D02*
X56235000Y-96757836D01*
X55515000Y-96542164D02*
X55515000Y-96757836D01*
X67200000Y-123750000D02*
G75*
G03*
X65300000Y-123750000I-950000J0D01*
G01*
X65300000Y-123750000D02*
G75*
G03*
X67200000Y-123750000I950000J0D01*
G01*
X60555000Y-96596359D02*
X60555000Y-96903641D01*
X59795000Y-96596359D02*
X59795000Y-96903641D01*
X54215000Y-93145336D02*
X54215000Y-92929664D01*
X54935000Y-93145336D02*
X54935000Y-92929664D01*
X38935000Y-111990000D02*
X38285000Y-111990000D01*
X38935000Y-111990000D02*
X39585000Y-111990000D01*
X38935000Y-115110000D02*
X37260000Y-115110000D01*
X38935000Y-115110000D02*
X39585000Y-115110000D01*
X57788000Y-87933641D02*
X57788000Y-87626359D01*
X58548000Y-87933641D02*
X58548000Y-87626359D01*
X58597000Y-81851000D02*
X58597000Y-76341000D01*
X61897000Y-81851000D02*
X58597000Y-81851000D01*
X61897000Y-81851000D02*
X61897000Y-76341000D01*
X53666359Y-110695000D02*
X53973641Y-110695000D01*
X53666359Y-111455000D02*
X53973641Y-111455000D01*
X78062500Y-124614762D02*
X77462500Y-124614762D01*
X76762500Y-125264762D02*
X76762500Y-128064762D01*
X78762500Y-128064762D02*
X78762500Y-125264762D01*
X77462500Y-128714762D02*
X78062500Y-128714762D01*
X78762500Y-125314762D02*
G75*
G03*
X78062500Y-124614762I-699999J1D01*
G01*
X77462500Y-124614762D02*
G75*
G03*
X76762500Y-125314762I-1J-699999D01*
G01*
X78062500Y-128714762D02*
G75*
G03*
X78762500Y-128014762I0J700000D01*
G01*
X76762500Y-128014762D02*
G75*
G03*
X77462500Y-128714762I700000J0D01*
G01*
X73607836Y-90060000D02*
X73392164Y-90060000D01*
X73607836Y-89340000D02*
X73392164Y-89340000D01*
X53973641Y-112705000D02*
X53666359Y-112705000D01*
X53973641Y-111945000D02*
X53666359Y-111945000D01*
X57335000Y-96542164D02*
X57335000Y-96757836D01*
X56615000Y-96542164D02*
X56615000Y-96757836D01*
X62216359Y-85847000D02*
X62523641Y-85847000D01*
X62216359Y-86607000D02*
X62523641Y-86607000D01*
X52735000Y-87225000D02*
X52735000Y-86575000D01*
X52735000Y-87225000D02*
X52735000Y-87875000D01*
X49615000Y-87225000D02*
X49615000Y-85550000D01*
X49615000Y-87225000D02*
X49615000Y-87875000D01*
X64353641Y-106105000D02*
X64046359Y-106105000D01*
X64353641Y-105345000D02*
X64046359Y-105345000D01*
X79310000Y-69922164D02*
X79310000Y-70137836D01*
X78590000Y-69922164D02*
X78590000Y-70137836D01*
X57615000Y-102650000D02*
X57615000Y-103300000D01*
X57615000Y-102650000D02*
X57615000Y-102000000D01*
X60735000Y-102650000D02*
X60735000Y-104325000D01*
X60735000Y-102650000D02*
X60735000Y-102000000D01*
X76060000Y-94100000D02*
X76060000Y-92150000D01*
X76060000Y-94100000D02*
X76060000Y-96050000D01*
X70940000Y-94100000D02*
X70940000Y-90650000D01*
X70940000Y-94100000D02*
X70940000Y-96050000D01*
X66391000Y-77723500D02*
X66391000Y-81633500D01*
X66391000Y-81633500D02*
X64521000Y-81633500D01*
X64521000Y-81633500D02*
X64521000Y-77723500D01*
X49895001Y-93091141D02*
X49895001Y-92783859D01*
X50655001Y-93091141D02*
X50655001Y-92783859D01*
D14*
X62885000Y-82737000D02*
G75*
G03*
X61585000Y-82737000I-650000J0D01*
G01*
X61585000Y-82737000D02*
G75*
G03*
X62885000Y-82737000I650000J0D01*
G01*
D13*
X59187000Y-82011000D02*
X59187000Y-86021000D01*
X59187000Y-82011000D02*
X61187000Y-82011000D01*
X61187000Y-82011000D02*
X61187000Y-86021000D01*
X79260000Y-73640000D02*
X79260000Y-72840000D01*
X79260000Y-73640000D02*
X79260000Y-74440000D01*
X76140000Y-73640000D02*
X76140000Y-71840000D01*
X76140000Y-73640000D02*
X76140000Y-74440000D01*
X55815000Y-94457836D02*
X55815000Y-94242164D01*
X56535000Y-94457836D02*
X56535000Y-94242164D01*
X94280000Y-69720000D02*
X94280000Y-82720000D01*
X84490000Y-69750000D02*
X94280000Y-69720000D01*
X80390000Y-69750000D02*
X84490000Y-69750000D01*
X80390000Y-72100000D02*
X80390000Y-69750000D01*
X80400000Y-79700000D02*
X81030000Y-79700000D01*
X84490000Y-82750000D02*
X94280000Y-82720000D01*
X84490000Y-82750000D02*
X84000000Y-82750000D01*
X84000000Y-82750000D02*
X80400000Y-82750000D01*
X80400000Y-82750000D02*
X80400000Y-79700000D01*
X70085000Y-89492164D02*
X70085000Y-89707836D01*
X69365000Y-89492164D02*
X69365000Y-89707836D01*
X73140000Y-104032836D02*
X73140000Y-103817164D01*
X73860000Y-104032836D02*
X73860000Y-103817164D01*
X66507836Y-107685000D02*
X66292164Y-107685000D01*
X66507836Y-106965000D02*
X66292164Y-106965000D01*
X59121359Y-98470000D02*
X59428641Y-98470000D01*
X59121359Y-99230000D02*
X59428641Y-99230000D01*
X50745000Y-102341141D02*
X50745000Y-102033859D01*
X51505000Y-102341141D02*
X51505000Y-102033859D01*
X50190000Y-97437500D02*
X50190000Y-98937500D01*
X50190000Y-97437500D02*
X50190000Y-95937500D01*
X53410000Y-97437500D02*
X53410000Y-100362500D01*
X53410000Y-97437500D02*
X53410000Y-95937500D01*
X69100000Y-106485000D02*
X71050000Y-106485000D01*
X69100000Y-106485000D02*
X67150000Y-106485000D01*
X69100000Y-101365000D02*
X72550000Y-101365000D01*
X69100000Y-101365000D02*
X67150000Y-101365000D01*
X42877500Y-113796359D02*
X42877500Y-114103641D01*
X42117500Y-113796359D02*
X42117500Y-114103641D01*
X72780001Y-98846359D02*
X72780001Y-99153641D01*
X72020001Y-98846359D02*
X72020001Y-99153641D01*
X58222000Y-74831000D02*
X58222000Y-80341000D01*
X54922000Y-74831000D02*
X58222000Y-74831000D01*
X54922000Y-74831000D02*
X54922000Y-80341000D01*
D14*
X59650000Y-66450000D02*
G75*
G03*
X58350000Y-66450000I-650000J0D01*
G01*
X58350000Y-66450000D02*
G75*
G03*
X59650000Y-66450000I650000J0D01*
G01*
D13*
X44751141Y-115230000D02*
X44443859Y-115230000D01*
X44751141Y-114470000D02*
X44443859Y-114470000D01*
X54635000Y-95229664D02*
X54635000Y-95445336D01*
X53915000Y-95229664D02*
X53915000Y-95445336D01*
D15*
X85662000Y-98025000D02*
X83562000Y-98025000D01*
X91562000Y-98025000D02*
X88662000Y-98025000D01*
X94262000Y-98025000D02*
X94262000Y-84925000D01*
X80212000Y-97351000D02*
X80212000Y-96349000D01*
X80212000Y-90601000D02*
X80212000Y-85599000D01*
D11*
X94812000Y-93855000D02*
G75*
G03*
X94612000Y-93855000I-100000J0D01*
G01*
X94612000Y-93855000D02*
G75*
G03*
X94812000Y-93855000I100000J0D01*
G01*
D13*
X60260000Y-92250000D02*
X60260000Y-90750000D01*
X60260000Y-92250000D02*
X60260000Y-93750000D01*
X57040000Y-92250000D02*
X57040000Y-89325000D01*
X57040000Y-92250000D02*
X57040000Y-93750000D01*
M02*
