%TF.GenerationSoftware,KiCad,Pcbnew,7.0.2*%
%TF.CreationDate,2023-12-12T15:06:56+03:00*%
%TF.ProjectId,BIM_PCB,42494d5f-5043-4422-9e6b-696361645f70,rev?*%
%TF.SameCoordinates,Original*%
%TF.FileFunction,Paste,Top*%
%TF.FilePolarity,Positive*%
%FSLAX46Y46*%
G04 Gerber Fmt 4.6, Leading zero omitted, Abs format (unit mm)*
G04 Created by KiCad (PCBNEW 7.0.2) date 2023-12-12 15:06:56*
%MOMM*%
%LPD*%
G01*
G04 APERTURE LIST*
G04 Aperture macros list*
%AMRoundRect*
0 Rectangle with rounded corners*
0 $1 Rounding radius*
0 $2 $3 $4 $5 $6 $7 $8 $9 X,Y pos of 4 corners*
0 Add a 4 corners polygon primitive as box body*
4,1,4,$2,$3,$4,$5,$6,$7,$8,$9,$2,$3,0*
0 Add four circle primitives for the rounded corners*
1,1,$1+$1,$2,$3*
1,1,$1+$1,$4,$5*
1,1,$1+$1,$6,$7*
1,1,$1+$1,$8,$9*
0 Add four rect primitives between the rounded corners*
20,1,$1+$1,$2,$3,$4,$5,0*
20,1,$1+$1,$4,$5,$6,$7,0*
20,1,$1+$1,$6,$7,$8,$9,0*
20,1,$1+$1,$8,$9,$2,$3,0*%
%AMRotRect*
0 Rectangle, with rotation*
0 The origin of the aperture is its center*
0 $1 length*
0 $2 width*
0 $3 Rotation angle, in degrees counterclockwise*
0 Add horizontal line*
21,1,$1,$2,0,0,$3*%
G04 Aperture macros list end*
%ADD10RoundRect,0.150000X0.512500X0.150000X-0.512500X0.150000X-0.512500X-0.150000X0.512500X-0.150000X0*%
%ADD11RoundRect,0.135000X0.185000X-0.135000X0.185000X0.135000X-0.185000X0.135000X-0.185000X-0.135000X0*%
%ADD12RoundRect,0.135000X0.135000X0.185000X-0.135000X0.185000X-0.135000X-0.185000X0.135000X-0.185000X0*%
%ADD13RoundRect,0.225000X0.375000X-0.225000X0.375000X0.225000X-0.375000X0.225000X-0.375000X-0.225000X0*%
%ADD14RoundRect,0.150000X-0.587500X-0.150000X0.587500X-0.150000X0.587500X0.150000X-0.587500X0.150000X0*%
%ADD15RoundRect,0.075000X-0.662500X-0.075000X0.662500X-0.075000X0.662500X0.075000X-0.662500X0.075000X0*%
%ADD16RoundRect,0.075000X-0.075000X-0.662500X0.075000X-0.662500X0.075000X0.662500X-0.075000X0.662500X0*%
%ADD17R,1.950000X3.500000*%
%ADD18R,0.800000X3.400000*%
%ADD19R,1.050000X1.000000*%
%ADD20R,2.200000X1.050000*%
%ADD21RoundRect,0.135000X-0.185000X0.135000X-0.185000X-0.135000X0.185000X-0.135000X0.185000X0.135000X0*%
%ADD22RoundRect,0.140000X0.170000X-0.140000X0.170000X0.140000X-0.170000X0.140000X-0.170000X-0.140000X0*%
%ADD23RoundRect,0.135000X-0.135000X-0.185000X0.135000X-0.185000X0.135000X0.185000X-0.135000X0.185000X0*%
%ADD24RoundRect,0.225000X0.225000X0.250000X-0.225000X0.250000X-0.225000X-0.250000X0.225000X-0.250000X0*%
%ADD25RoundRect,0.225000X-0.225000X-0.375000X0.225000X-0.375000X0.225000X0.375000X-0.225000X0.375000X0*%
%ADD26RoundRect,0.140000X-0.140000X-0.170000X0.140000X-0.170000X0.140000X0.170000X-0.140000X0.170000X0*%
%ADD27RoundRect,0.147500X0.172500X-0.147500X0.172500X0.147500X-0.172500X0.147500X-0.172500X-0.147500X0*%
%ADD28RoundRect,0.140000X0.140000X0.170000X-0.140000X0.170000X-0.140000X-0.170000X0.140000X-0.170000X0*%
%ADD29R,1.600000X2.500000*%
%ADD30RoundRect,0.218750X0.218750X0.256250X-0.218750X0.256250X-0.218750X-0.256250X0.218750X-0.256250X0*%
%ADD31RoundRect,0.140000X-0.170000X0.140000X-0.170000X-0.140000X0.170000X-0.140000X0.170000X0.140000X0*%
%ADD32RoundRect,0.200000X-0.200000X-0.275000X0.200000X-0.275000X0.200000X0.275000X-0.200000X0.275000X0*%
%ADD33R,1.000000X1.800000*%
%ADD34RoundRect,0.147500X0.147500X0.172500X-0.147500X0.172500X-0.147500X-0.172500X0.147500X-0.172500X0*%
%ADD35RoundRect,0.225000X0.225000X0.375000X-0.225000X0.375000X-0.225000X-0.375000X0.225000X-0.375000X0*%
%ADD36RoundRect,0.225000X-0.225000X-0.250000X0.225000X-0.250000X0.225000X0.250000X-0.225000X0.250000X0*%
%ADD37RoundRect,0.222500X0.402500X-0.222500X0.402500X0.222500X-0.402500X0.222500X-0.402500X-0.222500X0*%
%ADD38RoundRect,0.087500X0.087500X-0.412500X0.087500X0.412500X-0.087500X0.412500X-0.087500X-0.412500X0*%
%ADD39R,0.250000X0.180000*%
%ADD40RoundRect,0.218750X-0.218750X-0.256250X0.218750X-0.256250X0.218750X0.256250X-0.218750X0.256250X0*%
%ADD41RoundRect,0.200000X0.200000X0.275000X-0.200000X0.275000X-0.200000X-0.275000X0.200000X-0.275000X0*%
%ADD42RoundRect,0.140000X-0.219203X-0.021213X-0.021213X-0.219203X0.219203X0.021213X0.021213X0.219203X0*%
%ADD43RoundRect,0.140000X0.021213X-0.219203X0.219203X-0.021213X-0.021213X0.219203X-0.219203X0.021213X0*%
%ADD44R,0.650000X1.050000*%
%ADD45R,2.000000X0.500000*%
%ADD46R,0.500000X2.000000*%
%ADD47RoundRect,0.150000X0.587500X0.150000X-0.587500X0.150000X-0.587500X-0.150000X0.587500X-0.150000X0*%
%ADD48RoundRect,0.237500X-0.237500X0.287500X-0.237500X-0.287500X0.237500X-0.287500X0.237500X0.287500X0*%
%ADD49RotRect,1.400000X1.200000X45.000000*%
%ADD50RoundRect,0.150000X-0.650000X-0.150000X0.650000X-0.150000X0.650000X0.150000X-0.650000X0.150000X0*%
G04 APERTURE END LIST*
D10*
%TO.C,U16*%
X59137500Y-128650000D03*
X59137500Y-127700000D03*
X59137500Y-126750000D03*
X56862500Y-126750000D03*
X56862500Y-128650000D03*
%TD*%
D11*
%TO.C,R15*%
X89375000Y-119560000D03*
X89375000Y-118540000D03*
%TD*%
D12*
%TO.C,R56*%
X63310000Y-97400000D03*
X62290000Y-97400000D03*
%TD*%
D13*
%TO.C,D16*%
X45287500Y-102600000D03*
X45287500Y-99300000D03*
%TD*%
D14*
%TO.C,Q6*%
X91200000Y-79900000D03*
X91200000Y-81800000D03*
X93075000Y-80850000D03*
%TD*%
D15*
%TO.C,U1*%
X74200000Y-115100000D03*
X74200000Y-115600000D03*
X74200000Y-116100000D03*
X74200000Y-116600000D03*
X74200000Y-117100000D03*
X74200000Y-117600000D03*
X74200000Y-118100000D03*
X74200000Y-118600000D03*
X74200000Y-119100000D03*
X74200000Y-119600000D03*
X74200000Y-120100000D03*
X74200000Y-120600000D03*
D16*
X75612500Y-122012500D03*
X76112500Y-122012500D03*
X76612500Y-122012500D03*
X77112500Y-122012500D03*
X77612500Y-122012500D03*
X78112500Y-122012500D03*
X78612500Y-122012500D03*
X79112500Y-122012500D03*
X79612500Y-122012500D03*
X80112500Y-122012500D03*
X80612500Y-122012500D03*
X81112500Y-122012500D03*
D15*
X82525000Y-120600000D03*
X82525000Y-120100000D03*
X82525000Y-119600000D03*
X82525000Y-119100000D03*
X82525000Y-118600000D03*
X82525000Y-118100000D03*
X82525000Y-117600000D03*
X82525000Y-117100000D03*
X82525000Y-116600000D03*
X82525000Y-116100000D03*
X82525000Y-115600000D03*
X82525000Y-115100000D03*
D16*
X81112500Y-113687500D03*
X80612500Y-113687500D03*
X80112500Y-113687500D03*
X79612500Y-113687500D03*
X79112500Y-113687500D03*
X78612500Y-113687500D03*
X78112500Y-113687500D03*
X77612500Y-113687500D03*
X77112500Y-113687500D03*
X76612500Y-113687500D03*
X76112500Y-113687500D03*
X75612500Y-113687500D03*
%TD*%
D17*
%TO.C,U20*%
X52325000Y-106100000D03*
X48275000Y-106100000D03*
D18*
X50300000Y-106100000D03*
%TD*%
D11*
%TO.C,R67*%
X74200000Y-107810000D03*
X74200000Y-106790000D03*
%TD*%
D19*
%TO.C,AE1*%
X57600000Y-60830000D03*
D20*
X56075000Y-62305000D03*
X56075000Y-59355000D03*
%TD*%
D21*
%TO.C,R21*%
X86400000Y-63290000D03*
X86400000Y-64310000D03*
%TD*%
D22*
%TO.C,C13*%
X90575000Y-119530000D03*
X90575000Y-118570000D03*
%TD*%
D12*
%TO.C,R40*%
X93357500Y-73620000D03*
X92337500Y-73620000D03*
%TD*%
D23*
%TO.C,R2*%
X61665000Y-113325000D03*
X62685000Y-113325000D03*
%TD*%
D21*
%TO.C,R28*%
X77200000Y-92890000D03*
X77200000Y-93910000D03*
%TD*%
D24*
%TO.C,C54*%
X60555000Y-118270000D03*
X59005000Y-118270000D03*
%TD*%
D22*
%TO.C,C15*%
X64000000Y-61790000D03*
X64000000Y-60830000D03*
%TD*%
D14*
%TO.C,Q8*%
X44672500Y-61950000D03*
X44672500Y-63850000D03*
X46547500Y-62900000D03*
%TD*%
D21*
%TO.C,R5*%
X49562500Y-114550000D03*
X49562500Y-115570000D03*
%TD*%
D11*
%TO.C,R22*%
X37300000Y-63110000D03*
X37300000Y-62090000D03*
%TD*%
D25*
%TO.C,D13*%
X47725000Y-83650000D03*
X51025000Y-83650000D03*
%TD*%
D14*
%TO.C,Q10*%
X67675000Y-94460000D03*
X67675000Y-96360000D03*
X69550000Y-95410000D03*
%TD*%
D26*
%TO.C,C11*%
X71320000Y-110300000D03*
X72280000Y-110300000D03*
%TD*%
D27*
%TO.C,L3*%
X91460000Y-69005000D03*
X91460000Y-68035000D03*
%TD*%
D14*
%TO.C,Q1*%
X49300000Y-123900000D03*
X49300000Y-125800000D03*
X51175000Y-124850000D03*
%TD*%
D23*
%TO.C,R70*%
X53425000Y-127825000D03*
X54445000Y-127825000D03*
%TD*%
D28*
%TO.C,C12*%
X70080000Y-110300000D03*
X69120000Y-110300000D03*
%TD*%
D29*
%TO.C,L5*%
X61580000Y-126770000D03*
X65980000Y-126770000D03*
%TD*%
D17*
%TO.C,U6*%
X49350000Y-75500000D03*
X45300000Y-75500000D03*
D18*
X47325000Y-75500000D03*
%TD*%
D14*
%TO.C,Q9*%
X58427500Y-94640000D03*
X58427500Y-96540000D03*
X60302500Y-95590000D03*
%TD*%
D12*
%TO.C,R18*%
X63000000Y-60830000D03*
X61980000Y-60830000D03*
%TD*%
D21*
%TO.C,R55*%
X59347500Y-99120000D03*
X59347500Y-100140000D03*
%TD*%
%TO.C,R66*%
X49562500Y-116550000D03*
X49562500Y-117570000D03*
%TD*%
D11*
%TO.C,R48*%
X43100000Y-60560000D03*
X43100000Y-59540000D03*
%TD*%
D22*
%TO.C,C16*%
X61000000Y-61790000D03*
X61000000Y-60830000D03*
%TD*%
D30*
%TO.C,D5*%
X93100000Y-87000000D03*
X91525000Y-87000000D03*
%TD*%
D14*
%TO.C,Q5*%
X38900000Y-61900000D03*
X38900000Y-63800000D03*
X40775000Y-62850000D03*
%TD*%
D22*
%TO.C,C21*%
X92600000Y-69000000D03*
X92600000Y-68040000D03*
%TD*%
D31*
%TO.C,C6*%
X88600000Y-101340000D03*
X88600000Y-102300000D03*
%TD*%
D14*
%TO.C,Q4*%
X67700000Y-99100000D03*
X67700000Y-101000000D03*
X69575000Y-100050000D03*
%TD*%
D27*
%TO.C,L4*%
X86400000Y-62370000D03*
X86400000Y-61400000D03*
%TD*%
D21*
%TO.C,R36*%
X89247500Y-75780000D03*
X89247500Y-76800000D03*
%TD*%
D28*
%TO.C,C7*%
X62760000Y-114475000D03*
X61800000Y-114475000D03*
%TD*%
D32*
%TO.C,R23*%
X86000000Y-85000000D03*
X87650000Y-85000000D03*
%TD*%
D11*
%TO.C,R16*%
X91775000Y-119560000D03*
X91775000Y-118540000D03*
%TD*%
D30*
%TO.C,D2*%
X93087500Y-94200000D03*
X91512500Y-94200000D03*
%TD*%
D12*
%TO.C,R17*%
X68275000Y-97650000D03*
X67255000Y-97650000D03*
%TD*%
D22*
%TO.C,C52*%
X75500000Y-107780000D03*
X75500000Y-106820000D03*
%TD*%
D21*
%TO.C,R33*%
X89247500Y-81610000D03*
X89247500Y-82630000D03*
%TD*%
D33*
%TO.C,Y3*%
X91625000Y-127250000D03*
X89125000Y-127250000D03*
%TD*%
D31*
%TO.C,C28*%
X78300000Y-92920000D03*
X78300000Y-93880000D03*
%TD*%
D23*
%TO.C,R53*%
X67090000Y-93100000D03*
X68110000Y-93100000D03*
%TD*%
D24*
%TO.C,C48*%
X60555000Y-121470000D03*
X59005000Y-121470000D03*
%TD*%
D14*
%TO.C,Q7*%
X90762500Y-76050000D03*
X90762500Y-77950000D03*
X92637500Y-77000000D03*
%TD*%
D26*
%TO.C,C8*%
X56220000Y-112600000D03*
X57180000Y-112600000D03*
%TD*%
D12*
%TO.C,R8*%
X92450000Y-95660000D03*
X91430000Y-95660000D03*
%TD*%
D34*
%TO.C,L2*%
X65970000Y-60830000D03*
X65000000Y-60830000D03*
%TD*%
D17*
%TO.C,U10*%
X46075000Y-87400000D03*
X50125000Y-87400000D03*
D18*
X48100000Y-87400000D03*
%TD*%
D13*
%TO.C,D17*%
X45200000Y-107850000D03*
X45200000Y-104550000D03*
%TD*%
D23*
%TO.C,R13*%
X83600000Y-112400000D03*
X84620000Y-112400000D03*
%TD*%
D35*
%TO.C,D7*%
X47800000Y-66900000D03*
X44500000Y-66900000D03*
%TD*%
%TO.C,D8*%
X47837502Y-79200000D03*
X44537502Y-79200000D03*
%TD*%
D12*
%TO.C,R47*%
X46920000Y-60550000D03*
X45900000Y-60550000D03*
%TD*%
D22*
%TO.C,C3*%
X73800000Y-113660000D03*
X73800000Y-112700000D03*
%TD*%
%TO.C,C14*%
X67000000Y-61790000D03*
X67000000Y-60830000D03*
%TD*%
D24*
%TO.C,C53*%
X60555000Y-119870000D03*
X59005000Y-119870000D03*
%TD*%
D11*
%TO.C,R19*%
X65975000Y-98660000D03*
X65975000Y-97640000D03*
%TD*%
D21*
%TO.C,R49*%
X56775000Y-95350000D03*
X56775000Y-96370000D03*
%TD*%
D13*
%TO.C,D1*%
X46600000Y-125850000D03*
X46600000Y-122550000D03*
%TD*%
D21*
%TO.C,R51*%
X55575000Y-95440000D03*
X55575000Y-96460000D03*
%TD*%
%TO.C,R35*%
X88047500Y-81700000D03*
X88047500Y-82720000D03*
%TD*%
D36*
%TO.C,C58*%
X55705000Y-124270000D03*
X57255000Y-124270000D03*
%TD*%
D31*
%TO.C,C23*%
X90400000Y-68040000D03*
X90400000Y-69000000D03*
%TD*%
D21*
%TO.C,R45*%
X88047500Y-75790000D03*
X88047500Y-76810000D03*
%TD*%
D37*
%TO.C,U2*%
X90625000Y-123650000D03*
X92175000Y-123650000D03*
X90625000Y-122550000D03*
X92175000Y-122550000D03*
D38*
X90200000Y-124975000D03*
X91000000Y-124975000D03*
X91800000Y-124975000D03*
X92600000Y-124975000D03*
X92600000Y-121225000D03*
X91800000Y-121225000D03*
X91000000Y-121225000D03*
X90200000Y-121225000D03*
%TD*%
D27*
%TO.C,D3*%
X59800000Y-61800000D03*
X59800000Y-60830000D03*
%TD*%
D25*
%TO.C,D14*%
X47825000Y-96950000D03*
X51125000Y-96950000D03*
%TD*%
D36*
%TO.C,C56*%
X55705000Y-121070000D03*
X57255000Y-121070000D03*
%TD*%
D39*
%TO.C,FL1*%
X77950000Y-64015000D03*
X77700000Y-64400000D03*
X77700000Y-64785000D03*
X78200000Y-64785000D03*
X78200000Y-64400000D03*
%TD*%
D12*
%TO.C,R68*%
X53972500Y-119550000D03*
X52952500Y-119550000D03*
%TD*%
D19*
%TO.C,AE2*%
X88675000Y-61400000D03*
D20*
X90200000Y-59925000D03*
X90200000Y-62875000D03*
%TD*%
D26*
%TO.C,C2*%
X84232500Y-115112500D03*
X85192500Y-115112500D03*
%TD*%
D21*
%TO.C,R29*%
X73800000Y-92890000D03*
X73800000Y-93910000D03*
%TD*%
D26*
%TO.C,C5*%
X82332500Y-122312500D03*
X83292500Y-122312500D03*
%TD*%
D40*
%TO.C,L1*%
X70212500Y-122300000D03*
X71787500Y-122300000D03*
%TD*%
D21*
%TO.C,R54*%
X64822500Y-94960000D03*
X64822500Y-95980000D03*
%TD*%
%TO.C,R52*%
X66022500Y-94870000D03*
X66022500Y-95890000D03*
%TD*%
D41*
%TO.C,R71*%
X54625000Y-129150000D03*
X52975000Y-129150000D03*
%TD*%
D42*
%TO.C,C10*%
X65860589Y-119330589D03*
X66539411Y-120009411D03*
%TD*%
D11*
%TO.C,R46*%
X44272500Y-60550000D03*
X44272500Y-59530000D03*
%TD*%
D33*
%TO.C,Y2*%
X69550000Y-112100000D03*
X72050000Y-112100000D03*
%TD*%
D31*
%TO.C,C29*%
X80600000Y-93000000D03*
X80600000Y-93960000D03*
%TD*%
%TO.C,C27*%
X74900000Y-92900000D03*
X74900000Y-93860000D03*
%TD*%
D43*
%TO.C,C9*%
X66060589Y-115639411D03*
X66739411Y-114960589D03*
%TD*%
D12*
%TO.C,R20*%
X39410000Y-60600000D03*
X38390000Y-60600000D03*
%TD*%
D44*
%TO.C,SW1*%
X61350000Y-111960000D03*
X61350000Y-107810000D03*
X63500000Y-111960000D03*
X63500000Y-107810000D03*
%TD*%
D17*
%TO.C,U12*%
X46075000Y-93250000D03*
X50125000Y-93250000D03*
D18*
X48100000Y-93250000D03*
%TD*%
D30*
%TO.C,D4*%
X93087500Y-90000000D03*
X91512500Y-90000000D03*
%TD*%
D36*
%TO.C,C57*%
X55705000Y-122670000D03*
X57255000Y-122670000D03*
%TD*%
D12*
%TO.C,R57*%
X61510000Y-102000000D03*
X60490000Y-102000000D03*
%TD*%
D45*
%TO.C,U3*%
X59200000Y-70800000D03*
X59200000Y-71800000D03*
X59200000Y-72800000D03*
X59200000Y-73800000D03*
X59200000Y-74800000D03*
X59200000Y-75800000D03*
X59200000Y-76800000D03*
X59200000Y-77800000D03*
X59200000Y-78800000D03*
X59200000Y-79800000D03*
X59200000Y-80800000D03*
X59200000Y-81800000D03*
X59200000Y-82800000D03*
X59200000Y-83800000D03*
X59200000Y-84800000D03*
X59200000Y-85800000D03*
X59200000Y-86800000D03*
D46*
X63200000Y-90800000D03*
X64200000Y-90800000D03*
X65200000Y-90800000D03*
X66200000Y-90800000D03*
X67200000Y-90800000D03*
X68200000Y-90800000D03*
X69200000Y-90800000D03*
X70200000Y-90800000D03*
X71200000Y-90800000D03*
X72200000Y-90800000D03*
X73200000Y-90800000D03*
X74200000Y-90800000D03*
X75200000Y-90800000D03*
X76200000Y-90800000D03*
X77200000Y-90800000D03*
X78200000Y-90800000D03*
X79200000Y-90800000D03*
D45*
X83200000Y-86800000D03*
X83200000Y-85800000D03*
X83200000Y-84800000D03*
X83200000Y-83800000D03*
X83200000Y-82800000D03*
X83200000Y-81800000D03*
X83200000Y-80800000D03*
X83200000Y-79800000D03*
X83200000Y-78800000D03*
X83200000Y-77800000D03*
X83200000Y-76800000D03*
X83200000Y-75800000D03*
X83200000Y-74800000D03*
X83200000Y-73800000D03*
X83200000Y-72800000D03*
X83200000Y-71800000D03*
X83200000Y-70800000D03*
D46*
X79200000Y-66800000D03*
X78200000Y-66800000D03*
X77200000Y-66800000D03*
X76200000Y-66800000D03*
X75200000Y-66800000D03*
X74200000Y-66800000D03*
X73200000Y-66800000D03*
X72200000Y-66800000D03*
X71200000Y-66800000D03*
X70200000Y-66800000D03*
X69200000Y-66800000D03*
X68200000Y-66800000D03*
X67200000Y-66800000D03*
X66200000Y-66800000D03*
X65200000Y-66800000D03*
X64200000Y-66800000D03*
X63200000Y-66800000D03*
%TD*%
D21*
%TO.C,R30*%
X76100000Y-92880000D03*
X76100000Y-93900000D03*
%TD*%
D28*
%TO.C,C1*%
X72592500Y-119112500D03*
X71632500Y-119112500D03*
%TD*%
D31*
%TO.C,C39*%
X67962500Y-127450000D03*
X67962500Y-128410000D03*
%TD*%
D17*
%TO.C,U18*%
X52337500Y-101000000D03*
X48287500Y-101000000D03*
D18*
X50312500Y-101000000D03*
%TD*%
D22*
%TO.C,C4*%
X75600000Y-111980000D03*
X75600000Y-111020000D03*
%TD*%
D12*
%TO.C,R26*%
X92622500Y-85600000D03*
X91602500Y-85600000D03*
%TD*%
D17*
%TO.C,U4*%
X49375000Y-70500000D03*
X45325000Y-70500000D03*
D18*
X47350000Y-70500000D03*
%TD*%
D12*
%TO.C,R69*%
X53972500Y-118350000D03*
X52952500Y-118350000D03*
%TD*%
D47*
%TO.C,Q3*%
X53337500Y-116900000D03*
X53337500Y-115000000D03*
X51462500Y-115950000D03*
%TD*%
D48*
%TO.C,TH1*%
X43700000Y-123425000D03*
X43700000Y-125175000D03*
%TD*%
D23*
%TO.C,R34*%
X88590000Y-79300000D03*
X89610000Y-79300000D03*
%TD*%
D12*
%TO.C,R25*%
X92170000Y-91390000D03*
X91150000Y-91390000D03*
%TD*%
D22*
%TO.C,C22*%
X93800000Y-69000000D03*
X93800000Y-68040000D03*
%TD*%
D21*
%TO.C,R7*%
X71337500Y-116852500D03*
X71337500Y-117872500D03*
%TD*%
D49*
%TO.C,Y1*%
X67623223Y-118678858D03*
X69178858Y-117123223D03*
X67976777Y-115921142D03*
X66421142Y-117476777D03*
%TD*%
D36*
%TO.C,C47*%
X53000000Y-126475000D03*
X54550000Y-126475000D03*
%TD*%
D24*
%TO.C,C55*%
X60555000Y-123070000D03*
X59005000Y-123070000D03*
%TD*%
D47*
%TO.C,Q2*%
X47900000Y-116900000D03*
X47900000Y-115000000D03*
X46025000Y-115950000D03*
%TD*%
D12*
%TO.C,R1*%
X46510000Y-120600000D03*
X45490000Y-120600000D03*
%TD*%
D14*
%TO.C,Q11*%
X61000000Y-98710000D03*
X61000000Y-100610000D03*
X62875000Y-99660000D03*
%TD*%
D23*
%TO.C,R14*%
X83600000Y-111000000D03*
X84620000Y-111000000D03*
%TD*%
D12*
%TO.C,R50*%
X60885000Y-93160000D03*
X59865000Y-93160000D03*
%TD*%
D21*
%TO.C,R27*%
X79500000Y-92990000D03*
X79500000Y-94010000D03*
%TD*%
D50*
%TO.C,U8*%
X69562500Y-124745000D03*
X69562500Y-126015000D03*
X69562500Y-127285000D03*
X69562500Y-128555000D03*
X76762500Y-128555000D03*
X76762500Y-127285000D03*
X76762500Y-126015000D03*
X76762500Y-124745000D03*
%TD*%
D32*
%TO.C,R24*%
X86000000Y-86700000D03*
X87650000Y-86700000D03*
%TD*%
D23*
%TO.C,R6*%
X56190000Y-111400000D03*
X57210000Y-111400000D03*
%TD*%
M02*
