G04 #@! TF.GenerationSoftware,KiCad,Pcbnew,7.0.10*
G04 #@! TF.CreationDate,2024-01-28T15:58:17+03:00*
G04 #@! TF.ProjectId,BIM_PCB,42494d5f-5043-4422-9e6b-696361645f70,rev?*
G04 #@! TF.SameCoordinates,Original*
G04 #@! TF.FileFunction,Soldermask,Top*
G04 #@! TF.FilePolarity,Negative*
%FSLAX46Y46*%
G04 Gerber Fmt 4.6, Leading zero omitted, Abs format (unit mm)*
G04 Created by KiCad (PCBNEW 7.0.10) date 2024-01-28 15:58:17*
%MOMM*%
%LPD*%
G01*
G04 APERTURE LIST*
G04 Aperture macros list*
%AMRoundRect*
0 Rectangle with rounded corners*
0 $1 Rounding radius*
0 $2 $3 $4 $5 $6 $7 $8 $9 X,Y pos of 4 corners*
0 Add a 4 corners polygon primitive as box body*
4,1,4,$2,$3,$4,$5,$6,$7,$8,$9,$2,$3,0*
0 Add four circle primitives for the rounded corners*
1,1,$1+$1,$2,$3*
1,1,$1+$1,$4,$5*
1,1,$1+$1,$6,$7*
1,1,$1+$1,$8,$9*
0 Add four rect primitives between the rounded corners*
20,1,$1+$1,$2,$3,$4,$5,0*
20,1,$1+$1,$4,$5,$6,$7,0*
20,1,$1+$1,$6,$7,$8,$9,0*
20,1,$1+$1,$8,$9,$2,$3,0*%
%AMRotRect*
0 Rectangle, with rotation*
0 The origin of the aperture is its center*
0 $1 length*
0 $2 width*
0 $3 Rotation angle, in degrees counterclockwise*
0 Add horizontal line*
21,1,$1,$2,0,0,$3*%
G04 Aperture macros list end*
%ADD10RoundRect,0.147500X-0.147500X-0.172500X0.147500X-0.172500X0.147500X0.172500X-0.147500X0.172500X0*%
%ADD11RoundRect,0.147500X0.172500X-0.147500X0.172500X0.147500X-0.172500X0.147500X-0.172500X-0.147500X0*%
%ADD12RoundRect,0.147500X0.147500X0.172500X-0.147500X0.172500X-0.147500X-0.172500X0.147500X-0.172500X0*%
%ADD13RoundRect,0.140000X0.140000X0.170000X-0.140000X0.170000X-0.140000X-0.170000X0.140000X-0.170000X0*%
%ADD14R,0.800000X1.800000*%
%ADD15R,1.800000X0.800000*%
%ADD16R,3.048000X3.048000*%
%ADD17R,1.524000X1.500000*%
%ADD18C,2.250000*%
%ADD19RoundRect,0.135000X0.185000X-0.135000X0.185000X0.135000X-0.185000X0.135000X-0.185000X-0.135000X0*%
%ADD20RoundRect,0.150000X0.512500X0.150000X-0.512500X0.150000X-0.512500X-0.150000X0.512500X-0.150000X0*%
%ADD21RoundRect,0.140000X-0.170000X0.140000X-0.170000X-0.140000X0.170000X-0.140000X0.170000X0.140000X0*%
%ADD22C,0.900000*%
%ADD23RoundRect,0.225000X0.225000X0.375000X-0.225000X0.375000X-0.225000X-0.375000X0.225000X-0.375000X0*%
%ADD24RoundRect,0.150000X0.150000X-0.587500X0.150000X0.587500X-0.150000X0.587500X-0.150000X-0.587500X0*%
%ADD25RoundRect,0.075000X-0.662500X-0.075000X0.662500X-0.075000X0.662500X0.075000X-0.662500X0.075000X0*%
%ADD26RoundRect,0.075000X-0.075000X-0.662500X0.075000X-0.662500X0.075000X0.662500X-0.075000X0.662500X0*%
%ADD27RoundRect,0.135000X-0.185000X0.135000X-0.185000X-0.135000X0.185000X-0.135000X0.185000X0.135000X0*%
%ADD28RoundRect,0.140000X0.170000X-0.140000X0.170000X0.140000X-0.170000X0.140000X-0.170000X-0.140000X0*%
%ADD29RoundRect,0.135000X-0.135000X-0.185000X0.135000X-0.185000X0.135000X0.185000X-0.135000X0.185000X0*%
%ADD30RoundRect,0.135000X0.135000X0.185000X-0.135000X0.185000X-0.135000X-0.185000X0.135000X-0.185000X0*%
%ADD31RoundRect,0.225000X0.225000X0.250000X-0.225000X0.250000X-0.225000X-0.250000X0.225000X-0.250000X0*%
%ADD32RoundRect,0.225000X0.375000X-0.225000X0.375000X0.225000X-0.375000X0.225000X-0.375000X-0.225000X0*%
%ADD33RoundRect,0.140000X-0.140000X-0.170000X0.140000X-0.170000X0.140000X0.170000X-0.140000X0.170000X0*%
%ADD34RoundRect,0.150000X-0.587500X-0.150000X0.587500X-0.150000X0.587500X0.150000X-0.587500X0.150000X0*%
%ADD35R,1.600000X2.500000*%
%ADD36RoundRect,0.150000X0.587500X0.150000X-0.587500X0.150000X-0.587500X-0.150000X0.587500X-0.150000X0*%
%ADD37RoundRect,0.147500X-0.172500X0.147500X-0.172500X-0.147500X0.172500X-0.147500X0.172500X0.147500X0*%
%ADD38R,1.000000X1.800000*%
%ADD39C,1.067000*%
%ADD40C,0.787000*%
%ADD41RoundRect,0.225000X-0.225000X-0.375000X0.225000X-0.375000X0.225000X0.375000X-0.225000X0.375000X0*%
%ADD42RoundRect,0.225000X-0.375000X0.225000X-0.375000X-0.225000X0.375000X-0.225000X0.375000X0.225000X0*%
%ADD43R,0.400000X0.650000*%
%ADD44R,1.500000X1.200000*%
%ADD45RoundRect,0.087500X0.087500X-0.412500X0.087500X0.412500X-0.087500X0.412500X-0.087500X-0.412500X0*%
%ADD46R,3.100000X2.200000*%
%ADD47RoundRect,0.225000X-0.225000X-0.250000X0.225000X-0.250000X0.225000X0.250000X-0.225000X0.250000X0*%
%ADD48R,0.250000X0.325000*%
%ADD49R,1.050000X1.000000*%
%ADD50R,2.200000X1.050000*%
%ADD51C,2.700000*%
%ADD52RoundRect,0.200000X0.200000X0.275000X-0.200000X0.275000X-0.200000X-0.275000X0.200000X-0.275000X0*%
%ADD53RoundRect,0.140000X-0.219203X-0.021213X-0.021213X-0.219203X0.219203X0.021213X0.021213X0.219203X0*%
%ADD54RoundRect,0.140000X0.021213X-0.219203X0.219203X-0.021213X-0.021213X0.219203X-0.219203X0.021213X0*%
%ADD55R,0.650000X1.050000*%
%ADD56RoundRect,0.250000X-0.625000X0.375000X-0.625000X-0.375000X0.625000X-0.375000X0.625000X0.375000X0*%
%ADD57RoundRect,0.150000X-0.512500X-0.150000X0.512500X-0.150000X0.512500X0.150000X-0.512500X0.150000X0*%
%ADD58C,1.800000*%
%ADD59C,4.800000*%
%ADD60RotRect,1.400000X1.200000X45.000000*%
%ADD61RoundRect,0.150000X-0.650000X-0.150000X0.650000X-0.150000X0.650000X0.150000X-0.650000X0.150000X0*%
G04 APERTURE END LIST*
D10*
X70515000Y-122300000D03*
X71485000Y-122300000D03*
D11*
X41500000Y-117535000D03*
X41500000Y-116565000D03*
D12*
X52835000Y-99750000D03*
X51865000Y-99750000D03*
X52585000Y-89200000D03*
X51615000Y-89200000D03*
D11*
X43100000Y-117535000D03*
X43100000Y-116565000D03*
D12*
X52770000Y-101250000D03*
X51800000Y-101250000D03*
X52850000Y-91050000D03*
X51880000Y-91050000D03*
D13*
X48130000Y-64100000D03*
X47170000Y-64100000D03*
D14*
X51815000Y-83254000D03*
X53015000Y-83254000D03*
X54215000Y-83254000D03*
X55415000Y-83254000D03*
X56615000Y-83254000D03*
X57815000Y-83254000D03*
X59015000Y-83254000D03*
X60215000Y-83254000D03*
X61415000Y-83254000D03*
X62615000Y-83254000D03*
X63815000Y-83254000D03*
X65015000Y-83254000D03*
X66215000Y-83254000D03*
X67415000Y-83254000D03*
D15*
X69215000Y-81054000D03*
X69215000Y-79854000D03*
X69215000Y-78654000D03*
X69215000Y-77454000D03*
X69215000Y-76254000D03*
X69215000Y-75054000D03*
X69215000Y-73854000D03*
X69215000Y-72654000D03*
X69215000Y-71454000D03*
X69215000Y-70254000D03*
X69215000Y-69054000D03*
X69215000Y-67854000D03*
X69215000Y-66654000D03*
D14*
X67415000Y-64454000D03*
X66215000Y-64454000D03*
X65015000Y-64454000D03*
X63815000Y-64454000D03*
X62615000Y-64454000D03*
X61415000Y-64454000D03*
X60215000Y-64454000D03*
X59015000Y-64454000D03*
X57815000Y-64454000D03*
X56615000Y-64454000D03*
X55415000Y-64454000D03*
X54215000Y-64454000D03*
X53015000Y-64454000D03*
X51815000Y-64454000D03*
D15*
X50015000Y-66654000D03*
X50015000Y-67854000D03*
X50015000Y-69054000D03*
X50015000Y-70254000D03*
X50015000Y-71454000D03*
X50015000Y-72654000D03*
X50015000Y-73854000D03*
X50015000Y-75054000D03*
X50015000Y-76254000D03*
X50015000Y-77454000D03*
X50015000Y-78654000D03*
X50015000Y-79854000D03*
X50015000Y-81054000D03*
D16*
X54765000Y-78054006D03*
D17*
X61115000Y-75754000D03*
D18*
X75060000Y-61860000D03*
X72520000Y-59320000D03*
X77600000Y-64400000D03*
X77600000Y-59320000D03*
X72520000Y-64400000D03*
D19*
X70370000Y-62900000D03*
X70370000Y-61880000D03*
D20*
X59137500Y-128650000D03*
X59137500Y-127700000D03*
X59137500Y-126750000D03*
X56862500Y-126750000D03*
X56862500Y-128650000D03*
D19*
X89375000Y-119560000D03*
X89375000Y-118540000D03*
D21*
X79550000Y-99250000D03*
X79550000Y-100210000D03*
D22*
X78800000Y-107800000D03*
D23*
X46400000Y-114850000D03*
X43100000Y-114850000D03*
D22*
X88500000Y-110500000D03*
D11*
X62553000Y-60068000D03*
X62553000Y-59098000D03*
D24*
X63676000Y-97605500D03*
X65576000Y-97605500D03*
X64626000Y-95730500D03*
D25*
X74200000Y-115100000D03*
X74200000Y-115600000D03*
X74200000Y-116100000D03*
X74200000Y-116600000D03*
X74200000Y-117100000D03*
X74200000Y-117600000D03*
X74200000Y-118100000D03*
X74200000Y-118600000D03*
X74200000Y-119100000D03*
X74200000Y-119600000D03*
X74200000Y-120100000D03*
X74200000Y-120600000D03*
D26*
X75612500Y-122012500D03*
X76112500Y-122012500D03*
X76612500Y-122012500D03*
X77112500Y-122012500D03*
X77612500Y-122012500D03*
X78112500Y-122012500D03*
X78612500Y-122012500D03*
X79112500Y-122012500D03*
X79612500Y-122012500D03*
X80112500Y-122012500D03*
X80612500Y-122012500D03*
X81112500Y-122012500D03*
D25*
X82525000Y-120600000D03*
X82525000Y-120100000D03*
X82525000Y-119600000D03*
X82525000Y-119100000D03*
X82525000Y-118600000D03*
X82525000Y-118100000D03*
X82525000Y-117600000D03*
X82525000Y-117100000D03*
X82525000Y-116600000D03*
X82525000Y-116100000D03*
X82525000Y-115600000D03*
X82525000Y-115100000D03*
D26*
X81112500Y-113687500D03*
X80612500Y-113687500D03*
X80112500Y-113687500D03*
X79612500Y-113687500D03*
X79112500Y-113687500D03*
X78612500Y-113687500D03*
X78112500Y-113687500D03*
X77612500Y-113687500D03*
X77112500Y-113687500D03*
X76612500Y-113687500D03*
X76112500Y-113687500D03*
X75612500Y-113687500D03*
D19*
X74200000Y-107810000D03*
X74200000Y-106790000D03*
D27*
X75339000Y-75851000D03*
X75339000Y-76871000D03*
D28*
X90575000Y-119530000D03*
X90575000Y-118570000D03*
D19*
X54215000Y-86614000D03*
X54215000Y-85594000D03*
D29*
X61665000Y-113325000D03*
X62685000Y-113325000D03*
D30*
X48160000Y-65100000D03*
X47140000Y-65100000D03*
D22*
X57200000Y-113725000D03*
D31*
X60555000Y-118270000D03*
X59005000Y-118270000D03*
D13*
X76948000Y-69624000D03*
X75988000Y-69624000D03*
D19*
X58707000Y-86616000D03*
X58707000Y-85596000D03*
D22*
X86800000Y-119100000D03*
D30*
X54385000Y-111575000D03*
X53365000Y-111575000D03*
X64756000Y-94143000D03*
X63736000Y-94143000D03*
D32*
X50100000Y-104550000D03*
X50100000Y-101250000D03*
D22*
X40600000Y-62600000D03*
D33*
X71320000Y-110300000D03*
X72280000Y-110300000D03*
D34*
X49562500Y-124050000D03*
X49562500Y-125950000D03*
X51437500Y-125000000D03*
D29*
X53380000Y-127825000D03*
X54400000Y-127825000D03*
D13*
X70080000Y-110300000D03*
X69120000Y-110300000D03*
D35*
X61580000Y-126770000D03*
X65980000Y-126770000D03*
D30*
X52385000Y-111575000D03*
X51365000Y-111575000D03*
D28*
X72793000Y-74104000D03*
X72793000Y-73144000D03*
D11*
X59441000Y-60038500D03*
X59441000Y-59068500D03*
D36*
X73739000Y-78061000D03*
X73739000Y-76161000D03*
X71864000Y-77111000D03*
D21*
X88600000Y-101340000D03*
X88600000Y-102300000D03*
D19*
X57593000Y-86625000D03*
X57593000Y-85605000D03*
X61223000Y-60083000D03*
X61223000Y-59063000D03*
D13*
X62760000Y-114475000D03*
X61800000Y-114475000D03*
D21*
X83750000Y-99330000D03*
X83750000Y-100290000D03*
D29*
X63726000Y-93043000D03*
X64746000Y-93043000D03*
D19*
X91775000Y-119560000D03*
X91775000Y-118540000D03*
D37*
X64784000Y-59086000D03*
X64784000Y-60056000D03*
D28*
X75500000Y-107780000D03*
X75500000Y-106820000D03*
D29*
X71644000Y-81056000D03*
X72664000Y-81056000D03*
D38*
X91625000Y-127250000D03*
X89125000Y-127250000D03*
D39*
X91629000Y-99650000D03*
X92645000Y-104730000D03*
X90613000Y-104730000D03*
D40*
X90994000Y-100920000D03*
X92264000Y-100920000D03*
X90994000Y-102190000D03*
X92264000Y-102190000D03*
X90994000Y-103460000D03*
X92264000Y-103460000D03*
D31*
X60555000Y-121470000D03*
X59005000Y-121470000D03*
D33*
X57185000Y-111700000D03*
X58145000Y-111700000D03*
D27*
X65842000Y-59060000D03*
X65842000Y-60080000D03*
D10*
X70905000Y-66860000D03*
X71875000Y-66860000D03*
D41*
X38200000Y-114850000D03*
X41500000Y-114850000D03*
D19*
X91800000Y-116510000D03*
X91800000Y-115490000D03*
D32*
X50150000Y-94350000D03*
X50150000Y-91050000D03*
D42*
X49900000Y-85900000D03*
X49900000Y-89200000D03*
D28*
X73800000Y-113660000D03*
X73800000Y-112700000D03*
D13*
X76948000Y-70699000D03*
X75988000Y-70699000D03*
D22*
X40200000Y-60100000D03*
D43*
X84900000Y-96150000D03*
X84250000Y-96150000D03*
X83600000Y-96150000D03*
X83600000Y-98050000D03*
X84250000Y-98050000D03*
X84900000Y-98050000D03*
D31*
X60555000Y-119870000D03*
X59005000Y-119870000D03*
D13*
X48120000Y-66645000D03*
X47160000Y-66645000D03*
D44*
X47400000Y-126050000D03*
X47400000Y-122750000D03*
D30*
X45564000Y-70250000D03*
X44544000Y-70250000D03*
D19*
X58244000Y-60060500D03*
X58244000Y-59040500D03*
D33*
X56000000Y-125000000D03*
X56960000Y-125000000D03*
D19*
X56500000Y-86620000D03*
X56500000Y-85600000D03*
D45*
X90200000Y-124975000D03*
X91000000Y-124975000D03*
X91800000Y-124975000D03*
X92600000Y-124975000D03*
X92600000Y-121225000D03*
X91800000Y-121225000D03*
X91000000Y-121225000D03*
X90200000Y-121225000D03*
D46*
X91400000Y-123100000D03*
D28*
X54250000Y-62580000D03*
X54250000Y-61620000D03*
D11*
X42185000Y-71224000D03*
X42185000Y-70254000D03*
D42*
X50100000Y-96450000D03*
X50100000Y-99750000D03*
D47*
X55705000Y-121070000D03*
X57255000Y-121070000D03*
D19*
X49385000Y-115985000D03*
X49385000Y-114965000D03*
D48*
X69360000Y-61880000D03*
X68860000Y-61592500D03*
X68360000Y-61592500D03*
X68360000Y-62167500D03*
X68860000Y-62167500D03*
D49*
X40040000Y-70254000D03*
D50*
X38515000Y-71729000D03*
X38515000Y-68779000D03*
D33*
X84232500Y-115112500D03*
X85192500Y-115112500D03*
D19*
X52850000Y-62610000D03*
X52850000Y-61590000D03*
D33*
X82332500Y-122312500D03*
X83292500Y-122312500D03*
D51*
X83800000Y-128250000D03*
D52*
X54625000Y-129150000D03*
X52975000Y-129150000D03*
D22*
X45700000Y-128900000D03*
D53*
X65860589Y-119330589D03*
X66539411Y-120009411D03*
D19*
X59752000Y-86618000D03*
X59752000Y-85598000D03*
D51*
X40600000Y-128000000D03*
D38*
X69550000Y-112100000D03*
X72050000Y-112100000D03*
D28*
X71693000Y-74104000D03*
X71693000Y-73144000D03*
D54*
X66060589Y-115639411D03*
X66739411Y-114960589D03*
D21*
X64365000Y-86514000D03*
X64365000Y-85554000D03*
D29*
X73229000Y-79361000D03*
X74249000Y-79361000D03*
D55*
X61350000Y-111960000D03*
X61350000Y-107810000D03*
X63500000Y-111960000D03*
X63500000Y-107810000D03*
D47*
X55705000Y-122670000D03*
X57255000Y-122670000D03*
D22*
X53975000Y-60007000D03*
D19*
X55300000Y-62610000D03*
X55300000Y-61590000D03*
D13*
X72592500Y-119112500D03*
X71632500Y-119112500D03*
D21*
X67962500Y-127450000D03*
X67962500Y-128410000D03*
X63290000Y-86514000D03*
X63290000Y-85554000D03*
D28*
X75600000Y-111980000D03*
X75600000Y-111020000D03*
D27*
X51626000Y-85595000D03*
X51626000Y-86615000D03*
D51*
X47850000Y-60550000D03*
D19*
X50585000Y-115985000D03*
X50585000Y-114965000D03*
D24*
X52035000Y-115350000D03*
X53935000Y-115350000D03*
X52985000Y-113475000D03*
D21*
X65415000Y-86514000D03*
X65415000Y-85554000D03*
D56*
X44500000Y-123975000D03*
X44500000Y-126775000D03*
D57*
X74280500Y-72024000D03*
X74280500Y-73924000D03*
X76555500Y-72974000D03*
D30*
X72661500Y-82366000D03*
X71641500Y-82366000D03*
D58*
X46560000Y-103970000D03*
X46560000Y-101470000D03*
X46560000Y-98970000D03*
X46560000Y-96470000D03*
X46560000Y-93970000D03*
X46560000Y-91470000D03*
X46560000Y-88970000D03*
X46560000Y-86470000D03*
X46560000Y-83970000D03*
X43560000Y-103970000D03*
X43560000Y-101470000D03*
X43560000Y-98970000D03*
X43560000Y-96470000D03*
X43560000Y-93970000D03*
X43560000Y-91470000D03*
X43560000Y-88970000D03*
X43560000Y-86470000D03*
X43560000Y-83970000D03*
D59*
X42060000Y-78470000D03*
X42060000Y-109470000D03*
D30*
X64260000Y-99250000D03*
X63240000Y-99250000D03*
D43*
X79550000Y-96100000D03*
X78900000Y-96100000D03*
X78250000Y-96100000D03*
X78250000Y-98000000D03*
X78900000Y-98000000D03*
X79550000Y-98000000D03*
D28*
X51800000Y-62580000D03*
X51800000Y-61620000D03*
D27*
X71337500Y-116852500D03*
X71337500Y-117872500D03*
D60*
X67623223Y-118678858D03*
X69178858Y-117123223D03*
X67976777Y-115921142D03*
X66421142Y-117476777D03*
D33*
X53440000Y-126700000D03*
X54400000Y-126700000D03*
D31*
X60555000Y-123070000D03*
X59005000Y-123070000D03*
D22*
X79540000Y-75704000D03*
D24*
X52035000Y-109912500D03*
X53935000Y-109912500D03*
X52985000Y-108037500D03*
D29*
X46590000Y-119675000D03*
X47610000Y-119675000D03*
D19*
X93400000Y-116510000D03*
X93400000Y-115490000D03*
D27*
X52826000Y-85595000D03*
X52826000Y-86615000D03*
D61*
X69562500Y-124745000D03*
X69562500Y-126015000D03*
X69562500Y-127285000D03*
X69562500Y-128555000D03*
X76762500Y-128555000D03*
X76762500Y-127285000D03*
X76762500Y-126015000D03*
X76762500Y-124745000D03*
D19*
X62376000Y-98228000D03*
X62376000Y-97208000D03*
D22*
X67700000Y-111000000D03*
D29*
X57155000Y-110500000D03*
X58175000Y-110500000D03*
D28*
X46800000Y-71217000D03*
X46800000Y-70257000D03*
X92989000Y-90469000D03*
X92989000Y-89509000D03*
D19*
X55378000Y-86604000D03*
X55378000Y-85584000D03*
D28*
X91926000Y-90468000D03*
X91926000Y-89508000D03*
X43505000Y-71217000D03*
X43505000Y-70257000D03*
M02*
