M48
; DRILL file {KiCad 7.0.2} date Mon Dec 11 23:52:15 2023
; FORMAT={-:-/ absolute / metric / decimal}
; #@! TF.CreationDate,2023-12-11T23:52:15+03:00
; #@! TF.GenerationSoftware,Kicad,Pcbnew,7.0.2
; #@! TF.FileFunction,Plated,1,4,PTH
FMAT,2
METRIC
; #@! TA.AperFunction,Plated,PTH,ViaDrill
T1C0.300
; #@! TA.AperFunction,Plated,PTH,ViaDrill
T2C0.400
; #@! TA.AperFunction,Plated,PTH,ComponentDrill
T3C1.200
%
G90
G05
T1
X38.6Y-76.2
X38.6Y-91.8
X39.05Y-124.675
X39.499Y-109.4
X39.7Y-106.1
X40.8Y-60.7
X41.0Y-80.2
X41.6Y-81.6
X41.6Y-82.9
X42.0Y-67.0
X42.4Y-81.8
X42.6Y-79.0
X42.6Y-110.0
X42.7Y-95.8
X42.925Y-89.102
X43.2Y-61.4
X43.2Y-65.626
X43.2Y-105.6
X43.25Y-125.0
X44.2Y-82.8
X44.2Y-103.4
X44.25Y-122.238
X45.0Y-101.674
X46.0Y-67.0
X46.0Y-82.8
X46.859Y-113.141
X46.9Y-59.5
X47.8Y-82.6
X47.9Y-62.9
X48.951Y-67.206
X49.287Y-66.48
X49.325Y-97.4
X49.4Y-79.8
X49.798Y-90.1
X51.1Y-89.65
X51.2Y-98.049
X51.305Y-116.877
X51.447Y-90.393
X52.101Y-116.748
X52.22Y-81.593
X52.409Y-88.405
X52.5Y-70.0
X52.5Y-74.5
X52.545Y-78.808
X52.9Y-120.799
X53.085Y-96.497
X53.1Y-97.795
X53.4Y-81.0
X53.5Y-58.75
X53.5Y-59.5
X53.5Y-60.25
X53.5Y-61.0
X53.5Y-61.75
X53.5Y-62.5
X53.5Y-63.25
X53.894Y-92.058
X54.325Y-90.575
X54.425Y-95.2
X54.5Y-58.75
X54.5Y-59.5
X54.5Y-60.25
X54.5Y-61.0
X54.5Y-61.75
X54.5Y-62.5
X54.5Y-63.25
X54.5Y-64.0
X55.065Y-101.489
X55.25Y-58.5
X55.25Y-60.5
X55.25Y-61.25
X55.426Y-69.6
X55.5Y-63.25
X55.5Y-64.0
X55.5Y-77.0
X55.6Y-78.7
X55.8Y-107.4
X56.0Y-58.5
X56.0Y-60.5
X56.0Y-61.25
X56.125Y-87.8
X56.19Y-93.203
X56.226Y-80.4
X56.301Y-90.653
X56.35Y-99.275
X56.445Y-92.2
X56.5Y-63.25
X56.5Y-64.0
X56.575Y-97.2
X56.75Y-58.5
X56.75Y-127.75
X56.8Y-85.364
X56.85Y-88.8
X56.9Y-119.2
X56.925Y-86.925
X57.25Y-59.5
X57.25Y-63.25
X57.25Y-64.0
X57.4Y-83.0
X57.5Y-58.5
X57.725Y-95.45
X58.0Y-62.0
X58.0Y-62.75
X58.0Y-63.5
X58.0Y-64.25
X58.0Y-65.0
X58.0Y-65.75
X58.1Y-59.7
X58.2Y-58.8
X58.25Y-97.425
X58.488Y-95.723
X58.506Y-93.975
X58.75Y-62.0
X58.75Y-62.75
X58.75Y-63.5
X58.75Y-64.25
X58.75Y-65.0
X58.75Y-65.75
X58.8Y-59.2
X58.8Y-59.9
X59.4Y-105.653
X59.5Y-58.4
X59.5Y-59.2
X59.5Y-59.9
X59.5Y-62.75
X59.5Y-63.5
X59.5Y-64.25
X59.5Y-65.0
X59.5Y-65.75
X59.925Y-87.775
X60.2Y-58.4
X60.2Y-59.2
X60.2Y-59.9
X60.2Y-108.5
X60.25Y-62.75
X60.25Y-63.5
X60.25Y-64.25
X60.25Y-65.0
X60.5Y-79.8
X61.0Y-58.4
X61.0Y-59.2
X61.0Y-59.9
X61.0Y-62.75
X61.0Y-63.5
X61.0Y-64.25
X61.0Y-65.0
X61.225Y-87.875
X61.564Y-93.236
X61.575Y-96.249
X61.75Y-62.0
X61.75Y-62.75
X61.75Y-63.5
X61.75Y-64.25
X61.75Y-65.0
X61.8Y-58.4
X61.8Y-59.2
X61.8Y-59.9
X62.0Y-87.0
X62.175Y-94.85
X62.2Y-85.1
X62.2Y-102.0
X62.3Y-106.385
X62.35Y-91.2
X62.5Y-58.4
X62.5Y-59.2
X62.5Y-59.9
X62.5Y-62.0
X62.5Y-62.75
X62.5Y-63.5
X62.5Y-64.25
X62.5Y-65.0
X62.6Y-121.9
X62.85Y-80.6
X62.93Y-115.444
X63.25Y-62.0
X63.25Y-62.75
X63.25Y-63.5
X63.25Y-64.25
X63.25Y-65.0
X63.283Y-96.649
X63.3Y-58.4
X63.3Y-59.2
X63.3Y-59.9
X63.325Y-87.225
X63.6Y-121.9
X63.7Y-106.1
X63.863Y-95.004
X63.939Y-93.2
X63.999Y-87.825
X64.0Y-58.4
X64.0Y-59.2
X64.0Y-59.9
X64.0Y-62.75
X64.0Y-63.5
X64.0Y-64.25
X64.0Y-65.0
X64.114Y-96.556
X64.124Y-118.8
X64.175Y-92.35
X64.196Y-117.999
X64.424Y-114.375
X64.7Y-121.9
X64.75Y-62.0
X64.75Y-62.75
X64.75Y-63.5
X64.75Y-64.25
X64.75Y-65.0
X64.8Y-58.4
X64.8Y-59.2
X64.8Y-59.9
X64.95Y-84.325
X64.95Y-118.4
X65.024Y-113.698
X65.174Y-97.224
X65.3Y-92.325
X65.3Y-106.1
X65.5Y-58.4
X65.5Y-59.2
X65.5Y-59.9
X65.5Y-62.0
X65.5Y-62.75
X65.5Y-63.5
X65.5Y-64.25
X65.5Y-65.0
X65.625Y-114.85
X65.711Y-120.224
X65.95Y-85.375
X66.2Y-88.8
X66.25Y-62.0
X66.25Y-62.75
X66.25Y-63.5
X66.25Y-64.25
X66.25Y-65.0
X66.299Y-111.925
X66.3Y-58.4
X66.3Y-59.2
X66.7Y-59.9
X67.0Y-62.75
X67.0Y-63.5
X67.0Y-64.25
X67.0Y-65.0
X67.1Y-58.4
X67.1Y-59.2
X67.383Y-122.087
X67.475Y-109.3
X67.5Y-106.1
X67.527Y-60.16
X67.75Y-62.0
X67.75Y-62.75
X67.75Y-63.5
X67.75Y-64.25
X67.75Y-65.0
X67.775Y-87.95
X68.0Y-58.9
X68.0Y-59.6
X68.1Y-124.8
X68.2Y-120.2
X68.313Y-95.325
X68.388Y-60.23
X68.4Y-106.1
X68.5Y-61.5
X68.5Y-62.25
X68.5Y-63.0
X68.5Y-63.75
X68.5Y-64.5
X68.5Y-65.25
X68.8Y-58.6
X68.8Y-59.6
X69.2Y-113.8
X69.2Y-122.9
X69.225Y-87.75
X69.25Y-61.75
X69.25Y-63.0
X69.25Y-63.75
X69.25Y-64.5
X69.25Y-65.25
X69.438Y-60.382
X69.501Y-99.225
X69.6Y-58.9
X69.6Y-59.6
X69.9Y-120.8
X70.0Y-62.25
X70.064Y-114.868
X70.25Y-60.75
X70.25Y-63.0
X70.4Y-58.9
X70.4Y-59.6
X70.5Y-63.75
X70.5Y-64.5
X70.5Y-65.25
X70.7Y-109.8
X70.766Y-94.662
X70.8Y-60.2
X71.0Y-61.25
X71.0Y-93.875
X71.2Y-58.8
X71.2Y-59.6
X71.306Y-95.919
X71.359Y-61.935
X71.524Y-106.271
X71.6Y-60.2
X71.6Y-61.0
X71.7Y-113.9
X71.705Y-108.326
X71.725Y-62.898
X71.799Y-64.2
X71.8Y-65.0
X72.2Y-58.8
X72.2Y-59.6
X72.2Y-61.8
X72.3Y-63.6
X72.385Y-102.12
X72.4Y-61.0
X72.4Y-62.7
X72.462Y-121.057
X72.5Y-64.3
X72.5Y-65.0
X72.6Y-60.2
X72.613Y-103.86
X72.8Y-106.7
X72.969Y-120.439
X73.0Y-58.8
X73.0Y-59.6
X73.0Y-61.6
X73.1Y-60.8
X73.1Y-62.3
X73.1Y-63.1
X73.2Y-63.9
X73.5Y-122.8
X73.686Y-89.36
X73.7Y-87.8
X73.75Y-121.45
X73.8Y-58.8
X73.8Y-59.6
X73.8Y-60.3
X73.8Y-61.8
X73.8Y-94.5
X74.0Y-61.1
X74.0Y-65.3
X74.1Y-68.2
X74.3Y-62.4
X74.374Y-92.0
X74.7Y-58.8
X74.7Y-59.6
X74.75Y-112.0
X74.8Y-65.3
X74.8Y-68.2
X74.8Y-106.79
X74.9Y-122.325
X75.1Y-62.4
X75.474Y-87.758
X75.5Y-58.8
X75.5Y-59.6
X75.5Y-68.2
X75.5Y-116.5
X75.6Y-65.3
X75.6Y-118.1
X75.75Y-80.55
X75.8Y-127.2
X75.9Y-62.4
X75.9Y-119.1
X76.1Y-94.6
X76.2Y-68.2
X76.2Y-115.1
X76.4Y-58.4
X76.4Y-59.2
X76.4Y-60.0
X76.5Y-123.3
X76.53Y-107.717
X76.6Y-116.0
X76.725Y-80.625
X76.8Y-62.4
X77.0Y-60.8
X77.0Y-61.6
X77.0Y-118.25
X77.2Y-58.4
X77.2Y-59.2
X77.2Y-60.0
X77.2Y-64.0
X77.2Y-64.8
X77.2Y-68.4
X77.2Y-95.0
X77.25Y-119.0
X77.307Y-107.528
X77.307Y-110.92
X77.4Y-63.2
X77.4Y-69.8
X77.4Y-70.6
X77.4Y-109.0
X77.5Y-110.1
X77.525Y-87.575
X77.6Y-62.4
X77.7Y-116.9
X77.7Y-117.7
X77.8Y-60.8
X77.8Y-115.2
X78.0Y-58.4
X78.0Y-59.2
X78.0Y-60.0
X78.0Y-61.6
X78.0Y-68.4
X78.0Y-69.2
X78.073Y-107.3
X78.1Y-118.4
X78.4Y-69.8
X78.4Y-70.6
X78.513Y-110.3
X78.57Y-63.587
X78.6Y-61.2
X78.675Y-86.4
X78.707Y-119.706
X78.71Y-124.649
X78.8Y-58.4
X78.8Y-59.2
X78.8Y-60.0
X78.8Y-64.4
X78.8Y-65.2
X78.847Y-62.846
X79.063Y-88.099
X79.1Y-95.2
X79.112Y-118.66
X79.332Y-120.399
X79.35Y-87.354
X79.414Y-62.284
X79.488Y-124.9
X79.565Y-60.917
X79.6Y-58.4
X79.6Y-59.2
X79.6Y-60.0
X79.948Y-119.2
X80.013Y-106.06
X80.1Y-62.8
X80.1Y-63.5
X80.1Y-64.2
X80.1Y-64.9
X80.1Y-65.7
X80.1Y-66.4
X80.1Y-67.1
X80.1Y-67.9
X80.1Y-68.6
X80.1Y-69.3
X80.1Y-70.1
X80.105Y-62.024
X80.312Y-117.951
X80.35Y-81.325
X80.4Y-58.4
X80.4Y-59.2
X80.4Y-60.0
X80.4Y-60.8
X80.4Y-127.4
X80.591Y-117.202
X80.9Y-125.1
X81.0Y-62.0
X81.0Y-62.8
X81.0Y-63.5
X81.0Y-64.2
X81.0Y-64.9
X81.0Y-65.7
X81.0Y-66.4
X81.0Y-67.1
X81.0Y-67.9
X81.0Y-68.6
X81.0Y-69.3
X81.0Y-70.1
X81.2Y-58.4
X81.2Y-59.2
X81.2Y-60.0
X81.2Y-60.8
X81.2Y-120.6
X81.239Y-111.0
X81.578Y-104.2
X81.675Y-128.95
X81.688Y-82.287
X81.691Y-124.987
X81.753Y-124.19
X81.8Y-61.999
X81.8Y-62.8
X81.8Y-63.5
X81.8Y-64.2
X81.8Y-64.9
X81.8Y-65.7
X81.8Y-66.4
X81.8Y-67.1
X81.8Y-67.9
X81.8Y-68.6
X81.8Y-69.3
X81.8Y-70.1
X81.8Y-110.4
X81.8Y-123.2
X81.997Y-87.506
X82.0Y-58.4
X82.0Y-59.2
X82.0Y-60.0
X82.0Y-60.8
X82.053Y-113.781
X82.4Y-88.3
X82.6Y-61.999
X82.6Y-62.8
X82.6Y-63.5
X82.6Y-64.2
X82.6Y-64.9
X82.6Y-65.7
X82.6Y-66.4
X82.6Y-67.1
X82.6Y-67.9
X82.6Y-68.6
X82.6Y-69.3
X82.7Y-112.5
X82.8Y-58.4
X82.8Y-59.2
X82.8Y-60.0
X82.8Y-60.8
X82.9Y-103.5
X83.0Y-123.2
X83.25Y-121.5
X83.4Y-62.0
X83.4Y-62.8
X83.4Y-63.5
X83.4Y-64.2
X83.4Y-64.9
X83.4Y-65.7
X83.4Y-66.4
X83.4Y-67.1
X83.4Y-67.9
X83.4Y-68.6
X83.4Y-69.3
X83.4Y-108.1
X83.5Y-110.1
X83.6Y-58.4
X83.6Y-59.2
X83.6Y-60.0
X83.6Y-60.8
X84.0Y-125.0
X84.2Y-61.999
X84.2Y-62.8
X84.2Y-63.5
X84.2Y-64.2
X84.2Y-64.9
X84.2Y-65.7
X84.2Y-66.4
X84.2Y-67.1
X84.2Y-67.9
X84.2Y-68.6
X84.2Y-69.3
X84.4Y-58.4
X84.4Y-59.2
X84.4Y-60.0
X84.4Y-60.8
X84.4Y-119.125
X84.45Y-108.12
X84.8Y-121.0
X85.0Y-65.9
X85.0Y-66.7
X85.0Y-86.907
X85.2Y-58.4
X85.2Y-59.2
X85.2Y-60.0
X85.2Y-60.8
X85.2Y-61.999
X85.2Y-62.8
X85.2Y-63.5
X85.2Y-64.2
X85.2Y-64.9
X85.2Y-67.9
X85.2Y-68.6
X85.2Y-69.3
X85.2Y-70.1
X85.326Y-85.775
X85.7Y-70.8
X85.8Y-67.1
X85.8Y-65.6
X85.8Y-66.3
X86.0Y-59.0
X86.0Y-59.7
X86.0Y-60.4
X86.032Y-67.828
X86.1Y-69.1
X86.1Y-70.1
X86.15Y-118.25
X86.6Y-70.8
X86.6Y-71.6
X86.6Y-72.3
X86.6Y-73.1
X86.688Y-68.434
X86.7Y-101.4
X86.8Y-59.0
X86.8Y-59.7
X86.8Y-60.4
X86.8Y-69.7
X86.8Y-115.0
X86.961Y-87.485
X87.0Y-65.5
X87.0Y-66.2
X87.1Y-67.1
X87.4Y-62.0
X87.4Y-62.8
X87.4Y-63.5
X87.4Y-64.2
X87.4Y-64.9
X87.45Y-121.099
X87.5Y-68.6
X87.5Y-69.3
X87.5Y-70.0
X87.5Y-70.8
X87.5Y-71.6
X87.5Y-72.3
X87.5Y-73.1
X87.5Y-126.05
X87.6Y-59.0
X87.6Y-59.7
X87.6Y-60.4
X87.664Y-80.29
X87.7Y-79.3
X87.7Y-84.0
X87.8Y-65.8
X87.8Y-66.6
X87.8Y-67.4
X88.2Y-62.5
X88.2Y-63.2
X88.2Y-64.1
X88.2Y-64.9
X88.2Y-125.3
X88.3Y-59.0
X88.3Y-59.7
X88.3Y-60.4
X88.4Y-68.6
X88.4Y-69.3
X88.4Y-70.0
X88.4Y-70.8
X88.4Y-71.6
X88.4Y-72.3
X88.4Y-73.1
X88.5Y-65.8
X88.5Y-66.6
X88.5Y-67.4
X88.9Y-64.1
X88.9Y-64.9
X88.976Y-84.476
X89.0Y-58.7
X89.025Y-120.888
X89.2Y-68.6
X89.2Y-69.3
X89.2Y-70.0
X89.2Y-70.8
X89.2Y-71.6
X89.2Y-72.3
X89.2Y-73.1
X89.3Y-65.8
X89.3Y-66.6
X89.3Y-67.4
X89.7Y-64.1
X89.7Y-64.9
X89.8Y-58.7
X90.0Y-61.1
X90.0Y-61.8
X90.069Y-67.281
X90.1Y-65.8
X90.1Y-70.0
X90.1Y-70.8
X90.1Y-71.6
X90.1Y-72.3
X90.5Y-58.7
X90.5Y-64.1
X90.5Y-64.9
X90.5Y-66.5
X90.7Y-108.1
X90.8Y-65.8
X90.837Y-67.319
X91.0Y-61.1
X91.0Y-61.8
X91.0Y-70.0
X91.0Y-70.8
X91.0Y-71.6
X91.0Y-72.3
X91.2Y-64.1
X91.2Y-64.9
X91.3Y-58.7
X91.3Y-66.5
X91.6Y-65.8
X91.6Y-67.24
X91.662Y-105.862
X91.8Y-70.0
X91.8Y-70.8
X91.8Y-71.6
X91.8Y-72.3
X92.0Y-59.3
X92.0Y-60.1
X92.0Y-60.9
X92.0Y-61.7
X92.0Y-62.5
X92.0Y-63.3
X92.0Y-64.1
X92.0Y-64.9
X92.1Y-66.5
X92.5Y-65.8
X92.5Y-67.3
X92.569Y-106.52
X92.6Y-111.8
X92.7Y-70.0
X92.7Y-71.6
X92.7Y-72.3
X92.7Y-79.4
X92.703Y-119.357
X92.725Y-70.8
X92.8Y-118.0
X92.9Y-59.3
X92.9Y-60.1
X92.9Y-60.9
X92.9Y-61.7
X92.9Y-62.5
X92.9Y-63.3
X92.9Y-64.1
X92.9Y-64.9
X92.9Y-66.5
X92.9Y-126.1
X92.987Y-114.36
X92.999Y-120.1
X93.0Y-93.0
X93.075Y-83.7
X93.091Y-115.195
X93.2Y-116.2
X93.2Y-117.05
X93.3Y-65.8
X93.3Y-67.3
X93.491Y-79.075
X93.5Y-75.9
X93.5Y-108.0
X93.6Y-64.1
X93.6Y-95.8
X93.6Y-101.3
X93.7Y-60.8
X93.7Y-61.7
X93.7Y-62.5
X93.7Y-63.3
X93.7Y-64.9
X93.8Y-66.5
T2
X34.75Y-71.5
X34.75Y-73.25
X35.0Y-84.5
X35.0Y-87.75
X35.0Y-99.5
X35.0Y-103.25
X35.25Y-115.25
X35.25Y-119.25
X37.0Y-66.75
X37.0Y-125.25
X38.0Y-59.4
X39.0Y-90.6
X39.4Y-58.8
X39.6Y-65.4
X40.0Y-66.75
X40.2Y-76.8
X40.2Y-78.2
X40.4Y-97.0
X40.5Y-111.25
X40.6Y-106.0
X40.6Y-109.4
X41.4Y-58.8
X42.4Y-97.0
X42.6Y-76.8
X42.75Y-111.25
X43.0Y-68.2
X44.374Y-90.0
X44.7Y-115.7
X44.74Y-95.48
X44.8Y-93.2
X45.0Y-111.25
X45.718Y-106.874
X45.75Y-119.0
X45.75Y-121.25
X46.4Y-97.6
X46.5Y-114.6
X47.25Y-111.25
X47.25Y-121.25
X47.9Y-119.1
X48.4Y-59.0
X49.25Y-111.5
X50.8Y-63.0
X51.0Y-122.75
X51.0Y-124.5
X51.2Y-120.899
X51.5Y-113.5
X52.2Y-58.8
X52.2Y-68.6
X52.4Y-72.6
X52.4Y-76.0
X52.75Y-110.25
X52.75Y-113.5
X55.0Y-110.25
X55.0Y-113.5
X55.6Y-124.4
X55.6Y-125.6
X55.7Y-115.1
X56.0Y-104.0
X56.6Y-65.6
X56.6Y-67.2
X56.6Y-72.0
X56.6Y-125.6
X56.673Y-124.4
X57.0Y-68.25
X57.0Y-74.8
X57.4Y-107.2
X57.4Y-121.8
X57.4Y-126.4
X57.75Y-110.25
X57.75Y-129.0
X57.8Y-108.4
X58.0Y-67.2
X58.2Y-124.4
X58.4Y-115.8
X58.75Y-68.25
X59.2Y-123.6
X60.2Y-67.2
X60.2Y-68.8
X60.2Y-123.6
X60.718Y-113.168
X61.2Y-123.6
X61.4Y-73.8
X61.8Y-67.2
X61.8Y-68.8
X62.6Y-124.6
X62.6Y-125.6
X63.6Y-68.8
X63.6Y-70.4
X63.6Y-72.0
X63.8Y-124.6
X63.8Y-125.6
X64.445Y-99.045
X64.8Y-124.6
X64.8Y-125.6
X65.25Y-108.25
X65.4Y-128.6
X66.2Y-123.0
X67.25Y-108.25
X67.25Y-111.75
X67.25Y-113.25
X68.2Y-100.5
X68.6Y-80.8
X68.8Y-82.2
X69.0Y-108.25
X70.2Y-74.6
X70.2Y-75.6
X70.2Y-78.0
X70.2Y-80.6
X70.2Y-83.0
X71.5Y-125.0
X71.727Y-77.0
X72.2Y-88.0
X72.2Y-89.2
X73.5Y-101.2
X73.8Y-79.275
X73.8Y-84.0
X75.4Y-72.2
X75.4Y-74.0
X76.2Y-96.8
X76.2Y-99.3
X76.8Y-78.6
X77.2Y-101.6
X77.8Y-71.8
X77.8Y-96.8
X79.4Y-96.8
X80.0Y-71.8
X80.437Y-76.266
X80.5Y-90.25
X80.8Y-73.8
X80.8Y-96.8
X80.999Y-126.0
X81.2Y-71.8
X81.2Y-75.2
X81.2Y-79.4
X82.25Y-95.0
X82.25Y-96.75
X82.3Y-99.3
X82.5Y-106.5
X82.75Y-124.25
X83.0Y-101.5
X83.75Y-95.0
X83.75Y-96.75
X85.6Y-82.0
X86.0Y-90.25
X86.0Y-96.5
X86.125Y-77.025
X86.2Y-79.375
X86.25Y-95.0
X86.25Y-99.25
X86.25Y-126.0
X86.25Y-129.0
X86.5Y-103.0
X86.8Y-74.2
X87.5Y-127.25
X87.75Y-92.75
X87.75Y-95.0
X87.75Y-96.5
X88.0Y-90.25
X93.0Y-127.25
X93.5Y-97.25
T3
X39.415Y-84.95
X39.415Y-87.45
X39.515Y-70.75
X39.515Y-73.25
X39.515Y-115.2
X39.515Y-117.7
X39.515Y-120.2
X39.615Y-99.1
X39.615Y-101.6
X39.615Y-104.1
X41.915Y-84.95
X41.915Y-87.45
X42.015Y-70.75
X42.015Y-73.25
X42.015Y-115.2
X42.015Y-117.7
X42.015Y-120.2
X42.115Y-99.1
X42.115Y-101.6
X42.115Y-104.1
T0
M30
