G04 #@! TF.GenerationSoftware,KiCad,Pcbnew,7.0.10*
G04 #@! TF.CreationDate,2024-01-17T23:47:41+03:00*
G04 #@! TF.ProjectId,BIM_PCB,42494d5f-5043-4422-9e6b-696361645f70,rev?*
G04 #@! TF.SameCoordinates,Original*
G04 #@! TF.FileFunction,Legend,Bot*
G04 #@! TF.FilePolarity,Positive*
%FSLAX46Y46*%
G04 Gerber Fmt 4.6, Leading zero omitted, Abs format (unit mm)*
G04 Created by KiCad (PCBNEW 7.0.10) date 2024-01-17 23:47:41*
%MOMM*%
%LPD*%
G01*
G04 APERTURE LIST*
%ADD10C,0.200000*%
%ADD11C,0.150000*%
%ADD12C,0.127000*%
%ADD13C,0.120000*%
%ADD14C,0.100000*%
G04 APERTURE END LIST*
D10*
G36*
X71385589Y-60430000D02*
G01*
X71540195Y-60430000D01*
X71540195Y-59893886D01*
X71540042Y-59882800D01*
X71539584Y-59870668D01*
X71539040Y-59860883D01*
X71538325Y-59850509D01*
X71537438Y-59839548D01*
X71536379Y-59827998D01*
X71535148Y-59815860D01*
X71533745Y-59803134D01*
X71532171Y-59789820D01*
X71530425Y-59775917D01*
X71669399Y-60320579D01*
X71750976Y-60320579D01*
X71890439Y-59775917D01*
X71888737Y-59790069D01*
X71887202Y-59803581D01*
X71885835Y-59816453D01*
X71884635Y-59828685D01*
X71883602Y-59840278D01*
X71882737Y-59851231D01*
X71882039Y-59861544D01*
X71881369Y-59874300D01*
X71880997Y-59885919D01*
X71880914Y-59893886D01*
X71880914Y-60430000D01*
X72035519Y-60430000D01*
X72035519Y-59351423D01*
X71883600Y-59351423D01*
X71714584Y-59941025D01*
X71712882Y-59951037D01*
X71711948Y-59961015D01*
X71711241Y-59971800D01*
X71710718Y-59982362D01*
X71710432Y-59989385D01*
X71710104Y-59978648D01*
X71709394Y-59968747D01*
X71708287Y-59957490D01*
X71707022Y-59946763D01*
X71706280Y-59941025D01*
X71537508Y-59351423D01*
X71385589Y-59351423D01*
X71385589Y-60430000D01*
G37*
G36*
X71300837Y-60427313D02*
G01*
X71300837Y-60430000D01*
X71142079Y-60430000D01*
X71109839Y-60242421D01*
X70908583Y-60242421D01*
X70876343Y-60430000D01*
X70716852Y-60430000D01*
X70782812Y-60086106D01*
X70931297Y-60086106D01*
X71088590Y-60086106D01*
X71009455Y-59600795D01*
X70931297Y-60086106D01*
X70782812Y-60086106D01*
X70923726Y-59351423D01*
X71092742Y-59351423D01*
X71300837Y-60427313D01*
G37*
G36*
X70630635Y-60430000D02*
G01*
X70302861Y-60430000D01*
X70291077Y-60429789D01*
X70279600Y-60429156D01*
X70268431Y-60428102D01*
X70257569Y-60426626D01*
X70247014Y-60424728D01*
X70236766Y-60422409D01*
X70226826Y-60419668D01*
X70217192Y-60416505D01*
X70207866Y-60412921D01*
X70198848Y-60408914D01*
X70185895Y-60402115D01*
X70173634Y-60394366D01*
X70162064Y-60385668D01*
X70151186Y-60376022D01*
X70141103Y-60365497D01*
X70132012Y-60354255D01*
X70123912Y-60342296D01*
X70116805Y-60329620D01*
X70112617Y-60320770D01*
X70108871Y-60311603D01*
X70105565Y-60302116D01*
X70102700Y-60292311D01*
X70100275Y-60282188D01*
X70098292Y-60271745D01*
X70096749Y-60260984D01*
X70095647Y-60249905D01*
X70094986Y-60238506D01*
X70094766Y-60226789D01*
X70094766Y-60186001D01*
X70256210Y-60186001D01*
X70256306Y-60191395D01*
X70257073Y-60201671D01*
X70259662Y-60215799D01*
X70263977Y-60228387D01*
X70270018Y-60239433D01*
X70277784Y-60248938D01*
X70287277Y-60256901D01*
X70298495Y-60263323D01*
X70311440Y-60268204D01*
X70321028Y-60270601D01*
X70331384Y-60272314D01*
X70342506Y-60273342D01*
X70354396Y-60273684D01*
X70469678Y-60273684D01*
X70469678Y-59507739D01*
X70350244Y-59507739D01*
X70338857Y-59508075D01*
X70328205Y-59509086D01*
X70313604Y-59511864D01*
X70300656Y-59516158D01*
X70289361Y-59521968D01*
X70279719Y-59529293D01*
X70271729Y-59538134D01*
X70265393Y-59548490D01*
X70260710Y-59560362D01*
X70257680Y-59573749D01*
X70256578Y-59583516D01*
X70256210Y-59593956D01*
X70256210Y-60186001D01*
X70094766Y-60186001D01*
X70094766Y-59554633D01*
X70094821Y-59548765D01*
X70095262Y-59537264D01*
X70096143Y-59526079D01*
X70097466Y-59515208D01*
X70099229Y-59504652D01*
X70101433Y-59494411D01*
X70104077Y-59484485D01*
X70107163Y-59474874D01*
X70110689Y-59465577D01*
X70116805Y-59452223D01*
X70123912Y-59439577D01*
X70132012Y-59427639D01*
X70141103Y-59416410D01*
X70151186Y-59405889D01*
X70154735Y-59402538D01*
X70165844Y-59393124D01*
X70177644Y-59384667D01*
X70190136Y-59377167D01*
X70198848Y-59372699D01*
X70207866Y-59368657D01*
X70217192Y-59365040D01*
X70226826Y-59361848D01*
X70236766Y-59359082D01*
X70247014Y-59356742D01*
X70257569Y-59354827D01*
X70268431Y-59353338D01*
X70279600Y-59352274D01*
X70291077Y-59351636D01*
X70302861Y-59351423D01*
X70630635Y-59351423D01*
X70630635Y-60430000D01*
G37*
G36*
X69528122Y-60430000D02*
G01*
X69974110Y-60430000D01*
X69974110Y-59351423D01*
X69532274Y-59351423D01*
X69532274Y-59507739D01*
X69813154Y-59507739D01*
X69813154Y-59804738D01*
X69571353Y-59804738D01*
X69571353Y-59961053D01*
X69813154Y-59961053D01*
X69813154Y-60273684D01*
X69528122Y-60273684D01*
X69528122Y-60430000D01*
G37*
G36*
X68969295Y-60430000D02*
G01*
X69130006Y-60430000D01*
X69130006Y-59351423D01*
X68969295Y-59351423D01*
X68969295Y-60430000D01*
G37*
G36*
X68294940Y-60430000D02*
G01*
X68435868Y-60430000D01*
X68693545Y-59751249D01*
X68691083Y-59763312D01*
X68688950Y-59774711D01*
X68687145Y-59785446D01*
X68685668Y-59795518D01*
X68684283Y-59807173D01*
X68683411Y-59817790D01*
X68683042Y-59829162D01*
X68683042Y-60430000D01*
X68839846Y-60430000D01*
X68839846Y-59351423D01*
X68698918Y-59351423D01*
X68441242Y-60016496D01*
X68443703Y-60004433D01*
X68445836Y-59993034D01*
X68447642Y-59982299D01*
X68449118Y-59972227D01*
X68450503Y-59960572D01*
X68451375Y-59949954D01*
X68451744Y-59938583D01*
X68451744Y-59351423D01*
X68294940Y-59351423D01*
X68294940Y-60430000D01*
G37*
G36*
X67339462Y-60430000D02*
G01*
X67516538Y-60430000D01*
X67720481Y-59952749D01*
X67720481Y-60430000D01*
X67881437Y-60430000D01*
X67881437Y-59351423D01*
X67720481Y-59351423D01*
X67720481Y-59811821D01*
X67541939Y-59351423D01*
X67366085Y-59351423D01*
X67366085Y-59358995D01*
X67584682Y-59875080D01*
X67339462Y-60430000D01*
G37*
G36*
X66832658Y-60430000D02*
G01*
X67278646Y-60430000D01*
X67278646Y-59351423D01*
X66836810Y-59351423D01*
X66836810Y-59507739D01*
X67117690Y-59507739D01*
X67117690Y-59804738D01*
X66875889Y-59804738D01*
X66875889Y-59961053D01*
X67117690Y-59961053D01*
X67117690Y-60273684D01*
X66832658Y-60273684D01*
X66832658Y-60430000D01*
G37*
G36*
X66180774Y-60430000D02*
G01*
X66321702Y-60430000D01*
X66579378Y-59751249D01*
X66576917Y-59763312D01*
X66574784Y-59774711D01*
X66572978Y-59785446D01*
X66571502Y-59795518D01*
X66570117Y-59807173D01*
X66569245Y-59817790D01*
X66568876Y-59829162D01*
X66568876Y-60430000D01*
X66725680Y-60430000D01*
X66725680Y-59351423D01*
X66584752Y-59351423D01*
X66327076Y-60016496D01*
X66329537Y-60004433D01*
X66331670Y-59993034D01*
X66333475Y-59982299D01*
X66334952Y-59972227D01*
X66336337Y-59960572D01*
X66337209Y-59949954D01*
X66337578Y-59938583D01*
X66337578Y-59351423D01*
X66180774Y-59351423D01*
X66180774Y-60430000D01*
G37*
G36*
X65514724Y-59357773D02*
G01*
X65656873Y-59808401D01*
X65661936Y-59821754D01*
X65665493Y-59831551D01*
X65669195Y-59842063D01*
X65673042Y-59853290D01*
X65677034Y-59865233D01*
X65681171Y-59877892D01*
X65685452Y-59891266D01*
X65689879Y-59905356D01*
X65694451Y-59920161D01*
X65699168Y-59935682D01*
X65704030Y-59951919D01*
X65709037Y-59968871D01*
X65714189Y-59986538D01*
X65719486Y-60004921D01*
X65722189Y-60014381D01*
X65724928Y-60024020D01*
X65727704Y-60033838D01*
X65727704Y-60430000D01*
X65889148Y-60430000D01*
X65889148Y-60033838D01*
X65891293Y-60023707D01*
X65893605Y-60013464D01*
X65896084Y-60003110D01*
X65898731Y-59992645D01*
X65901545Y-59982067D01*
X65904527Y-59971378D01*
X65907676Y-59960578D01*
X65910993Y-59949665D01*
X65914477Y-59938642D01*
X65918128Y-59927506D01*
X65920655Y-59920020D01*
X65925074Y-59907563D01*
X65929231Y-59895837D01*
X65933126Y-59884841D01*
X65936760Y-59874576D01*
X65940133Y-59865042D01*
X65944702Y-59852111D01*
X65948682Y-59840825D01*
X65952075Y-59831183D01*
X65955683Y-59820884D01*
X65959135Y-59810918D01*
X65959979Y-59808401D01*
X66101395Y-59357529D01*
X66101395Y-59351423D01*
X65935799Y-59351423D01*
X65807327Y-59820858D01*
X65679588Y-59351423D01*
X65514724Y-59351423D01*
X65514724Y-59357773D01*
G37*
G36*
X65475157Y-60427313D02*
G01*
X65475157Y-60430000D01*
X65316399Y-60430000D01*
X65284159Y-60242421D01*
X65082903Y-60242421D01*
X65050662Y-60430000D01*
X64891172Y-60430000D01*
X64957132Y-60086106D01*
X65105617Y-60086106D01*
X65262909Y-60086106D01*
X65183775Y-59600795D01*
X65105617Y-60086106D01*
X64957132Y-60086106D01*
X65098046Y-59351423D01*
X65267062Y-59351423D01*
X65475157Y-60427313D01*
G37*
D11*
X64858458Y-123619819D02*
X64239411Y-123619819D01*
X64239411Y-123619819D02*
X64572744Y-124000771D01*
X64572744Y-124000771D02*
X64429887Y-124000771D01*
X64429887Y-124000771D02*
X64334649Y-124048390D01*
X64334649Y-124048390D02*
X64287030Y-124096009D01*
X64287030Y-124096009D02*
X64239411Y-124191247D01*
X64239411Y-124191247D02*
X64239411Y-124429342D01*
X64239411Y-124429342D02*
X64287030Y-124524580D01*
X64287030Y-124524580D02*
X64334649Y-124572200D01*
X64334649Y-124572200D02*
X64429887Y-124619819D01*
X64429887Y-124619819D02*
X64715601Y-124619819D01*
X64715601Y-124619819D02*
X64810839Y-124572200D01*
X64810839Y-124572200D02*
X64858458Y-124524580D01*
X63953696Y-123619819D02*
X63620363Y-124619819D01*
X63620363Y-124619819D02*
X63287030Y-123619819D01*
X63048934Y-123619819D02*
X62429887Y-123619819D01*
X62429887Y-123619819D02*
X62763220Y-124000771D01*
X62763220Y-124000771D02*
X62620363Y-124000771D01*
X62620363Y-124000771D02*
X62525125Y-124048390D01*
X62525125Y-124048390D02*
X62477506Y-124096009D01*
X62477506Y-124096009D02*
X62429887Y-124191247D01*
X62429887Y-124191247D02*
X62429887Y-124429342D01*
X62429887Y-124429342D02*
X62477506Y-124524580D01*
X62477506Y-124524580D02*
X62525125Y-124572200D01*
X62525125Y-124572200D02*
X62620363Y-124619819D01*
X62620363Y-124619819D02*
X62906077Y-124619819D01*
X62906077Y-124619819D02*
X63001315Y-124572200D01*
X63001315Y-124572200D02*
X63048934Y-124524580D01*
X63072744Y-58844819D02*
X62977506Y-58844819D01*
X62977506Y-58844819D02*
X62882268Y-58892438D01*
X62882268Y-58892438D02*
X62834649Y-58940057D01*
X62834649Y-58940057D02*
X62787030Y-59035295D01*
X62787030Y-59035295D02*
X62739411Y-59225771D01*
X62739411Y-59225771D02*
X62739411Y-59463866D01*
X62739411Y-59463866D02*
X62787030Y-59654342D01*
X62787030Y-59654342D02*
X62834649Y-59749580D01*
X62834649Y-59749580D02*
X62882268Y-59797200D01*
X62882268Y-59797200D02*
X62977506Y-59844819D01*
X62977506Y-59844819D02*
X63072744Y-59844819D01*
X63072744Y-59844819D02*
X63167982Y-59797200D01*
X63167982Y-59797200D02*
X63215601Y-59749580D01*
X63215601Y-59749580D02*
X63263220Y-59654342D01*
X63263220Y-59654342D02*
X63310839Y-59463866D01*
X63310839Y-59463866D02*
X63310839Y-59225771D01*
X63310839Y-59225771D02*
X63263220Y-59035295D01*
X63263220Y-59035295D02*
X63215601Y-58940057D01*
X63215601Y-58940057D02*
X63167982Y-58892438D01*
X63167982Y-58892438D02*
X63072744Y-58844819D01*
X62120363Y-58844819D02*
X62025125Y-58844819D01*
X62025125Y-58844819D02*
X61929887Y-58892438D01*
X61929887Y-58892438D02*
X61882268Y-58940057D01*
X61882268Y-58940057D02*
X61834649Y-59035295D01*
X61834649Y-59035295D02*
X61787030Y-59225771D01*
X61787030Y-59225771D02*
X61787030Y-59463866D01*
X61787030Y-59463866D02*
X61834649Y-59654342D01*
X61834649Y-59654342D02*
X61882268Y-59749580D01*
X61882268Y-59749580D02*
X61929887Y-59797200D01*
X61929887Y-59797200D02*
X62025125Y-59844819D01*
X62025125Y-59844819D02*
X62120363Y-59844819D01*
X62120363Y-59844819D02*
X62215601Y-59797200D01*
X62215601Y-59797200D02*
X62263220Y-59749580D01*
X62263220Y-59749580D02*
X62310839Y-59654342D01*
X62310839Y-59654342D02*
X62358458Y-59463866D01*
X62358458Y-59463866D02*
X62358458Y-59225771D01*
X62358458Y-59225771D02*
X62310839Y-59035295D01*
X62310839Y-59035295D02*
X62263220Y-58940057D01*
X62263220Y-58940057D02*
X62215601Y-58892438D01*
X62215601Y-58892438D02*
X62120363Y-58844819D01*
X60834649Y-59844819D02*
X61406077Y-59844819D01*
X61120363Y-59844819D02*
X61120363Y-58844819D01*
X61120363Y-58844819D02*
X61215601Y-58987676D01*
X61215601Y-58987676D02*
X61310839Y-59082914D01*
X61310839Y-59082914D02*
X61406077Y-59130533D01*
X60453696Y-58940057D02*
X60406077Y-58892438D01*
X60406077Y-58892438D02*
X60310839Y-58844819D01*
X60310839Y-58844819D02*
X60072744Y-58844819D01*
X60072744Y-58844819D02*
X59977506Y-58892438D01*
X59977506Y-58892438D02*
X59929887Y-58940057D01*
X59929887Y-58940057D02*
X59882268Y-59035295D01*
X59882268Y-59035295D02*
X59882268Y-59130533D01*
X59882268Y-59130533D02*
X59929887Y-59273390D01*
X59929887Y-59273390D02*
X60501315Y-59844819D01*
X60501315Y-59844819D02*
X59882268Y-59844819D01*
X59501315Y-58940057D02*
X59453696Y-58892438D01*
X59453696Y-58892438D02*
X59358458Y-58844819D01*
X59358458Y-58844819D02*
X59120363Y-58844819D01*
X59120363Y-58844819D02*
X59025125Y-58892438D01*
X59025125Y-58892438D02*
X58977506Y-58940057D01*
X58977506Y-58940057D02*
X58929887Y-59035295D01*
X58929887Y-59035295D02*
X58929887Y-59130533D01*
X58929887Y-59130533D02*
X58977506Y-59273390D01*
X58977506Y-59273390D02*
X59548934Y-59844819D01*
X59548934Y-59844819D02*
X58929887Y-59844819D01*
X57977506Y-59844819D02*
X58548934Y-59844819D01*
X58263220Y-59844819D02*
X58263220Y-58844819D01*
X58263220Y-58844819D02*
X58358458Y-58987676D01*
X58358458Y-58987676D02*
X58453696Y-59082914D01*
X58453696Y-59082914D02*
X58548934Y-59130533D01*
X57596553Y-58940057D02*
X57548934Y-58892438D01*
X57548934Y-58892438D02*
X57453696Y-58844819D01*
X57453696Y-58844819D02*
X57215601Y-58844819D01*
X57215601Y-58844819D02*
X57120363Y-58892438D01*
X57120363Y-58892438D02*
X57072744Y-58940057D01*
X57072744Y-58940057D02*
X57025125Y-59035295D01*
X57025125Y-59035295D02*
X57025125Y-59130533D01*
X57025125Y-59130533D02*
X57072744Y-59273390D01*
X57072744Y-59273390D02*
X57644172Y-59844819D01*
X57644172Y-59844819D02*
X57025125Y-59844819D01*
X56644172Y-58940057D02*
X56596553Y-58892438D01*
X56596553Y-58892438D02*
X56501315Y-58844819D01*
X56501315Y-58844819D02*
X56263220Y-58844819D01*
X56263220Y-58844819D02*
X56167982Y-58892438D01*
X56167982Y-58892438D02*
X56120363Y-58940057D01*
X56120363Y-58940057D02*
X56072744Y-59035295D01*
X56072744Y-59035295D02*
X56072744Y-59130533D01*
X56072744Y-59130533D02*
X56120363Y-59273390D01*
X56120363Y-59273390D02*
X56691791Y-59844819D01*
X56691791Y-59844819D02*
X56072744Y-59844819D01*
X55739410Y-58844819D02*
X55120363Y-58844819D01*
X55120363Y-58844819D02*
X55453696Y-59225771D01*
X55453696Y-59225771D02*
X55310839Y-59225771D01*
X55310839Y-59225771D02*
X55215601Y-59273390D01*
X55215601Y-59273390D02*
X55167982Y-59321009D01*
X55167982Y-59321009D02*
X55120363Y-59416247D01*
X55120363Y-59416247D02*
X55120363Y-59654342D01*
X55120363Y-59654342D02*
X55167982Y-59749580D01*
X55167982Y-59749580D02*
X55215601Y-59797200D01*
X55215601Y-59797200D02*
X55310839Y-59844819D01*
X55310839Y-59844819D02*
X55596553Y-59844819D01*
X55596553Y-59844819D02*
X55691791Y-59797200D01*
X55691791Y-59797200D02*
X55739410Y-59749580D01*
X70388220Y-127119819D02*
X70388220Y-126119819D01*
X70388220Y-126119819D02*
X70007268Y-126119819D01*
X70007268Y-126119819D02*
X69912030Y-126167438D01*
X69912030Y-126167438D02*
X69864411Y-126215057D01*
X69864411Y-126215057D02*
X69816792Y-126310295D01*
X69816792Y-126310295D02*
X69816792Y-126453152D01*
X69816792Y-126453152D02*
X69864411Y-126548390D01*
X69864411Y-126548390D02*
X69912030Y-126596009D01*
X69912030Y-126596009D02*
X70007268Y-126643628D01*
X70007268Y-126643628D02*
X70388220Y-126643628D01*
X69435839Y-126834104D02*
X68959649Y-126834104D01*
X69531077Y-127119819D02*
X69197744Y-126119819D01*
X69197744Y-126119819D02*
X68864411Y-127119819D01*
X68102506Y-126453152D02*
X68102506Y-127119819D01*
X68340601Y-126072200D02*
X68578696Y-126786485D01*
X68578696Y-126786485D02*
X67959649Y-126786485D01*
X93333561Y-98504451D02*
X93333561Y-99219226D01*
X93333561Y-99219226D02*
X93381213Y-99362181D01*
X93381213Y-99362181D02*
X93476516Y-99457485D01*
X93476516Y-99457485D02*
X93619471Y-99505136D01*
X93619471Y-99505136D02*
X93714775Y-99505136D01*
X92428179Y-98838013D02*
X92428179Y-99505136D01*
X92666438Y-98456800D02*
X92904696Y-99171575D01*
X92904696Y-99171575D02*
X92285224Y-99171575D01*
X45111785Y-113012295D02*
X45378452Y-112631342D01*
X45568928Y-113012295D02*
X45568928Y-112212295D01*
X45568928Y-112212295D02*
X45264166Y-112212295D01*
X45264166Y-112212295D02*
X45187976Y-112250390D01*
X45187976Y-112250390D02*
X45149881Y-112288485D01*
X45149881Y-112288485D02*
X45111785Y-112364676D01*
X45111785Y-112364676D02*
X45111785Y-112478961D01*
X45111785Y-112478961D02*
X45149881Y-112555152D01*
X45149881Y-112555152D02*
X45187976Y-112593247D01*
X45187976Y-112593247D02*
X45264166Y-112631342D01*
X45264166Y-112631342D02*
X45568928Y-112631342D01*
X44426071Y-112212295D02*
X44578452Y-112212295D01*
X44578452Y-112212295D02*
X44654643Y-112250390D01*
X44654643Y-112250390D02*
X44692738Y-112288485D01*
X44692738Y-112288485D02*
X44768928Y-112402771D01*
X44768928Y-112402771D02*
X44807024Y-112555152D01*
X44807024Y-112555152D02*
X44807024Y-112859914D01*
X44807024Y-112859914D02*
X44768928Y-112936104D01*
X44768928Y-112936104D02*
X44730833Y-112974200D01*
X44730833Y-112974200D02*
X44654643Y-113012295D01*
X44654643Y-113012295D02*
X44502262Y-113012295D01*
X44502262Y-113012295D02*
X44426071Y-112974200D01*
X44426071Y-112974200D02*
X44387976Y-112936104D01*
X44387976Y-112936104D02*
X44349881Y-112859914D01*
X44349881Y-112859914D02*
X44349881Y-112669438D01*
X44349881Y-112669438D02*
X44387976Y-112593247D01*
X44387976Y-112593247D02*
X44426071Y-112555152D01*
X44426071Y-112555152D02*
X44502262Y-112517057D01*
X44502262Y-112517057D02*
X44654643Y-112517057D01*
X44654643Y-112517057D02*
X44730833Y-112555152D01*
X44730833Y-112555152D02*
X44768928Y-112593247D01*
X44768928Y-112593247D02*
X44807024Y-112669438D01*
X43664166Y-112478961D02*
X43664166Y-113012295D01*
X43854642Y-112174200D02*
X44045119Y-112745628D01*
X44045119Y-112745628D02*
X43549880Y-112745628D01*
X59687295Y-84485714D02*
X59306342Y-84219047D01*
X59687295Y-84028571D02*
X58887295Y-84028571D01*
X58887295Y-84028571D02*
X58887295Y-84333333D01*
X58887295Y-84333333D02*
X58925390Y-84409523D01*
X58925390Y-84409523D02*
X58963485Y-84447618D01*
X58963485Y-84447618D02*
X59039676Y-84485714D01*
X59039676Y-84485714D02*
X59153961Y-84485714D01*
X59153961Y-84485714D02*
X59230152Y-84447618D01*
X59230152Y-84447618D02*
X59268247Y-84409523D01*
X59268247Y-84409523D02*
X59306342Y-84333333D01*
X59306342Y-84333333D02*
X59306342Y-84028571D01*
X58887295Y-85209523D02*
X58887295Y-84828571D01*
X58887295Y-84828571D02*
X59268247Y-84790475D01*
X59268247Y-84790475D02*
X59230152Y-84828571D01*
X59230152Y-84828571D02*
X59192057Y-84904761D01*
X59192057Y-84904761D02*
X59192057Y-85095237D01*
X59192057Y-85095237D02*
X59230152Y-85171428D01*
X59230152Y-85171428D02*
X59268247Y-85209523D01*
X59268247Y-85209523D02*
X59344438Y-85247618D01*
X59344438Y-85247618D02*
X59534914Y-85247618D01*
X59534914Y-85247618D02*
X59611104Y-85209523D01*
X59611104Y-85209523D02*
X59649200Y-85171428D01*
X59649200Y-85171428D02*
X59687295Y-85095237D01*
X59687295Y-85095237D02*
X59687295Y-84904761D01*
X59687295Y-84904761D02*
X59649200Y-84828571D01*
X59649200Y-84828571D02*
X59611104Y-84790475D01*
X59230152Y-85704761D02*
X59192057Y-85628571D01*
X59192057Y-85628571D02*
X59153961Y-85590476D01*
X59153961Y-85590476D02*
X59077771Y-85552380D01*
X59077771Y-85552380D02*
X59039676Y-85552380D01*
X59039676Y-85552380D02*
X58963485Y-85590476D01*
X58963485Y-85590476D02*
X58925390Y-85628571D01*
X58925390Y-85628571D02*
X58887295Y-85704761D01*
X58887295Y-85704761D02*
X58887295Y-85857142D01*
X58887295Y-85857142D02*
X58925390Y-85933333D01*
X58925390Y-85933333D02*
X58963485Y-85971428D01*
X58963485Y-85971428D02*
X59039676Y-86009523D01*
X59039676Y-86009523D02*
X59077771Y-86009523D01*
X59077771Y-86009523D02*
X59153961Y-85971428D01*
X59153961Y-85971428D02*
X59192057Y-85933333D01*
X59192057Y-85933333D02*
X59230152Y-85857142D01*
X59230152Y-85857142D02*
X59230152Y-85704761D01*
X59230152Y-85704761D02*
X59268247Y-85628571D01*
X59268247Y-85628571D02*
X59306342Y-85590476D01*
X59306342Y-85590476D02*
X59382533Y-85552380D01*
X59382533Y-85552380D02*
X59534914Y-85552380D01*
X59534914Y-85552380D02*
X59611104Y-85590476D01*
X59611104Y-85590476D02*
X59649200Y-85628571D01*
X59649200Y-85628571D02*
X59687295Y-85704761D01*
X59687295Y-85704761D02*
X59687295Y-85857142D01*
X59687295Y-85857142D02*
X59649200Y-85933333D01*
X59649200Y-85933333D02*
X59611104Y-85971428D01*
X59611104Y-85971428D02*
X59534914Y-86009523D01*
X59534914Y-86009523D02*
X59382533Y-86009523D01*
X59382533Y-86009523D02*
X59306342Y-85971428D01*
X59306342Y-85971428D02*
X59268247Y-85933333D01*
X59268247Y-85933333D02*
X59230152Y-85857142D01*
X49869285Y-108336104D02*
X49907381Y-108374200D01*
X49907381Y-108374200D02*
X50021666Y-108412295D01*
X50021666Y-108412295D02*
X50097857Y-108412295D01*
X50097857Y-108412295D02*
X50212143Y-108374200D01*
X50212143Y-108374200D02*
X50288333Y-108298009D01*
X50288333Y-108298009D02*
X50326428Y-108221819D01*
X50326428Y-108221819D02*
X50364524Y-108069438D01*
X50364524Y-108069438D02*
X50364524Y-107955152D01*
X50364524Y-107955152D02*
X50326428Y-107802771D01*
X50326428Y-107802771D02*
X50288333Y-107726580D01*
X50288333Y-107726580D02*
X50212143Y-107650390D01*
X50212143Y-107650390D02*
X50097857Y-107612295D01*
X50097857Y-107612295D02*
X50021666Y-107612295D01*
X50021666Y-107612295D02*
X49907381Y-107650390D01*
X49907381Y-107650390D02*
X49869285Y-107688485D01*
X49145476Y-107612295D02*
X49526428Y-107612295D01*
X49526428Y-107612295D02*
X49564524Y-107993247D01*
X49564524Y-107993247D02*
X49526428Y-107955152D01*
X49526428Y-107955152D02*
X49450238Y-107917057D01*
X49450238Y-107917057D02*
X49259762Y-107917057D01*
X49259762Y-107917057D02*
X49183571Y-107955152D01*
X49183571Y-107955152D02*
X49145476Y-107993247D01*
X49145476Y-107993247D02*
X49107381Y-108069438D01*
X49107381Y-108069438D02*
X49107381Y-108259914D01*
X49107381Y-108259914D02*
X49145476Y-108336104D01*
X49145476Y-108336104D02*
X49183571Y-108374200D01*
X49183571Y-108374200D02*
X49259762Y-108412295D01*
X49259762Y-108412295D02*
X49450238Y-108412295D01*
X49450238Y-108412295D02*
X49526428Y-108374200D01*
X49526428Y-108374200D02*
X49564524Y-108336104D01*
X48612142Y-107612295D02*
X48535952Y-107612295D01*
X48535952Y-107612295D02*
X48459761Y-107650390D01*
X48459761Y-107650390D02*
X48421666Y-107688485D01*
X48421666Y-107688485D02*
X48383571Y-107764676D01*
X48383571Y-107764676D02*
X48345476Y-107917057D01*
X48345476Y-107917057D02*
X48345476Y-108107533D01*
X48345476Y-108107533D02*
X48383571Y-108259914D01*
X48383571Y-108259914D02*
X48421666Y-108336104D01*
X48421666Y-108336104D02*
X48459761Y-108374200D01*
X48459761Y-108374200D02*
X48535952Y-108412295D01*
X48535952Y-108412295D02*
X48612142Y-108412295D01*
X48612142Y-108412295D02*
X48688333Y-108374200D01*
X48688333Y-108374200D02*
X48726428Y-108336104D01*
X48726428Y-108336104D02*
X48764523Y-108259914D01*
X48764523Y-108259914D02*
X48802619Y-108107533D01*
X48802619Y-108107533D02*
X48802619Y-107917057D01*
X48802619Y-107917057D02*
X48764523Y-107764676D01*
X48764523Y-107764676D02*
X48726428Y-107688485D01*
X48726428Y-107688485D02*
X48688333Y-107650390D01*
X48688333Y-107650390D02*
X48612142Y-107612295D01*
X70232143Y-123612295D02*
X69889286Y-123612295D01*
X70060714Y-124412295D02*
X70060714Y-123612295D01*
X69689285Y-124412295D02*
X69689285Y-123612295D01*
X69689285Y-123612295D02*
X69460714Y-123612295D01*
X69460714Y-123612295D02*
X69403571Y-123650390D01*
X69403571Y-123650390D02*
X69375000Y-123688485D01*
X69375000Y-123688485D02*
X69346428Y-123764676D01*
X69346428Y-123764676D02*
X69346428Y-123878961D01*
X69346428Y-123878961D02*
X69375000Y-123955152D01*
X69375000Y-123955152D02*
X69403571Y-123993247D01*
X69403571Y-123993247D02*
X69460714Y-124031342D01*
X69460714Y-124031342D02*
X69689285Y-124031342D01*
X69146428Y-123612295D02*
X68746428Y-123612295D01*
X68746428Y-123612295D02*
X69003571Y-124412295D01*
X52737294Y-103735714D02*
X52356341Y-103469047D01*
X52737294Y-103278571D02*
X51937294Y-103278571D01*
X51937294Y-103278571D02*
X51937294Y-103583333D01*
X51937294Y-103583333D02*
X51975389Y-103659523D01*
X51975389Y-103659523D02*
X52013484Y-103697618D01*
X52013484Y-103697618D02*
X52089675Y-103735714D01*
X52089675Y-103735714D02*
X52203960Y-103735714D01*
X52203960Y-103735714D02*
X52280151Y-103697618D01*
X52280151Y-103697618D02*
X52318246Y-103659523D01*
X52318246Y-103659523D02*
X52356341Y-103583333D01*
X52356341Y-103583333D02*
X52356341Y-103278571D01*
X51937294Y-104002380D02*
X51937294Y-104497618D01*
X51937294Y-104497618D02*
X52242056Y-104230952D01*
X52242056Y-104230952D02*
X52242056Y-104345237D01*
X52242056Y-104345237D02*
X52280151Y-104421428D01*
X52280151Y-104421428D02*
X52318246Y-104459523D01*
X52318246Y-104459523D02*
X52394437Y-104497618D01*
X52394437Y-104497618D02*
X52584913Y-104497618D01*
X52584913Y-104497618D02*
X52661103Y-104459523D01*
X52661103Y-104459523D02*
X52699199Y-104421428D01*
X52699199Y-104421428D02*
X52737294Y-104345237D01*
X52737294Y-104345237D02*
X52737294Y-104116666D01*
X52737294Y-104116666D02*
X52699199Y-104040475D01*
X52699199Y-104040475D02*
X52661103Y-104002380D01*
X52737294Y-105259523D02*
X52737294Y-104802380D01*
X52737294Y-105030952D02*
X51937294Y-105030952D01*
X51937294Y-105030952D02*
X52051579Y-104954761D01*
X52051579Y-104954761D02*
X52127770Y-104878571D01*
X52127770Y-104878571D02*
X52165865Y-104802380D01*
X71724795Y-128821429D02*
X71343842Y-128554762D01*
X71724795Y-128364286D02*
X70924795Y-128364286D01*
X70924795Y-128364286D02*
X70924795Y-128669048D01*
X70924795Y-128669048D02*
X70962890Y-128745238D01*
X70962890Y-128745238D02*
X71000985Y-128783333D01*
X71000985Y-128783333D02*
X71077176Y-128821429D01*
X71077176Y-128821429D02*
X71191461Y-128821429D01*
X71191461Y-128821429D02*
X71267652Y-128783333D01*
X71267652Y-128783333D02*
X71305747Y-128745238D01*
X71305747Y-128745238D02*
X71343842Y-128669048D01*
X71343842Y-128669048D02*
X71343842Y-128364286D01*
X70924795Y-129088095D02*
X70924795Y-129583333D01*
X70924795Y-129583333D02*
X71229557Y-129316667D01*
X71229557Y-129316667D02*
X71229557Y-129430952D01*
X71229557Y-129430952D02*
X71267652Y-129507143D01*
X71267652Y-129507143D02*
X71305747Y-129545238D01*
X71305747Y-129545238D02*
X71381938Y-129583333D01*
X71381938Y-129583333D02*
X71572414Y-129583333D01*
X71572414Y-129583333D02*
X71648604Y-129545238D01*
X71648604Y-129545238D02*
X71686700Y-129507143D01*
X71686700Y-129507143D02*
X71724795Y-129430952D01*
X71724795Y-129430952D02*
X71724795Y-129202381D01*
X71724795Y-129202381D02*
X71686700Y-129126190D01*
X71686700Y-129126190D02*
X71648604Y-129088095D01*
X51689286Y-90099795D02*
X51955953Y-89718842D01*
X52146429Y-90099795D02*
X52146429Y-89299795D01*
X52146429Y-89299795D02*
X51841667Y-89299795D01*
X51841667Y-89299795D02*
X51765477Y-89337890D01*
X51765477Y-89337890D02*
X51727382Y-89375985D01*
X51727382Y-89375985D02*
X51689286Y-89452176D01*
X51689286Y-89452176D02*
X51689286Y-89566461D01*
X51689286Y-89566461D02*
X51727382Y-89642652D01*
X51727382Y-89642652D02*
X51765477Y-89680747D01*
X51765477Y-89680747D02*
X51841667Y-89718842D01*
X51841667Y-89718842D02*
X52146429Y-89718842D01*
X51422620Y-89299795D02*
X50927382Y-89299795D01*
X50927382Y-89299795D02*
X51194048Y-89604557D01*
X51194048Y-89604557D02*
X51079763Y-89604557D01*
X51079763Y-89604557D02*
X51003572Y-89642652D01*
X51003572Y-89642652D02*
X50965477Y-89680747D01*
X50965477Y-89680747D02*
X50927382Y-89756938D01*
X50927382Y-89756938D02*
X50927382Y-89947414D01*
X50927382Y-89947414D02*
X50965477Y-90023604D01*
X50965477Y-90023604D02*
X51003572Y-90061700D01*
X51003572Y-90061700D02*
X51079763Y-90099795D01*
X51079763Y-90099795D02*
X51308334Y-90099795D01*
X51308334Y-90099795D02*
X51384525Y-90061700D01*
X51384525Y-90061700D02*
X51422620Y-90023604D01*
X50470239Y-89642652D02*
X50546429Y-89604557D01*
X50546429Y-89604557D02*
X50584524Y-89566461D01*
X50584524Y-89566461D02*
X50622620Y-89490271D01*
X50622620Y-89490271D02*
X50622620Y-89452176D01*
X50622620Y-89452176D02*
X50584524Y-89375985D01*
X50584524Y-89375985D02*
X50546429Y-89337890D01*
X50546429Y-89337890D02*
X50470239Y-89299795D01*
X50470239Y-89299795D02*
X50317858Y-89299795D01*
X50317858Y-89299795D02*
X50241667Y-89337890D01*
X50241667Y-89337890D02*
X50203572Y-89375985D01*
X50203572Y-89375985D02*
X50165477Y-89452176D01*
X50165477Y-89452176D02*
X50165477Y-89490271D01*
X50165477Y-89490271D02*
X50203572Y-89566461D01*
X50203572Y-89566461D02*
X50241667Y-89604557D01*
X50241667Y-89604557D02*
X50317858Y-89642652D01*
X50317858Y-89642652D02*
X50470239Y-89642652D01*
X50470239Y-89642652D02*
X50546429Y-89680747D01*
X50546429Y-89680747D02*
X50584524Y-89718842D01*
X50584524Y-89718842D02*
X50622620Y-89795033D01*
X50622620Y-89795033D02*
X50622620Y-89947414D01*
X50622620Y-89947414D02*
X50584524Y-90023604D01*
X50584524Y-90023604D02*
X50546429Y-90061700D01*
X50546429Y-90061700D02*
X50470239Y-90099795D01*
X50470239Y-90099795D02*
X50317858Y-90099795D01*
X50317858Y-90099795D02*
X50241667Y-90061700D01*
X50241667Y-90061700D02*
X50203572Y-90023604D01*
X50203572Y-90023604D02*
X50165477Y-89947414D01*
X50165477Y-89947414D02*
X50165477Y-89795033D01*
X50165477Y-89795033D02*
X50203572Y-89718842D01*
X50203572Y-89718842D02*
X50241667Y-89680747D01*
X50241667Y-89680747D02*
X50317858Y-89642652D01*
X71124795Y-123998095D02*
X71696223Y-123998095D01*
X71696223Y-123998095D02*
X71810509Y-123960000D01*
X71810509Y-123960000D02*
X71886700Y-123883809D01*
X71886700Y-123883809D02*
X71924795Y-123769524D01*
X71924795Y-123769524D02*
X71924795Y-123693333D01*
X71924795Y-124379048D02*
X71124795Y-124379048D01*
X71124795Y-124379048D02*
X71124795Y-124683810D01*
X71124795Y-124683810D02*
X71162890Y-124760000D01*
X71162890Y-124760000D02*
X71200985Y-124798095D01*
X71200985Y-124798095D02*
X71277176Y-124836191D01*
X71277176Y-124836191D02*
X71391461Y-124836191D01*
X71391461Y-124836191D02*
X71467652Y-124798095D01*
X71467652Y-124798095D02*
X71505747Y-124760000D01*
X71505747Y-124760000D02*
X71543842Y-124683810D01*
X71543842Y-124683810D02*
X71543842Y-124379048D01*
X71924795Y-125598095D02*
X71924795Y-125140952D01*
X71924795Y-125369524D02*
X71124795Y-125369524D01*
X71124795Y-125369524D02*
X71239080Y-125293333D01*
X71239080Y-125293333D02*
X71315271Y-125217143D01*
X71315271Y-125217143D02*
X71353366Y-125140952D01*
X72617319Y-128931429D02*
X72617319Y-129550476D01*
X72617319Y-129550476D02*
X72998271Y-129217143D01*
X72998271Y-129217143D02*
X72998271Y-129360000D01*
X72998271Y-129360000D02*
X73045890Y-129455238D01*
X73045890Y-129455238D02*
X73093509Y-129502857D01*
X73093509Y-129502857D02*
X73188747Y-129550476D01*
X73188747Y-129550476D02*
X73426842Y-129550476D01*
X73426842Y-129550476D02*
X73522080Y-129502857D01*
X73522080Y-129502857D02*
X73569700Y-129455238D01*
X73569700Y-129455238D02*
X73617319Y-129360000D01*
X73617319Y-129360000D02*
X73617319Y-129074286D01*
X73617319Y-129074286D02*
X73569700Y-128979048D01*
X73569700Y-128979048D02*
X73522080Y-128931429D01*
X73617319Y-124350476D02*
X73617319Y-123779048D01*
X73617319Y-124064762D02*
X72617319Y-124064762D01*
X72617319Y-124064762D02*
X72760176Y-123969524D01*
X72760176Y-123969524D02*
X72855414Y-123874286D01*
X72855414Y-123874286D02*
X72903033Y-123779048D01*
X64714285Y-102017295D02*
X64980952Y-101636342D01*
X65171428Y-102017295D02*
X65171428Y-101217295D01*
X65171428Y-101217295D02*
X64866666Y-101217295D01*
X64866666Y-101217295D02*
X64790476Y-101255390D01*
X64790476Y-101255390D02*
X64752381Y-101293485D01*
X64752381Y-101293485D02*
X64714285Y-101369676D01*
X64714285Y-101369676D02*
X64714285Y-101483961D01*
X64714285Y-101483961D02*
X64752381Y-101560152D01*
X64752381Y-101560152D02*
X64790476Y-101598247D01*
X64790476Y-101598247D02*
X64866666Y-101636342D01*
X64866666Y-101636342D02*
X65171428Y-101636342D01*
X64028571Y-101483961D02*
X64028571Y-102017295D01*
X64219047Y-101179200D02*
X64409524Y-101750628D01*
X64409524Y-101750628D02*
X63914285Y-101750628D01*
X63266666Y-101483961D02*
X63266666Y-102017295D01*
X63457142Y-101179200D02*
X63647619Y-101750628D01*
X63647619Y-101750628D02*
X63152380Y-101750628D01*
X77186104Y-94185713D02*
X77224200Y-94147617D01*
X77224200Y-94147617D02*
X77262295Y-94033332D01*
X77262295Y-94033332D02*
X77262295Y-93957141D01*
X77262295Y-93957141D02*
X77224200Y-93842855D01*
X77224200Y-93842855D02*
X77148009Y-93766665D01*
X77148009Y-93766665D02*
X77071819Y-93728570D01*
X77071819Y-93728570D02*
X76919438Y-93690474D01*
X76919438Y-93690474D02*
X76805152Y-93690474D01*
X76805152Y-93690474D02*
X76652771Y-93728570D01*
X76652771Y-93728570D02*
X76576580Y-93766665D01*
X76576580Y-93766665D02*
X76500390Y-93842855D01*
X76500390Y-93842855D02*
X76462295Y-93957141D01*
X76462295Y-93957141D02*
X76462295Y-94033332D01*
X76462295Y-94033332D02*
X76500390Y-94147617D01*
X76500390Y-94147617D02*
X76538485Y-94185713D01*
X76728961Y-94871427D02*
X77262295Y-94871427D01*
X76424200Y-94680951D02*
X76995628Y-94490474D01*
X76995628Y-94490474D02*
X76995628Y-94985713D01*
X76728961Y-95633332D02*
X77262295Y-95633332D01*
X76424200Y-95442856D02*
X76995628Y-95252379D01*
X76995628Y-95252379D02*
X76995628Y-95747618D01*
X53761104Y-90123214D02*
X53799200Y-90085118D01*
X53799200Y-90085118D02*
X53837295Y-89970833D01*
X53837295Y-89970833D02*
X53837295Y-89894642D01*
X53837295Y-89894642D02*
X53799200Y-89780356D01*
X53799200Y-89780356D02*
X53723009Y-89704166D01*
X53723009Y-89704166D02*
X53646819Y-89666071D01*
X53646819Y-89666071D02*
X53494438Y-89627975D01*
X53494438Y-89627975D02*
X53380152Y-89627975D01*
X53380152Y-89627975D02*
X53227771Y-89666071D01*
X53227771Y-89666071D02*
X53151580Y-89704166D01*
X53151580Y-89704166D02*
X53075390Y-89780356D01*
X53075390Y-89780356D02*
X53037295Y-89894642D01*
X53037295Y-89894642D02*
X53037295Y-89970833D01*
X53037295Y-89970833D02*
X53075390Y-90085118D01*
X53075390Y-90085118D02*
X53113485Y-90123214D01*
X53037295Y-90389880D02*
X53037295Y-90885118D01*
X53037295Y-90885118D02*
X53342057Y-90618452D01*
X53342057Y-90618452D02*
X53342057Y-90732737D01*
X53342057Y-90732737D02*
X53380152Y-90808928D01*
X53380152Y-90808928D02*
X53418247Y-90847023D01*
X53418247Y-90847023D02*
X53494438Y-90885118D01*
X53494438Y-90885118D02*
X53684914Y-90885118D01*
X53684914Y-90885118D02*
X53761104Y-90847023D01*
X53761104Y-90847023D02*
X53799200Y-90808928D01*
X53799200Y-90808928D02*
X53837295Y-90732737D01*
X53837295Y-90732737D02*
X53837295Y-90504166D01*
X53837295Y-90504166D02*
X53799200Y-90427975D01*
X53799200Y-90427975D02*
X53761104Y-90389880D01*
X53837295Y-91647023D02*
X53837295Y-91189880D01*
X53837295Y-91418452D02*
X53037295Y-91418452D01*
X53037295Y-91418452D02*
X53151580Y-91342261D01*
X53151580Y-91342261D02*
X53227771Y-91266071D01*
X53227771Y-91266071D02*
X53265866Y-91189880D01*
X50060475Y-108762295D02*
X50060475Y-109409914D01*
X50060475Y-109409914D02*
X50022380Y-109486104D01*
X50022380Y-109486104D02*
X49984285Y-109524200D01*
X49984285Y-109524200D02*
X49908094Y-109562295D01*
X49908094Y-109562295D02*
X49755713Y-109562295D01*
X49755713Y-109562295D02*
X49679523Y-109524200D01*
X49679523Y-109524200D02*
X49641428Y-109486104D01*
X49641428Y-109486104D02*
X49603332Y-109409914D01*
X49603332Y-109409914D02*
X49603332Y-108762295D01*
X48803333Y-109562295D02*
X49260476Y-109562295D01*
X49031904Y-109562295D02*
X49031904Y-108762295D01*
X49031904Y-108762295D02*
X49108095Y-108876580D01*
X49108095Y-108876580D02*
X49184285Y-108952771D01*
X49184285Y-108952771D02*
X49260476Y-108990866D01*
X48422380Y-109562295D02*
X48269999Y-109562295D01*
X48269999Y-109562295D02*
X48193809Y-109524200D01*
X48193809Y-109524200D02*
X48155713Y-109486104D01*
X48155713Y-109486104D02*
X48079523Y-109371819D01*
X48079523Y-109371819D02*
X48041428Y-109219438D01*
X48041428Y-109219438D02*
X48041428Y-108914676D01*
X48041428Y-108914676D02*
X48079523Y-108838485D01*
X48079523Y-108838485D02*
X48117618Y-108800390D01*
X48117618Y-108800390D02*
X48193809Y-108762295D01*
X48193809Y-108762295D02*
X48346190Y-108762295D01*
X48346190Y-108762295D02*
X48422380Y-108800390D01*
X48422380Y-108800390D02*
X48460475Y-108838485D01*
X48460475Y-108838485D02*
X48498571Y-108914676D01*
X48498571Y-108914676D02*
X48498571Y-109105152D01*
X48498571Y-109105152D02*
X48460475Y-109181342D01*
X48460475Y-109181342D02*
X48422380Y-109219438D01*
X48422380Y-109219438D02*
X48346190Y-109257533D01*
X48346190Y-109257533D02*
X48193809Y-109257533D01*
X48193809Y-109257533D02*
X48117618Y-109219438D01*
X48117618Y-109219438D02*
X48079523Y-109181342D01*
X48079523Y-109181342D02*
X48041428Y-109105152D01*
X71617857Y-86399200D02*
X71503571Y-86437295D01*
X71503571Y-86437295D02*
X71313095Y-86437295D01*
X71313095Y-86437295D02*
X71236904Y-86399200D01*
X71236904Y-86399200D02*
X71198809Y-86361104D01*
X71198809Y-86361104D02*
X71160714Y-86284914D01*
X71160714Y-86284914D02*
X71160714Y-86208723D01*
X71160714Y-86208723D02*
X71198809Y-86132533D01*
X71198809Y-86132533D02*
X71236904Y-86094438D01*
X71236904Y-86094438D02*
X71313095Y-86056342D01*
X71313095Y-86056342D02*
X71465476Y-86018247D01*
X71465476Y-86018247D02*
X71541666Y-85980152D01*
X71541666Y-85980152D02*
X71579761Y-85942057D01*
X71579761Y-85942057D02*
X71617857Y-85865866D01*
X71617857Y-85865866D02*
X71617857Y-85789676D01*
X71617857Y-85789676D02*
X71579761Y-85713485D01*
X71579761Y-85713485D02*
X71541666Y-85675390D01*
X71541666Y-85675390D02*
X71465476Y-85637295D01*
X71465476Y-85637295D02*
X71274999Y-85637295D01*
X71274999Y-85637295D02*
X71160714Y-85675390D01*
X70817856Y-86437295D02*
X70817856Y-85637295D01*
X70436904Y-86437295D02*
X70436904Y-85637295D01*
X70436904Y-85637295D02*
X70170238Y-86208723D01*
X70170238Y-86208723D02*
X69903571Y-85637295D01*
X69903571Y-85637295D02*
X69903571Y-86437295D01*
X69713095Y-86513485D02*
X69103571Y-86513485D01*
X68913094Y-86437295D02*
X68913094Y-85637295D01*
X68570238Y-85713485D02*
X68532142Y-85675390D01*
X68532142Y-85675390D02*
X68455952Y-85637295D01*
X68455952Y-85637295D02*
X68265476Y-85637295D01*
X68265476Y-85637295D02*
X68189285Y-85675390D01*
X68189285Y-85675390D02*
X68151190Y-85713485D01*
X68151190Y-85713485D02*
X68113095Y-85789676D01*
X68113095Y-85789676D02*
X68113095Y-85865866D01*
X68113095Y-85865866D02*
X68151190Y-85980152D01*
X68151190Y-85980152D02*
X68608333Y-86437295D01*
X68608333Y-86437295D02*
X68113095Y-86437295D01*
X67313094Y-86361104D02*
X67351190Y-86399200D01*
X67351190Y-86399200D02*
X67465475Y-86437295D01*
X67465475Y-86437295D02*
X67541666Y-86437295D01*
X67541666Y-86437295D02*
X67655952Y-86399200D01*
X67655952Y-86399200D02*
X67732142Y-86323009D01*
X67732142Y-86323009D02*
X67770237Y-86246819D01*
X67770237Y-86246819D02*
X67808333Y-86094438D01*
X67808333Y-86094438D02*
X67808333Y-85980152D01*
X67808333Y-85980152D02*
X67770237Y-85827771D01*
X67770237Y-85827771D02*
X67732142Y-85751580D01*
X67732142Y-85751580D02*
X67655952Y-85675390D01*
X67655952Y-85675390D02*
X67541666Y-85637295D01*
X67541666Y-85637295D02*
X67465475Y-85637295D01*
X67465475Y-85637295D02*
X67351190Y-85675390D01*
X67351190Y-85675390D02*
X67313094Y-85713485D01*
X67160714Y-86513485D02*
X66551190Y-86513485D01*
X66398809Y-86399200D02*
X66284523Y-86437295D01*
X66284523Y-86437295D02*
X66094047Y-86437295D01*
X66094047Y-86437295D02*
X66017856Y-86399200D01*
X66017856Y-86399200D02*
X65979761Y-86361104D01*
X65979761Y-86361104D02*
X65941666Y-86284914D01*
X65941666Y-86284914D02*
X65941666Y-86208723D01*
X65941666Y-86208723D02*
X65979761Y-86132533D01*
X65979761Y-86132533D02*
X66017856Y-86094438D01*
X66017856Y-86094438D02*
X66094047Y-86056342D01*
X66094047Y-86056342D02*
X66246428Y-86018247D01*
X66246428Y-86018247D02*
X66322618Y-85980152D01*
X66322618Y-85980152D02*
X66360713Y-85942057D01*
X66360713Y-85942057D02*
X66398809Y-85865866D01*
X66398809Y-85865866D02*
X66398809Y-85789676D01*
X66398809Y-85789676D02*
X66360713Y-85713485D01*
X66360713Y-85713485D02*
X66322618Y-85675390D01*
X66322618Y-85675390D02*
X66246428Y-85637295D01*
X66246428Y-85637295D02*
X66055951Y-85637295D01*
X66055951Y-85637295D02*
X65941666Y-85675390D01*
X65141665Y-86361104D02*
X65179761Y-86399200D01*
X65179761Y-86399200D02*
X65294046Y-86437295D01*
X65294046Y-86437295D02*
X65370237Y-86437295D01*
X65370237Y-86437295D02*
X65484523Y-86399200D01*
X65484523Y-86399200D02*
X65560713Y-86323009D01*
X65560713Y-86323009D02*
X65598808Y-86246819D01*
X65598808Y-86246819D02*
X65636904Y-86094438D01*
X65636904Y-86094438D02*
X65636904Y-85980152D01*
X65636904Y-85980152D02*
X65598808Y-85827771D01*
X65598808Y-85827771D02*
X65560713Y-85751580D01*
X65560713Y-85751580D02*
X65484523Y-85675390D01*
X65484523Y-85675390D02*
X65370237Y-85637295D01*
X65370237Y-85637295D02*
X65294046Y-85637295D01*
X65294046Y-85637295D02*
X65179761Y-85675390D01*
X65179761Y-85675390D02*
X65141665Y-85713485D01*
X64417856Y-86437295D02*
X64798808Y-86437295D01*
X64798808Y-86437295D02*
X64798808Y-85637295D01*
X63732142Y-86437295D02*
X64189285Y-86437295D01*
X63960713Y-86437295D02*
X63960713Y-85637295D01*
X63960713Y-85637295D02*
X64036904Y-85751580D01*
X64036904Y-85751580D02*
X64113094Y-85827771D01*
X64113094Y-85827771D02*
X64189285Y-85865866D01*
X67946428Y-75612295D02*
X67946428Y-74812295D01*
X67946428Y-74812295D02*
X67755952Y-74812295D01*
X67755952Y-74812295D02*
X67641666Y-74850390D01*
X67641666Y-74850390D02*
X67565476Y-74926580D01*
X67565476Y-74926580D02*
X67527381Y-75002771D01*
X67527381Y-75002771D02*
X67489285Y-75155152D01*
X67489285Y-75155152D02*
X67489285Y-75269438D01*
X67489285Y-75269438D02*
X67527381Y-75421819D01*
X67527381Y-75421819D02*
X67565476Y-75498009D01*
X67565476Y-75498009D02*
X67641666Y-75574200D01*
X67641666Y-75574200D02*
X67755952Y-75612295D01*
X67755952Y-75612295D02*
X67946428Y-75612295D01*
X66727381Y-75612295D02*
X67184524Y-75612295D01*
X66955952Y-75612295D02*
X66955952Y-74812295D01*
X66955952Y-74812295D02*
X67032143Y-74926580D01*
X67032143Y-74926580D02*
X67108333Y-75002771D01*
X67108333Y-75002771D02*
X67184524Y-75040866D01*
X66232142Y-74812295D02*
X66155952Y-74812295D01*
X66155952Y-74812295D02*
X66079761Y-74850390D01*
X66079761Y-74850390D02*
X66041666Y-74888485D01*
X66041666Y-74888485D02*
X66003571Y-74964676D01*
X66003571Y-74964676D02*
X65965476Y-75117057D01*
X65965476Y-75117057D02*
X65965476Y-75307533D01*
X65965476Y-75307533D02*
X66003571Y-75459914D01*
X66003571Y-75459914D02*
X66041666Y-75536104D01*
X66041666Y-75536104D02*
X66079761Y-75574200D01*
X66079761Y-75574200D02*
X66155952Y-75612295D01*
X66155952Y-75612295D02*
X66232142Y-75612295D01*
X66232142Y-75612295D02*
X66308333Y-75574200D01*
X66308333Y-75574200D02*
X66346428Y-75536104D01*
X66346428Y-75536104D02*
X66384523Y-75459914D01*
X66384523Y-75459914D02*
X66422619Y-75307533D01*
X66422619Y-75307533D02*
X66422619Y-75117057D01*
X66422619Y-75117057D02*
X66384523Y-74964676D01*
X66384523Y-74964676D02*
X66346428Y-74888485D01*
X66346428Y-74888485D02*
X66308333Y-74850390D01*
X66308333Y-74850390D02*
X66232142Y-74812295D01*
X45686104Y-108685714D02*
X45724200Y-108647618D01*
X45724200Y-108647618D02*
X45762295Y-108533333D01*
X45762295Y-108533333D02*
X45762295Y-108457142D01*
X45762295Y-108457142D02*
X45724200Y-108342856D01*
X45724200Y-108342856D02*
X45648009Y-108266666D01*
X45648009Y-108266666D02*
X45571819Y-108228571D01*
X45571819Y-108228571D02*
X45419438Y-108190475D01*
X45419438Y-108190475D02*
X45305152Y-108190475D01*
X45305152Y-108190475D02*
X45152771Y-108228571D01*
X45152771Y-108228571D02*
X45076580Y-108266666D01*
X45076580Y-108266666D02*
X45000390Y-108342856D01*
X45000390Y-108342856D02*
X44962295Y-108457142D01*
X44962295Y-108457142D02*
X44962295Y-108533333D01*
X44962295Y-108533333D02*
X45000390Y-108647618D01*
X45000390Y-108647618D02*
X45038485Y-108685714D01*
X44962295Y-109409523D02*
X44962295Y-109028571D01*
X44962295Y-109028571D02*
X45343247Y-108990475D01*
X45343247Y-108990475D02*
X45305152Y-109028571D01*
X45305152Y-109028571D02*
X45267057Y-109104761D01*
X45267057Y-109104761D02*
X45267057Y-109295237D01*
X45267057Y-109295237D02*
X45305152Y-109371428D01*
X45305152Y-109371428D02*
X45343247Y-109409523D01*
X45343247Y-109409523D02*
X45419438Y-109447618D01*
X45419438Y-109447618D02*
X45609914Y-109447618D01*
X45609914Y-109447618D02*
X45686104Y-109409523D01*
X45686104Y-109409523D02*
X45724200Y-109371428D01*
X45724200Y-109371428D02*
X45762295Y-109295237D01*
X45762295Y-109295237D02*
X45762295Y-109104761D01*
X45762295Y-109104761D02*
X45724200Y-109028571D01*
X45724200Y-109028571D02*
X45686104Y-108990475D01*
X45762295Y-110209523D02*
X45762295Y-109752380D01*
X45762295Y-109980952D02*
X44962295Y-109980952D01*
X44962295Y-109980952D02*
X45076580Y-109904761D01*
X45076580Y-109904761D02*
X45152771Y-109828571D01*
X45152771Y-109828571D02*
X45190866Y-109752380D01*
X79974795Y-125131429D02*
X79593842Y-124864762D01*
X79974795Y-124674286D02*
X79174795Y-124674286D01*
X79174795Y-124674286D02*
X79174795Y-124979048D01*
X79174795Y-124979048D02*
X79212890Y-125055238D01*
X79212890Y-125055238D02*
X79250985Y-125093333D01*
X79250985Y-125093333D02*
X79327176Y-125131429D01*
X79327176Y-125131429D02*
X79441461Y-125131429D01*
X79441461Y-125131429D02*
X79517652Y-125093333D01*
X79517652Y-125093333D02*
X79555747Y-125055238D01*
X79555747Y-125055238D02*
X79593842Y-124979048D01*
X79593842Y-124979048D02*
X79593842Y-124674286D01*
X79441461Y-125817143D02*
X79974795Y-125817143D01*
X79136700Y-125626667D02*
X79708128Y-125436190D01*
X79708128Y-125436190D02*
X79708128Y-125931429D01*
X93443247Y-114871428D02*
X93481342Y-114985714D01*
X93481342Y-114985714D02*
X93519438Y-115023809D01*
X93519438Y-115023809D02*
X93595628Y-115061905D01*
X93595628Y-115061905D02*
X93709914Y-115061905D01*
X93709914Y-115061905D02*
X93786104Y-115023809D01*
X93786104Y-115023809D02*
X93824200Y-114985714D01*
X93824200Y-114985714D02*
X93862295Y-114909524D01*
X93862295Y-114909524D02*
X93862295Y-114604762D01*
X93862295Y-114604762D02*
X93062295Y-114604762D01*
X93062295Y-114604762D02*
X93062295Y-114871428D01*
X93062295Y-114871428D02*
X93100390Y-114947619D01*
X93100390Y-114947619D02*
X93138485Y-114985714D01*
X93138485Y-114985714D02*
X93214676Y-115023809D01*
X93214676Y-115023809D02*
X93290866Y-115023809D01*
X93290866Y-115023809D02*
X93367057Y-114985714D01*
X93367057Y-114985714D02*
X93405152Y-114947619D01*
X93405152Y-114947619D02*
X93443247Y-114871428D01*
X93443247Y-114871428D02*
X93443247Y-114604762D01*
X93062295Y-115290476D02*
X93062295Y-115747619D01*
X93862295Y-115519047D02*
X93062295Y-115519047D01*
X93862295Y-116433333D02*
X93862295Y-115976190D01*
X93862295Y-116204762D02*
X93062295Y-116204762D01*
X93062295Y-116204762D02*
X93176580Y-116128571D01*
X93176580Y-116128571D02*
X93252771Y-116052381D01*
X93252771Y-116052381D02*
X93290866Y-115976190D01*
X74492295Y-98485714D02*
X74111342Y-98219047D01*
X74492295Y-98028571D02*
X73692295Y-98028571D01*
X73692295Y-98028571D02*
X73692295Y-98333333D01*
X73692295Y-98333333D02*
X73730390Y-98409523D01*
X73730390Y-98409523D02*
X73768485Y-98447618D01*
X73768485Y-98447618D02*
X73844676Y-98485714D01*
X73844676Y-98485714D02*
X73958961Y-98485714D01*
X73958961Y-98485714D02*
X74035152Y-98447618D01*
X74035152Y-98447618D02*
X74073247Y-98409523D01*
X74073247Y-98409523D02*
X74111342Y-98333333D01*
X74111342Y-98333333D02*
X74111342Y-98028571D01*
X73692295Y-99209523D02*
X73692295Y-98828571D01*
X73692295Y-98828571D02*
X74073247Y-98790475D01*
X74073247Y-98790475D02*
X74035152Y-98828571D01*
X74035152Y-98828571D02*
X73997057Y-98904761D01*
X73997057Y-98904761D02*
X73997057Y-99095237D01*
X73997057Y-99095237D02*
X74035152Y-99171428D01*
X74035152Y-99171428D02*
X74073247Y-99209523D01*
X74073247Y-99209523D02*
X74149438Y-99247618D01*
X74149438Y-99247618D02*
X74339914Y-99247618D01*
X74339914Y-99247618D02*
X74416104Y-99209523D01*
X74416104Y-99209523D02*
X74454200Y-99171428D01*
X74454200Y-99171428D02*
X74492295Y-99095237D01*
X74492295Y-99095237D02*
X74492295Y-98904761D01*
X74492295Y-98904761D02*
X74454200Y-98828571D01*
X74454200Y-98828571D02*
X74416104Y-98790475D01*
X74492295Y-99628571D02*
X74492295Y-99780952D01*
X74492295Y-99780952D02*
X74454200Y-99857142D01*
X74454200Y-99857142D02*
X74416104Y-99895238D01*
X74416104Y-99895238D02*
X74301819Y-99971428D01*
X74301819Y-99971428D02*
X74149438Y-100009523D01*
X74149438Y-100009523D02*
X73844676Y-100009523D01*
X73844676Y-100009523D02*
X73768485Y-99971428D01*
X73768485Y-99971428D02*
X73730390Y-99933333D01*
X73730390Y-99933333D02*
X73692295Y-99857142D01*
X73692295Y-99857142D02*
X73692295Y-99704761D01*
X73692295Y-99704761D02*
X73730390Y-99628571D01*
X73730390Y-99628571D02*
X73768485Y-99590476D01*
X73768485Y-99590476D02*
X73844676Y-99552380D01*
X73844676Y-99552380D02*
X74035152Y-99552380D01*
X74035152Y-99552380D02*
X74111342Y-99590476D01*
X74111342Y-99590476D02*
X74149438Y-99628571D01*
X74149438Y-99628571D02*
X74187533Y-99704761D01*
X74187533Y-99704761D02*
X74187533Y-99857142D01*
X74187533Y-99857142D02*
X74149438Y-99933333D01*
X74149438Y-99933333D02*
X74111342Y-99971428D01*
X74111342Y-99971428D02*
X74035152Y-100009523D01*
X77286104Y-87985714D02*
X77324200Y-87947618D01*
X77324200Y-87947618D02*
X77362295Y-87833333D01*
X77362295Y-87833333D02*
X77362295Y-87757142D01*
X77362295Y-87757142D02*
X77324200Y-87642856D01*
X77324200Y-87642856D02*
X77248009Y-87566666D01*
X77248009Y-87566666D02*
X77171819Y-87528571D01*
X77171819Y-87528571D02*
X77019438Y-87490475D01*
X77019438Y-87490475D02*
X76905152Y-87490475D01*
X76905152Y-87490475D02*
X76752771Y-87528571D01*
X76752771Y-87528571D02*
X76676580Y-87566666D01*
X76676580Y-87566666D02*
X76600390Y-87642856D01*
X76600390Y-87642856D02*
X76562295Y-87757142D01*
X76562295Y-87757142D02*
X76562295Y-87833333D01*
X76562295Y-87833333D02*
X76600390Y-87947618D01*
X76600390Y-87947618D02*
X76638485Y-87985714D01*
X76638485Y-88290475D02*
X76600390Y-88328571D01*
X76600390Y-88328571D02*
X76562295Y-88404761D01*
X76562295Y-88404761D02*
X76562295Y-88595237D01*
X76562295Y-88595237D02*
X76600390Y-88671428D01*
X76600390Y-88671428D02*
X76638485Y-88709523D01*
X76638485Y-88709523D02*
X76714676Y-88747618D01*
X76714676Y-88747618D02*
X76790866Y-88747618D01*
X76790866Y-88747618D02*
X76905152Y-88709523D01*
X76905152Y-88709523D02*
X77362295Y-88252380D01*
X77362295Y-88252380D02*
X77362295Y-88747618D01*
X77362295Y-89509523D02*
X77362295Y-89052380D01*
X77362295Y-89280952D02*
X76562295Y-89280952D01*
X76562295Y-89280952D02*
X76676580Y-89204761D01*
X76676580Y-89204761D02*
X76752771Y-89128571D01*
X76752771Y-89128571D02*
X76790866Y-89052380D01*
X49869285Y-107286104D02*
X49907381Y-107324200D01*
X49907381Y-107324200D02*
X50021666Y-107362295D01*
X50021666Y-107362295D02*
X50097857Y-107362295D01*
X50097857Y-107362295D02*
X50212143Y-107324200D01*
X50212143Y-107324200D02*
X50288333Y-107248009D01*
X50288333Y-107248009D02*
X50326428Y-107171819D01*
X50326428Y-107171819D02*
X50364524Y-107019438D01*
X50364524Y-107019438D02*
X50364524Y-106905152D01*
X50364524Y-106905152D02*
X50326428Y-106752771D01*
X50326428Y-106752771D02*
X50288333Y-106676580D01*
X50288333Y-106676580D02*
X50212143Y-106600390D01*
X50212143Y-106600390D02*
X50097857Y-106562295D01*
X50097857Y-106562295D02*
X50021666Y-106562295D01*
X50021666Y-106562295D02*
X49907381Y-106600390D01*
X49907381Y-106600390D02*
X49869285Y-106638485D01*
X49183571Y-106828961D02*
X49183571Y-107362295D01*
X49374047Y-106524200D02*
X49564524Y-107095628D01*
X49564524Y-107095628D02*
X49069285Y-107095628D01*
X48726428Y-107362295D02*
X48574047Y-107362295D01*
X48574047Y-107362295D02*
X48497857Y-107324200D01*
X48497857Y-107324200D02*
X48459761Y-107286104D01*
X48459761Y-107286104D02*
X48383571Y-107171819D01*
X48383571Y-107171819D02*
X48345476Y-107019438D01*
X48345476Y-107019438D02*
X48345476Y-106714676D01*
X48345476Y-106714676D02*
X48383571Y-106638485D01*
X48383571Y-106638485D02*
X48421666Y-106600390D01*
X48421666Y-106600390D02*
X48497857Y-106562295D01*
X48497857Y-106562295D02*
X48650238Y-106562295D01*
X48650238Y-106562295D02*
X48726428Y-106600390D01*
X48726428Y-106600390D02*
X48764523Y-106638485D01*
X48764523Y-106638485D02*
X48802619Y-106714676D01*
X48802619Y-106714676D02*
X48802619Y-106905152D01*
X48802619Y-106905152D02*
X48764523Y-106981342D01*
X48764523Y-106981342D02*
X48726428Y-107019438D01*
X48726428Y-107019438D02*
X48650238Y-107057533D01*
X48650238Y-107057533D02*
X48497857Y-107057533D01*
X48497857Y-107057533D02*
X48421666Y-107019438D01*
X48421666Y-107019438D02*
X48383571Y-106981342D01*
X48383571Y-106981342D02*
X48345476Y-106905152D01*
X52837296Y-92423214D02*
X52456343Y-92156547D01*
X52837296Y-91966071D02*
X52037296Y-91966071D01*
X52037296Y-91966071D02*
X52037296Y-92270833D01*
X52037296Y-92270833D02*
X52075391Y-92347023D01*
X52075391Y-92347023D02*
X52113486Y-92385118D01*
X52113486Y-92385118D02*
X52189677Y-92423214D01*
X52189677Y-92423214D02*
X52303962Y-92423214D01*
X52303962Y-92423214D02*
X52380153Y-92385118D01*
X52380153Y-92385118D02*
X52418248Y-92347023D01*
X52418248Y-92347023D02*
X52456343Y-92270833D01*
X52456343Y-92270833D02*
X52456343Y-91966071D01*
X52037296Y-92689880D02*
X52037296Y-93185118D01*
X52037296Y-93185118D02*
X52342058Y-92918452D01*
X52342058Y-92918452D02*
X52342058Y-93032737D01*
X52342058Y-93032737D02*
X52380153Y-93108928D01*
X52380153Y-93108928D02*
X52418248Y-93147023D01*
X52418248Y-93147023D02*
X52494439Y-93185118D01*
X52494439Y-93185118D02*
X52684915Y-93185118D01*
X52684915Y-93185118D02*
X52761105Y-93147023D01*
X52761105Y-93147023D02*
X52799201Y-93108928D01*
X52799201Y-93108928D02*
X52837296Y-93032737D01*
X52837296Y-93032737D02*
X52837296Y-92804166D01*
X52837296Y-92804166D02*
X52799201Y-92727975D01*
X52799201Y-92727975D02*
X52761105Y-92689880D01*
X52837296Y-93566071D02*
X52837296Y-93718452D01*
X52837296Y-93718452D02*
X52799201Y-93794642D01*
X52799201Y-93794642D02*
X52761105Y-93832738D01*
X52761105Y-93832738D02*
X52646820Y-93908928D01*
X52646820Y-93908928D02*
X52494439Y-93947023D01*
X52494439Y-93947023D02*
X52189677Y-93947023D01*
X52189677Y-93947023D02*
X52113486Y-93908928D01*
X52113486Y-93908928D02*
X52075391Y-93870833D01*
X52075391Y-93870833D02*
X52037296Y-93794642D01*
X52037296Y-93794642D02*
X52037296Y-93642261D01*
X52037296Y-93642261D02*
X52075391Y-93566071D01*
X52075391Y-93566071D02*
X52113486Y-93527976D01*
X52113486Y-93527976D02*
X52189677Y-93489880D01*
X52189677Y-93489880D02*
X52380153Y-93489880D01*
X52380153Y-93489880D02*
X52456343Y-93527976D01*
X52456343Y-93527976D02*
X52494439Y-93566071D01*
X52494439Y-93566071D02*
X52532534Y-93642261D01*
X52532534Y-93642261D02*
X52532534Y-93794642D01*
X52532534Y-93794642D02*
X52494439Y-93870833D01*
X52494439Y-93870833D02*
X52456343Y-93908928D01*
X52456343Y-93908928D02*
X52380153Y-93947023D01*
X58337295Y-96235714D02*
X57956342Y-95969047D01*
X58337295Y-95778571D02*
X57537295Y-95778571D01*
X57537295Y-95778571D02*
X57537295Y-96083333D01*
X57537295Y-96083333D02*
X57575390Y-96159523D01*
X57575390Y-96159523D02*
X57613485Y-96197618D01*
X57613485Y-96197618D02*
X57689676Y-96235714D01*
X57689676Y-96235714D02*
X57803961Y-96235714D01*
X57803961Y-96235714D02*
X57880152Y-96197618D01*
X57880152Y-96197618D02*
X57918247Y-96159523D01*
X57918247Y-96159523D02*
X57956342Y-96083333D01*
X57956342Y-96083333D02*
X57956342Y-95778571D01*
X58337295Y-96997618D02*
X58337295Y-96540475D01*
X58337295Y-96769047D02*
X57537295Y-96769047D01*
X57537295Y-96769047D02*
X57651580Y-96692856D01*
X57651580Y-96692856D02*
X57727771Y-96616666D01*
X57727771Y-96616666D02*
X57765866Y-96540475D01*
X57613485Y-97302380D02*
X57575390Y-97340476D01*
X57575390Y-97340476D02*
X57537295Y-97416666D01*
X57537295Y-97416666D02*
X57537295Y-97607142D01*
X57537295Y-97607142D02*
X57575390Y-97683333D01*
X57575390Y-97683333D02*
X57613485Y-97721428D01*
X57613485Y-97721428D02*
X57689676Y-97759523D01*
X57689676Y-97759523D02*
X57765866Y-97759523D01*
X57765866Y-97759523D02*
X57880152Y-97721428D01*
X57880152Y-97721428D02*
X58337295Y-97264285D01*
X58337295Y-97264285D02*
X58337295Y-97759523D01*
X61374200Y-81463094D02*
X61412295Y-81577380D01*
X61412295Y-81577380D02*
X61412295Y-81767856D01*
X61412295Y-81767856D02*
X61374200Y-81844047D01*
X61374200Y-81844047D02*
X61336104Y-81882142D01*
X61336104Y-81882142D02*
X61259914Y-81920237D01*
X61259914Y-81920237D02*
X61183723Y-81920237D01*
X61183723Y-81920237D02*
X61107533Y-81882142D01*
X61107533Y-81882142D02*
X61069438Y-81844047D01*
X61069438Y-81844047D02*
X61031342Y-81767856D01*
X61031342Y-81767856D02*
X60993247Y-81615475D01*
X60993247Y-81615475D02*
X60955152Y-81539285D01*
X60955152Y-81539285D02*
X60917057Y-81501190D01*
X60917057Y-81501190D02*
X60840866Y-81463094D01*
X60840866Y-81463094D02*
X60764676Y-81463094D01*
X60764676Y-81463094D02*
X60688485Y-81501190D01*
X60688485Y-81501190D02*
X60650390Y-81539285D01*
X60650390Y-81539285D02*
X60612295Y-81615475D01*
X60612295Y-81615475D02*
X60612295Y-81805952D01*
X60612295Y-81805952D02*
X60650390Y-81920237D01*
X61412295Y-82263095D02*
X60612295Y-82263095D01*
X61412295Y-82644047D02*
X60612295Y-82644047D01*
X60612295Y-82644047D02*
X61183723Y-82910713D01*
X61183723Y-82910713D02*
X60612295Y-83177380D01*
X60612295Y-83177380D02*
X61412295Y-83177380D01*
X61488485Y-83367857D02*
X61488485Y-83977380D01*
X61412295Y-84167857D02*
X60612295Y-84167857D01*
X60688485Y-84510713D02*
X60650390Y-84548809D01*
X60650390Y-84548809D02*
X60612295Y-84624999D01*
X60612295Y-84624999D02*
X60612295Y-84815475D01*
X60612295Y-84815475D02*
X60650390Y-84891666D01*
X60650390Y-84891666D02*
X60688485Y-84929761D01*
X60688485Y-84929761D02*
X60764676Y-84967856D01*
X60764676Y-84967856D02*
X60840866Y-84967856D01*
X60840866Y-84967856D02*
X60955152Y-84929761D01*
X60955152Y-84929761D02*
X61412295Y-84472618D01*
X61412295Y-84472618D02*
X61412295Y-84967856D01*
X61336104Y-85767857D02*
X61374200Y-85729761D01*
X61374200Y-85729761D02*
X61412295Y-85615476D01*
X61412295Y-85615476D02*
X61412295Y-85539285D01*
X61412295Y-85539285D02*
X61374200Y-85424999D01*
X61374200Y-85424999D02*
X61298009Y-85348809D01*
X61298009Y-85348809D02*
X61221819Y-85310714D01*
X61221819Y-85310714D02*
X61069438Y-85272618D01*
X61069438Y-85272618D02*
X60955152Y-85272618D01*
X60955152Y-85272618D02*
X60802771Y-85310714D01*
X60802771Y-85310714D02*
X60726580Y-85348809D01*
X60726580Y-85348809D02*
X60650390Y-85424999D01*
X60650390Y-85424999D02*
X60612295Y-85539285D01*
X60612295Y-85539285D02*
X60612295Y-85615476D01*
X60612295Y-85615476D02*
X60650390Y-85729761D01*
X60650390Y-85729761D02*
X60688485Y-85767857D01*
X61488485Y-85920238D02*
X61488485Y-86529761D01*
X61374200Y-86682142D02*
X61412295Y-86796428D01*
X61412295Y-86796428D02*
X61412295Y-86986904D01*
X61412295Y-86986904D02*
X61374200Y-87063095D01*
X61374200Y-87063095D02*
X61336104Y-87101190D01*
X61336104Y-87101190D02*
X61259914Y-87139285D01*
X61259914Y-87139285D02*
X61183723Y-87139285D01*
X61183723Y-87139285D02*
X61107533Y-87101190D01*
X61107533Y-87101190D02*
X61069438Y-87063095D01*
X61069438Y-87063095D02*
X61031342Y-86986904D01*
X61031342Y-86986904D02*
X60993247Y-86834523D01*
X60993247Y-86834523D02*
X60955152Y-86758333D01*
X60955152Y-86758333D02*
X60917057Y-86720238D01*
X60917057Y-86720238D02*
X60840866Y-86682142D01*
X60840866Y-86682142D02*
X60764676Y-86682142D01*
X60764676Y-86682142D02*
X60688485Y-86720238D01*
X60688485Y-86720238D02*
X60650390Y-86758333D01*
X60650390Y-86758333D02*
X60612295Y-86834523D01*
X60612295Y-86834523D02*
X60612295Y-87025000D01*
X60612295Y-87025000D02*
X60650390Y-87139285D01*
X61412295Y-87482143D02*
X60612295Y-87482143D01*
X60612295Y-87482143D02*
X60612295Y-87672619D01*
X60612295Y-87672619D02*
X60650390Y-87786905D01*
X60650390Y-87786905D02*
X60726580Y-87863095D01*
X60726580Y-87863095D02*
X60802771Y-87901190D01*
X60802771Y-87901190D02*
X60955152Y-87939286D01*
X60955152Y-87939286D02*
X61069438Y-87939286D01*
X61069438Y-87939286D02*
X61221819Y-87901190D01*
X61221819Y-87901190D02*
X61298009Y-87863095D01*
X61298009Y-87863095D02*
X61374200Y-87786905D01*
X61374200Y-87786905D02*
X61412295Y-87672619D01*
X61412295Y-87672619D02*
X61412295Y-87482143D01*
X61183723Y-88244047D02*
X61183723Y-88625000D01*
X61412295Y-88167857D02*
X60612295Y-88434524D01*
X60612295Y-88434524D02*
X61412295Y-88701190D01*
X61412295Y-89386904D02*
X61412295Y-88929761D01*
X61412295Y-89158333D02*
X60612295Y-89158333D01*
X60612295Y-89158333D02*
X60726580Y-89082142D01*
X60726580Y-89082142D02*
X60802771Y-89005952D01*
X60802771Y-89005952D02*
X60840866Y-88929761D01*
X68979819Y-94261905D02*
X69789342Y-94261905D01*
X69789342Y-94261905D02*
X69884580Y-94309524D01*
X69884580Y-94309524D02*
X69932200Y-94357143D01*
X69932200Y-94357143D02*
X69979819Y-94452381D01*
X69979819Y-94452381D02*
X69979819Y-94642857D01*
X69979819Y-94642857D02*
X69932200Y-94738095D01*
X69932200Y-94738095D02*
X69884580Y-94785714D01*
X69884580Y-94785714D02*
X69789342Y-94833333D01*
X69789342Y-94833333D02*
X68979819Y-94833333D01*
X69979819Y-95833333D02*
X69979819Y-95261905D01*
X69979819Y-95547619D02*
X68979819Y-95547619D01*
X68979819Y-95547619D02*
X69122676Y-95452381D01*
X69122676Y-95452381D02*
X69217914Y-95357143D01*
X69217914Y-95357143D02*
X69265533Y-95261905D01*
X68979819Y-96738095D02*
X68979819Y-96261905D01*
X68979819Y-96261905D02*
X69456009Y-96214286D01*
X69456009Y-96214286D02*
X69408390Y-96261905D01*
X69408390Y-96261905D02*
X69360771Y-96357143D01*
X69360771Y-96357143D02*
X69360771Y-96595238D01*
X69360771Y-96595238D02*
X69408390Y-96690476D01*
X69408390Y-96690476D02*
X69456009Y-96738095D01*
X69456009Y-96738095D02*
X69551247Y-96785714D01*
X69551247Y-96785714D02*
X69789342Y-96785714D01*
X69789342Y-96785714D02*
X69884580Y-96738095D01*
X69884580Y-96738095D02*
X69932200Y-96690476D01*
X69932200Y-96690476D02*
X69979819Y-96595238D01*
X69979819Y-96595238D02*
X69979819Y-96357143D01*
X69979819Y-96357143D02*
X69932200Y-96261905D01*
X69932200Y-96261905D02*
X69884580Y-96214286D01*
X56161104Y-98535714D02*
X56199200Y-98497618D01*
X56199200Y-98497618D02*
X56237295Y-98383333D01*
X56237295Y-98383333D02*
X56237295Y-98307142D01*
X56237295Y-98307142D02*
X56199200Y-98192856D01*
X56199200Y-98192856D02*
X56123009Y-98116666D01*
X56123009Y-98116666D02*
X56046819Y-98078571D01*
X56046819Y-98078571D02*
X55894438Y-98040475D01*
X55894438Y-98040475D02*
X55780152Y-98040475D01*
X55780152Y-98040475D02*
X55627771Y-98078571D01*
X55627771Y-98078571D02*
X55551580Y-98116666D01*
X55551580Y-98116666D02*
X55475390Y-98192856D01*
X55475390Y-98192856D02*
X55437295Y-98307142D01*
X55437295Y-98307142D02*
X55437295Y-98383333D01*
X55437295Y-98383333D02*
X55475390Y-98497618D01*
X55475390Y-98497618D02*
X55513485Y-98535714D01*
X55513485Y-98840475D02*
X55475390Y-98878571D01*
X55475390Y-98878571D02*
X55437295Y-98954761D01*
X55437295Y-98954761D02*
X55437295Y-99145237D01*
X55437295Y-99145237D02*
X55475390Y-99221428D01*
X55475390Y-99221428D02*
X55513485Y-99259523D01*
X55513485Y-99259523D02*
X55589676Y-99297618D01*
X55589676Y-99297618D02*
X55665866Y-99297618D01*
X55665866Y-99297618D02*
X55780152Y-99259523D01*
X55780152Y-99259523D02*
X56237295Y-98802380D01*
X56237295Y-98802380D02*
X56237295Y-99297618D01*
X55703961Y-99983333D02*
X56237295Y-99983333D01*
X55399200Y-99792857D02*
X55970628Y-99602380D01*
X55970628Y-99602380D02*
X55970628Y-100097619D01*
X67511904Y-125204819D02*
X66940476Y-125204819D01*
X67226190Y-126204819D02*
X67226190Y-125204819D01*
X66607142Y-126204819D02*
X66607142Y-125204819D01*
X66607142Y-125204819D02*
X66226190Y-125204819D01*
X66226190Y-125204819D02*
X66130952Y-125252438D01*
X66130952Y-125252438D02*
X66083333Y-125300057D01*
X66083333Y-125300057D02*
X66035714Y-125395295D01*
X66035714Y-125395295D02*
X66035714Y-125538152D01*
X66035714Y-125538152D02*
X66083333Y-125633390D01*
X66083333Y-125633390D02*
X66130952Y-125681009D01*
X66130952Y-125681009D02*
X66226190Y-125728628D01*
X66226190Y-125728628D02*
X66607142Y-125728628D01*
X65559523Y-126204819D02*
X65369047Y-126204819D01*
X65369047Y-126204819D02*
X65273809Y-126157200D01*
X65273809Y-126157200D02*
X65226190Y-126109580D01*
X65226190Y-126109580D02*
X65130952Y-125966723D01*
X65130952Y-125966723D02*
X65083333Y-125776247D01*
X65083333Y-125776247D02*
X65083333Y-125395295D01*
X65083333Y-125395295D02*
X65130952Y-125300057D01*
X65130952Y-125300057D02*
X65178571Y-125252438D01*
X65178571Y-125252438D02*
X65273809Y-125204819D01*
X65273809Y-125204819D02*
X65464285Y-125204819D01*
X65464285Y-125204819D02*
X65559523Y-125252438D01*
X65559523Y-125252438D02*
X65607142Y-125300057D01*
X65607142Y-125300057D02*
X65654761Y-125395295D01*
X65654761Y-125395295D02*
X65654761Y-125633390D01*
X65654761Y-125633390D02*
X65607142Y-125728628D01*
X65607142Y-125728628D02*
X65559523Y-125776247D01*
X65559523Y-125776247D02*
X65464285Y-125823866D01*
X65464285Y-125823866D02*
X65273809Y-125823866D01*
X65273809Y-125823866D02*
X65178571Y-125776247D01*
X65178571Y-125776247D02*
X65130952Y-125728628D01*
X65130952Y-125728628D02*
X65083333Y-125633390D01*
X61637295Y-96235714D02*
X61256342Y-95969047D01*
X61637295Y-95778571D02*
X60837295Y-95778571D01*
X60837295Y-95778571D02*
X60837295Y-96083333D01*
X60837295Y-96083333D02*
X60875390Y-96159523D01*
X60875390Y-96159523D02*
X60913485Y-96197618D01*
X60913485Y-96197618D02*
X60989676Y-96235714D01*
X60989676Y-96235714D02*
X61103961Y-96235714D01*
X61103961Y-96235714D02*
X61180152Y-96197618D01*
X61180152Y-96197618D02*
X61218247Y-96159523D01*
X61218247Y-96159523D02*
X61256342Y-96083333D01*
X61256342Y-96083333D02*
X61256342Y-95778571D01*
X61637295Y-96997618D02*
X61637295Y-96540475D01*
X61637295Y-96769047D02*
X60837295Y-96769047D01*
X60837295Y-96769047D02*
X60951580Y-96692856D01*
X60951580Y-96692856D02*
X61027771Y-96616666D01*
X61027771Y-96616666D02*
X61065866Y-96540475D01*
X60837295Y-97492857D02*
X60837295Y-97569047D01*
X60837295Y-97569047D02*
X60875390Y-97645238D01*
X60875390Y-97645238D02*
X60913485Y-97683333D01*
X60913485Y-97683333D02*
X60989676Y-97721428D01*
X60989676Y-97721428D02*
X61142057Y-97759523D01*
X61142057Y-97759523D02*
X61332533Y-97759523D01*
X61332533Y-97759523D02*
X61484914Y-97721428D01*
X61484914Y-97721428D02*
X61561104Y-97683333D01*
X61561104Y-97683333D02*
X61599200Y-97645238D01*
X61599200Y-97645238D02*
X61637295Y-97569047D01*
X61637295Y-97569047D02*
X61637295Y-97492857D01*
X61637295Y-97492857D02*
X61599200Y-97416666D01*
X61599200Y-97416666D02*
X61561104Y-97378571D01*
X61561104Y-97378571D02*
X61484914Y-97340476D01*
X61484914Y-97340476D02*
X61332533Y-97302380D01*
X61332533Y-97302380D02*
X61142057Y-97302380D01*
X61142057Y-97302380D02*
X60989676Y-97340476D01*
X60989676Y-97340476D02*
X60913485Y-97378571D01*
X60913485Y-97378571D02*
X60875390Y-97416666D01*
X60875390Y-97416666D02*
X60837295Y-97492857D01*
X54861104Y-90123214D02*
X54899200Y-90085118D01*
X54899200Y-90085118D02*
X54937295Y-89970833D01*
X54937295Y-89970833D02*
X54937295Y-89894642D01*
X54937295Y-89894642D02*
X54899200Y-89780356D01*
X54899200Y-89780356D02*
X54823009Y-89704166D01*
X54823009Y-89704166D02*
X54746819Y-89666071D01*
X54746819Y-89666071D02*
X54594438Y-89627975D01*
X54594438Y-89627975D02*
X54480152Y-89627975D01*
X54480152Y-89627975D02*
X54327771Y-89666071D01*
X54327771Y-89666071D02*
X54251580Y-89704166D01*
X54251580Y-89704166D02*
X54175390Y-89780356D01*
X54175390Y-89780356D02*
X54137295Y-89894642D01*
X54137295Y-89894642D02*
X54137295Y-89970833D01*
X54137295Y-89970833D02*
X54175390Y-90085118D01*
X54175390Y-90085118D02*
X54213485Y-90123214D01*
X54137295Y-90389880D02*
X54137295Y-90885118D01*
X54137295Y-90885118D02*
X54442057Y-90618452D01*
X54442057Y-90618452D02*
X54442057Y-90732737D01*
X54442057Y-90732737D02*
X54480152Y-90808928D01*
X54480152Y-90808928D02*
X54518247Y-90847023D01*
X54518247Y-90847023D02*
X54594438Y-90885118D01*
X54594438Y-90885118D02*
X54784914Y-90885118D01*
X54784914Y-90885118D02*
X54861104Y-90847023D01*
X54861104Y-90847023D02*
X54899200Y-90808928D01*
X54899200Y-90808928D02*
X54937295Y-90732737D01*
X54937295Y-90732737D02*
X54937295Y-90504166D01*
X54937295Y-90504166D02*
X54899200Y-90427975D01*
X54899200Y-90427975D02*
X54861104Y-90389880D01*
X54137295Y-91380357D02*
X54137295Y-91456547D01*
X54137295Y-91456547D02*
X54175390Y-91532738D01*
X54175390Y-91532738D02*
X54213485Y-91570833D01*
X54213485Y-91570833D02*
X54289676Y-91608928D01*
X54289676Y-91608928D02*
X54442057Y-91647023D01*
X54442057Y-91647023D02*
X54632533Y-91647023D01*
X54632533Y-91647023D02*
X54784914Y-91608928D01*
X54784914Y-91608928D02*
X54861104Y-91570833D01*
X54861104Y-91570833D02*
X54899200Y-91532738D01*
X54899200Y-91532738D02*
X54937295Y-91456547D01*
X54937295Y-91456547D02*
X54937295Y-91380357D01*
X54937295Y-91380357D02*
X54899200Y-91304166D01*
X54899200Y-91304166D02*
X54861104Y-91266071D01*
X54861104Y-91266071D02*
X54784914Y-91227976D01*
X54784914Y-91227976D02*
X54632533Y-91189880D01*
X54632533Y-91189880D02*
X54442057Y-91189880D01*
X54442057Y-91189880D02*
X54289676Y-91227976D01*
X54289676Y-91227976D02*
X54213485Y-91266071D01*
X54213485Y-91266071D02*
X54175390Y-91304166D01*
X54175390Y-91304166D02*
X54137295Y-91380357D01*
X39906428Y-119962295D02*
X39906428Y-119162295D01*
X39906428Y-119162295D02*
X39715952Y-119162295D01*
X39715952Y-119162295D02*
X39601666Y-119200390D01*
X39601666Y-119200390D02*
X39525476Y-119276580D01*
X39525476Y-119276580D02*
X39487381Y-119352771D01*
X39487381Y-119352771D02*
X39449285Y-119505152D01*
X39449285Y-119505152D02*
X39449285Y-119619438D01*
X39449285Y-119619438D02*
X39487381Y-119771819D01*
X39487381Y-119771819D02*
X39525476Y-119848009D01*
X39525476Y-119848009D02*
X39601666Y-119924200D01*
X39601666Y-119924200D02*
X39715952Y-119962295D01*
X39715952Y-119962295D02*
X39906428Y-119962295D01*
X38687381Y-119962295D02*
X39144524Y-119962295D01*
X38915952Y-119962295D02*
X38915952Y-119162295D01*
X38915952Y-119162295D02*
X38992143Y-119276580D01*
X38992143Y-119276580D02*
X39068333Y-119352771D01*
X39068333Y-119352771D02*
X39144524Y-119390866D01*
X38230238Y-119505152D02*
X38306428Y-119467057D01*
X38306428Y-119467057D02*
X38344523Y-119428961D01*
X38344523Y-119428961D02*
X38382619Y-119352771D01*
X38382619Y-119352771D02*
X38382619Y-119314676D01*
X38382619Y-119314676D02*
X38344523Y-119238485D01*
X38344523Y-119238485D02*
X38306428Y-119200390D01*
X38306428Y-119200390D02*
X38230238Y-119162295D01*
X38230238Y-119162295D02*
X38077857Y-119162295D01*
X38077857Y-119162295D02*
X38001666Y-119200390D01*
X38001666Y-119200390D02*
X37963571Y-119238485D01*
X37963571Y-119238485D02*
X37925476Y-119314676D01*
X37925476Y-119314676D02*
X37925476Y-119352771D01*
X37925476Y-119352771D02*
X37963571Y-119428961D01*
X37963571Y-119428961D02*
X38001666Y-119467057D01*
X38001666Y-119467057D02*
X38077857Y-119505152D01*
X38077857Y-119505152D02*
X38230238Y-119505152D01*
X38230238Y-119505152D02*
X38306428Y-119543247D01*
X38306428Y-119543247D02*
X38344523Y-119581342D01*
X38344523Y-119581342D02*
X38382619Y-119657533D01*
X38382619Y-119657533D02*
X38382619Y-119809914D01*
X38382619Y-119809914D02*
X38344523Y-119886104D01*
X38344523Y-119886104D02*
X38306428Y-119924200D01*
X38306428Y-119924200D02*
X38230238Y-119962295D01*
X38230238Y-119962295D02*
X38077857Y-119962295D01*
X38077857Y-119962295D02*
X38001666Y-119924200D01*
X38001666Y-119924200D02*
X37963571Y-119886104D01*
X37963571Y-119886104D02*
X37925476Y-119809914D01*
X37925476Y-119809914D02*
X37925476Y-119657533D01*
X37925476Y-119657533D02*
X37963571Y-119581342D01*
X37963571Y-119581342D02*
X38001666Y-119543247D01*
X38001666Y-119543247D02*
X38077857Y-119505152D01*
X58437295Y-85566667D02*
X58056342Y-85300000D01*
X58437295Y-85109524D02*
X57637295Y-85109524D01*
X57637295Y-85109524D02*
X57637295Y-85414286D01*
X57637295Y-85414286D02*
X57675390Y-85490476D01*
X57675390Y-85490476D02*
X57713485Y-85528571D01*
X57713485Y-85528571D02*
X57789676Y-85566667D01*
X57789676Y-85566667D02*
X57903961Y-85566667D01*
X57903961Y-85566667D02*
X57980152Y-85528571D01*
X57980152Y-85528571D02*
X58018247Y-85490476D01*
X58018247Y-85490476D02*
X58056342Y-85414286D01*
X58056342Y-85414286D02*
X58056342Y-85109524D01*
X58437295Y-85947619D02*
X58437295Y-86100000D01*
X58437295Y-86100000D02*
X58399200Y-86176190D01*
X58399200Y-86176190D02*
X58361104Y-86214286D01*
X58361104Y-86214286D02*
X58246819Y-86290476D01*
X58246819Y-86290476D02*
X58094438Y-86328571D01*
X58094438Y-86328571D02*
X57789676Y-86328571D01*
X57789676Y-86328571D02*
X57713485Y-86290476D01*
X57713485Y-86290476D02*
X57675390Y-86252381D01*
X57675390Y-86252381D02*
X57637295Y-86176190D01*
X57637295Y-86176190D02*
X57637295Y-86023809D01*
X57637295Y-86023809D02*
X57675390Y-85947619D01*
X57675390Y-85947619D02*
X57713485Y-85909524D01*
X57713485Y-85909524D02*
X57789676Y-85871428D01*
X57789676Y-85871428D02*
X57980152Y-85871428D01*
X57980152Y-85871428D02*
X58056342Y-85909524D01*
X58056342Y-85909524D02*
X58094438Y-85947619D01*
X58094438Y-85947619D02*
X58132533Y-86023809D01*
X58132533Y-86023809D02*
X58132533Y-86176190D01*
X58132533Y-86176190D02*
X58094438Y-86252381D01*
X58094438Y-86252381D02*
X58056342Y-86290476D01*
X58056342Y-86290476D02*
X57980152Y-86328571D01*
X75221428Y-75812295D02*
X75221428Y-75012295D01*
X75221428Y-75012295D02*
X75030952Y-75012295D01*
X75030952Y-75012295D02*
X74916666Y-75050390D01*
X74916666Y-75050390D02*
X74840476Y-75126580D01*
X74840476Y-75126580D02*
X74802381Y-75202771D01*
X74802381Y-75202771D02*
X74764285Y-75355152D01*
X74764285Y-75355152D02*
X74764285Y-75469438D01*
X74764285Y-75469438D02*
X74802381Y-75621819D01*
X74802381Y-75621819D02*
X74840476Y-75698009D01*
X74840476Y-75698009D02*
X74916666Y-75774200D01*
X74916666Y-75774200D02*
X75030952Y-75812295D01*
X75030952Y-75812295D02*
X75221428Y-75812295D01*
X74002381Y-75812295D02*
X74459524Y-75812295D01*
X74230952Y-75812295D02*
X74230952Y-75012295D01*
X74230952Y-75012295D02*
X74307143Y-75126580D01*
X74307143Y-75126580D02*
X74383333Y-75202771D01*
X74383333Y-75202771D02*
X74459524Y-75240866D01*
X73697619Y-75088485D02*
X73659523Y-75050390D01*
X73659523Y-75050390D02*
X73583333Y-75012295D01*
X73583333Y-75012295D02*
X73392857Y-75012295D01*
X73392857Y-75012295D02*
X73316666Y-75050390D01*
X73316666Y-75050390D02*
X73278571Y-75088485D01*
X73278571Y-75088485D02*
X73240476Y-75164676D01*
X73240476Y-75164676D02*
X73240476Y-75240866D01*
X73240476Y-75240866D02*
X73278571Y-75355152D01*
X73278571Y-75355152D02*
X73735714Y-75812295D01*
X73735714Y-75812295D02*
X73240476Y-75812295D01*
X56264285Y-111437295D02*
X56530952Y-111056342D01*
X56721428Y-111437295D02*
X56721428Y-110637295D01*
X56721428Y-110637295D02*
X56416666Y-110637295D01*
X56416666Y-110637295D02*
X56340476Y-110675390D01*
X56340476Y-110675390D02*
X56302381Y-110713485D01*
X56302381Y-110713485D02*
X56264285Y-110789676D01*
X56264285Y-110789676D02*
X56264285Y-110903961D01*
X56264285Y-110903961D02*
X56302381Y-110980152D01*
X56302381Y-110980152D02*
X56340476Y-111018247D01*
X56340476Y-111018247D02*
X56416666Y-111056342D01*
X56416666Y-111056342D02*
X56721428Y-111056342D01*
X55578571Y-110637295D02*
X55730952Y-110637295D01*
X55730952Y-110637295D02*
X55807143Y-110675390D01*
X55807143Y-110675390D02*
X55845238Y-110713485D01*
X55845238Y-110713485D02*
X55921428Y-110827771D01*
X55921428Y-110827771D02*
X55959524Y-110980152D01*
X55959524Y-110980152D02*
X55959524Y-111284914D01*
X55959524Y-111284914D02*
X55921428Y-111361104D01*
X55921428Y-111361104D02*
X55883333Y-111399200D01*
X55883333Y-111399200D02*
X55807143Y-111437295D01*
X55807143Y-111437295D02*
X55654762Y-111437295D01*
X55654762Y-111437295D02*
X55578571Y-111399200D01*
X55578571Y-111399200D02*
X55540476Y-111361104D01*
X55540476Y-111361104D02*
X55502381Y-111284914D01*
X55502381Y-111284914D02*
X55502381Y-111094438D01*
X55502381Y-111094438D02*
X55540476Y-111018247D01*
X55540476Y-111018247D02*
X55578571Y-110980152D01*
X55578571Y-110980152D02*
X55654762Y-110942057D01*
X55654762Y-110942057D02*
X55807143Y-110942057D01*
X55807143Y-110942057D02*
X55883333Y-110980152D01*
X55883333Y-110980152D02*
X55921428Y-111018247D01*
X55921428Y-111018247D02*
X55959524Y-111094438D01*
X54740476Y-111437295D02*
X55197619Y-111437295D01*
X54969047Y-111437295D02*
X54969047Y-110637295D01*
X54969047Y-110637295D02*
X55045238Y-110751580D01*
X55045238Y-110751580D02*
X55121428Y-110827771D01*
X55121428Y-110827771D02*
X55197619Y-110865866D01*
X75524795Y-125998095D02*
X76096223Y-125998095D01*
X76096223Y-125998095D02*
X76210509Y-125960000D01*
X76210509Y-125960000D02*
X76286700Y-125883809D01*
X76286700Y-125883809D02*
X76324795Y-125769524D01*
X76324795Y-125769524D02*
X76324795Y-125693333D01*
X76324795Y-126379048D02*
X75524795Y-126379048D01*
X75524795Y-126379048D02*
X75524795Y-126683810D01*
X75524795Y-126683810D02*
X75562890Y-126760000D01*
X75562890Y-126760000D02*
X75600985Y-126798095D01*
X75600985Y-126798095D02*
X75677176Y-126836191D01*
X75677176Y-126836191D02*
X75791461Y-126836191D01*
X75791461Y-126836191D02*
X75867652Y-126798095D01*
X75867652Y-126798095D02*
X75905747Y-126760000D01*
X75905747Y-126760000D02*
X75943842Y-126683810D01*
X75943842Y-126683810D02*
X75943842Y-126379048D01*
X75600985Y-127140952D02*
X75562890Y-127179048D01*
X75562890Y-127179048D02*
X75524795Y-127255238D01*
X75524795Y-127255238D02*
X75524795Y-127445714D01*
X75524795Y-127445714D02*
X75562890Y-127521905D01*
X75562890Y-127521905D02*
X75600985Y-127560000D01*
X75600985Y-127560000D02*
X75677176Y-127598095D01*
X75677176Y-127598095D02*
X75753366Y-127598095D01*
X75753366Y-127598095D02*
X75867652Y-127560000D01*
X75867652Y-127560000D02*
X76324795Y-127102857D01*
X76324795Y-127102857D02*
X76324795Y-127598095D01*
X78217319Y-124350476D02*
X78217319Y-123779048D01*
X78217319Y-124064762D02*
X77217319Y-124064762D01*
X77217319Y-124064762D02*
X77360176Y-123969524D01*
X77360176Y-123969524D02*
X77455414Y-123874286D01*
X77455414Y-123874286D02*
X77503033Y-123779048D01*
X77217319Y-128931429D02*
X77217319Y-129550476D01*
X77217319Y-129550476D02*
X77598271Y-129217143D01*
X77598271Y-129217143D02*
X77598271Y-129360000D01*
X77598271Y-129360000D02*
X77645890Y-129455238D01*
X77645890Y-129455238D02*
X77693509Y-129502857D01*
X77693509Y-129502857D02*
X77788747Y-129550476D01*
X77788747Y-129550476D02*
X78026842Y-129550476D01*
X78026842Y-129550476D02*
X78122080Y-129502857D01*
X78122080Y-129502857D02*
X78169700Y-129455238D01*
X78169700Y-129455238D02*
X78217319Y-129360000D01*
X78217319Y-129360000D02*
X78217319Y-129074286D01*
X78217319Y-129074286D02*
X78169700Y-128979048D01*
X78169700Y-128979048D02*
X78122080Y-128931429D01*
X74014285Y-88826104D02*
X74052381Y-88864200D01*
X74052381Y-88864200D02*
X74166666Y-88902295D01*
X74166666Y-88902295D02*
X74242857Y-88902295D01*
X74242857Y-88902295D02*
X74357143Y-88864200D01*
X74357143Y-88864200D02*
X74433333Y-88788009D01*
X74433333Y-88788009D02*
X74471428Y-88711819D01*
X74471428Y-88711819D02*
X74509524Y-88559438D01*
X74509524Y-88559438D02*
X74509524Y-88445152D01*
X74509524Y-88445152D02*
X74471428Y-88292771D01*
X74471428Y-88292771D02*
X74433333Y-88216580D01*
X74433333Y-88216580D02*
X74357143Y-88140390D01*
X74357143Y-88140390D02*
X74242857Y-88102295D01*
X74242857Y-88102295D02*
X74166666Y-88102295D01*
X74166666Y-88102295D02*
X74052381Y-88140390D01*
X74052381Y-88140390D02*
X74014285Y-88178485D01*
X73328571Y-88368961D02*
X73328571Y-88902295D01*
X73519047Y-88064200D02*
X73709524Y-88635628D01*
X73709524Y-88635628D02*
X73214285Y-88635628D01*
X72985714Y-88102295D02*
X72490476Y-88102295D01*
X72490476Y-88102295D02*
X72757142Y-88407057D01*
X72757142Y-88407057D02*
X72642857Y-88407057D01*
X72642857Y-88407057D02*
X72566666Y-88445152D01*
X72566666Y-88445152D02*
X72528571Y-88483247D01*
X72528571Y-88483247D02*
X72490476Y-88559438D01*
X72490476Y-88559438D02*
X72490476Y-88749914D01*
X72490476Y-88749914D02*
X72528571Y-88826104D01*
X72528571Y-88826104D02*
X72566666Y-88864200D01*
X72566666Y-88864200D02*
X72642857Y-88902295D01*
X72642857Y-88902295D02*
X72871428Y-88902295D01*
X72871428Y-88902295D02*
X72947619Y-88864200D01*
X72947619Y-88864200D02*
X72985714Y-88826104D01*
X56264285Y-112862295D02*
X56530952Y-112481342D01*
X56721428Y-112862295D02*
X56721428Y-112062295D01*
X56721428Y-112062295D02*
X56416666Y-112062295D01*
X56416666Y-112062295D02*
X56340476Y-112100390D01*
X56340476Y-112100390D02*
X56302381Y-112138485D01*
X56302381Y-112138485D02*
X56264285Y-112214676D01*
X56264285Y-112214676D02*
X56264285Y-112328961D01*
X56264285Y-112328961D02*
X56302381Y-112405152D01*
X56302381Y-112405152D02*
X56340476Y-112443247D01*
X56340476Y-112443247D02*
X56416666Y-112481342D01*
X56416666Y-112481342D02*
X56721428Y-112481342D01*
X55578571Y-112062295D02*
X55730952Y-112062295D01*
X55730952Y-112062295D02*
X55807143Y-112100390D01*
X55807143Y-112100390D02*
X55845238Y-112138485D01*
X55845238Y-112138485D02*
X55921428Y-112252771D01*
X55921428Y-112252771D02*
X55959524Y-112405152D01*
X55959524Y-112405152D02*
X55959524Y-112709914D01*
X55959524Y-112709914D02*
X55921428Y-112786104D01*
X55921428Y-112786104D02*
X55883333Y-112824200D01*
X55883333Y-112824200D02*
X55807143Y-112862295D01*
X55807143Y-112862295D02*
X55654762Y-112862295D01*
X55654762Y-112862295D02*
X55578571Y-112824200D01*
X55578571Y-112824200D02*
X55540476Y-112786104D01*
X55540476Y-112786104D02*
X55502381Y-112709914D01*
X55502381Y-112709914D02*
X55502381Y-112519438D01*
X55502381Y-112519438D02*
X55540476Y-112443247D01*
X55540476Y-112443247D02*
X55578571Y-112405152D01*
X55578571Y-112405152D02*
X55654762Y-112367057D01*
X55654762Y-112367057D02*
X55807143Y-112367057D01*
X55807143Y-112367057D02*
X55883333Y-112405152D01*
X55883333Y-112405152D02*
X55921428Y-112443247D01*
X55921428Y-112443247D02*
X55959524Y-112519438D01*
X54778571Y-112062295D02*
X55159523Y-112062295D01*
X55159523Y-112062295D02*
X55197619Y-112443247D01*
X55197619Y-112443247D02*
X55159523Y-112405152D01*
X55159523Y-112405152D02*
X55083333Y-112367057D01*
X55083333Y-112367057D02*
X54892857Y-112367057D01*
X54892857Y-112367057D02*
X54816666Y-112405152D01*
X54816666Y-112405152D02*
X54778571Y-112443247D01*
X54778571Y-112443247D02*
X54740476Y-112519438D01*
X54740476Y-112519438D02*
X54740476Y-112709914D01*
X54740476Y-112709914D02*
X54778571Y-112786104D01*
X54778571Y-112786104D02*
X54816666Y-112824200D01*
X54816666Y-112824200D02*
X54892857Y-112862295D01*
X54892857Y-112862295D02*
X55083333Y-112862295D01*
X55083333Y-112862295D02*
X55159523Y-112824200D01*
X55159523Y-112824200D02*
X55197619Y-112786104D01*
X57261104Y-98535714D02*
X57299200Y-98497618D01*
X57299200Y-98497618D02*
X57337295Y-98383333D01*
X57337295Y-98383333D02*
X57337295Y-98307142D01*
X57337295Y-98307142D02*
X57299200Y-98192856D01*
X57299200Y-98192856D02*
X57223009Y-98116666D01*
X57223009Y-98116666D02*
X57146819Y-98078571D01*
X57146819Y-98078571D02*
X56994438Y-98040475D01*
X56994438Y-98040475D02*
X56880152Y-98040475D01*
X56880152Y-98040475D02*
X56727771Y-98078571D01*
X56727771Y-98078571D02*
X56651580Y-98116666D01*
X56651580Y-98116666D02*
X56575390Y-98192856D01*
X56575390Y-98192856D02*
X56537295Y-98307142D01*
X56537295Y-98307142D02*
X56537295Y-98383333D01*
X56537295Y-98383333D02*
X56575390Y-98497618D01*
X56575390Y-98497618D02*
X56613485Y-98535714D01*
X56613485Y-98840475D02*
X56575390Y-98878571D01*
X56575390Y-98878571D02*
X56537295Y-98954761D01*
X56537295Y-98954761D02*
X56537295Y-99145237D01*
X56537295Y-99145237D02*
X56575390Y-99221428D01*
X56575390Y-99221428D02*
X56613485Y-99259523D01*
X56613485Y-99259523D02*
X56689676Y-99297618D01*
X56689676Y-99297618D02*
X56765866Y-99297618D01*
X56765866Y-99297618D02*
X56880152Y-99259523D01*
X56880152Y-99259523D02*
X57337295Y-98802380D01*
X57337295Y-98802380D02*
X57337295Y-99297618D01*
X56537295Y-100021428D02*
X56537295Y-99640476D01*
X56537295Y-99640476D02*
X56918247Y-99602380D01*
X56918247Y-99602380D02*
X56880152Y-99640476D01*
X56880152Y-99640476D02*
X56842057Y-99716666D01*
X56842057Y-99716666D02*
X56842057Y-99907142D01*
X56842057Y-99907142D02*
X56880152Y-99983333D01*
X56880152Y-99983333D02*
X56918247Y-100021428D01*
X56918247Y-100021428D02*
X56994438Y-100059523D01*
X56994438Y-100059523D02*
X57184914Y-100059523D01*
X57184914Y-100059523D02*
X57261104Y-100021428D01*
X57261104Y-100021428D02*
X57299200Y-99983333D01*
X57299200Y-99983333D02*
X57337295Y-99907142D01*
X57337295Y-99907142D02*
X57337295Y-99716666D01*
X57337295Y-99716666D02*
X57299200Y-99640476D01*
X57299200Y-99640476D02*
X57261104Y-99602380D01*
X49137295Y-86634524D02*
X48337295Y-86634524D01*
X48337295Y-86634524D02*
X48337295Y-86825000D01*
X48337295Y-86825000D02*
X48375390Y-86939286D01*
X48375390Y-86939286D02*
X48451580Y-87015476D01*
X48451580Y-87015476D02*
X48527771Y-87053571D01*
X48527771Y-87053571D02*
X48680152Y-87091667D01*
X48680152Y-87091667D02*
X48794438Y-87091667D01*
X48794438Y-87091667D02*
X48946819Y-87053571D01*
X48946819Y-87053571D02*
X49023009Y-87015476D01*
X49023009Y-87015476D02*
X49099200Y-86939286D01*
X49099200Y-86939286D02*
X49137295Y-86825000D01*
X49137295Y-86825000D02*
X49137295Y-86634524D01*
X49137295Y-87472619D02*
X49137295Y-87625000D01*
X49137295Y-87625000D02*
X49099200Y-87701190D01*
X49099200Y-87701190D02*
X49061104Y-87739286D01*
X49061104Y-87739286D02*
X48946819Y-87815476D01*
X48946819Y-87815476D02*
X48794438Y-87853571D01*
X48794438Y-87853571D02*
X48489676Y-87853571D01*
X48489676Y-87853571D02*
X48413485Y-87815476D01*
X48413485Y-87815476D02*
X48375390Y-87777381D01*
X48375390Y-87777381D02*
X48337295Y-87701190D01*
X48337295Y-87701190D02*
X48337295Y-87548809D01*
X48337295Y-87548809D02*
X48375390Y-87472619D01*
X48375390Y-87472619D02*
X48413485Y-87434524D01*
X48413485Y-87434524D02*
X48489676Y-87396428D01*
X48489676Y-87396428D02*
X48680152Y-87396428D01*
X48680152Y-87396428D02*
X48756342Y-87434524D01*
X48756342Y-87434524D02*
X48794438Y-87472619D01*
X48794438Y-87472619D02*
X48832533Y-87548809D01*
X48832533Y-87548809D02*
X48832533Y-87701190D01*
X48832533Y-87701190D02*
X48794438Y-87777381D01*
X48794438Y-87777381D02*
X48756342Y-87815476D01*
X48756342Y-87815476D02*
X48680152Y-87853571D01*
X64714285Y-104917295D02*
X64980952Y-104536342D01*
X65171428Y-104917295D02*
X65171428Y-104117295D01*
X65171428Y-104117295D02*
X64866666Y-104117295D01*
X64866666Y-104117295D02*
X64790476Y-104155390D01*
X64790476Y-104155390D02*
X64752381Y-104193485D01*
X64752381Y-104193485D02*
X64714285Y-104269676D01*
X64714285Y-104269676D02*
X64714285Y-104383961D01*
X64714285Y-104383961D02*
X64752381Y-104460152D01*
X64752381Y-104460152D02*
X64790476Y-104498247D01*
X64790476Y-104498247D02*
X64866666Y-104536342D01*
X64866666Y-104536342D02*
X65171428Y-104536342D01*
X64028571Y-104383961D02*
X64028571Y-104917295D01*
X64219047Y-104079200D02*
X64409524Y-104650628D01*
X64409524Y-104650628D02*
X63914285Y-104650628D01*
X63685714Y-104117295D02*
X63190476Y-104117295D01*
X63190476Y-104117295D02*
X63457142Y-104422057D01*
X63457142Y-104422057D02*
X63342857Y-104422057D01*
X63342857Y-104422057D02*
X63266666Y-104460152D01*
X63266666Y-104460152D02*
X63228571Y-104498247D01*
X63228571Y-104498247D02*
X63190476Y-104574438D01*
X63190476Y-104574438D02*
X63190476Y-104764914D01*
X63190476Y-104764914D02*
X63228571Y-104841104D01*
X63228571Y-104841104D02*
X63266666Y-104879200D01*
X63266666Y-104879200D02*
X63342857Y-104917295D01*
X63342857Y-104917295D02*
X63571428Y-104917295D01*
X63571428Y-104917295D02*
X63647619Y-104879200D01*
X63647619Y-104879200D02*
X63685714Y-104841104D01*
X79359580Y-79757142D02*
X79407200Y-79709523D01*
X79407200Y-79709523D02*
X79454819Y-79566666D01*
X79454819Y-79566666D02*
X79454819Y-79471428D01*
X79454819Y-79471428D02*
X79407200Y-79328571D01*
X79407200Y-79328571D02*
X79311961Y-79233333D01*
X79311961Y-79233333D02*
X79216723Y-79185714D01*
X79216723Y-79185714D02*
X79026247Y-79138095D01*
X79026247Y-79138095D02*
X78883390Y-79138095D01*
X78883390Y-79138095D02*
X78692914Y-79185714D01*
X78692914Y-79185714D02*
X78597676Y-79233333D01*
X78597676Y-79233333D02*
X78502438Y-79328571D01*
X78502438Y-79328571D02*
X78454819Y-79471428D01*
X78454819Y-79471428D02*
X78454819Y-79566666D01*
X78454819Y-79566666D02*
X78502438Y-79709523D01*
X78502438Y-79709523D02*
X78550057Y-79757142D01*
X78550057Y-80138095D02*
X78502438Y-80185714D01*
X78502438Y-80185714D02*
X78454819Y-80280952D01*
X78454819Y-80280952D02*
X78454819Y-80519047D01*
X78454819Y-80519047D02*
X78502438Y-80614285D01*
X78502438Y-80614285D02*
X78550057Y-80661904D01*
X78550057Y-80661904D02*
X78645295Y-80709523D01*
X78645295Y-80709523D02*
X78740533Y-80709523D01*
X78740533Y-80709523D02*
X78883390Y-80661904D01*
X78883390Y-80661904D02*
X79454819Y-80090476D01*
X79454819Y-80090476D02*
X79454819Y-80709523D01*
X78883390Y-81280952D02*
X78835771Y-81185714D01*
X78835771Y-81185714D02*
X78788152Y-81138095D01*
X78788152Y-81138095D02*
X78692914Y-81090476D01*
X78692914Y-81090476D02*
X78645295Y-81090476D01*
X78645295Y-81090476D02*
X78550057Y-81138095D01*
X78550057Y-81138095D02*
X78502438Y-81185714D01*
X78502438Y-81185714D02*
X78454819Y-81280952D01*
X78454819Y-81280952D02*
X78454819Y-81471428D01*
X78454819Y-81471428D02*
X78502438Y-81566666D01*
X78502438Y-81566666D02*
X78550057Y-81614285D01*
X78550057Y-81614285D02*
X78645295Y-81661904D01*
X78645295Y-81661904D02*
X78692914Y-81661904D01*
X78692914Y-81661904D02*
X78788152Y-81614285D01*
X78788152Y-81614285D02*
X78835771Y-81566666D01*
X78835771Y-81566666D02*
X78883390Y-81471428D01*
X78883390Y-81471428D02*
X78883390Y-81280952D01*
X78883390Y-81280952D02*
X78931009Y-81185714D01*
X78931009Y-81185714D02*
X78978628Y-81138095D01*
X78978628Y-81138095D02*
X79073866Y-81090476D01*
X79073866Y-81090476D02*
X79264342Y-81090476D01*
X79264342Y-81090476D02*
X79359580Y-81138095D01*
X79359580Y-81138095D02*
X79407200Y-81185714D01*
X79407200Y-81185714D02*
X79454819Y-81280952D01*
X79454819Y-81280952D02*
X79454819Y-81471428D01*
X79454819Y-81471428D02*
X79407200Y-81566666D01*
X79407200Y-81566666D02*
X79359580Y-81614285D01*
X79359580Y-81614285D02*
X79264342Y-81661904D01*
X79264342Y-81661904D02*
X79073866Y-81661904D01*
X79073866Y-81661904D02*
X78978628Y-81614285D01*
X78978628Y-81614285D02*
X78931009Y-81566666D01*
X78931009Y-81566666D02*
X78883390Y-81471428D01*
X61937295Y-101678571D02*
X61137295Y-101678571D01*
X61137295Y-101678571D02*
X61137295Y-101869047D01*
X61137295Y-101869047D02*
X61175390Y-101983333D01*
X61175390Y-101983333D02*
X61251580Y-102059523D01*
X61251580Y-102059523D02*
X61327771Y-102097618D01*
X61327771Y-102097618D02*
X61480152Y-102135714D01*
X61480152Y-102135714D02*
X61594438Y-102135714D01*
X61594438Y-102135714D02*
X61746819Y-102097618D01*
X61746819Y-102097618D02*
X61823009Y-102059523D01*
X61823009Y-102059523D02*
X61899200Y-101983333D01*
X61899200Y-101983333D02*
X61937295Y-101869047D01*
X61937295Y-101869047D02*
X61937295Y-101678571D01*
X61937295Y-102897618D02*
X61937295Y-102440475D01*
X61937295Y-102669047D02*
X61137295Y-102669047D01*
X61137295Y-102669047D02*
X61251580Y-102592856D01*
X61251580Y-102592856D02*
X61327771Y-102516666D01*
X61327771Y-102516666D02*
X61365866Y-102440475D01*
X61137295Y-103621428D02*
X61137295Y-103240476D01*
X61137295Y-103240476D02*
X61518247Y-103202380D01*
X61518247Y-103202380D02*
X61480152Y-103240476D01*
X61480152Y-103240476D02*
X61442057Y-103316666D01*
X61442057Y-103316666D02*
X61442057Y-103507142D01*
X61442057Y-103507142D02*
X61480152Y-103583333D01*
X61480152Y-103583333D02*
X61518247Y-103621428D01*
X61518247Y-103621428D02*
X61594438Y-103659523D01*
X61594438Y-103659523D02*
X61784914Y-103659523D01*
X61784914Y-103659523D02*
X61861104Y-103621428D01*
X61861104Y-103621428D02*
X61899200Y-103583333D01*
X61899200Y-103583333D02*
X61937295Y-103507142D01*
X61937295Y-103507142D02*
X61937295Y-103316666D01*
X61937295Y-103316666D02*
X61899200Y-103240476D01*
X61899200Y-103240476D02*
X61861104Y-103202380D01*
X76312295Y-90759524D02*
X76959914Y-90759524D01*
X76959914Y-90759524D02*
X77036104Y-90797619D01*
X77036104Y-90797619D02*
X77074200Y-90835714D01*
X77074200Y-90835714D02*
X77112295Y-90911905D01*
X77112295Y-90911905D02*
X77112295Y-91064286D01*
X77112295Y-91064286D02*
X77074200Y-91140476D01*
X77074200Y-91140476D02*
X77036104Y-91178571D01*
X77036104Y-91178571D02*
X76959914Y-91216667D01*
X76959914Y-91216667D02*
X76312295Y-91216667D01*
X77112295Y-92016666D02*
X77112295Y-91559523D01*
X77112295Y-91788095D02*
X76312295Y-91788095D01*
X76312295Y-91788095D02*
X76426580Y-91711904D01*
X76426580Y-91711904D02*
X76502771Y-91635714D01*
X76502771Y-91635714D02*
X76540866Y-91559523D01*
X76312295Y-92283333D02*
X76312295Y-92778571D01*
X76312295Y-92778571D02*
X76617057Y-92511905D01*
X76617057Y-92511905D02*
X76617057Y-92626190D01*
X76617057Y-92626190D02*
X76655152Y-92702381D01*
X76655152Y-92702381D02*
X76693247Y-92740476D01*
X76693247Y-92740476D02*
X76769438Y-92778571D01*
X76769438Y-92778571D02*
X76959914Y-92778571D01*
X76959914Y-92778571D02*
X77036104Y-92740476D01*
X77036104Y-92740476D02*
X77074200Y-92702381D01*
X77074200Y-92702381D02*
X77112295Y-92626190D01*
X77112295Y-92626190D02*
X77112295Y-92397619D01*
X77112295Y-92397619D02*
X77074200Y-92321428D01*
X77074200Y-92321428D02*
X77036104Y-92283333D01*
X49537296Y-92423214D02*
X49156343Y-92156547D01*
X49537296Y-91966071D02*
X48737296Y-91966071D01*
X48737296Y-91966071D02*
X48737296Y-92270833D01*
X48737296Y-92270833D02*
X48775391Y-92347023D01*
X48775391Y-92347023D02*
X48813486Y-92385118D01*
X48813486Y-92385118D02*
X48889677Y-92423214D01*
X48889677Y-92423214D02*
X49003962Y-92423214D01*
X49003962Y-92423214D02*
X49080153Y-92385118D01*
X49080153Y-92385118D02*
X49118248Y-92347023D01*
X49118248Y-92347023D02*
X49156343Y-92270833D01*
X49156343Y-92270833D02*
X49156343Y-91966071D01*
X48737296Y-92689880D02*
X48737296Y-93185118D01*
X48737296Y-93185118D02*
X49042058Y-92918452D01*
X49042058Y-92918452D02*
X49042058Y-93032737D01*
X49042058Y-93032737D02*
X49080153Y-93108928D01*
X49080153Y-93108928D02*
X49118248Y-93147023D01*
X49118248Y-93147023D02*
X49194439Y-93185118D01*
X49194439Y-93185118D02*
X49384915Y-93185118D01*
X49384915Y-93185118D02*
X49461105Y-93147023D01*
X49461105Y-93147023D02*
X49499201Y-93108928D01*
X49499201Y-93108928D02*
X49537296Y-93032737D01*
X49537296Y-93032737D02*
X49537296Y-92804166D01*
X49537296Y-92804166D02*
X49499201Y-92727975D01*
X49499201Y-92727975D02*
X49461105Y-92689880D01*
X48737296Y-93451785D02*
X48737296Y-93985119D01*
X48737296Y-93985119D02*
X49537296Y-93642261D01*
X77919048Y-85899200D02*
X77804762Y-85937295D01*
X77804762Y-85937295D02*
X77614286Y-85937295D01*
X77614286Y-85937295D02*
X77538095Y-85899200D01*
X77538095Y-85899200D02*
X77500000Y-85861104D01*
X77500000Y-85861104D02*
X77461905Y-85784914D01*
X77461905Y-85784914D02*
X77461905Y-85708723D01*
X77461905Y-85708723D02*
X77500000Y-85632533D01*
X77500000Y-85632533D02*
X77538095Y-85594438D01*
X77538095Y-85594438D02*
X77614286Y-85556342D01*
X77614286Y-85556342D02*
X77766667Y-85518247D01*
X77766667Y-85518247D02*
X77842857Y-85480152D01*
X77842857Y-85480152D02*
X77880952Y-85442057D01*
X77880952Y-85442057D02*
X77919048Y-85365866D01*
X77919048Y-85365866D02*
X77919048Y-85289676D01*
X77919048Y-85289676D02*
X77880952Y-85213485D01*
X77880952Y-85213485D02*
X77842857Y-85175390D01*
X77842857Y-85175390D02*
X77766667Y-85137295D01*
X77766667Y-85137295D02*
X77576190Y-85137295D01*
X77576190Y-85137295D02*
X77461905Y-85175390D01*
X77119047Y-85937295D02*
X77119047Y-85137295D01*
X76738095Y-85937295D02*
X76738095Y-85137295D01*
X76738095Y-85137295D02*
X76471429Y-85708723D01*
X76471429Y-85708723D02*
X76204762Y-85137295D01*
X76204762Y-85137295D02*
X76204762Y-85937295D01*
X76014286Y-86013485D02*
X75404762Y-86013485D01*
X75214285Y-85937295D02*
X75214285Y-85137295D01*
X75214285Y-85137295D02*
X74909523Y-85137295D01*
X74909523Y-85137295D02*
X74833333Y-85175390D01*
X74833333Y-85175390D02*
X74795238Y-85213485D01*
X74795238Y-85213485D02*
X74757142Y-85289676D01*
X74757142Y-85289676D02*
X74757142Y-85403961D01*
X74757142Y-85403961D02*
X74795238Y-85480152D01*
X74795238Y-85480152D02*
X74833333Y-85518247D01*
X74833333Y-85518247D02*
X74909523Y-85556342D01*
X74909523Y-85556342D02*
X75214285Y-85556342D01*
X74490476Y-85137295D02*
X74300000Y-85937295D01*
X74300000Y-85937295D02*
X74147619Y-85365866D01*
X74147619Y-85365866D02*
X73995238Y-85937295D01*
X73995238Y-85937295D02*
X73804762Y-85137295D01*
X73042856Y-85937295D02*
X73309523Y-85556342D01*
X73499999Y-85937295D02*
X73499999Y-85137295D01*
X73499999Y-85137295D02*
X73195237Y-85137295D01*
X73195237Y-85137295D02*
X73119047Y-85175390D01*
X73119047Y-85175390D02*
X73080952Y-85213485D01*
X73080952Y-85213485D02*
X73042856Y-85289676D01*
X73042856Y-85289676D02*
X73042856Y-85403961D01*
X73042856Y-85403961D02*
X73080952Y-85480152D01*
X73080952Y-85480152D02*
X73119047Y-85518247D01*
X73119047Y-85518247D02*
X73195237Y-85556342D01*
X73195237Y-85556342D02*
X73499999Y-85556342D01*
X72280952Y-85937295D02*
X72738095Y-85937295D01*
X72509523Y-85937295D02*
X72509523Y-85137295D01*
X72509523Y-85137295D02*
X72585714Y-85251580D01*
X72585714Y-85251580D02*
X72661904Y-85327771D01*
X72661904Y-85327771D02*
X72738095Y-85365866D01*
X75354819Y-69861905D02*
X74354819Y-69861905D01*
X74354819Y-69861905D02*
X74354819Y-70100000D01*
X74354819Y-70100000D02*
X74402438Y-70242857D01*
X74402438Y-70242857D02*
X74497676Y-70338095D01*
X74497676Y-70338095D02*
X74592914Y-70385714D01*
X74592914Y-70385714D02*
X74783390Y-70433333D01*
X74783390Y-70433333D02*
X74926247Y-70433333D01*
X74926247Y-70433333D02*
X75116723Y-70385714D01*
X75116723Y-70385714D02*
X75211961Y-70338095D01*
X75211961Y-70338095D02*
X75307200Y-70242857D01*
X75307200Y-70242857D02*
X75354819Y-70100000D01*
X75354819Y-70100000D02*
X75354819Y-69861905D01*
X74688152Y-71290476D02*
X75354819Y-71290476D01*
X74307200Y-71052381D02*
X75021485Y-70814286D01*
X75021485Y-70814286D02*
X75021485Y-71433333D01*
X56461104Y-91535714D02*
X56499200Y-91497618D01*
X56499200Y-91497618D02*
X56537295Y-91383333D01*
X56537295Y-91383333D02*
X56537295Y-91307142D01*
X56537295Y-91307142D02*
X56499200Y-91192856D01*
X56499200Y-91192856D02*
X56423009Y-91116666D01*
X56423009Y-91116666D02*
X56346819Y-91078571D01*
X56346819Y-91078571D02*
X56194438Y-91040475D01*
X56194438Y-91040475D02*
X56080152Y-91040475D01*
X56080152Y-91040475D02*
X55927771Y-91078571D01*
X55927771Y-91078571D02*
X55851580Y-91116666D01*
X55851580Y-91116666D02*
X55775390Y-91192856D01*
X55775390Y-91192856D02*
X55737295Y-91307142D01*
X55737295Y-91307142D02*
X55737295Y-91383333D01*
X55737295Y-91383333D02*
X55775390Y-91497618D01*
X55775390Y-91497618D02*
X55813485Y-91535714D01*
X56003961Y-92221428D02*
X56537295Y-92221428D01*
X55699200Y-92030952D02*
X56270628Y-91840475D01*
X56270628Y-91840475D02*
X56270628Y-92335714D01*
X55813485Y-92602380D02*
X55775390Y-92640476D01*
X55775390Y-92640476D02*
X55737295Y-92716666D01*
X55737295Y-92716666D02*
X55737295Y-92907142D01*
X55737295Y-92907142D02*
X55775390Y-92983333D01*
X55775390Y-92983333D02*
X55813485Y-93021428D01*
X55813485Y-93021428D02*
X55889676Y-93059523D01*
X55889676Y-93059523D02*
X55965866Y-93059523D01*
X55965866Y-93059523D02*
X56080152Y-93021428D01*
X56080152Y-93021428D02*
X56537295Y-92564285D01*
X56537295Y-92564285D02*
X56537295Y-93059523D01*
X86813333Y-62984819D02*
X86813333Y-63699104D01*
X86813333Y-63699104D02*
X86860952Y-63841961D01*
X86860952Y-63841961D02*
X86956190Y-63937200D01*
X86956190Y-63937200D02*
X87099047Y-63984819D01*
X87099047Y-63984819D02*
X87194285Y-63984819D01*
X86384761Y-63080057D02*
X86337142Y-63032438D01*
X86337142Y-63032438D02*
X86241904Y-62984819D01*
X86241904Y-62984819D02*
X86003809Y-62984819D01*
X86003809Y-62984819D02*
X85908571Y-63032438D01*
X85908571Y-63032438D02*
X85860952Y-63080057D01*
X85860952Y-63080057D02*
X85813333Y-63175295D01*
X85813333Y-63175295D02*
X85813333Y-63270533D01*
X85813333Y-63270533D02*
X85860952Y-63413390D01*
X85860952Y-63413390D02*
X86432380Y-63984819D01*
X86432380Y-63984819D02*
X85813333Y-63984819D01*
X70011104Y-91785714D02*
X70049200Y-91747618D01*
X70049200Y-91747618D02*
X70087295Y-91633333D01*
X70087295Y-91633333D02*
X70087295Y-91557142D01*
X70087295Y-91557142D02*
X70049200Y-91442856D01*
X70049200Y-91442856D02*
X69973009Y-91366666D01*
X69973009Y-91366666D02*
X69896819Y-91328571D01*
X69896819Y-91328571D02*
X69744438Y-91290475D01*
X69744438Y-91290475D02*
X69630152Y-91290475D01*
X69630152Y-91290475D02*
X69477771Y-91328571D01*
X69477771Y-91328571D02*
X69401580Y-91366666D01*
X69401580Y-91366666D02*
X69325390Y-91442856D01*
X69325390Y-91442856D02*
X69287295Y-91557142D01*
X69287295Y-91557142D02*
X69287295Y-91633333D01*
X69287295Y-91633333D02*
X69325390Y-91747618D01*
X69325390Y-91747618D02*
X69363485Y-91785714D01*
X69553961Y-92471428D02*
X70087295Y-92471428D01*
X69249200Y-92280952D02*
X69820628Y-92090475D01*
X69820628Y-92090475D02*
X69820628Y-92585714D01*
X69287295Y-93233333D02*
X69287295Y-93080952D01*
X69287295Y-93080952D02*
X69325390Y-93004761D01*
X69325390Y-93004761D02*
X69363485Y-92966666D01*
X69363485Y-92966666D02*
X69477771Y-92890476D01*
X69477771Y-92890476D02*
X69630152Y-92852380D01*
X69630152Y-92852380D02*
X69934914Y-92852380D01*
X69934914Y-92852380D02*
X70011104Y-92890476D01*
X70011104Y-92890476D02*
X70049200Y-92928571D01*
X70049200Y-92928571D02*
X70087295Y-93004761D01*
X70087295Y-93004761D02*
X70087295Y-93157142D01*
X70087295Y-93157142D02*
X70049200Y-93233333D01*
X70049200Y-93233333D02*
X70011104Y-93271428D01*
X70011104Y-93271428D02*
X69934914Y-93309523D01*
X69934914Y-93309523D02*
X69744438Y-93309523D01*
X69744438Y-93309523D02*
X69668247Y-93271428D01*
X69668247Y-93271428D02*
X69630152Y-93233333D01*
X69630152Y-93233333D02*
X69592057Y-93157142D01*
X69592057Y-93157142D02*
X69592057Y-93004761D01*
X69592057Y-93004761D02*
X69630152Y-92928571D01*
X69630152Y-92928571D02*
X69668247Y-92890476D01*
X69668247Y-92890476D02*
X69744438Y-92852380D01*
X74946104Y-103410714D02*
X74984200Y-103372618D01*
X74984200Y-103372618D02*
X75022295Y-103258333D01*
X75022295Y-103258333D02*
X75022295Y-103182142D01*
X75022295Y-103182142D02*
X74984200Y-103067856D01*
X74984200Y-103067856D02*
X74908009Y-102991666D01*
X74908009Y-102991666D02*
X74831819Y-102953571D01*
X74831819Y-102953571D02*
X74679438Y-102915475D01*
X74679438Y-102915475D02*
X74565152Y-102915475D01*
X74565152Y-102915475D02*
X74412771Y-102953571D01*
X74412771Y-102953571D02*
X74336580Y-102991666D01*
X74336580Y-102991666D02*
X74260390Y-103067856D01*
X74260390Y-103067856D02*
X74222295Y-103182142D01*
X74222295Y-103182142D02*
X74222295Y-103258333D01*
X74222295Y-103258333D02*
X74260390Y-103372618D01*
X74260390Y-103372618D02*
X74298485Y-103410714D01*
X74488961Y-104096428D02*
X75022295Y-104096428D01*
X74184200Y-103905952D02*
X74755628Y-103715475D01*
X74755628Y-103715475D02*
X74755628Y-104210714D01*
X74222295Y-104667857D02*
X74222295Y-104744047D01*
X74222295Y-104744047D02*
X74260390Y-104820238D01*
X74260390Y-104820238D02*
X74298485Y-104858333D01*
X74298485Y-104858333D02*
X74374676Y-104896428D01*
X74374676Y-104896428D02*
X74527057Y-104934523D01*
X74527057Y-104934523D02*
X74717533Y-104934523D01*
X74717533Y-104934523D02*
X74869914Y-104896428D01*
X74869914Y-104896428D02*
X74946104Y-104858333D01*
X74946104Y-104858333D02*
X74984200Y-104820238D01*
X74984200Y-104820238D02*
X75022295Y-104744047D01*
X75022295Y-104744047D02*
X75022295Y-104667857D01*
X75022295Y-104667857D02*
X74984200Y-104591666D01*
X74984200Y-104591666D02*
X74946104Y-104553571D01*
X74946104Y-104553571D02*
X74869914Y-104515476D01*
X74869914Y-104515476D02*
X74717533Y-104477380D01*
X74717533Y-104477380D02*
X74527057Y-104477380D01*
X74527057Y-104477380D02*
X74374676Y-104515476D01*
X74374676Y-104515476D02*
X74298485Y-104553571D01*
X74298485Y-104553571D02*
X74260390Y-104591666D01*
X74260390Y-104591666D02*
X74222295Y-104667857D01*
X69014285Y-107611104D02*
X69052381Y-107649200D01*
X69052381Y-107649200D02*
X69166666Y-107687295D01*
X69166666Y-107687295D02*
X69242857Y-107687295D01*
X69242857Y-107687295D02*
X69357143Y-107649200D01*
X69357143Y-107649200D02*
X69433333Y-107573009D01*
X69433333Y-107573009D02*
X69471428Y-107496819D01*
X69471428Y-107496819D02*
X69509524Y-107344438D01*
X69509524Y-107344438D02*
X69509524Y-107230152D01*
X69509524Y-107230152D02*
X69471428Y-107077771D01*
X69471428Y-107077771D02*
X69433333Y-107001580D01*
X69433333Y-107001580D02*
X69357143Y-106925390D01*
X69357143Y-106925390D02*
X69242857Y-106887295D01*
X69242857Y-106887295D02*
X69166666Y-106887295D01*
X69166666Y-106887295D02*
X69052381Y-106925390D01*
X69052381Y-106925390D02*
X69014285Y-106963485D01*
X68328571Y-107153961D02*
X68328571Y-107687295D01*
X68519047Y-106849200D02*
X68709524Y-107420628D01*
X68709524Y-107420628D02*
X68214285Y-107420628D01*
X67490476Y-107687295D02*
X67947619Y-107687295D01*
X67719047Y-107687295D02*
X67719047Y-106887295D01*
X67719047Y-106887295D02*
X67795238Y-107001580D01*
X67795238Y-107001580D02*
X67871428Y-107077771D01*
X67871428Y-107077771D02*
X67947619Y-107115866D01*
X59789285Y-100312295D02*
X60055952Y-99931342D01*
X60246428Y-100312295D02*
X60246428Y-99512295D01*
X60246428Y-99512295D02*
X59941666Y-99512295D01*
X59941666Y-99512295D02*
X59865476Y-99550390D01*
X59865476Y-99550390D02*
X59827381Y-99588485D01*
X59827381Y-99588485D02*
X59789285Y-99664676D01*
X59789285Y-99664676D02*
X59789285Y-99778961D01*
X59789285Y-99778961D02*
X59827381Y-99855152D01*
X59827381Y-99855152D02*
X59865476Y-99893247D01*
X59865476Y-99893247D02*
X59941666Y-99931342D01*
X59941666Y-99931342D02*
X60246428Y-99931342D01*
X59027381Y-100312295D02*
X59484524Y-100312295D01*
X59255952Y-100312295D02*
X59255952Y-99512295D01*
X59255952Y-99512295D02*
X59332143Y-99626580D01*
X59332143Y-99626580D02*
X59408333Y-99702771D01*
X59408333Y-99702771D02*
X59484524Y-99740866D01*
X58265476Y-100312295D02*
X58722619Y-100312295D01*
X58494047Y-100312295D02*
X58494047Y-99512295D01*
X58494047Y-99512295D02*
X58570238Y-99626580D01*
X58570238Y-99626580D02*
X58646428Y-99702771D01*
X58646428Y-99702771D02*
X58722619Y-99740866D01*
X51487295Y-103735714D02*
X51106342Y-103469047D01*
X51487295Y-103278571D02*
X50687295Y-103278571D01*
X50687295Y-103278571D02*
X50687295Y-103583333D01*
X50687295Y-103583333D02*
X50725390Y-103659523D01*
X50725390Y-103659523D02*
X50763485Y-103697618D01*
X50763485Y-103697618D02*
X50839676Y-103735714D01*
X50839676Y-103735714D02*
X50953961Y-103735714D01*
X50953961Y-103735714D02*
X51030152Y-103697618D01*
X51030152Y-103697618D02*
X51068247Y-103659523D01*
X51068247Y-103659523D02*
X51106342Y-103583333D01*
X51106342Y-103583333D02*
X51106342Y-103278571D01*
X50687295Y-104002380D02*
X50687295Y-104497618D01*
X50687295Y-104497618D02*
X50992057Y-104230952D01*
X50992057Y-104230952D02*
X50992057Y-104345237D01*
X50992057Y-104345237D02*
X51030152Y-104421428D01*
X51030152Y-104421428D02*
X51068247Y-104459523D01*
X51068247Y-104459523D02*
X51144438Y-104497618D01*
X51144438Y-104497618D02*
X51334914Y-104497618D01*
X51334914Y-104497618D02*
X51411104Y-104459523D01*
X51411104Y-104459523D02*
X51449200Y-104421428D01*
X51449200Y-104421428D02*
X51487295Y-104345237D01*
X51487295Y-104345237D02*
X51487295Y-104116666D01*
X51487295Y-104116666D02*
X51449200Y-104040475D01*
X51449200Y-104040475D02*
X51411104Y-104002380D01*
X50763485Y-104802380D02*
X50725390Y-104840476D01*
X50725390Y-104840476D02*
X50687295Y-104916666D01*
X50687295Y-104916666D02*
X50687295Y-105107142D01*
X50687295Y-105107142D02*
X50725390Y-105183333D01*
X50725390Y-105183333D02*
X50763485Y-105221428D01*
X50763485Y-105221428D02*
X50839676Y-105259523D01*
X50839676Y-105259523D02*
X50915866Y-105259523D01*
X50915866Y-105259523D02*
X51030152Y-105221428D01*
X51030152Y-105221428D02*
X51487295Y-104764285D01*
X51487295Y-104764285D02*
X51487295Y-105259523D01*
X53812295Y-99115476D02*
X54459914Y-99115476D01*
X54459914Y-99115476D02*
X54536104Y-99153571D01*
X54536104Y-99153571D02*
X54574200Y-99191666D01*
X54574200Y-99191666D02*
X54612295Y-99267857D01*
X54612295Y-99267857D02*
X54612295Y-99420238D01*
X54612295Y-99420238D02*
X54574200Y-99496428D01*
X54574200Y-99496428D02*
X54536104Y-99534523D01*
X54536104Y-99534523D02*
X54459914Y-99572619D01*
X54459914Y-99572619D02*
X53812295Y-99572619D01*
X53812295Y-100334523D02*
X53812295Y-99953571D01*
X53812295Y-99953571D02*
X54193247Y-99915475D01*
X54193247Y-99915475D02*
X54155152Y-99953571D01*
X54155152Y-99953571D02*
X54117057Y-100029761D01*
X54117057Y-100029761D02*
X54117057Y-100220237D01*
X54117057Y-100220237D02*
X54155152Y-100296428D01*
X54155152Y-100296428D02*
X54193247Y-100334523D01*
X54193247Y-100334523D02*
X54269438Y-100372618D01*
X54269438Y-100372618D02*
X54459914Y-100372618D01*
X54459914Y-100372618D02*
X54536104Y-100334523D01*
X54536104Y-100334523D02*
X54574200Y-100296428D01*
X54574200Y-100296428D02*
X54612295Y-100220237D01*
X54612295Y-100220237D02*
X54612295Y-100029761D01*
X54612295Y-100029761D02*
X54574200Y-99953571D01*
X54574200Y-99953571D02*
X54536104Y-99915475D01*
X69709523Y-100087295D02*
X69709523Y-100734914D01*
X69709523Y-100734914D02*
X69671428Y-100811104D01*
X69671428Y-100811104D02*
X69633333Y-100849200D01*
X69633333Y-100849200D02*
X69557142Y-100887295D01*
X69557142Y-100887295D02*
X69404761Y-100887295D01*
X69404761Y-100887295D02*
X69328571Y-100849200D01*
X69328571Y-100849200D02*
X69290476Y-100811104D01*
X69290476Y-100811104D02*
X69252380Y-100734914D01*
X69252380Y-100734914D02*
X69252380Y-100087295D01*
X68833333Y-100887295D02*
X68680952Y-100887295D01*
X68680952Y-100887295D02*
X68604762Y-100849200D01*
X68604762Y-100849200D02*
X68566666Y-100811104D01*
X68566666Y-100811104D02*
X68490476Y-100696819D01*
X68490476Y-100696819D02*
X68452381Y-100544438D01*
X68452381Y-100544438D02*
X68452381Y-100239676D01*
X68452381Y-100239676D02*
X68490476Y-100163485D01*
X68490476Y-100163485D02*
X68528571Y-100125390D01*
X68528571Y-100125390D02*
X68604762Y-100087295D01*
X68604762Y-100087295D02*
X68757143Y-100087295D01*
X68757143Y-100087295D02*
X68833333Y-100125390D01*
X68833333Y-100125390D02*
X68871428Y-100163485D01*
X68871428Y-100163485D02*
X68909524Y-100239676D01*
X68909524Y-100239676D02*
X68909524Y-100430152D01*
X68909524Y-100430152D02*
X68871428Y-100506342D01*
X68871428Y-100506342D02*
X68833333Y-100544438D01*
X68833333Y-100544438D02*
X68757143Y-100582533D01*
X68757143Y-100582533D02*
X68604762Y-100582533D01*
X68604762Y-100582533D02*
X68528571Y-100544438D01*
X68528571Y-100544438D02*
X68490476Y-100506342D01*
X68490476Y-100506342D02*
X68452381Y-100430152D01*
X41759795Y-113435714D02*
X41378842Y-113169047D01*
X41759795Y-112978571D02*
X40959795Y-112978571D01*
X40959795Y-112978571D02*
X40959795Y-113283333D01*
X40959795Y-113283333D02*
X40997890Y-113359523D01*
X40997890Y-113359523D02*
X41035985Y-113397618D01*
X41035985Y-113397618D02*
X41112176Y-113435714D01*
X41112176Y-113435714D02*
X41226461Y-113435714D01*
X41226461Y-113435714D02*
X41302652Y-113397618D01*
X41302652Y-113397618D02*
X41340747Y-113359523D01*
X41340747Y-113359523D02*
X41378842Y-113283333D01*
X41378842Y-113283333D02*
X41378842Y-112978571D01*
X40959795Y-114121428D02*
X40959795Y-113969047D01*
X40959795Y-113969047D02*
X40997890Y-113892856D01*
X40997890Y-113892856D02*
X41035985Y-113854761D01*
X41035985Y-113854761D02*
X41150271Y-113778571D01*
X41150271Y-113778571D02*
X41302652Y-113740475D01*
X41302652Y-113740475D02*
X41607414Y-113740475D01*
X41607414Y-113740475D02*
X41683604Y-113778571D01*
X41683604Y-113778571D02*
X41721700Y-113816666D01*
X41721700Y-113816666D02*
X41759795Y-113892856D01*
X41759795Y-113892856D02*
X41759795Y-114045237D01*
X41759795Y-114045237D02*
X41721700Y-114121428D01*
X41721700Y-114121428D02*
X41683604Y-114159523D01*
X41683604Y-114159523D02*
X41607414Y-114197618D01*
X41607414Y-114197618D02*
X41416938Y-114197618D01*
X41416938Y-114197618D02*
X41340747Y-114159523D01*
X41340747Y-114159523D02*
X41302652Y-114121428D01*
X41302652Y-114121428D02*
X41264557Y-114045237D01*
X41264557Y-114045237D02*
X41264557Y-113892856D01*
X41264557Y-113892856D02*
X41302652Y-113816666D01*
X41302652Y-113816666D02*
X41340747Y-113778571D01*
X41340747Y-113778571D02*
X41416938Y-113740475D01*
X40959795Y-114464285D02*
X40959795Y-114959523D01*
X40959795Y-114959523D02*
X41264557Y-114692857D01*
X41264557Y-114692857D02*
X41264557Y-114807142D01*
X41264557Y-114807142D02*
X41302652Y-114883333D01*
X41302652Y-114883333D02*
X41340747Y-114921428D01*
X41340747Y-114921428D02*
X41416938Y-114959523D01*
X41416938Y-114959523D02*
X41607414Y-114959523D01*
X41607414Y-114959523D02*
X41683604Y-114921428D01*
X41683604Y-114921428D02*
X41721700Y-114883333D01*
X41721700Y-114883333D02*
X41759795Y-114807142D01*
X41759795Y-114807142D02*
X41759795Y-114578571D01*
X41759795Y-114578571D02*
X41721700Y-114502380D01*
X41721700Y-114502380D02*
X41683604Y-114464285D01*
X71592296Y-98485714D02*
X71211343Y-98219047D01*
X71592296Y-98028571D02*
X70792296Y-98028571D01*
X70792296Y-98028571D02*
X70792296Y-98333333D01*
X70792296Y-98333333D02*
X70830391Y-98409523D01*
X70830391Y-98409523D02*
X70868486Y-98447618D01*
X70868486Y-98447618D02*
X70944677Y-98485714D01*
X70944677Y-98485714D02*
X71058962Y-98485714D01*
X71058962Y-98485714D02*
X71135153Y-98447618D01*
X71135153Y-98447618D02*
X71173248Y-98409523D01*
X71173248Y-98409523D02*
X71211343Y-98333333D01*
X71211343Y-98333333D02*
X71211343Y-98028571D01*
X70792296Y-99171428D02*
X70792296Y-99019047D01*
X70792296Y-99019047D02*
X70830391Y-98942856D01*
X70830391Y-98942856D02*
X70868486Y-98904761D01*
X70868486Y-98904761D02*
X70982772Y-98828571D01*
X70982772Y-98828571D02*
X71135153Y-98790475D01*
X71135153Y-98790475D02*
X71439915Y-98790475D01*
X71439915Y-98790475D02*
X71516105Y-98828571D01*
X71516105Y-98828571D02*
X71554201Y-98866666D01*
X71554201Y-98866666D02*
X71592296Y-98942856D01*
X71592296Y-98942856D02*
X71592296Y-99095237D01*
X71592296Y-99095237D02*
X71554201Y-99171428D01*
X71554201Y-99171428D02*
X71516105Y-99209523D01*
X71516105Y-99209523D02*
X71439915Y-99247618D01*
X71439915Y-99247618D02*
X71249439Y-99247618D01*
X71249439Y-99247618D02*
X71173248Y-99209523D01*
X71173248Y-99209523D02*
X71135153Y-99171428D01*
X71135153Y-99171428D02*
X71097058Y-99095237D01*
X71097058Y-99095237D02*
X71097058Y-98942856D01*
X71097058Y-98942856D02*
X71135153Y-98866666D01*
X71135153Y-98866666D02*
X71173248Y-98828571D01*
X71173248Y-98828571D02*
X71249439Y-98790475D01*
X70792296Y-99742857D02*
X70792296Y-99819047D01*
X70792296Y-99819047D02*
X70830391Y-99895238D01*
X70830391Y-99895238D02*
X70868486Y-99933333D01*
X70868486Y-99933333D02*
X70944677Y-99971428D01*
X70944677Y-99971428D02*
X71097058Y-100009523D01*
X71097058Y-100009523D02*
X71287534Y-100009523D01*
X71287534Y-100009523D02*
X71439915Y-99971428D01*
X71439915Y-99971428D02*
X71516105Y-99933333D01*
X71516105Y-99933333D02*
X71554201Y-99895238D01*
X71554201Y-99895238D02*
X71592296Y-99819047D01*
X71592296Y-99819047D02*
X71592296Y-99742857D01*
X71592296Y-99742857D02*
X71554201Y-99666666D01*
X71554201Y-99666666D02*
X71516105Y-99628571D01*
X71516105Y-99628571D02*
X71439915Y-99590476D01*
X71439915Y-99590476D02*
X71287534Y-99552380D01*
X71287534Y-99552380D02*
X71097058Y-99552380D01*
X71097058Y-99552380D02*
X70944677Y-99590476D01*
X70944677Y-99590476D02*
X70868486Y-99628571D01*
X70868486Y-99628571D02*
X70830391Y-99666666D01*
X70830391Y-99666666D02*
X70792296Y-99742857D01*
X71471428Y-75612295D02*
X71471428Y-74812295D01*
X71471428Y-74812295D02*
X71280952Y-74812295D01*
X71280952Y-74812295D02*
X71166666Y-74850390D01*
X71166666Y-74850390D02*
X71090476Y-74926580D01*
X71090476Y-74926580D02*
X71052381Y-75002771D01*
X71052381Y-75002771D02*
X71014285Y-75155152D01*
X71014285Y-75155152D02*
X71014285Y-75269438D01*
X71014285Y-75269438D02*
X71052381Y-75421819D01*
X71052381Y-75421819D02*
X71090476Y-75498009D01*
X71090476Y-75498009D02*
X71166666Y-75574200D01*
X71166666Y-75574200D02*
X71280952Y-75612295D01*
X71280952Y-75612295D02*
X71471428Y-75612295D01*
X70252381Y-75612295D02*
X70709524Y-75612295D01*
X70480952Y-75612295D02*
X70480952Y-74812295D01*
X70480952Y-74812295D02*
X70557143Y-74926580D01*
X70557143Y-74926580D02*
X70633333Y-75002771D01*
X70633333Y-75002771D02*
X70709524Y-75040866D01*
X69490476Y-75612295D02*
X69947619Y-75612295D01*
X69719047Y-75612295D02*
X69719047Y-74812295D01*
X69719047Y-74812295D02*
X69795238Y-74926580D01*
X69795238Y-74926580D02*
X69871428Y-75002771D01*
X69871428Y-75002771D02*
X69947619Y-75040866D01*
X72200000Y-63362295D02*
X72200000Y-62562295D01*
X72200000Y-62562295D02*
X72033333Y-62562295D01*
X72033333Y-62562295D02*
X71933333Y-62600390D01*
X71933333Y-62600390D02*
X71866667Y-62676580D01*
X71866667Y-62676580D02*
X71833333Y-62752771D01*
X71833333Y-62752771D02*
X71800000Y-62905152D01*
X71800000Y-62905152D02*
X71800000Y-63019438D01*
X71800000Y-63019438D02*
X71833333Y-63171819D01*
X71833333Y-63171819D02*
X71866667Y-63248009D01*
X71866667Y-63248009D02*
X71933333Y-63324200D01*
X71933333Y-63324200D02*
X72033333Y-63362295D01*
X72033333Y-63362295D02*
X72200000Y-63362295D01*
X71500000Y-63057533D02*
X70966667Y-63057533D01*
X70266666Y-63362295D02*
X70666666Y-63362295D01*
X70466666Y-63362295D02*
X70466666Y-62562295D01*
X70466666Y-62562295D02*
X70533333Y-62676580D01*
X70533333Y-62676580D02*
X70600000Y-62752771D01*
X70600000Y-62752771D02*
X70666666Y-62790866D01*
X45111785Y-116312295D02*
X45378452Y-115931342D01*
X45568928Y-116312295D02*
X45568928Y-115512295D01*
X45568928Y-115512295D02*
X45264166Y-115512295D01*
X45264166Y-115512295D02*
X45187976Y-115550390D01*
X45187976Y-115550390D02*
X45149881Y-115588485D01*
X45149881Y-115588485D02*
X45111785Y-115664676D01*
X45111785Y-115664676D02*
X45111785Y-115778961D01*
X45111785Y-115778961D02*
X45149881Y-115855152D01*
X45149881Y-115855152D02*
X45187976Y-115893247D01*
X45187976Y-115893247D02*
X45264166Y-115931342D01*
X45264166Y-115931342D02*
X45568928Y-115931342D01*
X44426071Y-115512295D02*
X44578452Y-115512295D01*
X44578452Y-115512295D02*
X44654643Y-115550390D01*
X44654643Y-115550390D02*
X44692738Y-115588485D01*
X44692738Y-115588485D02*
X44768928Y-115702771D01*
X44768928Y-115702771D02*
X44807024Y-115855152D01*
X44807024Y-115855152D02*
X44807024Y-116159914D01*
X44807024Y-116159914D02*
X44768928Y-116236104D01*
X44768928Y-116236104D02*
X44730833Y-116274200D01*
X44730833Y-116274200D02*
X44654643Y-116312295D01*
X44654643Y-116312295D02*
X44502262Y-116312295D01*
X44502262Y-116312295D02*
X44426071Y-116274200D01*
X44426071Y-116274200D02*
X44387976Y-116236104D01*
X44387976Y-116236104D02*
X44349881Y-116159914D01*
X44349881Y-116159914D02*
X44349881Y-115969438D01*
X44349881Y-115969438D02*
X44387976Y-115893247D01*
X44387976Y-115893247D02*
X44426071Y-115855152D01*
X44426071Y-115855152D02*
X44502262Y-115817057D01*
X44502262Y-115817057D02*
X44654643Y-115817057D01*
X44654643Y-115817057D02*
X44730833Y-115855152D01*
X44730833Y-115855152D02*
X44768928Y-115893247D01*
X44768928Y-115893247D02*
X44807024Y-115969438D01*
X44045119Y-115588485D02*
X44007023Y-115550390D01*
X44007023Y-115550390D02*
X43930833Y-115512295D01*
X43930833Y-115512295D02*
X43740357Y-115512295D01*
X43740357Y-115512295D02*
X43664166Y-115550390D01*
X43664166Y-115550390D02*
X43626071Y-115588485D01*
X43626071Y-115588485D02*
X43587976Y-115664676D01*
X43587976Y-115664676D02*
X43587976Y-115740866D01*
X43587976Y-115740866D02*
X43626071Y-115855152D01*
X43626071Y-115855152D02*
X44083214Y-116312295D01*
X44083214Y-116312295D02*
X43587976Y-116312295D01*
X54561104Y-97123214D02*
X54599200Y-97085118D01*
X54599200Y-97085118D02*
X54637295Y-96970833D01*
X54637295Y-96970833D02*
X54637295Y-96894642D01*
X54637295Y-96894642D02*
X54599200Y-96780356D01*
X54599200Y-96780356D02*
X54523009Y-96704166D01*
X54523009Y-96704166D02*
X54446819Y-96666071D01*
X54446819Y-96666071D02*
X54294438Y-96627975D01*
X54294438Y-96627975D02*
X54180152Y-96627975D01*
X54180152Y-96627975D02*
X54027771Y-96666071D01*
X54027771Y-96666071D02*
X53951580Y-96704166D01*
X53951580Y-96704166D02*
X53875390Y-96780356D01*
X53875390Y-96780356D02*
X53837295Y-96894642D01*
X53837295Y-96894642D02*
X53837295Y-96970833D01*
X53837295Y-96970833D02*
X53875390Y-97085118D01*
X53875390Y-97085118D02*
X53913485Y-97123214D01*
X53837295Y-97389880D02*
X53837295Y-97885118D01*
X53837295Y-97885118D02*
X54142057Y-97618452D01*
X54142057Y-97618452D02*
X54142057Y-97732737D01*
X54142057Y-97732737D02*
X54180152Y-97808928D01*
X54180152Y-97808928D02*
X54218247Y-97847023D01*
X54218247Y-97847023D02*
X54294438Y-97885118D01*
X54294438Y-97885118D02*
X54484914Y-97885118D01*
X54484914Y-97885118D02*
X54561104Y-97847023D01*
X54561104Y-97847023D02*
X54599200Y-97808928D01*
X54599200Y-97808928D02*
X54637295Y-97732737D01*
X54637295Y-97732737D02*
X54637295Y-97504166D01*
X54637295Y-97504166D02*
X54599200Y-97427975D01*
X54599200Y-97427975D02*
X54561104Y-97389880D01*
X53913485Y-98189880D02*
X53875390Y-98227976D01*
X53875390Y-98227976D02*
X53837295Y-98304166D01*
X53837295Y-98304166D02*
X53837295Y-98494642D01*
X53837295Y-98494642D02*
X53875390Y-98570833D01*
X53875390Y-98570833D02*
X53913485Y-98608928D01*
X53913485Y-98608928D02*
X53989676Y-98647023D01*
X53989676Y-98647023D02*
X54065866Y-98647023D01*
X54065866Y-98647023D02*
X54180152Y-98608928D01*
X54180152Y-98608928D02*
X54637295Y-98151785D01*
X54637295Y-98151785D02*
X54637295Y-98647023D01*
X79286104Y-85985714D02*
X79324200Y-85947618D01*
X79324200Y-85947618D02*
X79362295Y-85833333D01*
X79362295Y-85833333D02*
X79362295Y-85757142D01*
X79362295Y-85757142D02*
X79324200Y-85642856D01*
X79324200Y-85642856D02*
X79248009Y-85566666D01*
X79248009Y-85566666D02*
X79171819Y-85528571D01*
X79171819Y-85528571D02*
X79019438Y-85490475D01*
X79019438Y-85490475D02*
X78905152Y-85490475D01*
X78905152Y-85490475D02*
X78752771Y-85528571D01*
X78752771Y-85528571D02*
X78676580Y-85566666D01*
X78676580Y-85566666D02*
X78600390Y-85642856D01*
X78600390Y-85642856D02*
X78562295Y-85757142D01*
X78562295Y-85757142D02*
X78562295Y-85833333D01*
X78562295Y-85833333D02*
X78600390Y-85947618D01*
X78600390Y-85947618D02*
X78638485Y-85985714D01*
X78638485Y-86290475D02*
X78600390Y-86328571D01*
X78600390Y-86328571D02*
X78562295Y-86404761D01*
X78562295Y-86404761D02*
X78562295Y-86595237D01*
X78562295Y-86595237D02*
X78600390Y-86671428D01*
X78600390Y-86671428D02*
X78638485Y-86709523D01*
X78638485Y-86709523D02*
X78714676Y-86747618D01*
X78714676Y-86747618D02*
X78790866Y-86747618D01*
X78790866Y-86747618D02*
X78905152Y-86709523D01*
X78905152Y-86709523D02*
X79362295Y-86252380D01*
X79362295Y-86252380D02*
X79362295Y-86747618D01*
X78638485Y-87052380D02*
X78600390Y-87090476D01*
X78600390Y-87090476D02*
X78562295Y-87166666D01*
X78562295Y-87166666D02*
X78562295Y-87357142D01*
X78562295Y-87357142D02*
X78600390Y-87433333D01*
X78600390Y-87433333D02*
X78638485Y-87471428D01*
X78638485Y-87471428D02*
X78714676Y-87509523D01*
X78714676Y-87509523D02*
X78790866Y-87509523D01*
X78790866Y-87509523D02*
X78905152Y-87471428D01*
X78905152Y-87471428D02*
X79362295Y-87014285D01*
X79362295Y-87014285D02*
X79362295Y-87509523D01*
X55637295Y-87922024D02*
X56284914Y-87922024D01*
X56284914Y-87922024D02*
X56361104Y-87960119D01*
X56361104Y-87960119D02*
X56399200Y-87998214D01*
X56399200Y-87998214D02*
X56437295Y-88074405D01*
X56437295Y-88074405D02*
X56437295Y-88226786D01*
X56437295Y-88226786D02*
X56399200Y-88302976D01*
X56399200Y-88302976D02*
X56361104Y-88341071D01*
X56361104Y-88341071D02*
X56284914Y-88379167D01*
X56284914Y-88379167D02*
X55637295Y-88379167D01*
X56437295Y-89179166D02*
X56437295Y-88722023D01*
X56437295Y-88950595D02*
X55637295Y-88950595D01*
X55637295Y-88950595D02*
X55751580Y-88874404D01*
X55751580Y-88874404D02*
X55827771Y-88798214D01*
X55827771Y-88798214D02*
X55865866Y-88722023D01*
X56437295Y-89941071D02*
X56437295Y-89483928D01*
X56437295Y-89712500D02*
X55637295Y-89712500D01*
X55637295Y-89712500D02*
X55751580Y-89636309D01*
X55751580Y-89636309D02*
X55827771Y-89560119D01*
X55827771Y-89560119D02*
X55865866Y-89483928D01*
D12*
X94150000Y-98020000D02*
X94150000Y-84920000D01*
X91450000Y-98020000D02*
X88550000Y-98020000D01*
X85550000Y-98020000D02*
X83450000Y-98020000D01*
X80100000Y-97346000D02*
X80100000Y-96344000D01*
X80100000Y-90596000D02*
X80100000Y-85594000D01*
D10*
X94700000Y-93850000D02*
G75*
G03*
X94500000Y-93850000I-100000J0D01*
G01*
X94500000Y-93850000D02*
G75*
G03*
X94700000Y-93850000I100000J0D01*
G01*
D13*
X44751141Y-114030000D02*
X44443859Y-114030000D01*
X44751141Y-113270000D02*
X44443859Y-113270000D01*
X59705000Y-87346359D02*
X59705000Y-87653641D01*
X58945000Y-87346359D02*
X58945000Y-87653641D01*
X46847164Y-107690000D02*
X47062836Y-107690000D01*
X46847164Y-108410000D02*
X47062836Y-108410000D01*
D14*
X70125000Y-125300000D02*
G75*
G03*
X68825000Y-125300000I-650000J0D01*
G01*
X68825000Y-125300000D02*
G75*
G03*
X70125000Y-125300000I650000J0D01*
G01*
D13*
X52754999Y-102033859D02*
X52754999Y-102341141D01*
X51994999Y-102033859D02*
X51994999Y-102341141D01*
X70982500Y-127418403D02*
X70982500Y-127111121D01*
X71742500Y-127418403D02*
X71742500Y-127111121D01*
X51328642Y-91217500D02*
X51021360Y-91217500D01*
X51328642Y-90457500D02*
X51021360Y-90457500D01*
X73462500Y-124614762D02*
X72862500Y-124614762D01*
X72162500Y-125264762D02*
X72162500Y-128064762D01*
X74162500Y-128064762D02*
X74162500Y-125264762D01*
X72862500Y-128714762D02*
X73462500Y-128714762D01*
X74162500Y-125314762D02*
G75*
G03*
X73462500Y-124614762I-699999J1D01*
G01*
X72862500Y-124614762D02*
G75*
G03*
X72162500Y-125314762I-1J-699999D01*
G01*
X73462500Y-128714762D02*
G75*
G03*
X74162500Y-128014762I0J700000D01*
G01*
X72162500Y-128014762D02*
G75*
G03*
X72862500Y-128714762I700000J0D01*
G01*
X64353641Y-103205000D02*
X64046359Y-103205000D01*
X64353641Y-102445000D02*
X64046359Y-102445000D01*
X77260000Y-96692163D02*
X77260000Y-96907835D01*
X76540000Y-96692163D02*
X76540000Y-96907835D01*
X53115000Y-93145336D02*
X53115000Y-92929664D01*
X53835000Y-93145336D02*
X53835000Y-92929664D01*
X49070000Y-113260000D02*
X50570000Y-113260000D01*
X49070000Y-113260000D02*
X47570000Y-113260000D01*
X49070000Y-110040000D02*
X51995000Y-110040000D01*
X49070000Y-110040000D02*
X47570000Y-110040000D01*
D14*
X68750000Y-87350000D02*
G75*
G03*
X67450000Y-87350000I-650000J0D01*
G01*
X67450000Y-87350000D02*
G75*
G03*
X68750000Y-87350000I650000J0D01*
G01*
D13*
X65325000Y-82960000D02*
X65325000Y-77450000D01*
X68625000Y-82960000D02*
X65325000Y-82960000D01*
X68625000Y-82960000D02*
X68625000Y-77450000D01*
X46862164Y-108815000D02*
X47077836Y-108815000D01*
X46862164Y-109535000D02*
X47077836Y-109535000D01*
X79992500Y-126821121D02*
X79992500Y-127128403D01*
X79232500Y-126821121D02*
X79232500Y-127128403D01*
X90350000Y-108950000D02*
X91700000Y-110100000D01*
X84750000Y-108950000D02*
X83100000Y-110600000D01*
X83100000Y-110600000D02*
X83100000Y-112500000D01*
X83100000Y-120400000D02*
X83100000Y-118500000D01*
X83100000Y-120400000D02*
X84750000Y-122050000D01*
X90350000Y-122050000D02*
X91700000Y-120900000D01*
X92197607Y-112995902D02*
G75*
G03*
X91700000Y-110100000I-2297607J1095902D01*
G01*
X91700000Y-120900000D02*
G75*
G03*
X92196459Y-118001694I-1800000J1800000D01*
G01*
X75680000Y-98846359D02*
X75680000Y-99153641D01*
X74920000Y-98846359D02*
X74920000Y-99153641D01*
G36*
X52888961Y-118702179D02*
G01*
X53146955Y-118728182D01*
X53562684Y-118835486D01*
X53789546Y-119005539D01*
X53818381Y-119228667D01*
X53640025Y-119495197D01*
X53540154Y-119574482D01*
X53215502Y-119674368D01*
X52852894Y-119634656D01*
X52515579Y-119479929D01*
X52266807Y-119234770D01*
X52169827Y-118923765D01*
X52170455Y-118867301D01*
X52194304Y-118749187D01*
X52289280Y-118692379D01*
X52504471Y-118681751D01*
X52888961Y-118702179D01*
G37*
G36*
X49040739Y-118684645D02*
G01*
X49460870Y-118735504D01*
X49698645Y-118853941D01*
X49839687Y-119077840D01*
X49844664Y-119345848D01*
X49679095Y-119548989D01*
X49665869Y-119556511D01*
X49309777Y-119658796D01*
X48927472Y-119623968D01*
X48579470Y-119477111D01*
X48326290Y-119243312D01*
X48228448Y-118947657D01*
X48243058Y-118801309D01*
X48321690Y-118720877D01*
X48515970Y-118688119D01*
X48877525Y-118681896D01*
X49040739Y-118684645D01*
G37*
G36*
X57754666Y-117568829D02*
G01*
X58087081Y-117940159D01*
X58156230Y-118065249D01*
X58267381Y-118522480D01*
X58168545Y-118967429D01*
X57865006Y-119366164D01*
X57756103Y-119454334D01*
X57341451Y-119640029D01*
X56925602Y-119626593D01*
X56553608Y-119423262D01*
X56270520Y-119039272D01*
X56243560Y-118979008D01*
X56143264Y-118491496D01*
X56251549Y-118036557D01*
X56561261Y-117648410D01*
X56948292Y-117427029D01*
X57364510Y-117395767D01*
X57754666Y-117568829D01*
G37*
G36*
X70813612Y-117420618D02*
G01*
X71208547Y-117638792D01*
X71460041Y-118011281D01*
X71548276Y-118517672D01*
X71532863Y-118803627D01*
X71440956Y-119086124D01*
X71228249Y-119347215D01*
X70956766Y-119545087D01*
X70528945Y-119671098D01*
X70089205Y-119639020D01*
X69698705Y-119456196D01*
X69418606Y-119129968D01*
X69371655Y-119031234D01*
X69254435Y-118537708D01*
X69324208Y-118086604D01*
X69558875Y-117716192D01*
X69936338Y-117464746D01*
X70434499Y-117370538D01*
X70813612Y-117420618D01*
G37*
G36*
X66332749Y-117497972D02*
G01*
X66632909Y-117738588D01*
X66837895Y-118074371D01*
X66931930Y-118462859D01*
X66899234Y-118861585D01*
X66724028Y-119228086D01*
X66390535Y-119519898D01*
X66292921Y-119566279D01*
X65890668Y-119624811D01*
X65466417Y-119530510D01*
X65108307Y-119298589D01*
X65035484Y-119216698D01*
X64852176Y-118831518D01*
X64834501Y-118402628D01*
X64966565Y-117988291D01*
X65232474Y-117646769D01*
X65616333Y-117436325D01*
X65953195Y-117394990D01*
X66332749Y-117497972D01*
G37*
G36*
X61800628Y-117439961D02*
G01*
X61996745Y-117507252D01*
X62345095Y-117763520D01*
X62557575Y-118122564D01*
X62630172Y-118533501D01*
X62558873Y-118945447D01*
X62339665Y-119307521D01*
X61968534Y-119568839D01*
X61890990Y-119596527D01*
X61494354Y-119625021D01*
X61075660Y-119521796D01*
X60739342Y-119308934D01*
X60537242Y-119038145D01*
X60417701Y-118629488D01*
X60462566Y-118220752D01*
X60647565Y-117854685D01*
X60948424Y-117574034D01*
X61340869Y-117421543D01*
X61800628Y-117439961D01*
G37*
G36*
X78907087Y-117450512D02*
G01*
X79230278Y-117669181D01*
X79407339Y-117880542D01*
X79589863Y-118226446D01*
X79580109Y-118517672D01*
X79566340Y-118553074D01*
X79518832Y-118635807D01*
X79435315Y-118663148D01*
X79274228Y-118627970D01*
X78994010Y-118523146D01*
X78553099Y-118341549D01*
X78379931Y-118269221D01*
X77963181Y-118086325D01*
X77716136Y-117950859D01*
X77612643Y-117838885D01*
X77626552Y-117726464D01*
X77731710Y-117589656D01*
X77776916Y-117545190D01*
X78101531Y-117384331D01*
X78504547Y-117354167D01*
X78907087Y-117450512D01*
G37*
G36*
X80744827Y-118025000D02*
G01*
X80744827Y-118369994D01*
X80744827Y-121966379D01*
X63720259Y-121966379D01*
X46695690Y-121966379D01*
X46695690Y-118649009D01*
X47481515Y-118649009D01*
X47485889Y-119172521D01*
X47516810Y-120269396D01*
X47817888Y-120304039D01*
X48048056Y-120291285D01*
X48118965Y-120167186D01*
X48119529Y-120141925D01*
X48170008Y-120018340D01*
X48327230Y-120024295D01*
X48626494Y-120159239D01*
X48751727Y-120214566D01*
X49215869Y-120309263D01*
X49702719Y-120282779D01*
X50108706Y-120136690D01*
X50260574Y-120023434D01*
X50524386Y-119675172D01*
X50635504Y-119269330D01*
X50584465Y-118866136D01*
X50361806Y-118525819D01*
X50285032Y-118464428D01*
X51424468Y-118464428D01*
X51427482Y-118998878D01*
X51434019Y-119269330D01*
X51458190Y-120269396D01*
X51759267Y-120304039D01*
X51989435Y-120291285D01*
X52060345Y-120167186D01*
X52060908Y-120141925D01*
X52111388Y-120018340D01*
X52268609Y-120024295D01*
X52567873Y-120159239D01*
X52693106Y-120214566D01*
X53157248Y-120309263D01*
X53644098Y-120282779D01*
X54050085Y-120136690D01*
X54201953Y-120023434D01*
X54465765Y-119675172D01*
X54576884Y-119269330D01*
X54525845Y-118866136D01*
X54303185Y-118525819D01*
X54153528Y-118406148D01*
X53818914Y-118246788D01*
X53370485Y-118160450D01*
X52758297Y-118134483D01*
X52613399Y-118133323D01*
X52333056Y-118112226D01*
X52202156Y-118051100D01*
X52169827Y-117932486D01*
X52214471Y-117730381D01*
X52421380Y-117511018D01*
X52757203Y-117394976D01*
X53178007Y-117394525D01*
X53639858Y-117521934D01*
X53699770Y-117546123D01*
X53969712Y-117614353D01*
X54129014Y-117554779D01*
X54159639Y-117522061D01*
X54243030Y-117318418D01*
X54120089Y-117123855D01*
X53784698Y-116927224D01*
X53729689Y-116903145D01*
X53175746Y-116748610D01*
X52629667Y-116735425D01*
X52138278Y-116853072D01*
X51748402Y-117091035D01*
X51506865Y-117438799D01*
X51470440Y-117619711D01*
X51439755Y-117985696D01*
X51424468Y-118464428D01*
X50285032Y-118464428D01*
X50212149Y-118406148D01*
X49877535Y-118246788D01*
X49429106Y-118160450D01*
X48816918Y-118134483D01*
X48672019Y-118133323D01*
X48391677Y-118112226D01*
X48260777Y-118051100D01*
X48228448Y-117932486D01*
X48273092Y-117730381D01*
X48480001Y-117511018D01*
X48815824Y-117394976D01*
X49236627Y-117394525D01*
X49698478Y-117521934D01*
X49758391Y-117546123D01*
X50028333Y-117614353D01*
X50187634Y-117554779D01*
X50218260Y-117522061D01*
X50301651Y-117318418D01*
X50178710Y-117123855D01*
X49843319Y-116927224D01*
X49646864Y-116847579D01*
X49068363Y-116718855D01*
X48532081Y-116745286D01*
X48074891Y-116915421D01*
X47733665Y-117217808D01*
X47545275Y-117640993D01*
X47525009Y-117773187D01*
X47495513Y-118157863D01*
X47481515Y-118649009D01*
X46695690Y-118649009D01*
X46695690Y-118025000D01*
X46695690Y-115397414D01*
X55340638Y-115397414D01*
X55370104Y-117833405D01*
X55387473Y-119269330D01*
X55399569Y-120269396D01*
X55755388Y-120303704D01*
X55925398Y-120312772D01*
X56075054Y-120265714D01*
X56111207Y-120112109D01*
X56138932Y-119931647D01*
X56247092Y-119910352D01*
X56460102Y-120068935D01*
X56547602Y-120126901D01*
X56850647Y-120234552D01*
X57235102Y-120297652D01*
X57301541Y-120301962D01*
X57860683Y-120239236D01*
X58346481Y-119983463D01*
X58783468Y-119522359D01*
X58895036Y-119315187D01*
X59004291Y-118868756D01*
X59007764Y-118773733D01*
X59673346Y-118773733D01*
X59833685Y-119299330D01*
X60157888Y-119755612D01*
X60638695Y-120097404D01*
X60938399Y-120217912D01*
X61548168Y-120320687D01*
X62121067Y-120243684D01*
X62624097Y-120005893D01*
X63024261Y-119626301D01*
X63288558Y-119123898D01*
X63383990Y-118517672D01*
X64056527Y-118517672D01*
X64083275Y-118847586D01*
X64259591Y-119391324D01*
X64571467Y-119831292D01*
X64984542Y-120145054D01*
X65464454Y-120310177D01*
X65976842Y-120304225D01*
X66487344Y-120104763D01*
X66698263Y-119979210D01*
X66869760Y-119903374D01*
X66937851Y-119945348D01*
X66950000Y-120105172D01*
X66951414Y-120142745D01*
X67028068Y-120285077D01*
X67260201Y-120324138D01*
X67490257Y-120304630D01*
X67643391Y-120251149D01*
X67652395Y-120223918D01*
X67672849Y-120017157D01*
X67690442Y-119637505D01*
X67704206Y-119117621D01*
X67709541Y-118744417D01*
X68604450Y-118744417D01*
X68736241Y-119259926D01*
X69021556Y-119708979D01*
X69459750Y-120046111D01*
X69484840Y-120058839D01*
X70046067Y-120238748D01*
X70636090Y-120259973D01*
X71189476Y-120128400D01*
X71640790Y-119849913D01*
X71836890Y-119615423D01*
X72888278Y-119615423D01*
X72894499Y-119731515D01*
X73062425Y-119890543D01*
X73079500Y-119904103D01*
X73374563Y-120077813D01*
X73719321Y-120211317D01*
X73887413Y-120255856D01*
X74209336Y-120309620D01*
X74497162Y-120281056D01*
X74867377Y-120165518D01*
X75214780Y-120013423D01*
X75589770Y-119718757D01*
X75865093Y-119284923D01*
X75903498Y-119171518D01*
X76693965Y-119171518D01*
X76723431Y-119296315D01*
X76894781Y-119560000D01*
X77168162Y-119824949D01*
X77484738Y-120027475D01*
X77737656Y-120130591D01*
X78364471Y-120250818D01*
X78943930Y-120181485D01*
X79446462Y-119940665D01*
X79842498Y-119546428D01*
X80102468Y-119016848D01*
X80196803Y-118369994D01*
X80172347Y-118125259D01*
X79982880Y-117659953D01*
X79643322Y-117263842D01*
X79198539Y-116963200D01*
X78693396Y-116784305D01*
X78172759Y-116753433D01*
X77681493Y-116896859D01*
X77603389Y-116941751D01*
X77309302Y-117179055D01*
X77049820Y-117477849D01*
X76873026Y-117775527D01*
X76827000Y-118009482D01*
X76922542Y-118103503D01*
X77183740Y-118260051D01*
X77393799Y-118365102D01*
X77568496Y-118452468D01*
X78035129Y-118658369D01*
X78455926Y-118842350D01*
X78851463Y-119037135D01*
X79115782Y-119194328D01*
X79212069Y-119294046D01*
X79209596Y-119324018D01*
X79080590Y-119499745D01*
X78791257Y-119621629D01*
X78390948Y-119667241D01*
X78152404Y-119653134D01*
X77682798Y-119500989D01*
X77288657Y-119160052D01*
X77178297Y-119056602D01*
X76954461Y-118961765D01*
X76770399Y-119000506D01*
X76693965Y-119171518D01*
X75903498Y-119171518D01*
X75985598Y-118929085D01*
X76014007Y-118365102D01*
X75870888Y-117821763D01*
X75573587Y-117353350D01*
X75139450Y-117014144D01*
X74675710Y-116859448D01*
X74137114Y-116805230D01*
X73613144Y-116852107D01*
X73193277Y-117000699D01*
X73070310Y-117075464D01*
X72898840Y-117217302D01*
X72903991Y-117346719D01*
X73071776Y-117523949D01*
X73215735Y-117637272D01*
X73355477Y-117646957D01*
X73566759Y-117526812D01*
X73792708Y-117425444D01*
X74225386Y-117388504D01*
X74668536Y-117499235D01*
X75041058Y-117745604D01*
X75240652Y-118036488D01*
X75327834Y-118412546D01*
X75341482Y-118471418D01*
X75274951Y-118913972D01*
X75041058Y-119289741D01*
X74929464Y-119386894D01*
X74492521Y-119597379D01*
X73998497Y-119640397D01*
X73523173Y-119505193D01*
X73500824Y-119493668D01*
X73263480Y-119386977D01*
X73121058Y-119389436D01*
X72985312Y-119500230D01*
X72888278Y-119615423D01*
X71836890Y-119615423D01*
X71937070Y-119495631D01*
X72162605Y-118970063D01*
X72213117Y-118412546D01*
X72093171Y-117869289D01*
X71807335Y-117386499D01*
X71360175Y-117010383D01*
X70963662Y-116859863D01*
X70421438Y-116800665D01*
X69874378Y-116860266D01*
X69417086Y-117037353D01*
X69136672Y-117253805D01*
X68804021Y-117695891D01*
X68626829Y-118207917D01*
X68604450Y-118744417D01*
X67709541Y-118744417D01*
X67713175Y-118490162D01*
X67716379Y-117787787D01*
X67716379Y-115397414D01*
X67333190Y-115397414D01*
X66950000Y-115397414D01*
X66950000Y-116324718D01*
X66950000Y-117252022D01*
X66539440Y-116971579D01*
X66282035Y-116817624D01*
X65984597Y-116732872D01*
X65600681Y-116740625D01*
X65374546Y-116774859D01*
X64827799Y-116991620D01*
X64412597Y-117369629D01*
X64148865Y-117885956D01*
X64056527Y-118517672D01*
X63383990Y-118517672D01*
X63378671Y-118362116D01*
X63239658Y-117767038D01*
X62918231Y-117287864D01*
X62422512Y-116937940D01*
X61929970Y-116760882D01*
X61311518Y-116722044D01*
X60727452Y-116898538D01*
X60187324Y-117288863D01*
X59873305Y-117695296D01*
X59684133Y-118223997D01*
X59681398Y-118363369D01*
X59673346Y-118773733D01*
X59007764Y-118773733D01*
X59022760Y-118363369D01*
X58950300Y-117885031D01*
X58786770Y-117519750D01*
X58636072Y-117337766D01*
X58167193Y-116954959D01*
X57646424Y-116750088D01*
X57112084Y-116733734D01*
X56602494Y-116916483D01*
X56506845Y-116972086D01*
X56275399Y-117098616D01*
X56159690Y-117149138D01*
X56152839Y-117140357D01*
X56131622Y-116986347D01*
X56116789Y-116680047D01*
X56111207Y-116273276D01*
X56111207Y-115397414D01*
X55725923Y-115397414D01*
X55340638Y-115397414D01*
X46695690Y-115397414D01*
X46695690Y-114083621D01*
X63720259Y-114083621D01*
X80744827Y-114083621D01*
X80744827Y-115397414D01*
X80744827Y-118025000D01*
G37*
X78350000Y-88372164D02*
X78350000Y-88587836D01*
X77630000Y-88372164D02*
X77630000Y-88587836D01*
X46847164Y-106640000D02*
X47062836Y-106640000D01*
X46847164Y-107360000D02*
X47062836Y-107360000D01*
X51095001Y-93091141D02*
X51095001Y-92783859D01*
X51855001Y-93091141D02*
X51855001Y-92783859D01*
X59355000Y-96596359D02*
X59355000Y-96903641D01*
X58595000Y-96596359D02*
X58595000Y-96903641D01*
D14*
X63025000Y-86525000D02*
G75*
G03*
X61725000Y-86525000I-650000J0D01*
G01*
X61725000Y-86525000D02*
G75*
G03*
X63025000Y-86525000I650000J0D01*
G01*
G36*
X76918754Y-59796899D02*
G01*
X76918754Y-60443933D01*
X76743711Y-60443933D01*
X76568668Y-60443933D01*
X76568668Y-59796899D01*
X76568668Y-59149865D01*
X76743711Y-59149865D01*
X76918754Y-59149865D01*
X76918754Y-59796899D01*
G37*
G36*
X80766318Y-60960470D02*
G01*
X80805710Y-60961000D01*
X80836735Y-60962027D01*
X80860353Y-60963670D01*
X80877525Y-60966049D01*
X80889212Y-60969285D01*
X80896373Y-60973497D01*
X80899971Y-60978805D01*
X80900964Y-60985330D01*
X80900315Y-60993191D01*
X80898983Y-61002508D01*
X80897204Y-61011553D01*
X80883620Y-61042285D01*
X80858436Y-61074804D01*
X80822127Y-61108458D01*
X80811511Y-61116887D01*
X80755629Y-61154569D01*
X80698104Y-61182935D01*
X80641546Y-61200651D01*
X80630950Y-61202166D01*
X80607798Y-61203681D01*
X80578773Y-61204301D01*
X80547772Y-61203892D01*
X80512905Y-61202181D01*
X80484302Y-61198951D01*
X80459427Y-61193525D01*
X80433801Y-61185168D01*
X80392350Y-61167836D01*
X80344637Y-61142600D01*
X80300783Y-61113862D01*
X80262876Y-61083168D01*
X80233006Y-61052061D01*
X80213260Y-61022086D01*
X80206213Y-61004940D01*
X80203639Y-60985365D01*
X80210921Y-60972546D01*
X80228279Y-60965649D01*
X80229335Y-60965496D01*
X80241815Y-60964721D01*
X80265264Y-60963960D01*
X80298400Y-60963233D01*
X80339940Y-60962556D01*
X80388602Y-60961951D01*
X80443106Y-60961434D01*
X80502168Y-60961025D01*
X80564507Y-60960743D01*
X80588330Y-60960661D01*
X80658589Y-60960421D01*
X80717598Y-60960317D01*
X80766318Y-60960470D01*
G37*
G36*
X76064783Y-58954504D02*
G01*
X76077298Y-58987954D01*
X76091676Y-59026227D01*
X76105262Y-59062247D01*
X76116273Y-59091282D01*
X76138018Y-59148352D01*
X76234560Y-59206935D01*
X76331103Y-59265518D01*
X76331106Y-59342099D01*
X76331110Y-59418681D01*
X76247034Y-59418681D01*
X76162958Y-59418681D01*
X76160541Y-59789084D01*
X76160229Y-59835295D01*
X76159683Y-59907375D01*
X76159110Y-59968573D01*
X76158478Y-60019921D01*
X76157752Y-60062454D01*
X76156900Y-60097203D01*
X76155888Y-60125203D01*
X76154682Y-60147487D01*
X76153250Y-60165087D01*
X76151558Y-60179038D01*
X76149572Y-60190372D01*
X76147259Y-60200123D01*
X76127086Y-60258417D01*
X76096982Y-60314740D01*
X76059129Y-60362650D01*
X76014359Y-60400894D01*
X76009893Y-60403837D01*
X75980109Y-60419686D01*
X75943305Y-60434754D01*
X75904043Y-60447346D01*
X75866883Y-60455764D01*
X75847588Y-60458127D01*
X75813882Y-60460338D01*
X75773863Y-60461536D01*
X75731021Y-60461716D01*
X75688845Y-60460873D01*
X75650825Y-60459002D01*
X75620450Y-60456099D01*
X75604419Y-60453711D01*
X75563242Y-60445923D01*
X75521642Y-60436087D01*
X75483908Y-60425276D01*
X75454332Y-60414564D01*
X75430888Y-60404525D01*
X75430888Y-60274192D01*
X75430910Y-60261956D01*
X75431258Y-60224329D01*
X75431981Y-60191873D01*
X75433011Y-60166421D01*
X75434280Y-60149805D01*
X75435720Y-60143859D01*
X75439372Y-60144449D01*
X75453292Y-60147522D01*
X75474670Y-60152630D01*
X75500650Y-60159104D01*
X75532040Y-60166482D01*
X75598385Y-60177456D01*
X75655680Y-60179850D01*
X75703915Y-60173666D01*
X75743079Y-60158906D01*
X75773160Y-60135572D01*
X75794148Y-60103666D01*
X75795865Y-60099629D01*
X75798154Y-60092742D01*
X75800062Y-60084062D01*
X75801622Y-60072518D01*
X75802871Y-60057039D01*
X75803843Y-60036554D01*
X75804574Y-60009993D01*
X75805098Y-59976283D01*
X75805453Y-59934355D01*
X75805671Y-59883136D01*
X75805790Y-59821557D01*
X75805843Y-59748545D01*
X75805981Y-59418872D01*
X75626249Y-59417214D01*
X75446517Y-59415555D01*
X75444830Y-59282710D01*
X75443143Y-59149865D01*
X75624562Y-59149865D01*
X75805981Y-59149865D01*
X75805981Y-59012331D01*
X75805981Y-58874797D01*
X75920509Y-58874797D01*
X76035037Y-58874797D01*
X76064783Y-58954504D01*
G37*
G36*
X73026221Y-59128876D02*
G01*
X73078396Y-59133929D01*
X73122798Y-59142614D01*
X73160451Y-59153781D01*
X73221666Y-59177992D01*
X73273771Y-59207850D01*
X73318554Y-59244468D01*
X73357804Y-59288961D01*
X73363595Y-59296063D01*
X73375493Y-59307778D01*
X73383987Y-59312405D01*
X73387969Y-59310228D01*
X73392797Y-59302432D01*
X73398746Y-59287709D01*
X73406280Y-59264755D01*
X73415865Y-59232265D01*
X73427964Y-59188937D01*
X73438698Y-59149865D01*
X73575206Y-59149865D01*
X73711715Y-59149865D01*
X73711715Y-59796899D01*
X73711715Y-60443933D01*
X73533902Y-60443933D01*
X73356089Y-60443933D01*
X73353695Y-60067278D01*
X73353311Y-60008603D01*
X73352748Y-59934123D01*
X73352099Y-59870310D01*
X73351284Y-59816078D01*
X73350225Y-59770346D01*
X73348842Y-59732030D01*
X73347053Y-59700047D01*
X73344781Y-59673312D01*
X73341944Y-59650743D01*
X73338463Y-59631257D01*
X73334258Y-59613769D01*
X73329250Y-59597197D01*
X73323358Y-59580457D01*
X73316502Y-59562466D01*
X73301382Y-59529161D01*
X73272648Y-59486361D01*
X73236896Y-59453579D01*
X73193675Y-59430524D01*
X73142531Y-59416904D01*
X73083012Y-59412429D01*
X73081086Y-59412434D01*
X73029235Y-59416847D01*
X72985859Y-59429897D01*
X72950310Y-59452127D01*
X72921942Y-59484081D01*
X72900107Y-59526300D01*
X72884158Y-59579329D01*
X72882283Y-59588687D01*
X72880484Y-59600786D01*
X72878960Y-59615640D01*
X72877689Y-59634223D01*
X72876649Y-59657510D01*
X72875818Y-59686477D01*
X72875175Y-59722097D01*
X72874697Y-59765347D01*
X72874364Y-59817200D01*
X72874152Y-59878631D01*
X72874041Y-59950616D01*
X72874009Y-60034128D01*
X72874009Y-60443933D01*
X72695840Y-60443933D01*
X72517672Y-60443933D01*
X72517697Y-59989134D01*
X72517724Y-59910755D01*
X72517844Y-59827015D01*
X72518110Y-59754062D01*
X72518574Y-59690957D01*
X72519288Y-59636762D01*
X72520305Y-59590540D01*
X72521675Y-59551351D01*
X72523452Y-59518259D01*
X72525688Y-59490324D01*
X72528434Y-59466610D01*
X72531744Y-59446177D01*
X72535668Y-59428089D01*
X72540260Y-59411407D01*
X72545572Y-59395192D01*
X72551655Y-59378507D01*
X72565044Y-59347145D01*
X72599136Y-59290232D01*
X72642860Y-59241231D01*
X72696113Y-59200230D01*
X72758794Y-59167314D01*
X72830800Y-59142571D01*
X72864373Y-59135517D01*
X72915078Y-59129669D01*
X72970405Y-59127455D01*
X73026221Y-59128876D01*
G37*
G36*
X78370349Y-59149511D02*
G01*
X78402556Y-59149751D01*
X78427878Y-59150233D01*
X78444444Y-59150977D01*
X78450381Y-59151999D01*
X78450369Y-59152049D01*
X78447891Y-59158796D01*
X78441364Y-59176137D01*
X78431173Y-59203060D01*
X78417705Y-59238556D01*
X78401345Y-59281611D01*
X78382479Y-59331216D01*
X78361491Y-59386358D01*
X78338768Y-59446027D01*
X78314696Y-59509211D01*
X78289659Y-59574898D01*
X78264043Y-59642078D01*
X78238234Y-59709739D01*
X78212617Y-59776869D01*
X78187578Y-59842458D01*
X78163502Y-59905494D01*
X78140776Y-59964966D01*
X78119783Y-60019862D01*
X78100911Y-60069172D01*
X78084544Y-60111883D01*
X78071068Y-60146985D01*
X78066015Y-60160191D01*
X78056449Y-60185525D01*
X78048782Y-60206264D01*
X78044325Y-60218878D01*
X78040952Y-60228287D01*
X78033749Y-60247495D01*
X78023846Y-60273498D01*
X78012227Y-60303753D01*
X77999873Y-60335719D01*
X77987767Y-60366856D01*
X77976892Y-60394620D01*
X77968230Y-60416471D01*
X77962764Y-60429867D01*
X77956778Y-60443933D01*
X77776018Y-60443933D01*
X77746692Y-60443921D01*
X77700292Y-60443801D01*
X77664311Y-60443486D01*
X77637389Y-60442895D01*
X77618165Y-60441948D01*
X77605278Y-60440565D01*
X77597366Y-60438665D01*
X77593068Y-60436168D01*
X77591025Y-60432993D01*
X77590490Y-60431597D01*
X77586165Y-60420276D01*
X77577873Y-60398552D01*
X77565965Y-60367348D01*
X77550794Y-60327586D01*
X77532711Y-60280188D01*
X77512068Y-60226077D01*
X77489217Y-60166173D01*
X77464508Y-60101399D01*
X77438295Y-60032678D01*
X77410928Y-59960930D01*
X77382759Y-59887078D01*
X77354140Y-59812044D01*
X77325423Y-59736751D01*
X77296959Y-59662119D01*
X77269100Y-59589071D01*
X77242197Y-59518529D01*
X77216603Y-59451415D01*
X77192669Y-59388651D01*
X77170747Y-59331159D01*
X77166327Y-59319561D01*
X77146772Y-59268053D01*
X77131426Y-59227233D01*
X77119997Y-59196306D01*
X77112194Y-59174476D01*
X77107725Y-59160946D01*
X77106301Y-59154920D01*
X77106848Y-59154529D01*
X77116267Y-59153281D01*
X77136184Y-59152164D01*
X77165056Y-59151222D01*
X77201339Y-59150496D01*
X77243489Y-59150030D01*
X77289961Y-59149865D01*
X77473622Y-59149865D01*
X77495712Y-59213943D01*
X77497817Y-59220061D01*
X77507021Y-59246986D01*
X77519556Y-59283830D01*
X77534926Y-59329122D01*
X77552632Y-59381387D01*
X77572176Y-59439153D01*
X77593060Y-59500947D01*
X77614786Y-59565296D01*
X77636857Y-59630727D01*
X77658774Y-59695766D01*
X77680040Y-59758942D01*
X77700156Y-59818779D01*
X77711301Y-59852641D01*
X77730927Y-59916366D01*
X77746891Y-59974133D01*
X77758852Y-60024569D01*
X77766469Y-60066300D01*
X77769403Y-60097955D01*
X77770490Y-60118143D01*
X77773188Y-60132559D01*
X77776783Y-60135627D01*
X77780620Y-60126977D01*
X77784047Y-60106239D01*
X77787306Y-60080219D01*
X77801161Y-60001973D01*
X77821935Y-59917982D01*
X77850096Y-59826255D01*
X77854071Y-59814317D01*
X77868666Y-59770659D01*
X77885132Y-59721638D01*
X77903050Y-59668483D01*
X77921999Y-59612422D01*
X77941563Y-59554685D01*
X77961320Y-59496503D01*
X77980853Y-59439103D01*
X77999741Y-59383715D01*
X78017567Y-59331570D01*
X78033910Y-59283895D01*
X78048352Y-59241920D01*
X78060474Y-59206875D01*
X78069856Y-59179990D01*
X78076080Y-59162492D01*
X78078726Y-59155613D01*
X78079487Y-59155264D01*
X78089435Y-59154140D01*
X78109342Y-59153094D01*
X78137338Y-59152146D01*
X78171549Y-59151312D01*
X78210106Y-59150612D01*
X78251136Y-59150064D01*
X78292767Y-59149686D01*
X78333129Y-59149495D01*
X78370349Y-59149511D01*
G37*
G36*
X79734309Y-59698025D02*
G01*
X79738798Y-59803150D01*
X79738730Y-59818480D01*
X79734519Y-59908172D01*
X79723442Y-59988904D01*
X79705011Y-60062264D01*
X79678742Y-60129834D01*
X79644150Y-60193200D01*
X79600749Y-60253946D01*
X79593082Y-60263201D01*
X79546342Y-60309561D01*
X79489982Y-60351711D01*
X79426137Y-60388545D01*
X79356944Y-60418956D01*
X79284539Y-60441833D01*
X79211057Y-60456071D01*
X79196846Y-60457578D01*
X79162662Y-60459748D01*
X79120863Y-60461119D01*
X79074604Y-60461694D01*
X79027039Y-60461472D01*
X78981324Y-60460454D01*
X78940613Y-60458640D01*
X78908060Y-60456031D01*
X78872478Y-60451326D01*
X78789973Y-60434678D01*
X78709699Y-60410887D01*
X78636365Y-60381247D01*
X78619173Y-60373159D01*
X78619173Y-60236629D01*
X78619323Y-60198769D01*
X78620038Y-60155777D01*
X78621339Y-60124922D01*
X78623219Y-60106324D01*
X78625673Y-60100098D01*
X78627716Y-60100400D01*
X78639474Y-60104559D01*
X78655590Y-60112044D01*
X78672038Y-60119686D01*
X78705240Y-60132839D01*
X78745024Y-60146721D01*
X78787966Y-60160218D01*
X78830639Y-60172217D01*
X78869619Y-60181605D01*
X78892765Y-60186208D01*
X78922873Y-60190804D01*
X78954734Y-60193781D01*
X78991927Y-60195445D01*
X79038026Y-60196104D01*
X79042385Y-60196125D01*
X79080952Y-60196115D01*
X79109880Y-60195523D01*
X79131772Y-60194099D01*
X79149234Y-60191592D01*
X79164873Y-60187751D01*
X79181293Y-60182326D01*
X79219795Y-60165693D01*
X79268849Y-60133649D01*
X79309439Y-60092539D01*
X79341386Y-60042606D01*
X79364508Y-59984093D01*
X79378627Y-59917241D01*
X79382627Y-59887546D01*
X78965757Y-59887546D01*
X78548888Y-59887546D01*
X78552034Y-59732820D01*
X78552136Y-59727861D01*
X78553295Y-59678331D01*
X78554580Y-59639559D01*
X78881738Y-59639559D01*
X78882341Y-59641897D01*
X78885182Y-59644115D01*
X78891410Y-59645889D01*
X78902163Y-59647269D01*
X78918583Y-59648303D01*
X78941807Y-59649039D01*
X78972976Y-59649527D01*
X79013230Y-59649816D01*
X79063707Y-59649953D01*
X79125548Y-59649988D01*
X79369357Y-59649988D01*
X79369265Y-59629670D01*
X79368976Y-59622524D01*
X79365058Y-59594409D01*
X79357615Y-59561940D01*
X79347995Y-59530412D01*
X79337546Y-59505117D01*
X79325668Y-59485350D01*
X79298548Y-59452263D01*
X79266129Y-59422996D01*
X79232614Y-59401694D01*
X79229159Y-59400022D01*
X79213159Y-59392997D01*
X79198177Y-59388470D01*
X79180834Y-59385893D01*
X79157751Y-59384723D01*
X79125548Y-59384413D01*
X79121559Y-59384409D01*
X79090280Y-59384705D01*
X79067728Y-59385975D01*
X79050493Y-59388741D01*
X79035169Y-59393525D01*
X79018346Y-59400851D01*
X79017881Y-59401070D01*
X78974948Y-59428077D01*
X78939449Y-59464456D01*
X78913069Y-59508482D01*
X78908614Y-59519256D01*
X78898616Y-59549387D01*
X78890021Y-59582755D01*
X78884004Y-59614448D01*
X78881738Y-59639559D01*
X78554580Y-59639559D01*
X78554596Y-59639071D01*
X78556206Y-59608026D01*
X78558295Y-59583144D01*
X78561030Y-59562374D01*
X78564582Y-59543662D01*
X78569119Y-59524957D01*
X78570506Y-59519758D01*
X78597359Y-59442182D01*
X78633584Y-59371670D01*
X78678556Y-59308976D01*
X78731647Y-59254855D01*
X78792230Y-59210060D01*
X78859679Y-59175347D01*
X78886906Y-59164516D01*
X78929371Y-59150236D01*
X78971223Y-59140085D01*
X79015707Y-59133494D01*
X79066067Y-59129894D01*
X79125548Y-59128717D01*
X79126758Y-59128714D01*
X79190741Y-59129981D01*
X79245499Y-59134347D01*
X79293984Y-59142293D01*
X79339147Y-59154300D01*
X79383940Y-59170850D01*
X79453277Y-59204736D01*
X79520476Y-59249762D01*
X79578584Y-59303139D01*
X79627646Y-59364945D01*
X79667706Y-59435258D01*
X79698807Y-59514157D01*
X79720993Y-59601720D01*
X79727667Y-59649988D01*
X79734309Y-59698025D01*
G37*
G36*
X81281527Y-59570318D02*
G01*
X81273120Y-59659365D01*
X81259104Y-59724357D01*
X81230279Y-59807815D01*
X81190486Y-59886128D01*
X81140255Y-59958559D01*
X81080118Y-60024371D01*
X81010603Y-60082827D01*
X80932242Y-60133189D01*
X80904110Y-60148878D01*
X80900984Y-60436616D01*
X80900713Y-60461476D01*
X80899988Y-60524904D01*
X80899301Y-60577352D01*
X80898590Y-60619949D01*
X80897797Y-60653825D01*
X80896863Y-60680108D01*
X80895729Y-60699928D01*
X80894334Y-60714414D01*
X80892620Y-60724696D01*
X80890527Y-60731903D01*
X80887997Y-60737164D01*
X80884969Y-60741608D01*
X80878884Y-60749223D01*
X80850833Y-60773978D01*
X80818947Y-60787755D01*
X80813093Y-60788583D01*
X80794360Y-60789806D01*
X80765867Y-60790839D01*
X80729326Y-60791680D01*
X80686448Y-60792329D01*
X80638945Y-60792784D01*
X80588529Y-60793045D01*
X80536910Y-60793111D01*
X80485801Y-60792981D01*
X80436912Y-60792654D01*
X80391957Y-60792129D01*
X80352645Y-60791406D01*
X80320690Y-60790482D01*
X80297801Y-60789359D01*
X80285692Y-60788033D01*
X80262993Y-60780379D01*
X80234240Y-60761431D01*
X80214042Y-60735648D01*
X80203369Y-60705074D01*
X80203188Y-60671753D01*
X80214469Y-60637731D01*
X80215630Y-60635519D01*
X80232742Y-60612065D01*
X80256838Y-60595533D01*
X80259584Y-60594161D01*
X80267686Y-60590478D01*
X80276315Y-60587585D01*
X80286967Y-60585389D01*
X80301139Y-60583792D01*
X80320329Y-60582700D01*
X80346033Y-60582017D01*
X80379749Y-60581648D01*
X80422974Y-60581496D01*
X80477204Y-60581467D01*
X80669677Y-60581467D01*
X80669677Y-60394736D01*
X80669677Y-60208006D01*
X80586845Y-60204773D01*
X80572431Y-60204103D01*
X80509742Y-60198021D01*
X80452379Y-60186252D01*
X80395739Y-60167631D01*
X80335220Y-60140991D01*
X80320406Y-60133575D01*
X80245334Y-60088173D01*
X80178591Y-60034408D01*
X80120464Y-59973329D01*
X80071240Y-59905987D01*
X80031204Y-59833430D01*
X80000643Y-59756707D01*
X79979843Y-59676869D01*
X79969091Y-59594965D01*
X79968804Y-59537956D01*
X80274589Y-59537956D01*
X80277688Y-59598855D01*
X80291800Y-59659978D01*
X80317531Y-59720105D01*
X80343202Y-59758682D01*
X80380850Y-59798948D01*
X80425552Y-59834691D01*
X80474454Y-59863659D01*
X80524699Y-59883597D01*
X80577729Y-59894861D01*
X80641743Y-59897209D01*
X80704754Y-59887388D01*
X80765784Y-59865567D01*
X80823851Y-59831916D01*
X80837039Y-59822179D01*
X80883649Y-59778448D01*
X80920728Y-59727575D01*
X80947750Y-59670892D01*
X80964188Y-59609735D01*
X80969514Y-59545434D01*
X80963202Y-59479324D01*
X80954101Y-59442703D01*
X80930546Y-59386889D01*
X80897359Y-59336599D01*
X80855924Y-59292804D01*
X80807621Y-59256475D01*
X80753832Y-59228583D01*
X80695938Y-59210100D01*
X80635321Y-59201996D01*
X80573362Y-59205244D01*
X80510350Y-59220410D01*
X80453328Y-59245585D01*
X80403076Y-59279522D01*
X80360201Y-59321002D01*
X80325309Y-59368805D01*
X80299005Y-59421712D01*
X80281897Y-59478502D01*
X80274589Y-59537956D01*
X79968804Y-59537956D01*
X79968673Y-59512044D01*
X79978874Y-59429155D01*
X79999983Y-59347349D01*
X80032284Y-59267674D01*
X80076065Y-59191180D01*
X80088360Y-59172490D01*
X80100883Y-59152887D01*
X80109123Y-59139279D01*
X80111721Y-59133848D01*
X80105994Y-59131381D01*
X80090816Y-59125411D01*
X80068565Y-59116871D01*
X80041603Y-59106675D01*
X80034394Y-59103935D01*
X79995357Y-59087445D01*
X79966725Y-59071543D01*
X79946841Y-59054892D01*
X79934051Y-59036160D01*
X79926700Y-59014010D01*
X79924724Y-58979767D01*
X79933908Y-58946463D01*
X79953733Y-58917929D01*
X79983261Y-58896119D01*
X79984027Y-58895724D01*
X79997672Y-58890337D01*
X80013088Y-58887963D01*
X80031899Y-58888910D01*
X80055730Y-58893483D01*
X80086209Y-58901989D01*
X80124958Y-58914735D01*
X80173605Y-58932028D01*
X80187193Y-58936958D01*
X80225398Y-58950676D01*
X80254130Y-58960595D01*
X80275111Y-58967162D01*
X80290064Y-58970819D01*
X80300710Y-58972012D01*
X80308772Y-58971186D01*
X80315971Y-58968785D01*
X80328596Y-58963580D01*
X80381184Y-58942640D01*
X80425760Y-58926563D01*
X80464931Y-58914738D01*
X80501302Y-58906558D01*
X80537477Y-58901412D01*
X80576063Y-58898692D01*
X80619665Y-58897789D01*
X80634489Y-58897837D01*
X80713071Y-58902434D01*
X80785151Y-58914924D01*
X80853994Y-58936048D01*
X80922865Y-58966546D01*
X80963648Y-58989053D01*
X81035959Y-59039336D01*
X81100005Y-59098075D01*
X81155266Y-59164239D01*
X81201219Y-59236795D01*
X81237343Y-59314713D01*
X81263117Y-59396961D01*
X81278019Y-59482506D01*
X81280533Y-59545434D01*
X81281527Y-59570318D01*
G37*
G36*
X75248772Y-59832362D02*
G01*
X75239011Y-59916666D01*
X75217850Y-60000508D01*
X75184853Y-60082925D01*
X75169210Y-60113424D01*
X75121830Y-60187804D01*
X75065377Y-60255015D01*
X75001004Y-60314201D01*
X74929862Y-60364503D01*
X74853103Y-60405063D01*
X74771877Y-60435024D01*
X74687337Y-60453528D01*
X74606937Y-60460664D01*
X74516273Y-60457560D01*
X74428260Y-60442625D01*
X74343727Y-60416127D01*
X74263507Y-60378335D01*
X74188431Y-60329518D01*
X74119330Y-60269943D01*
X74067333Y-60212405D01*
X74017309Y-60140917D01*
X73977714Y-60064750D01*
X73948576Y-59985017D01*
X73929924Y-59902827D01*
X73922057Y-59822060D01*
X74258474Y-59822060D01*
X74268708Y-59882026D01*
X74289724Y-59938552D01*
X74320748Y-59990286D01*
X74361005Y-60035879D01*
X74409719Y-60073979D01*
X74466117Y-60103236D01*
X74493324Y-60112078D01*
X74536863Y-60120356D01*
X74583385Y-60123946D01*
X74628167Y-60122550D01*
X74666485Y-60115869D01*
X74724026Y-60094241D01*
X74777844Y-60062137D01*
X74823826Y-60021580D01*
X74861103Y-59973697D01*
X74888806Y-59919617D01*
X74906065Y-59860467D01*
X74912011Y-59797375D01*
X74910417Y-59764833D01*
X74898784Y-59704952D01*
X74876845Y-59649701D01*
X74845754Y-59600056D01*
X74806665Y-59556997D01*
X74760731Y-59521502D01*
X74709105Y-59494550D01*
X74652943Y-59477118D01*
X74593396Y-59470187D01*
X74531619Y-59474733D01*
X74490053Y-59484758D01*
X74433822Y-59508484D01*
X74383090Y-59541973D01*
X74339179Y-59583891D01*
X74303413Y-59632905D01*
X74277115Y-59687682D01*
X74261608Y-59746886D01*
X74259798Y-59760002D01*
X74258474Y-59822060D01*
X73922057Y-59822060D01*
X73921788Y-59819294D01*
X73924196Y-59735529D01*
X73937177Y-59652643D01*
X73960761Y-59571748D01*
X73994976Y-59493957D01*
X74039851Y-59420380D01*
X74095415Y-59352129D01*
X74127863Y-59319383D01*
X74197096Y-59261181D01*
X74270841Y-59213689D01*
X74348164Y-59177466D01*
X74428131Y-59153069D01*
X74472507Y-59143042D01*
X74476807Y-59013608D01*
X74477743Y-58986954D01*
X74480745Y-58919591D01*
X74484498Y-58862407D01*
X74489284Y-58813691D01*
X74495383Y-58771732D01*
X74503076Y-58734819D01*
X74512644Y-58701240D01*
X74524367Y-58669283D01*
X74538525Y-58637238D01*
X74549536Y-58615305D01*
X74565599Y-58588983D01*
X74585066Y-58564389D01*
X74611260Y-58536939D01*
X74618736Y-58529678D01*
X74653954Y-58499511D01*
X74692116Y-58473743D01*
X74734579Y-58451916D01*
X74782701Y-58433572D01*
X74837838Y-58418253D01*
X74901349Y-58405500D01*
X74974591Y-58394856D01*
X75058922Y-58385862D01*
X75069272Y-58385015D01*
X75090345Y-58383744D01*
X75116805Y-58382640D01*
X75149301Y-58381697D01*
X75188478Y-58380910D01*
X75234983Y-58380275D01*
X75289464Y-58379785D01*
X75352567Y-58379436D01*
X75424938Y-58379221D01*
X75507225Y-58379136D01*
X75600074Y-58379176D01*
X75704133Y-58379335D01*
X75820047Y-58379607D01*
X75847160Y-58379676D01*
X75951102Y-58379876D01*
X76047496Y-58379954D01*
X76135848Y-58379912D01*
X76215661Y-58379753D01*
X76286440Y-58379481D01*
X76347689Y-58379099D01*
X76398914Y-58378609D01*
X76439617Y-58378014D01*
X76469305Y-58377318D01*
X76487481Y-58376522D01*
X76493650Y-58375631D01*
X76493654Y-58375375D01*
X76498079Y-58363170D01*
X76509392Y-58345056D01*
X76525485Y-58323663D01*
X76544254Y-58301621D01*
X76563593Y-58281556D01*
X76581394Y-58266100D01*
X76618243Y-58242090D01*
X76660876Y-58223996D01*
X76707551Y-58214653D01*
X76761474Y-58213117D01*
X76783728Y-58214081D01*
X76807663Y-58216246D01*
X76826900Y-58220323D01*
X76846012Y-58227384D01*
X76869570Y-58238503D01*
X76905593Y-58259575D01*
X76947837Y-58295070D01*
X76981035Y-58336501D01*
X77005179Y-58382415D01*
X77020265Y-58431365D01*
X77026285Y-58481899D01*
X77023233Y-58532568D01*
X77011104Y-58581922D01*
X76989891Y-58628511D01*
X76959589Y-58670884D01*
X76920190Y-58707592D01*
X76871689Y-58737184D01*
X76828343Y-58753700D01*
X76773859Y-58763605D01*
X76719161Y-58762808D01*
X76665970Y-58751865D01*
X76616004Y-58731332D01*
X76570984Y-58701765D01*
X76532630Y-58663723D01*
X76502660Y-58617760D01*
X76486816Y-58586492D01*
X75788498Y-58589059D01*
X75754883Y-58589183D01*
X75643438Y-58589621D01*
X75543520Y-58590072D01*
X75454364Y-58590566D01*
X75375209Y-58591130D01*
X75305292Y-58591793D01*
X75243851Y-58592583D01*
X75190124Y-58593527D01*
X75143347Y-58594654D01*
X75102758Y-58595991D01*
X75067595Y-58597568D01*
X75037096Y-58599412D01*
X75010498Y-58601551D01*
X74987038Y-58604013D01*
X74965954Y-58606826D01*
X74946484Y-58610019D01*
X74927865Y-58613620D01*
X74909335Y-58617655D01*
X74890130Y-58622155D01*
X74873573Y-58626316D01*
X74832529Y-58639014D01*
X74798046Y-58654313D01*
X74769546Y-58673305D01*
X74746447Y-58697081D01*
X74728170Y-58726735D01*
X74714135Y-58763358D01*
X74703763Y-58808043D01*
X74696474Y-58861882D01*
X74691688Y-58925967D01*
X74688825Y-59001391D01*
X74688653Y-59008082D01*
X74687563Y-59052196D01*
X74686920Y-59085521D01*
X74686823Y-59109572D01*
X74687366Y-59125858D01*
X74688645Y-59135894D01*
X74690758Y-59141190D01*
X74693799Y-59143259D01*
X74697865Y-59143613D01*
X74701694Y-59143957D01*
X74717370Y-59146971D01*
X74739960Y-59152421D01*
X74765963Y-59159490D01*
X74815494Y-59175758D01*
X74895707Y-59211723D01*
X74968888Y-59256854D01*
X75034600Y-59310189D01*
X75092407Y-59370765D01*
X75141871Y-59437619D01*
X75182556Y-59509788D01*
X75214026Y-59586310D01*
X75235843Y-59666221D01*
X75247571Y-59748560D01*
X75248271Y-59797375D01*
X75248772Y-59832362D01*
G37*
D13*
X62315000Y-95460000D02*
X62740000Y-95460000D01*
X68310000Y-95460000D02*
X68310000Y-97000000D01*
X68735000Y-95460000D02*
X68310000Y-95460000D01*
X62315000Y-92700000D02*
X62315000Y-95460000D01*
X62315000Y-92700000D02*
X62315000Y-89940000D01*
X68735000Y-92700000D02*
X68735000Y-95460000D01*
X68735000Y-92700000D02*
X68735000Y-89940000D01*
X62315000Y-89940000D02*
X62740000Y-89940000D01*
X68735000Y-89940000D02*
X68310000Y-89940000D01*
X56235000Y-96542164D02*
X56235000Y-96757836D01*
X55515000Y-96542164D02*
X55515000Y-96757836D01*
X67200000Y-123750000D02*
G75*
G03*
X65300000Y-123750000I-950000J0D01*
G01*
X65300000Y-123750000D02*
G75*
G03*
X67200000Y-123750000I950000J0D01*
G01*
X60555000Y-96596359D02*
X60555000Y-96903641D01*
X59795000Y-96596359D02*
X59795000Y-96903641D01*
X54215000Y-93145336D02*
X54215000Y-92929664D01*
X54935000Y-93145336D02*
X54935000Y-92929664D01*
X38935000Y-111990000D02*
X38285000Y-111990000D01*
X38935000Y-111990000D02*
X39585000Y-111990000D01*
X38935000Y-115110000D02*
X37260000Y-115110000D01*
X38935000Y-115110000D02*
X39585000Y-115110000D01*
X57695000Y-87653641D02*
X57695000Y-87346359D01*
X58455000Y-87653641D02*
X58455000Y-87346359D01*
X72600000Y-82960000D02*
X72600000Y-77450000D01*
X75900000Y-82960000D02*
X72600000Y-82960000D01*
X75900000Y-82960000D02*
X75900000Y-77450000D01*
X53666359Y-110695000D02*
X53973641Y-110695000D01*
X53666359Y-111455000D02*
X53973641Y-111455000D01*
X78062500Y-124614762D02*
X77462500Y-124614762D01*
X76762500Y-125264762D02*
X76762500Y-128064762D01*
X78762500Y-128064762D02*
X78762500Y-125264762D01*
X77462500Y-128714762D02*
X78062500Y-128714762D01*
X78762500Y-125314762D02*
G75*
G03*
X78062500Y-124614762I-699999J1D01*
G01*
X77462500Y-124614762D02*
G75*
G03*
X76762500Y-125314762I-1J-699999D01*
G01*
X78062500Y-128714762D02*
G75*
G03*
X78762500Y-128014762I0J700000D01*
G01*
X76762500Y-128014762D02*
G75*
G03*
X77462500Y-128714762I700000J0D01*
G01*
X73607836Y-90060000D02*
X73392164Y-90060000D01*
X73607836Y-89340000D02*
X73392164Y-89340000D01*
X53973641Y-112705000D02*
X53666359Y-112705000D01*
X53973641Y-111945000D02*
X53666359Y-111945000D01*
X57335000Y-96542164D02*
X57335000Y-96757836D01*
X56615000Y-96542164D02*
X56615000Y-96757836D01*
X52735000Y-87225000D02*
X52735000Y-86575000D01*
X52735000Y-87225000D02*
X52735000Y-87875000D01*
X49615000Y-87225000D02*
X49615000Y-85550000D01*
X49615000Y-87225000D02*
X49615000Y-87875000D01*
X64353641Y-106105000D02*
X64046359Y-106105000D01*
X64353641Y-105345000D02*
X64046359Y-105345000D01*
X76315000Y-82710000D02*
X76315000Y-78800000D01*
X78185000Y-82710000D02*
X76315000Y-82710000D01*
X78185000Y-78800000D02*
X78185000Y-82710000D01*
X57615000Y-102650000D02*
X57615000Y-103300000D01*
X57615000Y-102650000D02*
X57615000Y-102000000D01*
X60735000Y-102650000D02*
X60735000Y-104325000D01*
X60735000Y-102650000D02*
X60735000Y-102000000D01*
X76060000Y-94100000D02*
X76060000Y-92150000D01*
X76060000Y-94100000D02*
X76060000Y-96050000D01*
X70940000Y-94100000D02*
X70940000Y-90650000D01*
X70940000Y-94100000D02*
X70940000Y-96050000D01*
X49895001Y-93091141D02*
X49895001Y-92783859D01*
X50655001Y-93091141D02*
X50655001Y-92783859D01*
D14*
X75000000Y-84150000D02*
G75*
G03*
X73700000Y-84150000I-650000J0D01*
G01*
X73700000Y-84150000D02*
G75*
G03*
X75000000Y-84150000I650000J0D01*
G01*
D13*
X78860000Y-70600000D02*
X78860000Y-69800000D01*
X78860000Y-70600000D02*
X78860000Y-71400000D01*
X75740000Y-70600000D02*
X75740000Y-68800000D01*
X75740000Y-70600000D02*
X75740000Y-71400000D01*
X55815000Y-94457836D02*
X55815000Y-94242164D01*
X56535000Y-94457836D02*
X56535000Y-94242164D01*
X93940000Y-64490000D02*
X93940000Y-77490000D01*
X84150000Y-64520000D02*
X93940000Y-64490000D01*
X80050000Y-64520000D02*
X84150000Y-64520000D01*
X80050000Y-66870000D02*
X80050000Y-64520000D01*
X80060000Y-74470000D02*
X80690000Y-74470000D01*
X84150000Y-77520000D02*
X93940000Y-77490000D01*
X84150000Y-77520000D02*
X83660000Y-77520000D01*
X83660000Y-77520000D02*
X80060000Y-77520000D01*
X80060000Y-77520000D02*
X80060000Y-74470000D01*
X70235000Y-89459420D02*
X70235000Y-89740580D01*
X69215000Y-89459420D02*
X69215000Y-89740580D01*
X73140000Y-104032836D02*
X73140000Y-103817164D01*
X73860000Y-104032836D02*
X73860000Y-103817164D01*
X66507836Y-107685000D02*
X66292164Y-107685000D01*
X66507836Y-106965000D02*
X66292164Y-106965000D01*
X59121359Y-98470000D02*
X59428641Y-98470000D01*
X59121359Y-99230000D02*
X59428641Y-99230000D01*
X50745000Y-102341141D02*
X50745000Y-102033859D01*
X51505000Y-102341141D02*
X51505000Y-102033859D01*
X50190000Y-97437500D02*
X50190000Y-98937500D01*
X50190000Y-97437500D02*
X50190000Y-95937500D01*
X53410000Y-97437500D02*
X53410000Y-100362500D01*
X53410000Y-97437500D02*
X53410000Y-95937500D01*
X69100000Y-106485000D02*
X71050000Y-106485000D01*
X69100000Y-106485000D02*
X67150000Y-106485000D01*
X69100000Y-101365000D02*
X72550000Y-101365000D01*
X69100000Y-101365000D02*
X67150000Y-101365000D01*
X42877500Y-113796359D02*
X42877500Y-114103641D01*
X42117500Y-113796359D02*
X42117500Y-114103641D01*
X72780001Y-98846359D02*
X72780001Y-99153641D01*
X72020001Y-98846359D02*
X72020001Y-99153641D01*
X72225000Y-75940000D02*
X72225000Y-81450000D01*
X68925000Y-75940000D02*
X72225000Y-75940000D01*
X68925000Y-75940000D02*
X68925000Y-81450000D01*
D14*
X71900000Y-61750000D02*
G75*
G03*
X70600000Y-61750000I-650000J0D01*
G01*
X70600000Y-61750000D02*
G75*
G03*
X71900000Y-61750000I650000J0D01*
G01*
D13*
X44751141Y-115230000D02*
X44443859Y-115230000D01*
X44751141Y-114470000D02*
X44443859Y-114470000D01*
X54635000Y-95229664D02*
X54635000Y-95445336D01*
X53915000Y-95229664D02*
X53915000Y-95445336D01*
X79360000Y-88372164D02*
X79360000Y-88587836D01*
X78640000Y-88372164D02*
X78640000Y-88587836D01*
X60260000Y-92250000D02*
X60260000Y-90750000D01*
X60260000Y-92250000D02*
X60260000Y-93750000D01*
X57040000Y-92250000D02*
X57040000Y-89325000D01*
X57040000Y-92250000D02*
X57040000Y-93750000D01*
M02*
