G04 #@! TF.GenerationSoftware,KiCad,Pcbnew,7.0.10*
G04 #@! TF.CreationDate,2024-01-17T23:47:41+03:00*
G04 #@! TF.ProjectId,BIM_PCB,42494d5f-5043-4422-9e6b-696361645f70,rev?*
G04 #@! TF.SameCoordinates,Original*
G04 #@! TF.FileFunction,Soldermask,Bot*
G04 #@! TF.FilePolarity,Negative*
%FSLAX46Y46*%
G04 Gerber Fmt 4.6, Leading zero omitted, Abs format (unit mm)*
G04 Created by KiCad (PCBNEW 7.0.10) date 2024-01-17 23:47:41*
%MOMM*%
%LPD*%
G01*
G04 APERTURE LIST*
G04 Aperture macros list*
%AMRoundRect*
0 Rectangle with rounded corners*
0 $1 Rounding radius*
0 $2 $3 $4 $5 $6 $7 $8 $9 X,Y pos of 4 corners*
0 Add a 4 corners polygon primitive as box body*
4,1,4,$2,$3,$4,$5,$6,$7,$8,$9,$2,$3,0*
0 Add four circle primitives for the rounded corners*
1,1,$1+$1,$2,$3*
1,1,$1+$1,$4,$5*
1,1,$1+$1,$6,$7*
1,1,$1+$1,$8,$9*
0 Add four rect primitives between the rounded corners*
20,1,$1+$1,$2,$3,$4,$5,0*
20,1,$1+$1,$4,$5,$6,$7,0*
20,1,$1+$1,$6,$7,$8,$9,0*
20,1,$1+$1,$8,$9,$2,$3,0*%
%AMFreePoly0*
4,1,19,0.550000,-0.750000,0.000000,-0.750000,0.000000,-0.744911,-0.071157,-0.744911,-0.207708,-0.704816,-0.327430,-0.627875,-0.420627,-0.520320,-0.479746,-0.390866,-0.500000,-0.250000,-0.500000,0.250000,-0.479746,0.390866,-0.420627,0.520320,-0.327430,0.627875,-0.207708,0.704816,-0.071157,0.744911,0.000000,0.744911,0.000000,0.750000,0.550000,0.750000,0.550000,-0.750000,0.550000,-0.750000,
$1*%
%AMFreePoly1*
4,1,19,0.000000,0.744911,0.071157,0.744911,0.207708,0.704816,0.327430,0.627875,0.420627,0.520320,0.479746,0.390866,0.500000,0.250000,0.500000,-0.250000,0.479746,-0.390866,0.420627,-0.520320,0.327430,-0.627875,0.207708,-0.704816,0.071157,-0.744911,0.000000,-0.744911,0.000000,-0.750000,-0.550000,-0.750000,-0.550000,0.750000,0.000000,0.750000,0.000000,0.744911,0.000000,0.744911,
$1*%
G04 Aperture macros list end*
%ADD10R,1.100000X0.700000*%
%ADD11R,3.330000X0.700000*%
%ADD12R,1.830000X1.140000*%
%ADD13R,0.930000X0.900000*%
%ADD14R,2.800000X0.860000*%
%ADD15R,0.780000X1.050000*%
%ADD16C,1.067000*%
%ADD17C,2.700000*%
%ADD18C,1.800000*%
%ADD19C,4.800000*%
%ADD20RoundRect,0.135000X0.135000X0.185000X-0.135000X0.185000X-0.135000X-0.185000X0.135000X-0.185000X0*%
%ADD21RoundRect,0.135000X-0.185000X0.135000X-0.185000X-0.135000X0.185000X-0.135000X0.185000X0.135000X0*%
%ADD22RoundRect,0.140000X-0.140000X-0.170000X0.140000X-0.170000X0.140000X0.170000X-0.140000X0.170000X0*%
%ADD23C,0.900000*%
%ADD24RoundRect,0.135000X0.185000X-0.135000X0.185000X0.135000X-0.185000X0.135000X-0.185000X-0.135000X0*%
%ADD25FreePoly0,270.000000*%
%ADD26R,1.500000X1.000000*%
%ADD27FreePoly1,270.000000*%
%ADD28RoundRect,0.140000X-0.170000X0.140000X-0.170000X-0.140000X0.170000X-0.140000X0.170000X0.140000X0*%
%ADD29RoundRect,0.140000X0.170000X-0.140000X0.170000X0.140000X-0.170000X0.140000X-0.170000X-0.140000X0*%
%ADD30RoundRect,0.100000X0.712500X0.100000X-0.712500X0.100000X-0.712500X-0.100000X0.712500X-0.100000X0*%
%ADD31RoundRect,0.250000X0.650000X-1.000000X0.650000X1.000000X-0.650000X1.000000X-0.650000X-1.000000X0*%
%ADD32R,5.100000X2.500000*%
%ADD33C,10.200000*%
%ADD34RoundRect,0.125000X0.125000X-0.762500X0.125000X0.762500X-0.125000X0.762500X-0.125000X-0.762500X0*%
%ADD35C,1.500000*%
%ADD36RoundRect,0.150000X-0.587500X-0.150000X0.587500X-0.150000X0.587500X0.150000X-0.587500X0.150000X0*%
%ADD37RoundRect,0.135000X-0.135000X-0.185000X0.135000X-0.185000X0.135000X0.185000X-0.135000X0.185000X0*%
%ADD38RoundRect,0.140000X0.140000X0.170000X-0.140000X0.170000X-0.140000X-0.170000X0.140000X-0.170000X0*%
%ADD39RoundRect,0.150000X-0.150000X0.587500X-0.150000X-0.587500X0.150000X-0.587500X0.150000X0.587500X0*%
%ADD40RoundRect,0.250000X0.425000X-0.450000X0.425000X0.450000X-0.425000X0.450000X-0.425000X-0.450000X0*%
%ADD41RoundRect,0.150000X0.150000X-0.587500X0.150000X0.587500X-0.150000X0.587500X-0.150000X-0.587500X0*%
%ADD42RoundRect,0.150000X-0.150000X0.825000X-0.150000X-0.825000X0.150000X-0.825000X0.150000X0.825000X0*%
%ADD43RoundRect,0.150000X-0.150000X0.512500X-0.150000X-0.512500X0.150000X-0.512500X0.150000X0.512500X0*%
%ADD44R,1.200000X0.900000*%
%ADD45R,1.800000X1.300000*%
%ADD46RoundRect,0.225000X-0.250000X0.225000X-0.250000X-0.225000X0.250000X-0.225000X0.250000X0.225000X0*%
%ADD47RoundRect,0.100000X0.100000X-0.712500X0.100000X0.712500X-0.100000X0.712500X-0.100000X-0.712500X0*%
%ADD48RoundRect,0.150000X0.825000X0.150000X-0.825000X0.150000X-0.825000X-0.150000X0.825000X-0.150000X0*%
%ADD49RoundRect,0.250000X-0.650000X1.000000X-0.650000X-1.000000X0.650000X-1.000000X0.650000X1.000000X0*%
%ADD50RoundRect,0.100000X-0.100000X0.712500X-0.100000X-0.712500X0.100000X-0.712500X0.100000X0.712500X0*%
G04 APERTURE END LIST*
D10*
X92750000Y-93850000D03*
X92750000Y-92750000D03*
X92750000Y-91650000D03*
X92750000Y-90550000D03*
X92750000Y-89450000D03*
X92750000Y-88350000D03*
X92750000Y-87250000D03*
X92750000Y-86150000D03*
D11*
X81485000Y-97950000D03*
D12*
X92735000Y-97730000D03*
D13*
X80285000Y-95640000D03*
D14*
X92250000Y-85070000D03*
D11*
X81485000Y-84990000D03*
D15*
X80210000Y-91375000D03*
D16*
X91629000Y-99650000D03*
X92645000Y-104730000D03*
X90613000Y-104730000D03*
D17*
X83800000Y-128250000D03*
X40600000Y-128000000D03*
X50600000Y-60600000D03*
D18*
X46767500Y-103900000D03*
X46767500Y-101400000D03*
X46767500Y-98900000D03*
X46767500Y-96400000D03*
X46767500Y-93900000D03*
X46767500Y-91400000D03*
X46767500Y-88900000D03*
X46767500Y-86400000D03*
X46767500Y-83900000D03*
X43767500Y-103900000D03*
X43767500Y-101400000D03*
X43767500Y-98900000D03*
X43767500Y-96400000D03*
X43767500Y-93900000D03*
X43767500Y-91400000D03*
X43767500Y-88900000D03*
X43767500Y-86400000D03*
X43767500Y-83900000D03*
D19*
X42267500Y-78400000D03*
X42267500Y-109400000D03*
D20*
X45107500Y-113650000D03*
X44087500Y-113650000D03*
D21*
X59325000Y-86990000D03*
X59325000Y-88010000D03*
D22*
X46475000Y-108050000D03*
X47435000Y-108050000D03*
D23*
X69475000Y-125300000D03*
D21*
X52374999Y-101677500D03*
X52374999Y-102697500D03*
D24*
X71362500Y-127774762D03*
X71362500Y-126754762D03*
D20*
X51685001Y-90837500D03*
X50665001Y-90837500D03*
D25*
X73162500Y-125364762D03*
D26*
X73162500Y-126664762D03*
D27*
X73162500Y-127964762D03*
D20*
X64710000Y-102825000D03*
X63690000Y-102825000D03*
D28*
X76900000Y-96319999D03*
X76900000Y-97279999D03*
D29*
X53475000Y-93517500D03*
X53475000Y-92557500D03*
D30*
X51182500Y-110675000D03*
X51182500Y-111325000D03*
X51182500Y-111975000D03*
X51182500Y-112625000D03*
X46957500Y-112625000D03*
X46957500Y-111975000D03*
X46957500Y-111325000D03*
X46957500Y-110675000D03*
D23*
X68100000Y-87350000D03*
D31*
X66975000Y-81450000D03*
X66975000Y-77450000D03*
D22*
X46490000Y-109175000D03*
X47450000Y-109175000D03*
D21*
X79612500Y-126464762D03*
X79612500Y-127484762D03*
D32*
X87500000Y-107900000D03*
X87500000Y-123100000D03*
D33*
X87500000Y-115500000D03*
D21*
X75300000Y-98490000D03*
X75300000Y-99510000D03*
D28*
X77990000Y-88000000D03*
X77990000Y-88960000D03*
D22*
X46475000Y-107000000D03*
X47435000Y-107000000D03*
D24*
X51475001Y-93447500D03*
X51475001Y-92427500D03*
D21*
X58975000Y-96240000D03*
X58975000Y-97260000D03*
D23*
X62375000Y-86525000D03*
D34*
X67800000Y-96112500D03*
X67150000Y-96112500D03*
X66500000Y-96112500D03*
X65850000Y-96112500D03*
X65200000Y-96112500D03*
X64550000Y-96112500D03*
X63900000Y-96112500D03*
X63250000Y-96112500D03*
X63250000Y-89287500D03*
X63900000Y-89287500D03*
X64550000Y-89287500D03*
X65200000Y-89287500D03*
X65850000Y-89287500D03*
X66500000Y-89287500D03*
X67150000Y-89287500D03*
X67800000Y-89287500D03*
D28*
X55875000Y-96170000D03*
X55875000Y-97130000D03*
D35*
X66250000Y-123750000D03*
D21*
X60175000Y-96240000D03*
X60175000Y-97260000D03*
D29*
X54575000Y-93517500D03*
X54575000Y-92557500D03*
D36*
X37997500Y-114500000D03*
X37997500Y-112600000D03*
X39872500Y-113550000D03*
D24*
X58075000Y-88010000D03*
X58075000Y-86990000D03*
D31*
X74250000Y-81450000D03*
X74250000Y-77450000D03*
D37*
X53310000Y-111075000D03*
X54330000Y-111075000D03*
D25*
X77762500Y-125364762D03*
D26*
X77762500Y-126664762D03*
D27*
X77762500Y-127964762D03*
D38*
X73980000Y-89700000D03*
X73020000Y-89700000D03*
D20*
X54330000Y-112325000D03*
X53310000Y-112325000D03*
D28*
X56975000Y-96170000D03*
X56975000Y-97130000D03*
D39*
X50225000Y-86287500D03*
X52125000Y-86287500D03*
X51175000Y-88162500D03*
D20*
X64710000Y-105725000D03*
X63690000Y-105725000D03*
D40*
X77250000Y-81750000D03*
X77250000Y-79050000D03*
D41*
X60125000Y-103587500D03*
X58225000Y-103587500D03*
X59175000Y-101712500D03*
D42*
X71595000Y-91625000D03*
X72865000Y-91625000D03*
X74135000Y-91625000D03*
X75405000Y-91625000D03*
X75405000Y-96575000D03*
X74135000Y-96575000D03*
X72865000Y-96575000D03*
X71595000Y-96575000D03*
D24*
X50275001Y-93447500D03*
X50275001Y-92427500D03*
D23*
X74350000Y-84150000D03*
D43*
X76350000Y-69462500D03*
X77300000Y-69462500D03*
X78250000Y-69462500D03*
X78250000Y-71737500D03*
X76350000Y-71737500D03*
D29*
X56175000Y-94830000D03*
X56175000Y-93870000D03*
D44*
X80050000Y-67400000D03*
X80050000Y-69940000D03*
X80050000Y-72480000D03*
X80050000Y-68670000D03*
X80050000Y-71210000D03*
X80050000Y-73750000D03*
D45*
X92950000Y-65150000D03*
X84150000Y-65150000D03*
X92940000Y-76870000D03*
X84140000Y-76870000D03*
D46*
X69725000Y-88825000D03*
X69725000Y-90375000D03*
D29*
X73500000Y-104405000D03*
X73500000Y-103445000D03*
D38*
X66880000Y-107325000D03*
X65920000Y-107325000D03*
D37*
X58765000Y-98850000D03*
X59785000Y-98850000D03*
D24*
X51125000Y-102697500D03*
X51125000Y-101677500D03*
D47*
X52775000Y-99550000D03*
X52125000Y-99550000D03*
X51475000Y-99550000D03*
X50825000Y-99550000D03*
X50825000Y-95325000D03*
X51475000Y-95325000D03*
X52125000Y-95325000D03*
X52775000Y-95325000D03*
D48*
X71575000Y-102020000D03*
X71575000Y-103290000D03*
X71575000Y-104560000D03*
X71575000Y-105830000D03*
X66625000Y-105830000D03*
X66625000Y-104560000D03*
X66625000Y-103290000D03*
X66625000Y-102020000D03*
D21*
X42497500Y-113440000D03*
X42497500Y-114460000D03*
X72400001Y-98490000D03*
X72400001Y-99510000D03*
D49*
X70575000Y-77450000D03*
X70575000Y-81450000D03*
D23*
X71250000Y-61750000D03*
D20*
X45107500Y-114850000D03*
X44087500Y-114850000D03*
D28*
X54275000Y-94857500D03*
X54275000Y-95817500D03*
X79000000Y-88000000D03*
X79000000Y-88960000D03*
D50*
X57675000Y-90137500D03*
X58325000Y-90137500D03*
X58975000Y-90137500D03*
X59625000Y-90137500D03*
X59625000Y-94362500D03*
X58975000Y-94362500D03*
X58325000Y-94362500D03*
X57675000Y-94362500D03*
M02*
