G04 #@! TF.GenerationSoftware,KiCad,Pcbnew,7.0.10*
G04 #@! TF.CreationDate,2024-01-17T23:47:41+03:00*
G04 #@! TF.ProjectId,BIM_PCB,42494d5f-5043-4422-9e6b-696361645f70,rev?*
G04 #@! TF.SameCoordinates,Original*
G04 #@! TF.FileFunction,Soldermask,Top*
G04 #@! TF.FilePolarity,Negative*
%FSLAX46Y46*%
G04 Gerber Fmt 4.6, Leading zero omitted, Abs format (unit mm)*
G04 Created by KiCad (PCBNEW 7.0.10) date 2024-01-17 23:47:41*
%MOMM*%
%LPD*%
G01*
G04 APERTURE LIST*
G04 Aperture macros list*
%AMRoundRect*
0 Rectangle with rounded corners*
0 $1 Rounding radius*
0 $2 $3 $4 $5 $6 $7 $8 $9 X,Y pos of 4 corners*
0 Add a 4 corners polygon primitive as box body*
4,1,4,$2,$3,$4,$5,$6,$7,$8,$9,$2,$3,0*
0 Add four circle primitives for the rounded corners*
1,1,$1+$1,$2,$3*
1,1,$1+$1,$4,$5*
1,1,$1+$1,$6,$7*
1,1,$1+$1,$8,$9*
0 Add four rect primitives between the rounded corners*
20,1,$1+$1,$2,$3,$4,$5,0*
20,1,$1+$1,$4,$5,$6,$7,0*
20,1,$1+$1,$6,$7,$8,$9,0*
20,1,$1+$1,$8,$9,$2,$3,0*%
%AMRotRect*
0 Rectangle, with rotation*
0 The origin of the aperture is its center*
0 $1 length*
0 $2 width*
0 $3 Rotation angle, in degrees counterclockwise*
0 Add horizontal line*
21,1,$1,$2,0,0,$3*%
G04 Aperture macros list end*
%ADD10RoundRect,0.150000X0.512500X0.150000X-0.512500X0.150000X-0.512500X-0.150000X0.512500X-0.150000X0*%
%ADD11RoundRect,0.135000X0.185000X-0.135000X0.185000X0.135000X-0.185000X0.135000X-0.185000X-0.135000X0*%
%ADD12RoundRect,0.135000X-0.185000X0.135000X-0.185000X-0.135000X0.185000X-0.135000X0.185000X0.135000X0*%
%ADD13RoundRect,0.140000X-0.170000X0.140000X-0.170000X-0.140000X0.170000X-0.140000X0.170000X0.140000X0*%
%ADD14C,0.900000*%
%ADD15RoundRect,0.140000X0.140000X0.170000X-0.140000X0.170000X-0.140000X-0.170000X0.140000X-0.170000X0*%
%ADD16RoundRect,0.225000X0.375000X-0.225000X0.375000X0.225000X-0.375000X0.225000X-0.375000X-0.225000X0*%
%ADD17RoundRect,0.218750X0.256250X-0.218750X0.256250X0.218750X-0.256250X0.218750X-0.256250X-0.218750X0*%
%ADD18RoundRect,0.150000X0.150000X-0.587500X0.150000X0.587500X-0.150000X0.587500X-0.150000X-0.587500X0*%
%ADD19RoundRect,0.075000X-0.662500X-0.075000X0.662500X-0.075000X0.662500X0.075000X-0.662500X0.075000X0*%
%ADD20RoundRect,0.075000X-0.075000X-0.662500X0.075000X-0.662500X0.075000X0.662500X-0.075000X0.662500X0*%
%ADD21R,1.950000X3.500000*%
%ADD22R,0.800000X3.400000*%
%ADD23R,1.050000X1.000000*%
%ADD24R,2.200000X1.050000*%
%ADD25RoundRect,0.140000X0.170000X-0.140000X0.170000X0.140000X-0.170000X0.140000X-0.170000X-0.140000X0*%
%ADD26RoundRect,0.135000X-0.135000X-0.185000X0.135000X-0.185000X0.135000X0.185000X-0.135000X0.185000X0*%
%ADD27RoundRect,0.135000X0.135000X0.185000X-0.135000X0.185000X-0.135000X-0.185000X0.135000X-0.185000X0*%
%ADD28RoundRect,0.225000X0.225000X0.250000X-0.225000X0.250000X-0.225000X-0.250000X0.225000X-0.250000X0*%
%ADD29RoundRect,0.150000X0.587500X0.150000X-0.587500X0.150000X-0.587500X-0.150000X0.587500X-0.150000X0*%
%ADD30RoundRect,0.140000X-0.140000X-0.170000X0.140000X-0.170000X0.140000X0.170000X-0.140000X0.170000X0*%
%ADD31RoundRect,0.150000X-0.587500X-0.150000X0.587500X-0.150000X0.587500X0.150000X-0.587500X0.150000X0*%
%ADD32R,1.600000X2.500000*%
%ADD33R,3.500000X1.950000*%
%ADD34R,3.400000X0.800000*%
%ADD35RoundRect,0.150000X-0.150000X0.587500X-0.150000X-0.587500X0.150000X-0.587500X0.150000X0.587500X0*%
%ADD36RoundRect,0.218750X0.218750X0.256250X-0.218750X0.256250X-0.218750X-0.256250X0.218750X-0.256250X0*%
%ADD37R,1.000000X1.800000*%
%ADD38C,1.067000*%
%ADD39C,0.787000*%
%ADD40RoundRect,0.147500X-0.172500X0.147500X-0.172500X-0.147500X0.172500X-0.147500X0.172500X0.147500X0*%
%ADD41R,0.400000X0.650000*%
%ADD42RoundRect,0.225000X-0.225000X-0.250000X0.225000X-0.250000X0.225000X0.250000X-0.225000X0.250000X0*%
%ADD43RoundRect,0.087500X0.087500X-0.412500X0.087500X0.412500X-0.087500X0.412500X-0.087500X-0.412500X0*%
%ADD44R,3.100000X2.200000*%
%ADD45RoundRect,0.218750X-0.218750X-0.256250X0.218750X-0.256250X0.218750X0.256250X-0.218750X0.256250X0*%
%ADD46C,2.700000*%
%ADD47RoundRect,0.200000X0.200000X0.275000X-0.200000X0.275000X-0.200000X-0.275000X0.200000X-0.275000X0*%
%ADD48RoundRect,0.140000X-0.219203X-0.021213X-0.021213X-0.219203X0.219203X0.021213X0.021213X0.219203X0*%
%ADD49RoundRect,0.140000X0.021213X-0.219203X0.219203X-0.021213X-0.021213X0.219203X-0.219203X0.021213X0*%
%ADD50R,0.650000X1.050000*%
%ADD51R,0.800000X1.800000*%
%ADD52R,1.800000X0.800000*%
%ADD53R,3.048000X3.048000*%
%ADD54R,1.524000X1.500000*%
%ADD55RoundRect,0.237500X-0.237500X0.287500X-0.237500X-0.287500X0.237500X-0.287500X0.237500X0.287500X0*%
%ADD56RoundRect,0.150000X-0.512500X-0.150000X0.512500X-0.150000X0.512500X0.150000X-0.512500X0.150000X0*%
%ADD57C,1.800000*%
%ADD58C,4.800000*%
%ADD59RotRect,1.400000X1.200000X45.000000*%
%ADD60RoundRect,0.150000X-0.650000X-0.150000X0.650000X-0.150000X0.650000X0.150000X-0.650000X0.150000X0*%
G04 APERTURE END LIST*
D10*
X59137500Y-128650000D03*
X59137500Y-127700000D03*
X59137500Y-126750000D03*
X56862500Y-126750000D03*
X56862500Y-128650000D03*
D11*
X89375000Y-119560000D03*
X89375000Y-118540000D03*
D12*
X57300000Y-84990000D03*
X57300000Y-86010000D03*
D13*
X79550000Y-99250000D03*
X79550000Y-100210000D03*
D14*
X78800000Y-107800000D03*
D15*
X61000000Y-65000000D03*
X60040000Y-65000000D03*
D16*
X37500000Y-114500000D03*
X37500000Y-117800000D03*
D14*
X88500000Y-110500000D03*
D17*
X74000000Y-60787500D03*
X74000000Y-59212500D03*
D18*
X74550000Y-98112500D03*
X76450000Y-98112500D03*
X75500000Y-96237500D03*
D19*
X74200000Y-115100000D03*
X74200000Y-115600000D03*
X74200000Y-116100000D03*
X74200000Y-116600000D03*
X74200000Y-117100000D03*
X74200000Y-117600000D03*
X74200000Y-118100000D03*
X74200000Y-118600000D03*
X74200000Y-119100000D03*
X74200000Y-119600000D03*
X74200000Y-120100000D03*
X74200000Y-120600000D03*
D20*
X75612500Y-122012500D03*
X76112500Y-122012500D03*
X76612500Y-122012500D03*
X77112500Y-122012500D03*
X77612500Y-122012500D03*
X78112500Y-122012500D03*
X78612500Y-122012500D03*
X79112500Y-122012500D03*
X79612500Y-122012500D03*
X80112500Y-122012500D03*
X80612500Y-122012500D03*
X81112500Y-122012500D03*
D19*
X82525000Y-120600000D03*
X82525000Y-120100000D03*
X82525000Y-119600000D03*
X82525000Y-119100000D03*
X82525000Y-118600000D03*
X82525000Y-118100000D03*
X82525000Y-117600000D03*
X82525000Y-117100000D03*
X82525000Y-116600000D03*
X82525000Y-116100000D03*
X82525000Y-115600000D03*
X82525000Y-115100000D03*
D20*
X81112500Y-113687500D03*
X80612500Y-113687500D03*
X80112500Y-113687500D03*
X79612500Y-113687500D03*
X79112500Y-113687500D03*
X78612500Y-113687500D03*
X78112500Y-113687500D03*
X77612500Y-113687500D03*
X77112500Y-113687500D03*
X76612500Y-113687500D03*
X76112500Y-113687500D03*
X75612500Y-113687500D03*
D21*
X44525000Y-120750000D03*
X40475000Y-120750000D03*
D22*
X42500000Y-120750000D03*
D11*
X74200000Y-107810000D03*
X74200000Y-106790000D03*
D23*
X88950000Y-60740000D03*
D24*
X90475000Y-59265000D03*
X90475000Y-62215000D03*
D12*
X90200000Y-71840000D03*
X90200000Y-72860000D03*
D25*
X90575000Y-119530000D03*
X90575000Y-118570000D03*
D11*
X68900000Y-87510000D03*
X68900000Y-86490000D03*
D26*
X61665000Y-113325000D03*
X62685000Y-113325000D03*
D27*
X61010000Y-66200000D03*
X59990000Y-66200000D03*
D14*
X57200000Y-113725000D03*
D28*
X60555000Y-118270000D03*
X59005000Y-118270000D03*
D15*
X70455000Y-90025000D03*
X69495000Y-90025000D03*
D11*
X67700000Y-87510000D03*
X67700000Y-86490000D03*
D29*
X60137500Y-81150000D03*
X60137500Y-79250000D03*
X58262500Y-80200000D03*
D14*
X86800000Y-119100000D03*
D27*
X54385000Y-111575000D03*
X53365000Y-111575000D03*
X75630000Y-94650000D03*
X74610000Y-94650000D03*
D16*
X50100000Y-101687500D03*
X50100000Y-98387500D03*
D14*
X70500000Y-61750000D03*
D30*
X71320000Y-110300000D03*
X72280000Y-110300000D03*
D31*
X49562500Y-124050000D03*
X49562500Y-125950000D03*
X51437500Y-125000000D03*
D26*
X53380000Y-127825000D03*
X54400000Y-127825000D03*
D15*
X70080000Y-110300000D03*
X69120000Y-110300000D03*
D32*
X61580000Y-126770000D03*
X65980000Y-126770000D03*
D33*
X53625000Y-95075000D03*
X53625000Y-91025000D03*
D34*
X53625000Y-93050000D03*
D35*
X60500000Y-85700000D03*
X58600000Y-85700000D03*
X59550000Y-87575000D03*
D26*
X49900000Y-83700000D03*
X50920000Y-83700000D03*
D11*
X57300000Y-88100000D03*
X57300000Y-87080000D03*
D27*
X52385000Y-111575000D03*
X51365000Y-111575000D03*
D11*
X55200000Y-80610000D03*
X55200000Y-79590000D03*
D25*
X66300000Y-94505000D03*
X66300000Y-93545000D03*
D17*
X78500000Y-60787500D03*
X78500000Y-59212500D03*
D29*
X88600000Y-74050000D03*
X88600000Y-72150000D03*
X86725000Y-73100000D03*
D13*
X88600000Y-101340000D03*
X88600000Y-102300000D03*
D29*
X52300000Y-86900000D03*
X52300000Y-85000000D03*
X50425000Y-85950000D03*
D11*
X72500000Y-87510000D03*
X72500000Y-86490000D03*
X72600000Y-61097500D03*
X72600000Y-60077500D03*
D15*
X62760000Y-114475000D03*
X61800000Y-114475000D03*
D13*
X83750000Y-99330000D03*
X83750000Y-100290000D03*
D26*
X74600000Y-93550000D03*
X75620000Y-93550000D03*
D11*
X91775000Y-119560000D03*
X91775000Y-118540000D03*
D36*
X93087500Y-95040000D03*
X91512500Y-95040000D03*
D11*
X54100000Y-86410000D03*
X54100000Y-85390000D03*
D25*
X75500000Y-107780000D03*
X75500000Y-106820000D03*
D27*
X89385000Y-78425000D03*
X88365000Y-78425000D03*
D37*
X91625000Y-127250000D03*
X89125000Y-127250000D03*
D38*
X91629000Y-99650000D03*
X92645000Y-104730000D03*
X90613000Y-104730000D03*
D39*
X90994000Y-100920000D03*
X92264000Y-100920000D03*
X90994000Y-102190000D03*
X92264000Y-102190000D03*
X90994000Y-103460000D03*
X92264000Y-103460000D03*
D27*
X60847500Y-77950000D03*
X59827500Y-77950000D03*
D28*
X60555000Y-121470000D03*
X59005000Y-121470000D03*
D29*
X53400000Y-81100000D03*
X53400000Y-79200000D03*
X51525000Y-80150000D03*
D30*
X57185000Y-111700000D03*
X58145000Y-111700000D03*
D27*
X92450000Y-96500000D03*
X91430000Y-96500000D03*
D40*
X85725000Y-59780000D03*
X85725000Y-60750000D03*
D33*
X53850000Y-103337500D03*
X53850000Y-99287500D03*
D34*
X53850000Y-101312500D03*
D16*
X37500000Y-122800000D03*
X37500000Y-119500000D03*
D11*
X91800000Y-116510000D03*
X91800000Y-115490000D03*
D16*
X62225000Y-93525000D03*
X62225000Y-90225000D03*
X49925000Y-93562502D03*
X49925000Y-90262502D03*
D11*
X73700000Y-87510000D03*
X73700000Y-86490000D03*
D25*
X73800000Y-113660000D03*
X73800000Y-112700000D03*
D15*
X70455000Y-91100000D03*
X69495000Y-91100000D03*
D14*
X62500000Y-60000000D03*
D41*
X84900000Y-96150000D03*
X84250000Y-96150000D03*
X83600000Y-96150000D03*
X83600000Y-98050000D03*
X84250000Y-98050000D03*
X84900000Y-98050000D03*
D28*
X60555000Y-119870000D03*
X59005000Y-119870000D03*
D27*
X53010000Y-83700000D03*
X51990000Y-83700000D03*
D26*
X51000000Y-77900000D03*
X52020000Y-77900000D03*
D15*
X60980000Y-68400000D03*
X60020000Y-68400000D03*
D16*
X47400000Y-126050000D03*
X47400000Y-122750000D03*
D11*
X61750000Y-80660000D03*
X61750000Y-79640000D03*
X77025000Y-60972500D03*
X77025000Y-59952500D03*
D42*
X55705000Y-125000000D03*
X57255000Y-125000000D03*
D11*
X71300000Y-87510000D03*
X71300000Y-86490000D03*
D43*
X90200000Y-124975000D03*
X91000000Y-124975000D03*
X91800000Y-124975000D03*
X92600000Y-124975000D03*
X92600000Y-121225000D03*
X91800000Y-121225000D03*
X91000000Y-121225000D03*
X90200000Y-121225000D03*
D44*
X91400000Y-123100000D03*
D25*
X66495000Y-62505000D03*
X66495000Y-61545000D03*
D40*
X86750000Y-59770000D03*
X86750000Y-60740000D03*
D16*
X63400000Y-101587500D03*
X63400000Y-98287500D03*
D42*
X55705000Y-121070000D03*
X57255000Y-121070000D03*
D11*
X49385000Y-115985000D03*
X49385000Y-114965000D03*
D23*
X53525000Y-70800000D03*
D24*
X52000000Y-72275000D03*
X52000000Y-69325000D03*
D30*
X84232500Y-115112500D03*
X85192500Y-115112500D03*
D12*
X65245000Y-61505000D03*
X65245000Y-62525000D03*
D30*
X82332500Y-122312500D03*
X83292500Y-122312500D03*
D45*
X70212500Y-122300000D03*
X71787500Y-122300000D03*
D27*
X60010000Y-83900000D03*
X58990000Y-83900000D03*
D26*
X57737500Y-77950000D03*
X58757500Y-77950000D03*
D46*
X83800000Y-128250000D03*
D47*
X54625000Y-129150000D03*
X52975000Y-129150000D03*
D14*
X45700000Y-128900000D03*
D48*
X65860589Y-119330589D03*
X66539411Y-120009411D03*
D11*
X70100000Y-87510000D03*
X70100000Y-86490000D03*
D46*
X40600000Y-128000000D03*
D37*
X69550000Y-112100000D03*
X72050000Y-112100000D03*
D25*
X65200000Y-94505000D03*
X65200000Y-93545000D03*
D49*
X66060589Y-115639411D03*
X66739411Y-114960589D03*
D13*
X77850000Y-86100000D03*
X77850000Y-87060000D03*
D26*
X88090000Y-75350000D03*
X89110000Y-75350000D03*
D50*
X61350000Y-111960000D03*
X61350000Y-107810000D03*
X63500000Y-111960000D03*
X63500000Y-107810000D03*
D33*
X59700000Y-103337500D03*
X59700000Y-99287500D03*
D34*
X59700000Y-101312500D03*
D42*
X55705000Y-122670000D03*
X57255000Y-122670000D03*
D14*
X68000000Y-60000000D03*
D51*
X65300000Y-83800000D03*
X66500000Y-83800000D03*
X67700000Y-83800000D03*
X68900000Y-83800000D03*
X70100000Y-83800000D03*
X71300000Y-83800000D03*
X72500000Y-83800000D03*
X73700000Y-83800000D03*
X74900000Y-83800000D03*
X76100000Y-83800000D03*
X77300000Y-83800000D03*
X78500000Y-83800000D03*
X79700000Y-83800000D03*
X80900000Y-83800000D03*
D52*
X82700000Y-81600000D03*
X82700000Y-80400000D03*
X82700000Y-79200000D03*
X82700000Y-78000000D03*
X82700000Y-76800000D03*
X82700000Y-75600000D03*
X82700000Y-74400000D03*
X82700000Y-73200000D03*
X82700000Y-72000000D03*
X82700000Y-70800000D03*
X82700000Y-69600000D03*
X82700000Y-68400000D03*
X82700000Y-67200000D03*
D51*
X80900000Y-65000000D03*
X79700000Y-65000000D03*
X78500000Y-65000000D03*
X77300000Y-65000000D03*
X76100000Y-65000000D03*
X74900000Y-65000000D03*
X73700000Y-65000000D03*
X72500000Y-65000000D03*
X71300000Y-65000000D03*
X70100000Y-65000000D03*
X68900000Y-65000000D03*
X67700000Y-65000000D03*
X66500000Y-65000000D03*
X65300000Y-65000000D03*
D52*
X63500000Y-67200000D03*
X63500000Y-68400000D03*
X63500000Y-69600000D03*
X63500000Y-70800000D03*
X63500000Y-72000000D03*
X63500000Y-73200000D03*
X63500000Y-74400000D03*
X63500000Y-75600000D03*
X63500000Y-76800000D03*
X63500000Y-78000000D03*
X63500000Y-79200000D03*
X63500000Y-80400000D03*
X63500000Y-81600000D03*
D53*
X68250000Y-78600006D03*
D54*
X74600000Y-76300000D03*
D11*
X67545000Y-62535000D03*
X67545000Y-61515000D03*
D15*
X72592500Y-119112500D03*
X71632500Y-119112500D03*
D13*
X67962500Y-127450000D03*
X67962500Y-128410000D03*
X76775000Y-86100000D03*
X76775000Y-87060000D03*
D21*
X44750000Y-115900000D03*
X40700000Y-115900000D03*
D22*
X42725000Y-115900000D03*
D25*
X75600000Y-111980000D03*
X75600000Y-111020000D03*
D12*
X64975000Y-86515000D03*
X64975000Y-87535000D03*
D33*
X58625000Y-95100000D03*
X58625000Y-91050000D03*
D34*
X58625000Y-93075000D03*
D46*
X50600000Y-60600000D03*
D11*
X50585000Y-115985000D03*
X50585000Y-114965000D03*
D18*
X52035000Y-115350000D03*
X53935000Y-115350000D03*
X52985000Y-113475000D03*
D13*
X78900000Y-86100000D03*
X78900000Y-87060000D03*
D55*
X44500000Y-124500000D03*
X44500000Y-126250000D03*
D56*
X67787500Y-92425000D03*
X67787500Y-94325000D03*
X70062500Y-93375000D03*
D26*
X88367500Y-77115000D03*
X89387500Y-77115000D03*
D57*
X46767500Y-103900000D03*
X46767500Y-101400000D03*
X46767500Y-98900000D03*
X46767500Y-96400000D03*
X46767500Y-93900000D03*
X46767500Y-91400000D03*
X46767500Y-88900000D03*
X46767500Y-86400000D03*
X46767500Y-83900000D03*
X43767500Y-103900000D03*
X43767500Y-101400000D03*
X43767500Y-98900000D03*
X43767500Y-96400000D03*
X43767500Y-93900000D03*
X43767500Y-91400000D03*
X43767500Y-88900000D03*
X43767500Y-86400000D03*
X43767500Y-83900000D03*
D58*
X42267500Y-78400000D03*
X42267500Y-109400000D03*
D27*
X76760000Y-99650000D03*
X75740000Y-99650000D03*
D41*
X79550000Y-96100000D03*
X78900000Y-96100000D03*
X78250000Y-96100000D03*
X78250000Y-98000000D03*
X78900000Y-98000000D03*
X79550000Y-98000000D03*
D25*
X64195000Y-62495000D03*
X64195000Y-61535000D03*
D12*
X71337500Y-116852500D03*
X71337500Y-117872500D03*
D59*
X67623223Y-118678858D03*
X69178858Y-117123223D03*
X67976777Y-115921142D03*
X66421142Y-117476777D03*
D30*
X53440000Y-126700000D03*
X54400000Y-126700000D03*
D28*
X60555000Y-123070000D03*
X59005000Y-123070000D03*
D14*
X93025000Y-76250000D03*
D18*
X52035000Y-109912500D03*
X53935000Y-109912500D03*
X52985000Y-108037500D03*
D26*
X46590000Y-119675000D03*
X47610000Y-119675000D03*
D11*
X93400000Y-116510000D03*
X93400000Y-115490000D03*
D27*
X54110000Y-77900000D03*
X53090000Y-77900000D03*
D12*
X66175000Y-86515000D03*
X66175000Y-87535000D03*
D60*
X69562500Y-124745000D03*
X69562500Y-126015000D03*
X69562500Y-127285000D03*
X69562500Y-128555000D03*
X76762500Y-128555000D03*
X76762500Y-127285000D03*
X76762500Y-126015000D03*
X76762500Y-124745000D03*
D11*
X73250000Y-98735000D03*
X73250000Y-97715000D03*
D14*
X67700000Y-111000000D03*
D26*
X57155000Y-110500000D03*
X58175000Y-110500000D03*
M02*
