%TF.GenerationSoftware,KiCad,Pcbnew,7.0.2*%
%TF.CreationDate,2023-12-12T15:06:56+03:00*%
%TF.ProjectId,BIM_PCB,42494d5f-5043-4422-9e6b-696361645f70,rev?*%
%TF.SameCoordinates,Original*%
%TF.FileFunction,Soldermask,Bot*%
%TF.FilePolarity,Negative*%
%FSLAX46Y46*%
G04 Gerber Fmt 4.6, Leading zero omitted, Abs format (unit mm)*
G04 Created by KiCad (PCBNEW 7.0.2) date 2023-12-12 15:06:56*
%MOMM*%
%LPD*%
G01*
G04 APERTURE LIST*
G04 Aperture macros list*
%AMRoundRect*
0 Rectangle with rounded corners*
0 $1 Rounding radius*
0 $2 $3 $4 $5 $6 $7 $8 $9 X,Y pos of 4 corners*
0 Add a 4 corners polygon primitive as box body*
4,1,4,$2,$3,$4,$5,$6,$7,$8,$9,$2,$3,0*
0 Add four circle primitives for the rounded corners*
1,1,$1+$1,$2,$3*
1,1,$1+$1,$4,$5*
1,1,$1+$1,$6,$7*
1,1,$1+$1,$8,$9*
0 Add four rect primitives between the rounded corners*
20,1,$1+$1,$2,$3,$4,$5,0*
20,1,$1+$1,$4,$5,$6,$7,0*
20,1,$1+$1,$6,$7,$8,$9,0*
20,1,$1+$1,$8,$9,$2,$3,0*%
%AMFreePoly0*
4,1,19,0.550000,-0.750000,0.000000,-0.750000,0.000000,-0.744911,-0.071157,-0.744911,-0.207708,-0.704816,-0.327430,-0.627875,-0.420627,-0.520320,-0.479746,-0.390866,-0.500000,-0.250000,-0.500000,0.250000,-0.479746,0.390866,-0.420627,0.520320,-0.327430,0.627875,-0.207708,0.704816,-0.071157,0.744911,0.000000,0.744911,0.000000,0.750000,0.550000,0.750000,0.550000,-0.750000,0.550000,-0.750000,
$1*%
%AMFreePoly1*
4,1,19,0.000000,0.744911,0.071157,0.744911,0.207708,0.704816,0.327430,0.627875,0.420627,0.520320,0.479746,0.390866,0.500000,0.250000,0.500000,-0.250000,0.479746,-0.390866,0.420627,-0.520320,0.327430,-0.627875,0.207708,-0.704816,0.071157,-0.744911,0.000000,-0.744911,0.000000,-0.750000,-0.550000,-0.750000,-0.550000,0.750000,0.000000,0.750000,0.000000,0.744911,0.000000,0.744911,
$1*%
G04 Aperture macros list end*
%ADD10RoundRect,0.140000X-0.140000X-0.170000X0.140000X-0.170000X0.140000X0.170000X-0.140000X0.170000X0*%
%ADD11C,1.700000*%
%ADD12RoundRect,0.250000X0.600000X0.600000X-0.600000X0.600000X-0.600000X-0.600000X0.600000X-0.600000X0*%
%ADD13C,1.067000*%
%ADD14R,0.650000X0.400000*%
%ADD15C,2.700000*%
%ADD16RoundRect,0.135000X-0.135000X-0.185000X0.135000X-0.185000X0.135000X0.185000X-0.135000X0.185000X0*%
%ADD17RoundRect,0.250000X1.025000X-0.787500X1.025000X0.787500X-1.025000X0.787500X-1.025000X-0.787500X0*%
%ADD18RoundRect,0.150000X-0.150000X0.512500X-0.150000X-0.512500X0.150000X-0.512500X0.150000X0.512500X0*%
%ADD19RoundRect,0.135000X0.135000X0.185000X-0.135000X0.185000X-0.135000X-0.185000X0.135000X-0.185000X0*%
%ADD20C,0.900000*%
%ADD21RoundRect,0.135000X0.185000X-0.135000X0.185000X0.135000X-0.185000X0.135000X-0.185000X-0.135000X0*%
%ADD22RoundRect,0.135000X-0.185000X0.135000X-0.185000X-0.135000X0.185000X-0.135000X0.185000X0.135000X0*%
%ADD23FreePoly0,270.000000*%
%ADD24R,1.500000X1.000000*%
%ADD25FreePoly1,270.000000*%
%ADD26RoundRect,0.140000X0.140000X0.170000X-0.140000X0.170000X-0.140000X-0.170000X0.140000X-0.170000X0*%
%ADD27RoundRect,0.100000X-0.712500X-0.100000X0.712500X-0.100000X0.712500X0.100000X-0.712500X0.100000X0*%
%ADD28RoundRect,0.250000X0.650000X-1.000000X0.650000X1.000000X-0.650000X1.000000X-0.650000X-1.000000X0*%
%ADD29R,5.100000X2.500000*%
%ADD30C,10.200000*%
%ADD31RoundRect,0.125000X-0.762500X-0.125000X0.762500X-0.125000X0.762500X0.125000X-0.762500X0.125000X0*%
%ADD32C,1.500000*%
%ADD33RoundRect,0.150000X0.587500X0.150000X-0.587500X0.150000X-0.587500X-0.150000X0.587500X-0.150000X0*%
%ADD34RoundRect,0.250000X1.000000X0.650000X-1.000000X0.650000X-1.000000X-0.650000X1.000000X-0.650000X0*%
%ADD35RoundRect,0.140000X-0.170000X0.140000X-0.170000X-0.140000X0.170000X-0.140000X0.170000X0.140000X0*%
%ADD36RoundRect,0.140000X0.170000X-0.140000X0.170000X0.140000X-0.170000X0.140000X-0.170000X-0.140000X0*%
%ADD37RoundRect,0.150000X-0.587500X-0.150000X0.587500X-0.150000X0.587500X0.150000X-0.587500X0.150000X0*%
%ADD38RoundRect,0.150000X0.825000X0.150000X-0.825000X0.150000X-0.825000X-0.150000X0.825000X-0.150000X0*%
%ADD39RoundRect,0.225000X0.225000X0.250000X-0.225000X0.250000X-0.225000X-0.250000X0.225000X-0.250000X0*%
%ADD40RoundRect,0.100000X0.712500X0.100000X-0.712500X0.100000X-0.712500X-0.100000X0.712500X-0.100000X0*%
%ADD41R,1.200000X0.900000*%
%ADD42R,1.800000X1.300000*%
%ADD43RoundRect,0.250000X-0.650000X1.000000X-0.650000X-1.000000X0.650000X-1.000000X0.650000X1.000000X0*%
G04 APERTURE END LIST*
D10*
%TO.C,C34*%
X62130000Y-88650000D03*
X63090000Y-88650000D03*
%TD*%
%TO.C,C33*%
X62050000Y-84650000D03*
X63010000Y-84650000D03*
%TD*%
D11*
%TO.C,J4*%
X32435000Y-104100000D03*
X32435000Y-99100000D03*
D12*
X42115000Y-104100000D03*
D11*
X42115000Y-101600000D03*
X42115000Y-99100000D03*
X39615000Y-104100000D03*
X39615000Y-101600000D03*
X39615000Y-99100000D03*
%TD*%
D13*
%TO.C,J3*%
X91629000Y-99650000D03*
X92645000Y-104730000D03*
X90613000Y-104730000D03*
%TD*%
D14*
%TO.C,U14*%
X58950000Y-89350000D03*
X58950000Y-88700000D03*
X58950000Y-88050000D03*
X60850000Y-88050000D03*
X60850000Y-88700000D03*
X60850000Y-89350000D03*
%TD*%
D15*
%TO.C,H3*%
X83800000Y-128250000D03*
%TD*%
%TO.C,H4*%
X40600000Y-128000000D03*
%TD*%
D11*
%TO.C,J2*%
X32335000Y-120200000D03*
X32335000Y-115200000D03*
D12*
X42015000Y-120200000D03*
D11*
X42015000Y-117700000D03*
X42015000Y-115200000D03*
X39515000Y-120200000D03*
X39515000Y-117700000D03*
X39515000Y-115200000D03*
%TD*%
D15*
%TO.C,H2*%
X50600000Y-60600000D03*
%TD*%
D11*
%TO.C,J1*%
X32235000Y-87450000D03*
X32235000Y-84950000D03*
D12*
X41915000Y-87450000D03*
D11*
X41915000Y-84950000D03*
X39415000Y-87450000D03*
X39415000Y-84950000D03*
%TD*%
D14*
%TO.C,U7*%
X58900000Y-85300000D03*
X58900000Y-84650000D03*
X58900000Y-84000000D03*
X60800000Y-84000000D03*
X60800000Y-84650000D03*
X60800000Y-85300000D03*
%TD*%
D11*
%TO.C,J6*%
X32335000Y-73250000D03*
X32335000Y-70750000D03*
D12*
X42015000Y-73250000D03*
D11*
X42015000Y-70750000D03*
X39515000Y-73250000D03*
X39515000Y-70750000D03*
%TD*%
D16*
%TO.C,R64*%
X48927500Y-107300000D03*
X49947500Y-107300000D03*
%TD*%
D17*
%TO.C,C20*%
X75200000Y-65712500D03*
X75200000Y-59487500D03*
%TD*%
D18*
%TO.C,D6*%
X75750000Y-81862500D03*
X76700000Y-81862500D03*
X77650000Y-81862500D03*
X77650000Y-84137500D03*
X75750000Y-84137500D03*
%TD*%
D19*
%TO.C,R58*%
X55760000Y-93950000D03*
X54740000Y-93950000D03*
%TD*%
D10*
%TO.C,C50*%
X48857500Y-109300000D03*
X49817500Y-109300000D03*
%TD*%
D20*
%TO.C,TP7*%
X69475000Y-125300000D03*
%TD*%
D16*
%TO.C,R31*%
X53352500Y-79100001D03*
X54372500Y-79100001D03*
%TD*%
D21*
%TO.C,R3*%
X71362500Y-127774762D03*
X71362500Y-126754762D03*
%TD*%
D22*
%TO.C,R38*%
X42512500Y-79789999D03*
X42512500Y-80809999D03*
%TD*%
D23*
%TO.C,JP1*%
X73162500Y-125364762D03*
D24*
X73162500Y-126664762D03*
D25*
X73162500Y-127964762D03*
%TD*%
D19*
%TO.C,R44*%
X46910000Y-84700000D03*
X45890000Y-84700000D03*
%TD*%
D26*
%TO.C,C44*%
X48680001Y-103900000D03*
X47720001Y-103900000D03*
%TD*%
%TO.C,C31*%
X45192500Y-78000000D03*
X44232500Y-78000000D03*
%TD*%
D27*
%TO.C,U19*%
X42825000Y-108600000D03*
X42825000Y-107950000D03*
X42825000Y-107300000D03*
X42825000Y-106650000D03*
X47050000Y-106650000D03*
X47050000Y-107300000D03*
X47050000Y-107950000D03*
X47050000Y-108600000D03*
%TD*%
D20*
%TO.C,SIM_I2C_SCL1*%
X83000000Y-93200000D03*
%TD*%
D28*
%TO.C,D10*%
X64000000Y-78582500D03*
X64000000Y-74582500D03*
%TD*%
D26*
%TO.C,C51*%
X47517500Y-110100000D03*
X46557500Y-110100000D03*
%TD*%
D22*
%TO.C,R4*%
X79612500Y-126464762D03*
X79612500Y-127484762D03*
%TD*%
D29*
%TO.C,BT1*%
X87500000Y-107900000D03*
X87500000Y-123100000D03*
D30*
X87500000Y-115500000D03*
%TD*%
D19*
%TO.C,R59*%
X46510000Y-102300000D03*
X45490000Y-102300000D03*
%TD*%
D10*
%TO.C,C49*%
X48857500Y-110400000D03*
X49817500Y-110400000D03*
%TD*%
D19*
%TO.C,R39*%
X45122500Y-79999999D03*
X44102500Y-79999999D03*
%TD*%
%TO.C,R12*%
X46510000Y-93600000D03*
X45490000Y-93600000D03*
%TD*%
D20*
%TO.C,SIM_I2C_SDA1*%
X86000000Y-93100000D03*
%TD*%
D31*
%TO.C,U15*%
X59875000Y-96950000D03*
X59875000Y-96300000D03*
X59875000Y-95650000D03*
X59875000Y-95000000D03*
X59875000Y-94350000D03*
X59875000Y-93700000D03*
X59875000Y-93050000D03*
X59875000Y-92400000D03*
X66700000Y-92400000D03*
X66700000Y-93050000D03*
X66700000Y-93700000D03*
X66700000Y-94350000D03*
X66700000Y-95000000D03*
X66700000Y-95650000D03*
X66700000Y-96300000D03*
X66700000Y-96950000D03*
%TD*%
D26*
%TO.C,C24*%
X46580000Y-90500000D03*
X45620000Y-90500000D03*
%TD*%
D32*
%TO.C,TP9*%
X63800000Y-124200000D03*
%TD*%
D19*
%TO.C,R10*%
X46510000Y-94800000D03*
X45490000Y-94800000D03*
%TD*%
D26*
%TO.C,C30*%
X45192500Y-76900000D03*
X44232500Y-76900000D03*
%TD*%
D33*
%TO.C,D18*%
X56037500Y-106450000D03*
X56037500Y-108350000D03*
X54162500Y-107400000D03*
%TD*%
D16*
%TO.C,R9*%
X54740000Y-92700000D03*
X55760000Y-92700000D03*
%TD*%
D34*
%TO.C,D12*%
X71400000Y-71000000D03*
X67400000Y-71000000D03*
%TD*%
D19*
%TO.C,R61*%
X40697500Y-108200000D03*
X39677500Y-108200000D03*
%TD*%
D23*
%TO.C,JP2*%
X77762500Y-125364762D03*
D24*
X77762500Y-126664762D03*
D25*
X77762500Y-127964762D03*
%TD*%
D35*
%TO.C,C18*%
X75200000Y-69020000D03*
X75200000Y-69980000D03*
%TD*%
D36*
%TO.C,C43*%
X55300000Y-100980000D03*
X55300000Y-100020000D03*
%TD*%
D16*
%TO.C,R65*%
X39677500Y-106950000D03*
X40697500Y-106950000D03*
%TD*%
D26*
%TO.C,C25*%
X46580000Y-91600000D03*
X45620000Y-91600000D03*
%TD*%
D37*
%TO.C,D9*%
X37962500Y-81250000D03*
X37962500Y-79350000D03*
X39837500Y-80300000D03*
%TD*%
D19*
%TO.C,R43*%
X46910000Y-87600000D03*
X45890000Y-87600000D03*
%TD*%
D37*
%TO.C,D15*%
X39162500Y-94750000D03*
X39162500Y-92850000D03*
X41037500Y-93800000D03*
%TD*%
D38*
%TO.C,U13*%
X53375000Y-98595000D03*
X53375000Y-99865000D03*
X53375000Y-101135000D03*
X53375000Y-102405000D03*
X48425000Y-102405000D03*
X48425000Y-101135000D03*
X48425000Y-99865000D03*
X48425000Y-98595000D03*
%TD*%
D19*
%TO.C,R37*%
X45122500Y-81199999D03*
X44102500Y-81199999D03*
%TD*%
D20*
%TO.C,SIM_PWR1*%
X72600000Y-74400000D03*
%TD*%
D36*
%TO.C,C26*%
X77600000Y-76630000D03*
X77600000Y-75670000D03*
%TD*%
D35*
%TO.C,C17*%
X74000000Y-69020000D03*
X74000000Y-69980000D03*
%TD*%
D10*
%TO.C,C42*%
X47920000Y-90800000D03*
X48880000Y-90800000D03*
%TD*%
D39*
%TO.C,C46*%
X67162500Y-98875000D03*
X65612500Y-98875000D03*
%TD*%
D36*
%TO.C,C40*%
X55700000Y-86280000D03*
X55700000Y-85320000D03*
%TD*%
D26*
%TO.C,C41*%
X49080000Y-89200000D03*
X48120000Y-89200000D03*
%TD*%
D22*
%TO.C,R11*%
X43900000Y-93390000D03*
X43900000Y-94410000D03*
%TD*%
D19*
%TO.C,R32*%
X54372500Y-80350000D03*
X53352500Y-80350000D03*
%TD*%
D40*
%TO.C,U5*%
X51225000Y-78700000D03*
X51225000Y-79350000D03*
X51225000Y-80000000D03*
X51225000Y-80650000D03*
X47000000Y-80650000D03*
X47000000Y-80000000D03*
X47000000Y-79350000D03*
X47000000Y-78700000D03*
%TD*%
D38*
%TO.C,U9*%
X53775000Y-83895000D03*
X53775000Y-85165000D03*
X53775000Y-86435000D03*
X53775000Y-87705000D03*
X48825000Y-87705000D03*
X48825000Y-86435000D03*
X48825000Y-85165000D03*
X48825000Y-83895000D03*
%TD*%
D21*
%TO.C,R63*%
X51537500Y-107510000D03*
X51537500Y-106490000D03*
%TD*%
D41*
%TO.C,J5*%
X79225000Y-76995000D03*
X79225000Y-79535000D03*
X79225000Y-82075000D03*
X79225000Y-78265000D03*
X79225000Y-80805000D03*
X79225000Y-83345000D03*
D42*
X92125000Y-74745000D03*
X83325000Y-74745000D03*
X92115000Y-86465000D03*
X83315000Y-86465000D03*
%TD*%
D19*
%TO.C,R60*%
X46510000Y-99400001D03*
X45490000Y-99400001D03*
%TD*%
D43*
%TO.C,D11*%
X67600000Y-74582500D03*
X67600000Y-78582500D03*
%TD*%
D16*
%TO.C,R62*%
X48927500Y-106100000D03*
X49947500Y-106100000D03*
%TD*%
D10*
%TO.C,C32*%
X46532500Y-77200000D03*
X47492500Y-77200000D03*
%TD*%
D35*
%TO.C,C19*%
X76400000Y-69020000D03*
X76400000Y-69980000D03*
%TD*%
D40*
%TO.C,U11*%
X52612500Y-92300000D03*
X52612500Y-92950000D03*
X52612500Y-93600000D03*
X52612500Y-94250000D03*
X48387500Y-94250000D03*
X48387500Y-93600000D03*
X48387500Y-92950000D03*
X48387500Y-92300000D03*
%TD*%
M02*
