M48
; DRILL file {KiCad 7.0.10} date Tue Jan 23 23:38:14 2024
; FORMAT={-:-/ absolute / metric / decimal}
; #@! TF.CreationDate,2024-01-23T23:38:14+03:00
; #@! TF.GenerationSoftware,Kicad,Pcbnew,7.0.10
; #@! TF.FileFunction,Plated,1,4,PTH
FMAT,2
METRIC
; #@! TA.AperFunction,Plated,PTH,ViaDrill
T1C0.300
; #@! TA.AperFunction,Plated,PTH,ViaDrill
T2C0.400
; #@! TA.AperFunction,Plated,PTH,ComponentDrill
T3C1.200
; #@! TA.AperFunction,Plated,PTH,ComponentDrill
T4C3.250
%
G90
G05
T1
X36.97Y-92.55
X37.0Y-63.4
X37.0Y-64.2
X37.0Y-64.9
X37.0Y-65.6
X37.0Y-66.4
X37.0Y-121.75
X37.0Y-122.75
X37.0Y-124.25
X37.0Y-126.25
X37.1Y-68.799
X37.1Y-69.599
X37.1Y-70.399
X37.1Y-71.199
X37.1Y-71.999
X37.1Y-72.799
X37.1Y-73.799
X37.1Y-74.599
X37.1Y-75.3
X37.1Y-76.1
X37.1Y-77.0
X37.1Y-77.9
X37.1Y-78.9
X37.1Y-79.8
X37.1Y-81.1
X37.1Y-82.1
X37.1Y-83.5
X37.1Y-84.8
X37.1Y-86.4
X37.1Y-87.7
X37.1Y-89.3
X37.1Y-90.6
X37.5Y-125.25
X37.75Y-60.2
X37.75Y-61.0
X37.75Y-61.8
X37.75Y-62.6
X37.75Y-63.4
X37.75Y-64.2
X37.75Y-64.9
X37.75Y-65.6
X37.75Y-66.4
X37.75Y-67.2
X37.75Y-68.0
X38.12Y-92.56
X38.2Y-91.0
X38.2Y-109.8
X38.3Y-84.2
X38.3Y-85.5
X38.3Y-87.7
X38.3Y-89.0
X38.3Y-121.5
X38.337Y-68.799
X38.337Y-69.599
X38.337Y-70.399
X38.337Y-71.199
X38.337Y-71.999
X38.337Y-72.799
X38.337Y-73.799
X38.337Y-74.599
X38.4Y-75.3
X38.4Y-76.1
X38.4Y-77.0
X38.4Y-77.9
X38.4Y-78.9
X38.4Y-79.8
X38.4Y-116.8
X38.42Y-81.37
X38.45Y-83.05
X38.5Y-59.4
X38.5Y-60.2
X38.5Y-61.0
X38.5Y-61.8
X38.5Y-62.6
X38.5Y-63.4
X38.5Y-64.2
X38.5Y-64.9
X38.5Y-65.6
X38.5Y-66.4
X38.5Y-67.2
X38.5Y-68.0
X38.5Y-108.0
X38.527Y-113.525
X38.7Y-119.8
X39.0Y-111.2
X39.0Y-124.5
X39.25Y-59.4
X39.25Y-60.2
X39.25Y-61.0
X39.25Y-61.8
X39.25Y-62.6
X39.25Y-63.4
X39.25Y-64.2
X39.25Y-64.9
X39.25Y-65.6
X39.25Y-66.4
X39.25Y-67.2
X39.25Y-68.0
X39.4Y-68.8
X39.4Y-69.6
X39.4Y-70.4
X39.4Y-71.2
X39.4Y-72.0
X39.4Y-72.8
X39.4Y-73.8
X39.4Y-74.6
X39.5Y-75.3
X39.5Y-76.1
X40.0Y-58.6
X40.0Y-59.4
X40.0Y-60.2
X40.0Y-61.0
X40.0Y-61.8
X40.0Y-62.6
X40.0Y-63.4
X40.0Y-64.2
X40.0Y-64.9
X40.0Y-65.6
X40.0Y-66.4
X40.0Y-67.2
X40.0Y-68.0
X40.3Y-123.7
X40.5Y-68.8
X40.5Y-69.6
X40.5Y-70.4
X40.5Y-71.2
X40.5Y-72.0
X40.5Y-72.8
X40.5Y-73.8
X40.5Y-74.6
X40.6Y-75.3
X40.75Y-58.6
X40.75Y-59.4
X40.75Y-60.2
X40.75Y-61.0
X40.75Y-61.8
X40.75Y-62.6
X40.75Y-63.4
X40.75Y-64.2
X40.75Y-64.9
X40.75Y-65.6
X40.75Y-66.4
X40.75Y-67.2
X40.75Y-68.0
X41.5Y-58.6
X41.5Y-59.4
X41.5Y-60.2
X41.5Y-61.0
X41.5Y-61.8
X41.5Y-62.6
X41.5Y-63.4
X41.5Y-64.2
X41.5Y-64.9
X41.5Y-65.6
X41.5Y-66.4
X41.5Y-67.2
X41.5Y-68.0
X41.5Y-68.8
X41.5Y-69.6
X41.5Y-70.4
X41.5Y-71.2
X41.5Y-72.0
X41.5Y-72.8
X41.5Y-73.8
X41.5Y-74.6
X41.77Y-98.32
X42.0Y-123.3
X42.0Y-124.1
X42.0Y-125.0
X42.25Y-58.6
X42.25Y-59.4
X42.25Y-60.2
X42.25Y-61.0
X42.25Y-61.8
X42.25Y-62.6
X42.25Y-63.4
X42.25Y-64.2
X42.25Y-64.9
X42.25Y-65.6
X42.25Y-66.4
X42.25Y-67.2
X42.25Y-68.0
X42.5Y-68.8
X42.5Y-69.6
X42.5Y-70.4
X42.5Y-71.2
X42.5Y-72.0
X42.5Y-72.8
X42.5Y-73.8
X42.5Y-74.6
X43.0Y-58.6
X43.0Y-59.4
X43.0Y-60.2
X43.0Y-61.0
X43.0Y-61.8
X43.0Y-62.6
X43.0Y-63.4
X43.0Y-64.2
X43.0Y-64.9
X43.0Y-65.6
X43.0Y-66.4
X43.0Y-67.2
X43.0Y-68.0
X43.0Y-123.3
X43.0Y-124.1
X43.0Y-125.0
X43.5Y-68.8
X43.5Y-69.6
X43.5Y-70.4
X43.5Y-71.2
X43.5Y-72.0
X43.5Y-72.8
X43.5Y-73.8
X43.5Y-74.6
X43.5Y-75.3
X43.55Y-118.15
X43.75Y-58.6
X43.75Y-59.4
X43.75Y-60.2
X43.75Y-61.0
X43.75Y-61.8
X43.75Y-62.6
X43.75Y-63.4
X43.75Y-64.2
X43.75Y-64.9
X43.75Y-65.6
X43.75Y-66.4
X43.75Y-67.2
X43.75Y-68.0
X43.75Y-129.25
X44.2Y-123.3
X44.355Y-118.855
X44.4Y-81.2
X44.5Y-58.6
X44.5Y-59.4
X44.5Y-60.2
X44.5Y-61.0
X44.5Y-61.8
X44.5Y-62.6
X44.5Y-63.4
X44.5Y-64.2
X44.5Y-64.9
X44.5Y-65.6
X44.5Y-66.4
X44.5Y-67.2
X44.5Y-68.0
X44.5Y-68.8
X44.5Y-69.6
X44.5Y-70.4
X44.5Y-71.2
X44.5Y-72.0
X44.5Y-72.8
X44.5Y-73.8
X44.5Y-74.6
X44.5Y-75.3
X45.0Y-76.4
X45.0Y-123.3
X45.04Y-97.68
X45.25Y-58.6
X45.25Y-59.4
X45.25Y-60.2
X45.25Y-61.0
X45.25Y-61.8
X45.25Y-62.6
X45.25Y-63.4
X45.25Y-64.2
X45.25Y-64.9
X45.25Y-65.6
X45.25Y-66.4
X45.25Y-67.2
X45.25Y-68.0
X45.6Y-68.8
X45.6Y-69.6
X45.6Y-70.4
X45.6Y-71.2
X45.6Y-72.0
X45.6Y-72.8
X45.6Y-73.8
X45.6Y-74.6
X45.7Y-75.3
X46.0Y-58.6
X46.0Y-59.4
X46.0Y-60.2
X46.0Y-61.0
X46.0Y-61.8
X46.0Y-62.6
X46.0Y-63.4
X46.0Y-64.2
X46.0Y-64.9
X46.0Y-65.6
X46.0Y-66.4
X46.0Y-67.2
X46.0Y-68.0
X46.2Y-79.4
X46.2Y-80.7
X46.2Y-81.8
X46.3Y-76.4
X46.3Y-77.7
X46.5Y-68.8
X46.5Y-69.6
X46.5Y-70.4
X46.5Y-71.2
X46.5Y-72.0
X46.5Y-72.8
X46.5Y-73.8
X46.5Y-74.6
X46.6Y-75.3
X46.725Y-118.2
X46.75Y-58.6
X46.75Y-59.4
X46.75Y-60.2
X46.75Y-61.0
X46.75Y-61.8
X46.75Y-62.6
X46.75Y-115.25
X46.75Y-129.5
X46.8Y-63.4
X46.8Y-64.2
X46.8Y-64.9
X46.8Y-65.6
X46.8Y-66.4
X46.8Y-67.2
X46.8Y-68.0
X46.8Y-114.15
X47.25Y-128.5
X47.4Y-68.8
X47.4Y-69.6
X47.4Y-70.4
X47.4Y-71.2
X47.4Y-72.0
X47.4Y-72.8
X47.4Y-73.8
X47.4Y-74.6
X47.4Y-75.3
X47.5Y-58.6
X47.5Y-59.4
X47.5Y-60.2
X47.5Y-61.0
X47.5Y-61.8
X47.5Y-62.6
X47.5Y-113.5
X47.5Y-117.25
X47.5Y-118.25
X47.5Y-121.5
X47.55Y-116.15
X47.55Y-120.625
X47.6Y-63.4
X47.6Y-64.2
X47.6Y-64.9
X47.6Y-65.6
X47.6Y-66.4
X47.6Y-67.2
X47.6Y-68.0
X48.0Y-76.5
X48.0Y-77.8
X48.0Y-79.1
X48.0Y-80.2
X48.0Y-81.5
X48.0Y-129.5
X48.25Y-58.6
X48.25Y-59.4
X48.25Y-60.2
X48.25Y-61.0
X48.25Y-61.8
X48.25Y-62.6
X48.25Y-115.25
X48.25Y-128.25
X48.252Y-112.758
X48.3Y-114.15
X48.4Y-63.4
X48.4Y-64.2
X48.4Y-64.9
X48.4Y-65.6
X48.4Y-66.4
X48.4Y-67.2
X48.4Y-68.0
X48.4Y-68.8
X48.4Y-69.6
X48.4Y-70.4
X48.4Y-71.2
X48.4Y-72.0
X48.4Y-73.0
X48.4Y-73.8
X48.4Y-74.8
X48.4Y-110.75
X48.47Y-108.01
X48.5Y-83.4
X48.5Y-109.5
X48.5Y-118.0
X48.5Y-119.0
X48.5Y-120.0
X48.5Y-121.0
X48.5Y-121.75
X48.55Y-116.9
X49.1Y-106.6
X49.2Y-63.4
X49.2Y-64.2
X49.2Y-64.9
X49.2Y-65.6
X49.2Y-66.4
X49.2Y-67.2
X49.2Y-68.0
X49.2Y-68.8
X49.2Y-69.6
X49.2Y-70.4
X49.2Y-71.2
X49.2Y-72.0
X49.2Y-73.0
X49.2Y-73.8
X49.2Y-74.6
X49.2Y-75.3
X49.2Y-80.6
X49.25Y-128.5
X49.3Y-102.65
X49.4Y-78.0
X49.476Y-104.024
X49.5Y-118.5
X49.5Y-119.5
X49.5Y-120.5
X49.5Y-121.5
X49.5Y-122.25
X49.55Y-117.4
X49.8Y-76.4
X49.8Y-84.6
X49.89Y-95.44
X49.952Y-87.848
X50.0Y-63.4
X50.0Y-64.2
X50.0Y-64.9
X50.0Y-65.6
X50.0Y-66.4
X50.0Y-67.2
X50.0Y-68.0
X50.0Y-68.8
X50.0Y-69.6
X50.0Y-70.4
X50.0Y-71.2
X50.0Y-72.0
X50.0Y-73.0
X50.0Y-73.8
X50.0Y-74.6
X50.0Y-75.3
X50.0Y-123.0
X50.26Y-79.09
X50.3Y-82.32
X50.425Y-100.612
X50.475Y-91.625
X50.5Y-114.099
X50.5Y-118.5
X50.5Y-119.5
X50.5Y-120.5
X50.5Y-121.5
X50.5Y-122.25
X50.5Y-128.25
X50.5Y-129.25
X50.55Y-117.4
X50.786Y-103.438
X50.8Y-63.4
X50.8Y-64.2
X50.8Y-64.9
X50.8Y-65.6
X50.8Y-66.4
X50.8Y-67.2
X50.8Y-68.0
X50.8Y-70.4
X50.8Y-71.2
X50.8Y-73.4
X50.8Y-74.1
X50.8Y-74.9
X50.8Y-75.6
X50.8Y-108.8
X50.81Y-78.19
X51.0Y-123.0
X51.1Y-76.4
X51.2Y-116.8
X51.25Y-104.1
X51.25Y-126.75
X51.3Y-91.75
X51.4Y-81.8
X51.6Y-63.4
X51.6Y-64.2
X51.6Y-64.9
X51.6Y-65.6
X51.6Y-66.4
X51.6Y-67.2
X51.6Y-68.0
X51.6Y-73.4
X51.6Y-74.1
X51.6Y-74.9
X51.6Y-75.6
X51.734Y-80.264
X51.75Y-118.5
X51.75Y-119.5
X51.75Y-120.5
X51.75Y-121.5
X51.75Y-122.25
X51.8Y-70.4
X51.8Y-71.2
X51.8Y-117.4
X51.86Y-83.46
X51.9Y-129.1
X52.0Y-123.0
X52.0Y-127.25
X52.0Y-128.25
X52.187Y-114.113
X52.25Y-126.5
X52.3Y-87.8
X52.31Y-78.69
X52.33Y-84.58
X52.4Y-63.4
X52.4Y-64.2
X52.4Y-64.9
X52.4Y-65.6
X52.4Y-66.4
X52.4Y-67.2
X52.4Y-68.0
X52.4Y-73.4
X52.4Y-74.1
X52.4Y-74.9
X52.4Y-75.6
X52.75Y-118.5
X52.75Y-119.5
X52.75Y-120.5
X52.75Y-121.5
X52.75Y-122.25
X52.75Y-123.0
X52.8Y-76.3
X52.8Y-117.4
X52.8Y-127.3
X52.86Y-77.89
X53.1Y-73.5
X53.1Y-74.5
X53.1Y-75.3
X53.2Y-63.4
X53.2Y-64.2
X53.2Y-64.9
X53.2Y-65.6
X53.2Y-66.4
X53.2Y-67.2
X53.2Y-68.0
X53.244Y-96.55
X53.45Y-89.43
X53.68Y-80.32
X53.7Y-69.8
X53.8Y-69.0
X53.8Y-72.1
X53.8Y-72.8
X53.8Y-73.5
X53.8Y-74.2
X53.8Y-74.9
X53.81Y-78.72
X54.0Y-58.4
X54.0Y-59.6
X54.0Y-61.0
X54.0Y-62.2
X54.0Y-63.4
X54.0Y-64.1
X54.0Y-64.8
X54.0Y-65.6
X54.0Y-66.4
X54.0Y-67.2
X54.0Y-68.0
X54.1Y-75.6
X54.1Y-76.3
X54.31Y-81.54
X54.36Y-77.82
X54.4Y-120.2
X54.4Y-121.2
X54.4Y-122.0
X54.4Y-122.8
X54.5Y-68.6
X54.538Y-70.192
X54.55Y-71.4
X54.55Y-72.1
X54.55Y-72.8
X54.55Y-73.5
X54.55Y-74.2
X54.55Y-74.9
X54.59Y-83.36
X54.6Y-69.5
X54.8Y-63.4
X54.8Y-64.1
X54.8Y-64.8
X54.8Y-65.6
X54.8Y-66.4
X54.8Y-67.2
X54.8Y-68.0
X54.8Y-96.55
X54.893Y-86.725
X54.959Y-110.911
X55.284Y-79.894
X55.3Y-72.8
X55.3Y-73.5
X55.3Y-74.2
X55.3Y-74.9
X55.38Y-70.01
X55.4Y-75.6
X55.41Y-69.19
X55.5Y-66.0
X55.5Y-66.8
X55.5Y-67.6
X55.5Y-68.4
X55.5Y-85.75
X55.6Y-63.4
X55.6Y-64.1
X55.6Y-64.8
X55.6Y-76.4
X55.6Y-126.7
X55.7Y-58.4
X55.7Y-59.6
X55.7Y-61.0
X55.7Y-62.2
X55.73Y-92.357
X55.86Y-78.32
X55.9Y-65.4
X56.2Y-66.0
X56.2Y-66.8
X56.2Y-67.6
X56.2Y-68.4
X56.2Y-72.8
X56.2Y-73.5
X56.2Y-74.2
X56.2Y-74.9
X56.28Y-69.88
X56.3Y-63.4
X56.3Y-64.1
X56.3Y-64.8
X56.32Y-69.13
X56.35Y-89.054
X56.41Y-77.52
X56.505Y-71.607
X56.6Y-117.0
X56.6Y-118.2
X56.6Y-119.2
X56.66Y-82.49
X56.68Y-72.26
X56.8Y-65.3
X56.8Y-106.4
X56.8Y-101.793
X56.9Y-66.0
X56.9Y-66.8
X56.9Y-67.6
X56.9Y-68.4
X56.9Y-76.45
X56.97Y-79.86
X57.0Y-123.8
X57.08Y-69.86
X57.1Y-72.8
X57.1Y-73.5
X57.1Y-74.2
X57.1Y-74.9
X57.17Y-69.19
X57.2Y-64.0
X57.2Y-64.7
X57.2Y-114.95
X57.232Y-71.53
X57.4Y-104.0
X57.55Y-77.48
X57.58Y-72.19
X57.6Y-58.4
X57.6Y-59.6
X57.6Y-61.0
X57.6Y-62.2
X57.6Y-63.2
X57.6Y-66.0
X57.6Y-66.8
X57.6Y-67.6
X57.6Y-68.4
X57.6Y-117.0
X57.6Y-118.2
X57.6Y-119.4
X57.7Y-65.2
X57.89Y-69.02
X57.9Y-123.9
X58.0Y-72.8
X58.0Y-73.5
X58.0Y-74.2
X58.0Y-74.9
X58.0Y-127.374
X58.0Y-128.2
X58.0Y-129.6
X58.02Y-69.89
X58.034Y-71.611
X58.1Y-76.58
X58.1Y-96.575
X58.1Y-121.1
X58.1Y-122.0
X58.1Y-123.2
X58.1Y-125.1
X58.3Y-66.0
X58.3Y-66.8
X58.3Y-67.6
X58.3Y-68.4
X58.554Y-104.875
X58.6Y-63.9
X58.6Y-112.4
X58.75Y-117.0
X58.8Y-69.508
X58.8Y-70.2
X58.8Y-71.4
X58.8Y-72.1
X58.8Y-72.8
X58.8Y-73.501
X58.8Y-74.2
X58.8Y-74.9
X58.856Y-88.597
X58.88Y-68.76
X58.94Y-80.03
X59.0Y-65.2
X59.0Y-66.8
X59.0Y-67.6
X59.0Y-115.25
X59.024Y-78.654
X59.1Y-124.1
X59.1Y-124.9
X59.25Y-129.5
X59.47Y-68.12
X59.5Y-58.4
X59.5Y-59.6
X59.5Y-61.0
X59.5Y-62.2
X59.5Y-63.2
X59.5Y-105.0
X59.57Y-68.79
X59.6Y-69.508
X59.6Y-70.2
X59.6Y-71.4
X59.6Y-72.1
X59.6Y-72.8
X59.6Y-73.5
X59.6Y-74.2
X59.6Y-74.9
X59.6Y-77.08
X59.75Y-113.65
X60.15Y-76.28
X60.2Y-129.0
X60.27Y-68.12
X60.37Y-68.79
X60.4Y-69.508
X60.4Y-70.2
X60.4Y-71.4
X60.4Y-72.1
X60.4Y-72.8
X60.4Y-73.5
X60.4Y-74.2
X60.4Y-74.9
X60.41Y-84.75
X60.5Y-63.9
X60.5Y-115.25
X60.5Y-116.9
X60.85Y-113.2
X60.976Y-106.4
X61.0Y-93.6
X61.07Y-68.12
X61.17Y-68.79
X61.2Y-69.508
X61.2Y-70.2
X61.2Y-71.4
X61.2Y-72.1
X61.2Y-72.8
X61.2Y-73.5
X61.2Y-74.2
X61.2Y-74.9
X61.2Y-94.8
X61.2Y-124.6
X61.4Y-58.4
X61.4Y-59.6
X61.4Y-61.0
X61.4Y-62.2
X61.4Y-63.2
X61.4Y-97.2
X61.4Y-129.6
X61.4Y-88.074
X61.5Y-110.8
X61.682Y-96.452
X61.87Y-68.79
X61.9Y-69.508
X61.9Y-70.2
X61.947Y-85.197
X62.0Y-71.4
X62.0Y-72.1
X62.0Y-72.8
X62.0Y-73.501
X62.0Y-74.2
X62.0Y-74.9
X62.0Y-106.2
X62.0Y-108.826
X62.011Y-75.7
X62.2Y-103.0
X62.2Y-124.6
X62.4Y-63.9
X62.4Y-96.1
X62.4Y-129.6
X62.674Y-105.4
X62.75Y-117.0
X62.75Y-118.0
X62.75Y-118.75
X62.75Y-119.5
X62.75Y-120.25
X62.75Y-121.0
X62.875Y-99.34
X62.9Y-61.7
X62.9Y-62.9
X63.0Y-103.2
X63.3Y-65.1
X63.4Y-124.6
X63.4Y-125.6
X63.4Y-126.8
X63.4Y-127.8
X63.4Y-128.8
X63.4Y-129.6
X63.402Y-94.797
X63.409Y-93.512
X63.45Y-85.898
X64.0Y-123.4
X64.05Y-115.349
X64.1Y-66.0
X64.195Y-60.805
X64.2Y-59.4
X64.2Y-83.2
X64.3Y-124.6
X64.3Y-125.6
X64.3Y-126.8
X64.3Y-127.8
X64.3Y-128.8
X64.3Y-129.6
X64.325Y-107.55
X64.325Y-94.505
X64.5Y-118.0
X64.5Y-119.4
X64.6Y-117.0
X64.8Y-69.5
X64.81Y-80.11
X64.9Y-70.2
X64.9Y-71.0
X64.9Y-71.8
X64.9Y-72.5
X65.055Y-107.226
X65.1Y-129.6
X65.2Y-66.9
X65.2Y-120.3
X65.25Y-63.5
X65.266Y-91.15
X65.35Y-109.7
X65.4Y-116.5
X65.535Y-75.4
X65.6Y-69.5
X65.7Y-70.2
X65.7Y-71.0
X65.7Y-71.8
X65.7Y-72.5
X65.75Y-112.25
X65.9Y-97.75
X65.974Y-99.174
X66.0Y-128.65
X66.0Y-129.6
X66.1Y-67.5
X66.1Y-121.7
X66.2Y-111.1
X66.3Y-69.5
X66.3Y-73.9
X66.335Y-75.4
X66.4Y-70.2
X66.4Y-71.0
X66.4Y-71.8
X66.4Y-72.5
X66.5Y-90.75
X66.6Y-100.0
X66.7Y-59.7
X67.099Y-98.401
X67.1Y-69.5
X67.1Y-121.7
X67.2Y-70.2
X67.2Y-71.0
X67.2Y-71.8
X67.2Y-72.5
X67.2Y-97.6
X67.2Y-112.3
X67.2Y-129.6
X67.3Y-101.221
X67.4Y-108.2
X67.6Y-109.8
X67.7Y-85.675
X67.8Y-66.7
X67.9Y-69.5
X67.928Y-90.982
X67.93Y-76.44
X68.0Y-70.2
X68.0Y-71.0
X68.0Y-71.8
X68.0Y-72.5
X68.1Y-121.7
X68.15Y-91.75
X68.2Y-79.4
X68.2Y-129.6
X68.25Y-124.75
X68.3Y-98.45
X68.3Y-101.15
X68.5Y-63.5
X68.7Y-69.5
X68.75Y-74.75
X68.8Y-66.7
X68.8Y-70.2
X68.8Y-71.0
X68.8Y-71.8
X68.8Y-72.5
X68.875Y-85.575
X69.0Y-102.766
X69.001Y-97.4
X69.1Y-121.4
X69.2Y-99.55
X69.2Y-79.4
X69.2Y-129.6
X69.46Y-103.458
X69.55Y-123.65
X69.6Y-91.8
X69.75Y-71.25
X69.75Y-72.25
X69.75Y-74.75
X69.8Y-120.9
X70.0Y-104.1
X70.1Y-98.6
X70.125Y-85.575
X70.2Y-59.9
X70.237Y-105.2
X70.4Y-120.5
X70.599Y-96.85
X70.6Y-63.1
X70.6Y-73.8
X70.7Y-119.7
X70.75Y-68.75
X70.75Y-74.75
X70.8Y-58.4
X70.8Y-59.2
X70.8Y-99.05
X71.0Y-59.9
X71.3Y-85.55
X71.4Y-66.8
X71.5Y-100.6
X71.6Y-72.7
X71.6Y-73.8
X71.75Y-68.75
X71.75Y-69.75
X71.75Y-74.75
X71.9Y-123.05
X72.0Y-63.25
X72.093Y-108.576
X72.255Y-97.806
X72.476Y-85.0
X72.51Y-58.45
X72.527Y-93.329
X72.55Y-120.453
X72.75Y-67.0
X72.75Y-68.75
X72.75Y-69.75
X72.75Y-72.75
X72.75Y-73.75
X72.75Y-74.75
X72.8Y-70.7
X72.8Y-114.4
X72.833Y-63.117
X72.91Y-100.2
X73.05Y-107.95
X73.059Y-110.097
X73.4Y-122.3
X73.7Y-85.25
X73.75Y-67.0
X73.75Y-68.75
X73.75Y-69.75
X73.75Y-93.25
X73.78Y-73.86
X73.8Y-70.7
X73.8Y-109.7
X73.8Y-110.5
X73.8Y-114.45
X73.81Y-74.85
X74.0Y-63.3
X74.08Y-58.47
X74.1Y-122.9
X74.2Y-106.0
X74.2Y-120.95
X74.252Y-103.85
X74.4Y-88.0
X74.4Y-100.4
X74.4Y-127.965
X74.5Y-102.127
X74.7Y-70.7
X74.7Y-90.2
X74.75Y-67.0
X74.75Y-68.75
X74.75Y-69.75
X74.8Y-74.83
X74.8Y-122.0
X75.0Y-58.5
X75.0Y-60.3
X75.0Y-63.3
X75.0Y-103.25
X75.04Y-61.12
X75.05Y-61.92
X75.1Y-59.4
X75.1Y-71.66
X75.2Y-100.7
X75.3Y-109.25
X75.3Y-126.3
X75.4Y-106.1
X75.487Y-119.09
X75.675Y-86.0
X75.676Y-70.528
X75.74Y-72.57
X75.75Y-102.75
X75.9Y-58.5
X75.9Y-59.5
X75.9Y-60.3
X75.9Y-63.3
X75.9Y-76.87
X75.9Y-120.3
X75.94Y-61.12
X75.95Y-61.92
X75.95Y-85.0
X76.0Y-67.0
X76.19Y-69.46
X76.25Y-92.75
X76.25Y-100.5
X76.5Y-93.55
X76.6Y-106.8
X76.705Y-120.695
X76.775Y-87.775
X76.87Y-76.14
X76.898Y-101.648
X76.9Y-104.45
X76.9Y-109.25
X76.93Y-82.45
X77.0Y-58.5
X77.0Y-85.2
X77.25Y-103.5
X77.37Y-76.8
X77.555Y-96.719
X77.6Y-106.6
X77.62Y-71.365
X77.78Y-82.45
X77.8Y-85.2
X77.8Y-109.25
X77.85Y-75.63
X77.94Y-58.47
X77.953Y-118.55
X78.0Y-67.0
X78.0Y-89.8
X78.0Y-116.0
X78.0Y-117.1
X78.03Y-76.44
X78.06Y-73.72
X78.08Y-61.53
X78.1Y-91.1
X78.1Y-93.85
X78.1Y-110.849
X78.11Y-67.7
X78.44Y-71.41
X78.57Y-82.45
X78.6Y-85.2
X78.6Y-119.15
X78.7Y-61.9
X78.8Y-62.8
X78.8Y-115.1
X78.9Y-66.94
X78.91Y-67.69
X78.93Y-58.62
X78.95Y-93.7
X79.0Y-89.8
X79.0Y-91.1
X79.0Y-92.5
X79.123Y-63.498
X79.13Y-61.23
X79.2Y-119.95
X79.2Y-60.1
X79.4Y-62.3
X79.541Y-79.483
X79.57Y-67.7
X79.6Y-63.0
X79.612Y-94.735
X79.64Y-66.94
X79.7Y-61.7
X79.75Y-128.25
X79.8Y-58.7
X79.8Y-59.5
X79.8Y-101.9
X79.839Y-120.43
X79.9Y-60.3
X79.9Y-61.0
X79.9Y-125.2
X79.913Y-104.0
X80.0Y-86.25
X80.1Y-81.6
X80.23Y-63.55
X80.3Y-62.0
X80.3Y-62.8
X80.3Y-97.1
X80.336Y-100.53
X80.39Y-67.75
X80.41Y-66.98
X80.486Y-123.499
X80.5Y-58.8
X80.5Y-59.5
X80.513Y-108.417
X80.6Y-60.3
X80.6Y-61.3
X80.8Y-118.4
X80.94Y-62.42
X80.98Y-63.22
X81.0Y-116.6
X81.0Y-117.6
X81.0Y-119.2
X81.01Y-70.9
X81.14Y-66.99
X81.14Y-67.73
X81.2Y-60.8
X81.2Y-104.0
X81.2Y-123.9
X81.25Y-61.72
X81.3Y-58.8
X81.3Y-59.7
X81.45Y-126.55
X81.5Y-94.7
X81.5Y-102.75
X81.5Y-125.1
X81.64Y-62.57
X81.66Y-63.68
X81.75Y-95.5
X81.8Y-100.5
X81.805Y-121.619
X81.81Y-65.6
X81.82Y-61.33
X81.9Y-58.5
X81.9Y-59.2
X81.9Y-60.3
X81.96Y-64.4
X82.0Y-98.65
X82.0Y-110.5
X82.05Y-114.15
X82.2Y-63.1
X82.25Y-106.25
X82.25Y-107.25
X82.25Y-108.5
X82.26Y-66.22
X82.3Y-62.0
X82.47Y-63.75
X82.57Y-60.92
X82.6Y-91.8
X82.6Y-102.0
X82.68Y-65.6
X82.7Y-58.5
X82.7Y-59.3
X82.7Y-60.0
X82.7Y-93.3
X82.7Y-94.7
X82.75Y-64.4
X82.75Y-99.75
X82.8Y-124.6
X82.9Y-61.6
X82.9Y-62.4
X82.9Y-63.1
X83.0Y-96.25
X83.17Y-66.2
X83.39Y-63.72
X83.4Y-58.5
X83.4Y-59.3
X83.4Y-60.0
X83.5Y-108.5
X83.6Y-64.4
X83.6Y-65.6
X83.6Y-107.3
X83.68Y-60.77
X83.7Y-61.5
X83.7Y-62.4
X83.7Y-63.1
X83.726Y-120.274
X83.75Y-101.5
X83.75Y-102.75
X83.75Y-106.25
X83.9Y-123.9
X84.1Y-121.6
X84.2Y-58.5
X84.22Y-66.65
X84.22Y-69.04
X84.26Y-65.92
X84.27Y-67.4
X84.27Y-68.25
X84.4Y-61.5
X84.4Y-62.4
X84.4Y-63.1
X84.4Y-63.8
X84.465Y-98.816
X84.61Y-74.84
X84.8Y-72.4
X84.9Y-58.5
X84.976Y-67.266
X84.99Y-65.84
X85.0Y-66.52
X85.0Y-120.6
X85.05Y-63.05
X85.05Y-63.69
X85.07Y-62.26
X85.1Y-61.5
X85.25Y-97.0
X85.33Y-68.44
X85.5Y-104.65
X85.6Y-58.3
X85.6Y-103.7
X85.64Y-66.22
X85.79Y-62.505
X85.79Y-63.27
X85.79Y-63.985
X85.98Y-60.24
X85.99Y-59.22
X86.0Y-80.5
X86.05Y-77.85
X86.3Y-58.3
X86.5Y-67.5
X86.5Y-68.2
X86.5Y-68.9
X86.5Y-69.6
X86.5Y-70.3
X86.5Y-96.25
X86.57Y-71.04
X86.68Y-60.24
X86.69Y-59.22
X86.7Y-72.0
X86.75Y-95.5
X86.99Y-62.505
X86.99Y-63.3
X87.0Y-58.3
X87.0Y-126.8
X87.11Y-64.04
X87.25Y-100.75
X87.29Y-65.24
X87.3Y-65.9
X87.3Y-66.7
X87.3Y-67.5
X87.3Y-68.2
X87.3Y-68.9
X87.3Y-69.6
X87.3Y-70.3
X87.325Y-75.5
X87.39Y-70.96
X87.4Y-109.8
X87.453Y-105.339
X87.46Y-61.8
X87.5Y-78.35
X87.6Y-129.2
X87.7Y-106.1
X87.75Y-101.5
X87.76Y-63.17
X87.8Y-58.3
X87.8Y-59.0
X87.8Y-59.7
X87.8Y-102.3
X87.92Y-64.0
X88.0Y-62.4
X88.0Y-66.7
X88.0Y-67.5
X88.0Y-68.2
X88.0Y-68.9
X88.0Y-69.6
X88.0Y-70.3
X88.0Y-95.25
X88.0Y-96.25
X88.09Y-65.24
X88.1Y-126.0
X88.14Y-61.49
X88.15Y-65.93
X88.2Y-70.96
X88.25Y-73.0
X88.3Y-81.2
X88.42Y-63.34
X88.6Y-58.3
X88.6Y-59.0
X88.6Y-59.7
X88.6Y-100.4
X88.64Y-63.98
X88.75Y-61.89
X88.79Y-60.43
X88.79Y-61.13
X88.8Y-62.6
X88.8Y-66.7
X88.8Y-67.5
X88.8Y-68.2
X88.8Y-68.9
X88.8Y-69.6
X88.8Y-70.3
X88.8Y-129.3
X88.824Y-103.924
X88.94Y-70.95
X89.0Y-65.24
X89.0Y-125.4
X89.02Y-65.95
X89.1Y-63.2
X89.22Y-80.94
X89.3Y-106.1
X89.31Y-59.36
X89.33Y-64.0
X89.388Y-77.74
X89.4Y-58.3
X89.45Y-60.22
X89.47Y-61.09
X89.5Y-66.7
X89.5Y-79.644
X89.5Y-95.75
X89.56Y-62.64
X89.56Y-68.23
X89.58Y-68.9
X89.59Y-67.53
X89.59Y-69.59
X89.61Y-61.93
X89.61Y-70.25
X89.69Y-70.98
X89.85Y-65.24
X89.87Y-58.95
X90.03Y-63.89
X90.12Y-60.84
X90.19Y-66.2
X90.2Y-58.3
X90.2Y-63.1
X90.2Y-129.4
X90.29Y-68.65
X90.29Y-70.25
X90.3Y-69.37
X90.3Y-80.86
X90.35Y-60.15
X90.35Y-71.08
X90.39Y-59.42
X90.675Y-117.775
X90.89Y-66.2
X90.9Y-63.1
X90.96Y-60.85
X90.99Y-80.32
X91.0Y-58.4
X91.06Y-59.2
X91.08Y-70.92
X91.18Y-68.64
X91.19Y-69.36
X91.19Y-70.25
X91.26Y-60.02
X91.32Y-71.68
X91.34Y-89.45
X91.35Y-87.5
X91.5Y-93.75
X91.5Y-106.75
X91.5Y-109.0
X91.59Y-66.2
X91.6Y-63.1
X91.74Y-83.01
X91.74Y-91.5
X91.8Y-129.2
X91.87Y-70.93
X91.9Y-58.7
X91.9Y-59.5
X91.9Y-60.8
X91.96Y-70.25
X92.0Y-80.28
X92.031Y-120.36
X92.04Y-68.63
X92.05Y-69.35
X92.06Y-77.65
X92.28Y-60.15
X92.29Y-66.2
X92.3Y-63.1
X92.337Y-112.678
X92.34Y-71.82
X92.4Y-110.3
X92.654Y-81.661
X92.7Y-59.4
X92.76Y-60.79
X92.9Y-68.63
X92.91Y-69.35
X92.95Y-126.35
X92.99Y-66.2
X93.0Y-63.1
X93.0Y-106.75
X93.1Y-127.8
X93.2Y-60.0
X93.2Y-96.5
X93.34Y-80.22
X93.36Y-71.67
X93.5Y-60.8
X93.5Y-107.75
X93.74Y-66.25
X93.75Y-75.0
X93.75Y-88.5
X93.75Y-90.5
X93.75Y-92.75
X93.77Y-68.61
X93.78Y-69.36
X93.79Y-63.1
X93.8Y-118.7
T2
X77.0Y-61.75
X77.0Y-66.975
T3
X43.56Y-83.97
X43.56Y-86.47
X43.56Y-88.97
X43.56Y-91.47
X43.56Y-93.97
X43.56Y-96.47
X43.56Y-98.97
X43.56Y-101.47
X43.56Y-103.97
X46.56Y-83.97
X46.56Y-86.47
X46.56Y-88.97
X46.56Y-91.47
X46.56Y-93.97
X46.56Y-96.47
X46.56Y-98.97
X46.56Y-101.47
X46.56Y-103.97
T4
X42.06Y-78.47
X42.06Y-109.47
M30
