G04 #@! TF.GenerationSoftware,KiCad,Pcbnew,7.0.10*
G04 #@! TF.CreationDate,2024-01-28T21:43:18+03:00*
G04 #@! TF.ProjectId,BIM_PCB,42494d5f-5043-4422-9e6b-696361645f70,rev?*
G04 #@! TF.SameCoordinates,Original*
G04 #@! TF.FileFunction,Legend,Bot*
G04 #@! TF.FilePolarity,Positive*
%FSLAX46Y46*%
G04 Gerber Fmt 4.6, Leading zero omitted, Abs format (unit mm)*
G04 Created by KiCad (PCBNEW 7.0.10) date 2024-01-28 21:43:18*
%MOMM*%
%LPD*%
G01*
G04 APERTURE LIST*
%ADD10C,0.300000*%
%ADD11C,0.200000*%
%ADD12C,0.150000*%
%ADD13C,0.120000*%
%ADD14C,0.100000*%
%ADD15C,0.127000*%
G04 APERTURE END LIST*
D10*
X73040000Y-114980000D02*
G75*
G03*
X72840000Y-114980000I-100000J0D01*
G01*
X72840000Y-114980000D02*
G75*
G03*
X73040000Y-114980000I100000J0D01*
G01*
X72940000Y-114980000D02*
G75*
G03*
X72740000Y-114980000I-100000J0D01*
G01*
X72740000Y-114980000D02*
G75*
G03*
X72940000Y-114980000I100000J0D01*
G01*
X68060000Y-97540000D02*
G75*
G03*
X67880000Y-97540000I-90000J0D01*
G01*
X67880000Y-97540000D02*
G75*
G03*
X68060000Y-97540000I90000J0D01*
G01*
X71110000Y-90280000D02*
G75*
G03*
X70930000Y-90280000I-90000J0D01*
G01*
X70930000Y-90280000D02*
G75*
G03*
X71110000Y-90280000I90000J0D01*
G01*
X52580000Y-110590000D02*
G75*
G03*
X52400000Y-110590000I-90000J0D01*
G01*
X52400000Y-110590000D02*
G75*
G03*
X52580000Y-110590000I90000J0D01*
G01*
D11*
G36*
X69585589Y-62280000D02*
G01*
X69740195Y-62280000D01*
X69740195Y-61743886D01*
X69740042Y-61732800D01*
X69739584Y-61720668D01*
X69739040Y-61710883D01*
X69738325Y-61700509D01*
X69737438Y-61689548D01*
X69736379Y-61677998D01*
X69735148Y-61665860D01*
X69733745Y-61653134D01*
X69732171Y-61639820D01*
X69730425Y-61625917D01*
X69869399Y-62170579D01*
X69950976Y-62170579D01*
X70090439Y-61625917D01*
X70088737Y-61640069D01*
X70087202Y-61653581D01*
X70085835Y-61666453D01*
X70084635Y-61678685D01*
X70083602Y-61690278D01*
X70082737Y-61701231D01*
X70082039Y-61711544D01*
X70081369Y-61724300D01*
X70080997Y-61735919D01*
X70080914Y-61743886D01*
X70080914Y-62280000D01*
X70235519Y-62280000D01*
X70235519Y-61201423D01*
X70083600Y-61201423D01*
X69914584Y-61791025D01*
X69912882Y-61801037D01*
X69911948Y-61811015D01*
X69911241Y-61821800D01*
X69910718Y-61832362D01*
X69910432Y-61839385D01*
X69910104Y-61828648D01*
X69909394Y-61818747D01*
X69908287Y-61807490D01*
X69907022Y-61796763D01*
X69906280Y-61791025D01*
X69737508Y-61201423D01*
X69585589Y-61201423D01*
X69585589Y-62280000D01*
G37*
G36*
X69500837Y-62277313D02*
G01*
X69500837Y-62280000D01*
X69342079Y-62280000D01*
X69309839Y-62092421D01*
X69108583Y-62092421D01*
X69076343Y-62280000D01*
X68916852Y-62280000D01*
X68982812Y-61936106D01*
X69131297Y-61936106D01*
X69288590Y-61936106D01*
X69209455Y-61450795D01*
X69131297Y-61936106D01*
X68982812Y-61936106D01*
X69123726Y-61201423D01*
X69292742Y-61201423D01*
X69500837Y-62277313D01*
G37*
G36*
X68830635Y-62280000D02*
G01*
X68502861Y-62280000D01*
X68491077Y-62279789D01*
X68479600Y-62279156D01*
X68468431Y-62278102D01*
X68457569Y-62276626D01*
X68447014Y-62274728D01*
X68436766Y-62272409D01*
X68426826Y-62269668D01*
X68417192Y-62266505D01*
X68407866Y-62262921D01*
X68398848Y-62258914D01*
X68385895Y-62252115D01*
X68373634Y-62244366D01*
X68362064Y-62235668D01*
X68351186Y-62226022D01*
X68341103Y-62215497D01*
X68332012Y-62204255D01*
X68323912Y-62192296D01*
X68316805Y-62179620D01*
X68312617Y-62170770D01*
X68308871Y-62161603D01*
X68305565Y-62152116D01*
X68302700Y-62142311D01*
X68300275Y-62132188D01*
X68298292Y-62121745D01*
X68296749Y-62110984D01*
X68295647Y-62099905D01*
X68294986Y-62088506D01*
X68294766Y-62076789D01*
X68294766Y-62036001D01*
X68456210Y-62036001D01*
X68456306Y-62041395D01*
X68457073Y-62051671D01*
X68459662Y-62065799D01*
X68463977Y-62078387D01*
X68470018Y-62089433D01*
X68477784Y-62098938D01*
X68487277Y-62106901D01*
X68498495Y-62113323D01*
X68511440Y-62118204D01*
X68521028Y-62120601D01*
X68531384Y-62122314D01*
X68542506Y-62123342D01*
X68554396Y-62123684D01*
X68669678Y-62123684D01*
X68669678Y-61357739D01*
X68550244Y-61357739D01*
X68538857Y-61358075D01*
X68528205Y-61359086D01*
X68513604Y-61361864D01*
X68500656Y-61366158D01*
X68489361Y-61371968D01*
X68479719Y-61379293D01*
X68471729Y-61388134D01*
X68465393Y-61398490D01*
X68460710Y-61410362D01*
X68457680Y-61423749D01*
X68456578Y-61433516D01*
X68456210Y-61443956D01*
X68456210Y-62036001D01*
X68294766Y-62036001D01*
X68294766Y-61404633D01*
X68294821Y-61398765D01*
X68295262Y-61387264D01*
X68296143Y-61376079D01*
X68297466Y-61365208D01*
X68299229Y-61354652D01*
X68301433Y-61344411D01*
X68304077Y-61334485D01*
X68307163Y-61324874D01*
X68310689Y-61315577D01*
X68316805Y-61302223D01*
X68323912Y-61289577D01*
X68332012Y-61277639D01*
X68341103Y-61266410D01*
X68351186Y-61255889D01*
X68354735Y-61252538D01*
X68365844Y-61243124D01*
X68377644Y-61234667D01*
X68390136Y-61227167D01*
X68398848Y-61222699D01*
X68407866Y-61218657D01*
X68417192Y-61215040D01*
X68426826Y-61211848D01*
X68436766Y-61209082D01*
X68447014Y-61206742D01*
X68457569Y-61204827D01*
X68468431Y-61203338D01*
X68479600Y-61202274D01*
X68491077Y-61201636D01*
X68502861Y-61201423D01*
X68830635Y-61201423D01*
X68830635Y-62280000D01*
G37*
G36*
X67728122Y-62280000D02*
G01*
X68174110Y-62280000D01*
X68174110Y-61201423D01*
X67732274Y-61201423D01*
X67732274Y-61357739D01*
X68013154Y-61357739D01*
X68013154Y-61654738D01*
X67771353Y-61654738D01*
X67771353Y-61811053D01*
X68013154Y-61811053D01*
X68013154Y-62123684D01*
X67728122Y-62123684D01*
X67728122Y-62280000D01*
G37*
G36*
X67169295Y-62280000D02*
G01*
X67330006Y-62280000D01*
X67330006Y-61201423D01*
X67169295Y-61201423D01*
X67169295Y-62280000D01*
G37*
G36*
X66494940Y-62280000D02*
G01*
X66635868Y-62280000D01*
X66893545Y-61601249D01*
X66891083Y-61613312D01*
X66888950Y-61624711D01*
X66887145Y-61635446D01*
X66885668Y-61645518D01*
X66884283Y-61657173D01*
X66883411Y-61667790D01*
X66883042Y-61679162D01*
X66883042Y-62280000D01*
X67039846Y-62280000D01*
X67039846Y-61201423D01*
X66898918Y-61201423D01*
X66641242Y-61866496D01*
X66643703Y-61854433D01*
X66645836Y-61843034D01*
X66647642Y-61832299D01*
X66649118Y-61822227D01*
X66650503Y-61810572D01*
X66651375Y-61799954D01*
X66651744Y-61788583D01*
X66651744Y-61201423D01*
X66494940Y-61201423D01*
X66494940Y-62280000D01*
G37*
G36*
X65539462Y-62280000D02*
G01*
X65716538Y-62280000D01*
X65920481Y-61802749D01*
X65920481Y-62280000D01*
X66081437Y-62280000D01*
X66081437Y-61201423D01*
X65920481Y-61201423D01*
X65920481Y-61661821D01*
X65741939Y-61201423D01*
X65566085Y-61201423D01*
X65566085Y-61208995D01*
X65784682Y-61725080D01*
X65539462Y-62280000D01*
G37*
G36*
X65032658Y-62280000D02*
G01*
X65478646Y-62280000D01*
X65478646Y-61201423D01*
X65036810Y-61201423D01*
X65036810Y-61357739D01*
X65317690Y-61357739D01*
X65317690Y-61654738D01*
X65075889Y-61654738D01*
X65075889Y-61811053D01*
X65317690Y-61811053D01*
X65317690Y-62123684D01*
X65032658Y-62123684D01*
X65032658Y-62280000D01*
G37*
G36*
X64380774Y-62280000D02*
G01*
X64521702Y-62280000D01*
X64779378Y-61601249D01*
X64776917Y-61613312D01*
X64774784Y-61624711D01*
X64772978Y-61635446D01*
X64771502Y-61645518D01*
X64770117Y-61657173D01*
X64769245Y-61667790D01*
X64768876Y-61679162D01*
X64768876Y-62280000D01*
X64925680Y-62280000D01*
X64925680Y-61201423D01*
X64784752Y-61201423D01*
X64527076Y-61866496D01*
X64529537Y-61854433D01*
X64531670Y-61843034D01*
X64533475Y-61832299D01*
X64534952Y-61822227D01*
X64536337Y-61810572D01*
X64537209Y-61799954D01*
X64537578Y-61788583D01*
X64537578Y-61201423D01*
X64380774Y-61201423D01*
X64380774Y-62280000D01*
G37*
G36*
X63714724Y-61207773D02*
G01*
X63856873Y-61658401D01*
X63861936Y-61671754D01*
X63865493Y-61681551D01*
X63869195Y-61692063D01*
X63873042Y-61703290D01*
X63877034Y-61715233D01*
X63881171Y-61727892D01*
X63885452Y-61741266D01*
X63889879Y-61755356D01*
X63894451Y-61770161D01*
X63899168Y-61785682D01*
X63904030Y-61801919D01*
X63909037Y-61818871D01*
X63914189Y-61836538D01*
X63919486Y-61854921D01*
X63922189Y-61864381D01*
X63924928Y-61874020D01*
X63927704Y-61883838D01*
X63927704Y-62280000D01*
X64089148Y-62280000D01*
X64089148Y-61883838D01*
X64091293Y-61873707D01*
X64093605Y-61863464D01*
X64096084Y-61853110D01*
X64098731Y-61842645D01*
X64101545Y-61832067D01*
X64104527Y-61821378D01*
X64107676Y-61810578D01*
X64110993Y-61799665D01*
X64114477Y-61788642D01*
X64118128Y-61777506D01*
X64120655Y-61770020D01*
X64125074Y-61757563D01*
X64129231Y-61745837D01*
X64133126Y-61734841D01*
X64136760Y-61724576D01*
X64140133Y-61715042D01*
X64144702Y-61702111D01*
X64148682Y-61690825D01*
X64152075Y-61681183D01*
X64155683Y-61670884D01*
X64159135Y-61660918D01*
X64159979Y-61658401D01*
X64301395Y-61207529D01*
X64301395Y-61201423D01*
X64135799Y-61201423D01*
X64007327Y-61670858D01*
X63879588Y-61201423D01*
X63714724Y-61201423D01*
X63714724Y-61207773D01*
G37*
G36*
X63675157Y-62277313D02*
G01*
X63675157Y-62280000D01*
X63516399Y-62280000D01*
X63484159Y-62092421D01*
X63282903Y-62092421D01*
X63250662Y-62280000D01*
X63091172Y-62280000D01*
X63157132Y-61936106D01*
X63305617Y-61936106D01*
X63462909Y-61936106D01*
X63383775Y-61450795D01*
X63305617Y-61936106D01*
X63157132Y-61936106D01*
X63298046Y-61201423D01*
X63467062Y-61201423D01*
X63675157Y-62277313D01*
G37*
D12*
X64858458Y-123619819D02*
X64239411Y-123619819D01*
X64239411Y-123619819D02*
X64572744Y-124000771D01*
X64572744Y-124000771D02*
X64429887Y-124000771D01*
X64429887Y-124000771D02*
X64334649Y-124048390D01*
X64334649Y-124048390D02*
X64287030Y-124096009D01*
X64287030Y-124096009D02*
X64239411Y-124191247D01*
X64239411Y-124191247D02*
X64239411Y-124429342D01*
X64239411Y-124429342D02*
X64287030Y-124524580D01*
X64287030Y-124524580D02*
X64334649Y-124572200D01*
X64334649Y-124572200D02*
X64429887Y-124619819D01*
X64429887Y-124619819D02*
X64715601Y-124619819D01*
X64715601Y-124619819D02*
X64810839Y-124572200D01*
X64810839Y-124572200D02*
X64858458Y-124524580D01*
X63953696Y-123619819D02*
X63620363Y-124619819D01*
X63620363Y-124619819D02*
X63287030Y-123619819D01*
X63048934Y-123619819D02*
X62429887Y-123619819D01*
X62429887Y-123619819D02*
X62763220Y-124000771D01*
X62763220Y-124000771D02*
X62620363Y-124000771D01*
X62620363Y-124000771D02*
X62525125Y-124048390D01*
X62525125Y-124048390D02*
X62477506Y-124096009D01*
X62477506Y-124096009D02*
X62429887Y-124191247D01*
X62429887Y-124191247D02*
X62429887Y-124429342D01*
X62429887Y-124429342D02*
X62477506Y-124524580D01*
X62477506Y-124524580D02*
X62525125Y-124572200D01*
X62525125Y-124572200D02*
X62620363Y-124619819D01*
X62620363Y-124619819D02*
X62906077Y-124619819D01*
X62906077Y-124619819D02*
X63001315Y-124572200D01*
X63001315Y-124572200D02*
X63048934Y-124524580D01*
X62372744Y-61219819D02*
X62277506Y-61219819D01*
X62277506Y-61219819D02*
X62182268Y-61267438D01*
X62182268Y-61267438D02*
X62134649Y-61315057D01*
X62134649Y-61315057D02*
X62087030Y-61410295D01*
X62087030Y-61410295D02*
X62039411Y-61600771D01*
X62039411Y-61600771D02*
X62039411Y-61838866D01*
X62039411Y-61838866D02*
X62087030Y-62029342D01*
X62087030Y-62029342D02*
X62134649Y-62124580D01*
X62134649Y-62124580D02*
X62182268Y-62172200D01*
X62182268Y-62172200D02*
X62277506Y-62219819D01*
X62277506Y-62219819D02*
X62372744Y-62219819D01*
X62372744Y-62219819D02*
X62467982Y-62172200D01*
X62467982Y-62172200D02*
X62515601Y-62124580D01*
X62515601Y-62124580D02*
X62563220Y-62029342D01*
X62563220Y-62029342D02*
X62610839Y-61838866D01*
X62610839Y-61838866D02*
X62610839Y-61600771D01*
X62610839Y-61600771D02*
X62563220Y-61410295D01*
X62563220Y-61410295D02*
X62515601Y-61315057D01*
X62515601Y-61315057D02*
X62467982Y-61267438D01*
X62467982Y-61267438D02*
X62372744Y-61219819D01*
X61420363Y-61219819D02*
X61325125Y-61219819D01*
X61325125Y-61219819D02*
X61229887Y-61267438D01*
X61229887Y-61267438D02*
X61182268Y-61315057D01*
X61182268Y-61315057D02*
X61134649Y-61410295D01*
X61134649Y-61410295D02*
X61087030Y-61600771D01*
X61087030Y-61600771D02*
X61087030Y-61838866D01*
X61087030Y-61838866D02*
X61134649Y-62029342D01*
X61134649Y-62029342D02*
X61182268Y-62124580D01*
X61182268Y-62124580D02*
X61229887Y-62172200D01*
X61229887Y-62172200D02*
X61325125Y-62219819D01*
X61325125Y-62219819D02*
X61420363Y-62219819D01*
X61420363Y-62219819D02*
X61515601Y-62172200D01*
X61515601Y-62172200D02*
X61563220Y-62124580D01*
X61563220Y-62124580D02*
X61610839Y-62029342D01*
X61610839Y-62029342D02*
X61658458Y-61838866D01*
X61658458Y-61838866D02*
X61658458Y-61600771D01*
X61658458Y-61600771D02*
X61610839Y-61410295D01*
X61610839Y-61410295D02*
X61563220Y-61315057D01*
X61563220Y-61315057D02*
X61515601Y-61267438D01*
X61515601Y-61267438D02*
X61420363Y-61219819D01*
X60134649Y-62219819D02*
X60706077Y-62219819D01*
X60420363Y-62219819D02*
X60420363Y-61219819D01*
X60420363Y-61219819D02*
X60515601Y-61362676D01*
X60515601Y-61362676D02*
X60610839Y-61457914D01*
X60610839Y-61457914D02*
X60706077Y-61505533D01*
X59753696Y-61315057D02*
X59706077Y-61267438D01*
X59706077Y-61267438D02*
X59610839Y-61219819D01*
X59610839Y-61219819D02*
X59372744Y-61219819D01*
X59372744Y-61219819D02*
X59277506Y-61267438D01*
X59277506Y-61267438D02*
X59229887Y-61315057D01*
X59229887Y-61315057D02*
X59182268Y-61410295D01*
X59182268Y-61410295D02*
X59182268Y-61505533D01*
X59182268Y-61505533D02*
X59229887Y-61648390D01*
X59229887Y-61648390D02*
X59801315Y-62219819D01*
X59801315Y-62219819D02*
X59182268Y-62219819D01*
X58801315Y-61315057D02*
X58753696Y-61267438D01*
X58753696Y-61267438D02*
X58658458Y-61219819D01*
X58658458Y-61219819D02*
X58420363Y-61219819D01*
X58420363Y-61219819D02*
X58325125Y-61267438D01*
X58325125Y-61267438D02*
X58277506Y-61315057D01*
X58277506Y-61315057D02*
X58229887Y-61410295D01*
X58229887Y-61410295D02*
X58229887Y-61505533D01*
X58229887Y-61505533D02*
X58277506Y-61648390D01*
X58277506Y-61648390D02*
X58848934Y-62219819D01*
X58848934Y-62219819D02*
X58229887Y-62219819D01*
X57277506Y-62219819D02*
X57848934Y-62219819D01*
X57563220Y-62219819D02*
X57563220Y-61219819D01*
X57563220Y-61219819D02*
X57658458Y-61362676D01*
X57658458Y-61362676D02*
X57753696Y-61457914D01*
X57753696Y-61457914D02*
X57848934Y-61505533D01*
X56896553Y-61315057D02*
X56848934Y-61267438D01*
X56848934Y-61267438D02*
X56753696Y-61219819D01*
X56753696Y-61219819D02*
X56515601Y-61219819D01*
X56515601Y-61219819D02*
X56420363Y-61267438D01*
X56420363Y-61267438D02*
X56372744Y-61315057D01*
X56372744Y-61315057D02*
X56325125Y-61410295D01*
X56325125Y-61410295D02*
X56325125Y-61505533D01*
X56325125Y-61505533D02*
X56372744Y-61648390D01*
X56372744Y-61648390D02*
X56944172Y-62219819D01*
X56944172Y-62219819D02*
X56325125Y-62219819D01*
X55944172Y-61315057D02*
X55896553Y-61267438D01*
X55896553Y-61267438D02*
X55801315Y-61219819D01*
X55801315Y-61219819D02*
X55563220Y-61219819D01*
X55563220Y-61219819D02*
X55467982Y-61267438D01*
X55467982Y-61267438D02*
X55420363Y-61315057D01*
X55420363Y-61315057D02*
X55372744Y-61410295D01*
X55372744Y-61410295D02*
X55372744Y-61505533D01*
X55372744Y-61505533D02*
X55420363Y-61648390D01*
X55420363Y-61648390D02*
X55991791Y-62219819D01*
X55991791Y-62219819D02*
X55372744Y-62219819D01*
X55039410Y-61219819D02*
X54420363Y-61219819D01*
X54420363Y-61219819D02*
X54753696Y-61600771D01*
X54753696Y-61600771D02*
X54610839Y-61600771D01*
X54610839Y-61600771D02*
X54515601Y-61648390D01*
X54515601Y-61648390D02*
X54467982Y-61696009D01*
X54467982Y-61696009D02*
X54420363Y-61791247D01*
X54420363Y-61791247D02*
X54420363Y-62029342D01*
X54420363Y-62029342D02*
X54467982Y-62124580D01*
X54467982Y-62124580D02*
X54515601Y-62172200D01*
X54515601Y-62172200D02*
X54610839Y-62219819D01*
X54610839Y-62219819D02*
X54896553Y-62219819D01*
X54896553Y-62219819D02*
X54991791Y-62172200D01*
X54991791Y-62172200D02*
X55039410Y-62124580D01*
X70388220Y-127119819D02*
X70388220Y-126119819D01*
X70388220Y-126119819D02*
X70007268Y-126119819D01*
X70007268Y-126119819D02*
X69912030Y-126167438D01*
X69912030Y-126167438D02*
X69864411Y-126215057D01*
X69864411Y-126215057D02*
X69816792Y-126310295D01*
X69816792Y-126310295D02*
X69816792Y-126453152D01*
X69816792Y-126453152D02*
X69864411Y-126548390D01*
X69864411Y-126548390D02*
X69912030Y-126596009D01*
X69912030Y-126596009D02*
X70007268Y-126643628D01*
X70007268Y-126643628D02*
X70388220Y-126643628D01*
X69435839Y-126834104D02*
X68959649Y-126834104D01*
X69531077Y-127119819D02*
X69197744Y-126119819D01*
X69197744Y-126119819D02*
X68864411Y-127119819D01*
X68102506Y-126453152D02*
X68102506Y-127119819D01*
X68340601Y-126072200D02*
X68578696Y-126786485D01*
X68578696Y-126786485D02*
X67959649Y-126786485D01*
X72617319Y-128931429D02*
X72617319Y-129550476D01*
X72617319Y-129550476D02*
X72998271Y-129217143D01*
X72998271Y-129217143D02*
X72998271Y-129360000D01*
X72998271Y-129360000D02*
X73045890Y-129455238D01*
X73045890Y-129455238D02*
X73093509Y-129502857D01*
X73093509Y-129502857D02*
X73188747Y-129550476D01*
X73188747Y-129550476D02*
X73426842Y-129550476D01*
X73426842Y-129550476D02*
X73522080Y-129502857D01*
X73522080Y-129502857D02*
X73569700Y-129455238D01*
X73569700Y-129455238D02*
X73617319Y-129360000D01*
X73617319Y-129360000D02*
X73617319Y-129074286D01*
X73617319Y-129074286D02*
X73569700Y-128979048D01*
X73569700Y-128979048D02*
X73522080Y-128931429D01*
X73617319Y-124350476D02*
X73617319Y-123779048D01*
X73617319Y-124064762D02*
X72617319Y-124064762D01*
X72617319Y-124064762D02*
X72760176Y-123969524D01*
X72760176Y-123969524D02*
X72855414Y-123874286D01*
X72855414Y-123874286D02*
X72903033Y-123779048D01*
X93443247Y-114871428D02*
X93481342Y-114985714D01*
X93481342Y-114985714D02*
X93519438Y-115023809D01*
X93519438Y-115023809D02*
X93595628Y-115061905D01*
X93595628Y-115061905D02*
X93709914Y-115061905D01*
X93709914Y-115061905D02*
X93786104Y-115023809D01*
X93786104Y-115023809D02*
X93824200Y-114985714D01*
X93824200Y-114985714D02*
X93862295Y-114909524D01*
X93862295Y-114909524D02*
X93862295Y-114604762D01*
X93862295Y-114604762D02*
X93062295Y-114604762D01*
X93062295Y-114604762D02*
X93062295Y-114871428D01*
X93062295Y-114871428D02*
X93100390Y-114947619D01*
X93100390Y-114947619D02*
X93138485Y-114985714D01*
X93138485Y-114985714D02*
X93214676Y-115023809D01*
X93214676Y-115023809D02*
X93290866Y-115023809D01*
X93290866Y-115023809D02*
X93367057Y-114985714D01*
X93367057Y-114985714D02*
X93405152Y-114947619D01*
X93405152Y-114947619D02*
X93443247Y-114871428D01*
X93443247Y-114871428D02*
X93443247Y-114604762D01*
X93062295Y-115290476D02*
X93062295Y-115747619D01*
X93862295Y-115519047D02*
X93062295Y-115519047D01*
X93862295Y-116433333D02*
X93862295Y-115976190D01*
X93862295Y-116204762D02*
X93062295Y-116204762D01*
X93062295Y-116204762D02*
X93176580Y-116128571D01*
X93176580Y-116128571D02*
X93252771Y-116052381D01*
X93252771Y-116052381D02*
X93290866Y-115976190D01*
X78217319Y-124350476D02*
X78217319Y-123779048D01*
X78217319Y-124064762D02*
X77217319Y-124064762D01*
X77217319Y-124064762D02*
X77360176Y-123969524D01*
X77360176Y-123969524D02*
X77455414Y-123874286D01*
X77455414Y-123874286D02*
X77503033Y-123779048D01*
X77217319Y-128931429D02*
X77217319Y-129550476D01*
X77217319Y-129550476D02*
X77598271Y-129217143D01*
X77598271Y-129217143D02*
X77598271Y-129360000D01*
X77598271Y-129360000D02*
X77645890Y-129455238D01*
X77645890Y-129455238D02*
X77693509Y-129502857D01*
X77693509Y-129502857D02*
X77788747Y-129550476D01*
X77788747Y-129550476D02*
X78026842Y-129550476D01*
X78026842Y-129550476D02*
X78122080Y-129502857D01*
X78122080Y-129502857D02*
X78169700Y-129455238D01*
X78169700Y-129455238D02*
X78217319Y-129360000D01*
X78217319Y-129360000D02*
X78217319Y-129074286D01*
X78217319Y-129074286D02*
X78169700Y-128979048D01*
X78169700Y-128979048D02*
X78122080Y-128931429D01*
X76312295Y-90759524D02*
X76959914Y-90759524D01*
X76959914Y-90759524D02*
X77036104Y-90797619D01*
X77036104Y-90797619D02*
X77074200Y-90835714D01*
X77074200Y-90835714D02*
X77112295Y-90911905D01*
X77112295Y-90911905D02*
X77112295Y-91064286D01*
X77112295Y-91064286D02*
X77074200Y-91140476D01*
X77074200Y-91140476D02*
X77036104Y-91178571D01*
X77036104Y-91178571D02*
X76959914Y-91216667D01*
X76959914Y-91216667D02*
X76312295Y-91216667D01*
X77112295Y-92016666D02*
X77112295Y-91559523D01*
X77112295Y-91788095D02*
X76312295Y-91788095D01*
X76312295Y-91788095D02*
X76426580Y-91711904D01*
X76426580Y-91711904D02*
X76502771Y-91635714D01*
X76502771Y-91635714D02*
X76540866Y-91559523D01*
X76312295Y-92283333D02*
X76312295Y-92778571D01*
X76312295Y-92778571D02*
X76617057Y-92511905D01*
X76617057Y-92511905D02*
X76617057Y-92626190D01*
X76617057Y-92626190D02*
X76655152Y-92702381D01*
X76655152Y-92702381D02*
X76693247Y-92740476D01*
X76693247Y-92740476D02*
X76769438Y-92778571D01*
X76769438Y-92778571D02*
X76959914Y-92778571D01*
X76959914Y-92778571D02*
X77036104Y-92740476D01*
X77036104Y-92740476D02*
X77074200Y-92702381D01*
X77074200Y-92702381D02*
X77112295Y-92626190D01*
X77112295Y-92626190D02*
X77112295Y-92397619D01*
X77112295Y-92397619D02*
X77074200Y-92321428D01*
X77074200Y-92321428D02*
X77036104Y-92283333D01*
X87153333Y-68214819D02*
X87153333Y-68929104D01*
X87153333Y-68929104D02*
X87200952Y-69071961D01*
X87200952Y-69071961D02*
X87296190Y-69167200D01*
X87296190Y-69167200D02*
X87439047Y-69214819D01*
X87439047Y-69214819D02*
X87534285Y-69214819D01*
X86724761Y-68310057D02*
X86677142Y-68262438D01*
X86677142Y-68262438D02*
X86581904Y-68214819D01*
X86581904Y-68214819D02*
X86343809Y-68214819D01*
X86343809Y-68214819D02*
X86248571Y-68262438D01*
X86248571Y-68262438D02*
X86200952Y-68310057D01*
X86200952Y-68310057D02*
X86153333Y-68405295D01*
X86153333Y-68405295D02*
X86153333Y-68500533D01*
X86153333Y-68500533D02*
X86200952Y-68643390D01*
X86200952Y-68643390D02*
X86772380Y-69214819D01*
X86772380Y-69214819D02*
X86153333Y-69214819D01*
X53812295Y-99115476D02*
X54459914Y-99115476D01*
X54459914Y-99115476D02*
X54536104Y-99153571D01*
X54536104Y-99153571D02*
X54574200Y-99191666D01*
X54574200Y-99191666D02*
X54612295Y-99267857D01*
X54612295Y-99267857D02*
X54612295Y-99420238D01*
X54612295Y-99420238D02*
X54574200Y-99496428D01*
X54574200Y-99496428D02*
X54536104Y-99534523D01*
X54536104Y-99534523D02*
X54459914Y-99572619D01*
X54459914Y-99572619D02*
X53812295Y-99572619D01*
X53812295Y-100334523D02*
X53812295Y-99953571D01*
X53812295Y-99953571D02*
X54193247Y-99915475D01*
X54193247Y-99915475D02*
X54155152Y-99953571D01*
X54155152Y-99953571D02*
X54117057Y-100029761D01*
X54117057Y-100029761D02*
X54117057Y-100220237D01*
X54117057Y-100220237D02*
X54155152Y-100296428D01*
X54155152Y-100296428D02*
X54193247Y-100334523D01*
X54193247Y-100334523D02*
X54269438Y-100372618D01*
X54269438Y-100372618D02*
X54459914Y-100372618D01*
X54459914Y-100372618D02*
X54536104Y-100334523D01*
X54536104Y-100334523D02*
X54574200Y-100296428D01*
X54574200Y-100296428D02*
X54612295Y-100220237D01*
X54612295Y-100220237D02*
X54612295Y-100029761D01*
X54612295Y-100029761D02*
X54574200Y-99953571D01*
X54574200Y-99953571D02*
X54536104Y-99915475D01*
X87633561Y-83254451D02*
X87633561Y-83969226D01*
X87633561Y-83969226D02*
X87681213Y-84112181D01*
X87681213Y-84112181D02*
X87776516Y-84207485D01*
X87776516Y-84207485D02*
X87919471Y-84255136D01*
X87919471Y-84255136D02*
X88014775Y-84255136D01*
X87252348Y-83254451D02*
X86585224Y-83254451D01*
X86585224Y-83254451D02*
X87014089Y-84255136D01*
X55637295Y-87922024D02*
X56284914Y-87922024D01*
X56284914Y-87922024D02*
X56361104Y-87960119D01*
X56361104Y-87960119D02*
X56399200Y-87998214D01*
X56399200Y-87998214D02*
X56437295Y-88074405D01*
X56437295Y-88074405D02*
X56437295Y-88226786D01*
X56437295Y-88226786D02*
X56399200Y-88302976D01*
X56399200Y-88302976D02*
X56361104Y-88341071D01*
X56361104Y-88341071D02*
X56284914Y-88379167D01*
X56284914Y-88379167D02*
X55637295Y-88379167D01*
X56437295Y-89179166D02*
X56437295Y-88722023D01*
X56437295Y-88950595D02*
X55637295Y-88950595D01*
X55637295Y-88950595D02*
X55751580Y-88874404D01*
X55751580Y-88874404D02*
X55827771Y-88798214D01*
X55827771Y-88798214D02*
X55865866Y-88722023D01*
X56437295Y-89941071D02*
X56437295Y-89483928D01*
X56437295Y-89712500D02*
X55637295Y-89712500D01*
X55637295Y-89712500D02*
X55751580Y-89636309D01*
X55751580Y-89636309D02*
X55827771Y-89560119D01*
X55827771Y-89560119D02*
X55865866Y-89483928D01*
D13*
X44751141Y-114030000D02*
X44443859Y-114030000D01*
X44751141Y-113270000D02*
X44443859Y-113270000D01*
X62291000Y-81631000D02*
X62291000Y-77721000D01*
X64161000Y-81631000D02*
X62291000Y-81631000D01*
X64161000Y-77721000D02*
X64161000Y-81631000D01*
X59925000Y-87634359D02*
X59925000Y-87941641D01*
X59165000Y-87634359D02*
X59165000Y-87941641D01*
X46847164Y-107690000D02*
X47062836Y-107690000D01*
X46847164Y-108410000D02*
X47062836Y-108410000D01*
D14*
X70125000Y-125300000D02*
G75*
G03*
X68825000Y-125300000I-650000J0D01*
G01*
X68825000Y-125300000D02*
G75*
G03*
X70125000Y-125300000I650000J0D01*
G01*
D13*
X52754999Y-102033859D02*
X52754999Y-102341141D01*
X51994999Y-102033859D02*
X51994999Y-102341141D01*
X70982500Y-127418403D02*
X70982500Y-127111121D01*
X71742500Y-127418403D02*
X71742500Y-127111121D01*
X51328642Y-91217500D02*
X51021360Y-91217500D01*
X51328642Y-90457500D02*
X51021360Y-90457500D01*
X73462500Y-124614762D02*
X72862500Y-124614762D01*
X72162500Y-125264762D02*
X72162500Y-128064762D01*
X74162500Y-128064762D02*
X74162500Y-125264762D01*
X72862500Y-128714762D02*
X73462500Y-128714762D01*
X74162500Y-125314762D02*
G75*
G03*
X73462500Y-124614762I-699999J1D01*
G01*
X72862500Y-124614762D02*
G75*
G03*
X72162500Y-125314762I-1J-699999D01*
G01*
X73462500Y-128714762D02*
G75*
G03*
X74162500Y-128014762I0J700000D01*
G01*
X72162500Y-128014762D02*
G75*
G03*
X72862500Y-128714762I700000J0D01*
G01*
X64353641Y-103205000D02*
X64046359Y-103205000D01*
X64353641Y-102445000D02*
X64046359Y-102445000D01*
X77260000Y-96692163D02*
X77260000Y-96907835D01*
X76540000Y-96692163D02*
X76540000Y-96907835D01*
X53115000Y-93145336D02*
X53115000Y-92929664D01*
X53835000Y-93145336D02*
X53835000Y-92929664D01*
X49070000Y-113260000D02*
X50570000Y-113260000D01*
X49070000Y-113260000D02*
X47570000Y-113260000D01*
X49070000Y-110040000D02*
X51995000Y-110040000D01*
X49070000Y-110040000D02*
X47570000Y-110040000D01*
X51337000Y-81851000D02*
X51337000Y-76341000D01*
X54637000Y-81851000D02*
X51337000Y-81851000D01*
X54637000Y-81851000D02*
X54637000Y-76341000D01*
X46862164Y-108815000D02*
X47077836Y-108815000D01*
X46862164Y-109535000D02*
X47077836Y-109535000D01*
X79992500Y-126821121D02*
X79992500Y-127128403D01*
X79232500Y-126821121D02*
X79232500Y-127128403D01*
X90350000Y-108950000D02*
X91700000Y-110100000D01*
X84750000Y-108950000D02*
X83100000Y-110600000D01*
X83100000Y-110600000D02*
X83100000Y-112500000D01*
X83100000Y-120400000D02*
X83100000Y-118500000D01*
X83100000Y-120400000D02*
X84750000Y-122050000D01*
X90350000Y-122050000D02*
X91700000Y-120900000D01*
X92197607Y-112995902D02*
G75*
G03*
X91700000Y-110100000I-2297607J1095902D01*
G01*
X91700000Y-120900000D02*
G75*
G03*
X92196459Y-118001694I-1800000J1800000D01*
G01*
X75680000Y-98846359D02*
X75680000Y-99153641D01*
X74920000Y-98846359D02*
X74920000Y-99153641D01*
G36*
X52063961Y-119127179D02*
G01*
X52321955Y-119153182D01*
X52737684Y-119260486D01*
X52964546Y-119430539D01*
X52993381Y-119653667D01*
X52815025Y-119920197D01*
X52715154Y-119999482D01*
X52390502Y-120099368D01*
X52027894Y-120059656D01*
X51690579Y-119904929D01*
X51441807Y-119659770D01*
X51344827Y-119348765D01*
X51345455Y-119292301D01*
X51369304Y-119174187D01*
X51464280Y-119117379D01*
X51679471Y-119106751D01*
X52063961Y-119127179D01*
G37*
G36*
X48215739Y-119109645D02*
G01*
X48635870Y-119160504D01*
X48873645Y-119278941D01*
X49014687Y-119502840D01*
X49019664Y-119770848D01*
X48854095Y-119973989D01*
X48840869Y-119981511D01*
X48484777Y-120083796D01*
X48102472Y-120048968D01*
X47754470Y-119902111D01*
X47501290Y-119668312D01*
X47403448Y-119372657D01*
X47418058Y-119226309D01*
X47496690Y-119145877D01*
X47690970Y-119113119D01*
X48052525Y-119106896D01*
X48215739Y-119109645D01*
G37*
G36*
X56929666Y-117993829D02*
G01*
X57262081Y-118365159D01*
X57331230Y-118490249D01*
X57442381Y-118947480D01*
X57343545Y-119392429D01*
X57040006Y-119791164D01*
X56931103Y-119879334D01*
X56516451Y-120065029D01*
X56100602Y-120051593D01*
X55728608Y-119848262D01*
X55445520Y-119464272D01*
X55418560Y-119404008D01*
X55318264Y-118916496D01*
X55426549Y-118461557D01*
X55736261Y-118073410D01*
X56123292Y-117852029D01*
X56539510Y-117820767D01*
X56929666Y-117993829D01*
G37*
G36*
X69988612Y-117845618D02*
G01*
X70383547Y-118063792D01*
X70635041Y-118436281D01*
X70723276Y-118942672D01*
X70707863Y-119228627D01*
X70615956Y-119511124D01*
X70403249Y-119772215D01*
X70131766Y-119970087D01*
X69703945Y-120096098D01*
X69264205Y-120064020D01*
X68873705Y-119881196D01*
X68593606Y-119554968D01*
X68546655Y-119456234D01*
X68429435Y-118962708D01*
X68499208Y-118511604D01*
X68733875Y-118141192D01*
X69111338Y-117889746D01*
X69609499Y-117795538D01*
X69988612Y-117845618D01*
G37*
G36*
X65507749Y-117922972D02*
G01*
X65807909Y-118163588D01*
X66012895Y-118499371D01*
X66106930Y-118887859D01*
X66074234Y-119286585D01*
X65899028Y-119653086D01*
X65565535Y-119944898D01*
X65467921Y-119991279D01*
X65065668Y-120049811D01*
X64641417Y-119955510D01*
X64283307Y-119723589D01*
X64210484Y-119641698D01*
X64027176Y-119256518D01*
X64009501Y-118827628D01*
X64141565Y-118413291D01*
X64407474Y-118071769D01*
X64791333Y-117861325D01*
X65128195Y-117819990D01*
X65507749Y-117922972D01*
G37*
G36*
X60975628Y-117864961D02*
G01*
X61171745Y-117932252D01*
X61520095Y-118188520D01*
X61732575Y-118547564D01*
X61805172Y-118958501D01*
X61733873Y-119370447D01*
X61514665Y-119732521D01*
X61143534Y-119993839D01*
X61065990Y-120021527D01*
X60669354Y-120050021D01*
X60250660Y-119946796D01*
X59914342Y-119733934D01*
X59712242Y-119463145D01*
X59592701Y-119054488D01*
X59637566Y-118645752D01*
X59822565Y-118279685D01*
X60123424Y-117999034D01*
X60515869Y-117846543D01*
X60975628Y-117864961D01*
G37*
G36*
X78082087Y-117875512D02*
G01*
X78405278Y-118094181D01*
X78582339Y-118305542D01*
X78764863Y-118651446D01*
X78755109Y-118942672D01*
X78741340Y-118978074D01*
X78693832Y-119060807D01*
X78610315Y-119088148D01*
X78449228Y-119052970D01*
X78169010Y-118948146D01*
X77728099Y-118766549D01*
X77554931Y-118694221D01*
X77138181Y-118511325D01*
X76891136Y-118375859D01*
X76787643Y-118263885D01*
X76801552Y-118151464D01*
X76906710Y-118014656D01*
X76951916Y-117970190D01*
X77276531Y-117809331D01*
X77679547Y-117779167D01*
X78082087Y-117875512D01*
G37*
G36*
X79919827Y-118450000D02*
G01*
X79919827Y-118794994D01*
X79919827Y-122391379D01*
X62895259Y-122391379D01*
X45870690Y-122391379D01*
X45870690Y-119074009D01*
X46656515Y-119074009D01*
X46660889Y-119597521D01*
X46691810Y-120694396D01*
X46992888Y-120729039D01*
X47223056Y-120716285D01*
X47293965Y-120592186D01*
X47294529Y-120566925D01*
X47345008Y-120443340D01*
X47502230Y-120449295D01*
X47801494Y-120584239D01*
X47926727Y-120639566D01*
X48390869Y-120734263D01*
X48877719Y-120707779D01*
X49283706Y-120561690D01*
X49435574Y-120448434D01*
X49699386Y-120100172D01*
X49810504Y-119694330D01*
X49759465Y-119291136D01*
X49536806Y-118950819D01*
X49460032Y-118889428D01*
X50599468Y-118889428D01*
X50602482Y-119423878D01*
X50609019Y-119694330D01*
X50633190Y-120694396D01*
X50934267Y-120729039D01*
X51164435Y-120716285D01*
X51235345Y-120592186D01*
X51235908Y-120566925D01*
X51286388Y-120443340D01*
X51443609Y-120449295D01*
X51742873Y-120584239D01*
X51868106Y-120639566D01*
X52332248Y-120734263D01*
X52819098Y-120707779D01*
X53225085Y-120561690D01*
X53376953Y-120448434D01*
X53640765Y-120100172D01*
X53751884Y-119694330D01*
X53700845Y-119291136D01*
X53478185Y-118950819D01*
X53328528Y-118831148D01*
X52993914Y-118671788D01*
X52545485Y-118585450D01*
X51933297Y-118559483D01*
X51788399Y-118558323D01*
X51508056Y-118537226D01*
X51377156Y-118476100D01*
X51344827Y-118357486D01*
X51389471Y-118155381D01*
X51596380Y-117936018D01*
X51932203Y-117819976D01*
X52353007Y-117819525D01*
X52814858Y-117946934D01*
X52874770Y-117971123D01*
X53144712Y-118039353D01*
X53304014Y-117979779D01*
X53334639Y-117947061D01*
X53418030Y-117743418D01*
X53295089Y-117548855D01*
X52959698Y-117352224D01*
X52904689Y-117328145D01*
X52350746Y-117173610D01*
X51804667Y-117160425D01*
X51313278Y-117278072D01*
X50923402Y-117516035D01*
X50681865Y-117863799D01*
X50645440Y-118044711D01*
X50614755Y-118410696D01*
X50599468Y-118889428D01*
X49460032Y-118889428D01*
X49387149Y-118831148D01*
X49052535Y-118671788D01*
X48604106Y-118585450D01*
X47991918Y-118559483D01*
X47847019Y-118558323D01*
X47566677Y-118537226D01*
X47435777Y-118476100D01*
X47403448Y-118357486D01*
X47448092Y-118155381D01*
X47655001Y-117936018D01*
X47990824Y-117819976D01*
X48411627Y-117819525D01*
X48873478Y-117946934D01*
X48933391Y-117971123D01*
X49203333Y-118039353D01*
X49362634Y-117979779D01*
X49393260Y-117947061D01*
X49476651Y-117743418D01*
X49353710Y-117548855D01*
X49018319Y-117352224D01*
X48821864Y-117272579D01*
X48243363Y-117143855D01*
X47707081Y-117170286D01*
X47249891Y-117340421D01*
X46908665Y-117642808D01*
X46720275Y-118065993D01*
X46700009Y-118198187D01*
X46670513Y-118582863D01*
X46656515Y-119074009D01*
X45870690Y-119074009D01*
X45870690Y-118450000D01*
X45870690Y-115822414D01*
X54515638Y-115822414D01*
X54545104Y-118258405D01*
X54562473Y-119694330D01*
X54574569Y-120694396D01*
X54930388Y-120728704D01*
X55100398Y-120737772D01*
X55250054Y-120690714D01*
X55286207Y-120537109D01*
X55313932Y-120356647D01*
X55422092Y-120335352D01*
X55635102Y-120493935D01*
X55722602Y-120551901D01*
X56025647Y-120659552D01*
X56410102Y-120722652D01*
X56476541Y-120726962D01*
X57035683Y-120664236D01*
X57521481Y-120408463D01*
X57958468Y-119947359D01*
X58070036Y-119740187D01*
X58179291Y-119293756D01*
X58182764Y-119198733D01*
X58848346Y-119198733D01*
X59008685Y-119724330D01*
X59332888Y-120180612D01*
X59813695Y-120522404D01*
X60113399Y-120642912D01*
X60723168Y-120745687D01*
X61296067Y-120668684D01*
X61799097Y-120430893D01*
X62199261Y-120051301D01*
X62463558Y-119548898D01*
X62558990Y-118942672D01*
X63231527Y-118942672D01*
X63258275Y-119272586D01*
X63434591Y-119816324D01*
X63746467Y-120256292D01*
X64159542Y-120570054D01*
X64639454Y-120735177D01*
X65151842Y-120729225D01*
X65662344Y-120529763D01*
X65873263Y-120404210D01*
X66044760Y-120328374D01*
X66112851Y-120370348D01*
X66125000Y-120530172D01*
X66126414Y-120567745D01*
X66203068Y-120710077D01*
X66435201Y-120749138D01*
X66665257Y-120729630D01*
X66818391Y-120676149D01*
X66827395Y-120648918D01*
X66847849Y-120442157D01*
X66865442Y-120062505D01*
X66879206Y-119542621D01*
X66884541Y-119169417D01*
X67779450Y-119169417D01*
X67911241Y-119684926D01*
X68196556Y-120133979D01*
X68634750Y-120471111D01*
X68659840Y-120483839D01*
X69221067Y-120663748D01*
X69811090Y-120684973D01*
X70364476Y-120553400D01*
X70815790Y-120274913D01*
X71011890Y-120040423D01*
X72063278Y-120040423D01*
X72069499Y-120156515D01*
X72237425Y-120315543D01*
X72254500Y-120329103D01*
X72549563Y-120502813D01*
X72894321Y-120636317D01*
X73062413Y-120680856D01*
X73384336Y-120734620D01*
X73672162Y-120706056D01*
X74042377Y-120590518D01*
X74389780Y-120438423D01*
X74764770Y-120143757D01*
X75040093Y-119709923D01*
X75078498Y-119596518D01*
X75868965Y-119596518D01*
X75898431Y-119721315D01*
X76069781Y-119985000D01*
X76343162Y-120249949D01*
X76659738Y-120452475D01*
X76912656Y-120555591D01*
X77539471Y-120675818D01*
X78118930Y-120606485D01*
X78621462Y-120365665D01*
X79017498Y-119971428D01*
X79277468Y-119441848D01*
X79371803Y-118794994D01*
X79347347Y-118550259D01*
X79157880Y-118084953D01*
X78818322Y-117688842D01*
X78373539Y-117388200D01*
X77868396Y-117209305D01*
X77347759Y-117178433D01*
X76856493Y-117321859D01*
X76778389Y-117366751D01*
X76484302Y-117604055D01*
X76224820Y-117902849D01*
X76048026Y-118200527D01*
X76002000Y-118434482D01*
X76097542Y-118528503D01*
X76358740Y-118685051D01*
X76568799Y-118790102D01*
X76743496Y-118877468D01*
X77210129Y-119083369D01*
X77630926Y-119267350D01*
X78026463Y-119462135D01*
X78290782Y-119619328D01*
X78387069Y-119719046D01*
X78384596Y-119749018D01*
X78255590Y-119924745D01*
X77966257Y-120046629D01*
X77565948Y-120092241D01*
X77327404Y-120078134D01*
X76857798Y-119925989D01*
X76463657Y-119585052D01*
X76353297Y-119481602D01*
X76129461Y-119386765D01*
X75945399Y-119425506D01*
X75868965Y-119596518D01*
X75078498Y-119596518D01*
X75160598Y-119354085D01*
X75189007Y-118790102D01*
X75045888Y-118246763D01*
X74748587Y-117778350D01*
X74314450Y-117439144D01*
X73850710Y-117284448D01*
X73312114Y-117230230D01*
X72788144Y-117277107D01*
X72368277Y-117425699D01*
X72245310Y-117500464D01*
X72073840Y-117642302D01*
X72078991Y-117771719D01*
X72246776Y-117948949D01*
X72390735Y-118062272D01*
X72530477Y-118071957D01*
X72741759Y-117951812D01*
X72967708Y-117850444D01*
X73400386Y-117813504D01*
X73843536Y-117924235D01*
X74216058Y-118170604D01*
X74415652Y-118461488D01*
X74502834Y-118837546D01*
X74516482Y-118896418D01*
X74449951Y-119338972D01*
X74216058Y-119714741D01*
X74104464Y-119811894D01*
X73667521Y-120022379D01*
X73173497Y-120065397D01*
X72698173Y-119930193D01*
X72675824Y-119918668D01*
X72438480Y-119811977D01*
X72296058Y-119814436D01*
X72160312Y-119925230D01*
X72063278Y-120040423D01*
X71011890Y-120040423D01*
X71112070Y-119920631D01*
X71337605Y-119395063D01*
X71388117Y-118837546D01*
X71268171Y-118294289D01*
X70982335Y-117811499D01*
X70535175Y-117435383D01*
X70138662Y-117284863D01*
X69596438Y-117225665D01*
X69049378Y-117285266D01*
X68592086Y-117462353D01*
X68311672Y-117678805D01*
X67979021Y-118120891D01*
X67801829Y-118632917D01*
X67779450Y-119169417D01*
X66884541Y-119169417D01*
X66888175Y-118915162D01*
X66891379Y-118212787D01*
X66891379Y-115822414D01*
X66508190Y-115822414D01*
X66125000Y-115822414D01*
X66125000Y-116749718D01*
X66125000Y-117677022D01*
X65714440Y-117396579D01*
X65457035Y-117242624D01*
X65159597Y-117157872D01*
X64775681Y-117165625D01*
X64549546Y-117199859D01*
X64002799Y-117416620D01*
X63587597Y-117794629D01*
X63323865Y-118310956D01*
X63231527Y-118942672D01*
X62558990Y-118942672D01*
X62553671Y-118787116D01*
X62414658Y-118192038D01*
X62093231Y-117712864D01*
X61597512Y-117362940D01*
X61104970Y-117185882D01*
X60486518Y-117147044D01*
X59902452Y-117323538D01*
X59362324Y-117713863D01*
X59048305Y-118120296D01*
X58859133Y-118648997D01*
X58856398Y-118788369D01*
X58848346Y-119198733D01*
X58182764Y-119198733D01*
X58197760Y-118788369D01*
X58125300Y-118310031D01*
X57961770Y-117944750D01*
X57811072Y-117762766D01*
X57342193Y-117379959D01*
X56821424Y-117175088D01*
X56287084Y-117158734D01*
X55777494Y-117341483D01*
X55681845Y-117397086D01*
X55450399Y-117523616D01*
X55334690Y-117574138D01*
X55327839Y-117565357D01*
X55306622Y-117411347D01*
X55291789Y-117105047D01*
X55286207Y-116698276D01*
X55286207Y-115822414D01*
X54900923Y-115822414D01*
X54515638Y-115822414D01*
X45870690Y-115822414D01*
X45870690Y-114508621D01*
X62895259Y-114508621D01*
X79919827Y-114508621D01*
X79919827Y-115822414D01*
X79919827Y-118450000D01*
G37*
X46847164Y-106640000D02*
X47062836Y-106640000D01*
X46847164Y-107360000D02*
X47062836Y-107360000D01*
X51095001Y-93091141D02*
X51095001Y-92783859D01*
X51855001Y-93091141D02*
X51855001Y-92783859D01*
X59355000Y-96596359D02*
X59355000Y-96903641D01*
X58595000Y-96596359D02*
X58595000Y-96903641D01*
G36*
X66218754Y-59596899D02*
G01*
X66218754Y-60243933D01*
X66043711Y-60243933D01*
X65868668Y-60243933D01*
X65868668Y-59596899D01*
X65868668Y-58949865D01*
X66043711Y-58949865D01*
X66218754Y-58949865D01*
X66218754Y-59596899D01*
G37*
G36*
X70066318Y-60760470D02*
G01*
X70105710Y-60761000D01*
X70136735Y-60762027D01*
X70160353Y-60763670D01*
X70177525Y-60766049D01*
X70189212Y-60769285D01*
X70196373Y-60773497D01*
X70199971Y-60778805D01*
X70200964Y-60785330D01*
X70200315Y-60793191D01*
X70198983Y-60802508D01*
X70197204Y-60811553D01*
X70183620Y-60842285D01*
X70158436Y-60874804D01*
X70122127Y-60908458D01*
X70111511Y-60916887D01*
X70055629Y-60954569D01*
X69998104Y-60982935D01*
X69941546Y-61000651D01*
X69930950Y-61002166D01*
X69907798Y-61003681D01*
X69878773Y-61004301D01*
X69847772Y-61003892D01*
X69812905Y-61002181D01*
X69784302Y-60998951D01*
X69759427Y-60993525D01*
X69733801Y-60985168D01*
X69692350Y-60967836D01*
X69644637Y-60942600D01*
X69600783Y-60913862D01*
X69562876Y-60883168D01*
X69533006Y-60852061D01*
X69513260Y-60822086D01*
X69506213Y-60804940D01*
X69503639Y-60785365D01*
X69510921Y-60772546D01*
X69528279Y-60765649D01*
X69529335Y-60765496D01*
X69541815Y-60764721D01*
X69565264Y-60763960D01*
X69598400Y-60763233D01*
X69639940Y-60762556D01*
X69688602Y-60761951D01*
X69743106Y-60761434D01*
X69802168Y-60761025D01*
X69864507Y-60760743D01*
X69888330Y-60760661D01*
X69958589Y-60760421D01*
X70017598Y-60760317D01*
X70066318Y-60760470D01*
G37*
G36*
X65364783Y-58754504D02*
G01*
X65377298Y-58787954D01*
X65391676Y-58826227D01*
X65405262Y-58862247D01*
X65416273Y-58891282D01*
X65438018Y-58948352D01*
X65534560Y-59006935D01*
X65631103Y-59065518D01*
X65631106Y-59142099D01*
X65631110Y-59218681D01*
X65547034Y-59218681D01*
X65462958Y-59218681D01*
X65460541Y-59589084D01*
X65460229Y-59635295D01*
X65459683Y-59707375D01*
X65459110Y-59768573D01*
X65458478Y-59819921D01*
X65457752Y-59862454D01*
X65456900Y-59897203D01*
X65455888Y-59925203D01*
X65454682Y-59947487D01*
X65453250Y-59965087D01*
X65451558Y-59979038D01*
X65449572Y-59990372D01*
X65447259Y-60000123D01*
X65427086Y-60058417D01*
X65396982Y-60114740D01*
X65359129Y-60162650D01*
X65314359Y-60200894D01*
X65309893Y-60203837D01*
X65280109Y-60219686D01*
X65243305Y-60234754D01*
X65204043Y-60247346D01*
X65166883Y-60255764D01*
X65147588Y-60258127D01*
X65113882Y-60260338D01*
X65073863Y-60261536D01*
X65031021Y-60261716D01*
X64988845Y-60260873D01*
X64950825Y-60259002D01*
X64920450Y-60256099D01*
X64904419Y-60253711D01*
X64863242Y-60245923D01*
X64821642Y-60236087D01*
X64783908Y-60225276D01*
X64754332Y-60214564D01*
X64730888Y-60204525D01*
X64730888Y-60074192D01*
X64730910Y-60061956D01*
X64731258Y-60024329D01*
X64731981Y-59991873D01*
X64733011Y-59966421D01*
X64734280Y-59949805D01*
X64735720Y-59943859D01*
X64739372Y-59944449D01*
X64753292Y-59947522D01*
X64774670Y-59952630D01*
X64800650Y-59959104D01*
X64832040Y-59966482D01*
X64898385Y-59977456D01*
X64955680Y-59979850D01*
X65003915Y-59973666D01*
X65043079Y-59958906D01*
X65073160Y-59935572D01*
X65094148Y-59903666D01*
X65095865Y-59899629D01*
X65098154Y-59892742D01*
X65100062Y-59884062D01*
X65101622Y-59872518D01*
X65102871Y-59857039D01*
X65103843Y-59836554D01*
X65104574Y-59809993D01*
X65105098Y-59776283D01*
X65105453Y-59734355D01*
X65105671Y-59683136D01*
X65105790Y-59621557D01*
X65105843Y-59548545D01*
X65105981Y-59218872D01*
X64926249Y-59217214D01*
X64746517Y-59215555D01*
X64744830Y-59082710D01*
X64743143Y-58949865D01*
X64924562Y-58949865D01*
X65105981Y-58949865D01*
X65105981Y-58812331D01*
X65105981Y-58674797D01*
X65220509Y-58674797D01*
X65335037Y-58674797D01*
X65364783Y-58754504D01*
G37*
G36*
X62326221Y-58928876D02*
G01*
X62378396Y-58933929D01*
X62422798Y-58942614D01*
X62460451Y-58953781D01*
X62521666Y-58977992D01*
X62573771Y-59007850D01*
X62618554Y-59044468D01*
X62657804Y-59088961D01*
X62663595Y-59096063D01*
X62675493Y-59107778D01*
X62683987Y-59112405D01*
X62687969Y-59110228D01*
X62692797Y-59102432D01*
X62698746Y-59087709D01*
X62706280Y-59064755D01*
X62715865Y-59032265D01*
X62727964Y-58988937D01*
X62738698Y-58949865D01*
X62875206Y-58949865D01*
X63011715Y-58949865D01*
X63011715Y-59596899D01*
X63011715Y-60243933D01*
X62833902Y-60243933D01*
X62656089Y-60243933D01*
X62653695Y-59867278D01*
X62653311Y-59808603D01*
X62652748Y-59734123D01*
X62652099Y-59670310D01*
X62651284Y-59616078D01*
X62650225Y-59570346D01*
X62648842Y-59532030D01*
X62647053Y-59500047D01*
X62644781Y-59473312D01*
X62641944Y-59450743D01*
X62638463Y-59431257D01*
X62634258Y-59413769D01*
X62629250Y-59397197D01*
X62623358Y-59380457D01*
X62616502Y-59362466D01*
X62601382Y-59329161D01*
X62572648Y-59286361D01*
X62536896Y-59253579D01*
X62493675Y-59230524D01*
X62442531Y-59216904D01*
X62383012Y-59212429D01*
X62381086Y-59212434D01*
X62329235Y-59216847D01*
X62285859Y-59229897D01*
X62250310Y-59252127D01*
X62221942Y-59284081D01*
X62200107Y-59326300D01*
X62184158Y-59379329D01*
X62182283Y-59388687D01*
X62180484Y-59400786D01*
X62178960Y-59415640D01*
X62177689Y-59434223D01*
X62176649Y-59457510D01*
X62175818Y-59486477D01*
X62175175Y-59522097D01*
X62174697Y-59565347D01*
X62174364Y-59617200D01*
X62174152Y-59678631D01*
X62174041Y-59750616D01*
X62174009Y-59834128D01*
X62174009Y-60243933D01*
X61995840Y-60243933D01*
X61817672Y-60243933D01*
X61817697Y-59789134D01*
X61817724Y-59710755D01*
X61817844Y-59627015D01*
X61818110Y-59554062D01*
X61818574Y-59490957D01*
X61819288Y-59436762D01*
X61820305Y-59390540D01*
X61821675Y-59351351D01*
X61823452Y-59318259D01*
X61825688Y-59290324D01*
X61828434Y-59266610D01*
X61831744Y-59246177D01*
X61835668Y-59228089D01*
X61840260Y-59211407D01*
X61845572Y-59195192D01*
X61851655Y-59178507D01*
X61865044Y-59147145D01*
X61899136Y-59090232D01*
X61942860Y-59041231D01*
X61996113Y-59000230D01*
X62058794Y-58967314D01*
X62130800Y-58942571D01*
X62164373Y-58935517D01*
X62215078Y-58929669D01*
X62270405Y-58927455D01*
X62326221Y-58928876D01*
G37*
G36*
X67670349Y-58949511D02*
G01*
X67702556Y-58949751D01*
X67727878Y-58950233D01*
X67744444Y-58950977D01*
X67750381Y-58951999D01*
X67750369Y-58952049D01*
X67747891Y-58958796D01*
X67741364Y-58976137D01*
X67731173Y-59003060D01*
X67717705Y-59038556D01*
X67701345Y-59081611D01*
X67682479Y-59131216D01*
X67661491Y-59186358D01*
X67638768Y-59246027D01*
X67614696Y-59309211D01*
X67589659Y-59374898D01*
X67564043Y-59442078D01*
X67538234Y-59509739D01*
X67512617Y-59576869D01*
X67487578Y-59642458D01*
X67463502Y-59705494D01*
X67440776Y-59764966D01*
X67419783Y-59819862D01*
X67400911Y-59869172D01*
X67384544Y-59911883D01*
X67371068Y-59946985D01*
X67366015Y-59960191D01*
X67356449Y-59985525D01*
X67348782Y-60006264D01*
X67344325Y-60018878D01*
X67340952Y-60028287D01*
X67333749Y-60047495D01*
X67323846Y-60073498D01*
X67312227Y-60103753D01*
X67299873Y-60135719D01*
X67287767Y-60166856D01*
X67276892Y-60194620D01*
X67268230Y-60216471D01*
X67262764Y-60229867D01*
X67256778Y-60243933D01*
X67076018Y-60243933D01*
X67046692Y-60243921D01*
X67000292Y-60243801D01*
X66964311Y-60243486D01*
X66937389Y-60242895D01*
X66918165Y-60241948D01*
X66905278Y-60240565D01*
X66897366Y-60238665D01*
X66893068Y-60236168D01*
X66891025Y-60232993D01*
X66890490Y-60231597D01*
X66886165Y-60220276D01*
X66877873Y-60198552D01*
X66865965Y-60167348D01*
X66850794Y-60127586D01*
X66832711Y-60080188D01*
X66812068Y-60026077D01*
X66789217Y-59966173D01*
X66764508Y-59901399D01*
X66738295Y-59832678D01*
X66710928Y-59760930D01*
X66682759Y-59687078D01*
X66654140Y-59612044D01*
X66625423Y-59536751D01*
X66596959Y-59462119D01*
X66569100Y-59389071D01*
X66542197Y-59318529D01*
X66516603Y-59251415D01*
X66492669Y-59188651D01*
X66470747Y-59131159D01*
X66466327Y-59119561D01*
X66446772Y-59068053D01*
X66431426Y-59027233D01*
X66419997Y-58996306D01*
X66412194Y-58974476D01*
X66407725Y-58960946D01*
X66406301Y-58954920D01*
X66406848Y-58954529D01*
X66416267Y-58953281D01*
X66436184Y-58952164D01*
X66465056Y-58951222D01*
X66501339Y-58950496D01*
X66543489Y-58950030D01*
X66589961Y-58949865D01*
X66773622Y-58949865D01*
X66795712Y-59013943D01*
X66797817Y-59020061D01*
X66807021Y-59046986D01*
X66819556Y-59083830D01*
X66834926Y-59129122D01*
X66852632Y-59181387D01*
X66872176Y-59239153D01*
X66893060Y-59300947D01*
X66914786Y-59365296D01*
X66936857Y-59430727D01*
X66958774Y-59495766D01*
X66980040Y-59558942D01*
X67000156Y-59618779D01*
X67011301Y-59652641D01*
X67030927Y-59716366D01*
X67046891Y-59774133D01*
X67058852Y-59824569D01*
X67066469Y-59866300D01*
X67069403Y-59897955D01*
X67070490Y-59918143D01*
X67073188Y-59932559D01*
X67076783Y-59935627D01*
X67080620Y-59926977D01*
X67084047Y-59906239D01*
X67087306Y-59880219D01*
X67101161Y-59801973D01*
X67121935Y-59717982D01*
X67150096Y-59626255D01*
X67154071Y-59614317D01*
X67168666Y-59570659D01*
X67185132Y-59521638D01*
X67203050Y-59468483D01*
X67221999Y-59412422D01*
X67241563Y-59354685D01*
X67261320Y-59296503D01*
X67280853Y-59239103D01*
X67299741Y-59183715D01*
X67317567Y-59131570D01*
X67333910Y-59083895D01*
X67348352Y-59041920D01*
X67360474Y-59006875D01*
X67369856Y-58979990D01*
X67376080Y-58962492D01*
X67378726Y-58955613D01*
X67379487Y-58955264D01*
X67389435Y-58954140D01*
X67409342Y-58953094D01*
X67437338Y-58952146D01*
X67471549Y-58951312D01*
X67510106Y-58950612D01*
X67551136Y-58950064D01*
X67592767Y-58949686D01*
X67633129Y-58949495D01*
X67670349Y-58949511D01*
G37*
G36*
X69034309Y-59498025D02*
G01*
X69038798Y-59603150D01*
X69038730Y-59618480D01*
X69034519Y-59708172D01*
X69023442Y-59788904D01*
X69005011Y-59862264D01*
X68978742Y-59929834D01*
X68944150Y-59993200D01*
X68900749Y-60053946D01*
X68893082Y-60063201D01*
X68846342Y-60109561D01*
X68789982Y-60151711D01*
X68726137Y-60188545D01*
X68656944Y-60218956D01*
X68584539Y-60241833D01*
X68511057Y-60256071D01*
X68496846Y-60257578D01*
X68462662Y-60259748D01*
X68420863Y-60261119D01*
X68374604Y-60261694D01*
X68327039Y-60261472D01*
X68281324Y-60260454D01*
X68240613Y-60258640D01*
X68208060Y-60256031D01*
X68172478Y-60251326D01*
X68089973Y-60234678D01*
X68009699Y-60210887D01*
X67936365Y-60181247D01*
X67919173Y-60173159D01*
X67919173Y-60036629D01*
X67919323Y-59998769D01*
X67920038Y-59955777D01*
X67921339Y-59924922D01*
X67923219Y-59906324D01*
X67925673Y-59900098D01*
X67927716Y-59900400D01*
X67939474Y-59904559D01*
X67955590Y-59912044D01*
X67972038Y-59919686D01*
X68005240Y-59932839D01*
X68045024Y-59946721D01*
X68087966Y-59960218D01*
X68130639Y-59972217D01*
X68169619Y-59981605D01*
X68192765Y-59986208D01*
X68222873Y-59990804D01*
X68254734Y-59993781D01*
X68291927Y-59995445D01*
X68338026Y-59996104D01*
X68342385Y-59996125D01*
X68380952Y-59996115D01*
X68409880Y-59995523D01*
X68431772Y-59994099D01*
X68449234Y-59991592D01*
X68464873Y-59987751D01*
X68481293Y-59982326D01*
X68519795Y-59965693D01*
X68568849Y-59933649D01*
X68609439Y-59892539D01*
X68641386Y-59842606D01*
X68664508Y-59784093D01*
X68678627Y-59717241D01*
X68682627Y-59687546D01*
X68265757Y-59687546D01*
X67848888Y-59687546D01*
X67852034Y-59532820D01*
X67852136Y-59527861D01*
X67853295Y-59478331D01*
X67854580Y-59439559D01*
X68181738Y-59439559D01*
X68182341Y-59441897D01*
X68185182Y-59444115D01*
X68191410Y-59445889D01*
X68202163Y-59447269D01*
X68218583Y-59448303D01*
X68241807Y-59449039D01*
X68272976Y-59449527D01*
X68313230Y-59449816D01*
X68363707Y-59449953D01*
X68425548Y-59449988D01*
X68669357Y-59449988D01*
X68669265Y-59429670D01*
X68668976Y-59422524D01*
X68665058Y-59394409D01*
X68657615Y-59361940D01*
X68647995Y-59330412D01*
X68637546Y-59305117D01*
X68625668Y-59285350D01*
X68598548Y-59252263D01*
X68566129Y-59222996D01*
X68532614Y-59201694D01*
X68529159Y-59200022D01*
X68513159Y-59192997D01*
X68498177Y-59188470D01*
X68480834Y-59185893D01*
X68457751Y-59184723D01*
X68425548Y-59184413D01*
X68421559Y-59184409D01*
X68390280Y-59184705D01*
X68367728Y-59185975D01*
X68350493Y-59188741D01*
X68335169Y-59193525D01*
X68318346Y-59200851D01*
X68317881Y-59201070D01*
X68274948Y-59228077D01*
X68239449Y-59264456D01*
X68213069Y-59308482D01*
X68208614Y-59319256D01*
X68198616Y-59349387D01*
X68190021Y-59382755D01*
X68184004Y-59414448D01*
X68181738Y-59439559D01*
X67854580Y-59439559D01*
X67854596Y-59439071D01*
X67856206Y-59408026D01*
X67858295Y-59383144D01*
X67861030Y-59362374D01*
X67864582Y-59343662D01*
X67869119Y-59324957D01*
X67870506Y-59319758D01*
X67897359Y-59242182D01*
X67933584Y-59171670D01*
X67978556Y-59108976D01*
X68031647Y-59054855D01*
X68092230Y-59010060D01*
X68159679Y-58975347D01*
X68186906Y-58964516D01*
X68229371Y-58950236D01*
X68271223Y-58940085D01*
X68315707Y-58933494D01*
X68366067Y-58929894D01*
X68425548Y-58928717D01*
X68426758Y-58928714D01*
X68490741Y-58929981D01*
X68545499Y-58934347D01*
X68593984Y-58942293D01*
X68639147Y-58954300D01*
X68683940Y-58970850D01*
X68753277Y-59004736D01*
X68820476Y-59049762D01*
X68878584Y-59103139D01*
X68927646Y-59164945D01*
X68967706Y-59235258D01*
X68998807Y-59314157D01*
X69020993Y-59401720D01*
X69027667Y-59449988D01*
X69034309Y-59498025D01*
G37*
G36*
X70581527Y-59370318D02*
G01*
X70573120Y-59459365D01*
X70559104Y-59524357D01*
X70530279Y-59607815D01*
X70490486Y-59686128D01*
X70440255Y-59758559D01*
X70380118Y-59824371D01*
X70310603Y-59882827D01*
X70232242Y-59933189D01*
X70204110Y-59948878D01*
X70200984Y-60236616D01*
X70200713Y-60261476D01*
X70199988Y-60324904D01*
X70199301Y-60377352D01*
X70198590Y-60419949D01*
X70197797Y-60453825D01*
X70196863Y-60480108D01*
X70195729Y-60499928D01*
X70194334Y-60514414D01*
X70192620Y-60524696D01*
X70190527Y-60531903D01*
X70187997Y-60537164D01*
X70184969Y-60541608D01*
X70178884Y-60549223D01*
X70150833Y-60573978D01*
X70118947Y-60587755D01*
X70113093Y-60588583D01*
X70094360Y-60589806D01*
X70065867Y-60590839D01*
X70029326Y-60591680D01*
X69986448Y-60592329D01*
X69938945Y-60592784D01*
X69888529Y-60593045D01*
X69836910Y-60593111D01*
X69785801Y-60592981D01*
X69736912Y-60592654D01*
X69691957Y-60592129D01*
X69652645Y-60591406D01*
X69620690Y-60590482D01*
X69597801Y-60589359D01*
X69585692Y-60588033D01*
X69562993Y-60580379D01*
X69534240Y-60561431D01*
X69514042Y-60535648D01*
X69503369Y-60505074D01*
X69503188Y-60471753D01*
X69514469Y-60437731D01*
X69515630Y-60435519D01*
X69532742Y-60412065D01*
X69556838Y-60395533D01*
X69559584Y-60394161D01*
X69567686Y-60390478D01*
X69576315Y-60387585D01*
X69586967Y-60385389D01*
X69601139Y-60383792D01*
X69620329Y-60382700D01*
X69646033Y-60382017D01*
X69679749Y-60381648D01*
X69722974Y-60381496D01*
X69777204Y-60381467D01*
X69969677Y-60381467D01*
X69969677Y-60194736D01*
X69969677Y-60008006D01*
X69886845Y-60004773D01*
X69872431Y-60004103D01*
X69809742Y-59998021D01*
X69752379Y-59986252D01*
X69695739Y-59967631D01*
X69635220Y-59940991D01*
X69620406Y-59933575D01*
X69545334Y-59888173D01*
X69478591Y-59834408D01*
X69420464Y-59773329D01*
X69371240Y-59705987D01*
X69331204Y-59633430D01*
X69300643Y-59556707D01*
X69279843Y-59476869D01*
X69269091Y-59394965D01*
X69268804Y-59337956D01*
X69574589Y-59337956D01*
X69577688Y-59398855D01*
X69591800Y-59459978D01*
X69617531Y-59520105D01*
X69643202Y-59558682D01*
X69680850Y-59598948D01*
X69725552Y-59634691D01*
X69774454Y-59663659D01*
X69824699Y-59683597D01*
X69877729Y-59694861D01*
X69941743Y-59697209D01*
X70004754Y-59687388D01*
X70065784Y-59665567D01*
X70123851Y-59631916D01*
X70137039Y-59622179D01*
X70183649Y-59578448D01*
X70220728Y-59527575D01*
X70247750Y-59470892D01*
X70264188Y-59409735D01*
X70269514Y-59345434D01*
X70263202Y-59279324D01*
X70254101Y-59242703D01*
X70230546Y-59186889D01*
X70197359Y-59136599D01*
X70155924Y-59092804D01*
X70107621Y-59056475D01*
X70053832Y-59028583D01*
X69995938Y-59010100D01*
X69935321Y-59001996D01*
X69873362Y-59005244D01*
X69810350Y-59020410D01*
X69753328Y-59045585D01*
X69703076Y-59079522D01*
X69660201Y-59121002D01*
X69625309Y-59168805D01*
X69599005Y-59221712D01*
X69581897Y-59278502D01*
X69574589Y-59337956D01*
X69268804Y-59337956D01*
X69268673Y-59312044D01*
X69278874Y-59229155D01*
X69299983Y-59147349D01*
X69332284Y-59067674D01*
X69376065Y-58991180D01*
X69388360Y-58972490D01*
X69400883Y-58952887D01*
X69409123Y-58939279D01*
X69411721Y-58933848D01*
X69405994Y-58931381D01*
X69390816Y-58925411D01*
X69368565Y-58916871D01*
X69341603Y-58906675D01*
X69334394Y-58903935D01*
X69295357Y-58887445D01*
X69266725Y-58871543D01*
X69246841Y-58854892D01*
X69234051Y-58836160D01*
X69226700Y-58814010D01*
X69224724Y-58779767D01*
X69233908Y-58746463D01*
X69253733Y-58717929D01*
X69283261Y-58696119D01*
X69284027Y-58695724D01*
X69297672Y-58690337D01*
X69313088Y-58687963D01*
X69331899Y-58688910D01*
X69355730Y-58693483D01*
X69386209Y-58701989D01*
X69424958Y-58714735D01*
X69473605Y-58732028D01*
X69487193Y-58736958D01*
X69525398Y-58750676D01*
X69554130Y-58760595D01*
X69575111Y-58767162D01*
X69590064Y-58770819D01*
X69600710Y-58772012D01*
X69608772Y-58771186D01*
X69615971Y-58768785D01*
X69628596Y-58763580D01*
X69681184Y-58742640D01*
X69725760Y-58726563D01*
X69764931Y-58714738D01*
X69801302Y-58706558D01*
X69837477Y-58701412D01*
X69876063Y-58698692D01*
X69919665Y-58697789D01*
X69934489Y-58697837D01*
X70013071Y-58702434D01*
X70085151Y-58714924D01*
X70153994Y-58736048D01*
X70222865Y-58766546D01*
X70263648Y-58789053D01*
X70335959Y-58839336D01*
X70400005Y-58898075D01*
X70455266Y-58964239D01*
X70501219Y-59036795D01*
X70537343Y-59114713D01*
X70563117Y-59196961D01*
X70578019Y-59282506D01*
X70580533Y-59345434D01*
X70581527Y-59370318D01*
G37*
G36*
X64548772Y-59632362D02*
G01*
X64539011Y-59716666D01*
X64517850Y-59800508D01*
X64484853Y-59882925D01*
X64469210Y-59913424D01*
X64421830Y-59987804D01*
X64365377Y-60055015D01*
X64301004Y-60114201D01*
X64229862Y-60164503D01*
X64153103Y-60205063D01*
X64071877Y-60235024D01*
X63987337Y-60253528D01*
X63906937Y-60260664D01*
X63816273Y-60257560D01*
X63728260Y-60242625D01*
X63643727Y-60216127D01*
X63563507Y-60178335D01*
X63488431Y-60129518D01*
X63419330Y-60069943D01*
X63367333Y-60012405D01*
X63317309Y-59940917D01*
X63277714Y-59864750D01*
X63248576Y-59785017D01*
X63229924Y-59702827D01*
X63222057Y-59622060D01*
X63558474Y-59622060D01*
X63568708Y-59682026D01*
X63589724Y-59738552D01*
X63620748Y-59790286D01*
X63661005Y-59835879D01*
X63709719Y-59873979D01*
X63766117Y-59903236D01*
X63793324Y-59912078D01*
X63836863Y-59920356D01*
X63883385Y-59923946D01*
X63928167Y-59922550D01*
X63966485Y-59915869D01*
X64024026Y-59894241D01*
X64077844Y-59862137D01*
X64123826Y-59821580D01*
X64161103Y-59773697D01*
X64188806Y-59719617D01*
X64206065Y-59660467D01*
X64212011Y-59597375D01*
X64210417Y-59564833D01*
X64198784Y-59504952D01*
X64176845Y-59449701D01*
X64145754Y-59400056D01*
X64106665Y-59356997D01*
X64060731Y-59321502D01*
X64009105Y-59294550D01*
X63952943Y-59277118D01*
X63893396Y-59270187D01*
X63831619Y-59274733D01*
X63790053Y-59284758D01*
X63733822Y-59308484D01*
X63683090Y-59341973D01*
X63639179Y-59383891D01*
X63603413Y-59432905D01*
X63577115Y-59487682D01*
X63561608Y-59546886D01*
X63559798Y-59560002D01*
X63558474Y-59622060D01*
X63222057Y-59622060D01*
X63221788Y-59619294D01*
X63224196Y-59535529D01*
X63237177Y-59452643D01*
X63260761Y-59371748D01*
X63294976Y-59293957D01*
X63339851Y-59220380D01*
X63395415Y-59152129D01*
X63427863Y-59119383D01*
X63497096Y-59061181D01*
X63570841Y-59013689D01*
X63648164Y-58977466D01*
X63728131Y-58953069D01*
X63772507Y-58943042D01*
X63776807Y-58813608D01*
X63777743Y-58786954D01*
X63780745Y-58719591D01*
X63784498Y-58662407D01*
X63789284Y-58613691D01*
X63795383Y-58571732D01*
X63803076Y-58534819D01*
X63812644Y-58501240D01*
X63824367Y-58469283D01*
X63838525Y-58437238D01*
X63849536Y-58415305D01*
X63865599Y-58388983D01*
X63885066Y-58364389D01*
X63911260Y-58336939D01*
X63918736Y-58329678D01*
X63953954Y-58299511D01*
X63992116Y-58273743D01*
X64034579Y-58251916D01*
X64082701Y-58233572D01*
X64137838Y-58218253D01*
X64201349Y-58205500D01*
X64274591Y-58194856D01*
X64358922Y-58185862D01*
X64369272Y-58185015D01*
X64390345Y-58183744D01*
X64416805Y-58182640D01*
X64449301Y-58181697D01*
X64488478Y-58180910D01*
X64534983Y-58180275D01*
X64589464Y-58179785D01*
X64652567Y-58179436D01*
X64724938Y-58179221D01*
X64807225Y-58179136D01*
X64900074Y-58179176D01*
X65004133Y-58179335D01*
X65120047Y-58179607D01*
X65147160Y-58179676D01*
X65251102Y-58179876D01*
X65347496Y-58179954D01*
X65435848Y-58179912D01*
X65515661Y-58179753D01*
X65586440Y-58179481D01*
X65647689Y-58179099D01*
X65698914Y-58178609D01*
X65739617Y-58178014D01*
X65769305Y-58177318D01*
X65787481Y-58176522D01*
X65793650Y-58175631D01*
X65793654Y-58175375D01*
X65798079Y-58163170D01*
X65809392Y-58145056D01*
X65825485Y-58123663D01*
X65844254Y-58101621D01*
X65863593Y-58081556D01*
X65881394Y-58066100D01*
X65918243Y-58042090D01*
X65960876Y-58023996D01*
X66007551Y-58014653D01*
X66061474Y-58013117D01*
X66083728Y-58014081D01*
X66107663Y-58016246D01*
X66126900Y-58020323D01*
X66146012Y-58027384D01*
X66169570Y-58038503D01*
X66205593Y-58059575D01*
X66247837Y-58095070D01*
X66281035Y-58136501D01*
X66305179Y-58182415D01*
X66320265Y-58231365D01*
X66326285Y-58281899D01*
X66323233Y-58332568D01*
X66311104Y-58381922D01*
X66289891Y-58428511D01*
X66259589Y-58470884D01*
X66220190Y-58507592D01*
X66171689Y-58537184D01*
X66128343Y-58553700D01*
X66073859Y-58563605D01*
X66019161Y-58562808D01*
X65965970Y-58551865D01*
X65916004Y-58531332D01*
X65870984Y-58501765D01*
X65832630Y-58463723D01*
X65802660Y-58417760D01*
X65786816Y-58386492D01*
X65088498Y-58389059D01*
X65054883Y-58389183D01*
X64943438Y-58389621D01*
X64843520Y-58390072D01*
X64754364Y-58390566D01*
X64675209Y-58391130D01*
X64605292Y-58391793D01*
X64543851Y-58392583D01*
X64490124Y-58393527D01*
X64443347Y-58394654D01*
X64402758Y-58395991D01*
X64367595Y-58397568D01*
X64337096Y-58399412D01*
X64310498Y-58401551D01*
X64287038Y-58404013D01*
X64265954Y-58406826D01*
X64246484Y-58410019D01*
X64227865Y-58413620D01*
X64209335Y-58417655D01*
X64190130Y-58422155D01*
X64173573Y-58426316D01*
X64132529Y-58439014D01*
X64098046Y-58454313D01*
X64069546Y-58473305D01*
X64046447Y-58497081D01*
X64028170Y-58526735D01*
X64014135Y-58563358D01*
X64003763Y-58608043D01*
X63996474Y-58661882D01*
X63991688Y-58725967D01*
X63988825Y-58801391D01*
X63988653Y-58808082D01*
X63987563Y-58852196D01*
X63986920Y-58885521D01*
X63986823Y-58909572D01*
X63987366Y-58925858D01*
X63988645Y-58935894D01*
X63990758Y-58941190D01*
X63993799Y-58943259D01*
X63997865Y-58943613D01*
X64001694Y-58943957D01*
X64017370Y-58946971D01*
X64039960Y-58952421D01*
X64065963Y-58959490D01*
X64115494Y-58975758D01*
X64195707Y-59011723D01*
X64268888Y-59056854D01*
X64334600Y-59110189D01*
X64392407Y-59170765D01*
X64441871Y-59237619D01*
X64482556Y-59309788D01*
X64514026Y-59386310D01*
X64535843Y-59466221D01*
X64547571Y-59548560D01*
X64548271Y-59597375D01*
X64548772Y-59632362D01*
G37*
X62315000Y-95460000D02*
X62740000Y-95460000D01*
X68310000Y-95460000D02*
X68310000Y-97000000D01*
X68735000Y-95460000D02*
X68310000Y-95460000D01*
X62315000Y-92700000D02*
X62315000Y-95460000D01*
X62315000Y-92700000D02*
X62315000Y-89940000D01*
X68735000Y-92700000D02*
X68735000Y-95460000D01*
X68735000Y-92700000D02*
X68735000Y-89940000D01*
X62315000Y-89940000D02*
X62740000Y-89940000D01*
X68735000Y-89940000D02*
X68310000Y-89940000D01*
X56235000Y-96542164D02*
X56235000Y-96757836D01*
X55515000Y-96542164D02*
X55515000Y-96757836D01*
X67200000Y-123750000D02*
G75*
G03*
X65300000Y-123750000I-950000J0D01*
G01*
X65300000Y-123750000D02*
G75*
G03*
X67200000Y-123750000I950000J0D01*
G01*
X60555000Y-96596359D02*
X60555000Y-96903641D01*
X59795000Y-96596359D02*
X59795000Y-96903641D01*
X54215000Y-93145336D02*
X54215000Y-92929664D01*
X54935000Y-93145336D02*
X54935000Y-92929664D01*
X38935000Y-111990000D02*
X38285000Y-111990000D01*
X38935000Y-111990000D02*
X39585000Y-111990000D01*
X38935000Y-115110000D02*
X37260000Y-115110000D01*
X38935000Y-115110000D02*
X39585000Y-115110000D01*
X57788000Y-87933641D02*
X57788000Y-87626359D01*
X58548000Y-87933641D02*
X58548000Y-87626359D01*
X58597000Y-81851000D02*
X58597000Y-76341000D01*
X61897000Y-81851000D02*
X58597000Y-81851000D01*
X61897000Y-81851000D02*
X61897000Y-76341000D01*
X53666359Y-110695000D02*
X53973641Y-110695000D01*
X53666359Y-111455000D02*
X53973641Y-111455000D01*
X78062500Y-124614762D02*
X77462500Y-124614762D01*
X76762500Y-125264762D02*
X76762500Y-128064762D01*
X78762500Y-128064762D02*
X78762500Y-125264762D01*
X77462500Y-128714762D02*
X78062500Y-128714762D01*
X78762500Y-125314762D02*
G75*
G03*
X78062500Y-124614762I-699999J1D01*
G01*
X77462500Y-124614762D02*
G75*
G03*
X76762500Y-125314762I-1J-699999D01*
G01*
X78062500Y-128714762D02*
G75*
G03*
X78762500Y-128014762I0J700000D01*
G01*
X76762500Y-128014762D02*
G75*
G03*
X77462500Y-128714762I700000J0D01*
G01*
X73607836Y-90060000D02*
X73392164Y-90060000D01*
X73607836Y-89340000D02*
X73392164Y-89340000D01*
X53973641Y-112705000D02*
X53666359Y-112705000D01*
X53973641Y-111945000D02*
X53666359Y-111945000D01*
X57335000Y-96542164D02*
X57335000Y-96757836D01*
X56615000Y-96542164D02*
X56615000Y-96757836D01*
X62216359Y-85847000D02*
X62523641Y-85847000D01*
X62216359Y-86607000D02*
X62523641Y-86607000D01*
X52735000Y-87225000D02*
X52735000Y-86575000D01*
X52735000Y-87225000D02*
X52735000Y-87875000D01*
X49615000Y-87225000D02*
X49615000Y-85550000D01*
X49615000Y-87225000D02*
X49615000Y-87875000D01*
X64353641Y-106105000D02*
X64046359Y-106105000D01*
X64353641Y-105345000D02*
X64046359Y-105345000D01*
X79310000Y-69922164D02*
X79310000Y-70137836D01*
X78590000Y-69922164D02*
X78590000Y-70137836D01*
X57615000Y-102650000D02*
X57615000Y-103300000D01*
X57615000Y-102650000D02*
X57615000Y-102000000D01*
X60735000Y-102650000D02*
X60735000Y-104325000D01*
X60735000Y-102650000D02*
X60735000Y-102000000D01*
X76060000Y-94100000D02*
X76060000Y-92150000D01*
X76060000Y-94100000D02*
X76060000Y-96050000D01*
X70940000Y-94100000D02*
X70940000Y-90650000D01*
X70940000Y-94100000D02*
X70940000Y-96050000D01*
X64521000Y-81633500D02*
X64521000Y-77723500D01*
X66391000Y-81633500D02*
X64521000Y-81633500D01*
X66391000Y-77723500D02*
X66391000Y-81633500D01*
X49895001Y-93091141D02*
X49895001Y-92783859D01*
X50655001Y-93091141D02*
X50655001Y-92783859D01*
D14*
X62885000Y-82737000D02*
G75*
G03*
X61585000Y-82737000I-650000J0D01*
G01*
X61585000Y-82737000D02*
G75*
G03*
X62885000Y-82737000I650000J0D01*
G01*
D13*
X61187000Y-82011000D02*
X61187000Y-86021000D01*
X59187000Y-82011000D02*
X61187000Y-82011000D01*
X59187000Y-82011000D02*
X59187000Y-86021000D01*
X79260000Y-73640000D02*
X79260000Y-72840000D01*
X79260000Y-73640000D02*
X79260000Y-74440000D01*
X76140000Y-73640000D02*
X76140000Y-71840000D01*
X76140000Y-73640000D02*
X76140000Y-74440000D01*
X55815000Y-94457836D02*
X55815000Y-94242164D01*
X56535000Y-94457836D02*
X56535000Y-94242164D01*
X94280000Y-69720000D02*
X94280000Y-82720000D01*
X84490000Y-69750000D02*
X94280000Y-69720000D01*
X80390000Y-69750000D02*
X84490000Y-69750000D01*
X80390000Y-72100000D02*
X80390000Y-69750000D01*
X80400000Y-79700000D02*
X81030000Y-79700000D01*
X84490000Y-82750000D02*
X94280000Y-82720000D01*
X84490000Y-82750000D02*
X84000000Y-82750000D01*
X84000000Y-82750000D02*
X80400000Y-82750000D01*
X80400000Y-82750000D02*
X80400000Y-79700000D01*
X70085000Y-89492164D02*
X70085000Y-89707836D01*
X69365000Y-89492164D02*
X69365000Y-89707836D01*
X73140000Y-104032836D02*
X73140000Y-103817164D01*
X73860000Y-104032836D02*
X73860000Y-103817164D01*
X66507836Y-107685000D02*
X66292164Y-107685000D01*
X66507836Y-106965000D02*
X66292164Y-106965000D01*
X59121359Y-98470000D02*
X59428641Y-98470000D01*
X59121359Y-99230000D02*
X59428641Y-99230000D01*
X50745000Y-102341141D02*
X50745000Y-102033859D01*
X51505000Y-102341141D02*
X51505000Y-102033859D01*
X50190000Y-97437500D02*
X50190000Y-98937500D01*
X50190000Y-97437500D02*
X50190000Y-95937500D01*
X53410000Y-97437500D02*
X53410000Y-100362500D01*
X53410000Y-97437500D02*
X53410000Y-95937500D01*
X69100000Y-106485000D02*
X71050000Y-106485000D01*
X69100000Y-106485000D02*
X67150000Y-106485000D01*
X69100000Y-101365000D02*
X72550000Y-101365000D01*
X69100000Y-101365000D02*
X67150000Y-101365000D01*
X42877500Y-113796359D02*
X42877500Y-114103641D01*
X42117500Y-113796359D02*
X42117500Y-114103641D01*
X72780001Y-98846359D02*
X72780001Y-99153641D01*
X72020001Y-98846359D02*
X72020001Y-99153641D01*
X58222000Y-74831000D02*
X58222000Y-80341000D01*
X54922000Y-74831000D02*
X58222000Y-74831000D01*
X54922000Y-74831000D02*
X54922000Y-80341000D01*
D14*
X59650000Y-66450000D02*
G75*
G03*
X58350000Y-66450000I-650000J0D01*
G01*
X58350000Y-66450000D02*
G75*
G03*
X59650000Y-66450000I650000J0D01*
G01*
D13*
X44751141Y-115230000D02*
X44443859Y-115230000D01*
X44751141Y-114470000D02*
X44443859Y-114470000D01*
X54635000Y-95229664D02*
X54635000Y-95445336D01*
X53915000Y-95229664D02*
X53915000Y-95445336D01*
D15*
X85662000Y-98025000D02*
X83562000Y-98025000D01*
X91562000Y-98025000D02*
X88662000Y-98025000D01*
X94262000Y-98025000D02*
X94262000Y-84925000D01*
X80212000Y-97351000D02*
X80212000Y-96349000D01*
X80212000Y-90601000D02*
X80212000Y-85599000D01*
D11*
X94812000Y-93855000D02*
G75*
G03*
X94612000Y-93855000I-100000J0D01*
G01*
X94612000Y-93855000D02*
G75*
G03*
X94812000Y-93855000I100000J0D01*
G01*
D13*
X60260000Y-92250000D02*
X60260000Y-90750000D01*
X60260000Y-92250000D02*
X60260000Y-93750000D01*
X57040000Y-92250000D02*
X57040000Y-89325000D01*
X57040000Y-92250000D02*
X57040000Y-93750000D01*
M02*
