M48
; DRILL file {KiCad 7.0.10} date Sun Jan 28 15:58:20 2024
; FORMAT={-:-/ absolute / metric / decimal}
; #@! TF.CreationDate,2024-01-28T15:58:20+03:00
; #@! TF.GenerationSoftware,Kicad,Pcbnew,7.0.10
; #@! TF.FileFunction,Plated,1,4,PTH
FMAT,2
METRIC
; #@! TA.AperFunction,Plated,PTH,ViaDrill
T1C0.300
; #@! TA.AperFunction,Plated,PTH,ViaDrill
T2C0.400
; #@! TA.AperFunction,Plated,PTH,ComponentDrill
T3C1.200
; #@! TA.AperFunction,Plated,PTH,ComponentDrill
T4C1.500
; #@! TA.AperFunction,Plated,PTH,ComponentDrill
T5C3.250
%
G90
G05
T1
X36.65Y-114.4
X36.789Y-68.761
X36.789Y-69.561
X36.789Y-70.361
X36.789Y-71.161
X36.789Y-71.961
X36.789Y-72.761
X36.789Y-73.761
X36.789Y-74.561
X36.85Y-112.65
X36.85Y-113.5
X36.889Y-75.261
X36.889Y-76.061
X37.0Y-121.75
X37.0Y-122.75
X37.0Y-124.25
X37.0Y-126.25
X37.05Y-85.1
X37.1Y-87.7
X37.1Y-89.3
X37.1Y-90.6
X37.389Y-60.161
X37.389Y-60.961
X37.389Y-61.761
X37.389Y-62.561
X37.389Y-63.361
X37.389Y-64.161
X37.389Y-64.861
X37.389Y-65.561
X37.389Y-66.361
X37.389Y-67.161
X37.389Y-67.961
X37.5Y-125.25
X37.812Y-69.699
X37.889Y-72.761
X37.889Y-73.761
X37.889Y-74.561
X37.908Y-70.662
X37.989Y-75.261
X38.0Y-59.4
X38.139Y-60.161
X38.139Y-60.961
X38.139Y-61.761
X38.139Y-62.561
X38.139Y-63.361
X38.139Y-64.161
X38.139Y-64.861
X38.139Y-65.561
X38.139Y-66.361
X38.139Y-67.161
X38.139Y-67.961
X38.2Y-85.11
X38.2Y-91.0
X38.2Y-109.8
X38.3Y-87.7
X38.3Y-89.0
X38.3Y-121.5
X38.4Y-116.8
X38.5Y-108.0
X38.7Y-119.8
X38.789Y-70.67
X38.812Y-69.699
X38.889Y-58.561
X38.889Y-59.361
X38.889Y-60.961
X38.889Y-61.761
X38.889Y-62.561
X38.889Y-63.361
X38.889Y-64.161
X38.889Y-64.861
X38.889Y-65.561
X38.889Y-66.361
X38.889Y-67.161
X38.889Y-67.961
X38.889Y-72.761
X38.889Y-73.761
X38.889Y-74.561
X39.0Y-111.2
X39.0Y-124.5
X39.1Y-60.2
X39.639Y-58.561
X39.639Y-61.761
X39.639Y-64.161
X39.639Y-64.861
X39.639Y-65.561
X39.639Y-66.361
X39.639Y-67.161
X39.639Y-67.961
X39.731Y-61.067
X39.889Y-68.761
X39.889Y-71.961
X39.889Y-72.761
X39.889Y-73.761
X39.889Y-74.561
X40.3Y-123.7
X40.389Y-58.561
X40.389Y-64.161
X40.389Y-64.861
X40.389Y-65.561
X40.389Y-66.361
X40.389Y-67.161
X40.389Y-67.961
X40.43Y-61.089
X40.889Y-68.761
X40.889Y-71.961
X40.889Y-72.761
X40.889Y-73.761
X40.889Y-74.561
X40.889Y-75.261
X41.117Y-71.305
X41.139Y-58.561
X41.139Y-59.361
X41.139Y-64.161
X41.139Y-64.861
X41.139Y-65.561
X41.139Y-66.361
X41.139Y-67.161
X41.139Y-67.961
X41.15Y-61.65
X41.2Y-60.727
X41.604Y-97.504
X41.631Y-69.482
X41.7Y-62.75
X41.889Y-58.561
X41.889Y-59.361
X41.889Y-60.961
X41.889Y-61.761
X41.889Y-64.161
X41.889Y-64.861
X41.889Y-65.561
X41.889Y-66.361
X41.889Y-67.161
X41.889Y-67.961
X41.889Y-68.761
X41.889Y-71.961
X41.889Y-72.761
X41.889Y-73.761
X41.889Y-74.561
X41.889Y-75.261
X42.0Y-123.3
X42.0Y-124.1
X42.0Y-125.0
X42.3Y-60.15
X42.639Y-58.561
X42.639Y-59.361
X42.639Y-60.961
X42.639Y-61.761
X42.639Y-64.161
X42.639Y-64.861
X42.639Y-65.561
X42.639Y-66.361
X42.639Y-67.161
X42.639Y-67.961
X42.714Y-69.422
X42.989Y-68.761
X42.989Y-71.161
X42.989Y-71.961
X42.989Y-72.761
X42.989Y-73.761
X42.989Y-74.561
X43.0Y-123.3
X43.0Y-124.1
X43.0Y-125.0
X43.089Y-75.261
X43.389Y-58.561
X43.389Y-59.361
X43.389Y-60.961
X43.389Y-61.761
X43.389Y-64.161
X43.389Y-64.861
X43.389Y-65.561
X43.389Y-66.361
X43.389Y-67.161
X43.389Y-67.961
X43.557Y-69.414
X43.75Y-129.25
X43.889Y-68.761
X43.889Y-71.161
X43.889Y-71.961
X43.889Y-72.761
X43.889Y-73.761
X43.889Y-74.561
X43.989Y-75.261
X44.139Y-58.561
X44.139Y-59.361
X44.139Y-60.961
X44.139Y-61.761
X44.189Y-64.161
X44.189Y-64.861
X44.189Y-65.561
X44.189Y-66.361
X44.189Y-67.161
X44.189Y-67.961
X44.2Y-123.3
X44.362Y-69.392
X44.789Y-68.761
X44.789Y-71.161
X44.789Y-71.961
X44.789Y-72.761
X44.789Y-73.761
X44.789Y-74.561
X44.789Y-75.261
X44.889Y-58.561
X44.889Y-59.361
X44.889Y-61.761
X44.989Y-64.161
X44.989Y-64.861
X44.989Y-65.561
X44.989Y-66.361
X44.989Y-67.161
X44.989Y-67.961
X45.0Y-123.3
X45.04Y-97.68
X45.1Y-63.361
X45.385Y-69.264
X45.639Y-58.561
X45.639Y-59.361
X45.708Y-75.207
X45.711Y-71.07
X45.727Y-71.982
X45.738Y-74.465
X45.789Y-64.861
X45.789Y-65.561
X45.789Y-66.361
X45.789Y-67.161
X45.789Y-67.961
X45.789Y-68.761
X45.789Y-72.961
X45.789Y-73.761
X45.978Y-64.084
X46.28Y-69.309
X46.468Y-66.3
X46.48Y-67.248
X46.589Y-63.361
X46.589Y-67.961
X46.589Y-68.761
X46.589Y-71.961
X46.589Y-72.961
X46.589Y-73.761
X46.589Y-74.561
X46.6Y-113.4
X46.7Y-116.6
X46.725Y-118.2
X46.75Y-129.5
X47.053Y-69.482
X47.248Y-65.92
X47.25Y-128.5
X47.389Y-63.361
X47.389Y-67.961
X47.389Y-68.761
X47.389Y-71.961
X47.389Y-72.961
X47.389Y-73.761
X47.5Y-113.5
X47.5Y-117.25
X47.5Y-118.25
X47.5Y-121.5
X47.55Y-116.15
X47.55Y-120.625
X47.588Y-70.85
X47.75Y-69.65
X48.0Y-129.5
X48.117Y-72.582
X48.189Y-73.361
X48.189Y-74.061
X48.202Y-68.804
X48.219Y-71.702
X48.25Y-115.25
X48.25Y-128.25
X48.252Y-112.758
X48.3Y-114.15
X48.308Y-67.913
X48.4Y-110.75
X48.411Y-70.85
X48.47Y-108.01
X48.5Y-109.5
X48.5Y-118.0
X48.5Y-119.0
X48.5Y-120.0
X48.5Y-121.0
X48.5Y-121.75
X48.512Y-65.885
X48.55Y-116.9
X48.615Y-69.65
X48.615Y-77.502
X48.647Y-63.226
X48.75Y-76.45
X48.973Y-104.15
X49.0Y-106.8
X49.05Y-85.451
X49.25Y-128.5
X49.4Y-64.8
X49.5Y-118.5
X49.5Y-119.5
X49.5Y-120.5
X49.5Y-121.5
X49.5Y-122.25
X49.55Y-117.4
X49.7Y-83.341
X49.89Y-95.44
X49.95Y-65.55
X50.0Y-123.0
X50.05Y-59.65
X50.127Y-82.658
X50.5Y-114.099
X50.5Y-118.5
X50.5Y-119.5
X50.5Y-120.5
X50.5Y-121.5
X50.5Y-122.25
X50.5Y-128.25
X50.5Y-129.25
X50.55Y-117.4
X50.65Y-64.8
X50.743Y-91.969
X50.786Y-103.438
X50.8Y-108.8
X50.85Y-98.3
X51.0Y-123.0
X51.2Y-116.8
X51.25Y-126.75
X51.3Y-79.9
X51.35Y-66.0
X51.389Y-58.361
X51.389Y-60.961
X51.5Y-67.95
X51.65Y-90.15
X51.75Y-118.5
X51.75Y-119.5
X51.75Y-120.5
X51.75Y-121.5
X51.75Y-122.25
X51.8Y-117.4
X51.9Y-129.1
X52.0Y-123.0
X52.0Y-127.25
X52.0Y-128.25
X52.05Y-66.5
X52.187Y-114.113
X52.25Y-126.5
X52.436Y-105.285
X52.5Y-70.05
X52.55Y-72.35
X52.65Y-60.8
X52.75Y-118.5
X52.75Y-119.5
X52.75Y-120.5
X52.75Y-121.5
X52.75Y-122.25
X52.75Y-123.0
X52.8Y-117.4
X52.8Y-127.3
X53.089Y-58.361
X53.15Y-67.6
X53.244Y-96.55
X53.433Y-61.144
X53.5Y-70.05
X53.55Y-72.35
X53.643Y-61.916
X54.2Y-84.65
X54.5Y-70.05
X54.55Y-72.35
X54.8Y-96.55
X54.822Y-90.918
X54.989Y-58.361
X55.1Y-110.75
X55.25Y-60.05
X55.415Y-84.65
X55.449Y-88.85
X55.45Y-65.775
X55.6Y-126.7
X55.7Y-66.65
X55.85Y-70.6
X55.95Y-72.45
X56.05Y-73.8
X56.094Y-62.291
X56.135Y-105.956
X56.2Y-60.296
X56.35Y-89.054
X56.5Y-58.3
X56.55Y-84.75
X56.6Y-117.0
X56.6Y-118.2
X56.6Y-119.2
X56.8Y-106.4
X56.8Y-101.793
X57.0Y-123.8
X57.2Y-114.95
X57.4Y-70.55
X57.4Y-72.45
X57.4Y-73.8
X57.452Y-59.988
X57.6Y-117.0
X57.6Y-118.2
X57.6Y-119.4
X57.726Y-66.886
X57.75Y-84.8
X57.794Y-58.326
X57.9Y-123.9
X57.95Y-60.875
X57.95Y-65.854
X58.0Y-127.374
X58.0Y-128.2
X58.0Y-129.6
X58.1Y-96.575
X58.1Y-121.1
X58.1Y-122.0
X58.1Y-123.2
X58.1Y-125.1
X58.15Y-104.75
X58.4Y-70.55
X58.4Y-72.45
X58.4Y-73.8
X58.6Y-112.4
X58.75Y-61.0
X58.75Y-61.95
X58.75Y-62.9
X58.75Y-117.0
X58.8Y-84.7
X59.0Y-88.9
X59.0Y-115.25
X59.1Y-124.1
X59.1Y-124.9
X59.25Y-129.5
X59.325Y-103.01
X59.4Y-70.55
X59.4Y-72.45
X59.4Y-73.8
X59.7Y-61.0
X59.7Y-61.95
X59.7Y-62.9
X59.75Y-113.65
X59.85Y-84.7
X60.05Y-104.7
X60.2Y-129.0
X60.251Y-87.8
X60.5Y-115.25
X60.5Y-116.9
X60.55Y-61.0
X60.55Y-61.95
X60.55Y-62.9
X60.85Y-113.2
X60.976Y-106.4
X61.0Y-93.6
X61.15Y-70.55
X61.2Y-94.8
X61.2Y-124.6
X61.3Y-72.55
X61.4Y-73.75
X61.4Y-89.503
X61.4Y-97.2
X61.4Y-129.6
X61.5Y-110.8
X61.682Y-96.452
X61.968Y-92.575
X62.0Y-106.2
X62.0Y-108.826
X62.05Y-85.1
X62.2Y-103.0
X62.2Y-124.6
X62.3Y-60.9
X62.4Y-73.75
X62.4Y-96.0
X62.4Y-129.6
X62.674Y-105.4
X62.7Y-61.7
X62.75Y-117.0
X62.75Y-118.0
X62.75Y-118.75
X62.75Y-119.5
X62.75Y-120.25
X62.75Y-121.0
X62.8Y-94.7
X63.0Y-103.2
X63.049Y-67.901
X63.076Y-76.384
X63.25Y-79.5
X63.276Y-59.888
X63.4Y-73.75
X63.4Y-124.6
X63.4Y-125.6
X63.4Y-126.8
X63.4Y-127.8
X63.4Y-128.8
X63.4Y-129.6
X63.45Y-58.5
X63.5Y-60.95
X63.5Y-61.75
X63.75Y-84.75
X63.85Y-66.05
X63.896Y-74.694
X64.0Y-75.65
X64.0Y-123.4
X64.05Y-115.349
X64.1Y-79.5
X64.25Y-60.95
X64.3Y-61.75
X64.3Y-124.6
X64.3Y-125.6
X64.3Y-126.8
X64.3Y-127.8
X64.3Y-128.8
X64.3Y-129.6
X64.325Y-107.55
X64.5Y-118.0
X64.5Y-119.4
X64.55Y-84.75
X64.6Y-117.0
X64.74Y-65.89
X64.74Y-66.62
X64.89Y-79.5
X64.896Y-74.694
X64.925Y-91.529
X65.0Y-75.65
X65.05Y-60.95
X65.05Y-61.75
X65.055Y-107.226
X65.1Y-129.6
X65.2Y-120.3
X65.35Y-84.75
X65.35Y-109.7
X65.4Y-98.65
X65.4Y-116.5
X65.5Y-66.62
X65.52Y-65.89
X65.65Y-101.15
X65.746Y-73.744
X65.75Y-112.25
X65.8Y-62.5
X65.8Y-63.15
X65.803Y-99.341
X65.85Y-61.75
X65.896Y-74.694
X65.9Y-58.3
X65.9Y-60.95
X66.0Y-75.65
X66.0Y-128.65
X66.0Y-129.6
X66.1Y-121.7
X66.2Y-111.1
X66.25Y-66.61
X66.25Y-69.65
X66.27Y-65.89
X66.35Y-86.5
X66.446Y-85.494
X66.45Y-87.7
X66.5Y-90.75
X66.65Y-61.7
X66.65Y-62.5
X66.65Y-63.2
X66.7Y-58.75
X66.7Y-59.5
X66.7Y-60.2
X66.7Y-60.9
X66.896Y-74.694
X66.95Y-75.7
X67.0Y-66.6
X67.02Y-65.88
X67.1Y-121.7
X67.2Y-97.6
X67.2Y-112.3
X67.2Y-129.6
X67.25Y-73.535
X67.3Y-76.85
X67.4Y-108.2
X67.46Y-58.73
X67.46Y-59.48
X67.46Y-60.18
X67.46Y-60.88
X67.5Y-61.65
X67.5Y-79.4
X67.55Y-78.45
X67.551Y-98.799
X67.6Y-109.8
X67.7Y-101.221
X67.776Y-87.724
X67.78Y-66.59
X67.8Y-65.87
X68.026Y-62.784
X68.1Y-85.35
X68.1Y-121.7
X68.15Y-91.75
X68.2Y-129.6
X68.25Y-124.75
X68.34Y-63.54
X68.35Y-58.7
X68.35Y-59.45
X68.35Y-60.15
X68.35Y-60.85
X68.35Y-86.55
X68.49Y-65.22
X68.5Y-64.42
X68.599Y-102.0
X68.694Y-98.259
X68.75Y-62.81
X68.8Y-84.2
X68.9Y-65.8
X69.0Y-102.766
X69.001Y-97.4
X69.1Y-58.7
X69.1Y-59.45
X69.1Y-60.15
X69.1Y-60.85
X69.1Y-121.4
X69.19Y-63.52
X69.2Y-99.55
X69.2Y-129.6
X69.26Y-64.42
X69.35Y-65.2
X69.46Y-103.458
X69.55Y-62.73
X69.55Y-123.65
X69.6Y-91.8
X69.75Y-58.7
X69.75Y-59.45
X69.75Y-60.15
X69.75Y-60.85
X69.8Y-65.8
X69.8Y-120.9
X69.87Y-63.72
X69.9Y-84.2
X70.0Y-104.1
X70.05Y-86.75
X70.2Y-98.25
X70.237Y-105.2
X70.4Y-85.4
X70.4Y-120.5
X70.45Y-58.7
X70.45Y-59.45
X70.45Y-60.15
X70.45Y-60.85
X70.599Y-96.85
X70.65Y-91.45
X70.7Y-119.7
X70.701Y-71.58
X70.8Y-92.55
X70.8Y-99.05
X70.825Y-80.273
X71.1Y-93.7
X71.15Y-61.28
X71.189Y-70.661
X71.2Y-62.48
X71.3Y-84.3
X71.5Y-89.5
X71.5Y-100.6
X71.514Y-71.572
X71.75Y-86.6
X71.9Y-61.28
X71.9Y-62.48
X71.9Y-123.05
X72.089Y-70.661
X72.093Y-108.576
X72.255Y-97.806
X72.35Y-79.35
X72.4Y-84.15
X72.489Y-71.621
X72.527Y-93.329
X72.55Y-85.35
X72.55Y-120.453
X72.65Y-61.28
X72.65Y-62.48
X72.8Y-114.4
X72.91Y-100.2
X72.95Y-95.05
X73.05Y-107.95
X73.059Y-110.097
X73.065Y-70.489
X73.2Y-106.2
X73.4Y-122.3
X73.45Y-62.5
X73.482Y-61.28
X73.7Y-86.45
X73.75Y-93.25
X73.8Y-109.7
X73.8Y-110.5
X73.8Y-114.45
X73.85Y-63.25
X73.85Y-83.727
X74.1Y-73.05
X74.1Y-122.9
X74.2Y-120.95
X74.4Y-100.4
X74.4Y-127.965
X74.5Y-58.75
X74.5Y-59.5
X74.5Y-60.2
X74.5Y-63.6
X74.5Y-64.35
X74.5Y-65.05
X74.75Y-102.85
X74.8Y-122.0
X74.93Y-103.63
X74.95Y-106.2
X75.009Y-71.326
X75.05Y-93.45
X75.3Y-109.25
X75.3Y-126.3
X75.35Y-73.1
X75.45Y-58.75
X75.45Y-59.5
X75.45Y-60.2
X75.45Y-63.6
X75.45Y-64.35
X75.45Y-65.05
X75.487Y-119.09
X75.638Y-84.187
X75.829Y-71.371
X75.85Y-102.127
X75.9Y-120.3
X75.978Y-74.281
X76.05Y-78.85
X76.089Y-77.7
X76.1Y-99.45
X76.25Y-60.6
X76.25Y-63.5
X76.3Y-88.6
X76.3Y-89.7
X76.3Y-117.25
X76.4Y-118.0
X76.5Y-80.337
X76.55Y-62.9
X76.55Y-86.95
X76.6Y-106.8
X76.7Y-61.4
X76.705Y-120.695
X76.889Y-77.7
X76.9Y-62.1
X76.9Y-109.25
X77.018Y-104.613
X77.15Y-101.372
X77.275Y-83.075
X77.5Y-61.1
X77.555Y-96.719
X77.573Y-103.83
X77.6Y-106.6
X77.65Y-61.9
X77.689Y-62.65
X77.708Y-115.208
X77.888Y-71.174
X77.9Y-109.25
X78.1Y-93.85
X78.1Y-110.849
X78.35Y-61.1
X78.45Y-115.8
X78.5Y-61.9
X78.5Y-62.7
X78.5Y-116.6
X78.5Y-117.4
X78.557Y-77.443
X78.65Y-80.337
X78.9Y-115.057
X78.95Y-93.7
X79.0Y-91.25
X79.0Y-93.0
X79.212Y-94.799
X79.45Y-89.75
X79.479Y-119.662
X79.5Y-87.8
X79.55Y-86.2
X79.626Y-118.876
X79.75Y-128.25
X79.775Y-102.775
X79.843Y-117.819
X79.9Y-101.85
X79.9Y-125.2
X80.3Y-97.1
X80.302Y-114.913
X80.486Y-123.499
X80.49Y-115.893
X80.513Y-108.417
X80.65Y-100.15
X80.75Y-120.0
X81.2Y-104.0
X81.2Y-123.9
X81.45Y-126.55
X81.487Y-75.416
X81.5Y-94.7
X81.5Y-102.75
X81.5Y-125.1
X81.6Y-101.7
X81.75Y-95.5
X81.8Y-100.5
X81.805Y-121.619
X81.999Y-74.801
X82.0Y-98.65
X82.0Y-110.5
X82.15Y-123.95
X82.189Y-72.361
X82.25Y-106.25
X82.25Y-107.25
X82.25Y-108.5
X82.6Y-91.8
X82.6Y-102.0
X82.65Y-112.504
X82.7Y-93.3
X82.75Y-100.0
X82.8Y-124.6
X83.0Y-96.25
X83.439Y-77.811
X83.5Y-108.5
X83.6Y-107.3
X83.726Y-120.274
X83.75Y-101.5
X83.75Y-102.75
X83.75Y-106.25
X83.9Y-123.9
X84.1Y-121.6
X84.45Y-106.65
X84.465Y-98.816
X85.0Y-120.6
X85.25Y-97.0
X85.5Y-104.65
X85.6Y-103.7
X85.639Y-72.0
X86.48Y-109.994
X86.5Y-96.25
X86.75Y-95.5
X87.0Y-126.8
X87.25Y-100.75
X87.453Y-105.339
X87.502Y-109.9
X87.6Y-129.2
X87.7Y-106.1
X87.75Y-101.5
X87.8Y-102.3
X88.0Y-95.25
X88.0Y-96.25
X88.1Y-126.0
X88.3Y-79.65
X88.6Y-97.05
X88.6Y-100.4
X88.8Y-129.3
X88.824Y-103.924
X88.85Y-81.2
X89.0Y-125.4
X89.1Y-75.2
X89.3Y-106.1
X89.389Y-80.241
X89.449Y-77.611
X89.5Y-95.75
X90.15Y-81.2
X90.2Y-129.4
X90.675Y-117.775
X90.729Y-80.181
X91.35Y-87.5
X91.35Y-95.75
X91.5Y-93.75
X91.5Y-106.75
X91.5Y-109.0
X91.74Y-91.5
X91.8Y-129.2
X91.815Y-83.085
X91.874Y-92.724
X92.031Y-120.36
X92.3Y-95.05
X92.337Y-112.678
X92.4Y-110.3
X92.95Y-126.35
X93.0Y-106.75
X93.1Y-127.8
X93.2Y-96.5
X93.5Y-107.75
X93.8Y-118.7
X93.95Y-88.25
X93.95Y-89.4
X93.95Y-90.6
T2
X52.069Y-74.267
X53.052Y-74.272
X54.15Y-74.262
X54.438Y-120.615
X54.448Y-121.806
X54.457Y-122.839
T3
X43.56Y-83.97
X43.56Y-86.47
X43.56Y-88.97
X43.56Y-91.47
X43.56Y-93.97
X43.56Y-96.47
X43.56Y-98.97
X43.56Y-101.47
X43.56Y-103.97
X46.56Y-83.97
X46.56Y-86.47
X46.56Y-88.97
X46.56Y-91.47
X46.56Y-93.97
X46.56Y-96.47
X46.56Y-98.97
X46.56Y-101.47
X46.56Y-103.97
T4
X72.52Y-59.32
X72.52Y-64.4
X75.06Y-61.86
X77.6Y-59.32
X77.6Y-64.4
T5
X42.06Y-78.47
X42.06Y-109.47
M30
