G04 #@! TF.GenerationSoftware,KiCad,Pcbnew,7.0.10*
G04 #@! TF.CreationDate,2024-01-28T21:43:18+03:00*
G04 #@! TF.ProjectId,BIM_PCB,42494d5f-5043-4422-9e6b-696361645f70,rev?*
G04 #@! TF.SameCoordinates,Original*
G04 #@! TF.FileFunction,Legend,Top*
G04 #@! TF.FilePolarity,Positive*
%FSLAX46Y46*%
G04 Gerber Fmt 4.6, Leading zero omitted, Abs format (unit mm)*
G04 Created by KiCad (PCBNEW 7.0.10) date 2024-01-28 21:43:18*
%MOMM*%
%LPD*%
G01*
G04 APERTURE LIST*
%ADD10C,0.300000*%
%ADD11C,0.150000*%
%ADD12C,0.200000*%
%ADD13C,0.120000*%
%ADD14C,0.100000*%
%ADD15C,0.350000*%
%ADD16C,0.254000*%
G04 APERTURE END LIST*
D10*
X49040000Y-94680000D02*
G75*
G03*
X48860000Y-94680000I-90000J0D01*
G01*
X48860000Y-94680000D02*
G75*
G03*
X49040000Y-94680000I90000J0D01*
G01*
X51457539Y-105497539D02*
G75*
G03*
X51277539Y-105497539I-90000J0D01*
G01*
X51277539Y-105497539D02*
G75*
G03*
X51457539Y-105497539I90000J0D01*
G01*
X73020000Y-115000000D02*
G75*
G03*
X72840000Y-115000000I-90000J0D01*
G01*
X72840000Y-115000000D02*
G75*
G03*
X73020000Y-115000000I90000J0D01*
G01*
X67890000Y-120260000D02*
G75*
G03*
X67710000Y-120260000I-90000J0D01*
G01*
X67710000Y-120260000D02*
G75*
G03*
X67890000Y-120260000I90000J0D01*
G01*
X68440000Y-124300000D02*
G75*
G03*
X68260000Y-124300000I-90000J0D01*
G01*
X68260000Y-124300000D02*
G75*
G03*
X68440000Y-124300000I90000J0D01*
G01*
X89550000Y-125580000D02*
G75*
G03*
X89130000Y-125580000I-210000J0D01*
G01*
X89130000Y-125580000D02*
G75*
G03*
X89550000Y-125580000I210000J0D01*
G01*
X63270000Y-94640000D02*
G75*
G03*
X63090000Y-94640000I-90000J0D01*
G01*
X63090000Y-94640000D02*
G75*
G03*
X63270000Y-94640000I90000J0D01*
G01*
X60380000Y-128490000D02*
G75*
G03*
X60200000Y-128490000I-90000J0D01*
G01*
X60200000Y-128490000D02*
G75*
G03*
X60380000Y-128490000I90000J0D01*
G01*
D11*
X80050247Y-108669173D02*
X80088342Y-108554887D01*
X80088342Y-108554887D02*
X80126438Y-108516792D01*
X80126438Y-108516792D02*
X80202628Y-108478696D01*
X80202628Y-108478696D02*
X80316914Y-108478696D01*
X80316914Y-108478696D02*
X80393104Y-108516792D01*
X80393104Y-108516792D02*
X80431200Y-108554887D01*
X80431200Y-108554887D02*
X80469295Y-108631077D01*
X80469295Y-108631077D02*
X80469295Y-108935839D01*
X80469295Y-108935839D02*
X79669295Y-108935839D01*
X79669295Y-108935839D02*
X79669295Y-108669173D01*
X79669295Y-108669173D02*
X79707390Y-108592982D01*
X79707390Y-108592982D02*
X79745485Y-108554887D01*
X79745485Y-108554887D02*
X79821676Y-108516792D01*
X79821676Y-108516792D02*
X79897866Y-108516792D01*
X79897866Y-108516792D02*
X79974057Y-108554887D01*
X79974057Y-108554887D02*
X80012152Y-108592982D01*
X80012152Y-108592982D02*
X80050247Y-108669173D01*
X80050247Y-108669173D02*
X80050247Y-108935839D01*
X79669295Y-108250125D02*
X79669295Y-107792982D01*
X80469295Y-108021554D02*
X79669295Y-108021554D01*
X80469295Y-107526315D02*
X79669295Y-107526315D01*
X79669295Y-107526315D02*
X80469295Y-107069172D01*
X80469295Y-107069172D02*
X79669295Y-107069172D01*
X79745485Y-106726316D02*
X79707390Y-106688220D01*
X79707390Y-106688220D02*
X79669295Y-106612030D01*
X79669295Y-106612030D02*
X79669295Y-106421554D01*
X79669295Y-106421554D02*
X79707390Y-106345363D01*
X79707390Y-106345363D02*
X79745485Y-106307268D01*
X79745485Y-106307268D02*
X79821676Y-106269173D01*
X79821676Y-106269173D02*
X79897866Y-106269173D01*
X79897866Y-106269173D02*
X80012152Y-106307268D01*
X80012152Y-106307268D02*
X80469295Y-106764411D01*
X80469295Y-106764411D02*
X80469295Y-106269173D01*
X85999874Y-120294295D02*
X86457017Y-120294295D01*
X86228445Y-121094295D02*
X86228445Y-120294295D01*
X86647493Y-120294295D02*
X87180827Y-121094295D01*
X87180827Y-120294295D02*
X86647493Y-121094295D01*
X87904636Y-121094295D02*
X87447493Y-121094295D01*
X87676065Y-121094295D02*
X87676065Y-120294295D01*
X87676065Y-120294295D02*
X87599874Y-120408580D01*
X87599874Y-120408580D02*
X87523684Y-120484771D01*
X87523684Y-120484771D02*
X87447493Y-120522866D01*
X89996303Y-110644295D02*
X89729636Y-110263342D01*
X89539160Y-110644295D02*
X89539160Y-109844295D01*
X89539160Y-109844295D02*
X89843922Y-109844295D01*
X89843922Y-109844295D02*
X89920112Y-109882390D01*
X89920112Y-109882390D02*
X89958207Y-109920485D01*
X89958207Y-109920485D02*
X89996303Y-109996676D01*
X89996303Y-109996676D02*
X89996303Y-110110961D01*
X89996303Y-110110961D02*
X89958207Y-110187152D01*
X89958207Y-110187152D02*
X89920112Y-110225247D01*
X89920112Y-110225247D02*
X89843922Y-110263342D01*
X89843922Y-110263342D02*
X89539160Y-110263342D01*
X90262969Y-109844295D02*
X90796303Y-110644295D01*
X90796303Y-109844295D02*
X90262969Y-110644295D01*
X91520112Y-110644295D02*
X91062969Y-110644295D01*
X91291541Y-110644295D02*
X91291541Y-109844295D01*
X91291541Y-109844295D02*
X91215350Y-109958580D01*
X91215350Y-109958580D02*
X91139160Y-110034771D01*
X91139160Y-110034771D02*
X91062969Y-110072866D01*
D12*
X56303006Y-115743409D02*
X56445863Y-115791028D01*
X56445863Y-115791028D02*
X56493482Y-115838647D01*
X56493482Y-115838647D02*
X56541101Y-115933885D01*
X56541101Y-115933885D02*
X56541101Y-116076742D01*
X56541101Y-116076742D02*
X56493482Y-116171980D01*
X56493482Y-116171980D02*
X56445863Y-116219600D01*
X56445863Y-116219600D02*
X56350625Y-116267219D01*
X56350625Y-116267219D02*
X55969673Y-116267219D01*
X55969673Y-116267219D02*
X55969673Y-115267219D01*
X55969673Y-115267219D02*
X56303006Y-115267219D01*
X56303006Y-115267219D02*
X56398244Y-115314838D01*
X56398244Y-115314838D02*
X56445863Y-115362457D01*
X56445863Y-115362457D02*
X56493482Y-115457695D01*
X56493482Y-115457695D02*
X56493482Y-115552933D01*
X56493482Y-115552933D02*
X56445863Y-115648171D01*
X56445863Y-115648171D02*
X56398244Y-115695790D01*
X56398244Y-115695790D02*
X56303006Y-115743409D01*
X56303006Y-115743409D02*
X55969673Y-115743409D01*
X56826816Y-115267219D02*
X57398244Y-115267219D01*
X57112530Y-116267219D02*
X57112530Y-115267219D01*
X57731578Y-116267219D02*
X57731578Y-115267219D01*
X57731578Y-115267219D02*
X58303006Y-116267219D01*
X58303006Y-116267219D02*
X58303006Y-115267219D01*
X59303006Y-116267219D02*
X58731578Y-116267219D01*
X59017292Y-116267219D02*
X59017292Y-115267219D01*
X59017292Y-115267219D02*
X58922054Y-115410076D01*
X58922054Y-115410076D02*
X58826816Y-115505314D01*
X58826816Y-115505314D02*
X58731578Y-115552933D01*
D11*
X68169819Y-109913220D02*
X67169819Y-109913220D01*
X67169819Y-109913220D02*
X67169819Y-109532268D01*
X67169819Y-109532268D02*
X67217438Y-109437030D01*
X67217438Y-109437030D02*
X67265057Y-109389411D01*
X67265057Y-109389411D02*
X67360295Y-109341792D01*
X67360295Y-109341792D02*
X67503152Y-109341792D01*
X67503152Y-109341792D02*
X67598390Y-109389411D01*
X67598390Y-109389411D02*
X67646009Y-109437030D01*
X67646009Y-109437030D02*
X67693628Y-109532268D01*
X67693628Y-109532268D02*
X67693628Y-109913220D01*
X67646009Y-108579887D02*
X67693628Y-108437030D01*
X67693628Y-108437030D02*
X67741247Y-108389411D01*
X67741247Y-108389411D02*
X67836485Y-108341792D01*
X67836485Y-108341792D02*
X67979342Y-108341792D01*
X67979342Y-108341792D02*
X68074580Y-108389411D01*
X68074580Y-108389411D02*
X68122200Y-108437030D01*
X68122200Y-108437030D02*
X68169819Y-108532268D01*
X68169819Y-108532268D02*
X68169819Y-108913220D01*
X68169819Y-108913220D02*
X67169819Y-108913220D01*
X67169819Y-108913220D02*
X67169819Y-108579887D01*
X67169819Y-108579887D02*
X67217438Y-108484649D01*
X67217438Y-108484649D02*
X67265057Y-108437030D01*
X67265057Y-108437030D02*
X67360295Y-108389411D01*
X67360295Y-108389411D02*
X67455533Y-108389411D01*
X67455533Y-108389411D02*
X67550771Y-108437030D01*
X67550771Y-108437030D02*
X67598390Y-108484649D01*
X67598390Y-108484649D02*
X67646009Y-108579887D01*
X67646009Y-108579887D02*
X67646009Y-108913220D01*
X68169819Y-107865601D02*
X68169819Y-107675125D01*
X68169819Y-107675125D02*
X68122200Y-107579887D01*
X68122200Y-107579887D02*
X68074580Y-107532268D01*
X68074580Y-107532268D02*
X67931723Y-107437030D01*
X67931723Y-107437030D02*
X67741247Y-107389411D01*
X67741247Y-107389411D02*
X67360295Y-107389411D01*
X67360295Y-107389411D02*
X67265057Y-107437030D01*
X67265057Y-107437030D02*
X67217438Y-107484649D01*
X67217438Y-107484649D02*
X67169819Y-107579887D01*
X67169819Y-107579887D02*
X67169819Y-107770363D01*
X67169819Y-107770363D02*
X67217438Y-107865601D01*
X67217438Y-107865601D02*
X67265057Y-107913220D01*
X67265057Y-107913220D02*
X67360295Y-107960839D01*
X67360295Y-107960839D02*
X67598390Y-107960839D01*
X67598390Y-107960839D02*
X67693628Y-107913220D01*
X67693628Y-107913220D02*
X67741247Y-107865601D01*
X67741247Y-107865601D02*
X67788866Y-107770363D01*
X67788866Y-107770363D02*
X67788866Y-107579887D01*
X67788866Y-107579887D02*
X67741247Y-107484649D01*
X67741247Y-107484649D02*
X67693628Y-107437030D01*
X67693628Y-107437030D02*
X67598390Y-107389411D01*
X45989160Y-128144295D02*
X45989160Y-127344295D01*
X45989160Y-127344295D02*
X46293922Y-127344295D01*
X46293922Y-127344295D02*
X46370112Y-127382390D01*
X46370112Y-127382390D02*
X46408207Y-127420485D01*
X46408207Y-127420485D02*
X46446303Y-127496676D01*
X46446303Y-127496676D02*
X46446303Y-127610961D01*
X46446303Y-127610961D02*
X46408207Y-127687152D01*
X46408207Y-127687152D02*
X46370112Y-127725247D01*
X46370112Y-127725247D02*
X46293922Y-127763342D01*
X46293922Y-127763342D02*
X45989160Y-127763342D01*
X46712969Y-127344295D02*
X46903445Y-128144295D01*
X46903445Y-128144295D02*
X47055826Y-127572866D01*
X47055826Y-127572866D02*
X47208207Y-128144295D01*
X47208207Y-128144295D02*
X47398684Y-127344295D01*
X48160589Y-128144295D02*
X47893922Y-127763342D01*
X47703446Y-128144295D02*
X47703446Y-127344295D01*
X47703446Y-127344295D02*
X48008208Y-127344295D01*
X48008208Y-127344295D02*
X48084398Y-127382390D01*
X48084398Y-127382390D02*
X48122493Y-127420485D01*
X48122493Y-127420485D02*
X48160589Y-127496676D01*
X48160589Y-127496676D02*
X48160589Y-127610961D01*
X48160589Y-127610961D02*
X48122493Y-127687152D01*
X48122493Y-127687152D02*
X48084398Y-127725247D01*
X48084398Y-127725247D02*
X48008208Y-127763342D01*
X48008208Y-127763342D02*
X47703446Y-127763342D01*
X49112970Y-128144295D02*
X49112970Y-127344295D01*
X49493922Y-128144295D02*
X49493922Y-127344295D01*
X49493922Y-127344295D02*
X49951065Y-128144295D01*
X49951065Y-128144295D02*
X49951065Y-127344295D01*
X58333333Y-124962295D02*
X58333333Y-125609914D01*
X58333333Y-125609914D02*
X58366667Y-125686104D01*
X58366667Y-125686104D02*
X58400000Y-125724200D01*
X58400000Y-125724200D02*
X58466667Y-125762295D01*
X58466667Y-125762295D02*
X58600000Y-125762295D01*
X58600000Y-125762295D02*
X58666667Y-125724200D01*
X58666667Y-125724200D02*
X58700000Y-125686104D01*
X58700000Y-125686104D02*
X58733333Y-125609914D01*
X58733333Y-125609914D02*
X58733333Y-124962295D01*
X59433333Y-125762295D02*
X59033333Y-125762295D01*
X59233333Y-125762295D02*
X59233333Y-124962295D01*
X59233333Y-124962295D02*
X59166666Y-125076580D01*
X59166666Y-125076580D02*
X59100000Y-125152771D01*
X59100000Y-125152771D02*
X59033333Y-125190866D01*
X60033333Y-124962295D02*
X59900000Y-124962295D01*
X59900000Y-124962295D02*
X59833333Y-125000390D01*
X59833333Y-125000390D02*
X59800000Y-125038485D01*
X59800000Y-125038485D02*
X59733333Y-125152771D01*
X59733333Y-125152771D02*
X59700000Y-125305152D01*
X59700000Y-125305152D02*
X59700000Y-125609914D01*
X59700000Y-125609914D02*
X59733333Y-125686104D01*
X59733333Y-125686104D02*
X59766667Y-125724200D01*
X59766667Y-125724200D02*
X59833333Y-125762295D01*
X59833333Y-125762295D02*
X59966667Y-125762295D01*
X59966667Y-125762295D02*
X60033333Y-125724200D01*
X60033333Y-125724200D02*
X60066667Y-125686104D01*
X60066667Y-125686104D02*
X60100000Y-125609914D01*
X60100000Y-125609914D02*
X60100000Y-125419438D01*
X60100000Y-125419438D02*
X60066667Y-125343247D01*
X60066667Y-125343247D02*
X60033333Y-125305152D01*
X60033333Y-125305152D02*
X59966667Y-125267057D01*
X59966667Y-125267057D02*
X59833333Y-125267057D01*
X59833333Y-125267057D02*
X59766667Y-125305152D01*
X59766667Y-125305152D02*
X59733333Y-125343247D01*
X59733333Y-125343247D02*
X59700000Y-125419438D01*
X77829166Y-111562295D02*
X77829166Y-112209914D01*
X77829166Y-112209914D02*
X77862500Y-112286104D01*
X77862500Y-112286104D02*
X77895833Y-112324200D01*
X77895833Y-112324200D02*
X77962500Y-112362295D01*
X77962500Y-112362295D02*
X78095833Y-112362295D01*
X78095833Y-112362295D02*
X78162500Y-112324200D01*
X78162500Y-112324200D02*
X78195833Y-112286104D01*
X78195833Y-112286104D02*
X78229166Y-112209914D01*
X78229166Y-112209914D02*
X78229166Y-111562295D01*
X78929166Y-112362295D02*
X78529166Y-112362295D01*
X78729166Y-112362295D02*
X78729166Y-111562295D01*
X78729166Y-111562295D02*
X78662499Y-111676580D01*
X78662499Y-111676580D02*
X78595833Y-111752771D01*
X78595833Y-111752771D02*
X78529166Y-111790866D01*
X65193333Y-123732295D02*
X64859999Y-123732295D01*
X64859999Y-123732295D02*
X64859999Y-122932295D01*
X65760000Y-122932295D02*
X65426666Y-122932295D01*
X65426666Y-122932295D02*
X65393333Y-123313247D01*
X65393333Y-123313247D02*
X65426666Y-123275152D01*
X65426666Y-123275152D02*
X65493333Y-123237057D01*
X65493333Y-123237057D02*
X65660000Y-123237057D01*
X65660000Y-123237057D02*
X65726666Y-123275152D01*
X65726666Y-123275152D02*
X65760000Y-123313247D01*
X65760000Y-123313247D02*
X65793333Y-123389438D01*
X65793333Y-123389438D02*
X65793333Y-123579914D01*
X65793333Y-123579914D02*
X65760000Y-123656104D01*
X65760000Y-123656104D02*
X65726666Y-123694200D01*
X65726666Y-123694200D02*
X65660000Y-123732295D01*
X65660000Y-123732295D02*
X65493333Y-123732295D01*
X65493333Y-123732295D02*
X65426666Y-123694200D01*
X65426666Y-123694200D02*
X65393333Y-123656104D01*
X88012295Y-123633333D02*
X88659914Y-123633333D01*
X88659914Y-123633333D02*
X88736104Y-123600000D01*
X88736104Y-123600000D02*
X88774200Y-123566666D01*
X88774200Y-123566666D02*
X88812295Y-123500000D01*
X88812295Y-123500000D02*
X88812295Y-123366666D01*
X88812295Y-123366666D02*
X88774200Y-123300000D01*
X88774200Y-123300000D02*
X88736104Y-123266666D01*
X88736104Y-123266666D02*
X88659914Y-123233333D01*
X88659914Y-123233333D02*
X88012295Y-123233333D01*
X88088485Y-122933333D02*
X88050390Y-122900000D01*
X88050390Y-122900000D02*
X88012295Y-122833333D01*
X88012295Y-122833333D02*
X88012295Y-122666667D01*
X88012295Y-122666667D02*
X88050390Y-122600000D01*
X88050390Y-122600000D02*
X88088485Y-122566667D01*
X88088485Y-122566667D02*
X88164676Y-122533333D01*
X88164676Y-122533333D02*
X88240866Y-122533333D01*
X88240866Y-122533333D02*
X88355152Y-122566667D01*
X88355152Y-122566667D02*
X88812295Y-122966667D01*
X88812295Y-122966667D02*
X88812295Y-122533333D01*
X48916666Y-62862295D02*
X48916666Y-63509914D01*
X48916666Y-63509914D02*
X48950000Y-63586104D01*
X48950000Y-63586104D02*
X48983333Y-63624200D01*
X48983333Y-63624200D02*
X49050000Y-63662295D01*
X49050000Y-63662295D02*
X49183333Y-63662295D01*
X49183333Y-63662295D02*
X49250000Y-63624200D01*
X49250000Y-63624200D02*
X49283333Y-63586104D01*
X49283333Y-63586104D02*
X49316666Y-63509914D01*
X49316666Y-63509914D02*
X49316666Y-62862295D01*
X49583333Y-62862295D02*
X50016666Y-62862295D01*
X50016666Y-62862295D02*
X49783333Y-63167057D01*
X49783333Y-63167057D02*
X49883333Y-63167057D01*
X49883333Y-63167057D02*
X49949999Y-63205152D01*
X49949999Y-63205152D02*
X49983333Y-63243247D01*
X49983333Y-63243247D02*
X50016666Y-63319438D01*
X50016666Y-63319438D02*
X50016666Y-63509914D01*
X50016666Y-63509914D02*
X49983333Y-63586104D01*
X49983333Y-63586104D02*
X49949999Y-63624200D01*
X49949999Y-63624200D02*
X49883333Y-63662295D01*
X49883333Y-63662295D02*
X49683333Y-63662295D01*
X49683333Y-63662295D02*
X49616666Y-63624200D01*
X49616666Y-63624200D02*
X49583333Y-63586104D01*
X36756847Y-91606779D02*
X35756847Y-91606779D01*
X36709228Y-91606779D02*
X36756847Y-91702017D01*
X36756847Y-91702017D02*
X36756847Y-91892493D01*
X36756847Y-91892493D02*
X36709228Y-91987731D01*
X36709228Y-91987731D02*
X36661609Y-92035350D01*
X36661609Y-92035350D02*
X36566371Y-92082969D01*
X36566371Y-92082969D02*
X36280657Y-92082969D01*
X36280657Y-92082969D02*
X36185419Y-92035350D01*
X36185419Y-92035350D02*
X36137800Y-91987731D01*
X36137800Y-91987731D02*
X36090180Y-91892493D01*
X36090180Y-91892493D02*
X36090180Y-91702017D01*
X36090180Y-91702017D02*
X36137800Y-91606779D01*
X36137800Y-92940112D02*
X36090180Y-92844874D01*
X36090180Y-92844874D02*
X36090180Y-92654398D01*
X36090180Y-92654398D02*
X36137800Y-92559160D01*
X36137800Y-92559160D02*
X36185419Y-92511541D01*
X36185419Y-92511541D02*
X36280657Y-92463922D01*
X36280657Y-92463922D02*
X36566371Y-92463922D01*
X36566371Y-92463922D02*
X36661609Y-92511541D01*
X36661609Y-92511541D02*
X36709228Y-92559160D01*
X36709228Y-92559160D02*
X36756847Y-92654398D01*
X36756847Y-92654398D02*
X36756847Y-92844874D01*
X36756847Y-92844874D02*
X36709228Y-92940112D01*
X36090180Y-93368684D02*
X37090180Y-93368684D01*
X36709228Y-93368684D02*
X36756847Y-93463922D01*
X36756847Y-93463922D02*
X36756847Y-93654398D01*
X36756847Y-93654398D02*
X36709228Y-93749636D01*
X36709228Y-93749636D02*
X36661609Y-93797255D01*
X36661609Y-93797255D02*
X36566371Y-93844874D01*
X36566371Y-93844874D02*
X36280657Y-93844874D01*
X36280657Y-93844874D02*
X36185419Y-93797255D01*
X36185419Y-93797255D02*
X36137800Y-93749636D01*
X36137800Y-93749636D02*
X36090180Y-93654398D01*
X36090180Y-93654398D02*
X36090180Y-93463922D01*
X36090180Y-93463922D02*
X36137800Y-93368684D01*
X35994942Y-94035351D02*
X35994942Y-94797255D01*
X36137800Y-95416303D02*
X36090180Y-95321065D01*
X36090180Y-95321065D02*
X36090180Y-95130589D01*
X36090180Y-95130589D02*
X36137800Y-95035351D01*
X36137800Y-95035351D02*
X36233038Y-94987732D01*
X36233038Y-94987732D02*
X36613990Y-94987732D01*
X36613990Y-94987732D02*
X36709228Y-95035351D01*
X36709228Y-95035351D02*
X36756847Y-95130589D01*
X36756847Y-95130589D02*
X36756847Y-95321065D01*
X36756847Y-95321065D02*
X36709228Y-95416303D01*
X36709228Y-95416303D02*
X36613990Y-95463922D01*
X36613990Y-95463922D02*
X36518752Y-95463922D01*
X36518752Y-95463922D02*
X36423514Y-94987732D01*
X36090180Y-96321065D02*
X37090180Y-96321065D01*
X36137800Y-96321065D02*
X36090180Y-96225827D01*
X36090180Y-96225827D02*
X36090180Y-96035351D01*
X36090180Y-96035351D02*
X36137800Y-95940113D01*
X36137800Y-95940113D02*
X36185419Y-95892494D01*
X36185419Y-95892494D02*
X36280657Y-95844875D01*
X36280657Y-95844875D02*
X36566371Y-95844875D01*
X36566371Y-95844875D02*
X36661609Y-95892494D01*
X36661609Y-95892494D02*
X36709228Y-95940113D01*
X36709228Y-95940113D02*
X36756847Y-96035351D01*
X36756847Y-96035351D02*
X36756847Y-96225827D01*
X36756847Y-96225827D02*
X36709228Y-96321065D01*
X36756847Y-97225827D02*
X35947323Y-97225827D01*
X35947323Y-97225827D02*
X35852085Y-97178208D01*
X35852085Y-97178208D02*
X35804466Y-97130589D01*
X35804466Y-97130589D02*
X35756847Y-97035351D01*
X35756847Y-97035351D02*
X35756847Y-96892494D01*
X35756847Y-96892494D02*
X35804466Y-96797256D01*
X36137800Y-97225827D02*
X36090180Y-97130589D01*
X36090180Y-97130589D02*
X36090180Y-96940113D01*
X36090180Y-96940113D02*
X36137800Y-96844875D01*
X36137800Y-96844875D02*
X36185419Y-96797256D01*
X36185419Y-96797256D02*
X36280657Y-96749637D01*
X36280657Y-96749637D02*
X36566371Y-96749637D01*
X36566371Y-96749637D02*
X36661609Y-96797256D01*
X36661609Y-96797256D02*
X36709228Y-96844875D01*
X36709228Y-96844875D02*
X36756847Y-96940113D01*
X36756847Y-96940113D02*
X36756847Y-97130589D01*
X36756847Y-97130589D02*
X36709228Y-97225827D01*
X36137800Y-98082970D02*
X36090180Y-97987732D01*
X36090180Y-97987732D02*
X36090180Y-97797256D01*
X36090180Y-97797256D02*
X36137800Y-97702018D01*
X36137800Y-97702018D02*
X36233038Y-97654399D01*
X36233038Y-97654399D02*
X36613990Y-97654399D01*
X36613990Y-97654399D02*
X36709228Y-97702018D01*
X36709228Y-97702018D02*
X36756847Y-97797256D01*
X36756847Y-97797256D02*
X36756847Y-97987732D01*
X36756847Y-97987732D02*
X36709228Y-98082970D01*
X36709228Y-98082970D02*
X36613990Y-98130589D01*
X36613990Y-98130589D02*
X36518752Y-98130589D01*
X36518752Y-98130589D02*
X36423514Y-97654399D01*
X68429166Y-123092295D02*
X68429166Y-123739914D01*
X68429166Y-123739914D02*
X68462500Y-123816104D01*
X68462500Y-123816104D02*
X68495833Y-123854200D01*
X68495833Y-123854200D02*
X68562500Y-123892295D01*
X68562500Y-123892295D02*
X68695833Y-123892295D01*
X68695833Y-123892295D02*
X68762500Y-123854200D01*
X68762500Y-123854200D02*
X68795833Y-123816104D01*
X68795833Y-123816104D02*
X68829166Y-123739914D01*
X68829166Y-123739914D02*
X68829166Y-123092295D01*
X69262499Y-123435152D02*
X69195833Y-123397057D01*
X69195833Y-123397057D02*
X69162499Y-123358961D01*
X69162499Y-123358961D02*
X69129166Y-123282771D01*
X69129166Y-123282771D02*
X69129166Y-123244676D01*
X69129166Y-123244676D02*
X69162499Y-123168485D01*
X69162499Y-123168485D02*
X69195833Y-123130390D01*
X69195833Y-123130390D02*
X69262499Y-123092295D01*
X69262499Y-123092295D02*
X69395833Y-123092295D01*
X69395833Y-123092295D02*
X69462499Y-123130390D01*
X69462499Y-123130390D02*
X69495833Y-123168485D01*
X69495833Y-123168485D02*
X69529166Y-123244676D01*
X69529166Y-123244676D02*
X69529166Y-123282771D01*
X69529166Y-123282771D02*
X69495833Y-123358961D01*
X69495833Y-123358961D02*
X69462499Y-123397057D01*
X69462499Y-123397057D02*
X69395833Y-123435152D01*
X69395833Y-123435152D02*
X69262499Y-123435152D01*
X69262499Y-123435152D02*
X69195833Y-123473247D01*
X69195833Y-123473247D02*
X69162499Y-123511342D01*
X69162499Y-123511342D02*
X69129166Y-123587533D01*
X69129166Y-123587533D02*
X69129166Y-123739914D01*
X69129166Y-123739914D02*
X69162499Y-123816104D01*
X69162499Y-123816104D02*
X69195833Y-123854200D01*
X69195833Y-123854200D02*
X69262499Y-123892295D01*
X69262499Y-123892295D02*
X69395833Y-123892295D01*
X69395833Y-123892295D02*
X69462499Y-123854200D01*
X69462499Y-123854200D02*
X69495833Y-123816104D01*
X69495833Y-123816104D02*
X69529166Y-123739914D01*
X69529166Y-123739914D02*
X69529166Y-123587533D01*
X69529166Y-123587533D02*
X69495833Y-123511342D01*
X69495833Y-123511342D02*
X69462499Y-123473247D01*
X69462499Y-123473247D02*
X69395833Y-123435152D01*
D13*
X58000000Y-129260000D02*
X59800000Y-129260000D01*
X58000000Y-129260000D02*
X57200000Y-129260000D01*
X58000000Y-126140000D02*
X58800000Y-126140000D01*
X58000000Y-126140000D02*
X57200000Y-126140000D01*
X88995000Y-119203641D02*
X88995000Y-118896359D01*
X89755000Y-119203641D02*
X89755000Y-118896359D01*
X79910000Y-99622164D02*
X79910000Y-99837836D01*
X79190000Y-99622164D02*
X79190000Y-99837836D01*
D14*
X79450000Y-107800000D02*
G75*
G03*
X78150000Y-107800000I-650000J0D01*
G01*
X78150000Y-107800000D02*
G75*
G03*
X79450000Y-107800000I650000J0D01*
G01*
D13*
X47110000Y-115850000D02*
X47110000Y-113850000D01*
X47110000Y-115850000D02*
X43100000Y-115850000D01*
X47110000Y-113850000D02*
X43100000Y-113850000D01*
D14*
X89150000Y-110500000D02*
G75*
G03*
X87850000Y-110500000I-650000J0D01*
G01*
X87850000Y-110500000D02*
G75*
G03*
X89150000Y-110500000I650000J0D01*
G01*
X62603000Y-60673000D02*
G75*
G03*
X62503000Y-60673000I-50000J0D01*
G01*
X62503000Y-60673000D02*
G75*
G03*
X62603000Y-60673000I50000J0D01*
G01*
D13*
X63066000Y-96668000D02*
X63066000Y-98343000D01*
X63066000Y-96668000D02*
X63066000Y-96018000D01*
X66186000Y-96668000D02*
X66186000Y-97318000D01*
X66186000Y-96668000D02*
X66186000Y-96018000D01*
X74752500Y-114240000D02*
X74752500Y-114690000D01*
X74752500Y-114690000D02*
X73462500Y-114690000D01*
X74752500Y-121460000D02*
X74752500Y-121010000D01*
X75202500Y-114240000D02*
X74752500Y-114240000D01*
X75202500Y-121460000D02*
X74752500Y-121460000D01*
X81522500Y-114240000D02*
X81972500Y-114240000D01*
X81522500Y-121460000D02*
X81972500Y-121460000D01*
X81972500Y-114240000D02*
X81972500Y-114690000D01*
X81972500Y-121460000D02*
X81972500Y-121010000D01*
X73820000Y-107453641D02*
X73820000Y-107146359D01*
X74580000Y-107453641D02*
X74580000Y-107146359D01*
X75719000Y-76207359D02*
X75719000Y-76514641D01*
X74959000Y-76207359D02*
X74959000Y-76514641D01*
X90215000Y-119157836D02*
X90215000Y-118942164D01*
X90935000Y-119157836D02*
X90935000Y-118942164D01*
X53835000Y-86257641D02*
X53835000Y-85950359D01*
X54595000Y-86257641D02*
X54595000Y-85950359D01*
X69990000Y-62543641D02*
X69990000Y-62236359D01*
X70750000Y-62543641D02*
X70750000Y-62236359D01*
X62021359Y-112945000D02*
X62328641Y-112945000D01*
X62021359Y-113705000D02*
X62328641Y-113705000D01*
X47803641Y-65480000D02*
X47496359Y-65480000D01*
X47803641Y-64720000D02*
X47496359Y-64720000D01*
D14*
X57850000Y-113725000D02*
G75*
G03*
X56550000Y-113725000I-650000J0D01*
G01*
X56550000Y-113725000D02*
G75*
G03*
X57850000Y-113725000I650000J0D01*
G01*
D13*
X59920580Y-118780000D02*
X59639420Y-118780000D01*
X59920580Y-117760000D02*
X59639420Y-117760000D01*
X76575836Y-69984000D02*
X76360164Y-69984000D01*
X76575836Y-69264000D02*
X76360164Y-69264000D01*
X58327000Y-86259641D02*
X58327000Y-85952359D01*
X59087000Y-86259641D02*
X59087000Y-85952359D01*
D14*
X87450000Y-119100000D02*
G75*
G03*
X86150000Y-119100000I-650000J0D01*
G01*
X86150000Y-119100000D02*
G75*
G03*
X87450000Y-119100000I650000J0D01*
G01*
D13*
X54028641Y-111955000D02*
X53721359Y-111955000D01*
X54028641Y-111195000D02*
X53721359Y-111195000D01*
X64399641Y-94523000D02*
X64092359Y-94523000D01*
X64399641Y-93763000D02*
X64092359Y-93763000D01*
X49100000Y-105260000D02*
X51100000Y-105260000D01*
X49100000Y-105260000D02*
X49100000Y-101250000D01*
X51100000Y-105260000D02*
X51100000Y-101250000D01*
D14*
X41250000Y-62600000D02*
G75*
G03*
X39950000Y-62600000I-650000J0D01*
G01*
X39950000Y-62600000D02*
G75*
G03*
X41250000Y-62600000I650000J0D01*
G01*
D13*
X71692164Y-109940000D02*
X71907836Y-109940000D01*
X71692164Y-110660000D02*
X71907836Y-110660000D01*
X50500000Y-123440000D02*
X48825000Y-123440000D01*
X50500000Y-123440000D02*
X51150000Y-123440000D01*
X50500000Y-126560000D02*
X49850000Y-126560000D01*
X50500000Y-126560000D02*
X51150000Y-126560000D01*
X53736359Y-127445000D02*
X54043641Y-127445000D01*
X53736359Y-128205000D02*
X54043641Y-128205000D01*
X69707836Y-110660000D02*
X69492164Y-110660000D01*
X69707836Y-109940000D02*
X69492164Y-109940000D01*
X60680000Y-124070000D02*
X66880000Y-124070000D01*
X66880000Y-124070000D02*
X66880000Y-129470000D01*
X66880000Y-129470000D02*
X60680000Y-129470000D01*
X60680000Y-129470000D02*
X60680000Y-124070000D01*
X52028641Y-111955000D02*
X51721359Y-111955000D01*
X52028641Y-111195000D02*
X51721359Y-111195000D01*
X72433000Y-73731836D02*
X72433000Y-73516164D01*
X73153000Y-73731836D02*
X73153000Y-73516164D01*
D14*
X61400000Y-60690000D02*
G75*
G03*
X61300000Y-60690000I-50000J0D01*
G01*
X61300000Y-60690000D02*
G75*
G03*
X61400000Y-60690000I50000J0D01*
G01*
D13*
X72801500Y-78671000D02*
X74476500Y-78671000D01*
X72801500Y-78671000D02*
X72151500Y-78671000D01*
X72801500Y-75551000D02*
X73451500Y-75551000D01*
X72801500Y-75551000D02*
X72151500Y-75551000D01*
X46440000Y-70844836D02*
X46440000Y-70629164D01*
X47160000Y-70844836D02*
X47160000Y-70629164D01*
X88960000Y-101712164D02*
X88960000Y-101927836D01*
X88240000Y-101712164D02*
X88240000Y-101927836D01*
X57213000Y-86268641D02*
X57213000Y-85961359D01*
X57973000Y-86268641D02*
X57973000Y-85961359D01*
X58020000Y-59803641D02*
X58020000Y-59496359D01*
X58780000Y-59803641D02*
X58780000Y-59496359D01*
X62387836Y-114835000D02*
X62172164Y-114835000D01*
X62387836Y-114115000D02*
X62172164Y-114115000D01*
X84110000Y-99702164D02*
X84110000Y-99917836D01*
X83390000Y-99702164D02*
X83390000Y-99917836D01*
X64082359Y-92663000D02*
X64389641Y-92663000D01*
X64082359Y-93423000D02*
X64389641Y-93423000D01*
X91395000Y-119203641D02*
X91395000Y-118896359D01*
X92155000Y-119203641D02*
X92155000Y-118896359D01*
D14*
X64000000Y-60661000D02*
G75*
G03*
X63900000Y-60661000I-50000J0D01*
G01*
X63900000Y-60661000D02*
G75*
G03*
X64000000Y-60661000I50000J0D01*
G01*
D13*
X92629000Y-90096836D02*
X92629000Y-89881164D01*
X93349000Y-90096836D02*
X93349000Y-89881164D01*
X75140000Y-107407836D02*
X75140000Y-107192164D01*
X75860000Y-107407836D02*
X75860000Y-107192164D01*
X72000359Y-80676000D02*
X72307641Y-80676000D01*
X72000359Y-81436000D02*
X72307641Y-81436000D01*
X89700000Y-126375000D02*
X91050000Y-126375000D01*
X89700000Y-128125000D02*
X91050000Y-128125000D01*
X93459000Y-98750000D02*
X89799000Y-98750000D01*
X89799000Y-98750000D02*
X89799000Y-105570000D01*
X89799000Y-105570000D02*
X93459000Y-105570000D01*
X93459000Y-105570000D02*
X93459000Y-98750000D01*
D12*
X89619000Y-100920000D02*
G75*
G03*
X89419000Y-100920000I-100000J0D01*
G01*
X89419000Y-100920000D02*
G75*
G03*
X89619000Y-100920000I100000J0D01*
G01*
D13*
X59920580Y-121980000D02*
X59639420Y-121980000D01*
X59920580Y-120960000D02*
X59639420Y-120960000D01*
X57557164Y-111340000D02*
X57772836Y-111340000D01*
X57557164Y-112060000D02*
X57772836Y-112060000D01*
X64920000Y-59753641D02*
X64920000Y-59446359D01*
X65680000Y-59753641D02*
X65680000Y-59446359D01*
X37490000Y-113850000D02*
X37490000Y-115850000D01*
X37490000Y-113850000D02*
X41500000Y-113850000D01*
X37490000Y-115850000D02*
X41500000Y-115850000D01*
X91420000Y-116153641D02*
X91420000Y-115846359D01*
X92180000Y-116153641D02*
X92180000Y-115846359D01*
X49150000Y-95060000D02*
X51150000Y-95060000D01*
X49150000Y-95060000D02*
X49150000Y-91050000D01*
X51150000Y-95060000D02*
X51150000Y-91050000D01*
X50900000Y-85190000D02*
X48900000Y-85190000D01*
X50900000Y-85190000D02*
X50900000Y-89200000D01*
X48900000Y-85190000D02*
X48900000Y-89200000D01*
X73440000Y-113287836D02*
X73440000Y-113072164D01*
X74160000Y-113287836D02*
X74160000Y-113072164D01*
X76575836Y-71059000D02*
X76360164Y-71059000D01*
X76575836Y-70339000D02*
X76360164Y-70339000D01*
D14*
X40850000Y-60100000D02*
G75*
G03*
X39550000Y-60100000I-650000J0D01*
G01*
X39550000Y-60100000D02*
G75*
G03*
X40850000Y-60100000I650000J0D01*
G01*
D13*
X83090000Y-96400000D02*
X83090000Y-97800000D01*
X85410000Y-97800000D02*
X85410000Y-95900000D01*
X59920580Y-120380000D02*
X59639420Y-120380000D01*
X59920580Y-119360000D02*
X59639420Y-119360000D01*
X47747836Y-67005000D02*
X47532164Y-67005000D01*
X47747836Y-66285000D02*
X47532164Y-66285000D01*
X46400000Y-126760000D02*
X48400000Y-126760000D01*
X46400000Y-126760000D02*
X46400000Y-122750000D01*
X48400000Y-126760000D02*
X48400000Y-122750000D01*
X45207641Y-70630000D02*
X44900359Y-70630000D01*
X45207641Y-69870000D02*
X44900359Y-69870000D01*
X59820000Y-59803641D02*
X59820000Y-59496359D01*
X60580000Y-59803641D02*
X60580000Y-59496359D01*
X56372164Y-124640000D02*
X56587836Y-124640000D01*
X56372164Y-125360000D02*
X56587836Y-125360000D01*
X56120000Y-86263641D02*
X56120000Y-85956359D01*
X56880000Y-86263641D02*
X56880000Y-85956359D01*
X93510000Y-125100000D02*
X93510000Y-121100000D01*
X89290000Y-123100000D02*
X89290000Y-121100000D01*
X53890000Y-62207836D02*
X53890000Y-61992164D01*
X54610000Y-62207836D02*
X54610000Y-61992164D01*
D14*
X42235000Y-71829000D02*
G75*
G03*
X42135000Y-71829000I-50000J0D01*
G01*
X42135000Y-71829000D02*
G75*
G03*
X42235000Y-71829000I50000J0D01*
G01*
D13*
X54998000Y-86247641D02*
X54998000Y-85940359D01*
X55758000Y-86247641D02*
X55758000Y-85940359D01*
X51100000Y-95740000D02*
X49100000Y-95740000D01*
X51100000Y-95740000D02*
X51100000Y-99750000D01*
X49100000Y-95740000D02*
X49100000Y-99750000D01*
X56339420Y-120560000D02*
X56620580Y-120560000D01*
X56339420Y-121580000D02*
X56620580Y-121580000D01*
X49005000Y-115628641D02*
X49005000Y-115321359D01*
X49765000Y-115628641D02*
X49765000Y-115321359D01*
X69810000Y-62480000D02*
X69810000Y-61280000D01*
X69610000Y-62480000D02*
X69610000Y-61280000D01*
X69610000Y-61280000D02*
X68110000Y-61280000D01*
X68110000Y-62480000D02*
X69610000Y-62480000D01*
X68110000Y-61280000D02*
X68110000Y-62480000D01*
D14*
X37215000Y-71554000D02*
X37215000Y-68954000D01*
D12*
X41015000Y-70354000D02*
X41015000Y-70354000D01*
X41015000Y-70154000D02*
X41015000Y-70154000D01*
X41015000Y-70154000D02*
G75*
G03*
X41015000Y-70354000I0J-100000D01*
G01*
X41015000Y-70354000D02*
G75*
G03*
X41015000Y-70154000I0J100000D01*
G01*
D13*
X84604664Y-114752500D02*
X84820336Y-114752500D01*
X84604664Y-115472500D02*
X84820336Y-115472500D01*
X52470000Y-62253641D02*
X52470000Y-61946359D01*
X53230000Y-62253641D02*
X53230000Y-61946359D01*
X82704664Y-121952500D02*
X82920336Y-121952500D01*
X82704664Y-122672500D02*
X82920336Y-122672500D01*
X91566000Y-90095836D02*
X91566000Y-89880164D01*
X92286000Y-90095836D02*
X92286000Y-89880164D01*
X54037258Y-129672500D02*
X53562742Y-129672500D01*
X54037258Y-128627500D02*
X53562742Y-128627500D01*
D14*
X46350000Y-128900000D02*
G75*
G03*
X45050000Y-128900000I-650000J0D01*
G01*
X45050000Y-128900000D02*
G75*
G03*
X46350000Y-128900000I650000J0D01*
G01*
D13*
X66378307Y-119339190D02*
X66530810Y-119491693D01*
X65869190Y-119848307D02*
X66021693Y-120000810D01*
X59372000Y-86261641D02*
X59372000Y-85954359D01*
X60132000Y-86261641D02*
X60132000Y-85954359D01*
X71475000Y-112975000D02*
X70125000Y-112975000D01*
X71475000Y-111225000D02*
X70125000Y-111225000D01*
X71333000Y-73731836D02*
X71333000Y-73516164D01*
X72053000Y-73731836D02*
X72053000Y-73516164D01*
X66069190Y-115121693D02*
X66221693Y-114969190D01*
X66578307Y-115630810D02*
X66730810Y-115478307D01*
X64725000Y-85926164D02*
X64725000Y-86141836D01*
X64005000Y-85926164D02*
X64005000Y-86141836D01*
X73585359Y-78981000D02*
X73892641Y-78981000D01*
X73585359Y-79741000D02*
X73892641Y-79741000D01*
X60600000Y-112010000D02*
X60850000Y-112010000D01*
X60600000Y-112010000D02*
X60600000Y-107710000D01*
X64150000Y-112010000D02*
X63900000Y-112010000D01*
X64150000Y-112010000D02*
X64150000Y-107710000D01*
X60600000Y-107710000D02*
X60850000Y-107710000D01*
X64150000Y-107710000D02*
X63950000Y-107710000D01*
X63500000Y-109885000D02*
G75*
G03*
X61350000Y-109885000I-1075000J0D01*
G01*
X61350000Y-109885000D02*
G75*
G03*
X63500000Y-109885000I1075000J0D01*
G01*
X56339420Y-122160000D02*
X56620580Y-122160000D01*
X56339420Y-123180000D02*
X56620580Y-123180000D01*
D14*
X54625000Y-60007000D02*
G75*
G03*
X53325000Y-60007000I-650000J0D01*
G01*
X53325000Y-60007000D02*
G75*
G03*
X54625000Y-60007000I650000J0D01*
G01*
D13*
X69615000Y-83654000D02*
X68015000Y-83654000D01*
X51215000Y-83454000D02*
X50815000Y-83454000D01*
X49715000Y-81654000D02*
X49715000Y-83054000D01*
X69615000Y-81654000D02*
X69615000Y-83654000D01*
X49715000Y-66054000D02*
X49715000Y-64054000D01*
X49715000Y-64054000D02*
X51215000Y-64054000D01*
X68015000Y-64054000D02*
X69415000Y-64054000D01*
X69415000Y-64054000D02*
X69415000Y-65654000D01*
D15*
X52015000Y-84654000D02*
G75*
G03*
X51615000Y-84654000I-200000J0D01*
G01*
X51615000Y-84654000D02*
G75*
G03*
X52015000Y-84654000I200000J0D01*
G01*
D13*
X76660000Y-58260000D02*
X73460000Y-58260000D01*
X78740000Y-60060000D02*
X78740000Y-63660000D01*
X71860000Y-60560000D02*
X71860000Y-63160000D01*
X76660000Y-65460000D02*
X73460000Y-65460000D01*
X54920000Y-62253641D02*
X54920000Y-61946359D01*
X55680000Y-62253641D02*
X55680000Y-61946359D01*
X72220336Y-119472500D02*
X72004664Y-119472500D01*
X72220336Y-118752500D02*
X72004664Y-118752500D01*
X68322500Y-127822164D02*
X68322500Y-128037836D01*
X67602500Y-127822164D02*
X67602500Y-128037836D01*
X63650000Y-85926164D02*
X63650000Y-86141836D01*
X62930000Y-85926164D02*
X62930000Y-86141836D01*
X75240000Y-111607836D02*
X75240000Y-111392164D01*
X75960000Y-111607836D02*
X75960000Y-111392164D01*
X47757836Y-64460000D02*
X47542164Y-64460000D01*
X47757836Y-63740000D02*
X47542164Y-63740000D01*
X52006000Y-85951359D02*
X52006000Y-86258641D01*
X51246000Y-85951359D02*
X51246000Y-86258641D01*
X50205000Y-115628641D02*
X50205000Y-115321359D01*
X50965000Y-115628641D02*
X50965000Y-115321359D01*
X51425000Y-114412500D02*
X51425000Y-116087500D01*
X51425000Y-114412500D02*
X51425000Y-113762500D01*
X54545000Y-114412500D02*
X54545000Y-115062500D01*
X54545000Y-114412500D02*
X54545000Y-113762500D01*
X65775000Y-85926164D02*
X65775000Y-86141836D01*
X65055000Y-85926164D02*
X65055000Y-86141836D01*
X45410000Y-124772936D02*
X45410000Y-125977064D01*
X43590000Y-124772936D02*
X43590000Y-125977064D01*
X75418000Y-71414000D02*
X73618000Y-71414000D01*
X75418000Y-71414000D02*
X76218000Y-71414000D01*
X75418000Y-74534000D02*
X74618000Y-74534000D01*
X75418000Y-74534000D02*
X76218000Y-74534000D01*
X72305141Y-82746000D02*
X71997859Y-82746000D01*
X72305141Y-81986000D02*
X71997859Y-81986000D01*
D16*
X46660000Y-75670000D02*
X13360000Y-75670000D01*
X46660000Y-75670000D02*
X46660000Y-82670000D01*
D13*
X35460000Y-75670000D02*
X35460000Y-112270000D01*
X33660000Y-75670000D02*
X33660000Y-112270000D01*
X13360000Y-75670000D02*
X7660000Y-75670000D01*
D16*
X13360000Y-75670000D02*
X13360000Y-112270000D01*
X46660000Y-112270000D02*
X46660000Y-105270000D01*
X13360000Y-112270000D02*
X46660000Y-112270000D01*
X48069000Y-103945000D02*
G75*
G03*
X47837000Y-103945000I-116000J0D01*
G01*
X47837000Y-103945000D02*
G75*
G03*
X48069000Y-103945000I116000J0D01*
G01*
D13*
X63903641Y-99630000D02*
X63596359Y-99630000D01*
X63903641Y-98870000D02*
X63596359Y-98870000D01*
X77740000Y-96350000D02*
X77740000Y-97750000D01*
X80060000Y-97750000D02*
X80060000Y-95850000D01*
X51440000Y-62207836D02*
X51440000Y-61992164D01*
X52160000Y-62207836D02*
X52160000Y-61992164D01*
X43145000Y-70844836D02*
X43145000Y-70629164D01*
X43865000Y-70844836D02*
X43865000Y-70629164D01*
X71717500Y-117208859D02*
X71717500Y-117516141D01*
X70957500Y-117208859D02*
X70957500Y-117516141D01*
X65219060Y-117547487D02*
X67552513Y-119880940D01*
X67552513Y-119880940D02*
X70380940Y-117052513D01*
X53812164Y-126340000D02*
X54027836Y-126340000D01*
X53812164Y-127060000D02*
X54027836Y-127060000D01*
X59920580Y-123580000D02*
X59639420Y-123580000D01*
X59920580Y-122560000D02*
X59639420Y-122560000D01*
D14*
X80190000Y-75704000D02*
G75*
G03*
X78890000Y-75704000I-650000J0D01*
G01*
X78890000Y-75704000D02*
G75*
G03*
X80190000Y-75704000I650000J0D01*
G01*
D13*
X51425000Y-108975000D02*
X51425000Y-110650000D01*
X51425000Y-108975000D02*
X51425000Y-108325000D01*
X54545000Y-108975000D02*
X54545000Y-109625000D01*
X54545000Y-108975000D02*
X54545000Y-108325000D01*
X46946359Y-119295000D02*
X47253641Y-119295000D01*
X46946359Y-120055000D02*
X47253641Y-120055000D01*
X93020000Y-116153641D02*
X93020000Y-115846359D01*
X93780000Y-116153641D02*
X93780000Y-115846359D01*
X53206000Y-85951359D02*
X53206000Y-86258641D01*
X52446000Y-85951359D02*
X52446000Y-86258641D01*
X70437500Y-123925000D02*
X70437500Y-124185000D01*
X70437500Y-124185000D02*
X68762500Y-124185000D01*
X70437500Y-129375000D02*
X70437500Y-129115000D01*
X73162500Y-123925000D02*
X70437500Y-123925000D01*
X73162500Y-123925000D02*
X75887500Y-123925000D01*
X73162500Y-129375000D02*
X70437500Y-129375000D01*
X73162500Y-129375000D02*
X75887500Y-129375000D01*
X75887500Y-123925000D02*
X75887500Y-124185000D01*
X75887500Y-129375000D02*
X75887500Y-129115000D01*
X61996000Y-97871641D02*
X61996000Y-97564359D01*
X62756000Y-97871641D02*
X62756000Y-97564359D01*
D14*
X68350000Y-111000000D02*
G75*
G03*
X67050000Y-111000000I-650000J0D01*
G01*
X67050000Y-111000000D02*
G75*
G03*
X68350000Y-111000000I650000J0D01*
G01*
D13*
X57511359Y-110120000D02*
X57818641Y-110120000D01*
X57511359Y-110880000D02*
X57818641Y-110880000D01*
M02*
